<svg width="24" height="24" viewBox="0 0 24 24" fill="none" xmlns="http://www.w3.org/2000/svg">
<path d="M19 9.00039C19.0016 7.65828 18.6173 6.344 17.8929 5.21415C17.1685 4.0843 16.1346 3.1865 14.9144 2.62773C13.6941 2.06895 12.3389 1.87275 11.0103 2.06251C9.68166 2.25227 8.43559 2.81998 7.42053 3.698C6.40547 4.57603 5.66422 5.72736 5.28509 7.01481C4.90597 8.30227 4.90495 9.67157 5.28216 10.9596C5.65937 12.2476 6.39891 13.4 7.41266 14.2796C8.42641 15.1591 9.67164 15.7287 11 15.9204V18.0004H10C9.73478 18.0004 9.48042 18.1058 9.29289 18.2933C9.10535 18.4808 8.99999 18.7352 8.99999 19.0004C8.99999 19.2656 9.10535 19.52 9.29289 19.7075C9.48042 19.895 9.73478 20.0004 10 20.0004H11V21.0004C11 21.2656 11.1054 21.52 11.2929 21.7075C11.4804 21.895 11.7348 22.0004 12 22.0004C12.2652 22.0004 12.5196 21.895 12.7071 21.7075C12.8946 21.52 13 21.2656 13 21.0004V20.0004H14C14.2652 20.0004 14.5196 19.895 14.7071 19.7075C14.8946 19.52 15 19.2656 15 19.0004C15 18.7352 14.8946 18.4808 14.7071 18.2933C14.5196 18.1058 14.2652 18.0004 14 18.0004H13V15.9204C14.6646 15.6801 16.187 14.8486 17.2888 13.5779C18.3906 12.3072 18.998 10.6822 19 9.00039ZM12 14.0004C11.0111 14.0004 10.0444 13.7071 9.22214 13.1577C8.3999 12.6083 7.75904 11.8274 7.3806 10.9138C7.00216 10.0002 6.90314 8.99485 7.09607 8.02494C7.28899 7.05504 7.7652 6.16412 8.46446 5.46486C9.16372 4.7656 10.0546 4.28939 11.0245 4.09647C11.9944 3.90354 12.9998 4.00256 13.9134 4.381C14.827 4.75943 15.6079 5.4003 16.1573 6.22254C16.7068 7.04479 17 8.01149 17 9.00039C17 9.657 16.8707 10.3072 16.6194 10.9138C16.3681 11.5204 15.9998 12.0716 15.5355 12.5359C15.0712 13.0002 14.52 13.3685 13.9134 13.6198C13.3068 13.8711 12.6566 14.0004 12 14.0004Z" fill="black"/>
</svg>
