<svg width="24" height="24" viewBox="0 0 24 24" fill="none" xmlns="http://www.w3.org/2000/svg">
<path d="M21.71 16.2902C21.6171 16.1965 21.5065 16.1221 21.3846 16.0713C21.2627 16.0205 21.132 15.9944 21 15.9944C20.868 15.9944 20.7373 16.0205 20.6154 16.0713C20.4936 16.1221 20.383 16.1965 20.29 16.2902L18 18.5902V9.00019C18 8.20454 17.6839 7.44147 17.1213 6.87887C16.5587 6.31626 15.7957 6.00019 15 6.00019H5.41002L7.71002 3.71019C7.80326 3.61695 7.87722 3.50626 7.92768 3.38443C7.97814 3.26261 8.00411 3.13204 8.00411 3.00019C8.00411 2.86833 7.97814 2.73776 7.92768 2.61594C7.87722 2.49411 7.80326 2.38342 7.71002 2.29019C7.61678 2.19695 7.50609 2.12299 7.38427 2.07253C7.26245 2.02207 7.13188 1.99609 7.00002 1.99609C6.86816 1.99609 6.73759 2.02207 6.61577 2.07253C6.49395 2.12299 6.38326 2.19695 6.29002 2.29019L2.29002 6.29019C2.19898 6.38529 2.12761 6.49743 2.08002 6.62019C1.98 6.86365 1.98 7.13672 2.08002 7.38019C2.12761 7.50294 2.19898 7.61508 2.29002 7.71019L6.29002 11.7102C6.38298 11.8039 6.49358 11.8783 6.61544 11.9291C6.7373 11.9798 6.86801 12.006 7.00002 12.006C7.13203 12.006 7.26274 11.9798 7.3846 11.9291C7.50645 11.8783 7.61706 11.8039 7.71002 11.7102C7.80375 11.6172 7.87814 11.5066 7.92891 11.3848C7.97968 11.2629 8.00582 11.1322 8.00582 11.0002C8.00582 10.8682 7.97968 10.7375 7.92891 10.6156C7.87814 10.4937 7.80375 10.3831 7.71002 10.2902L5.41002 8.00019H15C15.2652 8.00019 15.5196 8.10554 15.7071 8.29308C15.8947 8.48062 16 8.73497 16 9.00019V18.5902L13.71 16.2902C13.6168 16.1969 13.5061 16.123 13.3843 16.0725C13.2624 16.0221 13.1319 15.9961 13 15.9961C12.8682 15.9961 12.7376 16.0221 12.6158 16.0725C12.4939 16.123 12.3833 16.1969 12.29 16.2902C12.1968 16.3834 12.1228 16.4941 12.0724 16.6159C12.0219 16.7378 11.9959 16.8683 11.9959 17.0002C11.9959 17.132 12.0219 17.2626 12.0724 17.3844C12.1228 17.5063 12.1968 17.6169 12.29 17.7102L16.29 21.7102C16.3851 21.8012 16.4973 21.8726 16.62 21.9202C16.7397 21.9731 16.8691 22.0004 17 22.0004C17.1309 22.0004 17.2603 21.9731 17.38 21.9202C17.5028 21.8726 17.6149 21.8012 17.71 21.7102L21.71 17.7102C21.8037 17.6172 21.8781 17.5066 21.9289 17.3848C21.9797 17.2629 22.0058 17.1322 22.0058 17.0002C22.0058 16.8682 21.9797 16.7375 21.9289 16.6156C21.8781 16.4937 21.8037 16.3831 21.71 16.2902Z" fill="black"/>
</svg>
