<svg width="24" height="24" viewBox="0 0 24 24" fill="none" xmlns="http://www.w3.org/2000/svg">
<path d="M20.9199 16.6199C20.8723 16.4971 20.801 16.385 20.7099 16.2899L17.7099 13.2899C17.5216 13.1016 17.2662 12.9958 16.9999 12.9958C16.7336 12.9958 16.4782 13.1016 16.2899 13.2899C16.1016 13.4782 15.9958 13.7336 15.9958 13.9999C15.9958 14.2662 16.1016 14.5216 16.2899 14.7099L17.5899 15.9999H8.99994C8.73472 15.9999 8.48037 15.8945 8.29283 15.707C8.1053 15.5195 7.99994 15.2651 7.99994 14.9999V6.4099L9.28994 7.7099C9.3829 7.80363 9.49351 7.87802 9.61536 7.92879C9.73722 7.97956 9.86793 8.00569 9.99994 8.00569C10.132 8.00569 10.2627 7.97956 10.3845 7.92879C10.5064 7.87802 10.617 7.80363 10.7099 7.7099C10.8037 7.61693 10.8781 7.50633 10.9288 7.38447C10.9796 7.26261 11.0057 7.13191 11.0057 6.9999C11.0057 6.86788 10.9796 6.73718 10.9288 6.61532C10.8781 6.49346 10.8037 6.38286 10.7099 6.2899L7.70994 3.2899C7.61484 3.19886 7.50269 3.12749 7.37994 3.0799C7.13648 2.97988 6.8634 2.97988 6.61994 3.0799C6.49719 3.12749 6.38505 3.19886 6.28994 3.2899L3.28994 6.2899C3.10164 6.4782 2.99585 6.73359 2.99585 6.9999C2.99585 7.13176 3.02182 7.26232 3.07228 7.38415C3.12274 7.50597 3.1967 7.61666 3.28994 7.7099C3.38318 7.80313 3.49387 7.8771 3.61569 7.92756C3.73751 7.97802 3.86808 8.00399 3.99994 8.00399C4.26624 8.00399 4.52164 7.8982 4.70994 7.7099L5.99994 6.4099V14.9999C5.99994 15.7955 6.31601 16.5586 6.87862 17.1212C7.44123 17.6838 8.20429 17.9999 8.99994 17.9999H17.5899L16.2899 19.2899C16.1962 19.3829 16.1218 19.4935 16.071 19.6153C16.0203 19.7372 15.9941 19.8679 15.9941 19.9999C15.9941 20.1319 16.0203 20.2626 16.071 20.3845C16.1218 20.5063 16.1962 20.6169 16.2899 20.7099C16.3829 20.8036 16.4935 20.878 16.6154 20.9288C16.7372 20.9796 16.8679 21.0057 16.9999 21.0057C17.132 21.0057 17.2627 20.9796 17.3845 20.9288C17.5064 20.878 17.617 20.8036 17.7099 20.7099L20.7099 17.7099C20.801 17.6148 20.8723 17.5026 20.9199 17.3799C21.02 17.1364 21.02 16.8634 20.9199 16.6199Z" fill="black"/>
</svg>
