<svg width="24" height="24" viewBox="0 0 24 24" fill="none" xmlns="http://www.w3.org/2000/svg">
<path d="M20.9199 6.62019C20.8723 6.49743 20.801 6.38529 20.7099 6.29019L17.7099 3.29019C17.6167 3.19695 17.506 3.12299 17.3842 3.07253C17.2624 3.02207 17.1318 2.99609 16.9999 2.99609C16.7336 2.99609 16.4782 3.10188 16.2899 3.29019C16.1016 3.47849 15.9958 3.73388 15.9958 4.00019C15.9958 4.26649 16.1016 4.52188 16.2899 4.71019L17.5899 6.00019H8.99994C8.20429 6.00019 7.44123 6.31626 6.87862 6.87887C6.31601 7.44147 5.99994 8.20454 5.99994 9.00019V17.5902L4.70994 16.2902C4.52164 16.1019 4.26624 15.9961 3.99994 15.9961C3.73364 15.9961 3.47825 16.1019 3.28994 16.2902C3.10164 16.4785 2.99585 16.7339 2.99585 17.0002C2.99585 17.2665 3.10164 17.5219 3.28994 17.7102L6.28994 20.7102C6.38505 20.8012 6.49719 20.8726 6.61994 20.9202C6.73964 20.9731 6.86907 21.0004 6.99994 21.0004C7.13081 21.0004 7.26024 20.9731 7.37994 20.9202C7.50269 20.8726 7.61484 20.8012 7.70994 20.7102L10.7099 17.7102C10.8982 17.5219 11.004 17.2665 11.004 17.0002C11.004 16.7339 10.8982 16.4785 10.7099 16.2902C10.5216 16.1019 10.2662 15.9961 9.99994 15.9961C9.73364 15.9961 9.47824 16.1019 9.28994 16.2902L7.99994 17.5902V9.00019C7.99994 8.73497 8.1053 8.48062 8.29283 8.29308C8.48037 8.10554 8.73472 8.00019 8.99994 8.00019H17.5899L16.2899 9.29019C16.1962 9.38315 16.1218 9.49375 16.071 9.61561C16.0203 9.73747 15.9941 9.86817 15.9941 10.0002C15.9941 10.1322 16.0203 10.2629 16.071 10.3848C16.1218 10.5066 16.1962 10.6172 16.2899 10.7102C16.3829 10.8039 16.4935 10.8783 16.6154 10.9291C16.7372 10.9798 16.8679 11.006 16.9999 11.006C17.132 11.006 17.2627 10.9798 17.3845 10.9291C17.5064 10.8783 17.617 10.8039 17.7099 10.7102L20.7099 7.71019C20.801 7.61508 20.8723 7.50294 20.9199 7.38019C21.02 7.13672 21.02 6.86365 20.9199 6.62019Z" fill="black"/>
</svg>
