<svg width="24" height="24" viewBox="0 0 24 24" fill="none" xmlns="http://www.w3.org/2000/svg">
<path d="M18 10.0002C18 9.73497 17.8947 9.48062 17.7071 9.29308C17.5196 9.10554 17.2652 9.00019 17 9.00019H5.41002L7.71002 6.71019C7.89832 6.52188 8.00411 6.26649 8.00411 6.00019C8.00411 5.73388 7.89832 5.47849 7.71002 5.29019C7.52171 5.10188 7.26632 4.99609 7.00002 4.99609C6.73372 4.99609 6.47832 5.10188 6.29002 5.29019L2.29002 9.29019C2.15126 9.43081 2.05726 9.60938 2.01989 9.80337C1.98252 9.99736 2.00344 10.1981 2.08002 10.3802C2.15504 10.5628 2.28244 10.7191 2.44616 10.8295C2.60988 10.9398 2.80259 10.9992 3.00002 11.0002H17C17.2652 11.0002 17.5196 10.8948 17.7071 10.7073C17.8947 10.5198 18 10.2654 18 10.0002ZM21.92 13.6202C21.845 13.4376 21.7176 13.2812 21.5539 13.1709C21.3902 13.0606 21.1974 13.0012 21 13.0002H7.00002C6.7348 13.0002 6.48045 13.1055 6.29291 13.2931C6.10537 13.4806 6.00002 13.735 6.00002 14.0002C6.00002 14.2654 6.10537 14.5198 6.29291 14.7073C6.48045 14.8948 6.7348 15.0002 7.00002 15.0002H18.59L16.29 17.2902C16.1963 17.3831 16.1219 17.4937 16.0711 17.6156C16.0204 17.7375 15.9942 17.8682 15.9942 18.0002C15.9942 18.1322 16.0204 18.2629 16.0711 18.3848C16.1219 18.5066 16.1963 18.6172 16.29 18.7102C16.383 18.8039 16.4936 18.8783 16.6154 18.9291C16.7373 18.9798 16.868 19.006 17 19.006C17.132 19.006 17.2627 18.9798 17.3846 18.9291C17.5065 18.8783 17.6171 18.8039 17.71 18.7102L21.71 14.7102C21.8488 14.5696 21.9428 14.391 21.9801 14.197C22.0175 14.003 21.9966 13.8023 21.92 13.6202Z" fill="black"/>
</svg>
