<svg width="24" height="24" viewBox="0 0 24 24" fill="none" xmlns="http://www.w3.org/2000/svg">
<path d="M11.29 11.4598C11.383 11.5535 11.4936 11.6279 11.6154 11.6786C11.7373 11.7294 11.868 11.7556 12 11.7556C12.132 11.7556 12.2627 11.7294 12.3846 11.6786C12.5065 11.6279 12.6171 11.5535 12.71 11.4598L15.71 8.45976C15.8059 8.36652 15.8824 8.25531 15.9353 8.13248C15.9882 8.00966 16.0164 7.87762 16.0183 7.7439C16.0201 7.61018 15.9956 7.47741 15.9462 7.35316C15.8967 7.22891 15.8233 7.11562 15.73 7.01976C15.6368 6.92389 15.5256 6.84733 15.4027 6.79444C15.2799 6.74156 15.1479 6.71338 15.0142 6.71152C14.8804 6.70967 14.7477 6.73417 14.6234 6.78362C14.4992 6.83308 14.3859 6.90652 14.29 6.99976L12 9.33976L9.71002 6.99976C9.51641 6.81145 9.25593 6.70777 8.98588 6.71152C8.71583 6.71527 8.45833 6.82615 8.27002 7.01976C8.08172 7.21337 7.97804 7.47385 7.98179 7.7439C7.98554 8.01395 8.09641 8.27145 8.29002 8.45976L11.29 11.4598ZM14.29 12.5398L12 14.8398L9.71002 12.5398C9.51641 12.3515 9.25593 12.2478 8.98588 12.2515C8.71583 12.2553 8.45833 12.3662 8.27002 12.5598C8.08172 12.7534 7.97804 13.0138 7.98179 13.2839C7.98554 13.554 8.09641 13.8115 8.29002 13.9998L11.29 16.9998C11.383 17.0935 11.4936 17.1679 11.6154 17.2186C11.7373 17.2694 11.868 17.2956 12 17.2956C12.132 17.2956 12.2627 17.2694 12.3846 17.2186C12.5065 17.1679 12.6171 17.0935 12.71 16.9998L15.71 13.9998C15.8983 13.8115 16.0041 13.5561 16.0041 13.2898C16.0041 13.0235 15.8983 12.7681 15.71 12.5798C15.5217 12.3915 15.2663 12.2857 15 12.2857C14.7337 12.2857 14.4783 12.3915 14.29 12.5798V12.5398Z" fill="black"/>
</svg>
