<svg width="24" height="24" viewBox="0 0 24 24" fill="none" xmlns="http://www.w3.org/2000/svg">
<path d="M20.9999 11.0002C20.7347 11.0002 20.4804 11.1055 20.2928 11.2931C20.1053 11.4806 19.9999 11.735 19.9999 12.0002V14.5902L13.7099 8.29019C13.617 8.19646 13.5064 8.12206 13.3845 8.07129C13.2627 8.02053 13.132 7.99439 12.9999 7.99439C12.8679 7.99439 12.7372 8.02053 12.6154 8.07129C12.4935 8.12206 12.3829 8.19646 12.2899 8.29019L8.99994 11.5902L3.70994 6.29019C3.52164 6.10188 3.26624 5.99609 2.99994 5.99609C2.73364 5.99609 2.47824 6.10188 2.28994 6.29019C2.10164 6.47849 1.99585 6.73388 1.99585 7.00019C1.99585 7.26649 2.10164 7.52188 2.28994 7.71019L8.28994 13.7102C8.3829 13.8039 8.49351 13.8783 8.61536 13.9291C8.73722 13.9798 8.86793 14.006 8.99994 14.006C9.13195 14.006 9.26266 13.9798 9.38452 13.9291C9.50638 13.8783 9.61698 13.8039 9.70994 13.7102L12.9999 10.4102L18.5899 16.0002H15.9999C15.7347 16.0002 15.4804 16.1055 15.2928 16.2931C15.1053 16.4806 14.9999 16.735 14.9999 17.0002C14.9999 17.2654 15.1053 17.5198 15.2928 17.7073C15.4804 17.8948 15.7347 18.0002 15.9999 18.0002H20.9999C21.1306 17.9986 21.2597 17.9714 21.3799 17.9202C21.6243 17.8187 21.8185 17.6245 21.9199 17.3802C21.9712 17.26 21.9984 17.1309 21.9999 17.0002V12.0002C21.9999 11.735 21.8946 11.4806 21.707 11.2931C21.5195 11.1055 21.2652 11.0002 20.9999 11.0002Z" fill="black"/>
</svg>
