<svg width="24" height="24" viewBox="0 0 24 24" fill="none" xmlns="http://www.w3.org/2000/svg">
<path d="M21.7099 20.2902L15.4099 14.0002H16.9999C17.2652 14.0002 17.5195 13.8948 17.707 13.7073C17.8946 13.5198 17.9999 13.2654 17.9999 13.0002C17.9999 12.735 17.8946 12.4806 17.707 12.2931C17.5195 12.1055 17.2652 12.0002 16.9999 12.0002H13.4099L19.0699 6.34019C19.1746 6.25054 19.2596 6.14022 19.3197 6.01616C19.3797 5.89209 19.4134 5.75696 19.4187 5.61924C19.4241 5.48152 19.4009 5.34419 19.3506 5.21586C19.3003 5.08754 19.224 4.97099 19.1266 4.87354C19.0291 4.77608 18.9126 4.69982 18.7843 4.64955C18.6559 4.59927 18.5186 4.57607 18.3809 4.58139C18.2432 4.58671 18.108 4.62044 17.984 4.68046C17.8599 4.74048 17.7496 4.8255 17.6599 4.93019L11.9999 10.5902V7.00019C11.9999 6.73497 11.8946 6.48062 11.707 6.29308C11.5195 6.10554 11.2652 6.00019 10.9999 6.00019C10.7347 6.00019 10.4804 6.10554 10.2928 6.29308C10.1053 6.48062 9.99994 6.73497 9.99994 7.00019V8.59019L3.70994 2.29019C3.6167 2.19695 3.50601 2.12299 3.38419 2.07253C3.26237 2.02207 3.1318 1.99609 2.99994 1.99609C2.86808 1.99609 2.73751 2.02207 2.61569 2.07253C2.49387 2.12299 2.38318 2.19695 2.28994 2.29019C2.10164 2.47849 1.99585 2.73388 1.99585 3.00019C1.99585 3.26649 2.10164 3.52188 2.28994 3.71019L8.58994 10.0002H6.99994C6.73472 10.0002 6.48037 10.1055 6.29283 10.2931C6.1053 10.4806 5.99994 10.735 5.99994 11.0002C5.99994 11.2654 6.1053 11.5198 6.29283 11.7073C6.48037 11.8948 6.73472 12.0002 6.99994 12.0002H10.5899L4.92994 17.6602C4.74369 17.8475 4.63915 18.101 4.63915 18.3652C4.63915 18.6294 4.74369 18.8828 4.92994 19.0702C5.1173 19.2564 5.37076 19.361 5.63494 19.361C5.89913 19.361 6.15258 19.2564 6.33994 19.0702L11.9999 13.4102V17.0002C11.9999 17.2654 12.1053 17.5198 12.2928 17.7073C12.4804 17.8948 12.7347 18.0002 12.9999 18.0002C13.2652 18.0002 13.5195 17.8948 13.707 17.7073C13.8946 17.5198 13.9999 17.2654 13.9999 17.0002V15.4102L20.2899 21.7102C20.3829 21.8039 20.4935 21.8783 20.6154 21.9291C20.7372 21.9798 20.8679 22.006 20.9999 22.006C21.132 22.006 21.2627 21.9798 21.3845 21.9291C21.5064 21.8783 21.617 21.8039 21.7099 21.7102C21.8037 21.6172 21.8781 21.5066 21.9288 21.3848C21.9796 21.2629 22.0057 21.1322 22.0057 21.0002C22.0057 20.8682 21.9796 20.7375 21.9288 20.6156C21.8781 20.4937 21.8037 20.3831 21.7099 20.2902Z" fill="black"/>
</svg>
