<svg width="24" height="24" viewBox="0 0 24 24" fill="none" xmlns="http://www.w3.org/2000/svg">
<path d="M19.92 10.1202C19.8724 9.99743 19.801 9.88529 19.71 9.79019L16.71 6.79019C16.6168 6.69695 16.5061 6.62299 16.3842 6.57253C16.2624 6.52207 16.1319 6.49609 16 6.49609C15.7337 6.49609 15.4783 6.60188 15.29 6.79019C15.1968 6.88342 15.1228 6.99411 15.0723 7.11594C15.0219 7.23776 14.9959 7.36833 14.9959 7.50019C14.9959 7.76649 15.1017 8.02188 15.29 8.21019L16.59 9.50019H7C6.20435 9.50019 5.44129 9.81626 4.87868 10.3789C4.31607 10.9415 4 11.7045 4 12.5002V16.5002C4 16.7654 4.10536 17.0198 4.29289 17.2073C4.48043 17.3948 4.73478 17.5002 5 17.5002C5.26522 17.5002 5.51957 17.3948 5.70711 17.2073C5.89464 17.0198 6 16.7654 6 16.5002V12.5002C6 12.235 6.10536 11.9806 6.29289 11.7931C6.48043 11.6055 6.73478 11.5002 7 11.5002H16.59L15.29 12.7902C15.1963 12.8831 15.1219 12.9937 15.0711 13.1156C15.0203 13.2375 14.9942 13.3682 14.9942 13.5002C14.9942 13.6322 15.0203 13.7629 15.0711 13.8848C15.1219 14.0066 15.1963 14.1172 15.29 14.2102C15.383 14.3039 15.4936 14.3783 15.6154 14.4291C15.7373 14.4798 15.868 14.506 16 14.506C16.132 14.506 16.2627 14.4798 16.3846 14.4291C16.5064 14.3783 16.617 14.3039 16.71 14.2102L19.71 11.2102C19.801 11.1151 19.8724 11.0029 19.92 10.8802C20.02 10.6367 20.02 10.3636 19.92 10.1202Z" fill="black"/>
</svg>
