<svg width="24" height="24" viewBox="0 0 24 24" fill="none" xmlns="http://www.w3.org/2000/svg">
<path d="M21.92 11.6202C21.8724 11.4974 21.8011 11.3853 21.71 11.2902L17.71 7.29019C17.6168 7.19695 17.5061 7.12299 17.3843 7.07253C17.2624 7.02207 17.1319 6.99609 17 6.99609C16.7337 6.99609 16.4783 7.10188 16.29 7.29019C16.1017 7.47849 15.9959 7.73388 15.9959 8.00019C15.9959 8.26649 16.1017 8.52188 16.29 8.71019L18.59 11.0002H5.41002L7.71002 8.71019C7.80326 8.61695 7.87722 8.50626 7.92768 8.38444C7.97814 8.26261 8.00411 8.13204 8.00411 8.00019C8.00411 7.86833 7.97814 7.73776 7.92768 7.61594C7.87722 7.49411 7.80326 7.38342 7.71002 7.29019C7.61678 7.19695 7.50609 7.12299 7.38427 7.07253C7.26245 7.02207 7.13188 6.99609 7.00002 6.99609C6.86816 6.99609 6.73759 7.02207 6.61577 7.07253C6.49395 7.12299 6.38326 7.19695 6.29002 7.29019L2.29002 11.2902C2.19898 11.3853 2.12761 11.4974 2.08002 11.6202C1.98 11.8636 1.98 12.1367 2.08002 12.3802C2.12761 12.5029 2.19898 12.6151 2.29002 12.7102L6.29002 16.7102C6.38298 16.8039 6.49358 16.8783 6.61544 16.9291C6.7373 16.9798 6.86801 17.006 7.00002 17.006C7.13203 17.006 7.26274 16.9798 7.3846 16.9291C7.50645 16.8783 7.61706 16.8039 7.71002 16.7102C7.80375 16.6172 7.87814 16.5066 7.92891 16.3848C7.97968 16.2629 8.00582 16.1322 8.00582 16.0002C8.00582 15.8682 7.97968 15.7375 7.92891 15.6156C7.87814 15.4937 7.80375 15.3831 7.71002 15.2902L5.41002 13.0002H18.59L16.29 15.2902C16.1963 15.3831 16.1219 15.4937 16.0711 15.6156C16.0204 15.7375 15.9942 15.8682 15.9942 16.0002C15.9942 16.1322 16.0204 16.2629 16.0711 16.3848C16.1219 16.5066 16.1963 16.6172 16.29 16.7102C16.383 16.8039 16.4936 16.8783 16.6154 16.9291C16.7373 16.9798 16.868 17.006 17 17.006C17.132 17.006 17.2627 16.9798 17.3846 16.9291C17.5065 16.8783 17.6171 16.8039 17.71 16.7102L21.71 12.7102C21.8011 12.6151 21.8724 12.5029 21.92 12.3802C22.02 12.1367 22.02 11.8636 21.92 11.6202Z" fill="black"/>
</svg>
