<svg width="24" height="24" viewBox="0 0 24 24" fill="none" xmlns="http://www.w3.org/2000/svg">
<path d="M21.92 11.6202C21.8724 11.4974 21.8011 11.3853 21.71 11.2902L19.21 8.79018C19.0217 8.60188 18.7663 8.49609 18.5 8.49609C18.2337 8.49609 17.9783 8.60188 17.79 8.79018C17.6017 8.97849 17.4959 9.23388 17.4959 9.50019C17.4959 9.76649 17.6017 10.0219 17.79 10.2102L18.59 11.0002H14C13.7348 11.0002 13.4804 11.1055 13.2929 11.2931C13.1054 11.4806 13 11.735 13 12.0002C13 12.2654 13.1054 12.5198 13.2929 12.7073C13.4804 12.8948 13.7348 13.0002 14 13.0002H18.59L17.79 13.7902C17.6963 13.8831 17.6219 13.9937 17.5711 14.1156C17.5204 14.2375 17.4942 14.3682 17.4942 14.5002C17.4942 14.6322 17.5204 14.7629 17.5711 14.8848C17.6219 15.0066 17.6963 15.1172 17.79 15.2102C17.883 15.3039 17.9936 15.3783 18.1154 15.4291C18.2373 15.4798 18.368 15.506 18.5 15.506C18.632 15.506 18.7627 15.4798 18.8846 15.4291C19.0065 15.3783 19.1171 15.3039 19.21 15.2102L21.71 12.7102C21.8011 12.6151 21.8724 12.5029 21.92 12.3802C22.02 12.1367 22.02 11.8636 21.92 11.6202ZM10 11.0002H5.41002L6.21002 10.2102C6.39832 10.0219 6.50411 9.76649 6.50411 9.50019C6.50411 9.23388 6.39832 8.97849 6.21002 8.79018C6.02172 8.60188 5.76632 8.49609 5.50002 8.49609C5.23372 8.49609 4.97832 8.60188 4.79002 8.79018L2.29002 11.2902C2.19898 11.3853 2.12761 11.4974 2.08002 11.6202C1.98 11.8636 1.98 12.1367 2.08002 12.3802C2.12761 12.5029 2.19898 12.6151 2.29002 12.7102L4.79002 15.2102C4.88298 15.3039 4.99358 15.3783 5.11544 15.4291C5.2373 15.4798 5.36801 15.506 5.50002 15.506C5.63203 15.506 5.76274 15.4798 5.8846 15.4291C6.00645 15.3783 6.11706 15.3039 6.21002 15.2102C6.30375 15.1172 6.37814 15.0066 6.42891 14.8848C6.47968 14.7629 6.50582 14.6322 6.50582 14.5002C6.50582 14.3682 6.47968 14.2375 6.42891 14.1156C6.37814 13.9937 6.30375 13.8831 6.21002 13.7902L5.41002 13.0002H10C10.2652 13.0002 10.5196 12.8948 10.7071 12.7073C10.8947 12.5198 11 12.2654 11 12.0002C11 11.735 10.8947 11.4806 10.7071 11.2931C10.5196 11.1055 10.2652 11.0002 10 11.0002Z" fill="black"/>
</svg>
