<svg width="24" height="24" viewBox="0 0 24 24" fill="none" xmlns="http://www.w3.org/2000/svg">
<path d="M17 16.0002H9.41L17.71 7.71019C17.8983 7.52188 18.0041 7.26649 18.0041 7.00019C18.0041 6.73388 17.8983 6.47849 17.71 6.29019C17.5217 6.10188 17.2663 5.99609 17 5.99609C16.7337 5.99609 16.4783 6.10188 16.29 6.29019L8 14.5902V7.00019C8 6.73497 7.89464 6.48062 7.70711 6.29308C7.51957 6.10554 7.26522 6.00019 7 6.00019C6.73478 6.00019 6.48043 6.10554 6.29289 6.29308C6.10536 6.48062 6 6.73497 6 7.00019V17.0002C6.00158 17.1309 6.02876 17.26 6.08 17.3802C6.18147 17.6245 6.37565 17.8187 6.62 17.9202C6.74022 17.9714 6.86932 17.9986 7 18.0002H17C17.2652 18.0002 17.5196 17.8948 17.7071 17.7073C17.8946 17.5198 18 17.2654 18 17.0002C18 16.735 17.8946 16.4806 17.7071 16.2931C17.5196 16.1055 17.2652 16.0002 17 16.0002Z" fill="black"/>
</svg>
