<svg width="24" height="24" viewBox="0 0 24 24" fill="none" xmlns="http://www.w3.org/2000/svg">
<path d="M16.9999 6.00019C16.7347 6.00019 16.4804 6.10554 16.2928 6.29308C16.1053 6.48062 15.9999 6.73497 15.9999 7.00019V14.5902L7.70994 6.29019C7.52164 6.10188 7.26624 5.99609 6.99994 5.99609C6.73364 5.99609 6.47825 6.10188 6.28994 6.29019C6.10164 6.47849 5.99585 6.73388 5.99585 7.00019C5.99585 7.26649 6.10164 7.52188 6.28994 7.71019L14.5899 16.0002H6.99994C6.73472 16.0002 6.48037 16.1055 6.29283 16.2931C6.1053 16.4806 5.99994 16.735 5.99994 17.0002C5.99994 17.2654 6.1053 17.5198 6.29283 17.7073C6.48037 17.8948 6.73472 18.0002 6.99994 18.0002H16.9999C17.1306 17.9986 17.2597 17.9714 17.3799 17.9202C17.6243 17.8187 17.8185 17.6245 17.9199 17.3802C17.9712 17.26 17.9984 17.1309 17.9999 17.0002V7.00019C17.9999 6.73497 17.8946 6.48062 17.707 6.29308C17.5195 6.10554 17.2652 6.00019 16.9999 6.00019Z" fill="black"/>
</svg>
