<svg width="24" height="24" viewBox="0 0 24 24" fill="none" xmlns="http://www.w3.org/2000/svg">
<path d="M17 9.50019H7.41002L8.71002 8.21019C8.89832 8.02188 9.00411 7.76649 9.00411 7.50019C9.00411 7.23388 8.89832 6.97849 8.71002 6.79019C8.52172 6.60188 8.26632 6.49609 8.00002 6.49609C7.73372 6.49609 7.47832 6.60188 7.29002 6.79019L4.29002 9.79019C4.19898 9.88529 4.12761 9.99743 4.08002 10.1202C3.98 10.3636 3.98 10.6367 4.08002 10.8802C4.12761 11.0029 4.19898 11.1151 4.29002 11.2102L7.29002 14.2102C7.38298 14.3039 7.49358 14.3783 7.61544 14.4291C7.7373 14.4798 7.86801 14.506 8.00002 14.506C8.13203 14.506 8.26274 14.4798 8.3846 14.4291C8.50645 14.3783 8.61706 14.3039 8.71002 14.2102C8.80375 14.1172 8.87814 14.0066 8.92891 13.8848C8.97968 13.7629 9.00582 13.6322 9.00582 13.5002C9.00582 13.3682 8.97968 13.2375 8.92891 13.1156C8.87814 12.9937 8.80375 12.8831 8.71002 12.7902L7.41002 11.5002H17C17.2652 11.5002 17.5196 11.6055 17.7071 11.7931C17.8947 11.9806 18 12.235 18 12.5002V16.5002C18 16.7654 18.1054 17.0198 18.2929 17.2073C18.4804 17.3948 18.7348 17.5002 19 17.5002C19.2652 17.5002 19.5196 17.3948 19.7071 17.2073C19.8947 17.0198 20 16.7654 20 16.5002V12.5002C20 11.7045 19.6839 10.9415 19.1213 10.3789C18.5587 9.81626 17.7957 9.50019 17 9.50019Z" fill="black"/>
</svg>
