<svg width="24" height="24" viewBox="0 0 24 24" fill="none" xmlns="http://www.w3.org/2000/svg">
<path d="M10.4999 5.50019C10.2347 5.50019 9.98037 5.60554 9.79283 5.79308C9.6053 5.98062 9.49994 6.23497 9.49994 6.50019V8.09019L3.70994 2.29019C3.6167 2.19695 3.50601 2.12299 3.38419 2.07253C3.26237 2.02207 3.1318 1.99609 2.99994 1.99609C2.86808 1.99609 2.73751 2.02207 2.61569 2.07253C2.49387 2.12299 2.38318 2.19695 2.28994 2.29019C2.10164 2.47849 1.99585 2.73388 1.99585 3.00019C1.99585 3.26649 2.10164 3.52188 2.28994 3.71019L8.08994 9.50019H6.49994C6.23472 9.50019 5.98037 9.60554 5.79283 9.79308C5.6053 9.98062 5.49994 10.235 5.49994 10.5002C5.49994 10.7654 5.6053 11.0198 5.79283 11.2073C5.98037 11.3948 6.23472 11.5002 6.49994 11.5002H10.4999C10.6306 11.4986 10.7597 11.4714 10.8799 11.4202C11.1243 11.3187 11.3185 11.1245 11.4199 10.8802C11.4712 10.76 11.4984 10.6309 11.4999 10.5002V6.50019C11.4999 6.23497 11.3946 5.98062 11.207 5.79308C11.0195 5.60554 10.7652 5.50019 10.4999 5.50019ZM21.7099 20.2902L15.9099 14.5002H17.4999C17.7652 14.5002 18.0195 14.3948 18.207 14.2073C18.3946 14.0198 18.4999 13.7654 18.4999 13.5002C18.4999 13.235 18.3946 12.9806 18.207 12.7931C18.0195 12.6055 17.7652 12.5002 17.4999 12.5002H13.4999C13.3693 12.5018 13.2402 12.5289 13.1199 12.5802C12.8756 12.6817 12.6814 12.8758 12.5799 13.1202C12.5287 13.2404 12.5015 13.3695 12.4999 13.5002V17.5002C12.4999 17.7654 12.6053 18.0198 12.7928 18.2073C12.9804 18.3948 13.2347 18.5002 13.4999 18.5002C13.7652 18.5002 14.0195 18.3948 14.207 18.2073C14.3946 18.0198 14.4999 17.7654 14.4999 17.5002V15.9102L20.2899 21.7102C20.3829 21.8039 20.4935 21.8783 20.6154 21.9291C20.7372 21.9798 20.8679 22.006 20.9999 22.006C21.132 22.006 21.2627 21.9798 21.3845 21.9291C21.5064 21.8783 21.617 21.8039 21.7099 21.7102C21.8037 21.6172 21.8781 21.5066 21.9288 21.3848C21.9796 21.2629 22.0057 21.1322 22.0057 21.0002C22.0057 20.8682 21.9796 20.7375 21.9288 20.6156C21.8781 20.4937 21.8037 20.3831 21.7099 20.2902Z" fill="black"/>
</svg>
