<svg width="24" height="24" viewBox="0 0 24 24" fill="none" xmlns="http://www.w3.org/2000/svg">
<path d="M8.69994 10.0002C8.8873 10.1864 9.14075 10.291 9.40494 10.291C9.66912 10.291 9.92258 10.1864 10.1099 10.0002C10.2962 9.81282 10.4007 9.55937 10.4007 9.29519C10.4007 9.031 10.2962 8.77755 10.1099 8.59019L3.83994 2.29019C3.65164 2.10188 3.39624 1.99609 3.12994 1.99609C2.86364 1.99609 2.60824 2.10188 2.41994 2.29019C2.23164 2.47849 2.12585 2.73388 2.12585 3.00019C2.12585 3.26649 2.23164 3.52188 2.41994 3.71019L8.69994 10.0002ZM20.9999 14.0002C20.7347 14.0002 20.4804 14.1055 20.2928 14.2931C20.1053 14.4806 19.9999 14.735 19.9999 15.0002V18.5902L15.4399 14.0002C15.249 13.8092 14.99 13.702 14.7199 13.702C14.4499 13.702 14.1909 13.8092 13.9999 14.0002C13.809 14.1911 13.7017 14.4501 13.7017 14.7202C13.7017 14.9902 13.809 15.2492 13.9999 15.4402L18.5899 20.0002H14.9999C14.7347 20.0002 14.4804 20.1055 14.2928 20.2931C14.1053 20.4806 13.9999 20.735 13.9999 21.0002C13.9999 21.2654 14.1053 21.5198 14.2928 21.7073C14.4804 21.8948 14.7347 22.0002 14.9999 22.0002H20.9999C21.1306 21.9986 21.2597 21.9714 21.3799 21.9202C21.6243 21.8187 21.8185 21.6245 21.9199 21.3802C21.9712 21.26 21.9984 21.1309 21.9999 21.0002V15.0002C21.9999 14.735 21.8946 14.4806 21.707 14.2931C21.5195 14.1055 21.2652 14.0002 20.9999 14.0002ZM21.9199 2.62019C21.8185 2.37584 21.6243 2.18166 21.3799 2.08019C21.2597 2.02894 21.1306 2.00177 20.9999 2.00019H14.9999C14.7347 2.00019 14.4804 2.10554 14.2928 2.29308C14.1053 2.48061 13.9999 2.73497 13.9999 3.00019C13.9999 3.2654 14.1053 3.51976 14.2928 3.70729C14.4804 3.89483 14.7347 4.00019 14.9999 4.00019H18.5899L2.28994 20.2902C2.19621 20.3831 2.12182 20.4937 2.07105 20.6156C2.02028 20.7375 1.99414 20.8682 1.99414 21.0002C1.99414 21.1322 2.02028 21.2629 2.07105 21.3848C2.12182 21.5066 2.19621 21.6172 2.28994 21.7102C2.3829 21.8039 2.4935 21.8783 2.61536 21.9291C2.73722 21.9798 2.86793 22.006 2.99994 22.006C3.13195 22.006 3.26266 21.9798 3.38452 21.9291C3.50637 21.8783 3.61698 21.8039 3.70994 21.7102L19.9999 5.41019V9.00019C19.9999 9.2654 20.1053 9.51976 20.2928 9.70729C20.4804 9.89483 20.7347 10.0002 20.9999 10.0002C21.2652 10.0002 21.5195 9.89483 21.707 9.70729C21.8946 9.51976 21.9999 9.2654 21.9999 9.00019V3.00019C21.9984 2.86951 21.9712 2.74041 21.9199 2.62019Z" fill="black"/>
</svg>
