<svg width="24" height="24" viewBox="0 0 24 24" fill="none" xmlns="http://www.w3.org/2000/svg">
<path d="M3 10.0002C3.26522 10.0002 3.51957 9.89483 3.70711 9.70729C3.89464 9.51976 4 9.2654 4 9.00019V5.41019L8.56 10.0002C8.65328 10.097 8.76512 10.1739 8.88883 10.2265C9.01254 10.2791 9.14558 10.3062 9.28 10.3062C9.41442 10.3062 9.54746 10.2791 9.67117 10.2265C9.79488 10.1739 9.90672 10.097 10 10.0002C10.1863 9.81282 10.2908 9.55937 10.2908 9.29519C10.2908 9.031 10.1863 8.77755 10 8.59019L5.41 4.00019H9C9.26522 4.00019 9.51957 3.89483 9.70711 3.70729C9.89464 3.51976 10 3.2654 10 3.00019C10 2.73497 9.89464 2.48061 9.70711 2.29308C9.51957 2.10554 9.26522 2.00019 9 2.00019H3C2.86932 2.00177 2.74022 2.02894 2.62 2.08019C2.37565 2.18166 2.18147 2.37584 2.08 2.62019C2.02876 2.74041 2.00158 2.86951 2 3.00019V9.00019C2 9.2654 2.10536 9.51976 2.29289 9.70729C2.48043 9.89483 2.73478 10.0002 3 10.0002ZM15.3 14.0002C15.1087 13.8364 14.8626 13.7508 14.6109 13.7605C14.3593 13.7702 14.1205 13.8745 13.9424 14.0526C13.7643 14.2307 13.66 14.4695 13.6503 14.7211C13.6406 14.9728 13.7262 15.2189 13.89 15.4102L20.16 21.6902C20.2534 21.7829 20.3643 21.8562 20.4861 21.906C20.6079 21.9557 20.7384 21.9809 20.87 21.9802C21.0016 21.9809 21.1321 21.9557 21.2539 21.906C21.3757 21.8562 21.4866 21.7829 21.58 21.6902C21.6737 21.5972 21.7481 21.4866 21.7989 21.3648C21.8497 21.2429 21.8758 21.1122 21.8758 20.9802C21.8758 20.8482 21.8497 20.7175 21.7989 20.5956C21.7481 20.4737 21.6737 20.3631 21.58 20.2702L15.3 14.0002ZM9 20.0002H5.41L21.71 3.71019C21.8983 3.52188 22.0041 3.26649 22.0041 3.00019C22.0041 2.73388 21.8983 2.47849 21.71 2.29019C21.5217 2.10188 21.2663 1.99609 21 1.99609C20.7337 1.99609 20.4783 2.10188 20.29 2.29019L4 18.5902V15.0002C4 14.735 3.89464 14.4806 3.70711 14.2931C3.51957 14.1055 3.26522 14.0002 3 14.0002C2.73478 14.0002 2.48043 14.1055 2.29289 14.2931C2.10536 14.4806 2 14.735 2 15.0002V21.0002C2.00158 21.1309 2.02876 21.26 2.08 21.3802C2.18147 21.6245 2.37565 21.8187 2.62 21.9202C2.74022 21.9714 2.86932 21.9986 3 22.0002H9C9.26522 22.0002 9.51957 21.8948 9.70711 21.7073C9.89464 21.5198 10 21.2654 10 21.0002C10 20.735 9.89464 20.4806 9.70711 20.2931C9.51957 20.1055 9.26522 20.0002 9 20.0002Z" fill="black"/>
</svg>
