<svg width="24" height="24" viewBox="0 0 24 24" fill="none" xmlns="http://www.w3.org/2000/svg">
<path d="M21.0001 4.30953H11.6301C10.304 4.30953 9.03221 4.83632 8.09453 5.774C7.15684 6.71168 6.63006 7.98345 6.63006 9.30953V16.3095L3.71006 13.3495C3.6171 13.2558 3.5065 13.1814 3.38464 13.1306C3.26278 13.0799 3.13207 13.0537 3.00006 13.0537C2.86805 13.0537 2.73734 13.0799 2.61548 13.1306C2.49362 13.1814 2.38302 13.2558 2.29006 13.3495C2.10381 13.5369 1.99927 13.7903 1.99927 14.0545C1.99927 14.3187 2.10381 14.5722 2.29006 14.7595L6.92006 19.3895C7.01427 19.4842 7.12647 19.559 7.25006 19.6095C7.36976 19.6624 7.49919 19.6898 7.63006 19.6898C7.76093 19.6898 7.89036 19.6624 8.01006 19.6095C8.13159 19.5552 8.24314 19.4808 8.34006 19.3895L13.0001 14.7595C13.1639 14.5682 13.2495 14.3222 13.2398 14.0705C13.2301 13.8188 13.1257 13.5801 12.9476 13.402C12.7695 13.2239 12.5308 13.1195 12.2791 13.1098C12.0274 13.1001 11.7814 13.1857 11.5901 13.3495L8.63006 16.2695V9.26953C8.63006 8.47388 8.94613 7.71082 9.50874 7.14821C10.0713 6.5856 10.8344 6.26953 11.6301 6.26953H21.0001C21.2653 6.26953 21.5196 6.16417 21.7072 5.97664C21.8947 5.7891 22.0001 5.53475 22.0001 5.26953C22.0001 5.00431 21.8947 4.74996 21.7072 4.56242C21.5196 4.37489 21.2653 4.26953 21.0001 4.26953V4.30953Z" fill="black"/>
</svg>
