<svg width="24" height="24" viewBox="0 0 24 24" fill="none" xmlns="http://www.w3.org/2000/svg">
<path d="M19.61 7.24982C19.5595 7.12623 19.4846 7.01402 19.39 6.91982L14.76 2.28982C14.5727 2.10357 14.3192 1.99902 14.055 1.99902C13.7908 1.99902 13.5374 2.10357 13.35 2.28982C13.2563 2.38278 13.1819 2.49338 13.1311 2.61524C13.0804 2.7371 13.0542 2.8678 13.0542 2.99982C13.0542 3.13183 13.0804 3.26253 13.1311 3.38439C13.1819 3.50625 13.2563 3.61685 13.35 3.70982L16.27 6.62982H8.27002C7.20915 6.62982 6.19174 7.05124 5.44159 7.80139C4.69145 8.55153 4.27002 9.56895 4.27002 10.6298V20.9998C4.27002 21.265 4.37538 21.5194 4.56291 21.7069C4.75045 21.8945 5.0048 21.9998 5.27002 21.9998C5.53524 21.9998 5.78959 21.8945 5.97713 21.7069C6.16466 21.5194 6.27002 21.265 6.27002 20.9998V10.6298C6.27002 10.0994 6.48073 9.59067 6.85581 9.2156C7.23088 8.84053 7.73959 8.62982 8.27002 8.62982H16.27L13.35 11.5498C13.209 11.6897 13.1128 11.8684 13.0737 12.0631C13.0347 12.2579 13.0545 12.4599 13.1306 12.6433C13.2068 12.8267 13.3359 12.9833 13.5014 13.0931C13.6669 13.2029 13.8614 13.261 14.06 13.2598C14.3238 13.2561 14.5754 13.1482 14.76 12.9598L19.39 8.33982C19.4822 8.23988 19.5567 8.12489 19.61 7.99982C19.7073 7.75928 19.7073 7.49035 19.61 7.24982Z" fill="black"/>
</svg>
