<svg width="24" height="24" viewBox="0 0 24 24" fill="none" xmlns="http://www.w3.org/2000/svg">
<path d="M21.71 13.3495C21.617 13.2558 21.5064 13.1814 21.3846 13.1306C21.2627 13.0799 21.132 13.0537 21 13.0537C20.868 13.0537 20.7373 13.0799 20.6154 13.1306C20.4936 13.1814 20.383 13.2558 20.29 13.3495L17.37 16.2695V8.26953C17.37 7.20867 16.9486 6.19125 16.1984 5.4411C15.4483 4.69096 14.4309 4.26953 13.37 4.26953H3C2.73478 4.26953 2.48043 4.37489 2.29289 4.56242C2.10536 4.74996 2 5.00431 2 5.26953C2 5.53475 2.10536 5.7891 2.29289 5.97664C2.48043 6.16417 2.73478 6.26953 3 6.26953H13.37C13.9004 6.26953 14.4091 6.48024 14.7842 6.85532C15.1593 7.23039 15.37 7.7391 15.37 8.26953V16.2695L12.45 13.3495C12.263 13.1572 12.0073 13.0471 11.7391 13.0434C11.471 13.0396 11.2123 13.1426 11.02 13.3295C10.8277 13.5165 10.7176 13.7722 10.7138 14.0404C10.7101 14.3086 10.813 14.5672 11 14.7595L15.62 19.3895C15.7169 19.4808 15.8285 19.5552 15.95 19.6095C16.0697 19.6624 16.1991 19.6898 16.33 19.6898C16.4609 19.6898 16.5903 19.6624 16.71 19.6095C16.8336 19.559 16.9458 19.4842 17.04 19.3895L21.67 14.7595C21.8617 14.5775 21.9735 14.327 21.981 14.0628C21.9885 13.7986 21.891 13.5421 21.71 13.3495Z" fill="black"/>
</svg>
