<svg width="24" height="24" viewBox="0 0 24 24" fill="none" xmlns="http://www.w3.org/2000/svg">
<path d="M18.69 1.99982C18.4247 1.99982 18.1704 2.10518 17.9828 2.29272C17.7953 2.48025 17.69 2.73461 17.69 2.99982V13.3698C17.69 13.9003 17.4792 14.409 17.1042 14.784C16.7291 15.1591 16.2204 15.3698 15.69 15.3698H7.68995L10.61 12.4498C10.7808 12.2635 10.8747 12.0193 10.8728 11.7666C10.8709 11.5138 10.7733 11.2711 10.5997 11.0873C10.4261 10.9036 10.1893 10.7924 9.93702 10.7762C9.68475 10.7599 9.43569 10.8398 9.23995 10.9998L4.60996 15.6598C4.51868 15.7567 4.44431 15.8683 4.38995 15.9898C4.28994 16.2333 4.28994 16.5064 4.38995 16.7498C4.44052 16.8734 4.51532 16.9856 4.60996 17.0798L9.23995 21.7098C9.42622 21.8946 9.67761 21.9987 9.93995 21.9998C10.0716 22.0006 10.202 21.9754 10.3239 21.9256C10.4457 21.8758 10.5565 21.8025 10.65 21.7098C10.7437 21.6169 10.8181 21.5063 10.8688 21.3844C10.9196 21.2625 10.9458 21.1318 10.9458 20.9998C10.9458 20.8678 10.9196 20.7371 10.8688 20.6152C10.8181 20.4934 10.7437 20.3828 10.65 20.2898L7.72995 17.3698H15.73C16.7908 17.3698 17.8082 16.9484 18.5584 16.1983C19.3085 15.4481 19.73 14.4307 19.73 13.3698V2.99982C19.7301 2.86507 19.7029 2.73168 19.6502 2.60767C19.5975 2.48366 19.5202 2.37159 19.4231 2.27819C19.3259 2.18479 19.2109 2.11198 19.0849 2.06415C18.959 2.01631 18.8246 1.99443 18.69 1.99982Z" fill="black"/>
</svg>
