<svg width="24" height="24" viewBox="0 0 24 24" fill="none" xmlns="http://www.w3.org/2000/svg">
<path d="M14.69 6.62982H7.68995L10.61 3.70982C10.7037 3.61685 10.7781 3.50625 10.8288 3.38439C10.8796 3.26253 10.9058 3.13183 10.9058 2.99982C10.9058 2.8678 10.8796 2.7371 10.8288 2.61524C10.7781 2.49338 10.7037 2.38278 10.61 2.28982C10.4226 2.10357 10.1691 1.99902 9.90495 1.99902C9.64077 1.99902 9.38732 2.10357 9.19995 2.28982L4.60996 6.91982C4.51532 7.01402 4.44052 7.12623 4.38995 7.24982C4.28994 7.49328 4.28994 7.76636 4.38995 8.00982C4.44431 8.13135 4.51868 8.2429 4.60996 8.33982L9.23995 12.9998C9.42459 13.1882 9.67619 13.2961 9.93995 13.2998C10.1386 13.301 10.333 13.2429 10.4986 13.1331C10.6641 13.0233 10.7932 12.8667 10.8693 12.6833C10.9455 12.4999 10.9653 12.2979 10.9262 12.1031C10.8872 11.9084 10.791 11.7297 10.65 11.5898L7.72995 8.62982H14.73C15.5256 8.62982 16.2887 8.94589 16.8513 9.5085C17.4139 10.0711 17.73 10.8342 17.73 11.6298V20.9998C17.73 21.265 17.8353 21.5194 18.0228 21.7069C18.2104 21.8945 18.4647 21.9998 18.73 21.9998C18.9952 21.9998 19.2495 21.8945 19.4371 21.7069C19.6246 21.5194 19.73 21.265 19.73 20.9998V11.6298C19.73 10.9698 19.5993 10.3164 19.3456 9.70711C19.0918 9.09786 18.7199 8.54488 18.2514 8.08006C17.7828 7.61525 17.2269 7.24779 16.6157 6.99888C16.0044 6.74997 15.3499 6.62454 14.69 6.62982Z" fill="black"/>
</svg>
