<svg width="24" height="24" viewBox="0 0 24 24" fill="none" xmlns="http://www.w3.org/2000/svg">
<path d="M11.2899 10.2102C11.3829 10.3039 11.4935 10.3783 11.6154 10.4291C11.7372 10.4798 11.8679 10.506 11.9999 10.506C12.132 10.506 12.2627 10.4798 12.3845 10.4291C12.5064 10.3783 12.617 10.3039 12.7099 10.2102L15.7099 7.21019C15.8982 7.02188 16.004 6.76649 16.004 6.50019C16.004 6.23388 15.8982 5.97849 15.7099 5.79019C15.5216 5.60188 15.2662 5.49609 14.9999 5.49609C14.7336 5.49609 14.4782 5.60188 14.2899 5.79019L11.9999 8.09019L9.70994 5.79019C9.52164 5.60188 9.26624 5.49609 8.99994 5.49609C8.73364 5.49609 8.47825 5.60188 8.28994 5.79019C8.10164 5.97849 7.99585 6.23388 7.99585 6.50019C7.99585 6.76649 8.10164 7.02188 8.28994 7.21019L11.2899 10.2102ZM12.7099 14.7902C12.617 14.6965 12.5064 14.6221 12.3845 14.5713C12.2627 14.5205 12.132 14.4944 11.9999 14.4944C11.8679 14.4944 11.7372 14.5205 11.6154 14.5713C11.4935 14.6221 11.3829 14.6965 11.2899 14.7902L8.28994 17.7902C8.10164 17.9785 7.99585 18.2339 7.99585 18.5002C7.99585 18.7665 8.10164 19.0219 8.28994 19.2102C8.47825 19.3985 8.73364 19.5043 8.99994 19.5043C9.26624 19.5043 9.52164 19.3985 9.70994 19.2102L11.9999 16.9102L14.2899 19.2102C14.3829 19.3039 14.4935 19.3783 14.6154 19.4291C14.7372 19.4798 14.8679 19.506 14.9999 19.506C15.132 19.506 15.2627 19.4798 15.3845 19.4291C15.5064 19.3783 15.617 19.3039 15.7099 19.2102C15.8037 19.1172 15.8781 19.0066 15.9288 18.8848C15.9796 18.7629 16.0057 18.6322 16.0057 18.5002C16.0057 18.3682 15.9796 18.2375 15.9288 18.1156C15.8781 17.9937 15.8037 17.8831 15.7099 17.7902L12.7099 14.7902Z" fill="black"/>
</svg>
