<svg width="24" height="24" viewBox="0 0 24 24" fill="none" xmlns="http://www.w3.org/2000/svg">
<path d="M10.2099 6.2099L10.9999 5.4099V9.9999C10.9999 10.2651 11.1053 10.5195 11.2928 10.707C11.4804 10.8945 11.7347 10.9999 11.9999 10.9999C12.2652 10.9999 12.5195 10.8945 12.707 10.707C12.8946 10.5195 12.9999 10.2651 12.9999 9.9999V5.4099L13.7899 6.2099C13.8829 6.30363 13.9935 6.37802 14.1154 6.42879C14.2372 6.47956 14.3679 6.50569 14.4999 6.50569C14.632 6.50569 14.7627 6.47956 14.8845 6.42879C15.0064 6.37802 15.117 6.30363 15.2099 6.2099C15.3037 6.11693 15.3781 6.00633 15.4288 5.88447C15.4796 5.76261 15.5057 5.63191 15.5057 5.4999C15.5057 5.36788 15.4796 5.23718 15.4288 5.11532C15.3781 4.99346 15.3037 4.88286 15.2099 4.7899L12.7099 2.2899C12.6148 2.19886 12.5027 2.12749 12.3799 2.0799C12.1365 1.97988 11.8634 1.97988 11.6199 2.0799C11.4972 2.12749 11.385 2.19886 11.2899 2.2899L8.78994 4.7899C8.60164 4.9782 8.49585 5.23359 8.49585 5.4999C8.49585 5.7662 8.60164 6.02159 8.78994 6.2099C8.97824 6.3982 9.23364 6.50399 9.49994 6.50399C9.76624 6.50399 10.0216 6.3982 10.2099 6.2099ZM13.7899 17.7899L12.9999 18.5899V13.9999C12.9999 13.7347 12.8946 13.4803 12.707 13.2928C12.5195 13.1053 12.2652 12.9999 11.9999 12.9999C11.7347 12.9999 11.4804 13.1053 11.2928 13.2928C11.1053 13.4803 10.9999 13.7347 10.9999 13.9999V18.5899L10.2099 17.7899C10.1167 17.6967 10.006 17.6227 9.88419 17.5722C9.76237 17.5218 9.6318 17.4958 9.49994 17.4958C9.36808 17.4958 9.23751 17.5218 9.11569 17.5722C8.99387 17.6227 8.88318 17.6967 8.78994 17.7899C8.6967 17.8831 8.62274 17.9938 8.57228 18.1156C8.52182 18.2375 8.49585 18.368 8.49585 18.4999C8.49585 18.6318 8.52182 18.7623 8.57228 18.8841C8.62274 19.006 8.6967 19.1167 8.78994 19.2099L11.2899 21.7099C11.385 21.8009 11.4972 21.8723 11.6199 21.9199C11.7396 21.9728 11.8691 22.0001 11.9999 22.0001C12.1308 22.0001 12.2602 21.9728 12.3799 21.9199C12.5027 21.8723 12.6148 21.8009 12.7099 21.7099L15.2099 19.2099C15.3982 19.0216 15.504 18.7662 15.504 18.4999C15.504 18.2336 15.3982 17.9782 15.2099 17.7899C15.0216 17.6016 14.7662 17.4958 14.4999 17.4958C14.2336 17.4958 13.9782 17.6016 13.7899 17.7899Z" fill="black"/>
</svg>
