<svg width="24" height="24" viewBox="0 0 24 24" fill="none" xmlns="http://www.w3.org/2000/svg">
<path d="M16 10.9999H13V5.4099L13.79 6.2099C13.883 6.30363 13.9936 6.37802 14.1154 6.42879C14.2373 6.47956 14.368 6.50569 14.5 6.50569C14.632 6.50569 14.7627 6.47956 14.8846 6.42879C15.0064 6.37802 15.117 6.30363 15.21 6.2099C15.3037 6.11693 15.3781 6.00633 15.4289 5.88447C15.4797 5.76261 15.5058 5.63191 15.5058 5.4999C15.5058 5.36788 15.4797 5.23718 15.4289 5.11532C15.3781 4.99346 15.3037 4.88286 15.21 4.7899L12.71 2.2899C12.6149 2.19886 12.5028 2.12749 12.38 2.0799C12.1365 1.97988 11.8635 1.97988 11.62 2.0799C11.4972 2.12749 11.3851 2.19886 11.29 2.2899L8.79 4.7899C8.6017 4.9782 8.49591 5.23359 8.49591 5.4999C8.49591 5.7662 8.6017 6.02159 8.79 6.2099C8.9783 6.3982 9.2337 6.50399 9.5 6.50399C9.7663 6.50399 10.0217 6.3982 10.21 6.2099L11 5.4099V10.9999H8C7.73478 10.9999 7.48043 11.1053 7.29289 11.2928C7.10536 11.4803 7 11.7347 7 11.9999C7 12.2651 7.10536 12.5195 7.29289 12.707C7.48043 12.8945 7.73478 12.9999 8 12.9999H11V18.5899L10.21 17.7899C10.1168 17.6967 10.0061 17.6227 9.88425 17.5722C9.76243 17.5218 9.63186 17.4958 9.5 17.4958C9.36814 17.4958 9.23757 17.5218 9.11575 17.5722C8.99393 17.6227 8.88324 17.6967 8.79 17.7899C8.69676 17.8831 8.6228 17.9938 8.57234 18.1156C8.52188 18.2375 8.49591 18.368 8.49591 18.4999C8.49591 18.6318 8.52188 18.7623 8.57234 18.8841C8.6228 19.006 8.69676 19.1167 8.79 19.2099L11.29 21.7099C11.3851 21.8009 11.4972 21.8723 11.62 21.9199C11.7397 21.9728 11.8691 22.0001 12 22.0001C12.1309 22.0001 12.2603 21.9728 12.38 21.9199C12.5028 21.8723 12.6149 21.8009 12.71 21.7099L15.21 19.2099C15.3983 19.0216 15.5041 18.7662 15.5041 18.4999C15.5041 18.2336 15.3983 17.9782 15.21 17.7899C15.0217 17.6016 14.7663 17.4958 14.5 17.4958C14.2337 17.4958 13.9783 17.6016 13.79 17.7899L13 18.5899V12.9999H16C16.2652 12.9999 16.5196 12.8945 16.7071 12.707C16.8946 12.5195 17 12.2651 17 11.9999C17 11.7347 16.8946 11.4803 16.7071 11.2928C16.5196 11.1053 16.2652 10.9999 16 10.9999Z" fill="black"/>
</svg>
