<svg width="24" height="24" viewBox="0 0 24 24" fill="none" xmlns="http://www.w3.org/2000/svg">
<path d="M14.2899 14.1901L10.9999 17.4801L9.70994 16.1901C9.61698 16.0964 9.50638 16.022 9.38452 15.9712C9.26266 15.9205 9.13195 15.8943 8.99994 15.8943C8.86793 15.8943 8.73722 15.9205 8.61537 15.9712C8.49351 16.022 8.38291 16.0964 8.28994 16.1901C8.10369 16.3775 7.99915 16.631 7.99915 16.8951C7.99915 17.1593 8.10369 17.4128 8.28994 17.6001L10.2899 19.6001C10.3829 19.6939 10.4935 19.7683 10.6154 19.819C10.7372 19.8698 10.8679 19.8959 10.9999 19.8959C11.132 19.8959 11.2627 19.8698 11.3845 19.819C11.5064 19.7683 11.617 19.6939 11.7099 19.6001L15.7099 15.6001C15.8962 15.4128 16.0007 15.1593 16.0007 14.8951C16.0007 14.631 15.8962 14.3775 15.7099 14.1901C15.617 14.0964 15.5064 14.022 15.3845 13.9712C15.2627 13.9205 15.132 13.8943 14.9999 13.8943C14.8679 13.8943 14.7372 13.9205 14.6154 13.9712C14.4935 14.022 14.3829 14.0964 14.2899 14.1901ZM18.4199 8.32014C17.8083 6.91595 16.7529 5.75114 15.4157 5.0043C14.0785 4.25746 12.5332 3.96981 11.0168 4.18546C9.50044 4.40112 8.09664 5.10816 7.02066 6.1982C5.94468 7.28824 5.2559 8.70109 5.05994 10.2201C4.22593 10.4271 3.48073 10.8971 2.93468 11.5606C2.38863 12.224 2.07075 13.0457 2.02812 13.904C1.98549 14.7622 2.22037 15.6114 2.69798 16.3257C3.17559 17.04 3.87055 17.5816 4.67994 17.8701C4.80767 17.9372 4.94839 17.9758 5.09245 17.9833C5.2365 17.9908 5.38048 17.9671 5.51449 17.9137C5.64851 17.8604 5.7694 17.7786 5.86886 17.6742C5.96833 17.5697 6.04401 17.4449 6.09072 17.3085C6.13743 17.172 6.15406 17.027 6.13946 16.8835C6.12487 16.74 6.07941 16.6013 6.00619 16.477C5.93297 16.3528 5.83373 16.2458 5.71527 16.1635C5.59682 16.0812 5.46196 16.0254 5.31994 16.0001C4.93017 15.8592 4.5938 15.6007 4.35734 15.2604C4.12087 14.92 3.99598 14.5146 3.99994 14.1001C3.99994 13.5697 4.21066 13.061 4.58573 12.6859C4.9608 12.3109 5.46951 12.1001 5.99994 12.1001C6.26516 12.1001 6.51951 11.9948 6.70705 11.8072C6.89458 11.6197 6.99994 11.3654 6.99994 11.1001C7.00484 9.91827 7.42823 8.77634 8.19501 7.87696C8.96179 6.97757 10.0224 6.37888 11.1886 6.18711C12.3548 5.99534 13.5513 6.22288 14.5657 6.82937C15.5801 7.43585 16.3468 8.38207 16.7299 9.50014C16.7886 9.67012 16.892 9.82113 17.0293 9.93728C17.1666 10.0534 17.3326 10.1304 17.5099 10.1601C18.176 10.286 18.7798 10.6337 19.223 11.1467C19.6661 11.6596 19.9225 12.3075 19.9503 12.9848C19.9782 13.6621 19.7758 14.3288 19.3762 14.8764C18.9767 15.4239 18.4034 15.82 17.7499 16.0001C17.4847 16.0333 17.2435 16.1704 17.0794 16.3814C16.9154 16.5924 16.8418 16.8599 16.8749 17.1251C16.9081 17.3904 17.0452 17.6315 17.2562 17.7956C17.4672 17.9597 17.7347 18.0333 17.9999 18.0001H18.2499C19.3023 17.7221 20.2352 17.1081 20.9069 16.2516C21.5787 15.3951 21.9525 14.3427 21.9718 13.2544C21.991 12.1661 21.6546 11.1012 21.0135 10.2215C20.3725 9.34174 19.4618 8.69524 18.4199 8.38014V8.32014Z" fill="black"/>
</svg>
