<svg width="24" height="24" viewBox="0 0 24 24" fill="none" xmlns="http://www.w3.org/2000/svg">
<path d="M18.42 7.71989C17.809 6.3159 16.7545 5.15097 15.4181 4.40362C14.0817 3.65627 12.5371 3.36773 11.021 3.5822C9.50489 3.79668 8.10094 4.50235 7.02427 5.59107C5.9476 6.67979 5.2576 8.09151 5.06001 9.60989C4.22223 9.81395 3.47281 10.2833 2.92346 10.9479C2.37411 11.6125 2.05423 12.4369 2.01151 13.2981C1.96878 14.1593 2.2055 15.0113 2.68638 15.727C3.16725 16.4427 3.86654 16.9839 4.68001 17.2699C4.78372 17.3018 4.8915 17.3187 5.00001 17.3199C5.26523 17.3623 5.53644 17.2977 5.75398 17.1401C5.97152 16.9826 6.11758 16.7451 6.16001 16.4799C6.20245 16.2147 6.13778 15.9435 5.98025 15.7259C5.82272 15.5084 5.58523 15.3623 5.32001 15.3199C4.94292 15.1838 4.61544 14.9375 4.38007 14.6129C4.14469 14.2884 4.01228 13.9006 4.00001 13.4999C4.00001 12.9695 4.21072 12.4608 4.5858 12.0857C4.96087 11.7106 5.46958 11.4999 6.00001 11.4999C6.26523 11.4999 6.51958 11.3945 6.70712 11.207C6.89465 11.0195 7.00001 10.7651 7.00001 10.4999C7.00257 9.31717 7.4243 8.17365 8.19028 7.27248C8.95626 6.37131 10.0169 5.77085 11.1838 5.57777C12.3506 5.38469 13.5481 5.6115 14.5636 6.2179C15.579 6.82431 16.3466 7.77103 16.73 8.88989C16.7872 9.06173 16.8899 9.21483 17.0273 9.33283C17.1647 9.45083 17.3315 9.52931 17.51 9.5599C18.1113 9.66874 18.6651 9.95863 19.0972 10.3908C19.5293 10.8229 19.8191 11.3767 19.9278 11.9781C20.0366 12.5794 19.9591 13.1997 19.7057 13.7558C19.4523 14.3119 19.0352 14.7774 18.51 15.0899C18.2793 15.2225 18.1107 15.4413 18.0413 15.6983C17.9719 15.9552 18.0074 16.2292 18.14 16.4599C18.2726 16.6906 18.4915 16.8592 18.7484 16.9286C19.0053 16.998 19.2793 16.9625 19.51 16.8299C20.2682 16.3898 20.8974 15.7581 21.3344 14.9981C21.7715 14.2381 22.001 13.3766 22 12.4999C21.997 11.424 21.647 10.3778 21.002 9.5167C20.3571 8.65557 19.4516 8.02544 18.42 7.71989ZM9.17001 13.7199C8.61105 14.2795 8.23052 14.9922 8.07654 15.768C7.92256 16.5438 8.00204 17.3479 8.30492 18.0785C8.6078 18.8092 9.12049 19.4336 9.77819 19.8729C10.4359 20.3123 11.2091 20.5467 12 20.5467C12.7909 20.5467 13.5641 20.3123 14.2218 19.8729C14.8795 19.4336 15.3922 18.8092 15.6951 18.0785C15.998 17.3479 16.0775 16.5438 15.9235 15.768C15.7695 14.9922 15.389 14.2795 14.83 13.7199C14.0739 12.9856 13.064 12.5708 12.01 12.5615C10.9561 12.5522 9.93902 12.9491 9.17001 13.6699V13.7199ZM10 16.4999C10 15.9695 10.2107 15.4608 10.5858 15.0857C10.9609 14.7106 11.4696 14.4999 12 14.4999C12.1722 14.5021 12.3435 14.5256 12.51 14.5699L10.07 16.9999C10.0266 16.8367 10.0031 16.6688 10 16.4999ZM13.41 17.9099C13.1621 18.1514 12.8558 18.3244 12.521 18.412C12.1862 18.4997 11.8344 18.4989 11.5 18.4099L13.93 15.9999C13.9743 16.1664 13.9978 16.3377 14 16.5099C13.9951 17.036 13.7832 17.539 13.41 17.9099Z" fill="black"/>
</svg>
