<svg width="24" height="24" viewBox="0 0 24 24" fill="none" xmlns="http://www.w3.org/2000/svg">
<path d="M18.4199 8.2199C17.8089 6.8159 16.7544 5.65097 15.418 4.90362C14.0815 4.15627 12.5369 3.86773 11.0209 4.0822C9.50477 4.29668 8.10082 5.00235 7.02415 6.09107C5.94747 7.17979 5.25748 8.59151 5.05989 10.1099C4.10648 10.3382 3.27011 10.9087 2.70963 11.7131C2.14914 12.5174 1.90357 13.4996 2.01955 14.4731C2.13553 15.4466 2.60498 16.3436 3.33876 16.9938C4.07253 17.6439 5.01952 18.002 5.99989 17.9999C6.26511 17.9999 6.51946 17.8945 6.707 17.707C6.89453 17.5195 6.99989 17.2651 6.99989 16.9999C6.99989 16.7347 6.89453 16.4803 6.707 16.2928C6.51946 16.1053 6.26511 15.9999 5.99989 15.9999C5.46946 15.9999 4.96075 15.7892 4.58568 15.4141C4.2106 15.039 3.99989 14.5303 3.99989 13.9999C3.99989 13.4695 4.2106 12.9608 4.58568 12.5857C4.96075 12.2106 5.46946 11.9999 5.99989 11.9999C6.26511 11.9999 6.51946 11.8945 6.707 11.707C6.89453 11.5195 6.99989 11.2651 6.99989 10.9999C7.00244 9.81717 7.42418 8.67365 8.19016 7.77248C8.95614 6.87131 10.0168 6.27085 11.1836 6.07777C12.3505 5.88469 13.548 6.1115 14.5635 6.7179C15.5789 7.32431 16.3465 8.27104 16.7299 9.3899C16.7871 9.56174 16.8898 9.71483 17.0272 9.83283C17.1646 9.95083 17.3314 10.0293 17.5099 10.0599C18.176 10.1858 18.7798 10.5335 19.2229 11.0464C19.6661 11.5594 19.9225 12.2073 19.9503 12.8845C19.9781 13.5618 19.7758 14.2286 19.3762 14.7761C18.9766 15.3237 18.4034 15.7198 17.7499 15.8999C17.4926 15.9662 17.2722 16.132 17.1372 16.3608C17.0022 16.5896 16.9636 16.8626 17.0299 17.1199C17.0962 17.3772 17.262 17.5975 17.4908 17.7326C17.7196 17.8676 17.9926 17.9062 18.2499 17.8399C19.3023 17.5618 20.2352 16.9479 20.9069 16.0914C21.5786 15.2348 21.9525 14.1825 21.9717 13.0942C21.991 12.0058 21.6545 10.9409 21.0135 10.0612C20.3724 9.18149 19.4618 8.53499 18.4199 8.2199ZM14.7099 14.2899C14.6169 14.1962 14.5063 14.1218 14.3845 14.071C14.2626 14.0202 14.1319 13.9941 13.9999 13.9941C13.8679 13.9941 13.7372 14.0202 13.6153 14.071C13.4935 14.1218 13.3829 14.1962 13.2899 14.2899L11.9999 15.5899L10.7099 14.2899C10.5216 14.1016 10.2662 13.9958 9.99989 13.9958C9.73359 13.9958 9.47819 14.1016 9.28989 14.2899C9.10159 14.4782 8.9958 14.7336 8.9958 14.9999C8.9958 15.2662 9.10159 15.5216 9.28989 15.7099L10.5899 16.9999L9.28989 18.2899C9.19616 18.3829 9.12177 18.4935 9.071 18.6153C9.02023 18.7372 8.99409 18.8679 8.99409 18.9999C8.99409 19.1319 9.02023 19.2626 9.071 19.3845C9.12177 19.5063 9.19616 19.6169 9.28989 19.7099C9.38285 19.8036 9.49345 19.878 9.61531 19.9288C9.73717 19.9796 9.86788 20.0057 9.99989 20.0057C10.1319 20.0057 10.2626 19.9796 10.3845 19.9288C10.5063 19.878 10.6169 19.8036 10.7099 19.7099L11.9999 18.4099L13.2899 19.7099C13.3829 19.8036 13.4935 19.878 13.6153 19.9288C13.7372 19.9796 13.8679 20.0057 13.9999 20.0057C14.1319 20.0057 14.2626 19.9796 14.3845 19.9288C14.5063 19.878 14.6169 19.8036 14.7099 19.7099C14.8036 19.6169 14.878 19.5063 14.9288 19.3845C14.9796 19.2626 15.0057 19.1319 15.0057 18.9999C15.0057 18.8679 14.9796 18.7372 14.9288 18.6153C14.878 18.4935 14.8036 18.3829 14.7099 18.2899L13.4099 16.9999L14.7099 15.7099C14.8036 15.6169 14.878 15.5063 14.9288 15.3845C14.9796 15.2626 15.0057 15.1319 15.0057 14.9999C15.0057 14.8679 14.9796 14.7372 14.9288 14.6153C14.878 14.4935 14.8036 14.3829 14.7099 14.2899Z" fill="black"/>
</svg>
