<svg width="24" height="24" viewBox="0 0 24 24" fill="none" xmlns="http://www.w3.org/2000/svg">
<path d="M8.49993 5.93991C9.56729 5.33516 10.7731 5.01729 11.9999 5.01729C13.2267 5.01729 14.4326 5.33516 15.4999 5.93991C15.6141 6.00603 15.7401 6.04892 15.8709 6.0661C16.0017 6.08329 16.1346 6.07443 16.2619 6.04004C16.3893 6.00564 16.5085 5.9464 16.6129 5.86572C16.7172 5.78503 16.8046 5.6845 16.8699 5.56991C17.0003 5.3403 17.0346 5.06844 16.9653 4.81365C16.8959 4.55886 16.7287 4.34183 16.4999 4.20991C15.1272 3.43346 13.577 3.02539 11.9999 3.02539C10.4229 3.02539 8.87261 3.43346 7.49993 4.20991C7.2712 4.34183 7.10392 4.55886 7.03461 4.81365C6.96529 5.06844 6.99955 5.3403 7.12993 5.56991C7.19526 5.6845 7.28261 5.78503 7.38696 5.86572C7.49131 5.9464 7.61058 6.00564 7.73792 6.04004C7.86526 6.07443 7.99815 6.08329 8.12893 6.0661C8.25971 6.04892 8.38579 6.00603 8.49993 5.93991ZM18.4199 11.2099C18.316 10.9654 18.1957 10.7282 18.0599 10.4999C17.9913 10.3873 17.9011 10.2894 17.7944 10.2118C17.6878 10.1342 17.5669 10.0784 17.4386 10.0478C17.3103 10.0171 17.1773 10.0121 17.0471 10.0331C16.9169 10.054 16.7921 10.1005 16.6799 10.1699C16.4552 10.3085 16.2944 10.5303 16.2326 10.7869C16.1708 11.0436 16.213 11.3142 16.3499 11.5399C16.5045 11.8064 16.6318 12.0878 16.7299 12.3799C16.7871 12.5518 16.8898 12.7048 17.0272 12.8228C17.1646 12.9408 17.3314 13.0193 17.5099 13.0499C18.2058 13.17 18.837 13.5316 19.2924 14.0712C19.7479 14.6108 19.9984 15.2938 19.9999 15.9999C19.9999 16.7956 19.6839 17.5586 19.1212 18.1212C18.5586 18.6838 17.7956 18.9999 16.9999 18.9999H5.65993C5.25194 18.9371 4.87338 18.7496 4.57618 18.4632C4.27897 18.1767 4.07768 17.8053 3.99993 17.3999C3.93986 17.106 3.9467 16.8023 4.01993 16.5113C4.09317 16.2204 4.23092 15.9496 4.42299 15.7191C4.61506 15.4886 4.85653 15.3043 5.1295 15.1798C5.40248 15.0553 5.69996 14.9938 5.99993 14.9999C6.26514 14.9999 6.5195 14.8946 6.70703 14.707C6.89457 14.5195 6.99993 14.2651 6.99993 13.9999C6.99792 13.1251 7.2292 12.2656 7.66993 11.5099C7.73605 11.3958 7.77893 11.2697 7.79612 11.1389C7.8133 11.0081 7.80444 10.8753 7.77005 10.7479C7.73566 10.6206 7.67641 10.5013 7.59573 10.3969C7.51505 10.2926 7.41451 10.2052 7.29993 10.1399C7.07031 10.0095 6.79845 9.97528 6.54366 10.0446C6.28888 10.1139 6.07185 10.2812 5.93993 10.5099C5.47162 11.3072 5.17209 12.1921 5.05993 13.1099C4.22557 13.3131 3.47875 13.7794 2.92993 14.4399C2.46313 14.9881 2.15295 15.6521 2.0321 16.3618C1.91124 17.0716 1.9842 17.8008 2.24328 18.4726C2.50236 19.1444 2.93795 19.7337 3.50409 20.1786C4.07023 20.6234 4.74594 20.9071 5.45993 20.9999H5.58993H16.9999C18.1993 20.9966 19.3575 20.5623 20.2633 19.7762C21.1691 18.9901 21.7622 17.9046 21.9344 16.7177C22.1065 15.5307 21.8463 14.3214 21.2012 13.3104C20.556 12.2993 19.5689 11.5538 18.4199 11.2099ZM14.8699 8.99991C14.8699 8.99991 14.8699 8.99991 14.8699 8.93991C14.9218 8.87917 14.9655 8.81194 14.9999 8.73991C15.0946 8.49321 15.0879 8.21904 14.9811 7.97732C14.8743 7.7356 14.6761 7.54599 14.4299 7.44991C13.8706 7.24226 13.2849 7.11434 12.6899 7.06991C12.5899 7.06991 12.4899 7.06991 12.3899 7.06991C12.1203 7.0499 11.8496 7.0499 11.5799 7.06991C11.4767 7.06457 11.3732 7.06457 11.2699 7.06991C10.675 7.11434 10.0892 7.24226 9.52993 7.44991C9.29099 7.55357 9.10192 7.74636 9.00294 7.98728C8.90396 8.22819 8.90288 8.49822 8.99993 8.73991C9.034 8.8068 9.07417 8.87041 9.11993 8.92991C9.11661 8.96651 9.11661 9.00332 9.11993 9.03991C9.18609 9.15367 9.27406 9.25324 9.37878 9.33293C9.4835 9.41262 9.60292 9.47086 9.7302 9.5043C9.85747 9.53775 9.9901 9.54574 10.1205 9.52783C10.2508 9.50992 10.3764 9.46645 10.4899 9.39991C10.9485 9.1442 11.4649 9.00997 11.9899 9.00997C12.515 9.00997 13.0313 9.1442 13.4899 9.39991C13.6063 9.46644 13.7348 9.50889 13.8679 9.52476C14.001 9.54062 14.1359 9.52957 14.2647 9.49225C14.3934 9.45494 14.5133 9.39213 14.6173 9.30755C14.7213 9.22297 14.8072 9.11835 14.8699 8.99991ZM10.9999 11.9999C10.9999 12.1977 11.0586 12.391 11.1685 12.5555C11.2783 12.7199 11.4345 12.8481 11.6172 12.9238C11.8 12.9995 12.001 13.0193 12.195 12.9807C12.389 12.9421 12.5672 12.8469 12.707 12.707C12.8469 12.5672 12.9421 12.389 12.9807 12.195C13.0193 12.001 12.9995 11.8 12.9238 11.6172C12.8481 11.4345 12.7199 11.2783 12.5555 11.1684C12.391 11.0586 12.1977 10.9999 11.9999 10.9999C11.7347 10.9999 11.4804 11.1053 11.2928 11.2928C11.1053 11.4803 10.9999 11.7347 10.9999 11.9999Z" fill="black"/>
</svg>
