<svg width="24" height="24" viewBox="0 0 24 24" fill="none" xmlns="http://www.w3.org/2000/svg">
<path d="M20.9999 19.9999H17.9999C17.7347 19.9999 17.4803 19.8945 17.2928 19.707C17.1052 19.5195 16.9999 19.2651 16.9999 18.9999V15.9999C18.1935 15.9889 19.3438 15.5512 20.2428 14.766C21.1419 13.9808 21.7304 12.8998 21.9019 11.7185C22.0734 10.5373 21.8166 9.3336 21.178 8.32512C20.5394 7.31665 19.5611 6.56991 18.4199 6.21989C17.8089 4.8159 16.7544 3.65097 15.418 2.90362C14.0815 2.15627 12.5369 1.86773 11.0209 2.0822C9.50477 2.29668 8.10082 3.00235 7.02415 4.09107C5.94747 5.17979 5.25748 6.59151 5.05989 8.10989C4.10648 8.33822 3.27011 8.90873 2.70963 9.71308C2.14914 10.5174 1.90357 11.4996 2.01955 12.4731C2.13553 13.4466 2.60498 14.3436 3.33876 14.9938C4.07253 15.6439 5.01952 16.002 5.99989 15.9999H6.99989V18.9999C6.99989 19.2651 6.89453 19.5195 6.707 19.707C6.51946 19.8945 6.26511 19.9999 5.99989 19.9999H2.99989C2.73467 19.9999 2.48032 20.1053 2.29278 20.2928C2.10525 20.4803 1.99989 20.7347 1.99989 20.9999C1.99989 21.2651 2.10525 21.5195 2.29278 21.707C2.48032 21.8945 2.73467 21.9999 2.99989 21.9999H5.99989C6.79554 21.9999 7.5586 21.6838 8.12121 21.1212C8.68382 20.5586 8.99989 19.7955 8.99989 18.9999V15.9999H10.9999V20.9999C10.9999 21.2651 11.1052 21.5195 11.2928 21.707C11.4803 21.8945 11.7347 21.9999 11.9999 21.9999C12.2651 21.9999 12.5195 21.8945 12.707 21.707C12.8945 21.5195 12.9999 21.2651 12.9999 20.9999V15.9999H14.9999V18.9999C14.9999 19.7955 15.316 20.5586 15.8786 21.1212C16.4412 21.6838 17.2042 21.9999 17.9999 21.9999H20.9999C21.2651 21.9999 21.5195 21.8945 21.707 21.707C21.8945 21.5195 21.9999 21.2651 21.9999 20.9999C21.9999 20.7347 21.8945 20.4803 21.707 20.2928C21.5195 20.1053 21.2651 19.9999 20.9999 19.9999ZM5.99989 13.9999C5.46946 13.9999 4.96075 13.7892 4.58568 13.4141C4.2106 13.039 3.99989 12.5303 3.99989 11.9999C3.99989 11.4695 4.2106 10.9608 4.58568 10.5857C4.96075 10.2106 5.46946 9.99989 5.99989 9.99989C6.26511 9.99989 6.51946 9.89454 6.707 9.707C6.89453 9.51946 6.99989 9.26511 6.99989 8.99989C7.00244 7.81717 7.42418 6.67365 8.19016 5.77248C8.95614 4.87131 10.0168 4.27085 11.1836 4.07777C12.3505 3.88469 13.548 4.1115 14.5635 4.7179C15.5789 5.32431 16.3465 6.27103 16.7299 7.38989C16.7871 7.56173 16.8898 7.71483 17.0272 7.83283C17.1646 7.95083 17.3314 8.02931 17.5099 8.0599C18.2041 8.17964 18.8339 8.53983 19.2892 9.07736C19.7445 9.61489 19.9961 10.2955 19.9999 10.9999C19.9999 11.7955 19.6838 12.5586 19.1212 13.1212C18.5586 13.6838 17.7955 13.9999 16.9999 13.9999H5.99989Z" fill="black"/>
</svg>
