<svg width="24" height="24" viewBox="0 0 24 24" fill="none" xmlns="http://www.w3.org/2000/svg">
<path d="M20.5201 3.87018C20.1077 3.00842 19.4569 2.28287 18.645 1.77941C17.833 1.27594 16.8938 1.01564 15.9385 1.02932C14.9832 1.043 14.0519 1.33008 13.2546 1.85658C12.4574 2.38308 11.8277 3.12697 11.4401 4.00018H7.00012C6.20447 4.00018 5.4414 4.31625 4.8788 4.87886C4.31619 5.44147 4.00012 6.20453 4.00012 7.00018V11.0002C4.00012 11.2654 4.10547 11.5198 4.29301 11.7073C4.48055 11.8948 4.7349 12.0002 5.00012 12.0002C5.26533 12.0002 5.51969 11.8948 5.70722 11.7073C5.89476 11.5198 6.00012 11.2654 6.00012 11.0002V7.00018C6.00012 6.73496 6.10547 6.48061 6.29301 6.29307C6.48055 6.10554 6.7349 6.00018 7.00012 6.00018H9.78012C9.28233 6.54782 9.00453 7.26013 9.00012 8.00018C9.00012 8.79583 9.31619 9.55889 9.87879 10.1215C10.4414 10.6841 11.2045 11.0002 12.0001 11.0002H19.3301C20.2009 11.0065 21.0453 10.7021 21.7118 10.1417C22.3783 9.58133 22.8232 8.80169 22.9665 7.9428C23.1099 7.08391 22.9423 6.20205 22.4939 5.4556C22.0455 4.70915 21.3457 4.14703 20.5201 3.87018ZM19.3301 9.00018H12.0001C11.7349 9.00018 11.4805 8.89482 11.293 8.70729C11.1055 8.51975 11.0001 8.2654 11.0001 8.00018C11.0001 7.73496 11.1055 7.48061 11.293 7.29307C11.4805 7.10554 11.7349 7.00018 12.0001 7.00018C12.2653 7.00018 12.5197 6.89482 12.7072 6.70729C12.8948 6.51975 13.0001 6.2654 13.0001 6.00018C12.992 5.28654 13.2387 4.59339 13.6957 4.04522C14.1527 3.49704 14.7901 3.12975 15.4936 3.0093C16.197 2.88884 16.9204 3.02312 17.5338 3.38801C18.1471 3.7529 18.6103 4.32451 18.8401 5.00018C18.8973 5.17202 19 5.32511 19.1374 5.44311C19.2748 5.56112 19.4416 5.6396 19.6201 5.67018C20.0112 5.73497 20.3658 5.93838 20.6192 6.24319C20.8727 6.54801 21.0078 6.93386 21.0001 7.33018C21.0001 7.54949 20.9569 7.76665 20.873 7.96926C20.7891 8.17188 20.6661 8.35598 20.511 8.51105C20.3559 8.66612 20.1718 8.78913 19.9692 8.87306C19.7666 8.95699 19.5494 9.00018 19.3301 9.00018ZM19.0001 13.0002C18.7349 13.0002 18.4805 13.1055 18.293 13.2931C18.1055 13.4806 18.0001 13.735 18.0001 14.0002V17.0002C18.0001 17.2654 17.8948 17.5198 17.7072 17.7073C17.5197 17.8948 17.2653 18.0002 17.0001 18.0002H14.7401C14.5468 17.5053 14.2482 17.0584 13.8648 16.6906C13.4814 16.3228 13.0226 16.0428 12.5201 15.8702C12.067 14.9085 11.3191 14.1163 10.385 13.6086C9.45102 13.1008 8.37948 12.904 7.32599 13.0467C6.27251 13.1894 5.29193 13.6642 4.52662 14.4021C3.76131 15.14 3.25112 16.1026 3.07012 17.1502C2.3929 17.3728 1.81708 17.8292 1.44582 18.4378C1.07456 19.0463 0.932128 19.7672 1.04405 20.4712C1.15597 21.1752 1.51492 21.8164 2.0566 22.2798C2.59827 22.7432 3.28726 22.9986 4.00012 23.0002H11.3301C12.1863 23.0002 13.0154 22.7 13.6732 22.1519C14.3309 21.6037 14.7757 20.8424 14.9301 20.0002H17.0001C17.7958 20.0002 18.5588 19.6841 19.1214 19.1215C19.684 18.5589 20.0001 17.7958 20.0001 17.0002V14.0002C20.0001 13.735 19.8948 13.4806 19.7072 13.2931C19.5197 13.1055 19.2653 13.0002 19.0001 13.0002ZM11.3301 21.0002H4.00012C3.7349 21.0002 3.48055 20.8948 3.29301 20.7073C3.10547 20.5198 3.00012 20.2654 3.00012 20.0002C3.00012 19.735 3.10547 19.4806 3.29301 19.2931C3.48055 19.1055 3.7349 19.0002 4.00012 19.0002C4.26533 19.0002 4.51969 18.8948 4.70722 18.7073C4.89476 18.5198 5.00012 18.2654 5.00012 18.0002C4.99205 17.2865 5.23866 16.5934 5.69567 16.0452C6.15268 15.497 6.79014 15.1298 7.49359 15.0093C8.19705 14.8888 8.9204 15.0231 9.53375 15.388C10.1471 15.7529 10.6103 16.3245 10.8401 17.0002C10.8973 17.172 11 17.3251 11.1374 17.4431C11.2748 17.5611 11.4416 17.6396 11.6201 17.6702C12.0112 17.735 12.3658 17.9384 12.6192 18.2432C12.8726 18.548 13.0078 18.9339 13.0001 19.3302C13.0001 19.5495 12.9569 19.7666 12.873 19.9693C12.7891 20.1719 12.6661 20.356 12.511 20.511C12.3559 20.6661 12.1718 20.7891 11.9692 20.8731C11.7666 20.957 11.5494 21.0002 11.3301 21.0002Z" fill="black"/>
</svg>
