<svg width="24" height="24" viewBox="0 0 24 24" fill="none" xmlns="http://www.w3.org/2000/svg">
<path d="M22.5001 14.5002C22.5001 13.9698 22.2894 13.4611 21.9143 13.086C21.5393 12.7109 21.0306 12.5002 20.5001 12.5002H14.5001C13.9697 12.5002 13.461 12.7109 13.0859 13.086C12.7108 13.4611 12.5001 13.9698 12.5001 14.5002H9.50012V11.5002H11.8301C12.6991 11.5017 13.5403 11.1939 14.2031 10.6319C14.8659 10.0699 15.3072 9.29043 15.4479 8.4329C15.5886 7.57536 15.4196 6.69574 14.9712 5.9514C14.5227 5.20706 13.824 4.64658 13.0001 4.37023C12.5428 3.41667 11.795 2.63265 10.8641 2.13088C9.93316 1.62911 8.86712 1.43542 7.81919 1.57767C6.77127 1.71991 5.79543 2.19075 5.03195 2.92252C4.26847 3.65428 3.75667 4.60928 3.57012 5.65023C2.8929 5.87281 2.31708 6.32927 1.94582 6.93782C1.57456 7.54637 1.43213 8.26723 1.54405 8.97124C1.65597 9.67526 2.01492 10.3164 2.5566 10.7798C3.09827 11.2432 3.78726 11.4986 4.50012 11.5002H7.50012V19.5002C7.50012 19.7654 7.60547 20.0198 7.79301 20.2073C7.98055 20.3949 8.2349 20.5002 8.50012 20.5002H12.5001C12.5001 21.0307 12.7108 21.5394 13.0859 21.9144C13.461 22.2895 13.9697 22.5002 14.5001 22.5002H20.5001C21.0306 22.5002 21.5393 22.2895 21.9143 21.9144C22.2894 21.5394 22.5001 21.0307 22.5001 20.5002V18.5002C22.4965 18.1481 22.3999 17.8031 22.2201 17.5002C22.3999 17.1974 22.4965 16.8524 22.5001 16.5002V14.5002ZM4.50012 9.50023C4.2349 9.50023 3.98055 9.39487 3.79301 9.20734C3.60547 9.0198 3.50012 8.76545 3.50012 8.50023C3.50012 8.23501 3.60547 7.98066 3.79301 7.79312C3.98055 7.60559 4.2349 7.50023 4.50012 7.50023C4.76533 7.50023 5.01969 7.39487 5.20722 7.20734C5.39476 7.0198 5.50012 6.76545 5.50012 6.50023C5.49205 5.78658 5.73866 5.09344 6.19567 4.54527C6.65268 3.99709 7.29014 3.6298 7.99359 3.50935C8.69705 3.38889 9.4204 3.52317 10.0338 3.88806C10.6471 4.25295 11.1103 4.82456 11.3401 5.50023C11.3988 5.67021 11.5022 5.82122 11.6395 5.93737C11.7767 6.05352 11.9428 6.13051 12.1201 6.16023C12.5129 6.22525 12.869 6.43011 13.1226 6.73703C13.3762 7.04394 13.5103 7.43221 13.5001 7.83023C13.5001 8.27314 13.3242 8.69791 13.011 9.0111C12.6978 9.32428 12.273 9.50023 11.8301 9.50023H4.50012ZM12.5001 18.5002H9.50012V16.5002H12.5001C12.5038 16.8524 12.6004 17.1974 12.7801 17.5002C12.6004 17.8031 12.5038 18.1481 12.5001 18.5002ZM14.5001 20.5002V18.5002H20.5001V20.5002H14.5001ZM14.5001 16.5002V14.5002H20.5001V16.5002H14.5001Z" fill="black"/>
</svg>
