<svg width="24" height="24" viewBox="0 0 24 24" fill="none" xmlns="http://www.w3.org/2000/svg">
<path d="M12.7099 18.7898C12.6127 18.7015 12.5011 18.6304 12.3799 18.5798C12.1978 18.5032 11.9971 18.4823 11.8031 18.5197C11.6091 18.557 11.4305 18.651 11.2899 18.7898C11.1072 18.9814 11.0036 19.235 10.9999 19.4998C10.9991 19.6314 11.0244 19.7619 11.0741 19.8837C11.1239 20.0055 11.1972 20.1163 11.2899 20.2098C11.3871 20.2981 11.4987 20.3691 11.6199 20.4198C11.8016 20.4925 12.0007 20.5103 12.1925 20.471C12.3842 20.4317 12.5602 20.3369 12.6986 20.1985C12.837 20.0601 12.9318 19.8841 12.9711 19.6923C13.0104 19.5006 12.9926 19.3015 12.9199 19.1198C12.8723 18.997 12.8009 18.8849 12.7099 18.7898ZM11.9999 12.4998C11.7347 12.4998 11.4803 12.6051 11.2928 12.7927C11.1052 12.9802 10.9999 13.2346 10.9999 13.4998V16.4998C10.9999 16.765 11.1052 17.0194 11.2928 17.2069C11.4803 17.3944 11.7347 17.4998 11.9999 17.4998C12.2651 17.4998 12.5195 17.3944 12.707 17.2069C12.8945 17.0194 12.9999 16.765 12.9999 16.4998V13.4998C12.9999 13.2346 12.8945 12.9802 12.707 12.7927C12.5195 12.6051 12.2651 12.4998 11.9999 12.4998ZM18.4199 7.70979C17.8082 6.3056 16.7528 5.14079 15.4156 4.39395C14.0784 3.64711 12.5332 3.35946 11.0168 3.57511C9.50039 3.79077 8.09659 4.49781 7.02061 5.58785C5.94462 6.67788 5.25585 8.09074 5.05989 9.60979C4.10648 9.83811 3.27011 10.4086 2.70963 11.213C2.14914 12.0173 1.90357 12.9995 2.01955 13.973C2.13553 14.9465 2.60498 15.8435 3.33876 16.4936C4.07253 17.1438 5.01952 17.5019 5.99989 17.4998H7.99989C8.26511 17.4998 8.51946 17.3944 8.707 17.2069C8.89453 17.0194 8.99989 16.765 8.99989 16.4998C8.99989 16.2346 8.89453 15.9802 8.707 15.7927C8.51946 15.6051 8.26511 15.4998 7.99989 15.4998H5.99989C5.46946 15.4998 4.96075 15.2891 4.58568 14.914C4.2106 14.5389 3.99989 14.0302 3.99989 13.4998C3.99989 12.9694 4.2106 12.4606 4.58568 12.0856C4.96075 11.7105 5.46946 11.4998 5.99989 11.4998C6.26511 11.4998 6.51946 11.3944 6.707 11.2069C6.89453 11.0194 6.99989 10.765 6.99989 10.4998C7.00244 9.31707 7.42418 8.17354 8.19016 7.27237C8.95614 6.3712 10.0168 5.77074 11.1836 5.57766C12.3505 5.38459 13.548 5.6114 14.5635 6.2178C15.5789 6.8242 16.3465 7.77093 16.7299 8.88979C16.7886 9.05977 16.892 9.21078 17.0292 9.32693C17.1665 9.44308 17.3325 9.52007 17.5099 9.54979C18.2429 9.68504 18.8993 10.0883 19.3512 10.6811C19.8031 11.2738 20.0182 12.0135 19.9546 12.7562C19.8909 13.4988 19.5531 14.1912 19.0069 14.6984C18.4607 15.2056 17.7452 15.4913 16.9999 15.4998H15.9999C15.7347 15.4998 15.4803 15.6051 15.2928 15.7927C15.1052 15.9802 14.9999 16.2346 14.9999 16.4998C14.9999 16.765 15.1052 17.0194 15.2928 17.2069C15.4803 17.3944 15.7347 17.4998 15.9999 17.4998H16.9999C18.1992 17.4965 19.3575 17.0622 20.2633 16.2761C21.1691 15.49 21.7622 14.4045 21.9343 13.2175C22.1065 12.0306 21.8463 10.8213 21.2011 9.81025C20.556 8.79919 19.5689 8.05371 18.4199 7.70979Z" fill="black"/>
</svg>
