<svg width="24" height="24" viewBox="0 0 24 24" fill="none" xmlns="http://www.w3.org/2000/svg">
<path d="M21 18.5001H14.82C14.6707 18.0807 14.4299 17.6998 14.1151 17.385C13.8003 17.0702 13.4194 16.8294 13 16.6801V13.5001H16.17C17.2289 13.5349 18.2637 13.1803 19.0787 12.5034C19.8937 11.8265 20.4323 10.8743 20.5924 9.82706C20.7526 8.77981 20.5233 7.71018 19.9478 6.82064C19.3724 5.9311 18.4909 5.28338 17.47 5.0001C16.9352 3.81517 16.0301 2.83599 14.8907 2.20991C13.7514 1.58383 12.4396 1.34472 11.1526 1.52857C9.86569 1.71242 8.67327 2.30928 7.75483 3.22933C6.83639 4.14938 6.24161 5.34283 6.06 6.6301C5.24619 6.85831 4.54245 7.3733 4.07876 8.07995C3.61507 8.7866 3.42276 9.63718 3.53734 10.4746C3.65192 11.312 4.06565 12.0796 4.70212 12.6357C5.33859 13.1919 6.1548 13.4989 7 13.5001H11V16.6801C10.5806 16.8294 10.1997 17.0702 9.8849 17.385C9.57011 17.6998 9.32932 18.0807 9.18 18.5001H3C2.73478 18.5001 2.48043 18.6055 2.29289 18.793C2.10536 18.9805 2 19.2349 2 19.5001C2 19.7653 2.10536 20.0197 2.29289 20.2072C2.48043 20.3947 2.73478 20.5001 3 20.5001H9.18C9.3902 21.0793 9.77363 21.5796 10.2782 21.9333C10.7827 22.2869 11.3839 22.4766 12 22.4766C12.6161 22.4766 13.2173 22.2869 13.7218 21.9333C14.2264 21.5796 14.6098 21.0793 14.82 20.5001H21C21.2652 20.5001 21.5196 20.3947 21.7071 20.2072C21.8946 20.0197 22 19.7653 22 19.5001C22 19.2349 21.8946 18.9805 21.7071 18.793C21.5196 18.6055 21.2652 18.5001 21 18.5001ZM7 11.5001C6.60218 11.5001 6.22064 11.3421 5.93934 11.0608C5.65804 10.7795 5.5 10.3979 5.5 10.0001C5.5 9.60227 5.65804 9.22074 5.93934 8.93944C6.22064 8.65813 6.60218 8.5001 7 8.5001C7.26522 8.5001 7.51957 8.39474 7.70711 8.2072C7.89464 8.01967 8 7.76531 8 7.5001C7.99738 6.55063 8.33259 5.63119 8.94569 4.90619C9.55878 4.1812 10.4098 3.69794 11.3465 3.54282C12.2832 3.3877 13.2446 3.57085 14.0586 4.05951C14.8727 4.54816 15.4864 5.31047 15.79 6.2101C15.8472 6.38194 15.9499 6.53503 16.0873 6.65303C16.2247 6.77103 16.3915 6.84951 16.57 6.8801C17.1113 6.97036 17.6027 7.25037 17.9564 7.66997C18.31 8.08957 18.5027 8.62136 18.5 9.1701C18.4974 9.78724 18.251 10.3784 17.8147 10.8147C17.3783 11.2511 16.7871 11.4975 16.17 11.5001H7ZM12 20.5001C11.8022 20.5001 11.6089 20.4415 11.4444 20.3316C11.28 20.2217 11.1518 20.0655 11.0761 19.8828C11.0004 19.7001 10.9806 19.499 11.0192 19.305C11.0578 19.111 11.153 18.9328 11.2929 18.793C11.4327 18.6531 11.6109 18.5579 11.8049 18.5193C11.9989 18.4807 12.2 18.5005 12.3827 18.5762C12.5654 18.6519 12.7216 18.7801 12.8315 18.9445C12.9414 19.109 13 19.3023 13 19.5001C13 19.7653 12.8946 20.0197 12.7071 20.2072C12.5196 20.3947 12.2652 20.5001 12 20.5001Z" fill="black"/>
</svg>
