<svg width="24" height="24" viewBox="0 0 24 24" fill="none" xmlns="http://www.w3.org/2000/svg">
<path d="M18.42 7.71989C17.809 6.3159 16.7545 5.15097 15.4181 4.40362C14.0817 3.65627 12.5371 3.36773 11.021 3.5822C9.50489 3.79668 8.10094 4.50235 7.02427 5.59107C5.9476 6.67979 5.2576 8.09151 5.06001 9.60989C4.22223 9.81395 3.47281 10.2833 2.92346 10.9479C2.37411 11.6125 2.05423 12.4369 2.01151 13.2981C1.96878 14.1593 2.2055 15.0113 2.68638 15.727C3.16725 16.4427 3.86654 16.9839 4.68001 17.2699C4.78372 17.3018 4.8915 17.3187 5.00001 17.3199C5.26523 17.3623 5.53644 17.2977 5.75398 17.1401C5.97152 16.9826 6.11758 16.7451 6.16001 16.4799C6.20245 16.2147 6.13778 15.9435 5.98025 15.7259C5.82272 15.5084 5.58523 15.3623 5.32001 15.3199C4.94292 15.1838 4.61544 14.9375 4.38007 14.6129C4.14469 14.2884 4.01228 13.9006 4.00001 13.4999C4.00001 12.9695 4.21072 12.4608 4.5858 12.0857C4.96087 11.7106 5.46958 11.4999 6.00001 11.4999C6.26523 11.4999 6.51958 11.3945 6.70712 11.207C6.89465 11.0195 7.00001 10.7651 7.00001 10.4999C7.00257 9.31717 7.4243 8.17365 8.19028 7.27248C8.95626 6.37131 10.0169 5.77085 11.1838 5.57777C12.3506 5.38469 13.5481 5.6115 14.5636 6.2179C15.579 6.82431 16.3466 7.77103 16.73 8.88989C16.7872 9.06173 16.8899 9.21483 17.0273 9.33283C17.1647 9.45083 17.3315 9.52931 17.51 9.5599C18.1113 9.66874 18.6651 9.95863 19.0972 10.3908C19.5293 10.8229 19.8191 11.3767 19.9278 11.9781C20.0366 12.5794 19.9591 13.1997 19.7057 13.7558C19.4523 14.3119 19.0352 14.7774 18.51 15.0899C18.2793 15.2225 18.1107 15.4413 18.0413 15.6983C17.9719 15.9552 18.0074 16.2292 18.14 16.4599C18.2726 16.6906 18.4915 16.8592 18.7484 16.9286C19.0053 16.998 19.2793 16.9625 19.51 16.8299C20.2682 16.3898 20.8974 15.7581 21.3344 14.9981C21.7715 14.2381 22.001 13.3766 22 12.4999C21.997 11.424 21.647 10.3778 21.002 9.5167C20.3571 8.65557 19.4516 8.02544 18.42 7.71989ZM12 12.8299C11.446 12.5428 10.8151 12.4395 10.1985 12.5348C9.58184 12.63 9.01152 12.919 8.57001 13.3599C8.02469 13.9088 7.71863 14.6511 7.71863 15.4249C7.71863 16.1986 8.02469 16.941 8.57001 17.4899L11.29 20.2099C11.383 20.3036 11.4936 20.378 11.6154 20.4288C11.7373 20.4796 11.868 20.5057 12 20.5057C12.132 20.5057 12.2627 20.4796 12.3846 20.4288C12.5064 20.378 12.617 20.3036 12.71 20.2099L15.43 17.4899C15.9753 16.941 16.2814 16.1986 16.2814 15.4249C16.2814 14.6511 15.9753 13.9088 15.43 13.3599C14.9885 12.919 14.4182 12.63 13.8016 12.5348C13.1849 12.4395 12.554 12.5428 12 12.8299ZM14 16.0699L12 18.0699L10 16.0699C9.9127 15.986 9.84366 15.8849 9.7972 15.7731C9.75074 15.6612 9.72786 15.541 9.73001 15.4199C9.72846 15.2989 9.7516 15.1788 9.79803 15.0671C9.84445 14.9553 9.91318 14.8542 10 14.7699C10.1725 14.5977 10.4063 14.501 10.65 14.501C10.8937 14.501 11.1275 14.5977 11.3 14.7699C11.393 14.8636 11.5036 14.938 11.6254 14.9888C11.7473 15.0396 11.878 15.0657 12.01 15.0657C12.142 15.0657 12.2727 15.0396 12.3946 14.9888C12.5164 14.938 12.627 14.8636 12.72 14.7699C12.895 14.6024 13.1278 14.5089 13.37 14.5089C13.6122 14.5089 13.8451 14.6024 14.02 14.7699C14.1068 14.8542 14.1756 14.9553 14.222 15.0671C14.2684 15.1788 14.2916 15.2989 14.29 15.4199C14.2896 15.5425 14.2636 15.6636 14.2137 15.7755C14.1637 15.8875 14.091 15.9877 14 16.0699Z" fill="black"/>
</svg>
