<svg width="24" height="24" viewBox="0 0 24 24" fill="none" xmlns="http://www.w3.org/2000/svg">
<path d="M18.42 6.71989C17.809 5.3159 16.7545 4.15097 15.4181 3.40362C14.0817 2.65627 12.5371 2.36773 11.021 2.5822C9.50489 2.79668 8.10094 3.50235 7.02427 4.59107C5.9476 5.67979 5.2576 7.09151 5.06001 8.60989C4.22223 8.81395 3.47281 9.28326 2.92346 9.94789C2.37411 10.6125 2.05423 11.4369 2.01151 12.2981C1.96878 13.1593 2.2055 14.0113 2.68638 14.727C3.16725 15.4427 3.86654 15.9839 4.68001 16.2699C4.78372 16.3018 4.8915 16.3187 5.00001 16.3199C5.26523 16.3623 5.53644 16.2977 5.75398 16.1401C5.97152 15.9826 6.11758 15.7451 6.16001 15.4799C6.20245 15.2147 6.13778 14.9435 5.98025 14.7259C5.82272 14.5084 5.58523 14.3623 5.32001 14.3199C4.94292 14.1838 4.61544 13.9375 4.38007 13.6129C4.14469 13.2884 4.01228 12.9006 4.00001 12.4999C4.00001 11.9695 4.21072 11.4608 4.5858 11.0857C4.96087 10.7106 5.46958 10.4999 6.00001 10.4999C6.26523 10.4999 6.51958 10.3945 6.70712 10.207C6.89465 10.0195 7.00001 9.76511 7.00001 9.49989C7.00257 8.31717 7.4243 7.17365 8.19028 6.27248C8.95626 5.37131 10.0169 4.77085 11.1838 4.57777C12.3506 4.38469 13.5481 4.6115 14.5636 5.2179C15.579 5.82431 16.3466 6.77103 16.73 7.88989C16.7872 8.06173 16.8899 8.21483 17.0273 8.33283C17.1647 8.45083 17.3315 8.52931 17.51 8.5599C18.1113 8.66874 18.6651 8.95863 19.0972 9.39078C19.5293 9.82293 19.8191 10.3767 19.9278 10.9781C20.0366 11.5794 19.9591 12.1997 19.7057 12.7558C19.4523 13.3119 19.0352 13.7774 18.51 14.0899C18.2793 14.2225 18.1107 14.4413 18.0413 14.6983C17.9719 14.9552 18.0074 15.2292 18.14 15.4599C18.2726 15.6906 18.4915 15.8592 18.7484 15.9286C19.0053 15.998 19.2793 15.9625 19.51 15.8299C20.2682 15.3898 20.8974 14.7581 21.3344 13.9981C21.7715 13.2381 22.001 12.3766 22 11.4999C21.997 10.424 21.647 9.37783 21.002 8.5167C20.3571 7.65557 19.4516 7.02544 18.42 6.71989ZM15 15.7199V14.4999C15 13.7042 14.6839 12.9412 14.1213 12.3786C13.5587 11.816 12.7957 11.4999 12 11.4999C11.2044 11.4999 10.4413 11.816 9.87869 12.3786C9.31608 12.9412 9.00001 13.7042 9.00001 14.4999V15.6799C8.33864 15.9199 7.78265 16.3847 7.42924 16.993C7.07583 17.6014 6.94747 18.3146 7.06661 19.008C7.18575 19.7014 7.54481 20.3309 8.08102 20.7864C8.61723 21.2419 9.29647 21.4944 10 21.4999H14C14.7036 21.4944 15.3828 21.2419 15.919 20.7864C16.4552 20.3309 16.8143 19.7014 16.9334 19.008C17.0526 18.3146 16.9242 17.6014 16.5708 16.993C16.2174 16.3847 15.6614 15.9199 15 15.6799V15.7199ZM11 14.4999C11 14.2347 11.1054 13.9803 11.2929 13.7928C11.4804 13.6053 11.7348 13.4999 12 13.4999C12.2652 13.4999 12.5196 13.6053 12.7071 13.7928C12.8947 13.9803 13 14.2347 13 14.4999V15.4999H11V14.4999ZM14 19.4999H10C9.73479 19.4999 9.48044 19.3945 9.2929 19.207C9.10537 19.0195 9.00001 18.7651 9.00001 18.4999C9.00001 18.2347 9.10537 17.9803 9.2929 17.7928C9.48044 17.6053 9.73479 17.4999 10 17.4999H14C14.2652 17.4999 14.5196 17.6053 14.7071 17.7928C14.8947 17.9803 15 18.2347 15 18.4999C15 18.7651 14.8947 19.0195 14.7071 19.207C14.5196 19.3945 14.2652 19.4999 14 19.4999Z" fill="black"/>
</svg>
