<svg width="24" height="24" viewBox="0 0 24 24" fill="none" xmlns="http://www.w3.org/2000/svg">
<path d="M16.7101 16.2902L3.7101 3.29019C3.5218 3.10188 3.26641 2.99609 3.0001 2.99609C2.7338 2.99609 2.47841 3.10188 2.2901 3.29019C2.1018 3.47849 1.99601 3.73388 1.99601 4.00019C1.99601 4.26649 2.1018 4.52188 2.2901 4.71019L5.6501 8.06019C5.35469 8.69366 5.15581 9.3678 5.0601 10.0602C4.03449 10.2168 3.10987 10.7659 2.48142 11.5914C1.85296 12.4169 1.56984 13.4543 1.69182 14.4846C1.81379 15.5149 2.33132 16.4575 3.13516 17.1135C3.93901 17.7694 4.96626 18.0873 6.0001 18.0002H15.5901L18.2901 20.7102C18.3831 20.8039 18.4937 20.8783 18.6155 20.9291C18.7374 20.9798 18.8681 21.006 19.0001 21.006C19.1321 21.006 19.2628 20.9798 19.3847 20.9291C19.5065 20.8783 19.6171 20.8039 19.7101 20.7102C19.8038 20.6172 19.8782 20.5066 19.929 20.3848C19.9798 20.2629 20.0059 20.1322 20.0059 20.0002C20.0059 19.8682 19.9798 19.7375 19.929 19.6156C19.8782 19.4937 19.8038 19.3831 19.7101 19.2902L16.7101 16.2902ZM6.0001 16.0002C5.46967 16.0002 4.96096 15.7895 4.58589 15.4144C4.21082 15.0393 4.0001 14.5306 4.0001 14.0002C4.0001 13.4698 4.21082 12.961 4.58589 12.586C4.96096 12.2109 5.46967 12.0002 6.0001 12.0002C6.26532 12.0002 6.51967 11.8948 6.70721 11.7073C6.89475 11.5198 7.0001 11.2654 7.0001 11.0002C7.00105 10.5297 7.06838 10.0618 7.2001 9.61018L13.5901 16.0002H6.0001ZM18.4201 8.22019C17.878 6.96743 16.9814 5.9005 15.8408 5.15072C14.7001 4.40094 13.3651 4.00102 12.0001 4.00019C11.2093 3.99638 10.424 4.13178 9.6801 4.40019C9.45207 4.50321 9.27095 4.68797 9.17249 4.91801C9.07403 5.14805 9.06539 5.40665 9.14827 5.64274C9.23116 5.87884 9.39955 6.07529 9.62019 6.1933C9.84084 6.31131 10.0977 6.34231 10.3401 6.28019C10.8732 6.09198 11.4348 5.99726 12.0001 6.00019C13.0437 6.00096 14.0609 6.32824 14.9091 6.93617C15.7573 7.54409 16.3941 8.40219 16.7301 9.39019C16.7873 9.56203 16.89 9.71512 17.0274 9.83312C17.1648 9.95112 17.3316 10.0296 17.5101 10.0602C18.0186 10.1502 18.4953 10.3699 18.894 10.698C19.2927 11.0262 19.5999 11.4517 19.786 11.9335C19.972 12.4152 20.0306 12.9368 19.956 13.4477C19.8814 13.9587 19.6761 14.4418 19.3601 14.8502C19.1966 15.0574 19.1217 15.3209 19.1516 15.5832C19.1816 15.8454 19.3141 16.0852 19.5201 16.2502C19.696 16.3913 19.9145 16.4689 20.1401 16.4702C20.2903 16.4695 20.4384 16.435 20.5735 16.3692C20.7085 16.3034 20.827 16.208 20.9201 16.0902C21.4215 15.4494 21.7589 14.696 21.9031 13.8952C22.0473 13.0945 21.994 12.2707 21.7476 11.4952C21.5013 10.7198 21.0695 10.0162 20.4896 9.44547C19.9097 8.87474 19.1994 8.45415 18.4201 8.22019Z" fill="black"/>
</svg>
