<svg width="24" height="24" viewBox="0 0 24 24" fill="none" xmlns="http://www.w3.org/2000/svg">
<path d="M14.5 14.9999C14.8956 14.9999 15.2823 14.8826 15.6112 14.6628C15.94 14.4431 16.1964 14.1307 16.3478 13.7653C16.4991 13.3998 16.5388 12.9977 16.4616 12.6097C16.3844 12.2218 16.1939 11.8654 15.9142 11.5857C15.6345 11.306 15.2782 11.1155 14.8902 11.0383C14.5022 10.9612 14.1001 11.0008 13.7346 11.1521C13.3692 11.3035 13.0568 11.5599 12.8371 11.8888C12.6173 12.2177 12.5 12.6043 12.5 12.9999L10.6 13.8699C10.2735 13.6547 9.89105 13.54 9.50001 13.5399C8.96958 13.5399 8.46087 13.7506 8.0858 14.1257C7.71072 14.5008 7.50001 15.0095 7.50001 15.5399C7.50001 16.0703 7.71072 16.579 8.0858 16.9541C8.46087 17.3292 8.96958 17.5399 9.50001 17.5399C9.82218 17.54 10.139 17.4574 10.42 17.2999L12.52 18.2999C12.5706 18.7369 12.7639 19.1451 13.07 19.4611C13.3761 19.7772 13.7778 19.9835 14.213 20.0481C14.6482 20.1127 15.0925 20.032 15.4772 19.8185C15.8619 19.6051 16.1654 19.2707 16.3409 18.8672C16.5163 18.4638 16.5538 18.0137 16.4475 17.5868C16.3413 17.1598 16.0972 16.7799 15.7532 16.5057C15.4091 16.2315 14.9842 16.0784 14.5443 16.0701C14.1045 16.0618 13.6741 16.1988 13.32 16.4599L11.57 15.6599L13.48 14.7799C13.7946 14.9422 14.1465 15.0181 14.5 14.9999ZM18.42 7.21989C17.809 5.8159 16.7545 4.65097 15.4181 3.90362C14.0817 3.15627 12.5371 2.86773 11.021 3.0822C9.50489 3.29668 8.10094 4.00235 7.02427 5.09107C5.9476 6.17979 5.2576 7.59151 5.06001 9.10989C4.22223 9.31395 3.47281 9.78326 2.92346 10.4479C2.37411 11.1125 2.05423 11.9369 2.01151 12.7981C1.96878 13.6593 2.2055 14.5113 2.68638 15.227C3.16725 15.9427 3.86654 16.4839 4.68001 16.7699C4.78372 16.8018 4.8915 16.8187 5.00001 16.8199C5.26523 16.8623 5.53644 16.7977 5.75398 16.6401C5.97152 16.4826 6.11758 16.2451 6.16001 15.9799C6.20245 15.7147 6.13778 15.4435 5.98025 15.2259C5.82272 15.0084 5.58523 14.8623 5.32001 14.8199C4.94292 14.6838 4.61544 14.4375 4.38007 14.1129C4.14469 13.7884 4.01228 13.4006 4.00001 12.9999C4.00001 12.4695 4.21072 11.9608 4.5858 11.5857C4.96087 11.2106 5.46958 10.9999 6.00001 10.9999C6.26523 10.9999 6.51958 10.8945 6.70712 10.707C6.89465 10.5195 7.00001 10.2651 7.00001 9.99989C7.00257 8.81717 7.4243 7.67365 8.19028 6.77248C8.95626 5.87131 10.0169 5.27085 11.1838 5.07777C12.3506 4.88469 13.5481 5.1115 14.5636 5.7179C15.579 6.32431 16.3466 7.27103 16.73 8.38989C16.7872 8.56173 16.8899 8.71483 17.0273 8.83283C17.1647 8.95083 17.3315 9.02931 17.51 9.0599C18.1113 9.16874 18.6651 9.45863 19.0972 9.89078C19.5293 10.3229 19.8191 10.8767 19.9278 11.4781C20.0366 12.0794 19.9591 12.6997 19.7057 13.2558C19.4523 13.8119 19.0352 14.2774 18.51 14.5899C18.2793 14.7225 18.1107 14.9413 18.0413 15.1983C17.9719 15.4552 18.0074 15.7292 18.14 15.9599C18.2726 16.1906 18.4915 16.3592 18.7484 16.4286C19.0053 16.498 19.2793 16.4625 19.51 16.3299C20.2682 15.8898 20.8974 15.2581 21.3344 14.4981C21.7715 13.7381 22.001 12.8766 22 11.9999C21.997 10.924 21.647 9.87783 21.002 9.0167C20.3571 8.15557 19.4516 7.52544 18.42 7.21989Z" fill="black"/>
</svg>
