<svg width="32" height="32" viewBox="0 0 32 32" fill="none" xmlns="http://www.w3.org/2000/svg">
<path d="M23.5176 4.65713V4.65713C24.2841 4.65713 24.6673 4.65713 24.9848 4.72677C26.1285 4.97757 27.0218 5.87083 27.2726 7.0145C27.3422 7.33204 27.3422 7.71528 27.3422 8.48174L27.3422 11.3254C27.3422 11.7969 27.3422 12.0326 27.1958 12.179C27.0493 12.3255 26.8136 12.3255 26.3422 12.3255L19.693 12.3255M23.5176 4.65713V4.65713C22.7511 4.65713 22.3679 4.65713 22.0504 4.72677C20.9067 4.97757 20.0134 5.87083 19.7626 7.0145C19.693 7.33204 19.693 7.71528 19.693 8.48174L19.693 12.3255M23.5176 4.65713L8.39453 4.65713C6.50891 4.65713 5.5661 4.65713 4.98032 5.24292C4.39453 5.8287 4.39453 6.77151 4.39453 8.65713L4.39453 27.6621L8.21914 26.3841L12.0438 27.6621L15.8684 26.3841L19.693 27.6621L19.693 12.3255" stroke="#CCD2E3" stroke-width="2"/>
<path d="M9.49609 9.76953L14.5956 9.76953" stroke="#CCD2E3" stroke-width="2" stroke-linecap="round"/>
<path d="M10.7695 14.8809H9.49148" stroke="#CCD2E3" stroke-width="2" stroke-linecap="round"/>
<path d="M9.49609 19.9922L13.3207 19.9922" stroke="#CCD2E3" stroke-width="2" stroke-linecap="round"/>
</svg>
