<svg width="47" height="47" viewBox="0 0 47 47" fill="none" xmlns="http://www.w3.org/2000/svg">
<path d="M12.0013 28.2652L12.0013 28.2652C11.9882 28.2783 11.9748 28.2917 11.961 28.3054C11.8092 28.4567 11.6171 28.6481 11.4806 28.8897C11.3441 29.1313 11.2793 29.3946 11.2281 29.6027C11.2234 29.6216 11.2189 29.64 11.2144 29.658L12.181 29.899L11.2144 29.658L9.6376 35.9809C9.63481 35.9921 9.63189 36.0037 9.62888 36.0158C9.59215 36.1623 9.54126 36.3652 9.5238 36.5448C9.5037 36.7515 9.49728 37.2035 9.86628 37.5721C10.2353 37.9406 10.6872 37.9337 10.8939 37.9133C11.0735 37.8956 11.2764 37.8445 11.4228 37.8076C11.4348 37.8046 11.4465 37.8017 11.4577 37.7989L11.2174 36.8403L11.4577 37.7989L17.7605 36.2192L17.7606 36.2192C17.7614 36.219 17.7622 36.2188 17.763 36.2186C17.7802 36.2143 17.7978 36.2099 17.8159 36.2055C18.0244 36.1539 18.2884 36.0886 18.5303 35.9513L18.0368 35.0815L18.5303 35.9513C18.7723 35.814 18.9637 35.6209 19.115 35.4684C19.1287 35.4545 19.1421 35.441 19.1552 35.4279L34.5653 19.9793L34.6037 19.9408C34.9025 19.6414 35.193 19.3503 35.4004 19.0779C35.6342 18.7707 35.8538 18.3733 35.8538 17.8606C35.8538 17.3479 35.6342 16.9505 35.4004 16.6434C35.193 16.371 34.9025 16.0799 34.6037 15.7804L34.5653 15.7419L31.6533 12.8227L31.6148 12.7841C31.3147 12.4831 31.0231 12.1906 30.7501 11.9819C30.4425 11.7466 30.044 11.5254 29.5293 11.5254C29.0147 11.5254 28.6162 11.7466 28.3085 11.9819C28.0356 12.1906 27.7439 12.4831 27.4438 12.7841C27.431 12.7969 27.4182 12.8098 27.4053 12.8227L12.0124 28.254L12.0124 28.254L12.0013 28.2652Z" stroke="#CCD2E3" stroke-width="2"/>
<path d="M24.7461 14.9865L30.483 11.1523L36.2199 16.9036L32.3953 22.6548L24.7461 14.9865Z" fill="#CCD2E3"/>
</svg>
