<svg width="196" height="183" viewBox="0 0 196 183" fill="none" xmlns="http://www.w3.org/2000/svg">
<path d="M107.331 145.043H62.6367V179.515H107.331V145.043Z" fill="#EBEBEB"/>
<path d="M96.135 179.274C96.0749 179.274 96.0234 171.588 96.0234 162.109C96.0234 152.629 96.0749 144.943 96.135 144.943C96.1951 144.943 96.2466 152.629 96.2466 162.109C96.2466 171.588 96.1951 179.274 96.135 179.274Z" fill="#E0E0E0"/>
<path d="M103.542 171.67H100.117V175.545H103.542V171.67Z" fill="#FAFAFA"/>
<path d="M81.35 145.133H76.2734V152.488H81.35V145.133Z" fill="#E0E0E0"/>
<path d="M81.35 172.055H76.2734V179.41H81.35V172.055Z" fill="#E0E0E0"/>
<path d="M188.432 136.398H132.074V179.865H188.432V136.398Z" fill="#EBEBEB"/>
<path d="M174.307 179.557C174.247 179.557 174.195 169.871 174.195 157.92C174.195 145.969 174.247 136.283 174.307 136.283C174.367 136.283 174.418 145.969 174.418 157.92C174.418 169.871 174.371 179.557 174.307 179.557Z" fill="#E0E0E0"/>
<path d="M183.649 169.971H179.328V174.854H183.649V169.971Z" fill="#FAFAFA"/>
<path d="M155.668 136.51H149.266V145.783H155.668V136.51Z" fill="#E0E0E0"/>
<path d="M155.668 170.461H149.266V179.734H155.668V170.461Z" fill="#E0E0E0"/>
<path d="M25.9219 137.677C28.2049 136.501 30.8912 136.347 33.4231 136.767C34.7834 136.99 36.1995 137.398 37.1265 138.419C38.0534 139.441 38.225 141.239 37.1651 142.118C36.53 142.642 35.6503 142.719 34.8263 142.711C32.8437 142.685 30.6466 142.337 29.0631 143.53C28.1576 144.213 27.5569 145.341 26.4883 145.676C25.4198 146.011 24.2397 145.38 23.6818 144.427C23.1657 143.434 23.052 142.28 23.3643 141.204C23.4906 140.459 23.7871 139.753 24.2307 139.142C24.6743 138.53 25.253 138.029 25.9219 137.677Z" fill="#EBEBEB"/>
<path d="M20.6959 127.589C22.0906 129.581 24.8027 128.924 26.0601 127.705C27.3174 126.487 27.8495 124.727 28.3302 123.049C29.4373 119.209 30.5488 115.179 29.7291 111.27C29.5318 110.084 29.0105 108.976 28.2229 108.068C27.8241 107.622 27.3158 107.289 26.7483 107.1C26.1807 106.911 25.5737 106.873 24.9872 106.991C23.6183 107.352 22.7686 108.708 22.155 109.965C20.3457 113.724 19.3986 117.839 19.3828 122.011C19.3828 123.955 19.6017 125.989 20.6959 127.589" fill="#EBEBEB"/>
<path d="M16.8687 130.446C18.3835 128.648 18.671 126.031 17.9973 123.778C17.3236 121.525 15.8002 119.611 14.045 118.045C11.9807 116.208 9.57868 114.792 6.97296 113.873C5.96305 113.465 4.87678 113.281 3.78881 113.333C3.24608 113.364 2.71915 113.527 2.25393 113.808C1.7887 114.089 1.3993 114.48 1.11962 114.946C0.372938 116.367 1.08958 118.088 1.86202 119.495C3.22228 121.972 4.77477 124.338 6.5052 126.571C7.89988 128.365 9.50911 130.137 11.6161 130.949C13.7232 131.76 15.9461 131.665 17.0704 130.193" fill="#EBEBEB"/>
<path d="M20.6018 157.638C20.6764 157.343 20.7195 157.041 20.7306 156.736C20.795 156.076 20.8722 155.247 20.9709 154.265C21.0939 153.049 21.2787 151.84 21.5245 150.643C21.8469 149.179 22.2875 147.744 22.8419 146.352C23.3856 144.968 24.1209 143.668 25.0262 142.489C25.7662 141.531 26.7083 140.747 27.7855 140.194C28.5181 139.832 29.303 139.589 30.1114 139.473C30.4157 139.461 30.7178 139.416 31.0125 139.34C30.7088 139.306 30.4023 139.306 30.0985 139.34C29.259 139.403 28.4378 139.617 27.6739 139.97C26.5364 140.507 25.539 141.3 24.7601 142.288C23.8127 143.482 23.049 144.811 22.4943 146.231C21.9406 147.641 21.5098 149.095 21.2069 150.578C20.9735 151.791 20.8115 153.016 20.722 154.248C20.6448 155.299 20.6147 156.149 20.6018 156.736C20.5702 157.036 20.5702 157.338 20.6018 157.638V157.638Z" fill="#E0E0E0"/>
<path d="M20.7744 155.74C20.7998 155.599 20.8085 155.455 20.8001 155.311C20.8001 154.994 20.8001 154.594 20.8001 154.11C20.8001 153.067 20.8001 151.556 20.8516 149.694C20.946 145.969 21.2807 141.969 21.8858 136.309C22.4737 130.992 23.259 124.809 24.0915 120.788C24.2675 119.874 24.4477 119.05 24.6194 118.329C24.791 117.608 24.9155 116.981 25.0485 116.479C25.1815 115.977 25.2545 115.621 25.3317 115.312C25.3737 115.172 25.3982 115.028 25.4047 114.883C25.34 115.008 25.291 115.141 25.2588 115.278C25.1644 115.582 25.0485 115.96 24.9069 116.428C24.7653 116.895 24.5936 117.548 24.4134 118.264C24.2332 118.981 24.0272 119.805 23.8341 120.719C22.8032 125.475 22.0282 130.282 21.5125 135.121C20.8945 140.785 20.6156 145.943 20.5898 149.677C20.5898 151.543 20.5898 153.058 20.6542 154.101C20.6843 154.586 20.71 154.985 20.7272 155.298C20.7251 155.447 20.7409 155.595 20.7744 155.74V155.74Z" fill="#E0E0E0"/>
<path d="M20.8004 145.794C20.8331 145.375 20.8331 144.955 20.8004 144.536C20.7532 143.729 20.6416 142.566 20.4142 141.137C20.1335 139.467 19.7581 137.813 19.2899 136.185C18.7487 134.182 18.0558 132.222 17.2172 130.323C15.7814 126.825 13.7209 123.617 11.1364 120.857C10.688 120.383 10.2092 119.938 9.70312 119.526C9.48426 119.338 9.27399 119.153 9.09375 119.007L8.56163 118.625C8.22765 118.37 7.87312 118.144 7.50168 117.947C7.4416 118.029 8.99934 118.947 10.9648 121.037C13.4648 123.823 15.4705 127.016 16.8953 130.478C17.7195 132.364 18.4148 134.304 18.9766 136.284C19.4485 137.897 19.8395 139.533 20.1481 141.185C20.4056 142.596 20.5773 143.759 20.6459 144.549C20.6643 144.967 20.7159 145.383 20.8004 145.794V145.794Z" fill="#E0E0E0"/>
<path d="M10.5156 161.826L11.5112 175.485H29.0583L30.0539 161.826H10.5156Z" fill="#EBEBEB"/>
<path d="M32.1474 156.445H8.82422V161.827H32.1474V156.445Z" fill="#EBEBEB"/>
<path d="M8.82422 174.961V176.45H9.92279H31.7655V174.961H8.82422Z" fill="#E0E0E0"/>
<path d="M10.9947 178.913L9.92188 176.287H30.9278L29.6747 178.913H10.9947Z" fill="#E0E0E0"/>
<path d="M29.7325 166.289C29.7105 166.335 29.6832 166.378 29.6509 166.417C29.5823 166.507 29.4921 166.623 29.3891 166.765L28.3678 168.052L28.3206 168.112L28.2777 168.052L25.7673 164.581H25.9089L23.4371 168.078L23.3599 168.19L23.274 168.087L20.3431 164.598H20.5104L20.3517 164.804L17.7297 168.087L17.6396 168.198L17.5623 168.082L15.0862 164.585H15.2322L12.1853 168.052L12.1338 168.117L12.0909 168.044L11.1383 166.464C11.0353 166.293 10.958 166.151 10.8936 166.035C10.8613 165.987 10.8353 165.935 10.8164 165.881C10.8566 165.922 10.8912 165.968 10.9194 166.018L11.1897 166.426L12.1896 168.001H12.0952L15.0991 164.49L15.1721 164.4L15.2407 164.495L17.7383 167.979H17.5752L20.1886 164.688C20.2444 164.619 20.3002 164.551 20.3474 164.486L20.4332 164.379L20.519 164.482L23.4414 167.979H23.2783L25.7759 164.499L25.8488 164.396L25.9175 164.499C26.9088 165.911 27.7499 167.108 28.3764 168.009H28.2863L29.3505 166.722C29.4664 166.589 29.5608 166.482 29.6338 166.392C29.6641 166.355 29.6971 166.32 29.7325 166.289V166.289Z" fill="#F5F5F5"/>
<path d="M30.2971 161.736C30.2971 161.796 25.8986 161.848 20.4786 161.848C15.0587 161.848 10.6602 161.796 10.6602 161.736C10.6602 161.676 15.0544 161.629 20.4786 161.629C25.9029 161.629 30.2971 161.676 30.2971 161.736Z" fill="#F5F5F5"/>
<path d="M153.358 6.88484L149.762 6.9043L149.859 24.7988L153.455 24.7793L153.358 6.88484Z" fill="#E0E0E0"/>
<path d="M127.921 6.93204L118.609 6.98242L118.663 16.8608L127.975 16.8105L127.921 6.93204Z" fill="#EBEBEB"/>
<path d="M137.187 6.88126L127.875 6.93164L127.928 16.8101L137.24 16.7597L137.187 6.88126Z" fill="#F5F5F5"/>
<path d="M118.621 9.71583C124.812 9.76732 131.006 9.73871 137.203 9.63C137.229 9.63 137.254 9.6196 137.273 9.60109C137.291 9.58258 137.301 9.55748 137.301 9.5313C137.301 9.50512 137.291 9.48002 137.273 9.46151C137.254 9.443 137.229 9.4326 137.203 9.4326C131.015 9.39827 124.809 9.4326 118.621 9.54847C118.602 9.55279 118.586 9.56342 118.573 9.57862C118.561 9.59383 118.555 9.6127 118.555 9.63215C118.555 9.6516 118.561 9.67047 118.573 9.68567C118.586 9.70087 118.602 9.71151 118.621 9.71583V9.71583Z" fill="#E0E0E0"/>
<path d="M129.725 16.6467L112.805 16.7383L112.848 24.7886L129.769 24.6971L129.725 16.6467Z" fill="#EBEBEB"/>
<path d="M146.565 16.5549L129.645 16.6465L129.688 24.6968L146.608 24.6053L146.565 16.5549Z" fill="#F5F5F5"/>
<path d="M112.812 18.9866C124.051 19.111 135.329 18.9866 146.572 18.8192C146.598 18.8192 146.623 18.8088 146.642 18.7903C146.66 18.7718 146.671 18.7467 146.671 18.7205C146.671 18.6944 146.66 18.6693 146.642 18.6507C146.623 18.6322 146.598 18.6218 146.572 18.6218C135.333 18.5618 124.051 18.5661 112.812 18.8149C112.79 18.8149 112.768 18.824 112.752 18.8401C112.736 18.8562 112.727 18.878 112.727 18.9008C112.727 18.9235 112.736 18.9454 112.752 18.9615C112.768 18.9776 112.79 18.9866 112.812 18.9866V18.9866Z" fill="#E0E0E0"/>
<path d="M172.034 24.7949H106.48V27.6787H172.034V24.7949Z" fill="#E0E0E0"/>
<path d="M119.875 26.1816H117.215V36.0216H119.875V26.1816Z" fill="#E0E0E0"/>
<path d="M159.602 26.1816H156.941V36.0216H159.602V26.1816Z" fill="#E0E0E0"/>
<path d="M156.869 0.209059L153.273 0.228516L153.407 24.8388L157.003 24.8193L156.869 0.209059Z" fill="#EBEBEB"/>
<path d="M162.482 4.79204L156.895 4.82227L157.002 24.7679L162.59 24.7377L162.482 4.79204Z" fill="#F5F5F5"/>
<path d="M162.446 8.64294C160.589 8.77413 158.724 8.77413 156.867 8.64294C158.725 8.51746 160.588 8.51746 162.446 8.64294V8.64294Z" fill="#E0E0E0"/>
<path d="M162.447 7.82691C161.519 7.92083 160.585 7.95237 159.653 7.92132C158.721 7.9522 157.787 7.92066 156.859 7.82691C158.717 7.69572 160.581 7.69572 162.438 7.82691H162.447Z" fill="#E0E0E0"/>
<path d="M162.446 21.7445C160.589 21.8757 158.724 21.8757 156.867 21.7445C158.725 21.619 160.588 21.619 162.446 21.7445V21.7445Z" fill="#E0E0E0"/>
<path d="M162.446 20.907C160.588 21.0325 158.725 21.0325 156.867 20.907C158.724 20.7758 160.589 20.7758 162.446 20.907V20.907Z" fill="#E0E0E0"/>
<path d="M159.743 19.0801C159.691 19.0801 159.648 17.0675 159.648 14.5871C159.648 12.1068 159.691 10.0898 159.743 10.0898C159.794 10.0898 159.842 12.1025 159.842 14.5871C159.842 17.0718 159.799 19.0801 159.743 19.0801Z" fill="#E0E0E0"/>
<path d="M168.592 9.69922H162.512V24.7531H168.592V9.69922Z" fill="#EBEBEB"/>
<path d="M155.011 5.45317C155.582 5.45317 156.045 4.99014 156.045 4.41897C156.045 3.84779 155.582 3.38477 155.011 3.38477C154.44 3.38477 153.977 3.84779 153.977 4.41897C153.977 4.99014 154.44 5.45317 155.011 5.45317Z" fill="#E0E0E0"/>
<path d="M155.335 7.26562H154.695V21.9075H155.335V7.26562Z" fill="#E0E0E0"/>
<path d="M190.363 179.629C190.363 179.694 149.115 179.741 98.2502 179.741C47.3855 179.741 6.12891 179.694 6.12891 179.629C6.12891 179.565 47.3683 179.518 98.2502 179.518C149.132 179.518 190.363 179.569 190.363 179.629Z" fill="#263238"/>
<path d="M54.9969 22.1406C57.0206 24.6172 58.1163 27.7225 58.0952 30.9206C58.0737 32.7315 57.739 34.727 58.7947 36.1989C59.5928 37.3147 61.0519 37.8768 61.6999 39.087C62.4809 40.5417 61.8157 42.3827 62.2964 43.9619C62.9744 46.2019 65.6007 47.1417 67.1584 48.8883C67.8224 49.6606 68.287 50.584 68.5114 51.5775C68.7359 52.571 68.7133 53.6044 68.4458 54.5871C68.162 55.5658 67.6487 56.4626 66.9486 57.203C66.2485 57.9434 65.3818 58.5061 64.4206 58.8441C63.3941 59.2487 62.2492 59.2302 61.2364 58.7926C60.185 58.2691 59.5199 57.192 59.0049 56.1406C57.9707 54.0722 48.886 42.8933 48.3711 40.6361" fill="#263238"/>
<path d="M48.3891 19.5063C44.6728 18.9055 41.0939 21.373 39.5361 24.7975C37.9784 28.222 37.9269 32.0927 37.8196 35.8691C37.7123 39.6454 37.4377 43.5591 35.5195 46.7947C34.3007 48.8502 32.4126 50.6569 32.1165 53.0214C31.8504 55.1413 32.949 57.2783 32.5842 59.3854C32.2667 61.222 30.8677 62.8184 30.9235 64.6765C30.9922 66.9166 33.2966 68.6031 35.5324 68.6632C37.7681 68.7232 39.8623 67.5517 41.6174 66.1613C44.477 63.8909 46.7653 60.9824 48.299 57.6689" fill="#263238"/>
<path d="M42.2691 28.3629C42.1523 27.4281 42.2246 26.4793 42.4815 25.573C42.7385 24.6666 43.1749 23.8211 43.7648 23.0867C44.3548 22.3522 45.0863 21.7437 45.916 21.2974C46.7456 20.8511 47.6564 20.5759 48.5944 20.4884C52.3407 20.1279 55.6751 22.9215 56.2372 26.6464C56.7307 29.912 57.1513 33.2078 57.1384 34.405C57.0912 38.014 54.9928 39.4173 54.1345 39.8421C53.8258 39.9529 53.5066 40.032 53.1818 40.0781V40.0781V40.1039L53.98 44.2493C54.3448 46.9657 52.8299 49.3988 50.1178 49.7808C47.4057 50.1627 45.273 48.09 44.8567 45.3736L42.2691 28.3629Z" fill="#FFBE9D"/>
<path d="M55.5041 28.2244C55.444 28.3102 54.9677 28.057 54.3583 28.1471C53.749 28.2373 53.3413 28.6063 53.264 28.5419C53.1868 28.4776 53.2641 28.3703 53.4529 28.1986C53.6875 27.97 53.9875 27.8201 54.3111 27.7695C54.6287 27.7205 54.9536 27.7747 55.238 27.924C55.4526 28.0613 55.5341 28.1901 55.5041 28.2244Z" fill="#263238"/>
<path d="M50.0705 29.5483C50.0104 29.6342 49.5341 29.3767 48.9204 29.4668C48.3068 29.5569 47.9077 29.9303 47.8305 29.8659C47.7532 29.8015 47.8305 29.69 48.0193 29.5226C48.2539 29.294 48.5539 29.144 48.8775 29.0935C49.1955 29.0482 49.5197 29.1037 49.8045 29.2522C50.0147 29.3853 50.1006 29.5097 50.0705 29.5483Z" fill="#263238"/>
<path d="M52.2955 32.8212C52.6025 32.6736 52.9269 32.5654 53.2611 32.4994C53.4156 32.4608 53.5572 32.4093 53.5701 32.2977C53.5562 32.1409 53.4965 31.9917 53.3984 31.8686L52.759 30.7271C51.8707 29.1307 51.2056 27.809 51.2699 27.7704C51.3343 27.7318 52.1282 29.0063 52.9864 30.6026C53.2053 30.9974 53.4156 31.3751 53.6044 31.7313C53.7291 31.9058 53.7897 32.118 53.776 32.332C53.7619 32.3906 53.7344 32.4451 53.6957 32.4912C53.657 32.5374 53.6081 32.574 53.5529 32.5981C53.4692 32.6347 53.3813 32.6607 53.2911 32.6753C52.9671 32.7672 52.6324 32.8162 52.2955 32.8212Z" fill="#263238"/>
<path d="M53.1494 40.0822C53.1494 40.0822 50.8193 40.6186 47.6094 39.2754C47.6094 39.2754 48.9955 42.2578 53.3683 41.1979L53.1494 40.0822Z" fill="#EB996E"/>
<path d="M49.7568 27.9486C49.7225 28.1245 49.1002 28.1331 48.3964 28.3262C47.6927 28.5194 47.1391 28.794 47.0232 28.661C46.9717 28.5966 47.049 28.4249 47.2592 28.2318C47.5424 27.9897 47.8769 27.8151 48.2375 27.7214C48.5981 27.6278 48.9753 27.6174 49.3405 27.6911C49.6238 27.7555 49.7568 27.8671 49.7568 27.9486Z" fill="#263238"/>
<path d="M55.0024 26.8743C54.9166 27.0288 54.4746 26.9473 53.9682 27.0117C53.4618 27.076 53.0456 27.2434 52.9254 27.1104C52.8739 27.046 52.9254 26.9001 53.0885 26.7413C53.3135 26.5418 53.5959 26.4186 53.8953 26.3894C54.1908 26.3538 54.4902 26.4092 54.7535 26.5482C54.9595 26.6641 55.041 26.7971 55.0024 26.8743Z" fill="#263238"/>
<path d="M48.7429 30.336C48.7524 30.4024 48.7749 30.4663 48.8092 30.5239C48.8435 30.5815 48.889 30.6318 48.9429 30.6717C48.9968 30.7116 49.0581 30.7404 49.1232 30.7565C49.1883 30.7725 49.256 30.7754 49.3223 30.7651C49.3867 30.7577 49.449 30.7375 49.5056 30.7058C49.5622 30.6741 49.6119 30.6314 49.6518 30.5803C49.6917 30.5292 49.7211 30.4706 49.7382 30.4081C49.7553 30.3455 49.7598 30.2801 49.7514 30.2158C49.7313 30.0822 49.659 29.962 49.5504 29.8816C49.4418 29.8011 49.3058 29.767 49.1721 29.7867C49.1074 29.7936 49.0448 29.8133 48.9879 29.8449C48.931 29.8765 48.8811 29.9191 48.8411 29.9704C48.801 30.0216 48.7717 30.0804 48.7549 30.1432C48.738 30.206 48.7339 30.2716 48.7429 30.336V30.336Z" fill="#263238"/>
<path d="M54.1531 29.1661C54.1732 29.2997 54.2455 29.4199 54.3541 29.5003C54.4627 29.5808 54.5987 29.6149 54.7324 29.5952C54.7969 29.5878 54.8592 29.5676 54.9158 29.5359C54.9723 29.5041 55.022 29.4615 55.062 29.4104C55.1019 29.3593 55.1313 29.3007 55.1484 29.2381C55.1655 29.1756 55.1699 29.1102 55.1616 29.0459C55.1414 28.9123 55.0691 28.7921 54.9606 28.7116C54.852 28.6312 54.7159 28.5971 54.5822 28.6168C54.5176 28.6236 54.4549 28.6434 54.3981 28.675C54.3412 28.7065 54.2913 28.7492 54.2512 28.8005C54.2112 28.8517 54.1819 28.9105 54.165 28.9733C54.1482 29.0361 54.1441 29.1017 54.1531 29.1661Z" fill="#263238"/>
<path d="M53.2588 34.0048C53.0903 33.9524 52.9088 33.9606 52.7458 34.028C52.5828 34.0954 52.4485 34.2178 52.3662 34.3739C52.2876 34.5172 52.2558 34.6815 52.275 34.8438C52.2942 35.0061 52.3636 35.1583 52.4735 35.2793C52.5904 35.3942 52.7444 35.4638 52.908 35.4756C53.0715 35.4874 53.2339 35.4406 53.3661 35.3437C53.5316 35.193 53.6317 34.9836 53.645 34.7601C53.6742 34.5552 53.6251 34.3469 53.5077 34.1765C53.4474 34.0932 53.3614 34.032 53.2628 34.0026C53.1643 33.9731 53.0588 33.9769 52.9627 34.0134" fill="#EB996E"/>
<path d="M55.7647 23.707C55.4278 22.3474 54.5873 21.1663 53.4131 20.4027C52.4519 19.7084 51.3101 19.3075 50.1259 19.2483C48.9343 19.197 47.7709 19.6198 46.8903 20.4241C46.2654 21.0435 45.908 21.8831 45.8947 22.7629L45.9634 22.1621C45.783 22.651 45.783 23.1881 45.9634 23.6769V23.6769C46.0621 23.9387 46.1822 24.2048 46.2852 24.4665C46.5924 25.223 47.1623 25.8432 47.8902 26.2131C48.2198 26.3899 48.589 26.48 48.963 26.4749C49.1502 26.4711 49.3344 26.4265 49.5026 26.3443C49.6709 26.262 49.8192 26.144 49.9371 25.9985C50.2036 25.5334 50.2862 24.9853 50.1688 24.4622C50.4504 24.9791 50.8522 25.4207 51.3404 25.7496C51.5896 25.9089 51.886 25.9775 52.1799 25.9439C52.4737 25.9103 52.7471 25.7765 52.9539 25.5651C53.3058 25.136 53.1685 24.458 52.9539 23.9258C53.2859 24.4278 53.7509 24.8274 54.2971 25.0802C54.4408 25.1626 54.6 25.2144 54.7647 25.2321C54.9295 25.2498 55.0961 25.2332 55.254 25.1832C55.3803 25.1206 55.4907 25.0301 55.577 24.9186C55.6632 24.8071 55.723 24.6775 55.7518 24.5395C55.8155 24.2661 55.8199 23.9822 55.7647 23.707Z" fill="#263238"/>
<path d="M52.6593 24.8487C52.6207 24.8487 52.6293 24.3381 52.4619 23.5614C52.2689 22.5292 51.75 21.5862 50.9814 20.8707C50.559 20.4866 50.0494 20.2112 49.4967 20.0682C49.0439 19.9571 48.5725 19.9454 48.1149 20.0339C47.693 20.1325 47.2901 20.2992 46.9219 20.5274C46.9219 20.5274 46.9948 20.4201 47.1836 20.2828C47.4546 20.0932 47.7589 19.9564 48.0805 19.8794C48.5618 19.7668 49.0626 19.7668 49.5439 19.8794C50.1369 20.0275 50.683 20.3226 51.1316 20.7377C51.9363 21.4827 52.4618 22.4806 52.6207 23.5656C52.6718 23.8864 52.6976 24.2107 52.698 24.5355C52.7033 24.6413 52.6902 24.7473 52.6593 24.8487V24.8487Z" fill="#455A64"/>
<path d="M92.1812 74.8803L75.6811 68.3361C75.6811 68.3361 67.2316 57.2517 67.4075 57.0371L61.4727 63.5341L70.0982 75.2022L90.0913 79.8883L93.5244 78.9356C92.7691 75.2923 92.1812 74.8803 92.1812 74.8803Z" fill="#FFBE9D"/>
<path d="M56.2243 43.2587L53.9757 42.4004L44.2688 43.632V45.3485L43.9898 45.3828C41.8974 45.8277 39.8905 46.6073 38.0464 47.6916C36.319 48.746 34.9465 50.293 34.1054 52.1337C33.2642 53.9744 32.9927 56.0246 33.326 58.0207C33.7208 60.4753 34.4846 63.4578 35.9608 65.1829C38.7802 68.4829 41.355 64.4062 41.355 64.4062C41.355 64.4062 43.123 68.44 43.02 70.3496C42.9342 71.9503 42.2304 75.2803 42.003 76.3188C41.9936 76.3603 41.9928 76.4033 42.0007 76.4451C42.0085 76.4869 42.0247 76.5267 42.0484 76.5621C42.0721 76.5974 42.1027 76.6275 42.1384 76.6506C42.1742 76.6737 42.2142 76.6893 42.2562 76.6965L62.7342 80.4857L62.8329 75.4777L62.1807 54.8795L61.258 46.8805C61.258 46.8805 61.2881 43.0613 56.2243 43.2587Z" fill="#C49C74"/>
<path d="M60.9453 45.5508L68.7555 56.8326L62.4687 64.4883L60.9453 45.5508Z" fill="#C49C74"/>
<path d="M62.6294 69.2887C62.6014 69.0466 62.5913 68.8028 62.5994 68.5592C62.5994 68.0528 62.5994 67.3877 62.5736 66.5766C62.5356 64.3998 62.3795 62.2266 62.1059 60.0667C61.784 57.5348 61.2905 55.2733 60.9172 53.6298L60.4623 51.6987C60.3964 51.4651 60.3476 51.227 60.3164 50.9863C60.414 51.2093 60.4916 51.4405 60.5481 51.6772C60.6812 52.1064 60.8614 52.7801 61.0674 53.5954C61.6215 55.7127 62.0428 57.8626 62.329 60.0324C62.6049 62.2013 62.7396 64.3859 62.7324 66.5723C62.7324 67.4306 62.711 68.0914 62.6852 68.5592C62.6874 68.8035 62.6687 69.0476 62.6294 69.2887V69.2887Z" fill="#263238"/>
<path d="M43.407 52.1378C43.407 52.1721 42.8148 52.1678 41.8664 52.215C40.629 52.2821 39.3983 52.4414 38.1845 52.6914C36.971 52.946 35.7778 53.2888 34.6141 53.717C33.7215 54.0474 33.1851 54.292 33.168 54.2577C33.278 54.1715 33.3993 54.1007 33.5284 54.0474C33.7645 53.9187 34.1163 53.7556 34.5584 53.5711C36.8739 52.6149 39.3487 52.1024 41.8536 52.0605C42.3342 52.0605 42.7118 52.0605 42.9908 52.0863C43.1313 52.0818 43.2718 52.0991 43.407 52.1378Z" fill="#FAFAFA"/>
<path d="M61.4928 57.299C61.1789 57.4131 60.8514 57.4852 60.5187 57.5136C58.9318 57.7453 57.3242 57.7999 55.7253 57.6767C55.3914 57.6709 55.0596 57.6219 54.7383 57.5308C55.0695 57.5014 55.4027 57.5014 55.7339 57.5308C56.3432 57.5308 57.1886 57.5308 58.1198 57.5308C59.051 57.5308 59.8921 57.4364 60.5015 57.3806C60.8288 57.3234 61.1606 57.2961 61.4928 57.299Z" fill="#FAFAFA"/>
<path d="M65.0775 52.1966C64.6044 52.7432 64.0377 53.2009 63.4038 53.5484C62.8055 53.9529 62.1378 54.2438 61.4341 54.4067C61.4084 54.3466 62.2924 53.9775 63.288 53.3424C64.2836 52.7073 65.0345 52.1451 65.0775 52.1966Z" fill="#FAFAFA"/>
<path d="M61.9237 46.966C60.5698 48.1839 58.8447 48.9096 57.0273 49.0258C57.0273 48.9572 58.2075 48.7769 59.5635 48.1976C60.9196 47.6183 61.8808 46.9102 61.9237 46.966Z" fill="#FAFAFA"/>
<path d="M62.3466 66.0364C62.2203 66.1213 62.0851 66.1918 61.9432 66.2467C61.6728 66.3754 61.2823 66.5342 60.7845 66.7187C59.4913 67.1835 58.1562 67.5226 56.7979 67.7315C55.4397 67.9412 54.0642 68.0173 52.6912 67.9589C52.1633 67.9375 51.7385 67.8988 51.4467 67.8602C51.2939 67.8501 51.1427 67.8227 50.9961 67.7787C50.9961 67.7401 51.6484 67.7787 52.7126 67.8044C55.441 67.8299 58.1555 67.4125 60.7502 66.5685C61.7286 66.2467 62.3337 66.0021 62.3466 66.0364Z" fill="#FAFAFA"/>
<path d="M62.5063 71.8516C62.5063 71.8516 62.4462 71.8945 62.3217 71.9588L61.7724 72.1992C61.3004 72.4223 60.6009 72.7141 59.7255 73.0574C58.8501 73.4007 57.7901 73.7312 56.5971 74.0573C54.0036 74.7557 51.3415 75.1687 48.6582 75.2889C47.4223 75.3361 46.3109 75.3318 45.3754 75.2889C44.4399 75.246 43.6889 75.1773 43.1697 75.1044L42.5732 75.0228C42.5029 75.0177 42.4336 75.0033 42.3672 74.9799C42.4368 74.9688 42.5078 74.9688 42.5775 74.9799L43.1782 75.0185C43.6975 75.0615 44.4656 75.1044 45.3797 75.1301C46.2937 75.1559 47.4223 75.1301 48.6496 75.0872C49.877 75.0443 51.2244 74.8898 52.6277 74.6581C54.0309 74.4263 55.3527 74.1474 56.5456 73.847C57.7386 73.5466 58.7943 73.2076 59.6697 72.8943C60.5451 72.5811 61.2575 72.3193 61.7381 72.1219L62.296 71.9031C62.3641 71.8786 62.4346 71.8613 62.5063 71.8516V71.8516Z" fill="#FAFAFA"/>
<path d="M24.8667 163.08L22.5451 173.564L18.3096 181.327C18.2376 181.459 18.1935 181.605 18.1801 181.755C18.1667 181.906 18.1843 182.057 18.2318 182.2C18.2793 182.343 18.3556 182.475 18.4561 182.588C18.5566 182.7 18.679 182.791 18.816 182.854V182.854C18.975 182.927 19.1491 182.961 19.3238 182.953C19.4985 182.945 19.6687 182.895 19.8201 182.807C21.7856 181.674 28.9992 177.456 29.1237 176.679C29.2739 175.782 32.3078 165.784 32.3078 165.784L24.8667 163.08Z" fill="#C49C74"/>
<g opacity="0.6">
<path opacity="0.6" d="M18.8164 182.854L29.3 175.988L29.1885 176.417C29.0967 176.8 28.8716 177.138 28.5534 177.37C27.6951 177.984 25.3048 179.632 19.8549 182.816C19.6984 182.907 19.5217 182.959 19.3405 182.966C19.1593 182.972 18.9792 182.934 18.8164 182.854V182.854Z" fill="white"/>
</g>
<g opacity="0.6">
<path opacity="0.6" d="M27.9834 172.088C27.832 172.151 27.7093 172.268 27.6388 172.416C27.5683 172.564 27.555 172.733 27.6015 172.89C27.6588 173.044 27.7726 173.169 27.9194 173.241C28.0663 173.313 28.2351 173.325 28.3911 173.277C28.5532 173.21 28.6844 173.084 28.7591 172.926C28.8337 172.767 28.8463 172.586 28.7945 172.418C28.7185 172.266 28.5872 172.149 28.4276 172.091C28.2681 172.033 28.0922 172.038 27.9362 172.105" fill="white"/>
</g>
<path d="M22.3155 178.881C22.1424 178.495 21.8995 178.145 21.5989 177.847C21.2527 177.606 20.8639 177.432 20.4531 177.336C20.4531 177.306 20.6033 177.259 20.8565 177.285C21.186 177.327 21.496 177.464 21.7491 177.68C22.0041 177.886 22.1922 178.164 22.2898 178.478C22.3628 178.722 22.3413 178.881 22.3155 178.881Z" fill="#263238"/>
<path d="M21.232 180.095C21.172 180.13 20.9188 179.709 20.4167 179.421C20.0964 179.273 19.7667 179.145 19.4297 179.04C19.6149 178.979 19.812 178.963 20.0045 178.994C20.1971 179.024 20.3795 179.1 20.5368 179.215C21.1076 179.546 21.2921 180.082 21.232 180.095Z" fill="#263238"/>
<path d="M24.1356 177.43C23.7707 177.025 23.3747 176.649 22.9512 176.305C22.4847 176.021 21.9969 175.773 21.4922 175.563C22.0726 175.551 22.6383 175.746 23.0886 176.112C23.585 176.411 23.9568 176.879 24.1356 177.43Z" fill="#263238"/>
<path d="M25.1149 174.302C25.072 174.358 24.5527 173.976 23.8275 173.766C23.1023 173.556 22.4457 173.59 22.4414 173.517C22.919 173.393 23.4212 173.401 23.8948 173.539C24.3685 173.678 24.7959 173.941 25.1321 174.302H25.1149Z" fill="#263238"/>
<path d="M25.8694 171.242C25.4508 170.983 24.9989 170.783 24.5262 170.646C24.0393 170.579 23.5456 170.579 23.0586 170.646C23.0586 170.62 23.1916 170.517 23.4663 170.435C23.8273 170.337 24.2062 170.325 24.5728 170.4C24.9394 170.474 25.2835 170.633 25.5776 170.865C25.7964 171.071 25.8866 171.225 25.8694 171.242Z" fill="#263238"/>
<path d="M24.684 170.065C24.6843 169.929 24.7135 169.794 24.7698 169.67C24.8914 169.316 25.0842 168.99 25.3363 168.713C25.5012 168.493 25.7332 168.334 25.9971 168.258C26.087 168.243 26.1792 168.256 26.2618 168.294C26.3444 168.332 26.4137 168.395 26.4606 168.473C26.5394 168.633 26.5563 168.816 26.5078 168.988C26.3977 169.332 26.1715 169.627 25.8677 169.823C25.564 170.018 25.2016 170.102 24.8428 170.06C24.4888 170.01 24.1578 169.856 23.8913 169.618C23.6247 169.379 23.4347 169.068 23.3451 168.722C23.3245 168.634 23.3226 168.542 23.3396 168.454C23.3566 168.365 23.3921 168.281 23.4438 168.207C23.5031 168.137 23.5829 168.089 23.6716 168.068C23.7603 168.047 23.8534 168.055 23.9373 168.091C24.1798 168.212 24.3869 168.394 24.5381 168.619C24.7655 168.916 24.9384 169.252 25.0487 169.61C25.101 169.738 25.1259 169.875 25.1217 170.013C24.9487 169.551 24.7071 169.117 24.405 168.726C24.2644 168.542 24.082 168.395 23.8729 168.297C23.827 168.277 23.7758 168.272 23.727 168.284C23.6783 168.295 23.6346 168.323 23.6026 168.361C23.5726 168.412 23.5533 168.468 23.5459 168.526C23.5385 168.584 23.5432 168.644 23.5597 168.7C23.6492 168.991 23.8191 169.251 24.0499 169.45C24.2807 169.649 24.563 169.779 24.8642 169.824C25.1677 169.86 25.4743 169.791 25.7338 169.63C25.9933 169.468 26.1905 169.224 26.2932 168.936C26.3348 168.82 26.3348 168.692 26.2932 168.576C26.2689 168.532 26.2314 168.496 26.1859 168.475C26.1405 168.453 26.0895 168.447 26.04 168.455C25.8164 168.517 25.6171 168.646 25.4693 168.825C25.1401 169.191 24.8746 169.61 24.684 170.065V170.065Z" fill="#263238"/>
<g opacity="0.3">
<path opacity="0.3" d="M24.5841 164.217L24.082 166.62L31.6733 167.882L32.3085 165.784L24.8545 163.08L24.5841 164.217Z" fill="black"/>
</g>
<path d="M58.767 166.958L58.1404 175.335C58.1404 175.335 66.4484 178.768 66.4827 180.347L50.1758 179.716L50.6049 166.619L58.767 166.958Z" fill="#C49C74"/>
<g opacity="0.6">
<path opacity="0.6" d="M53.1406 174.435C52.9824 174.477 52.8451 174.576 52.755 174.713C52.6648 174.85 52.628 175.015 52.6514 175.177C52.6875 175.337 52.7831 175.476 52.9186 175.568C53.0541 175.66 53.2194 175.696 53.3809 175.671C53.5492 175.626 53.695 175.521 53.7902 175.375C53.8853 175.229 53.9229 175.053 53.8959 174.881C53.8417 174.718 53.7265 174.582 53.5746 174.502C53.4226 174.422 53.2456 174.404 53.0806 174.452" fill="white"/>
</g>
<g opacity="0.6">
<path opacity="0.6" d="M50.1875 179.718L50.2819 178.396L65.8808 179.482C65.8808 179.482 66.5974 179.825 66.4944 180.34L50.1875 179.718Z" fill="white"/>
</g>
<path d="M58.4144 175.262C58.4144 175.343 58.011 175.365 57.6119 175.605C57.2128 175.845 56.9897 176.172 56.9167 176.137C56.8438 176.103 56.9811 175.648 57.4703 175.365C57.9595 175.082 58.4359 175.189 58.4144 175.262Z" fill="#263238"/>
<path d="M60.0977 176.049C60.0977 176.131 59.763 176.251 59.4798 176.577C59.1965 176.903 59.1064 177.255 59.0249 177.251C58.9433 177.246 58.9133 176.791 59.2738 176.392C59.6342 175.993 60.0977 175.963 60.0977 176.049Z" fill="#263238"/>
<path d="M60.9905 178.121C60.9176 178.121 60.8231 177.731 61.042 177.306C61.2609 176.881 61.6428 176.718 61.6728 176.787C61.7029 176.855 61.4668 177.078 61.2909 177.43C61.115 177.782 61.0677 178.117 60.9905 178.121Z" fill="#263238"/>
<path d="M58.3386 173.339C58.3043 173.408 57.9438 173.283 57.4803 173.296C57.0169 173.309 56.6736 173.438 56.6221 173.369C56.5706 173.301 56.931 173.03 57.4803 173.022C58.0296 173.013 58.3901 173.279 58.3386 173.339Z" fill="#263238"/>
<g opacity="0.3">
<path opacity="0.3" d="M58.65 168.62L58.5384 170.113L50.5352 169.727L50.5909 168.002L58.65 168.62Z" fill="black"/>
</g>
<path d="M58.4461 171.645C58.1764 171.71 57.8939 171.698 57.6307 171.611C57.3332 171.549 57.0448 171.449 56.7725 171.315C56.6136 171.236 56.4602 171.147 56.3133 171.048C56.2237 170.993 56.1427 170.925 56.073 170.847C56.0257 170.785 56 170.71 56 170.632C56 170.555 56.0257 170.479 56.073 170.418C56.1147 170.363 56.1688 170.32 56.2308 170.291C56.2927 170.262 56.3607 170.248 56.4292 170.25C56.5325 170.254 56.6349 170.272 56.7338 170.302C56.9056 170.352 57.0722 170.418 57.2316 170.499C57.5026 170.632 57.7504 170.807 57.9654 171.018C58.3302 171.383 58.4461 171.688 58.4203 171.701C58.3946 171.714 58.2101 171.469 57.8367 171.164C57.6175 170.993 57.3783 170.849 57.1244 170.735C56.9729 170.672 56.8182 170.618 56.6609 170.572C56.4892 170.521 56.3433 170.516 56.2961 170.572C56.2489 170.628 56.2961 170.615 56.2961 170.667C56.3476 170.723 56.4068 170.772 56.4721 170.812C56.6097 170.908 56.753 170.996 56.9012 171.074C57.1487 171.211 57.4088 171.323 57.6779 171.409C57.9393 171.469 58.196 171.548 58.4461 171.645V171.645Z" fill="#263238"/>
<path d="M58.3374 171.756C58.1948 171.515 58.1303 171.236 58.1528 170.957C58.1545 170.656 58.2038 170.356 58.2987 170.069C58.3603 169.901 58.4364 169.739 58.5262 169.584C58.5744 169.478 58.649 169.386 58.7429 169.317C58.8368 169.248 58.9469 169.204 59.0626 169.189C59.1359 169.194 59.2063 169.22 59.2656 169.263C59.3248 169.306 59.3705 169.366 59.3973 169.434C59.4346 169.53 59.4577 169.632 59.466 169.734C59.4942 169.916 59.4942 170.102 59.466 170.284C59.4086 170.587 59.2774 170.871 59.084 171.112C58.7493 171.541 58.4146 171.605 58.406 171.58C58.3974 171.554 58.6635 171.395 58.9253 170.996C59.0755 170.769 59.1736 170.511 59.2128 170.241C59.2345 170.084 59.2345 169.925 59.2128 169.769C59.1913 169.597 59.1312 169.451 59.0669 169.468C59.0025 169.486 58.8437 169.589 58.7708 169.726C58.687 169.863 58.6138 170.007 58.5519 170.155C58.4526 170.414 58.3891 170.686 58.3631 170.962C58.3073 171.442 58.3803 171.756 58.3374 171.756Z" fill="#263238"/>
<path d="M41.9123 76.6204C41.9123 76.6204 39.3375 76.7362 37.621 85.542C35.9045 94.3477 22.8203 165.699 22.8203 165.699L32.3084 165.785L50.1859 97.9481L48.9972 167.896L58.6355 168.634C58.6355 168.634 65.8663 91.2666 65.9307 86.765C66.0165 81.152 62.7938 75.4746 62.7938 75.4746L41.9123 76.6204Z" fill="#263238"/>
<path d="M54.9521 75.8672C55.0122 75.8672 54.0252 80.9095 52.7506 87.1018C51.4761 93.2942 50.3947 98.3064 50.3346 98.2935C50.2746 98.2807 51.2573 93.2513 52.5318 87.0589C53.8063 80.8666 54.9049 75.8543 54.9521 75.8672Z" fill="#455A64"/>
<path d="M56.4295 77.1245C56.4295 77.0988 56.687 77.0215 56.9831 77.2833C57.0672 77.3595 57.1337 77.4531 57.1782 77.5576C57.2226 77.662 57.2439 77.7749 57.2405 77.8884C57.2298 78.0319 57.1785 78.1693 57.0927 78.2848C57.0068 78.4003 56.8899 78.489 56.7556 78.5406C56.6246 78.6001 56.4795 78.6216 56.3369 78.6026C56.1942 78.5837 56.0598 78.525 55.9489 78.4334C55.8659 78.3555 55.8004 78.261 55.7567 78.1559C55.7131 78.0508 55.6923 77.9377 55.6957 77.824C55.6957 77.4292 55.9617 77.2919 55.966 77.3176C55.8937 77.4752 55.8556 77.6463 55.8545 77.8197C55.8602 77.9068 55.8833 77.9919 55.9223 78.0701C55.9614 78.1482 56.0156 78.2177 56.0819 78.2746C56.1666 78.3329 56.2645 78.3691 56.3668 78.3797C56.4691 78.3903 56.5724 78.3751 56.6673 78.3353C56.7621 78.2956 56.8455 78.2327 56.9096 78.1523C56.9738 78.072 57.0168 77.9768 57.0346 77.8755C57.0409 77.7885 57.0297 77.7012 57.0017 77.6187C56.9737 77.5361 56.9294 77.46 56.8715 77.3949C56.6612 77.1503 56.4252 77.1588 56.4295 77.1245Z" fill="#455A64"/>
<path d="M56.0199 80.6096C56.0199 80.5839 56.286 80.6096 56.4491 80.9658C56.4905 81.0675 56.5093 81.177 56.5041 81.2867C56.4989 81.3964 56.4699 81.5036 56.419 81.6009C56.3452 81.7166 56.2413 81.81 56.1184 81.8711C55.9956 81.9321 55.8584 81.9586 55.7216 81.9475C55.5848 81.9365 55.4536 81.8884 55.3421 81.8085C55.2306 81.7285 55.143 81.6197 55.0887 81.4937C55.0544 81.3902 55.0432 81.2805 55.0558 81.1723C55.0684 81.0641 55.1045 80.9599 55.1617 80.8671C55.3634 80.5453 55.638 80.5539 55.6294 80.5796C55.6208 80.6054 55.4234 80.6654 55.299 80.9401C55.236 81.0941 55.236 81.2667 55.299 81.4207C55.3438 81.5059 55.4094 81.5783 55.4897 81.6313C55.57 81.6843 55.6624 81.7161 55.7584 81.7238C55.8543 81.7315 55.9506 81.7149 56.0383 81.6754C56.1261 81.6359 56.2024 81.5748 56.2602 81.4979C56.3411 81.3512 56.3611 81.1786 56.316 81.0173C56.1916 80.7255 55.9985 80.6397 56.0199 80.6096Z" fill="#455A64"/>
<path d="M46.9299 77.2111C46.9122 77.3586 46.8747 77.5029 46.8183 77.6403C46.6842 78.0332 46.5162 78.4137 46.3162 78.7775C45.6615 79.9914 44.7158 81.024 43.5639 81.7826C42.4121 82.5413 41.09 83.0024 39.7162 83.1245C39.3036 83.1605 38.8886 83.1605 38.476 83.1245C38.3306 83.1199 38.1864 83.0969 38.0469 83.0559C38.0469 83.013 38.6949 83.0859 39.7205 82.9572C41.0572 82.795 42.338 82.325 43.4624 81.5841C44.5868 80.8432 45.524 79.8516 46.2003 78.6873C46.7024 77.8205 46.8912 77.1983 46.9299 77.2111Z" fill="#455A64"/>
<path d="M65.3881 83.4709C65.3881 83.4709 65.2765 83.4194 65.1006 83.2993C64.8548 83.1225 64.625 82.9243 64.414 82.7071C63.7083 81.9927 63.1576 81.1403 62.7965 80.2032C62.4354 79.2662 62.2717 78.2647 62.3156 77.2614C62.3254 76.9595 62.3642 76.6591 62.4314 76.3646C62.4786 76.1543 62.5087 76.0427 62.5258 76.047C62.543 76.0513 62.4743 76.5147 62.4743 77.2657C62.475 79.237 63.2075 81.1378 64.5299 82.5998C65.0319 83.1534 65.4096 83.4366 65.3881 83.4709Z" fill="#455A64"/>
<path d="M98.6748 83.7218C98.8164 83.3785 98.7778 83.5158 96.5034 82.0053C96.5034 82.0053 99.7648 84.1509 99.4258 83.1296C99.1325 82.7427 98.7737 82.4101 98.3658 82.1469C99.2241 82.6533 99.7219 82.709 99.8721 82.5031C100.13 82.1469 98.2628 80.7865 97.3745 80.1729C98.1866 80.7539 99.0384 81.2773 99.9236 81.7392C100.451 81.9023 100.198 81.2843 99.842 80.8337C99.4859 80.3832 96.7223 77.7226 95.9799 76.9287C95.9092 76.8682 95.8525 76.7932 95.8136 76.7088C95.7747 76.6243 95.7545 76.5324 95.7545 76.4395C95.7545 76.3465 95.7747 76.2546 95.8136 76.1701C95.8525 76.0857 95.9092 76.0107 95.9799 75.9502C97.3102 75.092 97.8938 73.7231 97.8766 73.2725C97.8618 73.171 97.8153 73.0769 97.7437 73.0035C97.672 72.9302 97.579 72.8814 97.4779 72.8643C97.3769 72.8471 97.273 72.8624 97.1811 72.908C97.0893 72.9536 97.0143 73.0271 96.9669 73.118C96.631 73.5354 96.2397 73.905 95.8039 74.2166C95.4659 74.4802 95.0858 74.6848 94.6796 74.8216C94.2076 74.9761 91.886 74.8474 91.3882 74.5942L89.8047 79.9626C89.8047 79.9626 95.5507 82.649 96.6407 83.1725C97.9796 83.8076 98.5761 83.9836 98.6748 83.7218Z" fill="#FFBE9D"/>
<path d="M95.4709 81.2105C95.4237 81.2749 96.1704 81.8199 97.1359 82.4335C98.1014 83.0472 98.9125 83.4892 98.9511 83.4248C98.9897 83.3604 98.243 82.8111 97.2818 82.2018C96.3205 81.5924 95.5138 81.129 95.4709 81.2105Z" fill="#EB996E"/>
<path d="M96.0095 80.159C95.9666 80.2233 96.7305 80.8499 97.7261 81.5622C98.7216 82.2746 99.5456 82.8024 99.5885 82.7423C99.6314 82.6822 98.8718 82.0514 97.872 81.3391C96.8721 80.6267 96.0567 80.0989 96.0095 80.159Z" fill="#EB996E"/>
<path d="M96.5839 79.0947C96.541 79.1548 97.2533 79.7641 98.1759 80.4507C99.0986 81.1373 99.8925 81.6437 99.9268 81.5836C99.9611 81.5236 99.2616 80.9142 98.339 80.2276C97.4164 79.541 96.6311 79.0346 96.5839 79.0947Z" fill="#EB996E"/>
<path d="M38.1385 59.6516L42.3525 59.8833C42.651 61.0598 43.0501 62.2083 43.5455 63.3164C46.9399 57.4287 49.5533 49.537 50.2228 46.3657C50.1283 46.0539 50.0125 45.702 49.8752 45.3101C49.7723 44.7176 49.7899 44.1105 49.9267 43.5249C50.0425 42.8211 50.2399 41.8684 50.2957 41.4307C50.4802 40.0918 50.6948 39.8773 51.154 40.0318C51.7891 40.2377 50.8922 43.7952 51.4114 43.8725C51.6947 43.9111 52.0337 42.6924 52.1367 41.6925C52.2397 40.6926 52.686 37.6201 53.0164 37.4012C53.5013 37.1008 53.9219 37.5771 53.8017 38.5727C53.6815 39.5683 53.5228 42.5851 54.0506 42.6237C54.5784 42.6623 55.0076 37.5643 55.0076 37.5643C55.0076 37.5643 54.926 36.4571 55.5354 36.4829C56.6383 36.5301 55.78 41.9071 55.6856 42.4177C55.6169 42.7696 56.192 42.8469 56.2434 42.4521C56.2949 42.0573 56.561 37.3497 57.681 37.3883C58.5393 37.4184 57.0159 41.817 57.5008 42.8383C57.9857 43.8596 58.3204 39.3752 59.1444 39.4353C59.4491 39.461 59.6765 39.5211 59.1143 42.0573C58.5657 44.074 57.9082 46.0595 57.1446 48.005C55.8572 55.0427 50.1112 77.5549 41.1338 73.4352C36.113 71.1308 33.7656 59.7031 33.7656 59.7031L38.1385 59.6516Z" fill="#FFBE9D"/>
<path d="M57.1553 48.0434C57.1627 47.9902 57.1771 47.9382 57.1982 47.8889C57.2368 47.7773 57.284 47.6314 57.3484 47.4598C57.49 47.0521 57.6831 46.4856 57.9363 45.7432C58.1895 45.0008 58.4942 44.0997 58.7946 43.0354C58.949 42.5076 59.0778 41.9326 59.1936 41.3189C59.2537 41.0099 59.3095 40.6924 59.3481 40.3662C59.3588 40.2048 59.3588 40.0428 59.3481 39.8813C59.3481 39.714 59.3095 39.5766 59.1765 39.5723C59.0434 39.5681 58.949 39.6496 58.8546 39.7912C58.7692 39.9427 58.6987 40.1023 58.6444 40.2675C58.5242 40.6065 58.4298 40.967 58.3354 41.3318C58.241 41.6965 58.1551 42.0785 58.0436 42.4647C57.9949 42.6762 57.9076 42.877 57.7861 43.0569C57.7555 43.0921 57.7152 43.1175 57.6702 43.1298C57.6419 43.1361 57.6125 43.1358 57.5843 43.1291C57.5561 43.1224 57.5297 43.1095 57.5072 43.0912C57.4578 43.046 57.4171 42.9922 57.387 42.9324C57.3417 42.827 57.3113 42.7158 57.2969 42.602C57.2773 41.7364 57.3638 40.8718 57.5544 40.0272C57.6273 39.5981 57.7046 39.169 57.7603 38.7398C57.7861 38.521 57.8118 38.3107 57.8161 38.079C57.8204 37.8472 57.7861 37.6026 57.696 37.564C57.6059 37.5254 57.387 37.6455 57.2668 37.8258C57.1482 38.0162 57.0545 38.221 56.9879 38.4352C56.8416 38.8834 56.7311 39.3426 56.6575 39.8084C56.576 40.2804 56.5116 40.761 56.4558 41.2502C56.4343 41.4948 56.4086 41.7394 56.3871 41.9883L56.3528 42.3617C56.3574 42.4414 56.3444 42.5212 56.3147 42.5953C56.2851 42.6695 56.2395 42.7362 56.1812 42.7908C56.1077 42.8445 56.019 42.8735 55.928 42.8735C55.8369 42.8735 55.7483 42.8445 55.6748 42.7908C55.6332 42.7633 55.5979 42.7273 55.5712 42.6851C55.5446 42.643 55.5272 42.5956 55.5203 42.5462C55.5138 42.5007 55.5138 42.4544 55.5203 42.4089V42.3188L55.6362 41.5678C55.7091 41.0614 55.7692 40.555 55.8164 40.0401C55.8636 39.5251 55.9022 39.0059 55.9108 38.4866C55.9359 37.9726 55.8839 37.4576 55.7563 36.9589C55.7267 36.8324 55.65 36.7219 55.5417 36.65C55.49 36.6333 55.4343 36.6335 55.3827 36.6505C55.331 36.6674 55.2861 36.7003 55.2542 36.7444C55.1153 36.9984 55.0583 37.2892 55.0912 37.5769V37.5769C54.9967 38.5853 54.8895 39.5766 54.7436 40.5508C54.6706 41.0357 54.5891 41.5206 54.4689 41.9969C54.4346 42.1128 54.4003 42.2329 54.3573 42.3531C54.3165 42.4987 54.231 42.6278 54.1127 42.7222C54.0605 42.7478 54.001 42.755 53.9441 42.7426C53.8872 42.7301 53.8362 42.6987 53.7995 42.6535C53.7471 42.5985 53.7075 42.5325 53.6836 42.4604C53.6373 42.3413 53.6042 42.2176 53.5849 42.0913C53.4843 41.1575 53.4757 40.216 53.5592 39.2805C53.6226 38.8444 53.647 38.4035 53.6321 37.9631C53.6182 37.7751 53.5321 37.5998 53.3918 37.4739C53.3589 37.4534 53.3221 37.4398 53.2837 37.4339C53.2454 37.428 53.2062 37.4299 53.1687 37.4396C53.1285 37.4531 53.0897 37.4703 53.0528 37.4911C53.0142 37.5254 53.0185 37.4911 52.9927 37.564C52.8375 37.9499 52.7239 38.3513 52.6537 38.7613C52.5679 39.1904 52.4949 39.5809 52.4306 39.9843C52.3662 40.3877 52.3061 40.7825 52.2546 41.1773C52.2031 41.5721 52.1774 41.9583 52.1001 42.3445C52.0334 42.7218 51.9329 43.0924 51.7997 43.4517C51.7644 43.5431 51.7228 43.632 51.6753 43.7177C51.6152 43.7993 51.5809 43.9023 51.4178 43.9538C51.3761 43.9614 51.333 43.9565 51.2941 43.9397C51.2551 43.9229 51.222 43.895 51.199 43.8594C51.1689 43.8098 51.1458 43.7564 51.1303 43.7006C51.111 43.6073 51.0995 43.5125 51.096 43.4173C51.096 42.6835 51.1947 42.0141 51.2333 41.3661C51.2613 41.0563 51.2613 40.7447 51.2333 40.4349C51.2333 40.2976 51.1689 40.1345 51.0917 40.1045C51.0376 40.0779 50.9781 40.0641 50.9179 40.0641C50.8576 40.0641 50.7982 40.0779 50.7441 40.1045C50.564 40.2979 50.4524 40.5452 50.4265 40.8082C50.3621 41.07 50.3364 41.3361 50.2892 41.5893C50.109 42.602 49.9201 43.4774 49.83 44.1898C49.7877 44.5031 49.7877 44.8206 49.83 45.1339C49.8901 45.3913 49.9802 45.6231 50.0274 45.8033C50.0746 45.9835 50.1218 46.1123 50.1519 46.2324C50.1679 46.2784 50.1794 46.3259 50.1862 46.3741C50.1605 46.3325 50.1403 46.2878 50.1261 46.241L49.9802 45.8119C49.9201 45.6274 49.83 45.4214 49.7571 45.1382C49.7112 44.8165 49.7112 44.49 49.7571 44.1683C49.8386 43.4431 50.0103 42.5763 50.1862 41.5592C50.2334 41.306 50.2592 41.04 50.3149 40.7653C50.3457 40.6203 50.3844 40.477 50.4308 40.3362C50.4737 40.1801 50.5673 40.0427 50.6969 39.9457C50.7749 39.9044 50.8618 39.8827 50.9501 39.8827C51.0383 39.8827 51.1252 39.9044 51.2032 39.9457C51.2871 39.9986 51.3561 40.0721 51.4034 40.1593C51.4508 40.2464 51.4749 40.3443 51.4736 40.4435C51.5037 40.7661 51.5037 41.0907 51.4736 41.4133C51.4436 42.0656 51.3406 42.7479 51.3577 43.4431C51.3609 43.5253 51.3709 43.6071 51.3878 43.6877C51.3878 43.7692 51.4478 43.8036 51.4393 43.7864C51.4307 43.7692 51.5208 43.7177 51.5551 43.6491C51.5974 43.5729 51.6347 43.4941 51.6667 43.4131C51.7938 43.0652 51.8872 42.7059 51.9456 42.3402C52.0186 41.9669 52.0443 41.5807 52.0958 41.1816C52.1473 40.7825 52.1988 40.3877 52.2632 39.98C52.3276 39.5723 52.4005 39.1647 52.4821 38.7484C52.5518 38.3137 52.6728 37.8888 52.8425 37.4825C52.8768 37.4143 52.9287 37.3566 52.9927 37.3151C53.0497 37.2838 53.1102 37.2594 53.173 37.2422C53.2449 37.2216 53.3205 37.2167 53.3945 37.2278C53.4685 37.2389 53.5393 37.2658 53.6021 37.3065C53.7017 37.3856 53.7839 37.4843 53.8437 37.5965C53.9035 37.7087 53.9396 37.8321 53.9497 37.9588C53.9819 38.1923 53.9819 38.4291 53.9497 38.6626C53.9282 38.8814 53.9068 39.0917 53.8939 39.332C53.8103 40.2461 53.8189 41.1662 53.9196 42.0785C53.938 42.1868 53.9668 42.2932 54.0055 42.396C54.0183 42.4375 54.0403 42.4757 54.0698 42.5076C54.0698 42.5076 54.0698 42.5076 54.0913 42.5076C54.0913 42.6063 54.0913 42.5076 54.0913 42.5462C54.0913 42.5848 54.0913 42.5462 54.0913 42.5119C54.1448 42.4402 54.1868 42.3605 54.2157 42.2759C54.2558 42.17 54.2901 42.0584 54.3187 41.9411C54.4346 41.4863 54.5118 41.0056 54.5848 40.525C54.7307 39.5595 54.838 38.5682 54.9281 37.564V37.5855C54.8899 37.2317 54.9667 36.8751 55.1469 36.5684C55.2158 36.4808 55.3102 36.4167 55.4171 36.3852C55.524 36.3537 55.6381 36.3562 55.7434 36.3925C55.8334 36.4424 55.9125 36.51 55.9759 36.591C56.0393 36.6721 56.0857 36.7651 56.1125 36.8645C56.2499 37.3922 56.3064 37.9377 56.2798 38.4823C56.2798 39.0145 56.2326 39.538 56.1854 40.0573C56.1382 40.5765 56.0739 41.0872 56.0009 41.5935C55.9623 41.851 55.9237 42.0999 55.8851 42.3531C55.8507 42.5119 55.8593 42.5162 55.8851 42.5634C55.9148 42.5835 55.95 42.5942 55.9859 42.5942C56.0218 42.5942 56.057 42.5835 56.0867 42.5634C56.1382 42.5248 56.1468 42.4518 56.1597 42.3102L56.1897 41.9368L56.267 41.1945C56.3185 40.7052 56.3871 40.216 56.4687 39.7397C56.5481 39.2613 56.6628 38.7894 56.812 38.3279C56.8899 38.0946 56.995 37.8713 57.1252 37.6627C57.1961 37.5503 57.2897 37.4538 57.3999 37.3795C57.461 37.3352 57.5319 37.3063 57.6066 37.2951C57.6813 37.2839 57.7575 37.2907 57.829 37.3151C57.8947 37.3557 57.9502 37.4108 57.9912 37.4763C58.0321 37.5418 58.0574 37.6159 58.065 37.6928C58.0827 37.8135 58.0899 37.9355 58.0865 38.0575C58.0865 38.2935 58.0564 38.521 58.0307 38.7484C57.9706 39.1775 57.8891 39.6324 57.8118 40.0658C57.6275 40.881 57.5382 41.7148 57.5458 42.5505C57.5579 42.6402 57.5809 42.7282 57.6144 42.8123C57.63 42.8427 57.6487 42.8715 57.6702 42.8981C57.6702 42.8981 57.6702 42.8981 57.6702 42.8681C57.7666 42.7129 57.8376 42.5435 57.8805 42.366C57.9921 41.9926 58.0822 41.615 58.1809 41.2459C58.2694 40.8787 58.3768 40.5164 58.5027 40.1602C58.5622 39.9839 58.6398 39.8142 58.7345 39.6539C58.7857 39.5665 58.8526 39.4894 58.9319 39.4264C58.975 39.389 59.0265 39.3625 59.0821 39.3492C59.1375 39.3405 59.194 39.3405 59.2494 39.3492C59.308 39.355 59.3639 39.3764 59.4115 39.4111C59.459 39.4458 59.4964 39.4926 59.5198 39.5466C59.5556 39.6368 59.5745 39.7328 59.5756 39.8298C59.5789 40.0034 59.5689 40.177 59.5455 40.3491C59.5069 40.6838 59.4425 41.0013 59.3825 41.3146C59.258 41.9283 59.1207 42.5119 58.9533 43.0311C58.6315 44.0954 58.3096 44.9965 58.0479 45.7304C57.7861 46.4642 57.5629 47.0177 57.4128 47.4125C57.3398 47.5928 57.2797 47.7344 57.2368 47.8417C57.2176 47.9119 57.1902 47.9796 57.1553 48.0434Z" fill="#EB996E"/>
<path d="M33.7266 60.1351C34.5419 63.0146 36.1383 67.4561 37.8505 72.1508C37.9045 72.302 38.0021 72.4338 38.1311 72.5295C38.2601 72.6252 38.4145 72.6805 38.5749 72.6883C38.7353 72.6961 38.8944 72.6561 39.0321 72.5734C39.1697 72.4907 39.2798 72.369 39.3482 72.2237L43.5451 63.345C43.5451 63.345 42.5323 56.0498 42.6181 56.3116C42.704 56.5733 33.9583 57.2557 33.9583 57.2557L33.7266 60.1351Z" fill="#C49C74"/>
<path d="M43.185 58.7072C43.185 58.7415 42.6615 58.896 41.8333 59.2136C40.7509 59.6244 39.7081 60.1329 38.7178 60.7327C37.7288 61.3353 36.7954 62.0246 35.9285 62.7925C35.2633 63.3804 34.8814 63.7838 34.8556 63.7581C34.8299 63.7323 34.9286 63.6379 35.0916 63.4448C35.3215 63.1764 35.565 62.9201 35.8212 62.6766C36.6671 61.8621 37.5995 61.1426 38.6019 60.531C39.6046 59.9268 40.6693 59.4319 41.7775 59.0548C42.1125 58.9394 42.4534 58.842 42.7988 58.763C42.9238 58.7239 43.0542 58.7051 43.185 58.7072V58.7072Z" fill="#FAFAFA"/>
<path d="M44.8485 60.9219C44.5758 60.647 44.3393 60.3384 44.1447 60.0036C43.6436 59.2222 43.2127 58.3979 42.8573 57.5404C42.5017 56.6803 42.2245 55.7898 42.0291 54.8798C41.9291 54.5075 41.8786 54.1237 41.8789 53.7383C42.0069 54.0981 42.1087 54.4667 42.1836 54.8411C42.4135 55.7297 42.7002 56.6027 43.0418 57.4545C43.3988 58.302 43.8087 59.1261 44.2692 59.922C44.4835 60.2426 44.677 60.5766 44.8485 60.9219Z" fill="#263238"/>
<path d="M47.6502 21.6035C46.9221 22.8034 46.4708 24.1506 46.329 25.5469C46.1872 26.9433 46.3585 28.3537 46.8305 29.6754C47.2597 30.8556 47.9463 32.0185 47.8218 33.2716C47.6974 34.5246 46.719 35.7648 47.0623 37.0007C47.2682 37.7345 47.8948 38.2881 48.1394 39.0004C48.4183 39.8587 48.1394 40.7642 47.9892 41.6439C47.6459 43.8925 48.3668 46.154 48.5428 48.4198C48.7187 50.6856 48.1136 53.342 46.0881 54.329C45.4745 54.6293 44.672 54.7152 44.1613 54.256C43.5091 53.6767 43.6893 52.6296 43.8695 51.7713C45.6461 43.1887 40.1576 34.8121 41.4106 26.1265C41.6123 24.7362 42.389 22.3759 43.3889 21.4061C44.3888 20.4363 47.1652 20.5479 48.1093 21.5778" fill="#263238"/>
<path d="M39.1953 46.5032C39.1953 46.5032 39.4571 46.1942 39.8433 45.5849C40.3853 44.7243 40.7649 43.7716 40.9633 42.7741C41.0928 42.0869 41.1375 41.3865 41.0964 40.6885C41.0213 39.8769 40.9912 39.0617 41.0062 38.2467C41.0318 37.8004 41.114 37.3592 41.2508 36.9336C41.4077 36.4952 41.606 36.0727 41.843 35.672C42.3237 34.8609 42.9287 34.1056 43.4866 33.2989C44.0595 32.5364 44.4579 31.6574 44.6538 30.7241C44.749 29.845 44.6982 28.9561 44.5037 28.0935C44.3413 27.2918 44.2779 26.4732 44.3148 25.6561C44.3659 24.9423 44.5102 24.2383 44.744 23.5619C45.0718 22.5805 45.5878 21.6724 46.2631 20.8884C46.4425 20.6753 46.6375 20.4759 46.8467 20.2919C46.913 20.2213 46.988 20.1593 47.0698 20.1074C47.0698 20.1074 46.7823 20.3864 46.3274 20.9657C45.244 22.3105 44.6106 23.9617 44.5165 25.6861C44.4878 26.4899 44.5584 27.2942 44.7268 28.0807C44.9315 28.9664 44.9866 29.8802 44.8899 30.7842C44.6864 31.7436 44.2764 32.6471 43.6883 33.4319C43.1261 34.2515 42.5211 35.0025 42.049 35.7921C41.8168 36.178 41.6242 36.5863 41.474 37.0108C41.3382 37.419 41.256 37.8431 41.2294 38.2725C41.2104 39.0785 41.2333 39.8849 41.298 40.6885C41.3321 41.4006 41.2773 42.1141 41.135 42.8127C40.9199 43.8238 40.512 44.784 39.9334 45.6406C39.7768 45.8722 39.6047 46.093 39.4185 46.3015C39.3517 46.3767 39.2769 46.4443 39.1953 46.5032V46.5032Z" fill="#455A64"/>
<path d="M35.125 47.1426C35.1596 47.0425 35.2041 46.9462 35.258 46.8551C35.3653 46.6534 35.5026 46.3873 35.6872 46.0526C36.0476 45.3531 36.584 44.3361 37.1119 43.0487C37.7575 41.5451 38.1156 39.9338 38.1675 38.2982C38.1678 37.827 38.1319 37.3564 38.0602 36.8907C37.9873 36.41 37.8757 35.9251 37.8028 35.4187C37.7135 34.895 37.7252 34.359 37.8371 33.8396C37.9822 33.3063 38.2806 32.8273 38.6954 32.462C39.5021 31.7282 40.4762 31.2476 40.9826 30.3851C41.4213 29.5298 41.6799 28.5936 41.7422 27.6343C41.833 26.755 42.0319 25.8902 42.3344 25.0596C43.0146 23.2763 44.2265 21.7452 45.806 20.6738C46.0578 20.5044 46.3201 20.351 46.5914 20.2147C46.6829 20.1598 46.7809 20.1166 46.8832 20.0859C46.8832 20.0859 46.4969 20.2919 45.8575 20.7468C44.9563 21.3899 44.1761 22.1875 43.5531 23.1027C43.121 23.7301 42.7693 24.4091 42.506 25.1239C42.2169 25.9565 42.0295 26.8211 41.9482 27.6987C41.8194 28.6128 41.7164 29.6341 41.1671 30.5395C40.6179 31.445 39.6137 31.96 38.8456 32.6852C38.4541 33.0249 38.1719 33.4728 38.0345 33.9726C37.9302 34.464 37.92 34.9707 38.0045 35.466C38.0731 35.9595 38.1804 36.4487 38.2534 36.9336C38.3276 37.4105 38.362 37.8928 38.3563 38.3755C38.298 40.041 37.9207 41.6798 37.2449 43.2032C36.8059 44.2326 36.3073 45.2356 35.7515 46.2071L35.2966 46.8808C35.2488 46.9739 35.1913 47.0616 35.125 47.1426V47.1426Z" fill="#455A64"/>
<path d="M177.114 168.398C177.134 168.336 177.16 168.275 177.191 168.218C177.251 168.089 177.333 167.917 177.431 167.698C177.73 167.028 177.97 166.333 178.148 165.621C178.62 163.776 178.787 160.957 178.088 157.61C177.708 155.784 177.211 153.985 176.599 152.224C175.972 150.314 175.239 148.289 174.642 146.096C173.969 143.809 173.643 141.434 173.677 139.05C173.767 136.557 174.505 134.072 175.316 131.592C176.127 129.111 176.964 126.695 177.213 124.249C177.489 121.903 177.018 119.53 175.865 117.469C174.792 115.491 173.441 113.795 172.432 112.045C171.488 110.418 170.792 108.659 170.368 106.826C169.759 104.173 169.714 101.422 170.235 98.7502C170.425 97.7726 170.712 96.8166 171.093 95.8965C171.082 95.9608 171.064 96.024 171.042 96.0853L170.87 96.6303C170.724 97.1109 170.531 97.8319 170.347 98.7759C169.867 101.436 169.938 104.165 170.557 106.796C170.987 108.607 171.686 110.342 172.629 111.946C173.638 113.662 174.994 115.379 176.093 117.366C177.273 119.469 177.758 121.892 177.479 124.288C177.225 126.768 176.384 129.21 175.573 131.686C174.762 134.162 174.033 136.621 173.943 139.071C173.904 141.431 174.223 143.784 174.887 146.049C175.475 148.229 176.196 150.254 176.818 152.173C177.424 153.943 177.911 155.753 178.277 157.588C178.959 160.961 178.766 163.811 178.277 165.66C178.085 166.373 177.828 167.067 177.509 167.733L177.243 168.243C177.206 168.3 177.163 168.352 177.114 168.398V168.398Z" fill="#263238"/>
<path d="M173.804 113.773C173.804 113.773 171.753 107.203 175.435 103.358C175.463 103.327 175.5 103.305 175.54 103.294C175.581 103.282 175.624 103.282 175.664 103.294C175.705 103.305 175.741 103.328 175.77 103.359C175.798 103.39 175.817 103.429 175.825 103.47C176.023 104.556 176.267 107.86 173.804 113.773Z" fill="#C49C74"/>
<path d="M175.035 105.547C175.028 105.954 174.982 106.359 174.897 106.757C174.76 107.594 174.601 108.572 174.429 109.654C174.258 110.735 174.099 111.718 173.966 112.55C173.929 112.956 173.857 113.358 173.751 113.752C173.711 113.346 173.72 112.937 173.777 112.533C173.846 111.782 173.979 110.752 174.163 109.619C174.348 108.486 174.55 107.474 174.708 106.731C174.771 106.325 174.88 105.928 175.035 105.547Z" fill="#263238"/>
<path d="M176.215 129.27C176.215 129.27 177.472 122.503 182.527 120.829C182.567 120.815 182.61 120.813 182.651 120.822C182.693 120.831 182.73 120.851 182.761 120.881C182.791 120.91 182.812 120.947 182.823 120.988C182.833 121.029 182.832 121.072 182.819 121.112C182.484 122.155 181.158 125.189 176.215 129.27Z" fill="#C49C74"/>
<path d="M181.149 122.566C180.953 122.924 180.723 123.262 180.462 123.575L178.69 125.914L176.931 128.261C176.709 128.602 176.458 128.922 176.18 129.218C176.336 128.84 176.538 128.483 176.78 128.154C177.21 127.523 177.793 126.673 178.497 125.759C179.201 124.845 179.84 124.043 180.325 123.459C180.566 123.132 180.842 122.833 181.149 122.566V122.566Z" fill="#263238"/>
<path d="M174.848 146.233C174.848 146.233 174.085 139.393 178.436 136.325C178.47 136.298 178.51 136.282 178.552 136.278C178.595 136.274 178.637 136.282 178.675 136.302C178.713 136.321 178.745 136.351 178.766 136.388C178.788 136.425 178.798 136.467 178.796 136.509C178.784 137.612 178.393 140.899 174.848 146.233Z" fill="#C49C74"/>
<path d="M177.639 138.393C177.559 138.792 177.437 139.182 177.274 139.556L176.261 142.311C175.884 143.34 175.545 144.272 175.257 145.066C175.147 145.456 175.004 145.837 174.828 146.203C174.868 145.796 174.957 145.395 175.094 145.01C175.304 144.289 175.631 143.293 176.03 142.22C176.429 141.148 176.819 140.182 177.115 139.491C177.252 139.108 177.427 138.74 177.639 138.393V138.393Z" fill="#263238"/>
<path d="M178.659 163.304C178.659 163.304 178.144 156.438 182.598 153.528C182.633 153.504 182.674 153.491 182.716 153.489C182.758 153.487 182.8 153.496 182.837 153.517C182.874 153.537 182.905 153.568 182.926 153.605C182.946 153.642 182.956 153.684 182.954 153.726C182.903 154.829 182.397 158.103 178.659 163.304Z" fill="#C49C74"/>
<path d="M181.712 155.57C181.616 155.967 181.479 156.352 181.304 156.72C180.987 157.501 180.609 158.437 180.193 159.437C179.777 160.437 179.412 161.368 179.094 162.153C178.967 162.541 178.805 162.915 178.609 163.273C178.666 162.867 178.771 162.47 178.923 162.089C179.159 161.376 179.519 160.398 179.957 159.338C180.395 158.278 180.815 157.325 181.137 156.647C181.29 156.269 181.483 155.908 181.712 155.57V155.57Z" fill="#263238"/>
<path d="M170.851 108.003C170.851 108.003 164.766 104.81 164.633 99.4934C164.632 99.4517 164.643 99.4107 164.664 99.3747C164.685 99.3387 164.716 99.309 164.752 99.2888C164.789 99.2686 164.83 99.2586 164.872 99.2599C164.913 99.2611 164.954 99.2736 164.989 99.296C165.894 99.9225 168.409 102.085 170.851 108.003Z" fill="#C49C74"/>
<path d="M165.902 101.32C166.188 101.612 166.443 101.933 166.662 102.277C167.16 102.96 167.739 103.766 168.378 104.655L170.095 107.023C170.356 107.335 170.589 107.67 170.79 108.023C170.476 107.762 170.195 107.464 169.953 107.135C169.468 106.56 168.833 105.736 168.164 104.805C167.494 103.874 166.907 103.011 166.503 102.38C166.267 102.049 166.065 101.694 165.902 101.32V101.32Z" fill="#263238"/>
<path d="M177.401 122.108C177.401 122.108 171.119 119.297 170.677 113.989C170.673 113.947 170.681 113.905 170.7 113.868C170.719 113.831 170.747 113.799 170.783 113.777C170.818 113.755 170.859 113.743 170.901 113.742C170.943 113.742 170.984 113.753 171.02 113.774C171.96 114.345 174.599 116.345 177.401 122.108Z" fill="#C49C74"/>
<path d="M172.062 115.74C172.365 116.013 172.638 116.316 172.878 116.646L174.74 118.916L176.607 121.177C176.887 121.473 177.139 121.794 177.362 122.134C177.033 121.891 176.733 121.61 176.47 121.297C175.955 120.748 175.268 119.967 174.543 119.079C173.818 118.191 173.183 117.362 172.736 116.757C172.475 116.444 172.249 116.103 172.062 115.74V115.74Z" fill="#263238"/>
<path d="M173.777 137.853C173.777 137.853 169.486 132.488 171.49 127.553C171.506 127.515 171.532 127.481 171.566 127.456C171.6 127.431 171.64 127.416 171.681 127.413C171.723 127.409 171.765 127.417 171.802 127.436C171.84 127.455 171.871 127.484 171.894 127.519C172.49 128.45 173.919 131.437 173.777 137.853Z" fill="#C49C74"/>
<path d="M171.922 129.734C172.069 130.116 172.175 130.511 172.24 130.914C172.42 131.738 172.63 132.708 172.862 133.781C173.094 134.854 173.313 135.819 173.493 136.643C173.608 137.034 173.687 137.435 173.729 137.841C173.54 137.476 173.396 137.09 173.3 136.691C173.089 135.965 172.832 134.974 172.592 133.833C172.351 132.691 172.163 131.687 172.042 130.949C171.958 130.55 171.918 130.142 171.922 129.734V129.734Z" fill="#263238"/>
<path d="M178.069 156.353C178.069 156.353 171.833 153.439 171.482 148.127C171.477 148.084 171.485 148.042 171.504 148.003C171.523 147.965 171.552 147.933 171.588 147.911C171.625 147.889 171.666 147.877 171.709 147.877C171.751 147.877 171.793 147.889 171.829 147.912C172.752 148.5 175.357 150.547 178.069 156.353Z" fill="#C49C74"/>
<path d="M172.82 149.895C173.115 150.176 173.382 150.485 173.619 150.817L175.442 153.113L177.27 155.409C177.545 155.709 177.792 156.034 178.008 156.379C177.689 156.128 177.401 155.84 177.15 155.52C176.64 154.963 175.97 154.169 175.258 153.267C174.545 152.366 173.927 151.53 173.49 150.916C173.228 150.603 173.003 150.26 172.82 149.895V149.895Z" fill="#263238"/>
<path d="M190.476 129.299C190.476 129.299 190.476 129.35 190.476 129.449C190.476 129.548 190.476 129.711 190.476 129.878C190.476 130.307 190.433 130.852 190.403 131.547C190.326 133.015 190.21 135.062 190.077 137.508C189.648 139.997 188.36 142.756 186.644 145.438C185.395 147.412 184.069 149.206 182.953 150.875C181.935 152.34 181.02 153.875 180.215 155.467C179.683 156.543 179.252 157.667 178.928 158.823C178.821 159.231 178.735 159.552 178.688 159.771C178.667 159.885 178.637 159.997 178.598 160.106C178.599 159.99 178.614 159.875 178.641 159.763C178.671 159.54 178.735 159.213 178.834 158.797C179.122 157.621 179.532 156.478 180.057 155.386C180.854 153.781 181.768 152.236 182.79 150.764C183.915 149.082 185.215 147.284 186.459 145.323C188.154 142.653 189.416 139.937 189.892 137.487C190.064 135.045 190.206 133.002 190.321 131.535C190.377 130.839 190.424 130.286 190.459 129.87C190.459 129.698 190.489 129.552 190.502 129.44C190.487 129.395 190.478 129.347 190.476 129.299V129.299Z" fill="#263238"/>
<path d="M186.764 144.944C186.764 144.944 189.404 138.593 186.086 134.426C186.061 134.393 186.026 134.368 185.987 134.353C185.947 134.338 185.904 134.334 185.863 134.342C185.822 134.35 185.783 134.369 185.752 134.398C185.721 134.427 185.699 134.463 185.687 134.504C185.391 135.568 184.846 138.834 186.764 144.944Z" fill="#C49C74"/>
<path d="M186.282 136.646C186.396 137.038 186.467 137.441 186.493 137.848C186.587 138.595 186.69 139.629 186.772 140.775C186.853 141.92 186.892 142.959 186.892 143.714C186.918 144.122 186.893 144.531 186.819 144.933C186.745 144.532 186.709 144.126 186.712 143.719C186.656 142.86 186.587 141.886 186.514 140.792C186.441 139.698 186.373 138.706 186.313 137.865C186.263 137.461 186.252 137.053 186.282 136.646V136.646Z" fill="#263238"/>
<g opacity="0.3">
<path opacity="0.3" d="M186.764 144.944C186.764 144.944 189.404 138.593 186.086 134.426C186.061 134.393 186.026 134.368 185.987 134.353C185.947 134.338 185.904 134.334 185.863 134.342C185.822 134.35 185.783 134.369 185.752 134.398C185.721 134.427 185.699 134.463 185.687 134.504C185.391 135.568 184.846 138.834 186.764 144.944Z" fill="black"/>
</g>
<path d="M178.588 160.262C178.588 160.262 180.704 153.713 177.056 149.834C177.028 149.803 176.992 149.78 176.951 149.769C176.911 149.757 176.869 149.757 176.828 149.768C176.788 149.779 176.751 149.801 176.723 149.832C176.694 149.862 176.674 149.9 176.666 149.941C176.46 151.022 176.181 154.327 178.588 160.262Z" fill="#C49C74"/>
<path d="M177.434 152.014C177.582 152.395 177.686 152.793 177.743 153.198C177.897 153.932 178.082 154.958 178.258 156.09C178.433 157.223 178.554 158.258 178.618 159.008C178.674 159.414 178.681 159.824 178.639 160.232C178.538 159.837 178.469 159.435 178.433 159.03C178.309 158.193 178.163 157.215 178.004 156.129C177.846 155.043 177.691 154.065 177.575 153.228C177.488 152.829 177.441 152.422 177.434 152.014Z" fill="#263238"/>
<g opacity="0.3">
<path opacity="0.3" d="M178.584 160.262C178.584 160.262 180.7 153.713 177.052 149.834C177.024 149.803 176.988 149.78 176.948 149.769C176.907 149.757 176.865 149.757 176.824 149.768C176.784 149.779 176.747 149.801 176.719 149.832C176.69 149.862 176.67 149.9 176.662 149.941C176.456 151.022 176.177 154.327 178.584 160.262Z" fill="black"/>
</g>
<path d="M190.129 137.183C190.129 137.183 195.763 133.235 195.197 127.94C195.193 127.898 195.177 127.859 195.151 127.826C195.126 127.792 195.092 127.767 195.053 127.752C195.014 127.737 194.971 127.733 194.93 127.74C194.889 127.747 194.851 127.766 194.819 127.794C194 128.532 191.803 130.987 190.129 137.183Z" fill="#C49C74"/>
<g opacity="0.3">
<path opacity="0.3" d="M190.129 137.183C190.129 137.183 195.763 133.235 195.197 127.94C195.193 127.898 195.177 127.859 195.151 127.826C195.126 127.792 195.092 127.767 195.053 127.752C195.014 127.737 194.971 127.733 194.93 127.74C194.889 127.747 194.851 127.766 194.819 127.794C194 128.532 191.803 130.987 190.129 137.183Z" fill="black"/>
</g>
<path d="M194.174 129.918C194.063 130.311 193.906 130.69 193.707 131.047C193.385 131.725 192.917 132.652 192.372 133.664C191.827 134.677 191.304 135.574 190.9 136.209C190.702 136.566 190.461 136.897 190.184 137.196C190.334 136.818 190.521 136.456 190.741 136.115C191.145 135.372 191.621 134.505 192.145 133.54L193.544 130.965C193.719 130.596 193.931 130.246 194.174 129.918Z" fill="#263238"/>
<path d="M180.863 153.77C180.863 153.77 187.661 152.71 189.48 147.706C189.495 147.667 189.499 147.625 189.491 147.584C189.483 147.543 189.464 147.505 189.436 147.474C189.409 147.443 189.373 147.42 189.333 147.408C189.293 147.396 189.25 147.395 189.21 147.406C188.15 147.723 185.077 148.946 180.863 153.77Z" fill="#C49C74"/>
<g opacity="0.3">
<path opacity="0.3" d="M180.863 153.77C180.863 153.77 187.661 152.71 189.48 147.706C189.495 147.667 189.499 147.625 189.491 147.584C189.483 147.543 189.464 147.505 189.436 147.474C189.409 147.443 189.373 147.42 189.333 147.408C189.293 147.396 189.25 147.395 189.21 147.406C188.15 147.723 185.077 148.946 180.863 153.77Z" fill="black"/>
</g>
<path d="M187.695 149.031C187.42 149.332 187.112 149.601 186.777 149.834C186.189 150.306 185.361 150.932 184.43 151.602C183.499 152.271 182.627 152.842 181.984 153.237C181.648 153.471 181.285 153.663 180.902 153.807C181.207 153.536 181.536 153.293 181.885 153.082L184.28 151.391L186.67 149.675C186.988 149.425 187.332 149.209 187.695 149.031V149.031Z" fill="#263238"/>
<path d="M174.373 166.281L172.391 179.627H184.75L183.149 166.281H174.373Z" fill="#455A64"/>
<path d="M183.648 170.414C183.648 170.486 181.417 170.542 178.666 170.542C175.915 170.542 173.68 170.486 173.68 170.414C175.339 170.286 177.003 170.243 178.666 170.285C180.328 170.243 181.991 170.286 183.648 170.414V170.414Z" fill="#263238"/>
<path d="M183.889 171.48C183.889 171.553 181.585 171.609 178.739 171.609C175.894 171.609 173.59 171.553 173.59 171.48C173.59 171.407 175.894 171.352 178.739 171.352C181.585 171.352 183.889 171.407 183.889 171.48Z" fill="#263238"/>
<path d="M135.828 36.8123C135.828 36.8123 135.712 36.8123 135.489 36.8123C135.163 36.793 134.836 36.793 134.51 36.8123C133.25 36.8861 132.012 37.1764 130.85 37.6706C129.008 38.4425 127.406 39.6912 126.207 41.2881C125.468 42.2853 124.918 43.4096 124.585 44.6053C123.834 47.4535 124.239 50.4832 125.713 53.0334C126.115 53.7395 126.605 54.3913 127.172 54.9731C127.744 55.5894 128.411 56.1109 129.146 56.518C129.901 56.9428 130.756 57.1577 131.622 57.1402C132.515 57.1295 133.372 56.7833 134.021 56.1704C134.335 55.8414 134.581 55.4538 134.746 55.0296C134.91 54.6055 134.989 54.1532 134.978 53.6986C134.972 52.754 134.672 51.8347 134.12 51.068C133.008 49.5017 131.206 48.4503 129.288 47.8839C127.299 47.3252 125.198 47.2956 123.194 47.798C122.171 48.0641 121.185 48.4562 120.259 48.9653C119.324 49.493 118.474 50.1601 117.74 50.9436C117.564 51.1452 117.362 51.3298 117.204 51.5529L116.719 52.2052C116.424 52.6648 116.16 53.1437 115.929 53.6385C115.47 54.6431 115.156 55.7081 114.998 56.8012C114.686 58.9849 114.983 61.2123 115.856 63.2381C116.69 65.2176 118.143 66.8737 119.997 67.9586C120.896 68.4722 121.9 68.7758 122.932 68.8469C123.945 68.9035 124.952 68.6618 125.829 68.1517C126.699 67.6707 127.387 66.9167 127.786 66.006C128.162 65.1085 128.188 64.1024 127.859 63.1866C127.52 62.303 126.965 61.5183 126.245 60.9037C125.547 60.3004 124.742 59.8331 123.872 59.5262C122.175 58.9911 120.36 58.9598 118.645 59.436C117.041 59.8707 115.568 60.6913 114.354 61.8263C113.248 62.8856 112.406 64.1892 111.895 65.6327C111.001 68.1372 111.042 70.8804 112.011 73.357C112.767 75.2059 113.982 76.8309 115.543 78.0774C116.526 78.8658 117.621 79.5037 118.791 79.9699C119.195 80.1201 119.508 80.2317 119.723 80.2918L120.04 80.3947C120.04 80.3947 119.929 80.3733 119.714 80.3132C119.397 80.2284 119.085 80.1266 118.778 80.0085C117.592 79.5628 116.483 78.9344 115.491 78.1461C113.904 76.9004 112.665 75.2675 111.891 73.4042C110.905 70.9042 110.855 68.1324 111.749 65.5983C112.261 64.133 113.113 62.8096 114.234 61.7362C115.465 60.5784 116.96 59.7388 118.59 59.2901C120.34 58.8018 122.194 58.8316 123.928 59.376C124.824 59.6883 125.652 60.1674 126.37 60.7878C127.118 61.4225 127.693 62.2358 128.043 63.1523C128.396 64.1091 128.381 65.1629 128 66.109C127.577 67.0556 126.859 67.8398 125.954 68.3448C125.044 68.8746 124.001 69.1281 122.95 69.0743C121.892 69.0005 120.864 68.6864 119.946 68.156C118.049 67.0559 116.56 65.3712 115.702 63.354C114.81 61.291 114.504 59.0223 114.818 56.7969C114.981 55.6817 115.302 54.5952 115.77 53.5698C116.006 53.0645 116.276 52.5756 116.577 52.1065L117.075 51.4413C117.234 51.2139 117.44 51.0122 117.62 50.8148C118.371 50.0165 119.24 49.3365 120.195 48.7979C121.143 48.2791 122.152 47.8812 123.199 47.6135C125.241 47.1017 127.381 47.1328 129.408 47.7036C131.365 48.2872 133.197 49.3558 134.352 50.9779C134.932 51.7766 135.247 52.7371 135.253 53.7243C135.274 54.6958 134.908 55.6359 134.236 56.3377C133.549 56.9822 132.646 57.3452 131.704 57.3548C130.803 57.3752 129.913 57.1513 129.129 56.7068C128.376 56.2911 127.695 55.7564 127.112 55.1233C126.538 54.5285 126.04 53.8638 125.632 53.145C124.131 50.5474 123.724 47.4603 124.499 44.5624C124.842 43.3529 125.405 42.2168 126.16 41.2109C127.38 39.6018 129.011 38.3496 130.88 37.5847C132.051 37.1001 133.299 36.827 134.566 36.778C134.895 36.7563 135.225 36.7563 135.553 36.778L135.828 36.8123Z" fill="#263238"/>
<path d="M150.157 79.752H89.9883V126.158H150.157V79.752Z" fill="#C49C74"/>
<path d="M89.9883 79.752L101.103 90.1197H160.25L150.157 79.752H89.9883Z" fill="#C49C74"/>
<path d="M89.9883 79.7518L150.174 79.6445H150.221L150.255 79.6746L160.245 89.9351L160.348 90.0423L160.533 90.2312H160.267L101.12 90.184H101.094L89.9883 79.7518L101.146 90.0509H101.098L160.245 90.008L160.168 90.1968L160.061 90.0896L150.075 79.8291L150.152 79.8634L89.9883 79.7518Z" fill="#263238"/>
<path d="M108.063 101.152C107.737 101.164 107.428 101.303 107.204 101.54C106.98 101.777 106.858 102.092 106.863 102.419C106.869 102.745 107.003 103.055 107.236 103.284C107.468 103.512 107.782 103.64 108.108 103.64C108.434 103.64 108.747 103.512 108.98 103.284C109.212 103.055 109.346 102.745 109.352 102.419C109.358 102.092 109.236 101.777 109.011 101.54C108.787 101.303 108.479 101.164 108.153 101.152" fill="#263238"/>
<path d="M122.279 101.152C121.954 101.165 121.648 101.304 121.424 101.54C121.201 101.776 121.08 102.09 121.086 102.415C121.092 102.74 121.226 103.049 121.458 103.277C121.689 103.504 122.001 103.632 122.326 103.632C122.651 103.632 122.963 103.504 123.195 103.277C123.427 103.049 123.56 102.74 123.566 102.415C123.572 102.09 123.451 101.776 123.228 101.54C123.005 101.304 122.698 101.165 122.373 101.152" fill="#263238"/>
<path d="M122.364 112.259C122.115 111.311 121.712 110.41 121.171 109.594C120.568 108.721 119.794 107.979 118.896 107.414C117.813 106.695 116.549 106.295 115.25 106.259C113.95 106.223 112.666 106.554 111.545 107.212C110.619 107.729 109.806 108.427 109.155 109.263C108.568 110.05 108.117 110.929 107.82 111.864C107.824 111.794 107.835 111.725 107.855 111.658C107.896 111.464 107.949 111.274 108.013 111.087C108.249 110.398 108.592 109.75 109.03 109.169C109.677 108.293 110.5 107.562 111.446 107.023C112.597 106.337 113.918 105.992 115.257 106.028C116.596 106.064 117.897 106.481 119.008 107.229C119.921 107.816 120.702 108.588 121.299 109.495C121.707 110.1 122.015 110.767 122.213 111.469C122.266 111.66 122.308 111.853 122.338 112.048C122.353 112.118 122.361 112.188 122.364 112.259V112.259Z" fill="#263238"/>
<path opacity="0.5" d="M90.1211 80.2617L100.764 93.7536H150.152V90.1188H101.098L90.1211 80.2617Z" fill="black"/>
<path d="M138.287 126.055C138.227 126.055 138.176 117.983 138.176 108.031C138.176 98.0797 138.227 90.0078 138.287 90.0078C138.347 90.0078 138.403 98.0755 138.403 108.031C138.403 117.987 138.352 126.055 138.287 126.055Z" fill="#263238"/>
<path d="M147.742 115.533H142.438V121.528H147.742V115.533Z" fill="#F5F5F5"/>
<path d="M89.9871 79.752L77.6367 90.1197H89.9871V79.752Z" fill="#C49C74"/>
<g opacity="0.4">
<path opacity="0.4" d="M89.9871 79.752L77.6367 90.1197H89.9871V79.752Z" fill="black"/>
</g>
<path d="M151.934 126.156H82.7539V179.514H151.934V126.156Z" fill="#C49C74"/>
<path opacity="0.3" d="M151.934 126.156H82.7539V179.514H151.934V126.156Z" fill="black"/>
<path d="M134.6 179.138C134.54 179.138 134.488 167.246 134.488 152.579C134.488 137.911 134.54 126.016 134.6 126.016C134.66 126.016 134.711 137.907 134.711 152.579C134.711 167.251 134.66 179.138 134.6 179.138Z" fill="#263238"/>
<path d="M146.066 167.371H140.762V173.366H146.066V167.371Z" fill="#F5F5F5"/>
<path d="M111.713 126.299H103.855V137.684H111.713V126.299Z" fill="#263238"/>
<path d="M111.713 167.971H103.855V179.356H111.713V167.971Z" fill="#263238"/>
<path d="M151.333 126.158H151.153H150.634L148.638 126.18L141.287 126.214L117.046 126.27L92.7955 126.24L85.4488 126.205L83.4534 126.184H82.9299H82.7539H82.9299H83.4534L85.4488 126.162L92.7955 126.128L117.046 126.094L141.287 126.128L148.638 126.162L150.634 126.184H151.153L151.333 126.158Z" fill="#263238"/>
<path d="M32.776 33.7772L25.2405 31.9234H25.2962C23.3505 33.161 21.1006 33.8368 18.7949 33.8759C17.4299 33.8821 16.0717 33.684 14.7654 33.288C12.4687 32.5506 10.4312 31.1711 8.8936 29.3126C7.35599 27.4541 6.38257 25.1942 6.08838 22.8001C5.85733 20.9894 6.02742 19.1501 6.58659 17.4125C7.14576 15.6749 8.08032 14.0816 9.32402 12.7456C9.9778 12.0275 10.7105 11.3854 11.5083 10.8317C11.9117 10.5785 12.3151 10.3167 12.7356 10.0978L13.375 9.78887L13.6926 9.63439L14.0273 9.51423C15.7504 8.8463 17.5989 8.56361 19.4429 8.68601C21.9142 8.84647 24.2828 9.73491 26.25 11.2393C28.2172 12.7438 29.6951 14.7969 30.4973 17.1399C30.943 18.4505 31.1776 19.8237 31.1925 21.208C31.2032 23.5086 30.578 25.7674 29.3858 27.7351V27.6664C31.48 31.4471 32.5357 33.3567 32.7717 33.7772C32.5271 33.3481 31.4328 31.4728 29.2657 27.7308V27.6965V27.6621C30.415 25.7135 31.0087 23.4873 30.9822 21.2252C30.9623 19.863 30.7247 18.5128 30.2784 17.2257C29.4849 14.9306 28.032 12.9206 26.1015 11.4474C24.1711 9.97416 21.8489 9.10318 19.4257 8.94349C17.618 8.82567 15.8064 9.10393 14.1174 9.75883L13.7913 9.8747L13.478 10.0292L12.8515 10.3296C12.4223 10.5484 12.0447 10.8016 11.6456 11.0505C10.8632 11.5894 10.1436 12.2141 9.49997 12.9129C8.27901 14.2245 7.3613 15.7885 6.81179 17.4941C6.26229 19.1997 6.09444 21.0053 6.32011 22.7829C6.71796 26.0397 8.38884 29.0066 10.9676 31.0351C12.1205 31.9486 13.4289 32.6464 14.8298 33.0949C16.1126 33.4915 17.4479 33.6926 18.7906 33.6914C21.0686 33.667 23.2959 33.0152 25.2276 31.8075H25.2533H25.3005L32.776 33.7772Z" fill="#263238"/>
<path d="M17.5762 15.6803L17.9581 21.9885C17.9734 22.2373 18.0791 22.4719 18.2553 22.6482C18.4316 22.8245 18.6663 22.9302 18.9151 22.9454C19.1769 22.9602 19.4344 22.8742 19.6348 22.705C19.8351 22.5358 19.963 22.2963 19.9922 22.0357L20.6917 15.7146C20.7039 15.6015 20.6919 15.4871 20.6565 15.379C20.6211 15.2709 20.5631 15.1716 20.4864 15.0876C20.4097 15.0036 20.3161 14.9368 20.2116 14.8918C20.1072 14.8467 19.9944 14.8244 19.8806 14.8263H18.3486C18.2411 14.8295 18.1354 14.8544 18.0377 14.8995C17.9401 14.9446 17.8526 15.0089 17.7804 15.0887C17.7083 15.1684 17.653 15.262 17.6179 15.3636C17.5828 15.4653 17.5686 15.573 17.5762 15.6803V15.6803Z" fill="#C49C74"/>
<path d="M20.5797 26.4692C20.4837 26.7574 20.3044 27.0106 20.0645 27.1969C19.8246 27.3832 19.5348 27.4942 19.2319 27.5159C18.9289 27.5376 18.6263 27.469 18.3623 27.3187C18.0983 27.1685 17.8848 26.9434 17.7487 26.6718C17.6127 26.4003 17.5601 26.0945 17.5978 25.7931C17.6355 25.4917 17.7616 25.2082 17.9603 24.9785C18.1591 24.7487 18.4214 24.5831 18.7143 24.5024C19.0071 24.4218 19.3173 24.4297 19.6056 24.5253C19.7973 24.5888 19.9746 24.6895 20.1273 24.8217C20.28 24.9538 20.4052 25.1147 20.4957 25.2953C20.5862 25.4758 20.6402 25.6725 20.6546 25.8739C20.669 26.0753 20.6436 26.2776 20.5797 26.4692Z" fill="#C49C74"/>
</svg>
