<svg width="32" height="32" viewBox="0 0 32 32" fill="none" xmlns="http://www.w3.org/2000/svg">
<path d="M3.12109 15.9997L2.33947 15.3759L1.84171 15.9997L2.33947 16.6234L3.12109 15.9997ZM14.5949 16.9997C15.1472 16.9997 15.5949 16.5519 15.5949 15.9997C15.5949 15.4474 15.1472 14.9997 14.5949 14.9997V16.9997ZM7.43895 8.98563L2.33947 15.3759L3.90272 16.6234L9.0022 10.2331L7.43895 8.98563ZM2.33947 16.6234L7.43895 23.0137L9.0022 21.7662L3.90272 15.3759L2.33947 16.6234ZM3.12109 16.9997H14.5949V14.9997H3.12109V16.9997Z" fill="#CCD2E3"/>
<path d="M13.794 25.8226L14.5572 25.1764L13.794 25.8226ZM27.5574 27.5265L28.2036 28.2896L27.5574 27.5265ZM21.63 4.38646L21.7948 5.37278L21.63 4.38646ZM27.5574 4.47213L28.2036 3.70898L27.5574 4.47213ZM16.6611 5.21667L16.4963 4.23034L16.6611 5.21667ZM16.8259 6.203L21.7948 5.37278L21.4652 3.40013L16.4963 4.23034L16.8259 6.203ZM27.6188 10.3044V21.6942H29.6188V10.3044H27.6188ZM21.7948 26.6258L16.8259 25.7956L16.4963 27.7683L21.4652 28.5985L21.7948 26.6258ZM14.3203 11.0557V9.16198H12.3203V11.0557H14.3203ZM14.3203 22.8366V21.1958H12.3203V22.8366H14.3203ZM16.8259 25.7956C16.0028 25.6581 15.477 25.5684 15.0925 25.4538C14.7348 25.3471 14.6211 25.2519 14.5572 25.1764L13.0309 26.4688C13.4406 26.9527 13.9626 27.2039 14.5211 27.3704C15.0529 27.5289 15.7238 27.6392 16.4963 27.7683L16.8259 25.7956ZM12.3203 22.8366C12.3203 23.6198 12.3185 24.2997 12.3872 24.8504C12.4594 25.4287 12.6211 25.9849 13.0309 26.4688L14.5572 25.1764C14.4932 25.1009 14.4181 24.973 14.3718 24.6026C14.3221 24.2045 14.3203 23.6712 14.3203 22.8366H12.3203ZM27.6188 21.6942C27.6188 23.3693 27.6164 24.5183 27.496 25.3662C27.3796 26.1863 27.1752 26.5397 26.9112 26.7633L28.2036 28.2896C29.001 27.6145 29.3273 26.6962 29.4762 25.6472C29.6211 24.6259 29.6188 23.3081 29.6188 21.6942H27.6188ZM21.4652 28.5985C23.0571 28.8644 24.3564 29.084 25.3877 29.1093C26.4469 29.1353 27.4063 28.9648 28.2036 28.2896L26.9112 26.7633C26.6472 26.9869 26.2649 27.1302 25.4368 27.1099C24.5807 27.0889 23.447 26.9019 21.7948 26.6258L21.4652 28.5985ZM21.7948 5.37278C23.447 5.09673 24.5807 4.90973 25.4368 4.88871C26.2649 4.86838 26.6472 5.01172 26.9112 5.23528L28.2036 3.70898C27.4063 3.03383 26.4469 2.86331 25.3877 2.88932C24.3564 2.91463 23.0571 3.13415 21.4652 3.40013L21.7948 5.37278ZM29.6188 10.3044C29.6188 8.69046 29.6211 7.3727 29.4762 6.35136C29.3273 5.30235 29.001 4.38414 28.2036 3.70898L26.9112 5.23528C27.1752 5.45885 27.3796 5.81225 27.496 6.63245C27.6164 7.48031 27.6188 8.62934 27.6188 10.3044H29.6188ZM16.4963 4.23034C15.7238 4.35941 15.0529 4.46967 14.5211 4.6282C13.9626 4.7947 13.4406 5.04586 13.0309 5.52976L14.5572 6.8222C14.6211 6.74668 14.7348 6.65148 15.0925 6.54484C15.477 6.43021 16.0028 6.34053 16.8259 6.203L16.4963 4.23034ZM14.3203 9.16198C14.3203 8.32744 14.3221 7.79408 14.3718 7.39598C14.4181 7.02557 14.4932 6.89772 14.5572 6.8222L13.0309 5.52976C12.6211 6.01365 12.4594 6.56994 12.3872 7.14825C12.3185 7.69885 12.3203 8.37879 12.3203 9.16198H14.3203Z" fill="#CCD2E3"/>
</svg>
