<svg width="47" height="47" viewBox="0 0 47 47" fill="none" xmlns="http://www.w3.org/2000/svg">
<path d="M10.4062 24.8423C10.4062 22.2394 10.4062 20.9379 10.9311 19.7939C11.456 18.65 12.4416 17.803 14.413 16.109L16.3253 14.4658C19.8886 11.404 21.6702 9.87305 23.7924 9.87305C25.9146 9.87305 27.6962 11.404 31.2595 14.4658L33.1718 16.109C35.1431 17.803 36.1288 18.65 36.6537 19.7939C37.1785 20.9379 37.1785 22.2394 37.1785 24.8423V32.9715C37.1785 36.5864 37.1785 38.3939 36.0583 39.5169C34.9381 40.6399 33.1352 40.6399 29.5293 40.6399H18.0555C14.4496 40.6399 12.6467 40.6399 11.5265 39.5169C10.4062 38.3939 10.4062 36.5864 10.4062 32.9715V24.8423Z" stroke="#CCD2E3" stroke-width="2"/>
<path d="M28.5732 40.6392V30.1367C28.5732 29.5844 28.1255 29.1367 27.5732 29.1367H20.0117C19.4594 29.1367 19.0117 29.5844 19.0117 30.1367V40.6392" stroke="#CCD2E3" stroke-width="2" stroke-linecap="round" stroke-linejoin="round"/>
</svg>
