<svg width="32" height="32" viewBox="0 0 32 32" fill="none" xmlns="http://www.w3.org/2000/svg">
<path d="M20.1188 19.8328V18.8328H19.1188V19.8328H20.1188ZM27.06 28.2073C27.45 28.5983 28.0832 28.5991 28.4742 28.2091C28.8652 27.819 28.866 27.1859 28.476 26.7949L27.06 28.2073ZM20.1188 12.1644H19.1188V13.1644H20.1188V12.1644ZM28.476 5.20232C28.866 4.81131 28.8652 4.17814 28.4742 3.78811C28.0832 3.39807 27.45 3.39886 27.06 3.78987L28.476 5.20232ZM12.4695 19.8328H13.4695V18.8328H12.4695V19.8328ZM4.11232 26.7949C3.72229 27.1859 3.72308 27.819 4.11409 28.2091C4.5051 28.5991 5.13826 28.5983 5.5283 28.2073L4.11232 26.7949ZM12.4695 12.1644V13.1644H13.4695V12.1644H12.4695ZM5.5283 3.78987C5.13826 3.39886 4.5051 3.39807 4.11409 3.78811C3.72308 4.17814 3.72229 4.81131 4.11232 5.20232L5.5283 3.78987ZM21.1188 26.223V19.8328H19.1188V26.223H21.1188ZM20.1188 20.8328H26.4931V18.8328H20.1188V20.8328ZM19.4108 20.539L27.06 28.2073L28.476 26.7949L20.8267 19.1265L19.4108 20.539ZM19.1188 5.77415V12.1644H21.1188V5.77415H19.1188ZM20.1188 13.1644H26.4931V11.1644H20.1188V13.1644ZM20.8267 12.8706L28.476 5.20232L27.06 3.78987L19.4108 11.4582L20.8267 12.8706ZM13.4695 26.223V19.8328H11.4695V26.223H13.4695ZM12.4695 18.8328H6.09518V20.8328H12.4695V18.8328ZM11.7615 19.1265L4.11232 26.7949L5.5283 28.2073L13.1775 20.539L11.7615 19.1265ZM11.4695 5.77415V12.1644H13.4695V5.77415H11.4695ZM12.4695 11.1644H6.09518V13.1644H12.4695V11.1644ZM13.1775 11.4582L5.5283 3.78987L4.11232 5.20232L11.7615 12.8706L13.1775 11.4582Z" fill="#CCD2E3"/>
</svg>
