<svg width="24" height="24" viewBox="0 0 24 24" fill="none" xmlns="http://www.w3.org/2000/svg">
<path d="M21.71 10.1201L13.88 2.29007C13.7485 2.15781 13.5826 2.06495 13.4011 2.022C13.2197 1.97905 13.0298 1.9877 12.8529 2.04699C12.6761 2.10628 12.5194 2.21384 12.4005 2.35752C12.2816 2.5012 12.2052 2.67527 12.18 2.86007L11.45 8.00007L9.45 10.0001L9.12 9.81007C8.90469 9.70538 8.65896 9.68142 8.42748 9.74253C8.196 9.80364 7.99413 9.94577 7.85854 10.1431C7.72296 10.3404 7.66267 10.5798 7.68863 10.8178C7.71459 11.0558 7.82507 11.2766 8 11.4401L6.85 12.6101L6.52 12.4201C6.30523 12.3214 6.06247 12.3021 5.83477 12.3654C5.60708 12.4287 5.40916 12.5706 5.27614 12.766C5.14312 12.9613 5.08358 13.1975 5.10808 13.4325C5.13258 13.6676 5.23955 13.8864 5.41 14.0501L4.24 15.2101L3.92 15.0001C3.80587 14.934 3.67978 14.8911 3.549 14.8739C3.41822 14.8567 3.28534 14.8656 3.158 14.8999C3.03066 14.9343 2.91138 14.9936 2.80703 15.0743C2.70268 15.155 2.61533 15.2555 2.55 15.3701C2.43706 15.576 2.40022 15.8151 2.44593 16.0455C2.49165 16.2759 2.61699 16.4828 2.8 16.6301L2.29 17.1401C2.1974 17.2339 2.12581 17.3464 2.08 17.4701C2.02876 17.5903 2.00158 17.7194 2 17.8501V21.0001C2 21.2653 2.10536 21.5196 2.29289 21.7072C2.48043 21.8947 2.73478 22.0001 3 22.0001H6.13C6.26068 21.9985 6.38978 21.9713 6.51 21.9201C6.63364 21.8743 6.74613 21.8027 6.84 21.7101L8.54 20.0001L8.87 20.1901C8.98354 20.2566 9.10909 20.3001 9.23946 20.318C9.36983 20.3359 9.50246 20.3279 9.62973 20.2945C9.757 20.261 9.87643 20.2028 9.98115 20.1231C10.0859 20.0434 10.1738 19.9438 10.24 19.8301C10.3567 19.6242 10.3967 19.3836 10.3527 19.1511C10.3088 18.9185 10.1838 18.7091 10 18.5601L11.17 17.4001L11.5 17.5901C11.6495 17.6748 11.8182 17.7195 11.99 17.7201C12.1814 17.7028 12.3638 17.6308 12.5153 17.5126C12.6669 17.3943 12.7811 17.235 12.8444 17.0535C12.9077 16.872 12.9174 16.6761 12.8723 16.4893C12.8272 16.3025 12.7292 16.1326 12.59 16.0001L13.76 14.8401L14.09 15.0301C14.2395 15.1148 14.4082 15.1595 14.58 15.1601C14.7842 15.1564 14.9824 15.0903 15.1479 14.9707C15.3135 14.851 15.4384 14.6836 15.5059 14.4908C15.5734 14.2981 15.5803 14.0892 15.5256 13.8925C15.4709 13.6957 15.3573 13.5203 15.2 13.3901L15.99 12.6001L21.14 11.8701C21.3251 11.8438 21.4991 11.7661 21.6423 11.6459C21.7854 11.5257 21.892 11.3678 21.95 11.1901C22.0186 11.0077 22.0324 10.8093 21.9897 10.6192C21.9471 10.4292 21.8499 10.2557 21.71 10.1201ZM5.72 20.0001H4V18.2801L4.57 17.7101L6.75 19.0001L5.72 20.0001ZM8.21 17.5001L6 16.2501L7.14 15.1101L9.31 16.3601L8.21 17.5001ZM10.82 14.9001L8.64 13.6401L9.79 12.5001L12 13.7501L10.82 14.9001ZM13.43 12.2901L11.25 11.0001L12.39 9.86007L14.11 11.5801L13.43 12.2901ZM15.88 10.5501L13.45 8.12007L13.88 5.12007L18.88 10.1201L15.88 10.5501Z" fill="black"/>
</svg>
