<svg width="24" height="24" viewBox="0 0 24 24" fill="none" xmlns="http://www.w3.org/2000/svg">
<path d="M20.9999 2H18.9999H18.9099H18.6999L18.5399 2.07L18.3699 2.18C18.3218 2.21819 18.2781 2.26181 18.2399 2.31C18.2008 2.3595 18.1673 2.41316 18.1399 2.47C18.105 2.52599 18.0781 2.58657 18.0599 2.65V2.74L17.3799 6H16.2399L13.1199 2.89C12.55 2.34243 11.7903 2.03663 10.9999 2.03663C10.2096 2.03663 9.44989 2.34243 8.87995 2.89L5.75995 6H2.99995C2.82374 5.9993 2.65047 6.04517 2.49769 6.13298C2.34491 6.22078 2.21805 6.3474 2.12995 6.5C2.04218 6.65202 1.99597 6.82446 1.99597 7C1.99597 7.17554 2.04218 7.34798 2.12995 7.5L6.12995 14.5L5.35995 16C5.24015 15.9902 5.11974 15.9902 4.99995 16C4.4066 16 3.82658 16.1759 3.33324 16.5056C2.83989 16.8352 2.45537 17.3038 2.22831 17.8519C2.00124 18.4001 1.94183 19.0033 2.05759 19.5853C2.17335 20.1672 2.45907 20.7018 2.87863 21.1213C3.29818 21.5409 3.83273 21.8266 4.41468 21.9424C4.99662 22.0581 5.59982 21.9987 6.148 21.7716C6.69617 21.5446 7.16471 21.1601 7.49435 20.6667C7.824 20.1734 7.99995 19.5933 7.99995 19C7.99677 18.2227 7.69204 17.477 7.14995 16.92L8.14995 14.92L9.52995 14.78L13.4699 20.69C13.7454 21.1056 14.1223 21.444 14.565 21.6732C15.0077 21.9024 15.5016 22.0149 15.9999 22C16.3862 21.9992 16.7692 21.9281 17.1299 21.79C17.7741 21.5395 18.3119 21.0743 18.6527 20.473C18.9934 19.8718 19.1161 19.1713 18.9999 18.49L17.9999 13L19.7899 4H20.9999C21.2652 4 21.5195 3.89464 21.7071 3.70711C21.8946 3.51957 21.9999 3.26522 21.9999 3C21.9999 2.73478 21.8946 2.48043 21.7071 2.29289C21.5195 2.10536 21.2652 2 20.9999 2ZM4.99995 20C4.80216 20 4.60883 19.9414 4.44438 19.8315C4.27993 19.7216 4.15175 19.5654 4.07607 19.3827C4.00038 19.2 3.98058 18.9989 4.01916 18.8049C4.05775 18.6109 4.15299 18.4327 4.29284 18.2929C4.43269 18.153 4.61087 18.0578 4.80486 18.0192C4.99884 17.9806 5.1999 18.0004 5.38263 18.0761C5.56536 18.1518 5.72153 18.28 5.83142 18.4444C5.9413 18.6089 5.99995 18.8022 5.99995 19C5.99995 19.2652 5.89459 19.5196 5.70705 19.7071C5.51952 19.8946 5.26516 20 4.99995 20ZM10.2999 4.29C10.4869 4.10677 10.7382 4.00414 10.9999 4.00414C11.2617 4.00414 11.513 4.10677 11.6999 4.29L13.4099 6H8.58995L10.2999 4.29ZM7.54995 12.94L4.71995 8H16.9999L16.1799 12.08L7.54995 12.94ZM16.3599 19.94C16.1467 20.0237 15.9111 20.0317 15.6927 19.9625C15.4742 19.8933 15.2862 19.7512 15.1599 19.56L11.8199 14.56L16.1899 14.13L16.9999 18.82C17.0401 19.0507 16.998 19.2881 16.8811 19.491C16.7641 19.6938 16.5797 19.8492 16.3599 19.93V19.94Z" fill="black"/>
</svg>
