<svg width="24" height="24" viewBox="0 0 24 24" fill="none" xmlns="http://www.w3.org/2000/svg">
<path d="M21.1199 2.8799C20.5477 2.33689 19.7888 2.03418 18.9999 2.03418C18.211 2.03418 17.4522 2.33689 16.8799 2.8799L14.4599 5.2899C14.0248 5.73005 13.7364 6.29404 13.6343 6.90453C13.5323 7.51503 13.6216 8.14214 13.8899 8.6999L11.7399 10.8499L9.73994 8.8499C9.37915 8.4804 8.92908 8.2103 8.43329 8.06573C7.93751 7.92116 7.4128 7.90703 6.90995 8.0247C6.4071 8.14236 5.94315 8.38784 5.56298 8.73738C5.18282 9.08692 4.89933 9.52868 4.73994 10.0199L2.07994 18.0199C1.90317 18.548 1.87689 19.1149 2.00406 19.6571C2.13122 20.1993 2.4068 20.6954 2.79994 21.0899C3.08514 21.3837 3.42745 21.616 3.8058 21.7725C4.18416 21.929 4.59055 22.0064 4.99994 21.9999C5.34012 22.0063 5.67873 21.9521 5.99994 21.8399L13.9999 19.1799C14.4912 19.0205 14.9329 18.737 15.2825 18.3569C15.632 17.9767 15.8775 17.5127 15.9951 17.0099C16.1128 16.507 16.0987 15.9823 15.9541 15.4865C15.8095 14.9908 15.5394 14.5407 15.1699 14.1799L13.1699 12.1799L15.3199 10.0299C15.8777 10.2983 16.5048 10.3876 17.1153 10.2855C17.7258 10.1835 18.2898 9.89508 18.7299 9.4599L21.1399 7.0399C21.675 6.4784 21.9718 5.73149 21.9681 4.95587C21.9644 4.18026 21.6604 3.43623 21.1199 2.8799ZM13.6999 15.6299C13.8189 15.7512 13.9051 15.9007 13.9503 16.0645C13.9954 16.2283 13.9981 16.4009 13.9581 16.566C13.9181 16.7311 13.8366 16.8833 13.7215 17.0082C13.6063 17.1331 13.4613 17.2266 13.2999 17.2799L5.31994 19.9999C5.14627 20.053 4.96142 20.0577 4.78525 20.0137C4.60907 19.9696 4.44822 19.8784 4.31994 19.7499C4.1914 19.6216 4.10021 19.4608 4.05617 19.2846C4.01212 19.1084 4.01689 18.9236 4.06994 18.7499L6.73994 10.7499C6.778 10.5733 6.86318 10.4103 6.98643 10.2783C7.10968 10.1462 7.2664 10.05 7.43994 9.9999C7.51638 9.99164 7.5935 9.99164 7.66994 9.9999C7.93228 10.001 8.18368 10.1052 8.36994 10.2899L10.3699 12.2899L9.49994 13.1499C9.40621 13.2429 9.33182 13.3535 9.28105 13.4753C9.23028 13.5972 9.20414 13.7279 9.20414 13.8599C9.20414 13.9919 9.23028 14.1226 9.28105 14.2445C9.33182 14.3663 9.40621 14.4769 9.49994 14.5699C9.5929 14.6636 9.7035 14.738 9.82536 14.7888C9.94722 14.8396 10.0779 14.8657 10.2099 14.8657C10.342 14.8657 10.4727 14.8396 10.5945 14.7888C10.7164 14.738 10.827 14.6636 10.9199 14.5699L11.7799 13.6999L13.6999 15.6299ZM19.6999 5.7099L17.2899 8.1199C17.1496 8.25751 16.9717 8.35069 16.7787 8.38779C16.5856 8.4249 16.3859 8.40428 16.2045 8.32852C16.0232 8.25276 15.8681 8.12522 15.7588 7.96184C15.6495 7.79846 15.5908 7.60648 15.5899 7.4099C15.591 7.14756 15.6952 6.89616 15.8799 6.7099L18.2899 4.2899C18.3829 4.19617 18.4935 4.12178 18.6154 4.07101C18.7372 4.02024 18.8679 3.9941 18.9999 3.9941C19.132 3.9941 19.2627 4.02024 19.3845 4.07101C19.5064 4.12178 19.617 4.19617 19.7099 4.2899C19.8037 4.38286 19.8781 4.49347 19.9288 4.61532C19.9796 4.73718 20.0057 4.86789 20.0057 4.9999C20.0057 5.13191 19.9796 5.26262 19.9288 5.38448C19.8781 5.50634 19.8037 5.61694 19.7099 5.7099H19.6999Z" fill="black"/>
</svg>
