<svg width="24" height="24" viewBox="0 0 24 24" fill="none" xmlns="http://www.w3.org/2000/svg">
<path d="M20 13.1698V12.9998C20.0009 11.9298 19.7873 10.8705 19.3716 9.88459C18.9559 8.89866 18.3467 8.00612 17.58 7.25981C16.6848 6.38879 15.5946 5.74424 14.4 5.37981H14.35C13.5124 5.11594 12.638 4.98766 11.76 4.99981C9.66835 5.11462 7.69974 6.02458 6.25712 7.54341C4.81451 9.06225 4.00702 11.0751 3.99996 13.1698C3.33163 13.4049 2.76807 13.869 2.40909 14.4798C2.05012 15.0906 1.9189 15.8087 2.03867 16.507C2.15844 17.2053 2.52148 17.8386 3.06349 18.2949C3.60549 18.7512 4.29148 19.0009 4.99996 18.9998H19C19.7084 19.0009 20.3944 18.7512 20.9364 18.2949C21.4784 17.8386 21.8415 17.2053 21.9612 16.507C22.081 15.8087 21.9498 15.0906 21.5908 14.4798C21.2319 13.869 20.6683 13.4049 20 13.1698ZM19 16.9998H4.99996C4.73474 16.9998 4.48039 16.8945 4.29285 16.7069C4.10532 16.5194 3.99996 16.265 3.99996 15.9998C3.99996 15.7346 4.10532 15.4802 4.29285 15.2927C4.48039 15.1052 4.73474 14.9998 4.99996 14.9998H6.99996C7.26518 14.9998 7.51953 14.8945 7.70707 14.7069C7.8946 14.5194 7.99996 14.265 7.99996 13.9998C7.99996 13.7346 7.8946 13.4802 7.70707 13.2927C7.51953 13.1052 7.26518 12.9998 6.99996 12.9998H5.99996C6.04557 11.9626 6.34242 10.952 6.865 10.0549C7.38757 9.15784 8.12023 8.40111 8.99996 7.84981V10.9998C8.99996 11.265 9.10532 11.5194 9.29285 11.7069C9.48039 11.8945 9.73474 11.9998 9.99996 11.9998C10.2652 11.9998 10.5195 11.8945 10.7071 11.7069C10.8946 11.5194 11 11.265 11 10.9998V7.08981C11.2714 7.04446 11.5452 7.01442 11.82 6.99981H12C12.3356 7.00289 12.6703 7.03636 13 7.09981V10.9998C13 11.265 13.1053 11.5194 13.2929 11.7069C13.4804 11.8945 13.7347 11.9998 14 11.9998C14.2652 11.9998 14.5195 11.8945 14.7071 11.7069C14.8946 11.5194 15 11.265 15 10.9998V7.81981C15.4242 8.06544 15.8199 8.35721 16.18 8.68981C16.7565 9.24971 17.2147 9.91973 17.5274 10.6601C17.84 11.4005 18.0007 12.1961 18 12.9998H17C16.7347 12.9998 16.4804 13.1052 16.2929 13.2927C16.1053 13.4802 16 13.7346 16 13.9998C16 14.265 16.1053 14.5194 16.2929 14.7069C16.4804 14.8945 16.7347 14.9998 17 14.9998H19C19.2652 14.9998 19.5195 15.1052 19.7071 15.2927C19.8946 15.4802 20 15.7346 20 15.9998C20 16.265 19.8946 16.5194 19.7071 16.7069C19.5195 16.8945 19.2652 16.9998 19 16.9998Z" fill="black"/>
</svg>
