<svg width="24" height="24" viewBox="0 0 24 24" fill="none" xmlns="http://www.w3.org/2000/svg">
<path d="M21.71 7.37982L16.62 2.28982C16.4326 2.10357 16.1792 1.99902 15.915 1.99902C15.6508 1.99902 15.3974 2.10357 15.21 2.28982C15.1163 2.38278 15.0419 2.49338 14.9911 2.61524C14.9403 2.7371 14.9142 2.8678 14.9142 2.99982C14.9142 3.13183 14.9403 3.26253 14.9911 3.38439C15.0419 3.50625 15.1163 3.61685 15.21 3.70982L17 5.53982L11.58 10.9998L10.58 9.99982C10.3013 9.72014 9.97012 9.49823 9.60546 9.34681C9.24081 9.19539 8.84985 9.11745 8.45501 9.11745C8.06017 9.11745 7.66921 9.19539 7.30455 9.34681C6.9399 9.49823 6.60872 9.72014 6.33001 9.99982L2.88001 13.4198C2.60016 13.6993 2.37834 14.0314 2.22732 14.3969C2.07629 14.7625 1.99904 15.1543 2.00001 15.5498V18.9998C2.00001 19.7955 2.31608 20.5585 2.87869 21.1211C3.4413 21.6837 4.20436 21.9998 5.00001 21.9998H8.45001C8.84553 22.0008 9.23733 21.9235 9.60288 21.7725C9.96843 21.6215 10.3005 21.3997 10.58 21.1198L14 17.6898C14.2797 17.4111 14.5016 17.0799 14.653 16.7153C14.8044 16.3506 14.8824 15.9597 14.8824 15.5648C14.8824 15.17 14.8044 14.779 14.653 14.4144C14.5016 14.0497 14.2797 13.7185 14 13.4398L13 12.4398L18.46 6.99982L20.29 8.82982C20.383 8.92354 20.4936 8.99794 20.6154 9.04871C20.7373 9.09948 20.868 9.12561 21 9.12561C21.132 9.12561 21.2627 9.09948 21.3846 9.04871C21.5064 8.99794 21.617 8.92354 21.71 8.82982C21.8083 8.7364 21.8867 8.62395 21.9402 8.49931C21.9937 8.37467 22.0213 8.24045 22.0213 8.10482C22.0213 7.96918 21.9937 7.83496 21.9402 7.71032C21.8867 7.58569 21.8083 7.47324 21.71 7.37982ZM12.6 16.2698L9.16001 19.7098C9.06657 19.8025 8.95575 19.8758 8.83392 19.9256C8.71208 19.9754 8.58162 20.0006 8.45001 19.9998H5.00001C4.73479 19.9998 4.48044 19.8945 4.2929 19.7069C4.10537 19.5194 4.00001 19.265 4.00001 18.9998V15.5498C3.99925 15.4182 4.02447 15.2877 4.07424 15.1659C4.124 15.0441 4.19733 14.9333 4.29001 14.8398L7.73001 11.3998C7.91737 11.2136 8.17082 11.109 8.43501 11.109C8.6992 11.109 8.95265 11.2136 9.14001 11.3998L10.14 12.3998L9.25001 13.2998C9.06376 13.4872 8.95922 13.7406 8.95922 14.0048C8.95922 14.269 9.06376 14.5225 9.25001 14.7098C9.34814 14.8074 9.46548 14.8836 9.59458 14.9335C9.72368 14.9834 9.86173 15.006 10 14.9998C10.2623 14.9987 10.5137 14.8946 10.7 14.7098L11.6 13.8198L12.6 14.8198C12.6983 14.9132 12.7767 15.0257 12.8302 15.1503C12.8837 15.275 12.9113 15.4092 12.9113 15.5448C12.9113 15.6805 12.8837 15.8147 12.8302 15.9393C12.7767 16.0639 12.6983 16.1764 12.6 16.2698Z" fill="black"/>
</svg>
