<svg width="24" height="24" viewBox="0 0 24 24" fill="none" xmlns="http://www.w3.org/2000/svg">
<path d="M19.47 10.5399C18.9961 9.48569 18.2278 8.59076 17.2574 7.96276C16.287 7.33476 15.1559 7.00042 14 6.99994C13.5312 7.00372 13.0644 7.06416 12.61 7.17994C12.0408 6.37648 11.2471 5.75897 10.3283 5.40485C9.40955 5.05074 8.40668 4.97578 7.44548 5.18938C6.48428 5.40298 5.60754 5.89563 4.92522 6.60554C4.24291 7.31545 3.78539 8.21103 3.61005 9.17994C2.95578 9.41548 2.40366 9.87098 2.04809 10.4686C1.69252 11.0662 1.55559 11.7687 1.6607 12.4561C1.76581 13.1435 2.10645 13.773 2.62436 14.237C3.14227 14.701 3.80529 14.9707 4.50005 14.9999H5.50005C5.48962 15.1664 5.48962 15.3334 5.50005 15.4999C5.50005 16.4282 5.8688 17.3184 6.52517 17.9748C7.18155 18.6312 8.07179 18.9999 9.00005 18.9999H18.17C19.2043 18.9998 20.2044 18.6294 20.9893 17.9558C21.7741 17.2822 22.292 16.3499 22.449 15.3276C22.6061 14.3053 22.3921 13.2605 21.8457 12.3824C21.2993 11.5042 20.4566 10.8506 19.47 10.5399ZM4.50005 12.9999C4.23483 12.9999 3.98048 12.8946 3.79294 12.707C3.6054 12.5195 3.50005 12.2652 3.50005 11.9999C3.50005 11.7347 3.6054 11.4804 3.79294 11.2928C3.98048 11.1053 4.23483 10.9999 4.50005 10.9999C4.76526 10.9999 5.01962 10.8946 5.20715 10.707C5.39469 10.5195 5.50005 10.2652 5.50005 9.99994C5.50005 9.20429 5.81612 8.44122 6.37873 7.87862C6.94134 7.31601 7.7044 6.99994 8.50005 6.99994C8.91943 7.00219 9.33368 7.09234 9.71606 7.26459C10.0984 7.43683 10.4405 7.68734 10.72 7.99994C10.0104 8.46169 9.40646 9.06842 8.948 9.78023C8.48954 10.492 8.18693 11.2928 8.06005 12.1299C7.49482 12.2891 6.97889 12.5884 6.56005 12.9999H4.50005ZM18.17 16.9999H9.00005C8.60222 16.9999 8.22069 16.8419 7.93939 16.5606C7.65808 16.2793 7.50005 15.8978 7.50005 15.4999C7.50005 15.1021 7.65808 14.7206 7.93939 14.4393C8.22069 14.158 8.60222 13.9999 9.00005 13.9999C9.26526 13.9999 9.51962 13.8946 9.70715 13.707C9.89469 13.5195 10 13.2652 10 12.9999C10.0043 12.0556 10.3426 11.1433 10.9549 10.4244C11.5672 9.70552 12.4141 9.22644 13.3457 9.07198C14.2773 8.91751 15.2335 9.09761 16.0451 9.58041C16.8566 10.0632 17.4712 10.8175 17.78 11.7099C17.8372 11.8818 17.94 12.0349 18.0773 12.1529C18.2147 12.2709 18.3816 12.3494 18.56 12.3799C19.1276 12.4861 19.6356 12.7992 19.9855 13.2585C20.3353 13.7179 20.5022 14.2909 20.4536 14.8662C20.405 15.4416 20.1445 15.9785 19.7226 16.3727C19.3007 16.7669 18.7474 16.9905 18.17 16.9999Z" fill="black"/>
</svg>
