<svg width="24" height="24" viewBox="0 0 24 24" fill="none" xmlns="http://www.w3.org/2000/svg">
<path d="M18.42 9.21028C17.8083 7.80609 16.753 6.64128 15.4157 5.89443C14.0785 5.14759 12.5333 4.85995 11.0169 5.0756C9.50051 5.29125 8.09671 5.9983 7.02073 7.08834C5.94475 8.17837 5.25597 9.59123 5.06001 11.1103C4.1066 11.3386 3.27023 11.9091 2.70975 12.7135C2.14927 13.5178 1.9037 14.5 2.01968 15.4735C2.13566 16.447 2.60511 17.344 3.33888 17.9941C4.07265 18.6443 5.01964 19.0023 6.00001 19.0003H17C18.1994 18.997 19.3576 18.5627 20.2634 17.7766C21.1692 16.9905 21.7623 15.905 21.9345 14.718C22.1066 13.5311 21.8464 12.3218 21.2012 11.3107C20.5561 10.2997 19.569 9.5542 18.42 9.21028ZM17 17.0003H6.00001C5.46958 17.0003 4.96087 16.7896 4.5858 16.4145C4.21073 16.0394 4.00001 15.5307 4.00001 15.0003C4.00001 14.4698 4.21073 13.9611 4.5858 13.5861C4.96087 13.211 5.46958 13.0003 6.00001 13.0003C6.26523 13.0003 6.51958 12.8949 6.70712 12.7074C6.89466 12.5198 7.00001 12.2655 7.00001 12.0003C7.00257 10.8176 7.4243 9.67403 8.19028 8.77286C8.95627 7.87169 10.0169 7.27123 11.1838 7.07815C12.3506 6.88507 13.5481 7.11188 14.5636 7.71829C15.579 8.32469 16.3466 9.27142 16.73 10.3903C16.7887 10.5603 16.8921 10.7113 17.0294 10.8274C17.1666 10.9436 17.3327 11.0206 17.51 11.0503C18.243 11.1855 18.8994 11.5888 19.3513 12.1815C19.8033 12.7743 20.0183 13.514 19.9547 14.2567C19.891 14.9993 19.5532 15.6917 19.007 16.1989C18.4608 16.706 17.7453 16.9917 17 17.0003Z" fill="black"/>
</svg>
