<svg width="24" height="24" viewBox="0 0 24 24" fill="none" xmlns="http://www.w3.org/2000/svg">
<path d="M12.5 16.9199H11.73L12.12 16.2499C12.2526 16.0192 12.2882 15.7452 12.2188 15.4883C12.1494 15.2314 11.9808 15.0125 11.75 14.8799C11.5193 14.7473 11.2453 14.7118 10.9884 14.7812C10.7315 14.8506 10.5126 15.0192 10.38 15.2499L10 15.9199L9.62004 15.2499C9.48743 15.0192 9.26859 14.8506 9.01167 14.7812C8.75474 14.7118 8.48077 14.7473 8.25004 14.8799C8.0193 15.0125 7.85069 15.2314 7.7813 15.4883C7.71191 15.7452 7.74743 16.0192 7.88004 16.2499L8.27004 16.9199H7.50004C7.23482 16.9199 6.98047 17.0253 6.79293 17.2128C6.60539 17.4004 6.50004 17.6547 6.50004 17.9199C6.50004 18.1851 6.60539 18.4395 6.79293 18.627C6.98047 18.8146 7.23482 18.9199 7.50004 18.9199H8.27004L7.88004 19.5799C7.74743 19.8107 7.71191 20.0846 7.7813 20.3416C7.85069 20.5985 8.0193 20.8173 8.25004 20.9499C8.48077 21.0825 8.75474 21.118 9.01167 21.0487C9.26859 20.9793 9.48743 20.8107 9.62004 20.5799L10 19.9199L10.38 20.5799C10.4457 20.6942 10.5332 20.7944 10.6376 20.8748C10.742 20.9552 10.8612 21.0143 10.9884 21.0487C11.1156 21.083 11.2484 21.092 11.379 21.075C11.5097 21.0581 11.6358 21.0156 11.75 20.9499C11.8643 20.8843 11.9645 20.7967 12.0449 20.6924C12.1253 20.588 12.1844 20.4688 12.2188 20.3416C12.2531 20.2143 12.2621 20.0816 12.2452 19.9509C12.2282 19.8202 12.1857 19.6942 12.12 19.5799L11.73 18.9199H12.5C12.7653 18.9199 13.0196 18.8146 13.2071 18.627C13.3947 18.4395 13.5 18.1851 13.5 17.9199C13.5 17.6547 13.3947 17.4004 13.2071 17.2128C13.0196 17.0253 12.7653 16.9199 12.5 16.9199ZM21 7.91992H20.2C20.0966 7.47121 19.921 7.04229 19.68 6.64992L20.24 6.08992C20.4039 5.89862 20.4895 5.65254 20.4797 5.40087C20.47 5.14919 20.3657 4.91045 20.1876 4.73236C20.0095 4.55426 19.7708 4.44993 19.5191 4.44021C19.2674 4.43049 19.0213 4.5161 18.83 4.67992L18.27 5.23992C17.8777 4.99893 17.4487 4.82331 17 4.71992V3.91992C17 3.65471 16.8947 3.40035 16.7071 3.21282C16.5196 3.02528 16.2653 2.91992 16 2.91992C15.7348 2.91992 15.4805 3.02528 15.2929 3.21282C15.1054 3.40035 15 3.65471 15 3.91992V4.71992C14.554 4.82174 14.1281 4.9975 13.74 5.23992L13.17 4.67992C12.9787 4.5161 12.7327 4.43049 12.481 4.44021C12.2293 4.44993 11.9906 4.55426 11.8125 4.73236C11.6344 4.91045 11.53 5.14919 11.5203 5.40087C11.5106 5.65254 11.5962 5.89862 11.76 6.08992L12.32 6.64992C12.23 6.80992 12.16 6.97992 12.08 7.13992C11.5659 6.99479 11.0343 6.92077 10.5 6.91992C9.0663 6.9173 7.67901 7.42818 6.5894 8.36004C5.49978 9.2919 4.77987 10.5831 4.56004 11.9999C3.81737 12.2104 3.16448 12.6592 2.7019 13.2772C2.23933 13.8951 1.99271 14.648 2.00004 15.4199C2.00041 15.9629 2.12817 16.4981 2.37306 16.9827C2.61795 17.4673 2.97313 17.8876 3.41004 18.2099C3.51495 18.2974 3.63665 18.3624 3.76765 18.401C3.89865 18.4396 4.03616 18.4509 4.17172 18.4343C4.30727 18.4177 4.43799 18.3735 4.55582 18.3045C4.67364 18.2355 4.77608 18.143 4.85681 18.0329C4.93754 17.9227 4.99485 17.7972 5.02522 17.6641C5.05558 17.5309 5.05835 17.393 5.03335 17.2587C5.00836 17.1244 4.95613 16.9967 4.87988 16.8834C4.80364 16.7701 4.705 16.6736 4.59004 16.5999C4.40598 16.4634 4.25665 16.2854 4.15415 16.0804C4.05165 15.8754 3.99886 15.6491 4.00004 15.4199C4.00004 15.0221 4.15807 14.6406 4.43938 14.3593C4.72068 14.078 5.10221 13.9199 5.50004 13.9199C5.76525 13.9199 6.01961 13.8146 6.20714 13.627C6.39468 13.4395 6.50004 13.1851 6.50004 12.9199C6.50432 11.9756 6.84256 11.0633 7.45487 10.3444C8.06719 9.6255 8.9141 9.14643 9.84569 8.99196C10.7773 8.83749 11.7335 9.0176 12.5451 9.50039C13.3566 9.98319 13.9712 10.7375 14.28 11.6299C14.3387 11.7999 14.4421 11.9509 14.5794 12.0671C14.7166 12.1832 14.8827 12.2602 15.06 12.2899C15.5572 12.3719 16.0144 12.6129 16.363 12.9766C16.7117 13.3404 16.933 13.8074 16.9939 14.3076C17.0547 14.8078 16.9517 15.3142 16.7004 15.7509C16.4492 16.1877 16.063 16.5312 15.6 16.7299C15.4789 16.7821 15.3694 16.8577 15.2776 16.9524C15.1859 17.0471 15.1137 17.1591 15.0654 17.2817C15.0171 17.4044 14.9935 17.5355 14.996 17.6673C14.9985 17.7991 15.0271 17.9292 15.08 18.0499C15.1581 18.2288 15.2868 18.3809 15.4503 18.4875C15.6138 18.5942 15.8049 18.6506 16 18.6499C16.1384 18.6501 16.2751 18.6193 16.4 18.5599C17.1775 18.2211 17.8384 17.6614 18.3006 16.9503C18.7628 16.2392 19.006 15.408 19 14.5599C18.998 14.0258 18.8963 13.4967 18.7 12.9999L18.83 13.1299C19.0163 13.3147 19.2677 13.4188 19.53 13.4199C19.6616 13.4207 19.7921 13.3955 19.9139 13.3457C20.0358 13.2959 20.1466 13.2226 20.24 13.1299C20.3338 13.037 20.4082 12.9264 20.4589 12.8045C20.5097 12.6826 20.5358 12.5519 20.5358 12.4199C20.5358 12.2879 20.5097 12.1572 20.4589 12.0353C20.4082 11.9135 20.3338 11.8029 20.24 11.7099L19.68 11.1499C19.9208 10.761 20.0965 10.3354 20.2 9.88992H21C21.2653 9.88992 21.5196 9.78456 21.7071 9.59703C21.8947 9.40949 22 9.15514 22 8.88992C22 8.62471 21.8947 8.37035 21.7071 8.18281C21.5196 7.99528 21.2653 7.88992 21 7.88992V7.91992ZM17.66 10.5599C17.4884 10.7341 17.2847 10.8734 17.06 10.9699C16.7327 10.7505 16.3758 10.5787 16 10.4599C15.5329 9.46064 14.7994 8.60946 13.88 7.99992C13.9867 7.73905 14.1429 7.50133 14.34 7.29992C14.788 6.88238 15.3776 6.6502 15.99 6.6502C16.6024 6.6502 17.1921 6.88238 17.64 7.29992C18.073 7.73795 18.3158 8.32902 18.3158 8.94492C18.3158 9.56082 18.073 10.1519 17.64 10.5899L17.66 10.5599Z" fill="black"/>
</svg>
