<svg width="24" height="24" viewBox="0 0 24 24" fill="none" xmlns="http://www.w3.org/2000/svg">
<path d="M14.5 15.9203H13.73L14.12 15.2503C14.2526 15.0196 14.2881 14.7456 14.2187 14.4887C14.1494 14.2317 13.9807 14.0129 13.75 13.8803C13.5193 13.7477 13.2453 13.7122 12.9884 13.7816C12.7315 13.8509 12.5126 14.0196 12.38 14.2503L12 14.9203L11.62 14.2503C11.4874 14.0196 11.2686 13.8509 11.0116 13.7816C10.7547 13.7122 10.4807 13.7477 10.25 13.8803C10.0193 14.0129 9.85066 14.2317 9.78127 14.4887C9.71188 14.7456 9.7474 15.0196 9.88001 15.2503L10.27 15.9203H9.50001C9.23479 15.9203 8.98044 16.0257 8.7929 16.2132C8.60536 16.4007 8.50001 16.6551 8.50001 16.9203C8.50001 17.1855 8.60536 17.4399 8.7929 17.6274C8.98044 17.8149 9.23479 17.9203 9.50001 17.9203H10.27L9.88001 18.5803C9.7474 18.811 9.71188 19.085 9.78127 19.3419C9.85066 19.5988 10.0193 19.8177 10.25 19.9503C10.4807 20.0829 10.7547 20.1184 11.0116 20.049C11.2686 19.9796 11.4874 19.811 11.62 19.5803L12 18.9203L12.38 19.5803C12.5126 19.811 12.7315 19.9796 12.9884 20.049C13.2453 20.1184 13.5193 20.0829 13.75 19.9503C13.9807 19.8177 14.1494 19.5988 14.2187 19.3419C14.2881 19.085 14.2526 18.811 14.12 18.5803L13.73 17.9203H14.5C14.7652 17.9203 15.0196 17.8149 15.2071 17.6274C15.3946 17.4399 15.5 17.1855 15.5 16.9203C15.5 16.6551 15.3946 16.4007 15.2071 16.2132C15.0196 16.0257 14.7652 15.9203 14.5 15.9203ZM18.42 8.13029C17.8104 6.72668 16.7576 5.56151 15.4227 4.81313C14.0879 4.06475 12.5447 3.77441 11.0291 3.98653C9.51361 4.19866 8.10936 4.90157 7.03131 5.98768C5.95327 7.07378 5.26084 8.48324 5.06001 10.0003C4.1824 10.2124 3.40238 10.7153 2.84681 11.427C2.29123 12.1387 1.99279 13.0174 2.00001 13.9203C2.00359 14.8641 2.34081 15.7763 2.95203 16.4955C3.56325 17.2147 4.4091 17.6946 5.34001 17.8503H5.50001C5.76522 17.8715 6.028 17.7865 6.23054 17.614C6.43308 17.4414 6.55879 17.1955 6.58001 16.9303C6.60122 16.6651 6.51621 16.4023 6.34368 16.1998C6.17115 15.9972 5.92522 15.8715 5.66001 15.8503C5.19042 15.7693 4.76517 15.5234 4.46083 15.1567C4.1565 14.79 3.99308 14.3268 4.00001 13.8503C4.00001 13.3199 4.21072 12.8112 4.58579 12.4361C4.96087 12.061 5.46957 11.8503 6.00001 11.8503C6.26522 11.8503 6.51958 11.7449 6.70711 11.5574C6.89465 11.3699 7.00001 11.1155 7.00001 10.8503C7.00256 9.66757 7.42429 8.52405 8.19028 7.62288C8.95626 6.72171 10.0169 6.12125 11.1838 5.92817C12.3506 5.73509 13.5481 5.9619 14.5636 6.5683C15.579 7.17471 16.3466 8.12143 16.73 9.24029C16.7887 9.41027 16.8921 9.56129 17.0293 9.67743C17.1666 9.79358 17.3327 9.87057 17.51 9.90029C18.1467 10.0159 18.729 10.3344 19.1699 10.8081C19.6108 11.2818 19.8867 11.8854 19.9564 12.5287C20.0262 13.1721 19.886 13.8208 19.5568 14.3779C19.2277 14.9351 18.7272 15.3709 18.13 15.6203C17.9973 15.6605 17.8745 15.7278 17.7692 15.8179C17.6639 15.9081 17.5786 16.0192 17.5185 16.1441C17.4584 16.269 17.425 16.405 17.4203 16.5436C17.4156 16.6821 17.4398 16.8201 17.4913 16.9488C17.5427 17.0775 17.6204 17.1941 17.7193 17.2912C17.8183 17.3882 17.9363 17.4637 18.066 17.5127C18.1956 17.5618 18.334 17.5833 18.4724 17.576C18.6109 17.5687 18.7462 17.5327 18.87 17.4703C19.8247 17.0781 20.6346 16.4 21.1886 15.5292C21.7426 14.6584 22.0135 13.6375 21.9642 12.6066C21.9149 11.5756 21.5478 10.5852 20.9132 9.77126C20.2787 8.95728 19.4077 8.35962 18.42 8.0603V8.13029Z" fill="black"/>
</svg>
