<svg width="24" height="24" viewBox="0 0 24 24" fill="none" xmlns="http://www.w3.org/2000/svg">
<path d="M9.21001 16.2905C9.1149 16.1994 9.00276 16.1281 8.88001 16.0805C8.6979 16.0039 8.49718 15.983 8.30319 16.0204C8.1092 16.0577 7.93063 16.1517 7.79001 16.2905C7.70167 16.3877 7.63065 16.4993 7.58001 16.6205C7.52402 16.7392 7.49663 16.8693 7.50001 17.0005C7.50082 17.1643 7.54185 17.3253 7.6195 17.4696C7.69714 17.6138 7.80902 17.7367 7.94529 17.8275C8.08157 17.9184 8.23808 17.9744 8.40106 17.9906C8.56404 18.0068 8.72851 17.9827 8.88001 17.9205C9.00119 17.8698 9.1128 17.7988 9.21001 17.7105C9.34876 17.5699 9.44276 17.3913 9.48013 17.1973C9.51751 17.0033 9.49659 16.8026 9.42001 16.6205C9.36936 16.4993 9.29834 16.3877 9.21001 16.2905ZM9.21001 20.2905C9.1128 20.2022 9.00119 20.1311 8.88001 20.0805C8.6979 20.0039 8.49718 19.983 8.30319 20.0204C8.1092 20.0577 7.93063 20.1517 7.79001 20.2905C7.70167 20.3877 7.63065 20.4993 7.58001 20.6205C7.51522 20.7726 7.48915 20.9383 7.50411 21.1029C7.51908 21.2676 7.57462 21.4259 7.66576 21.5638C7.75691 21.7017 7.88082 21.8149 8.0264 21.8931C8.17199 21.9714 8.33471 22.0124 8.50001 22.0124C8.6653 22.0124 8.82803 21.9714 8.97361 21.8931C9.11919 21.8149 9.2431 21.7017 9.33425 21.5638C9.42539 21.4259 9.48093 21.2676 9.4959 21.1029C9.51086 20.9383 9.48479 20.7726 9.42001 20.6205C9.36936 20.4993 9.29834 20.3877 9.21001 20.2905ZM13.06 14.1705L12.88 14.0805L12.7 14.0005C12.505 13.9624 12.3031 13.9833 12.12 14.0605C11.9964 14.1063 11.8839 14.1779 11.79 14.2705C11.6973 14.3639 11.624 14.4747 11.5742 14.5966C11.5245 14.7184 11.4992 14.8489 11.5 14.9805C11.4992 15.1121 11.5245 15.2425 11.5742 15.3644C11.624 15.4862 11.6973 15.597 11.79 15.6905C11.8872 15.7788 11.9988 15.8498 12.12 15.9005C12.2397 15.9534 12.3691 15.9807 12.5 15.9807C12.6309 15.9807 12.7603 15.9534 12.88 15.9005C13.0012 15.8498 13.1128 15.7788 13.21 15.6905C13.3923 15.5067 13.4963 15.2593 13.5 15.0005C13.4963 14.7357 13.3927 14.4821 13.21 14.2905L13.06 14.1705ZM13.21 18.2905C13.0694 18.1517 12.8908 18.0577 12.6968 18.0204C12.5028 17.983 12.3021 18.0039 12.12 18.0805C11.9959 18.1254 11.8832 18.197 11.7899 18.2904C11.6966 18.3837 11.6249 18.4964 11.58 18.6205C11.5034 18.8026 11.4825 19.0033 11.5199 19.1973C11.5573 19.3913 11.6512 19.5699 11.79 19.7105C11.8872 19.7988 11.9988 19.8698 12.12 19.9205C12.2397 19.9734 12.3691 20.0007 12.5 20.0007C12.6309 20.0007 12.7603 19.9734 12.88 19.9205C13.0012 19.8698 13.1128 19.7988 13.21 19.7105C13.3488 19.5699 13.4428 19.3913 13.4801 19.1973C13.5175 19.0033 13.4966 18.8026 13.42 18.6205C13.3694 18.4993 13.2983 18.3877 13.21 18.2905ZM21.7 7.07048C21.5785 6.95051 21.4284 6.86363 21.2639 6.81812C21.0993 6.7726 20.9259 6.76997 20.76 6.81048C20.5469 6.86079 20.3289 6.88761 20.11 6.89048C19.3144 6.89048 18.5513 6.57441 17.9887 6.0118C17.4261 5.44919 17.11 4.68613 17.11 3.89048C17.1129 3.67154 17.1397 3.45358 17.19 3.24048C17.2361 3.07343 17.2379 2.89727 17.1954 2.72928C17.1529 2.56129 17.0675 2.40723 16.9475 2.2822C16.8275 2.15717 16.6771 2.06547 16.511 2.01608C16.3449 1.96669 16.1688 1.96132 16 2.00048C15.0047 2.22022 14.102 2.74304 13.4161 3.49698C12.7302 4.25092 12.2949 5.19891 12.17 6.21048C11.6254 6.06538 11.0636 5.99474 10.5 6.00048C9.05886 5.99966 7.66557 6.51758 6.57488 7.45954C5.48419 8.4015 4.76897 9.70457 4.56001 11.1305C3.86364 11.3244 3.2444 11.7292 2.78734 12.2892C2.33028 12.8492 2.05784 13.537 2.00743 14.2581C1.95701 14.9792 2.13111 15.6982 2.5058 16.3164C2.88049 16.9346 3.43739 17.4216 4.10001 17.7105C4.22744 17.761 4.36295 17.7881 4.50001 17.7905C4.7312 17.7924 4.95591 17.7141 5.13589 17.569C5.31586 17.4238 5.43999 17.2208 5.48715 16.9945C5.5343 16.7681 5.50157 16.5324 5.39452 16.3275C5.28747 16.1226 5.11272 15.9611 4.90001 15.8705C4.6317 15.7562 4.40314 15.5652 4.24302 15.3215C4.0829 15.0777 3.99836 14.7921 4.00001 14.5005C4.00001 14.1027 4.15804 13.7211 4.43935 13.4398C4.72065 13.1585 5.10218 13.0005 5.50001 13.0005C5.76522 13.0005 6.01958 12.8951 6.20711 12.7076C6.39465 12.5201 6.50001 12.2657 6.50001 12.0005C6.50001 10.9396 6.92143 9.9222 7.67158 9.17205C8.42172 8.42191 9.43914 8.00048 10.5 8.00048C11.2782 8.00605 12.0383 8.23515 12.69 8.66048C13.4207 9.13703 13.9755 9.83936 14.27 10.6605C14.3272 10.8323 14.4299 10.9854 14.5673 11.1034C14.7047 11.2214 14.8715 11.2999 15.05 11.3305C15.529 11.3859 15.9789 11.5892 16.337 11.9122C16.6951 12.2351 16.9437 12.6616 17.0482 13.1324C17.1527 13.6032 17.1079 14.0948 16.92 14.5389C16.7322 14.983 16.4106 15.3576 16 15.6105C15.8897 15.6827 15.7947 15.776 15.7204 15.8849C15.6461 15.9938 15.5941 16.1163 15.5671 16.2454C15.5402 16.3745 15.539 16.5076 15.5635 16.6372C15.588 16.7667 15.6378 16.8902 15.71 17.0005C15.7822 17.1108 15.8755 17.2058 15.9844 17.2801C16.0934 17.3543 16.2159 17.4064 16.3449 17.4334C16.474 17.4603 16.6071 17.4615 16.7367 17.437C16.8662 17.4125 16.9897 17.3627 17.1 17.2905C17.6897 16.8896 18.1716 16.3496 18.503 15.7182C18.8343 15.0868 19.0051 14.3835 19 13.6705C19.0039 12.9736 18.8356 12.2866 18.51 11.6705C19.3688 11.4307 20.1467 10.9629 20.7611 10.3167C21.3755 9.67061 21.8036 8.87023 22 8.00048C22.0337 7.83275 22.0239 7.65917 21.9713 7.49634C21.9188 7.33351 21.8254 7.18689 21.7 7.07048ZM17.11 9.89048C16.9702 9.90131 16.8298 9.90131 16.69 9.89048C16.4702 9.75464 16.2394 9.63756 16 9.54048C15.5881 8.64361 14.9633 7.86094 14.18 7.26048C14.18 7.14048 14.18 7.01048 14.18 6.89048C14.18 6.45716 14.2738 6.02897 14.4551 5.63538C14.6363 5.24179 14.9007 4.89214 15.23 4.61048C15.3848 5.67733 15.8803 6.66557 16.6426 7.42786C17.4049 8.19014 18.3932 8.68564 19.46 8.84048C19.1707 9.1789 18.8098 9.4487 18.4033 9.63031C17.9969 9.81192 17.5551 9.9008 17.11 9.89048Z" fill="black"/>
</svg>
