<svg width="24" height="24" viewBox="0 0 24 24" fill="none" xmlns="http://www.w3.org/2000/svg">
<path d="M11 19.0002H8C7.73478 19.0002 7.48043 19.1055 7.29289 19.2931C7.10536 19.4806 7 19.735 7 20.0002C7 20.2654 7.10536 20.5197 7.29289 20.7073C7.48043 20.8948 7.73478 21.0002 8 21.0002H11C11.2652 21.0002 11.5196 20.8948 11.7071 20.7073C11.8946 20.5197 12 20.2654 12 20.0002C12 19.735 11.8946 19.4806 11.7071 19.2931C11.5196 19.1055 11.2652 19.0002 11 19.0002ZM20 15.0002H18.84C19.4153 14.1019 19.8094 13.0997 20 12.0502C20.0289 11.879 20.0128 11.7032 19.9532 11.5401C19.8936 11.3771 19.7925 11.2323 19.66 11.1202C19.5256 11.0019 19.3619 10.9218 19.186 10.8884C19.0101 10.855 18.8284 10.8694 18.66 10.9302C18.0417 11.1406 17.3932 11.2487 16.74 11.2502C15.1431 11.2503 13.6108 10.62 12.476 9.49651C11.3412 8.37298 10.6958 6.84697 10.68 5.25018C10.6891 4.91486 10.7225 4.58065 10.78 4.25018C10.806 4.07966 10.7874 3.90534 10.726 3.74413C10.6647 3.58293 10.5627 3.44032 10.43 3.33018C10.2946 3.21357 10.1304 3.13536 9.95457 3.10371C9.7787 3.07205 9.59756 3.0881 9.43 3.15018C7.85902 3.69236 6.49405 4.70691 5.522 6.05489C4.54995 7.40287 4.01835 9.01837 4 10.6802C4.00099 12.2121 4.44179 13.7115 5.27 15.0002H4C3.73478 15.0002 3.48043 15.1055 3.29289 15.2931C3.10536 15.4806 3 15.735 3 16.0002C3 16.2654 3.10536 16.5197 3.29289 16.7073C3.48043 16.8948 3.73478 17.0002 4 17.0002H20C20.2652 17.0002 20.5196 16.8948 20.7071 16.7073C20.8946 16.5197 21 16.2654 21 16.0002C21 15.735 20.8946 15.4806 20.7071 15.2931C20.5196 15.1055 20.2652 15.0002 20 15.0002ZM16.28 15.0002H7.83C7.17747 14.3745 6.67474 13.6095 6.35938 12.7623C6.04401 11.9151 5.92416 11.0076 6.00878 10.1076C6.0934 9.20755 6.3803 8.33828 6.84804 7.56469C7.31579 6.79111 7.95229 6.13322 8.71 5.64018C8.82502 7.69715 9.72335 9.632 11.2205 11.0473C12.7176 12.4626 14.6998 13.2508 16.76 13.2502C17.0231 13.265 17.2869 13.265 17.55 13.2502C17.2346 13.9047 16.8045 14.4974 16.28 15.0002ZM16 19.0002H15C14.7348 19.0002 14.4804 19.1055 14.2929 19.2931C14.1054 19.4806 14 19.735 14 20.0002C14 20.2654 14.1054 20.5197 14.2929 20.7073C14.4804 20.8948 14.7348 21.0002 15 21.0002H16C16.2652 21.0002 16.5196 20.8948 16.7071 20.7073C16.8946 20.5197 17 20.2654 17 20.0002C17 19.735 16.8946 19.4806 16.7071 19.2931C16.5196 19.1055 16.2652 19.0002 16 19.0002Z" fill="black"/>
</svg>
