<svg width="24" height="24" viewBox="0 0 24 24" fill="none" xmlns="http://www.w3.org/2000/svg">
<path d="M12.0001 18.9999H7.00005C6.73484 18.9999 6.48048 19.1053 6.29295 19.2928C6.10541 19.4803 6.00005 19.7347 6.00005 19.9999C6.00005 20.2651 6.10541 20.5195 6.29295 20.707C6.48048 20.8945 6.73484 20.9999 7.00005 20.9999H12.0001C12.2642 21.0034 12.5165 21.1099 12.7033 21.2966C12.8901 21.4834 12.9966 21.7358 13.0001 21.9999C13.0001 22.2651 13.1054 22.5195 13.2929 22.707C13.4805 22.8945 13.7348 22.9999 14.0001 22.9999C14.2653 22.9999 14.5196 22.8945 14.7072 22.707C14.8947 22.5195 15.0001 22.2651 15.0001 21.9999C14.9992 21.2045 14.6828 20.442 14.1204 19.8795C13.558 19.3171 12.7954 19.0008 12.0001 18.9999ZM14.0001 8.99989C14.1978 8.99989 14.3912 8.94125 14.5556 8.83136C14.7201 8.72148 14.8482 8.5653 14.9239 8.38258C14.9996 8.19985 15.0194 7.99879 14.9808 7.8048C14.9423 7.61082 14.847 7.43264 14.7072 7.29279C14.5673 7.15294 14.3891 7.05769 14.1951 7.01911C14.0012 6.98052 13.8001 7.00033 13.6174 7.07601C13.4346 7.1517 13.2785 7.27988 13.1686 7.44432C13.0587 7.60877 13.0001 7.80211 13.0001 7.99989C13.0001 8.26511 13.1054 8.51946 13.2929 8.707C13.4805 8.89454 13.7348 8.99989 14.0001 8.99989ZM18.0001 8.99989H20.0001C20.7954 8.99903 21.558 8.68268 22.1204 8.12026C22.6828 7.55784 22.9992 6.79528 23.0001 5.99989C23.0001 5.73468 22.8947 5.48032 22.7072 5.29279C22.5196 5.10525 22.2653 4.99989 22.0001 4.99989C21.7348 4.99989 21.4805 5.10525 21.2929 5.29279C21.1054 5.48032 21.0001 5.73468 21.0001 5.99989C20.9966 6.26403 20.8901 6.51636 20.7033 6.70314C20.5165 6.88993 20.2642 6.9964 20.0001 6.99989H18.0001C17.7348 6.99989 17.4805 7.10525 17.2929 7.29279C17.1054 7.48032 17.0001 7.73468 17.0001 7.99989C17.0001 8.26511 17.1054 8.51946 17.2929 8.707C17.4805 8.89454 17.7348 8.99989 18.0001 8.99989ZM20.0001 14.9999H17.8387C18.4126 14.1022 18.8024 13.0993 18.9854 12.0497C19.0147 11.879 18.9992 11.7036 18.9404 11.5407C18.8815 11.3778 18.7814 11.2329 18.6498 11.1203C18.5182 11.0077 18.3596 10.9312 18.1896 10.8983C18.0195 10.8654 17.8439 10.8772 17.6797 10.9325C17.0614 11.1426 16.4128 11.2498 15.7598 11.2499C14.1546 11.2493 12.6151 10.612 11.4792 9.47789C10.3432 8.34374 9.70343 6.80532 9.70025 5.20009C9.70699 4.84856 9.73963 4.498 9.7979 4.15126C9.82401 3.98166 9.806 3.80819 9.7456 3.64756C9.6852 3.48694 9.58446 3.34458 9.45308 3.23419C9.32169 3.1238 9.16409 3.04911 8.99546 3.01731C8.82683 2.98551 8.65285 2.99767 8.49028 3.05262C7.33105 3.43934 6.27534 4.08547 5.40355 4.94181C4.53175 5.79816 3.86685 6.84215 3.45947 7.99428C3.0521 9.14641 2.91299 10.3763 3.05274 11.5903C3.19249 12.8043 3.60742 13.9705 4.26592 14.9999H3.00005C2.73484 14.9999 2.48048 15.1053 2.29295 15.2928C2.10541 15.4803 2.00005 15.7347 2.00005 15.9999C2.00005 16.2651 2.10541 16.5195 2.29295 16.707C2.48048 16.8945 2.73484 16.9999 3.00005 16.9999H8.00005C8.26527 16.9999 8.51962 16.8945 8.70716 16.707C8.8947 16.5195 9.00005 16.2651 9.00005 15.9999C9.00005 15.7347 8.8947 15.4803 8.70716 15.2928C8.51962 15.1053 8.26527 14.9999 8.00005 14.9999H6.83056C6.18293 14.3716 5.68462 13.6058 5.3724 12.7592C5.06017 11.9126 4.942 11.0067 5.02659 10.1084C5.11118 9.20998 5.39639 8.34206 5.86116 7.56862C6.32593 6.79517 6.95842 6.13594 7.71196 5.63954C7.82817 7.69575 8.72656 9.62961 10.2229 11.0446C11.7193 12.4597 13.7003 13.2487 15.7598 13.2499C16.0233 13.2501 16.2867 13.237 16.5489 13.2108C16.2381 13.88 15.8071 14.4864 15.2773 14.9999H12.0001C11.7348 14.9999 11.4805 15.1053 11.2929 15.2928C11.1054 15.4803 11.0001 15.7347 11.0001 15.9999C11.0001 16.2651 11.1054 16.5195 11.2929 16.707C11.4805 16.8945 11.7348 16.9999 12.0001 16.9999H20.0001C20.2653 16.9999 20.5196 17.1053 20.7072 17.2928C20.8947 17.4803 21.0001 17.7347 21.0001 17.9999C21.0001 18.2651 20.8947 18.5195 20.7072 18.707C20.5196 18.8945 20.2653 18.9999 20.0001 18.9999C19.7348 18.9999 19.4805 19.1053 19.2929 19.2928C19.1054 19.4803 19.0001 19.7347 19.0001 19.9999C19.0001 20.2651 19.1054 20.5195 19.2929 20.707C19.4805 20.8945 19.7348 20.9999 20.0001 20.9999C20.7957 20.9999 21.5588 20.6838 22.1214 20.1212C22.684 19.5586 23.0001 18.7955 23.0001 17.9999C23.0001 17.2042 22.684 16.4412 22.1214 15.8786C21.5588 15.316 20.7957 14.9999 20.0001 14.9999ZM2.62017 19.08C2.49893 19.1306 2.38728 19.2016 2.29009 19.29C2.10544 19.4803 2.00152 19.7347 2.00005 19.9999C1.99835 20.1646 2.03775 20.3271 2.11471 20.4727C2.19166 20.6183 2.30373 20.7424 2.44075 20.8337C2.57778 20.9251 2.73543 20.9808 2.89943 20.9958C3.06343 21.0109 3.22858 20.9847 3.37993 20.9198C3.50106 20.869 3.61269 20.798 3.71005 20.7099C3.80303 20.6167 3.87654 20.5059 3.92633 20.384C3.97611 20.2621 4.00117 20.1316 4.00005 19.9999C3.99614 19.7352 3.89259 19.4817 3.71005 19.2899C3.56932 19.1514 3.39077 19.0575 3.19685 19.0202C3.00293 18.9828 2.8023 19.0036 2.62017 19.08Z" fill="black"/>
</svg>
