<svg width="24" height="24" viewBox="0 0 24 24" fill="none" xmlns="http://www.w3.org/2000/svg">
<path d="M17 15.0003C16.6982 14.9999 16.4017 14.9207 16.14 14.7703C15.6487 14.4666 15.0826 14.3058 14.505 14.3058C13.9275 14.3058 13.3613 14.4666 12.87 14.7703C12.607 14.9221 12.3087 15.0021 12.005 15.0021C11.7013 15.0021 11.403 14.9221 11.14 14.7703C10.6487 14.4666 10.0826 14.3058 9.50502 14.3058C8.92747 14.3058 8.36132 14.4666 7.87002 14.7703C7.60521 14.9219 7.30517 15.0012 7.00002 15.0003C6.7348 15.0003 6.48045 15.1056 6.29291 15.2932C6.10538 15.4807 6.00002 15.7351 6.00002 16.0003C6.00002 16.2655 6.10538 16.5198 6.29291 16.7074C6.48045 16.8949 6.7348 17.0003 7.00002 17.0003C7.66857 17.0008 8.32492 16.8212 8.90002 16.4803C9.07986 16.3676 9.28779 16.3078 9.50002 16.3078C9.71225 16.3078 9.92018 16.3676 10.1 16.4803C10.676 16.8188 11.3319 16.9972 12 16.9972C12.6681 16.9972 13.324 16.8188 13.9 16.4803C14.0799 16.3676 14.2878 16.3078 14.5 16.3078C14.7122 16.3078 14.9202 16.3676 15.1 16.4803C15.6751 16.8212 16.3315 17.0008 17 17.0003C17.2652 17.0003 17.5196 16.8949 17.7071 16.7074C17.8947 16.5198 18 16.2655 18 16.0003C18 15.7351 17.8947 15.4807 17.7071 15.2932C17.5196 15.1056 17.2652 15.0003 17 15.0003ZM17 19.0003C16.6982 18.9999 16.4017 18.9207 16.14 18.7703C15.6487 18.4666 15.0826 18.3058 14.505 18.3058C13.9275 18.3058 13.3613 18.4666 12.87 18.7703C12.607 18.9221 12.3087 19.0021 12.005 19.0021C11.7013 19.0021 11.403 18.9221 11.14 18.7703C10.6487 18.4666 10.0826 18.3058 9.50502 18.3058C8.92747 18.3058 8.36132 18.4666 7.87002 18.7703C7.60521 18.9219 7.30517 19.0012 7.00002 19.0003C6.7348 19.0003 6.48045 19.1056 6.29291 19.2932C6.10538 19.4807 6.00002 19.7351 6.00002 20.0003C6.00002 20.2655 6.10538 20.5198 6.29291 20.7074C6.48045 20.8949 6.7348 21.0003 7.00002 21.0003C7.66857 21.0008 8.32492 20.8212 8.90002 20.4803C9.07986 20.3676 9.28779 20.3078 9.50002 20.3078C9.71225 20.3078 9.92018 20.3676 10.1 20.4803C10.676 20.8188 11.3319 20.9972 12 20.9972C12.6681 20.9972 13.324 20.8188 13.9 20.4803C14.0799 20.3676 14.2878 20.3078 14.5 20.3078C14.7122 20.3078 14.9202 20.3676 15.1 20.4803C15.6751 20.8212 16.3315 21.0008 17 21.0003C17.2652 21.0003 17.5196 20.8949 17.7071 20.7074C17.8947 20.5198 18 20.2655 18 20.0003C18 19.7351 17.8947 19.4807 17.7071 19.2932C17.5196 19.1056 17.2652 19.0003 17 19.0003ZM18.42 7.21028C17.8083 5.80609 16.753 4.64128 15.4158 3.89443C14.0785 3.14759 12.5333 2.85995 11.0169 3.0756C9.50052 3.29125 8.09672 3.9983 7.02074 5.08834C5.94475 6.17837 5.25598 7.59123 5.06002 9.11028C4.18743 9.32124 3.41118 9.81961 2.85615 10.5252C2.30111 11.2308 1.99957 12.1026 2.00002 13.0003C1.99823 13.5667 2.11677 14.127 2.34777 14.6442C2.57878 15.1614 2.91699 15.6236 3.34002 16.0003C3.52232 16.1611 3.75695 16.2499 4.00002 16.2503C4.14277 16.2489 4.28356 16.2169 4.41293 16.1565C4.54229 16.0961 4.65723 16.0088 4.75002 15.9003C4.92482 15.7013 5.01352 15.441 4.99665 15.1767C4.97977 14.9123 4.85871 14.6655 4.66002 14.4903C4.448 14.3051 4.27906 14.0757 4.16504 13.8184C4.05103 13.561 3.99471 13.2817 4.00002 13.0003C4.00002 12.4698 4.21073 11.9611 4.58581 11.5861C4.96088 11.211 5.46959 11.0003 6.00002 11.0003C6.26524 11.0003 6.51959 10.8949 6.70713 10.7074C6.89466 10.5198 7.00002 10.2655 7.00002 10.0003C7.00257 8.81756 7.42431 7.67403 8.19029 6.77286C8.95627 5.87169 10.0169 5.27123 11.1838 5.07815C12.3506 4.88507 13.5482 5.11188 14.5636 5.71829C15.579 6.32469 16.3466 7.27142 16.73 8.39028C16.7887 8.56025 16.8921 8.71127 17.0294 8.82742C17.1666 8.94357 17.3327 9.02056 17.51 9.05028C18.2059 9.17032 18.8371 9.53197 19.2925 10.0716C19.748 10.6112 19.9985 11.2941 20 12.0003C20.0133 12.7362 19.7491 13.4502 19.26 14.0003C19.1565 14.0943 19.0739 14.209 19.0175 14.337C18.9611 14.4649 18.9322 14.6033 18.9326 14.7431C18.933 14.8829 18.9627 15.0211 19.0198 15.1488C19.0769 15.2764 19.1602 15.3906 19.2642 15.4841C19.3682 15.5776 19.4906 15.6482 19.6236 15.6914C19.7566 15.7346 19.8972 15.7494 20.0363 15.7349C20.1753 15.7204 20.3098 15.6769 20.431 15.6072C20.5523 15.5375 20.6575 15.4432 20.74 15.3303C21.5618 14.417 22.0114 13.2288 22 12.0003C21.9991 10.9227 21.6501 9.87424 21.005 9.01109C20.3599 8.14795 19.4532 7.51631 18.42 7.21028Z" fill="black"/>
</svg>
