<svg width="24" height="24" viewBox="0 0 24 24" fill="none" xmlns="http://www.w3.org/2000/svg">
<path d="M12 17.0004C11.8022 17.0004 11.6089 17.059 11.4444 17.1689C11.28 17.2788 11.1518 17.435 11.0761 17.6177C11.0005 17.8004 10.9806 18.0015 11.0192 18.1955C11.0578 18.3895 11.1531 18.5676 11.2929 18.7075C11.4328 18.8473 11.6109 18.9426 11.8049 18.9812C11.9989 19.0198 12.2 19 12.3827 18.9243C12.5654 18.8486 12.7216 18.7204 12.8315 18.556C12.9414 18.3915 13 18.1982 13 18.0004C13 17.7352 12.8947 17.4808 12.7071 17.2933C12.5196 17.1057 12.2652 17.0004 12 17.0004ZM8.00002 11.0004C7.80224 11.0004 7.6089 11.059 7.44445 11.1689C7.28 11.2788 7.15183 11.435 7.07614 11.6177C7.00045 11.8004 6.98065 12.0015 7.01923 12.1955C7.05782 12.3895 7.15306 12.5676 7.29291 12.7075C7.43277 12.8473 7.61095 12.9426 7.80493 12.9812C7.99891 13.0198 8.19998 13 8.3827 12.9243C8.56543 12.8486 8.72161 12.7204 8.83149 12.556C8.94137 12.3915 9.00002 12.1982 9.00002 12.0004C9.00002 11.7352 8.89466 11.4808 8.70713 11.2933C8.51959 11.1057 8.26524 11.0004 8.00002 11.0004ZM12 13.0004C11.8022 13.0004 11.6089 13.059 11.4444 13.1689C11.28 13.2788 11.1518 13.435 11.0761 13.6177C11.0005 13.8004 10.9806 14.0015 11.0192 14.1955C11.0578 14.3895 11.1531 14.5676 11.2929 14.7075C11.4328 14.8473 11.6109 14.9426 11.8049 14.9812C11.9989 15.0198 12.2 15 12.3827 14.9243C12.5654 14.8486 12.7216 14.7204 12.8315 14.556C12.9414 14.3915 13 14.1982 13 14.0004C13 13.7352 12.8947 13.4808 12.7071 13.2933C12.5196 13.1057 12.2652 13.0004 12 13.0004ZM8.00002 19.0004C7.80224 19.0004 7.6089 19.059 7.44445 19.1689C7.28 19.2788 7.15183 19.435 7.07614 19.6177C7.00045 19.8004 6.98065 20.0015 7.01923 20.1955C7.05782 20.3895 7.15306 20.5676 7.29291 20.7075C7.43277 20.8473 7.61095 20.9426 7.80493 20.9812C7.99891 21.0198 8.19998 21 8.3827 20.9243C8.56543 20.8486 8.72161 20.7204 8.83149 20.556C8.94137 20.3915 9.00002 20.1982 9.00002 20.0004C9.00002 19.7352 8.89466 19.4808 8.70713 19.2933C8.51959 19.1057 8.26524 19.0004 8.00002 19.0004ZM8.00002 15.0004C7.80224 15.0004 7.6089 15.059 7.44445 15.1689C7.28 15.2788 7.15183 15.435 7.07614 15.6177C7.00045 15.8004 6.98065 16.0015 7.01923 16.1955C7.05782 16.3895 7.15306 16.5676 7.29291 16.7075C7.43277 16.8473 7.61095 16.9426 7.80493 16.9812C7.99891 17.0198 8.19998 17 8.3827 16.9243C8.56543 16.8486 8.72161 16.7204 8.83149 16.556C8.94137 16.3915 9.00002 16.1982 9.00002 16.0004C9.00002 15.7352 8.89466 15.4808 8.70713 15.2933C8.51959 15.1057 8.26524 15.0004 8.00002 15.0004ZM16 15.0004C15.8022 15.0004 15.6089 15.059 15.4444 15.1689C15.28 15.2788 15.1518 15.435 15.0761 15.6177C15.0005 15.8004 14.9806 16.0015 15.0192 16.1955C15.0578 16.3895 15.1531 16.5676 15.2929 16.7075C15.4328 16.8473 15.6109 16.9426 15.8049 16.9812C15.9989 17.0198 16.2 17 16.3827 16.9243C16.5654 16.8486 16.7216 16.7204 16.8315 16.556C16.9414 16.3915 17 16.1982 17 16.0004C17 15.7352 16.8947 15.4808 16.7071 15.2933C16.5196 15.1057 16.2652 15.0004 16 15.0004ZM12 9.00038C11.8022 9.00038 11.6089 9.05903 11.4444 9.16891C11.28 9.27879 11.1518 9.43497 11.0761 9.6177C11.0005 9.80043 10.9806 10.0015 11.0192 10.1955C11.0578 10.3895 11.1531 10.5676 11.2929 10.7075C11.4328 10.8473 11.6109 10.9426 11.8049 10.9812C11.9989 11.0198 12.2 11 12.3827 10.9243C12.5654 10.8486 12.7216 10.7204 12.8315 10.556C12.9414 10.3915 13 10.1982 13 10.0004C13 9.73517 12.8947 9.48081 12.7071 9.29328C12.5196 9.10574 12.2652 9.00038 12 9.00038ZM16 11.0004C15.8022 11.0004 15.6089 11.059 15.4444 11.1689C15.28 11.2788 15.1518 11.435 15.0761 11.6177C15.0005 11.8004 14.9806 12.0015 15.0192 12.1955C15.0578 12.3895 15.1531 12.5676 15.2929 12.7075C15.4328 12.8473 15.6109 12.9426 15.8049 12.9812C15.9989 13.0198 16.2 13 16.3827 12.9243C16.5654 12.8486 16.7216 12.7204 16.8315 12.556C16.9414 12.3915 17 12.1982 17 12.0004C17 11.7352 16.8947 11.4808 16.7071 11.2933C16.5196 11.1057 16.2652 11.0004 16 11.0004ZM18.42 6.22038C17.809 4.81639 16.7545 3.65146 15.4181 2.90411C14.0817 2.15676 12.5371 1.86822 11.021 2.08269C9.50489 2.29717 8.10095 3.00284 7.02427 4.09156C5.9476 5.18028 5.25761 6.592 5.06002 8.11038C4.18743 8.32135 3.41118 8.81971 2.85615 9.52529C2.30111 10.2309 1.99957 11.1027 2.00002 12.0004C1.99823 12.5668 2.11677 13.1271 2.34777 13.6443C2.57878 14.1615 2.91699 14.6237 3.34002 15.0004C3.43738 15.0939 3.55266 15.1667 3.67892 15.2145C3.80518 15.2623 3.9398 15.284 4.07467 15.2783C4.20955 15.2726 4.34188 15.2397 4.46369 15.1816C4.5855 15.1234 4.69428 15.0411 4.78346 14.9398C4.87264 14.8385 4.94037 14.7201 4.98259 14.5919C5.0248 14.4637 5.04062 14.3282 5.02909 14.1937C5.01755 14.0592 4.97891 13.9285 4.91548 13.8093C4.85205 13.6901 4.76515 13.5851 4.66002 13.5004C4.45032 13.3111 4.28309 13.0796 4.16933 12.8211C4.05557 12.5625 3.99787 12.2828 4.00002 12.0004C4.00002 11.47 4.21073 10.9612 4.58581 10.5862C4.96088 10.2111 5.46959 10.0004 6.00002 10.0004C6.26524 10.0004 6.51959 9.89503 6.70713 9.70749C6.89466 9.51995 7.00002 9.2656 7.00002 9.00038C7.00257 7.81766 7.42431 6.67414 8.19029 5.77297C8.95627 4.8718 10.0169 4.27133 11.1838 4.07826C12.3506 3.88518 13.5482 4.11199 14.5636 4.71839C15.579 5.32479 16.3466 6.27152 16.73 7.39038C16.7872 7.56222 16.8899 7.71531 17.0273 7.83332C17.1647 7.95132 17.3315 8.0298 17.51 8.06038C18.2042 8.18012 18.8341 8.54031 19.2893 9.07785C19.7446 9.61538 19.9962 10.296 20 11.0004C20.0153 11.7367 19.7509 12.4514 19.26 13.0004C19.1004 13.1992 19.0227 13.4515 19.0429 13.7056C19.063 13.9598 19.1795 14.1967 19.3686 14.3678C19.5576 14.539 19.8048 14.6314 20.0597 14.6263C20.3147 14.6212 20.558 14.5189 20.74 14.3404C21.2908 13.7109 21.6749 12.9534 21.8572 12.1371C22.0394 11.3207 22.0139 10.4717 21.7831 9.66782C21.5523 8.86389 21.1234 8.13071 20.5359 7.53542C19.9483 6.94012 19.2209 6.50173 18.42 6.26038V6.22038ZM16 19.0004C15.8022 19.0004 15.6089 19.059 15.4444 19.1689C15.28 19.2788 15.1518 19.435 15.0761 19.6177C15.0005 19.8004 14.9806 20.0015 15.0192 20.1955C15.0578 20.3895 15.1531 20.5676 15.2929 20.7075C15.4328 20.8473 15.6109 20.9426 15.8049 20.9812C15.9989 21.0198 16.2 21 16.3827 20.9243C16.5654 20.8486 16.7216 20.7204 16.8315 20.556C16.9414 20.3915 17 20.1982 17 20.0004C17 19.7352 16.8947 19.4808 16.7071 19.2933C16.5196 19.1057 16.2652 19.0004 16 19.0004Z" fill="black"/>
</svg>
