<svg width="24" height="24" viewBox="0 0 24 24" fill="none" xmlns="http://www.w3.org/2000/svg">
<path d="M10.5 7.99955C10.5 4.50955 7.2 2.25955 7.06 2.16955C6.89463 2.05778 6.6996 1.99805 6.5 1.99805C6.3004 1.99805 6.10537 2.05778 5.94 2.16955C5.8 2.26955 2.5 4.54955 2.5 7.99955C2.5 9.06042 2.92143 10.0778 3.67157 10.828C4.42172 11.5781 5.43913 11.9996 6.5 11.9996C7.56087 11.9996 8.57828 11.5781 9.32843 10.828C10.0786 10.0778 10.5 9.06042 10.5 7.99955ZM6.5 9.99955C5.96957 9.99955 5.46086 9.78884 5.08579 9.41377C4.71071 9.03869 4.5 8.52999 4.5 7.99955C4.56853 7.27747 4.78078 6.57639 5.12425 5.93754C5.46771 5.29869 5.93547 4.73497 6.5 4.27955C7.06664 4.73303 7.53587 5.29627 7.87954 5.9355C8.22321 6.57473 8.43425 7.27678 8.5 7.99955C8.5 8.52999 8.28929 9.03869 7.91421 9.41377C7.53914 9.78884 7.03043 9.99955 6.5 9.99955ZM18.06 2.16955C17.8946 2.05778 17.6996 1.99805 17.5 1.99805C17.3004 1.99805 17.1054 2.05778 16.94 2.16955C16.8 2.26955 13.5 4.54955 13.5 7.99955C13.5 9.06042 13.9214 10.0778 14.6716 10.828C15.4217 11.5781 16.4391 11.9996 17.5 11.9996C18.5609 11.9996 19.5783 11.5781 20.3284 10.828C21.0786 10.0778 21.5 9.06042 21.5 7.99955C21.5 4.50955 18.2 2.25955 18.06 2.16955ZM17.5 9.99955C16.9696 9.99955 16.4609 9.78884 16.0858 9.41377C15.7107 9.03869 15.5 8.52999 15.5 7.99955C15.5685 7.27747 15.7808 6.57639 16.1242 5.93754C16.4677 5.29869 16.9355 4.73497 17.5 4.27955C18.0666 4.73303 18.5359 5.29627 18.8795 5.9355C19.2232 6.57473 19.4343 7.27678 19.5 7.99955C19.5 8.52999 19.2893 9.03869 18.9142 9.41377C18.5391 9.78884 18.0304 9.99955 17.5 9.99955ZM13.06 12.1696C12.8946 12.0578 12.6996 11.998 12.5 11.998C12.3004 11.998 12.1054 12.0578 11.94 12.1696C11.8 12.2696 8.5 14.5496 8.5 17.9996C8.5 19.0604 8.92143 20.0778 9.67157 20.828C10.4217 21.5781 11.4391 21.9996 12.5 21.9996C13.5609 21.9996 14.5783 21.5781 15.3284 20.828C16.0786 20.0778 16.5 19.0604 16.5 17.9996C16.5 14.5096 13.2 12.2596 13.06 12.1696ZM12.5 19.9996C11.9696 19.9996 11.4609 19.7888 11.0858 19.4138C10.7107 19.0387 10.5 18.53 10.5 17.9996C10.5685 17.2775 10.7808 16.5764 11.1242 15.9375C11.4677 15.2987 11.9355 14.735 12.5 14.2796C13.0666 14.733 13.5359 15.2963 13.8795 15.9355C14.2232 16.5747 14.4343 17.2768 14.5 17.9996C14.5 18.53 14.2893 19.0387 13.9142 19.4138C13.5391 19.7888 13.0304 19.9996 12.5 19.9996Z" fill="black"/>
</svg>
