<svg width="24" height="24" viewBox="0 0 24 24" fill="none" xmlns="http://www.w3.org/2000/svg">
<path d="M9 7.74955C9 4.99955 6.42 3.23955 6.31 3.16955C6.14463 3.05778 5.9496 2.99805 5.75 2.99805C5.5504 2.99805 5.35537 3.05778 5.19 3.16955C5.08 3.24955 2.5 4.99955 2.5 7.74955C2.5 8.61151 2.84241 9.43816 3.4519 10.0477C4.0614 10.6571 4.88805 10.9996 5.75 10.9996C6.61195 10.9996 7.4386 10.6571 8.0481 10.0477C8.65759 9.43816 9 8.61151 9 7.74955ZM5.75 8.99955C5.41848 8.99955 5.10054 8.86786 4.86612 8.63344C4.6317 8.39902 4.5 8.08107 4.5 7.74955C4.58229 6.80143 5.03065 5.92265 5.75 5.29955C6.47364 5.91928 6.92296 6.79994 7 7.74955C7 8.08107 6.8683 8.39902 6.63388 8.63344C6.39946 8.86786 6.08152 8.99955 5.75 8.99955ZM11.81 10.1696C11.6446 10.0578 11.4496 9.99805 11.25 9.99805C11.0504 9.99805 10.8554 10.0578 10.69 10.1696C10.52 10.2896 6.5 13.0696 6.5 17.2496C6.5 18.5093 7.00045 19.7175 7.89124 20.6083C8.78204 21.4991 9.99022 21.9996 11.25 21.9996C12.5098 21.9996 13.718 21.4991 14.6088 20.6083C15.4996 19.7175 16 18.5093 16 17.2496C16 12.9996 12 10.2796 11.81 10.1696ZM11.25 19.9996C10.8889 19.9996 10.5313 19.9284 10.1976 19.7902C9.86398 19.652 9.56082 19.4495 9.30546 19.1941C9.0501 18.9387 8.84753 18.6356 8.70933 18.3019C8.57113 17.9683 8.5 17.6107 8.5 17.2496C8.5 14.9396 10.31 13.0796 11.26 12.2496C12.2 13.0396 14 14.8796 14 17.2496C14 17.6107 13.9289 17.9683 13.7907 18.3019C13.6525 18.6356 13.4499 18.9387 13.1945 19.1941C12.9392 19.4495 12.636 19.652 12.3024 19.7902C11.9687 19.9284 11.6111 19.9996 11.25 19.9996ZM18.06 2.16955C17.8946 2.05778 17.6996 1.99805 17.5 1.99805C17.3004 1.99805 17.1054 2.05778 16.94 2.16955C16.8 2.26955 13.5 4.54955 13.5 7.99955C13.5 9.06042 13.9214 10.0778 14.6716 10.828C15.4217 11.5781 16.4391 11.9996 17.5 11.9996C18.5609 11.9996 19.5783 11.5781 20.3284 10.828C21.0786 10.0778 21.5 9.06042 21.5 7.99955C21.5 4.50955 18.2 2.25955 18.06 2.16955ZM17.5 9.99955C16.9696 9.99955 16.4609 9.78884 16.0858 9.41377C15.7107 9.03869 15.5 8.52999 15.5 7.99955C15.5685 7.27747 15.7808 6.57639 16.1242 5.93754C16.4677 5.29869 16.9355 4.73497 17.5 4.27955C18.0666 4.73303 18.5359 5.29627 18.8795 5.9355C19.2232 6.57473 19.4343 7.27678 19.5 7.99955C19.5 8.52999 19.2893 9.03869 18.9142 9.41377C18.5391 9.78884 18.0304 9.99955 17.5 9.99955Z" fill="black"/>
</svg>
