<svg width="24" height="24" viewBox="0 0 24 24" fill="none" xmlns="http://www.w3.org/2000/svg">
<path d="M12.5599 12.6704C12.3946 12.5586 12.1995 12.4989 11.9999 12.4989C11.8003 12.4989 11.6053 12.5586 11.4399 12.6704C11.3299 12.7504 8.74994 14.5304 8.74994 17.2504C8.74994 18.1123 9.09235 18.939 9.70184 19.5485C10.3113 20.158 11.138 20.5004 11.9999 20.5004C12.8619 20.5004 13.6885 20.158 14.298 19.5485C14.9075 18.939 15.2499 18.1123 15.2499 17.2504C15.2499 14.5004 12.6699 12.7404 12.5599 12.6704ZM11.9999 18.5004C11.6684 18.5004 11.3505 18.3687 11.1161 18.1343C10.8816 17.8998 10.7499 17.5819 10.7499 17.2504C10.8322 16.3023 11.2806 15.4235 11.9999 14.8004C12.7236 15.4201 13.1729 16.3008 13.2499 17.2504C13.2499 17.5819 13.1182 17.8998 12.8838 18.1343C12.6494 18.3687 12.3315 18.5004 11.9999 18.5004ZM18.4199 7.72038C17.8089 6.31639 16.7544 5.15146 15.418 4.40411C14.0816 3.65676 12.537 3.36822 11.0209 3.58269C9.50482 3.79717 8.10087 4.50284 7.0242 5.59156C5.94753 6.68028 5.25753 8.092 5.05994 9.61038C4.13911 9.83634 3.32848 10.3821 2.77263 11.1502C2.21679 11.9183 1.95188 12.8589 2.02515 13.8042C2.09842 14.7496 2.50511 15.6381 3.17268 16.3114C3.84025 16.9847 4.72529 17.399 5.66994 17.4804H5.74994C6.00186 17.4812 6.24481 17.3869 6.4302 17.2163C6.6156 17.0458 6.72979 16.8115 6.74994 16.5604C6.76088 16.429 6.74572 16.2967 6.70533 16.1712C6.66495 16.0457 6.60014 15.9294 6.51463 15.829C6.42912 15.7286 6.32461 15.6461 6.2071 15.5863C6.08959 15.5265 5.96141 15.4905 5.82994 15.4804C5.33294 15.438 4.86971 15.2114 4.53115 14.8451C4.19258 14.4788 4.00312 13.9992 3.99994 13.5004C3.99994 12.97 4.21065 12.4612 4.58573 12.0862C4.9608 11.7111 5.46951 11.5004 5.99994 11.5004C6.26516 11.5004 6.51951 11.395 6.70705 11.2075C6.89458 11.02 6.99994 10.7656 6.99994 10.5004C7.0025 9.31766 7.42423 8.17414 8.19021 7.27297C8.95619 6.3718 10.0168 5.77133 11.1837 5.57826C12.3505 5.38518 13.5481 5.61199 14.5635 6.21839C15.5789 6.82479 16.3465 7.77152 16.7299 8.89038C16.7871 9.06222 16.8899 9.21531 17.0272 9.33332C17.1646 9.45132 17.3314 9.5298 17.5099 9.56038C18.163 9.67982 18.758 10.0125 19.2017 10.5063C19.6454 11.0001 19.9128 11.6272 19.962 12.2892C20.0111 12.9513 19.8393 13.611 19.4734 14.1649C19.1075 14.7189 18.5682 15.1358 17.9399 15.3504C17.6971 15.4398 17.4985 15.6198 17.3856 15.8527C17.2728 16.0855 17.2546 16.353 17.3348 16.599C17.4151 16.845 17.5876 17.0503 17.816 17.1717C18.0445 17.2932 18.3111 17.3214 18.5599 17.2504C19.5669 16.9143 20.4408 16.2663 21.055 15.4005C21.6693 14.5346 21.9919 13.4957 21.9763 12.4342C21.9607 11.3727 21.6077 10.3437 20.9683 9.49621C20.3289 8.64874 19.4364 8.02678 18.4199 7.72038Z" fill="black"/>
</svg>
