<svg width="24" height="24" viewBox="0 0 24 24" fill="none" xmlns="http://www.w3.org/2000/svg">
<path d="M21.7 7.56986C21.5795 7.45153 21.4311 7.36563 21.2685 7.32016C21.1058 7.2747 20.9344 7.27115 20.77 7.30986C20.5534 7.35937 20.3322 7.38618 20.11 7.38986C19.3144 7.38986 18.5513 7.07379 17.9887 6.51118C17.4261 5.94857 17.11 5.18551 17.11 4.38986C17.1129 4.17092 17.1397 3.95296 17.19 3.73986C17.2297 3.57479 17.2268 3.40232 17.1814 3.23871C17.1361 3.07509 17.0498 2.92572 16.9307 2.80467C16.8117 2.68362 16.6638 2.59487 16.5009 2.54679C16.3381 2.49871 16.1657 2.49288 16 2.52986C15.0047 2.7496 14.102 3.27242 13.4161 4.02636C12.7302 4.78029 12.2949 5.72829 12.17 6.73986C11.6268 6.58462 11.065 6.50389 10.5 6.49986C9.05886 6.49904 7.66557 7.01696 6.57488 7.95892C5.48419 8.90088 4.76897 10.2039 4.56001 11.6299C3.86364 11.8238 3.2444 12.2285 2.78734 12.7886C2.33028 13.3486 2.05784 14.0364 2.00743 14.7575C1.95701 15.4786 2.13111 16.1976 2.5058 16.8158C2.88049 17.4339 3.43739 17.9209 4.10001 18.2099C4.22744 18.2604 4.36295 18.2875 4.50001 18.2899C4.7312 18.2917 4.95591 18.2135 5.13589 18.0683C5.31586 17.9232 5.43999 17.7202 5.48715 17.4938C5.5343 17.2675 5.50157 17.0318 5.39452 16.8269C5.28747 16.622 5.11272 16.4605 4.90001 16.3699C4.6317 16.2556 4.40314 16.0646 4.24302 15.8208C4.0829 15.5771 3.99836 15.2915 4.00001 14.9999C4.00001 14.602 4.15804 14.2205 4.43935 13.9392C4.72065 13.6579 5.10218 13.4999 5.50001 13.4999C5.76522 13.4999 6.01958 13.3945 6.20711 13.207C6.39465 13.0194 6.50001 12.7651 6.50001 12.4999C6.50001 11.439 6.92143 10.4216 7.67158 9.67143C8.42172 8.92129 9.43914 8.49986 10.5 8.49986C11.276 8.49924 12.0347 8.72894 12.68 9.15986C13.4069 9.63802 13.9581 10.3402 14.25 11.1599C14.3072 11.3317 14.4099 11.4848 14.5473 11.6028C14.6847 11.7208 14.8515 11.7993 15.03 11.8299C15.5106 11.8819 15.9629 12.0827 16.3238 12.4043C16.6846 12.7259 16.936 13.1522 17.0429 13.6236C17.1497 14.095 17.1066 14.588 16.9197 15.0338C16.7327 15.4795 16.4112 15.8557 16 16.1099C15.7772 16.2557 15.6215 16.4841 15.5671 16.7448C15.5127 17.0055 15.5641 17.2771 15.71 17.4999C15.8559 17.7226 16.0843 17.8784 16.3449 17.9327C16.6056 17.9871 16.8772 17.9357 17.1 17.7899C17.691 17.3903 18.1738 16.8505 18.5053 16.2188C18.8369 15.5872 19.0068 14.8832 19 14.1699C19.0039 13.473 18.8356 12.786 18.51 12.1699C19.3688 11.93 20.1467 11.4622 20.7611 10.8161C21.3755 10.17 21.8036 9.36961 22 8.49986C22.0337 8.33213 22.0239 8.15855 21.9713 7.99572C21.9188 7.83289 21.8254 7.68626 21.7 7.56986ZM17.11 10.3899C16.9702 10.4011 16.8298 10.4011 16.69 10.3899C16.4717 10.2402 16.2408 10.1098 16 9.99986C15.5902 9.1017 14.965 8.31855 14.18 7.71986C14.18 7.59986 14.18 7.46986 14.18 7.34986C14.18 6.91654 14.2738 6.48835 14.4551 6.09476C14.6363 5.70117 14.9007 5.35152 15.23 5.06986C15.3848 6.13671 15.8803 7.12495 16.6426 7.88724C17.4049 8.64952 18.3932 9.14502 19.46 9.29986C19.1746 9.64558 18.8154 9.92295 18.4087 10.1116C18.002 10.3002 17.5583 10.3953 17.11 10.3899ZM11.11 14.3299C10.9446 14.2181 10.7496 14.1584 10.55 14.1584C10.3504 14.1584 10.1554 14.2181 9.99001 14.3299C9.84001 14.4099 7.50001 15.9999 7.50001 18.4999C7.50001 19.2955 7.81608 20.0586 8.37868 20.6212C8.94129 21.1838 9.70436 21.4999 10.5 21.4999C11.2957 21.4999 12.0587 21.1838 12.6213 20.6212C13.1839 20.0586 13.5 19.2955 13.5 18.4999C13.5 15.9999 11.15 14.3999 11.06 14.3299H11.11ZM10.5 19.4999C10.2348 19.4999 9.98044 19.3945 9.7929 19.207C9.60536 19.0194 9.50001 18.7651 9.50001 18.4999C9.56315 17.7292 9.92139 17.0127 10.5 16.4999C11.0786 17.0127 11.4369 17.7292 11.5 18.4999C11.5 18.7651 11.3946 19.0194 11.2071 19.207C11.0196 19.3945 10.7652 19.4999 10.5 19.4999Z" fill="black"/>
</svg>
