<svg width="24" height="24" viewBox="0 0 24 24" fill="none" xmlns="http://www.w3.org/2000/svg">
<path d="M12.89 18.0604C12.6407 17.9703 12.3658 17.9829 12.1258 18.0954C11.8858 18.2079 11.7003 18.4111 11.61 18.6604L10.88 20.6604C10.79 20.9097 10.8026 21.1846 10.9151 21.4246C11.0276 21.6646 11.2308 21.8501 11.48 21.9404C11.589 21.9799 11.7041 22.0002 11.82 22.0004C12.0255 22.0003 12.226 21.9369 12.3942 21.8188C12.5624 21.7007 12.6901 21.5337 12.76 21.3404L13.49 19.3404C13.5801 19.0911 13.5675 18.8162 13.455 18.5762C13.3425 18.3362 13.1393 18.1506 12.89 18.0604ZM8.89002 18.0604C8.64071 17.9703 8.36584 17.9829 8.12583 18.0954C7.88581 18.2079 7.70028 18.4111 7.61002 18.6604L6.88002 20.6604C6.78996 20.9097 6.80257 21.1846 6.91507 21.4246C7.02758 21.6646 7.23078 21.8501 7.48002 21.9404C7.58902 21.9799 7.70407 22.0002 7.82002 22.0004C8.02553 22.0003 8.22603 21.9369 8.39423 21.8188C8.56242 21.7007 8.69015 21.5337 8.76002 21.3404L9.49002 19.3404C9.58008 19.0911 9.56747 18.8162 9.45497 18.5762C9.34246 18.3362 9.13926 18.1506 8.89002 18.0604ZM8.89002 11.0604C8.64071 10.9703 8.36584 10.9829 8.12583 11.0954C7.88581 11.2079 7.70028 11.4111 7.61002 11.6604L6.51002 14.6604C6.45544 14.8114 6.438 14.9733 6.4592 15.1324C6.48039 15.2915 6.53959 15.4432 6.63179 15.5747C6.72398 15.7061 6.84647 15.8134 6.98889 15.8875C7.13131 15.9616 7.28948 16.0003 7.45002 16.0004C7.65553 16.0003 7.85603 15.9369 8.02423 15.8188C8.19242 15.7007 8.32015 15.5337 8.39002 15.3404L9.49002 12.3404C9.58008 12.0911 9.56747 11.8162 9.45497 11.5762C9.34246 11.3362 9.13926 11.1506 8.89002 11.0604ZM12.89 11.0604C12.6407 10.9703 12.3658 10.9829 12.1258 11.0954C11.8858 11.2079 11.7003 11.4111 11.61 11.6604L10.51 14.6604C10.4554 14.8114 10.438 14.9733 10.4592 15.1324C10.4804 15.2915 10.5396 15.4432 10.6318 15.5747C10.724 15.7061 10.8465 15.8134 10.9889 15.8875C11.1313 15.9616 11.2895 16.0003 11.45 16.0004C11.6555 16.0003 11.856 15.9369 12.0242 15.8188C12.1924 15.7007 12.3201 15.5337 12.39 15.3404L13.49 12.3404C13.5801 12.0911 13.5675 11.8162 13.455 11.5762C13.3425 11.3362 13.1393 11.1506 12.89 11.0604ZM18.42 6.22038C17.809 4.81639 16.7545 3.65146 15.4181 2.90411C14.0817 2.15676 12.5371 1.86822 11.021 2.08269C9.50489 2.29717 8.10095 3.00284 7.02427 4.09156C5.9476 5.18028 5.25761 6.592 5.06002 8.11038C4.18743 8.32135 3.41118 8.81971 2.85615 9.52529C2.30111 10.2309 1.99957 11.1027 2.00002 12.0004C1.99823 12.5668 2.11677 13.1271 2.34777 13.6443C2.57878 14.1615 2.91699 14.6237 3.34002 15.0004C3.43738 15.0939 3.55266 15.1667 3.67892 15.2145C3.80518 15.2623 3.9398 15.284 4.07467 15.2783C4.20955 15.2726 4.34188 15.2397 4.46369 15.1816C4.5855 15.1234 4.69428 15.0411 4.78346 14.9398C4.87264 14.8385 4.94037 14.7201 4.98259 14.5919C5.0248 14.4637 5.04062 14.3282 5.02909 14.1937C5.01755 14.0592 4.97891 13.9285 4.91548 13.8093C4.85205 13.6901 4.76515 13.5851 4.66002 13.5004C4.45032 13.3111 4.28309 13.0796 4.16933 12.8211C4.05557 12.5625 3.99787 12.2828 4.00002 12.0004C4.00002 11.47 4.21073 10.9612 4.58581 10.5862C4.96088 10.2111 5.46959 10.0004 6.00002 10.0004C6.26524 10.0004 6.51959 9.89503 6.70713 9.70749C6.89466 9.51995 7.00002 9.2656 7.00002 9.00038C7.00257 7.81766 7.42431 6.67414 8.19029 5.77297C8.95627 4.8718 10.0169 4.27133 11.1838 4.07826C12.3506 3.88518 13.5482 4.11199 14.5636 4.71839C15.579 5.32479 16.3466 6.27152 16.73 7.39038C16.7872 7.56222 16.8899 7.71531 17.0273 7.83332C17.1647 7.95132 17.3315 8.0298 17.51 8.06038C18.2042 8.18012 18.8341 8.54031 19.2893 9.07785C19.7446 9.61538 19.9962 10.296 20 11.0004C20.0153 11.7367 19.7509 12.4514 19.26 13.0004C19.1004 13.1992 19.0227 13.4515 19.0429 13.7056C19.063 13.9598 19.1795 14.1967 19.3686 14.3678C19.5576 14.539 19.8048 14.6314 20.0597 14.6263C20.3147 14.6212 20.558 14.5189 20.74 14.3404C21.2908 13.7109 21.6749 12.9534 21.8572 12.1371C22.0394 11.3207 22.0139 10.4717 21.7831 9.66782C21.5523 8.86389 21.1234 8.13071 20.5359 7.53542C19.9483 6.94012 19.2209 6.50173 18.42 6.26038V6.22038ZM16.89 18.0604C16.6407 17.9703 16.3658 17.9829 16.1258 18.0954C15.8858 18.2079 15.7003 18.4111 15.61 18.6604L14.88 20.6604C14.79 20.9097 14.8026 21.1846 14.9151 21.4246C15.0276 21.6646 15.2308 21.8501 15.48 21.9404C15.589 21.9799 15.7041 22.0002 15.82 22.0004C16.0255 22.0003 16.226 21.9369 16.3942 21.8188C16.5624 21.7007 16.6901 21.5337 16.76 21.3404L17.49 19.3404C17.5801 19.0911 17.5675 18.8162 17.455 18.5762C17.3425 18.3362 17.1393 18.1506 16.89 18.0604ZM16.89 11.0604C16.6407 10.9703 16.3658 10.9829 16.1258 11.0954C15.8858 11.2079 15.7003 11.4111 15.61 11.6604L14.51 14.6604C14.4554 14.8114 14.438 14.9733 14.4592 15.1324C14.4804 15.2915 14.5396 15.4432 14.6318 15.5747C14.724 15.7061 14.8465 15.8134 14.9889 15.8875C15.1313 15.9616 15.2895 16.0003 15.45 16.0004C15.6555 16.0003 15.856 15.9369 16.0242 15.8188C16.1924 15.7007 16.3201 15.5337 16.39 15.3404L17.49 12.3404C17.5801 12.0911 17.5675 11.8162 17.455 11.5762C17.3425 11.3362 17.1393 11.1506 16.89 11.0604Z" fill="black"/>
</svg>
