<svg width="24" height="24" viewBox="0 0 24 24" fill="none" xmlns="http://www.w3.org/2000/svg">
<path d="M12 19.0004C11.7348 19.0004 11.4804 19.1057 11.2929 19.2933C11.1054 19.4808 11 19.7352 11 20.0004V21.0004C11 21.2656 11.1054 21.52 11.2929 21.7075C11.4804 21.895 11.7348 22.0004 12 22.0004C12.2652 22.0004 12.5196 21.895 12.7071 21.7075C12.8947 21.52 13 21.2656 13 21.0004V20.0004C13 19.7352 12.8947 19.4808 12.7071 19.2933C12.5196 19.1057 12.2652 19.0004 12 19.0004ZM8.00002 11.0004C7.7348 11.0004 7.48045 11.1057 7.29291 11.2933C7.10538 11.4808 7.00002 11.7352 7.00002 12.0004V13.0004C7.00002 13.2656 7.10538 13.52 7.29291 13.7075C7.48045 13.895 7.7348 14.0004 8.00002 14.0004C8.26524 14.0004 8.51959 13.895 8.70713 13.7075C8.89466 13.52 9.00002 13.2656 9.00002 13.0004V12.0004C9.00002 11.7352 8.89466 11.4808 8.70713 11.2933C8.51959 11.1057 8.26524 11.0004 8.00002 11.0004ZM8.00002 16.0004C7.7348 16.0004 7.48045 16.1057 7.29291 16.2933C7.10538 16.4808 7.00002 16.7352 7.00002 17.0004V18.0004C7.00002 18.2656 7.10538 18.52 7.29291 18.7075C7.48045 18.895 7.7348 19.0004 8.00002 19.0004C8.26524 19.0004 8.51959 18.895 8.70713 18.7075C8.89466 18.52 9.00002 18.2656 9.00002 18.0004V17.0004C9.00002 16.7352 8.89466 16.4808 8.70713 16.2933C8.51959 16.1057 8.26524 16.0004 8.00002 16.0004ZM12 14.0004C11.7348 14.0004 11.4804 14.1057 11.2929 14.2933C11.1054 14.4808 11 14.7352 11 15.0004V16.0004C11 16.2656 11.1054 16.52 11.2929 16.7075C11.4804 16.895 11.7348 17.0004 12 17.0004C12.2652 17.0004 12.5196 16.895 12.7071 16.7075C12.8947 16.52 13 16.2656 13 16.0004V15.0004C13 14.7352 12.8947 14.4808 12.7071 14.2933C12.5196 14.1057 12.2652 14.0004 12 14.0004ZM18.42 6.22038C17.809 4.81639 16.7545 3.65146 15.4181 2.90411C14.0817 2.15676 12.5371 1.86822 11.021 2.08269C9.50489 2.29717 8.10095 3.00284 7.02427 4.09156C5.9476 5.18028 5.25761 6.592 5.06002 8.11038C4.18743 8.32135 3.41118 8.81971 2.85615 9.52529C2.30111 10.2309 1.99957 11.1027 2.00002 12.0004C1.99823 12.5668 2.11677 13.1271 2.34777 13.6443C2.57878 14.1615 2.91699 14.6237 3.34002 15.0004C3.43738 15.0939 3.55266 15.1667 3.67892 15.2145C3.80518 15.2623 3.9398 15.284 4.07467 15.2783C4.20955 15.2726 4.34188 15.2397 4.46369 15.1816C4.5855 15.1234 4.69428 15.0411 4.78346 14.9398C4.87264 14.8385 4.94037 14.7201 4.98259 14.5919C5.0248 14.4637 5.04062 14.3282 5.02909 14.1937C5.01755 14.0592 4.97891 13.9285 4.91548 13.8093C4.85205 13.6901 4.76515 13.5851 4.66002 13.5004C4.45032 13.3111 4.28309 13.0796 4.16933 12.8211C4.05557 12.5625 3.99787 12.2828 4.00002 12.0004C4.00002 11.47 4.21073 10.9612 4.58581 10.5862C4.96088 10.2111 5.46959 10.0004 6.00002 10.0004C6.26524 10.0004 6.51959 9.89503 6.70713 9.70749C6.89466 9.51995 7.00002 9.2656 7.00002 9.00038C7.00257 7.81766 7.42431 6.67414 8.19029 5.77297C8.95627 4.8718 10.0169 4.27133 11.1838 4.07826C12.3506 3.88518 13.5482 4.11199 14.5636 4.71839C15.579 5.32479 16.3466 6.27152 16.73 7.39038C16.7872 7.56222 16.8899 7.71531 17.0273 7.83332C17.1647 7.95132 17.3315 8.0298 17.51 8.06038C18.2042 8.18012 18.8341 8.54031 19.2893 9.07785C19.7446 9.61538 19.9962 10.296 20 11.0004C20.0153 11.7367 19.7509 12.4514 19.26 13.0004C19.1004 13.1992 19.0227 13.4515 19.0429 13.7056C19.063 13.9598 19.1795 14.1967 19.3686 14.3678C19.5576 14.539 19.8048 14.6314 20.0597 14.6263C20.3147 14.6212 20.558 14.5189 20.74 14.3404C21.2908 13.7109 21.6749 12.9534 21.8572 12.1371C22.0394 11.3207 22.0139 10.4717 21.7831 9.66782C21.5523 8.86389 21.1234 8.13071 20.5359 7.53542C19.9483 6.94012 19.2209 6.50173 18.42 6.26038V6.22038ZM16 11.0004C15.7348 11.0004 15.4804 11.1057 15.2929 11.2933C15.1054 11.4808 15 11.7352 15 12.0004V13.0004C15 13.2656 15.1054 13.52 15.2929 13.7075C15.4804 13.895 15.7348 14.0004 16 14.0004C16.2652 14.0004 16.5196 13.895 16.7071 13.7075C16.8947 13.52 17 13.2656 17 13.0004V12.0004C17 11.7352 16.8947 11.4808 16.7071 11.2933C16.5196 11.1057 16.2652 11.0004 16 11.0004ZM16 16.0004C15.7348 16.0004 15.4804 16.1057 15.2929 16.2933C15.1054 16.4808 15 16.7352 15 17.0004V18.0004C15 18.2656 15.1054 18.52 15.2929 18.7075C15.4804 18.895 15.7348 19.0004 16 19.0004C16.2652 19.0004 16.5196 18.895 16.7071 18.7075C16.8947 18.52 17 18.2656 17 18.0004V17.0004C17 16.7352 16.8947 16.4808 16.7071 16.2933C16.5196 16.1057 16.2652 16.0004 16 16.0004ZM12 9.00038C11.7348 9.00038 11.4804 9.10574 11.2929 9.29328C11.1054 9.48081 11 9.73517 11 10.0004V11.0004C11 11.2656 11.1054 11.52 11.2929 11.7075C11.4804 11.895 11.7348 12.0004 12 12.0004C12.2652 12.0004 12.5196 11.895 12.7071 11.7075C12.8947 11.52 13 11.2656 13 11.0004V10.0004C13 9.73517 12.8947 9.48081 12.7071 9.29328C12.5196 9.10574 12.2652 9.00038 12 9.00038Z" fill="black"/>
</svg>
