<svg width="24" height="24" viewBox="0 0 24 24" fill="none" xmlns="http://www.w3.org/2000/svg">
<path d="M13.5 15.0003H11.23L12.68 12.5003C12.7457 12.386 12.7882 12.26 12.8051 12.1293C12.8221 11.9986 12.8131 11.8659 12.7787 11.7386C12.7444 11.6114 12.6853 11.4922 12.6049 11.3878C12.5245 11.2835 12.4243 11.1959 12.31 11.1303C12.1958 11.0646 12.0697 11.0221 11.939 11.0052C11.8083 10.9882 11.6756 10.9972 11.5484 11.0315C11.4212 11.0659 11.302 11.125 11.1976 11.2054C11.0932 11.2858 11.0057 11.386 10.94 11.5003L8.63001 15.5003C8.54224 15.6523 8.49604 15.8247 8.49604 16.0003C8.49604 16.1758 8.54224 16.3483 8.63001 16.5003C8.71812 16.6529 8.84498 16.7795 8.99776 16.8673C9.15054 16.9551 9.3238 17.001 9.50001 17.0003H11.77L10.32 19.5003C10.1874 19.731 10.1519 20.005 10.2213 20.2619C10.2907 20.5188 10.4593 20.7377 10.69 20.8703C10.9208 21.0029 11.1947 21.0384 11.4516 20.969C11.7086 20.8996 11.9274 20.731 12.06 20.5003L14.37 16.5003C14.4578 16.3483 14.504 16.1758 14.504 16.0003C14.504 15.8247 14.4578 15.6523 14.37 15.5003C14.2819 15.3477 14.155 15.2211 14.0023 15.1333C13.8495 15.0455 13.6762 14.9996 13.5 15.0003ZM18.42 7.21028C17.8083 5.80609 16.753 4.64128 15.4157 3.89443C14.0785 3.14759 12.5333 2.85995 11.0169 3.0756C9.50051 3.29125 8.09671 3.9983 7.02073 5.08834C5.94475 6.17837 5.25597 7.59123 5.06001 9.11028C4.1066 9.3386 3.27023 9.90911 2.70975 10.7135C2.14927 11.5178 1.9037 12.5 2.01968 13.4735C2.13566 14.447 2.60511 15.344 3.33888 15.9941C4.07265 16.6443 5.01964 17.0023 6.00001 17.0003C6.26523 17.0003 6.51958 16.8949 6.70712 16.7074C6.89466 16.5198 7.00001 16.2655 7.00001 16.0003C7.00001 15.7351 6.89466 15.4807 6.70712 15.2932C6.51958 15.1056 6.26523 15.0003 6.00001 15.0003C5.46958 15.0003 4.96087 14.7896 4.5858 14.4145C4.21073 14.0394 4.00001 13.5307 4.00001 13.0003C4.00001 12.4698 4.21073 11.9611 4.5858 11.5861C4.96087 11.211 5.46958 11.0003 6.00001 11.0003C6.26523 11.0003 6.51958 10.8949 6.70712 10.7074C6.89466 10.5198 7.00001 10.2655 7.00001 10.0003C7.00257 8.81756 7.4243 7.67403 8.19028 6.77286C8.95627 5.87169 10.0169 5.27123 11.1838 5.07815C12.3506 4.88507 13.5481 5.11188 14.5636 5.71829C15.579 6.32469 16.3466 7.27142 16.73 8.39028C16.7887 8.56025 16.8921 8.71127 17.0294 8.82742C17.1666 8.94357 17.3327 9.02056 17.51 9.05028C18.243 9.18553 18.8994 9.58881 19.3513 10.1815C19.8033 10.7743 20.0183 11.514 19.9547 12.2567C19.891 12.9993 19.5532 13.6917 19.007 14.1989C18.4608 14.706 17.7453 14.9917 17 15.0003C16.7348 15.0003 16.4804 15.1056 16.2929 15.2932C16.1054 15.4807 16 15.7351 16 16.0003C16 16.2655 16.1054 16.5198 16.2929 16.7074C16.4804 16.8949 16.7348 17.0003 17 17.0003C18.1994 16.997 19.3576 16.5627 20.2634 15.7766C21.1692 14.9905 21.7623 13.905 21.9345 12.718C22.1066 11.5311 21.8464 10.3218 21.2012 9.31074C20.5561 8.29967 19.569 7.5542 18.42 7.21028Z" fill="black"/>
</svg>
