<svg width="24" height="24" viewBox="0 0 24 24" fill="none" xmlns="http://www.w3.org/2000/svg">
<path d="M11.5801 16.4999H10.3201L11.1801 14.9999C11.2524 14.886 11.301 14.7588 11.3229 14.6257C11.3448 14.4926 11.3395 14.3565 11.3074 14.2255C11.2753 14.0945 11.2171 13.9713 11.1362 13.8634C11.0553 13.7555 10.9533 13.6651 10.8366 13.5976C10.7198 13.5301 10.5906 13.4869 10.4567 13.4707C10.3228 13.4544 10.187 13.4654 10.0575 13.503C9.92799 13.5406 9.8074 13.6039 9.70301 13.6893C9.59861 13.7747 9.51257 13.8804 9.45006 13.9999L7.72006 16.9999C7.63254 17.1514 7.58634 17.3233 7.58607 17.4984C7.58581 17.6734 7.63148 17.8454 7.71854 17.9973C7.8056 18.1491 7.93098 18.2754 8.08216 18.3636C8.23335 18.4518 8.40503 18.4988 8.58006 18.4999H9.85006L9.00006 19.9999C8.86745 20.2306 8.83193 20.5046 8.90132 20.7615C8.97071 21.0184 9.13932 21.2372 9.37006 21.3699C9.60079 21.5025 9.87476 21.538 10.1317 21.4686C10.3886 21.3992 10.6074 21.2306 10.7401 20.9999L12.4701 17.9999C12.5578 17.8478 12.604 17.6754 12.604 17.4999C12.604 17.3243 12.5578 17.1519 12.4701 16.9999C12.3803 16.8443 12.2503 16.7157 12.0937 16.6277C11.9371 16.5398 11.7596 16.4956 11.5801 16.4999ZM21.7001 7.56986C21.5796 7.45153 21.4311 7.36563 21.2685 7.32016C21.1059 7.2747 20.9344 7.27115 20.7701 7.30986C20.5534 7.35937 20.3322 7.38618 20.1101 7.38986C19.3144 7.38986 18.5513 7.07379 17.9887 6.51118C17.4261 5.94857 17.1101 5.18551 17.1101 4.38986C17.1129 4.17092 17.1397 3.95296 17.1901 3.73986C17.2298 3.57479 17.2268 3.40232 17.1815 3.23871C17.1361 3.07509 17.0498 2.92572 16.9308 2.80467C16.8117 2.68362 16.6638 2.59487 16.501 2.54679C16.3382 2.49871 16.1658 2.49288 16.0001 2.52986C15.0048 2.7496 14.1021 3.27242 13.4162 4.02636C12.7303 4.78029 12.2949 5.72829 12.1701 6.73986C11.6268 6.58462 11.065 6.50389 10.5001 6.49986C9.05891 6.49904 7.66562 7.01696 6.57493 7.95892C5.48424 8.90088 4.76902 10.2039 4.56006 11.6299C3.85177 11.8238 3.22271 12.2363 2.76242 12.8085C2.30214 13.3807 2.03408 14.0835 1.99642 14.8169C1.95875 15.5503 2.15339 16.2769 2.55263 16.8933C2.95187 17.5096 3.53536 17.9844 4.22006 18.2499C4.34431 18.3089 4.47942 18.3417 4.61691 18.3461C4.75441 18.3506 4.89135 18.3266 5.01916 18.2757C5.14697 18.2248 5.26291 18.1481 5.35971 18.0503C5.45652 17.9526 5.53212 17.8359 5.58178 17.7076C5.63145 17.5793 5.6541 17.4422 5.64834 17.3047C5.64257 17.1673 5.60851 17.0325 5.54828 16.9088C5.48804 16.7851 5.40294 16.6752 5.29829 16.5859C5.19363 16.4966 5.07168 16.4299 4.94006 16.3899C4.6179 16.2592 4.35113 16.0207 4.18536 15.7151C4.0196 15.4095 3.96513 15.0558 4.03126 14.7145C4.0974 14.3732 4.28003 14.0655 4.54794 13.8439C4.81585 13.6224 5.1524 13.5007 5.50006 13.4999C5.76527 13.4999 6.01963 13.3945 6.20716 13.207C6.3947 13.0194 6.50006 12.7651 6.50006 12.4999C6.50006 11.439 6.92148 10.4216 7.67163 9.67143C8.42177 8.92129 9.43919 8.49986 10.5001 8.49986C11.276 8.49924 12.0347 8.72894 12.6801 9.15986C13.407 9.63802 13.9582 10.3402 14.2501 11.1599C14.3072 11.3317 14.41 11.4848 14.5473 11.6028C14.6847 11.7208 14.8516 11.7993 15.0301 11.8299C15.5475 11.9215 16.0187 12.1853 16.3673 12.5785C16.7159 12.9717 16.9213 13.4711 16.9503 13.9958C16.9793 14.5204 16.83 15.0395 16.5268 15.4686C16.2236 15.8978 15.7842 16.2119 15.2801 16.3599C15.0148 16.3957 14.7747 16.5354 14.6125 16.7482C14.4503 16.9611 14.3793 17.2296 14.4151 17.4949C14.4509 17.7601 14.5906 18.0002 14.8034 18.1624C15.0163 18.3246 15.2848 18.3957 15.5501 18.3599C15.6395 18.3744 15.7306 18.3744 15.8201 18.3599C16.7366 18.1074 17.5445 17.5603 18.1192 16.8031C18.6939 16.0458 19.0035 15.1205 19.0001 14.1699C19.004 13.473 18.8356 12.786 18.5101 12.1699C19.3688 11.93 20.1467 11.4622 20.7611 10.8161C21.3756 10.17 21.8037 9.36961 22.0001 8.49986C22.0338 8.33213 22.0239 8.15855 21.9714 7.99572C21.9189 7.83289 21.8254 7.68626 21.7001 7.56986ZM17.1101 10.3899C16.9703 10.4011 16.8298 10.4011 16.6901 10.3899C16.4717 10.2402 16.2408 10.1098 16.0001 9.99986C15.5902 9.1017 14.9651 8.31855 14.1801 7.71986C14.1801 7.59986 14.1801 7.46986 14.1801 7.34986C14.18 6.91654 14.2739 6.48835 14.4551 6.09476C14.6364 5.70117 14.9008 5.35152 15.2301 5.06986C15.3849 6.13671 15.8804 7.12495 16.6427 7.88724C17.405 8.64952 18.3932 9.14502 19.4601 9.29986C19.1747 9.64558 18.8154 9.92295 18.4088 10.1116C18.0021 10.3002 17.5583 10.3953 17.1101 10.3899Z" fill="black"/>
</svg>
