<svg width="24" height="24" viewBox="0 0 24 24" fill="none" xmlns="http://www.w3.org/2000/svg">
<path d="M5.00001 18.0002C4.80223 18.0002 4.60889 18.0589 4.44444 18.1688C4.27999 18.2786 4.15182 18.4348 4.07613 18.6175C4.00045 18.8003 3.98064 19.0013 4.01923 19.1953C4.05781 19.3893 4.15305 19.5675 4.29291 19.7073C4.43276 19.8472 4.61094 19.9424 4.80492 19.981C4.9989 20.0196 5.19997 19.9998 5.3827 19.9241C5.56542 19.8484 5.7216 19.7202 5.83148 19.5558C5.94136 19.3913 6.00001 19.198 6.00001 19.0002C6.00001 18.735 5.89466 18.4807 5.70712 18.2931C5.51958 18.1056 5.26523 18.0002 5.00001 18.0002ZM19 14.0002H12C11.7348 14.0002 11.4804 14.1056 11.2929 14.2931C11.1054 14.4807 11 14.735 11 15.0002C11 15.2654 11.1054 15.5198 11.2929 15.7073C11.4804 15.8949 11.7348 16.0002 12 16.0002H19C19.2652 16.0002 19.5196 16.1056 19.7071 16.2931C19.8947 16.4807 20 16.735 20 17.0002C20 17.2654 19.8947 17.5198 19.7071 17.7073C19.5196 17.8949 19.2652 18.0002 19 18.0002C18.7348 18.0002 18.4804 18.1056 18.2929 18.2931C18.1054 18.4807 18 18.735 18 19.0002C18 19.2654 18.1054 19.5198 18.2929 19.7073C18.4804 19.8949 18.7348 20.0002 19 20.0002C19.7957 20.0002 20.5587 19.6842 21.1213 19.1215C21.6839 18.5589 22 17.7959 22 17.0002C22 16.2046 21.6839 15.4415 21.1213 14.8789C20.5587 14.3163 19.7957 14.0002 19 14.0002ZM14 11.0002C14 11.2654 14.1054 11.5198 14.2929 11.7073C14.4804 11.8949 14.7348 12.0002 15 12.0002H19C19.7957 12.0002 20.5587 11.6842 21.1213 11.1215C21.6839 10.5589 22 9.79588 22 9.00023C22 8.73501 21.8947 8.48066 21.7071 8.29312C21.5196 8.10558 21.2652 8.00023 21 8.00023C20.7348 8.00023 20.4804 8.10558 20.2929 8.29312C20.1054 8.48066 20 8.73501 20 9.00023C20 9.26544 19.8947 9.5198 19.7071 9.70733C19.5196 9.89487 19.2652 10.0002 19 10.0002H15C14.7348 10.0002 14.4804 10.1056 14.2929 10.2931C14.1054 10.4807 14 10.735 14 11.0002ZM10 15.0002C10 14.735 9.89466 14.4807 9.70712 14.2931C9.51958 14.1056 9.26523 14.0002 9.00001 14.0002H6.00001C5.46958 14.0002 4.96087 13.7895 4.5858 13.4144C4.21073 13.0394 4.00001 12.5307 4.00001 12.0002C4.00001 11.4698 4.21073 10.9611 4.5858 10.586C4.96087 10.2109 5.46958 10.0002 6.00001 10.0002C6.26523 10.0002 6.51958 9.89487 6.70712 9.70733C6.89466 9.5198 7.00001 9.26544 7.00001 9.00023C7.00257 7.8175 7.4243 6.67398 8.19028 5.77281C8.95627 4.87164 10.0169 4.27118 11.1838 4.0781C12.3506 3.88502 13.5481 4.11183 14.5636 4.71823C15.579 5.32464 16.3466 6.27137 16.73 7.39023C16.8149 7.64218 16.9964 7.8501 17.2345 7.96825C17.4727 8.0864 17.7481 8.1051 18 8.02023C18.252 7.93536 18.4599 7.75387 18.578 7.5157C18.6962 7.27753 18.7149 7.00218 18.63 6.75023C18.1208 5.25285 17.1195 3.97205 15.7893 3.1165C14.4591 2.26095 12.8784 1.88109 11.3047 2.03881C9.73098 2.19653 8.25706 2.88253 7.12309 3.98504C5.98912 5.08755 5.26193 6.54158 5.06001 8.11023C4.1066 8.33855 3.27023 8.90906 2.70975 9.71342C2.14927 10.5178 1.9037 11.5 2.01968 12.4734C2.13566 13.4469 2.60511 14.3439 3.33888 14.9941C4.07265 15.6442 5.01964 16.0023 6.00001 16.0002H9.00001C9.26523 16.0002 9.51958 15.8949 9.70712 15.7073C9.89466 15.5198 10 15.2654 10 15.0002ZM10 11.0002C10 11.198 10.0587 11.3913 10.1685 11.5558C10.2784 11.7202 10.4346 11.8484 10.6173 11.9241C10.8001 11.9998 11.0011 12.0196 11.1951 11.981C11.3891 11.9424 11.5673 11.8472 11.7071 11.7073C11.847 11.5675 11.9422 11.3893 11.9808 11.1953C12.0194 11.0013 11.9996 10.8003 11.9239 10.6175C11.8482 10.4348 11.72 10.2786 11.5556 10.1688C11.3911 10.0589 11.1978 10.0002 11 10.0002C10.7348 10.0002 10.4804 10.1056 10.2929 10.2931C10.1054 10.4807 10 10.735 10 11.0002ZM14 18.0002H9.00001C8.7348 18.0002 8.48044 18.1056 8.29291 18.2931C8.10537 18.4807 8.00001 18.735 8.00001 19.0002C8.00001 19.2654 8.10537 19.5198 8.29291 19.7073C8.48044 19.8949 8.7348 20.0002 9.00001 20.0002H14C14.2652 20.0002 14.5196 20.1056 14.7071 20.2931C14.8947 20.4807 15 20.735 15 21.0002C15 21.2654 15.1054 21.5198 15.2929 21.7073C15.4804 21.8949 15.7348 22.0002 16 22.0002C16.2652 22.0002 16.5196 21.8949 16.7071 21.7073C16.8947 21.5198 17 21.2654 17 21.0002C17 20.2046 16.6839 19.4415 16.1213 18.8789C15.5587 18.3163 14.7957 18.0002 14 18.0002Z" fill="black"/>
</svg>
