<svg width="24" height="24" viewBox="0 0 24 24" fill="none" xmlns="http://www.w3.org/2000/svg">
<path d="M22.47 18.8197L21.47 14.9597L18.32 3.36966C18.2519 3.114 18.0853 2.89574 17.8567 2.76266C17.628 2.62959 17.3559 2.59255 17.1 2.65966L13.23 3.65966C13.1376 3.55731 13.0251 3.47516 12.8995 3.41837C12.7739 3.36158 12.6379 3.33138 12.5 3.32966H2.5C2.23478 3.32966 1.98043 3.43502 1.79289 3.62256C1.60536 3.81009 1.5 4.06445 1.5 4.32966V20.3297C1.5 20.5949 1.60536 20.8492 1.79289 21.0368C1.98043 21.2243 2.23478 21.3297 2.5 21.3297H12.5C12.7652 21.3297 13.0196 21.2243 13.2071 21.0368C13.3946 20.8492 13.5 20.5949 13.5 20.3297V12.3297L15.7 20.5497C15.7586 20.7678 15.8893 20.9597 16.0709 21.0941C16.2525 21.2285 16.4742 21.2974 16.7 21.2897C16.7864 21.2995 16.8736 21.2995 16.96 21.2897L21.79 19.9997C21.9177 19.9655 22.0374 19.9064 22.1421 19.8257C22.2468 19.7451 22.3344 19.6444 22.4 19.5297C22.5055 19.3084 22.5302 19.0572 22.47 18.8197ZM6.47 19.3697H3.47V17.3697H6.47V19.3697ZM6.47 15.3697H3.47V9.36966H6.47V15.3697ZM6.47 7.36966H3.47V5.36966H6.47V7.36966ZM11.47 19.3697H8.47V17.3697H11.47V19.3697ZM11.47 15.3697H8.47V9.36966H11.47V15.3697ZM11.47 7.36966H8.47V5.36966H11.47V7.36966ZM13.72 5.62966L16.62 4.84966L17.14 6.77966L14.24 7.55966L13.72 5.62966ZM16.31 15.2897L14.76 9.48966L17.66 8.70966L19.21 14.5097L16.31 15.2897ZM17.31 19.1497L16.79 17.2197L19.69 16.4397L20.21 18.3697L17.31 19.1497Z" fill="black"/>
</svg>
