<svg width="24" height="24" viewBox="0 0 24 24" fill="none" xmlns="http://www.w3.org/2000/svg">
<path d="M21 18.0002H14.82C14.6707 17.5808 14.4299 17.1999 14.1151 16.8851C13.8003 16.5703 13.4194 16.3295 13 16.1802V14.0002H16.67C17.2871 13.9976 17.8783 13.7512 18.3147 13.3148C18.751 12.8785 18.9974 12.2873 19 11.6702V6.33019C18.9974 5.71305 18.751 5.12193 18.3147 4.68554C17.8783 4.24915 17.2871 4.00282 16.67 4.00019H12.67L12.54 3.59019C12.3858 3.13413 12.0947 2.73673 11.7063 2.45219C11.318 2.16764 10.8513 2.0098 10.37 2.00019H7.37C7.06103 1.99623 6.75434 2.0535 6.46762 2.16869C6.1809 2.28388 5.91983 2.45472 5.69949 2.67135C5.47915 2.88797 5.30389 3.14609 5.18383 3.43081C5.06377 3.71553 5.0013 4.0212 5 4.33019V11.6702C5.00263 12.2873 5.24896 12.8785 5.68535 13.3148C6.12174 13.7512 6.71286 13.9976 7.33 14.0002H11V16.1802C10.5806 16.3295 10.1997 16.5703 9.8849 16.8851C9.57011 17.1999 9.32932 17.5808 9.18 18.0002H3C2.73478 18.0002 2.48043 18.1055 2.29289 18.2931C2.10536 18.4806 2 18.735 2 19.0002C2 19.2654 2.10536 19.5198 2.29289 19.7073C2.48043 19.8948 2.73478 20.0002 3 20.0002H9.18C9.3902 20.5793 9.77363 21.0797 10.2782 21.4334C10.7827 21.787 11.3839 21.9767 12 21.9767C12.6161 21.9767 13.2173 21.787 13.7218 21.4334C14.2264 21.0797 14.6098 20.5793 14.82 20.0002H21C21.2652 20.0002 21.5196 19.8948 21.7071 19.7073C21.8946 19.5198 22 19.2654 22 19.0002C22 18.735 21.8946 18.4806 21.7071 18.2931C21.5196 18.1055 21.2652 18.0002 21 18.0002ZM7.33 12.0002C7.24248 12.0002 7.15854 11.9654 7.09665 11.9035C7.03477 11.8417 7 11.7577 7 11.6702V4.33019C7 4.24267 7.03477 4.15873 7.09665 4.09685C7.15854 4.03496 7.24248 4.00019 7.33 4.00019H10.33C10.401 3.99901 10.4705 4.02075 10.5281 4.06218C10.5857 4.10362 10.6285 4.16253 10.65 4.23019L11.01 5.32019C11.0791 5.52546 11.213 5.70274 11.3915 5.82537C11.5701 5.948 11.7836 6.00935 12 6.00019H16.67C16.7575 6.00019 16.8415 6.03496 16.9033 6.09685C16.9652 6.15873 17 6.24267 17 6.33019V11.6702C17 11.7577 16.9652 11.8417 16.9033 11.9035C16.8415 11.9654 16.7575 12.0002 16.67 12.0002H7.33ZM12 20.0002C11.8022 20.0002 11.6089 19.9415 11.4444 19.8317C11.28 19.7218 11.1518 19.5656 11.0761 19.3829C11.0004 19.2001 10.9806 18.9991 11.0192 18.8051C11.0578 18.6111 11.153 18.4329 11.2929 18.2931C11.4327 18.1532 11.6109 18.058 11.8049 18.0194C11.9989 17.9808 12.2 18.0006 12.3827 18.0763C12.5654 18.152 12.7216 18.2802 12.8315 18.4446C12.9414 18.6091 13 18.8024 13 19.0002C13 19.2654 12.8946 19.5198 12.7071 19.7073C12.5196 19.8948 12.2652 20.0002 12 20.0002Z" fill="black"/>
</svg>
