<svg width="24" height="24" viewBox="0 0 24 24" fill="none" xmlns="http://www.w3.org/2000/svg">
<path d="M13.5 12.4998C13.5 12.2346 13.3946 11.9802 13.2071 11.7927C13.0196 11.6052 12.7652 11.4998 12.5 11.4998H7.5C7.23478 11.4998 6.98043 11.6052 6.79289 11.7927C6.60536 11.9802 6.5 12.2346 6.5 12.4998C6.5 12.765 6.60536 13.0194 6.79289 13.2069C6.98043 13.3944 7.23478 13.4998 7.5 13.4998H12.5C12.7652 13.4998 13.0196 13.3944 13.2071 13.2069C13.3946 13.0194 13.5 12.765 13.5 12.4998ZM18.5 17.4998C18.0752 17.5012 17.6619 17.6378 17.32 17.8898L15.57 17.0898L17.48 16.2098C17.7819 16.3931 18.1269 16.4931 18.48 16.4998C18.8756 16.4998 19.2622 16.3825 19.5911 16.1627C19.92 15.943 20.1764 15.6306 20.3278 15.2652C20.4791 14.8997 20.5187 14.4976 20.4416 14.1096C20.3644 13.7217 20.1739 13.3653 19.8942 13.0856C19.6145 12.8059 19.2581 12.6154 18.8702 12.5382C18.4822 12.4611 18.0801 12.5007 17.7146 12.652C17.3492 12.8034 17.0368 13.0598 16.8171 13.3887C16.5973 13.7176 16.48 14.1042 16.48 14.4998L14.59 15.3698C14.331 15.1861 14.0321 15.0666 13.7178 15.0214C13.4035 14.9761 13.083 15.0063 12.7827 15.1095C12.4824 15.2127 12.211 15.3859 11.991 15.6148C11.7709 15.8437 11.6085 16.1217 11.5172 16.4258C11.4259 16.7299 11.4083 17.0513 11.4658 17.3636C11.5234 17.6758 11.6545 17.9699 11.8483 18.2214C12.042 18.473 12.2929 18.6748 12.5801 18.8101C12.8673 18.9455 13.1827 19.0105 13.5 18.9998C13.8222 19 14.139 18.9173 14.42 18.7598L16.52 19.7598C16.5643 20.1424 16.7182 20.5041 16.9631 20.8014C17.208 21.0987 17.5335 21.319 17.9006 21.4357C18.2677 21.5524 18.6607 21.5607 19.0323 21.4595C19.4039 21.3582 19.7385 21.1519 19.9956 20.8651C20.2528 20.5784 20.4217 20.2234 20.482 19.843C20.5424 19.4626 20.4916 19.0728 20.3357 18.7206C20.1799 18.3683 19.9256 18.0686 19.6035 17.8573C19.2814 17.6461 18.9052 17.5324 18.52 17.5298L18.5 17.4998ZM10.5 19.4998H5.5C5.23478 19.4998 4.98043 19.3944 4.79289 19.2069C4.60536 19.0194 4.5 18.765 4.5 18.4998V4.4998C4.5 4.23459 4.60536 3.98023 4.79289 3.7927C4.98043 3.60516 5.23478 3.4998 5.5 3.4998H10.5V6.4998C10.5 7.29545 10.8161 8.05852 11.3787 8.62113C11.9413 9.18373 12.7044 9.4998 13.5 9.4998H16.5C16.5 9.76502 16.6054 10.0194 16.7929 10.2069C16.9804 10.3944 17.2348 10.4998 17.5 10.4998C17.7652 10.4998 18.0196 10.3944 18.2071 10.2069C18.3946 10.0194 18.5 9.76502 18.5 9.4998V8.4998C18.5 8.4998 18.5 8.4998 18.5 8.4398C18.4896 8.34794 18.4695 8.25744 18.44 8.1698V8.0798C18.3919 7.97698 18.3278 7.88247 18.25 7.7998L12.25 1.7998C12.1673 1.72202 12.0728 1.65789 11.97 1.6098C11.9369 1.60401 11.9031 1.60401 11.87 1.6098C11.7861 1.57933 11.6988 1.55918 11.61 1.5498H5.5C4.70435 1.5498 3.94129 1.86588 3.37868 2.42848C2.81607 2.99109 2.5 3.75416 2.5 4.5498V18.5498C2.5 19.3455 2.81607 20.1085 3.37868 20.6711C3.94129 21.2337 4.70435 21.5498 5.5 21.5498H10.5C10.7652 21.5498 11.0196 21.4444 11.2071 21.2569C11.3946 21.0694 11.5 20.815 11.5 20.5498C11.5 20.2846 11.3946 20.0302 11.2071 19.8427C11.0196 19.6552 10.7652 19.5498 10.5 19.5498V19.4998ZM12.5 4.9098L15.09 7.4998H13.5C13.2348 7.4998 12.9804 7.39445 12.7929 7.20691C12.6054 7.01937 12.5 6.76502 12.5 6.4998V4.9098ZM7.5 15.4998C7.23478 15.4998 6.98043 15.6052 6.79289 15.7927C6.60536 15.9802 6.5 16.2346 6.5 16.4998C6.5 16.765 6.60536 17.0194 6.79289 17.2069C6.98043 17.3944 7.23478 17.4998 7.5 17.4998H8.5C8.76522 17.4998 9.01957 17.3944 9.20711 17.2069C9.39464 17.0194 9.5 16.765 9.5 16.4998C9.5 16.2346 9.39464 15.9802 9.20711 15.7927C9.01957 15.6052 8.76522 15.4998 8.5 15.4998H7.5ZM7.5 9.4998H8.5C8.76522 9.4998 9.01957 9.39445 9.20711 9.20691C9.39464 9.01937 9.5 8.76502 9.5 8.4998C9.5 8.23459 9.39464 7.98023 9.20711 7.7927C9.01957 7.60516 8.76522 7.4998 8.5 7.4998H7.5C7.23478 7.4998 6.98043 7.60516 6.79289 7.7927C6.60536 7.98023 6.5 8.23459 6.5 8.4998C6.5 8.76502 6.60536 9.01937 6.79289 9.20691C6.98043 9.39445 7.23478 9.4998 7.5 9.4998Z" fill="black"/>
</svg>
