<svg width="24" height="24" viewBox="0 0 24 24" fill="none" xmlns="http://www.w3.org/2000/svg">
<path d="M20.4601 9.62983C20.3304 8.27166 19.8758 6.96466 19.1345 5.81926C18.3932 4.67386 17.3871 3.72373 16.2012 3.04916C15.0153 2.37458 13.6844 1.99539 12.3211 1.94362C10.9577 1.89185 9.60191 2.16903 8.36826 2.75173C7.13461 3.33443 6.05935 4.20553 5.23335 5.29141C4.40734 6.3773 3.85487 7.64607 3.62261 8.99049C3.39035 10.3349 3.48513 11.7155 3.89894 13.0156C4.31275 14.3157 5.03343 15.497 6.00008 16.4598L11.3001 21.7698C11.393 21.8636 11.5036 21.938 11.6255 21.9887C11.7474 22.0395 11.8781 22.0656 12.0101 22.0656C12.1421 22.0656 12.2728 22.0395 12.3947 21.9887C12.5165 21.938 12.6271 21.8636 12.7201 21.7698L18.0001 16.4598C18.8913 15.5753 19.5744 14.5035 19.9999 13.3221C20.4254 12.1407 20.5826 10.8795 20.4601 9.62983ZM16.6001 15.0498L12.0001 19.6498L7.40008 15.0498C6.72217 14.3719 6.20288 13.5522 5.87954 12.6496C5.55621 11.747 5.43686 10.784 5.53008 9.82983C5.6239 8.86094 5.93184 7.92499 6.43165 7.08968C6.93145 6.25436 7.61063 5.54054 8.42008 4.99983C9.48102 4.29507 10.7264 3.91913 12.0001 3.91913C13.2738 3.91913 14.5191 4.29507 15.5801 4.99983C16.3871 5.53845 17.0647 6.24911 17.5644 7.08077C18.0641 7.91243 18.3734 8.84443 18.4701 9.80983C18.5663 10.7673 18.4485 11.7341 18.1251 12.6404C17.8016 13.5467 17.2807 14.3697 16.6001 15.0498ZM13.7901 6.24983C13.6971 6.1561 13.5865 6.08171 13.4647 6.03094C13.3428 5.98017 13.2121 5.95403 13.0801 5.95403C12.9481 5.95403 12.8174 5.98017 12.6955 6.03094C12.5736 6.08171 12.463 6.1561 12.3701 6.24983L8.79008 9.82983C8.60533 10.0161 8.50118 10.2675 8.50008 10.5298V12.9998C8.50008 13.265 8.60543 13.5194 8.79297 13.7069C8.98051 13.8945 9.23486 13.9998 9.50008 13.9998H11.9201C12.0517 14.0006 12.1821 13.9754 12.304 13.9256C12.4258 13.8758 12.5366 13.8025 12.6301 13.7098L16.2101 10.1298C16.3963 9.94247 16.5009 9.68902 16.5009 9.42483C16.5009 9.16065 16.3963 8.9072 16.2101 8.71983L13.7901 6.24983ZM11.5101 11.9998H10.5101V10.9998L13.0901 8.41983L14.0901 9.41983L11.5101 11.9998Z" fill="black"/>
</svg>
