<svg width="24" height="24" viewBox="0 0 24 24" fill="none" xmlns="http://www.w3.org/2000/svg">
<path d="M12.4399 13.1103L12.2699 13.0003C12.0868 12.925 11.8855 12.9057 11.6915 12.9449C11.4974 12.984 11.3194 13.0799 11.1799 13.2203C11.0834 13.3091 11.0082 13.4184 10.9599 13.5403C10.9073 13.6637 10.8801 13.7963 10.8799 13.9303C10.8815 14.061 10.9086 14.1901 10.9599 14.3103C11.0673 14.5506 11.2596 14.7429 11.4999 14.8503C11.6201 14.9016 11.7492 14.9287 11.8799 14.9303C12.0137 14.9278 12.1459 14.9007 12.2699 14.8503C12.3899 14.7986 12.4986 14.7239 12.5899 14.6303C12.7761 14.443 12.8807 14.1895 12.8807 13.9253C12.8807 13.6611 12.7761 13.4077 12.5899 13.2203L12.4399 13.1103ZM11.8799 6.00033C11.4027 5.99496 10.9324 6.11383 10.5151 6.34527C10.0979 6.5767 9.74798 6.91273 9.49988 7.32033C9.42753 7.43414 9.37894 7.56142 9.35706 7.6945C9.33517 7.82758 9.34042 7.96372 9.37251 8.09471C9.4046 8.22571 9.46285 8.34886 9.54377 8.45676C9.62468 8.56466 9.72659 8.65508 9.84335 8.72257C9.96012 8.79007 10.0893 8.83324 10.2232 8.8495C10.3571 8.86577 10.4929 8.85478 10.6224 8.8172C10.7519 8.77963 10.8725 8.71624 10.9769 8.63085C11.0813 8.54546 11.1674 8.43983 11.2299 8.32033C11.3037 8.21775 11.4015 8.13491 11.5149 8.0791C11.6283 8.0233 11.7536 7.99624 11.8799 8.00033C12.0788 8.00033 12.2696 8.07934 12.4102 8.22C12.5509 8.36065 12.6299 8.55141 12.6299 8.75033C12.6299 8.94924 12.5509 9.14 12.4102 9.28066C12.2696 9.42131 12.0788 9.50033 11.8799 9.50033C11.6147 9.50033 11.3603 9.60568 11.1728 9.79322C10.9852 9.98076 10.8799 10.2351 10.8799 10.5003C10.8799 10.7655 10.9852 11.0199 11.1728 11.2074C11.3603 11.395 11.6147 11.5003 11.8799 11.5003C12.6092 11.5003 13.3087 11.2106 13.8244 10.6949C14.3401 10.1791 14.6299 9.47967 14.6299 8.75033C14.6299 8.02098 14.3401 7.32151 13.8244 6.80578C13.3087 6.29006 12.6092 6.00033 11.8799 6.00033ZM20.4599 9.68033C20.3273 8.21494 19.8166 6.80906 18.9777 5.60023C18.1388 4.39141 17.0005 3.42105 15.6742 2.78407C14.3478 2.1471 12.8788 1.86533 11.4109 1.96634C9.94303 2.06735 8.52649 2.54768 7.29988 3.36033C6.24908 4.06297 5.36693 4.98962 4.71682 6.07372C4.06672 7.15781 3.66478 8.37243 3.53988 9.63033C3.41736 10.88 3.57455 12.1412 4.00005 13.3226C4.42555 14.504 5.10868 15.5758 5.99988 16.4603L11.2999 21.7703C11.3928 21.8641 11.5034 21.9384 11.6253 21.9892C11.7472 22.04 11.8779 22.0661 12.0099 22.0661C12.1419 22.0661 12.2726 22.04 12.3945 21.9892C12.5163 21.9384 12.6269 21.8641 12.7199 21.7703L17.9999 16.4603C18.8911 15.5758 19.5742 14.504 19.9997 13.3226C20.4252 12.1412 20.5824 10.88 20.4599 9.63033V9.68033ZM16.5999 15.0503L11.9999 19.6503L7.39988 15.0503C6.72197 14.3724 6.20268 13.5527 5.87935 12.6501C5.55601 11.7475 5.43667 10.7845 5.52988 9.83033C5.6237 8.86143 5.93164 7.92549 6.43145 7.09017C6.93126 6.25485 7.61044 5.54103 8.41988 5.00033C9.48083 4.29556 10.7262 3.91962 11.9999 3.91962C13.2736 3.91962 14.5189 4.29556 15.5799 5.00033C16.3869 5.53894 17.0646 6.24961 17.5642 7.08126C18.0639 7.91292 18.3732 8.84493 18.4699 9.81033C18.5661 10.7678 18.4483 11.7346 18.1249 12.6409C17.8014 13.5471 17.2805 14.3702 16.5999 15.0503Z" fill="black"/>
</svg>
