<svg width="24" height="24" viewBox="0 0 24 24" fill="none" xmlns="http://www.w3.org/2000/svg">
<path d="M17.9999 4.4804C16.4086 2.8891 14.2504 1.99512 11.9999 1.99512C9.74949 1.99512 7.59123 2.8891 5.99993 4.4804C4.40863 6.0717 3.51465 8.22996 3.51465 10.4804C3.51465 12.7308 4.40863 14.8891 5.99993 16.4804L11.2699 21.7604C11.3629 21.8541 11.4735 21.9285 11.5954 21.9793C11.7172 22.0301 11.8479 22.0562 11.9799 22.0562C12.1119 22.0562 12.2426 22.0301 12.3645 21.9793C12.4864 21.9285 12.597 21.8541 12.6899 21.7604L17.9999 16.4304C19.5846 14.8457 20.4748 12.6965 20.4748 10.4554C20.4748 8.21434 19.5846 6.06508 17.9999 4.4804ZM16.5699 15.0004L11.9999 19.5904L7.42993 15.0004C6.52707 14.0967 5.91241 12.9456 5.66362 11.6927C5.41484 10.4397 5.54312 9.14115 6.03223 7.96108C6.52135 6.78101 7.34935 5.77245 8.41156 5.06288C9.47377 4.3533 10.7225 3.97458 11.9999 3.97458C13.2773 3.97458 14.5261 4.3533 15.5883 5.06288C16.6505 5.77245 17.4785 6.78101 17.9676 7.96108C18.4567 9.14115 18.585 10.4397 18.3362 11.6927C18.0875 12.9456 17.4728 14.0967 16.5699 15.0004ZM8.99993 7.4104C8.19264 8.22017 7.73932 9.31697 7.73932 10.4604C7.73932 11.6038 8.19264 12.7006 8.99993 13.5104C9.59969 14.1112 10.3635 14.5215 11.1956 14.6898C12.0276 14.8581 12.8909 14.777 13.677 14.4566C14.4631 14.1361 15.1371 13.5907 15.6144 12.8886C16.0917 12.1866 16.3511 11.3593 16.3599 10.5104C16.3644 9.9436 16.2553 9.38166 16.0388 8.85779C15.8224 8.33392 15.5032 7.85875 15.0999 7.4604C14.7036 7.05498 14.231 6.73194 13.7094 6.50986C13.1877 6.28779 12.6273 6.17107 12.0603 6.16643C11.4934 6.16178 10.9311 6.2693 10.4059 6.48279C9.88067 6.69628 9.40285 7.01153 8.99993 7.4104ZM13.6899 12.0904C13.311 12.4751 12.8101 12.7163 12.2731 12.7727C11.736 12.829 11.196 12.697 10.7454 12.3993C10.2949 12.1016 9.96173 11.6566 9.80294 11.1405C9.64415 10.6243 9.66958 10.069 9.87489 9.56955C10.0802 9.07007 10.4526 8.65741 10.9285 8.40213C11.4044 8.14686 11.9542 8.06481 12.4839 8.17002C13.0135 8.27522 13.4902 8.56116 13.8324 8.97893C14.1746 9.3967 14.3611 9.92037 14.3599 10.4604C14.3454 11.0777 14.0864 11.6639 13.6399 12.0904H13.6899Z" fill="black"/>
</svg>
