<svg width="24" height="24" viewBox="0 0 24 24" fill="none" xmlns="http://www.w3.org/2000/svg">
<path d="M16.37 12.7903C16.2479 12.7417 16.1174 12.7176 15.9859 12.7195C15.8545 12.7213 15.7247 12.749 15.604 12.801C15.4833 12.8531 15.374 12.9283 15.2824 13.0226C15.1908 13.1168 15.1186 13.2282 15.07 13.3503C15.0214 13.4724 14.9974 13.6029 14.9992 13.7343C15.001 13.8658 15.0288 13.9956 15.0808 14.1163C15.1328 14.237 15.208 14.3463 15.3023 14.4379C15.3965 14.5295 15.5079 14.6017 15.63 14.6503C17.09 15.2303 18 16.1303 18 17.0003C18 18.4203 15.54 20.0003 12 20.0003C8.46 20.0003 6 18.4203 6 17.0003C6 16.1303 6.91 15.2303 8.37 14.6503C8.61665 14.5522 8.81422 14.3601 8.91924 14.1163C9.02426 13.8725 9.02813 13.5969 8.93 13.3503C8.83187 13.1036 8.63978 12.9061 8.39598 12.801C8.15218 12.696 7.87665 12.6922 7.63 12.7903C5.36 13.6903 4 15.2603 4 17.0003C4 19.8003 7.51 22.0003 12 22.0003C16.49 22.0003 20 19.8003 20 17.0003C20 15.2603 18.64 13.6903 16.37 12.7903ZM11 9.86029V17.0003C11 17.2655 11.1054 17.5199 11.2929 17.7074C11.4804 17.8949 11.7348 18.0003 12 18.0003C12.2652 18.0003 12.5196 17.8949 12.7071 17.7074C12.8946 17.5199 13 17.2655 13 17.0003V9.86029C13.9427 9.61689 14.7642 9.03806 15.3106 8.23228C15.857 7.4265 16.0908 6.4491 15.9681 5.48329C15.8454 4.51747 15.3747 3.62955 14.6442 2.98597C13.9137 2.34238 12.9736 1.9873 12 1.9873C11.0264 1.9873 10.0863 2.34238 9.35577 2.98597C8.62526 3.62955 8.15456 4.51747 8.03188 5.48329C7.90921 6.4491 8.14299 7.4265 8.6894 8.23228C9.23581 9.03806 10.0573 9.61689 11 9.86029ZM12 4.00029C12.3956 4.00029 12.7822 4.11759 13.1111 4.33735C13.44 4.55711 13.6964 4.86947 13.8478 5.23492C13.9991 5.60037 14.0387 6.00251 13.9616 6.39047C13.8844 6.77843 13.6939 7.1348 13.4142 7.4145C13.1345 7.69421 12.7781 7.88469 12.3902 7.96186C12.0022 8.03903 11.6001 7.99942 11.2346 7.84805C10.8692 7.69667 10.5568 7.44033 10.3371 7.11143C10.1173 6.78253 10 6.39585 10 6.00029C10 5.46986 10.2107 4.96115 10.5858 4.58607C10.9609 4.211 11.4696 4.00029 12 4.00029Z" fill="black"/>
</svg>
