<svg width="24" height="24" viewBox="0 0 24 24" fill="none" xmlns="http://www.w3.org/2000/svg">
<path d="M11.9999 10.0003C11.7347 10.0003 11.4803 10.1057 11.2928 10.2932C11.1052 10.4808 10.9999 10.7351 10.9999 11.0003V13.0003C10.9999 13.2655 11.1052 13.5199 11.2928 13.7074C11.4803 13.895 11.7347 14.0003 11.9999 14.0003C12.2651 14.0003 12.5195 13.895 12.707 13.7074C12.8945 13.5199 12.9999 13.2655 12.9999 13.0003V11.0003C12.9999 10.7351 12.8945 10.4808 12.707 10.2932C12.5195 10.1057 12.2651 10.0003 11.9999 10.0003ZM20.4599 9.68033C20.3273 8.21494 19.8166 6.80906 18.9777 5.60023C18.1388 4.39141 17.0005 3.42105 15.6742 2.78407C14.3478 2.1471 12.8788 1.86533 11.4109 1.96634C9.94303 2.06735 8.52649 2.54768 7.29988 3.36033C6.24908 4.06297 5.36693 4.98962 4.71682 6.07372C4.06672 7.15781 3.66478 8.37243 3.53988 9.63033C3.41736 10.88 3.57455 12.1412 4.00005 13.3226C4.42555 14.504 5.10868 15.5758 5.99988 16.4603L11.2999 21.7703C11.3928 21.8641 11.5034 21.9384 11.6253 21.9892C11.7472 22.04 11.8779 22.0661 12.0099 22.0661C12.1419 22.0661 12.2726 22.04 12.3945 21.9892C12.5163 21.9384 12.6269 21.8641 12.7199 21.7703L17.9999 16.4603C18.8911 15.5758 19.5742 14.504 19.9997 13.3226C20.4252 12.1412 20.5824 10.88 20.4599 9.63033V9.68033ZM16.5999 15.0503L11.9999 19.6503L7.39988 15.0503C6.72197 14.3724 6.20268 13.5527 5.87935 12.6501C5.55601 11.7475 5.43667 10.7845 5.52988 9.83033C5.6237 8.86143 5.93164 7.92549 6.43145 7.09017C6.93126 6.25485 7.61044 5.54103 8.41988 5.00033C9.48083 4.29556 10.7262 3.91962 11.9999 3.91962C13.2736 3.91962 14.5189 4.29556 15.5799 5.00033C16.3869 5.53894 17.0646 6.24961 17.5642 7.08126C18.0639 7.91292 18.3732 8.84493 18.4699 9.81033C18.5661 10.7678 18.4483 11.7346 18.1249 12.6409C17.8014 13.5471 17.2805 14.3702 16.5999 15.0503ZM12.9199 7.57033C12.8999 7.50889 12.8695 7.45138 12.8299 7.40033L12.7099 7.25033C12.5905 7.13697 12.445 7.05484 12.2862 7.01123C12.1275 6.96762 11.9604 6.96387 11.7999 7.00033H11.6199L11.4399 7.09033L11.2899 7.22033L11.1699 7.37033C11.1303 7.42138 11.0999 7.47889 11.0799 7.54033C11.0494 7.59987 11.0292 7.66409 11.0199 7.73033C11.0033 7.81932 10.9966 7.90986 10.9999 8.00033C10.9964 8.13473 11.0238 8.26815 11.0799 8.39033C11.1308 8.50835 11.2019 8.61662 11.2899 8.71033C11.3851 8.80377 11.497 8.87841 11.6199 8.93033C11.8647 9.02333 12.1351 9.02333 12.3799 8.93033C12.5014 8.87597 12.613 8.8016 12.7099 8.71033C12.7979 8.61662 12.8689 8.50835 12.9199 8.39033C12.9724 8.267 12.9996 8.13437 12.9999 8.00033C13.0048 7.93709 13.0048 7.87357 12.9999 7.81033C12.9906 7.72555 12.9633 7.64373 12.9199 7.57033Z" fill="black"/>
</svg>
