<svg width="24" height="24" viewBox="0 0 24 24" fill="none" xmlns="http://www.w3.org/2000/svg">
<path d="M21.6799 17.6499L14.6799 3.64986C14.4301 3.15327 14.0472 2.73584 13.574 2.44417C13.1007 2.1525 12.5558 1.99805 11.9999 1.99805C11.444 1.99805 10.899 2.1525 10.4258 2.44417C9.95258 2.73584 9.5697 3.15327 9.31988 3.64986L2.31988 17.6499C2.04489 18.2024 1.94699 18.8262 2.03954 19.4364C2.13208 20.0466 2.41055 20.6134 2.837 21.0595C3.26345 21.5057 3.81711 21.8094 4.42249 21.9294C5.02788 22.0493 5.65554 21.9797 6.21988 21.7299L11.5899 19.3299C11.7197 19.2754 11.8591 19.2474 11.9999 19.2474C12.1407 19.2474 12.2801 19.2754 12.4099 19.3299L17.7799 21.7299C18.3442 21.9797 18.9719 22.0493 19.5773 21.9294C20.1827 21.8094 20.7363 21.5057 21.1628 21.0595C21.5892 20.6134 21.8677 20.0466 21.9602 19.4364C22.0528 18.8262 21.9549 18.2024 21.6799 17.6499ZM19.6799 19.6499C19.5372 19.7985 19.352 19.8994 19.1497 19.9388C18.9474 19.9782 18.738 19.9541 18.5499 19.8699L13.1799 17.4799C12.7959 17.3089 12.3802 17.2206 11.9599 17.2206C11.5395 17.2206 11.1239 17.3089 10.7399 17.4799L5.40988 19.8999C5.22285 19.9811 5.01543 20.0033 4.81545 19.9633C4.61547 19.9234 4.43249 19.8232 4.29103 19.6763C4.14958 19.5295 4.05641 19.3428 4.02404 19.1415C3.99166 18.9401 4.02161 18.7337 4.10988 18.5499L11.1099 4.54986C11.1938 4.38606 11.3213 4.2486 11.4783 4.15261C11.6354 4.05662 11.8158 4.00582 11.9999 4.00582C12.1839 4.00582 12.3644 4.05662 12.5214 4.15261C12.6785 4.2486 12.806 4.38606 12.8899 4.54986L19.8899 18.5499C19.9804 18.733 20.0126 18.9395 19.9822 19.1415C19.9518 19.3436 19.8603 19.5314 19.7199 19.6799L19.6799 19.6499Z" fill="black"/>
</svg>
