<svg width="24" height="24" viewBox="0 0 24 24" fill="none" xmlns="http://www.w3.org/2000/svg">
<path d="M14.0001 9.44983H10.0001C9.73486 9.44983 9.48051 9.55519 9.29297 9.74273C9.10543 9.93026 9.00008 10.1846 9.00008 10.4498C9.00008 10.715 9.10543 10.9694 9.29297 11.1569C9.48051 11.3445 9.73486 11.4498 10.0001 11.4498H14.0001C14.2653 11.4498 14.5196 11.3445 14.7072 11.1569C14.8947 10.9694 15.0001 10.715 15.0001 10.4498C15.0001 10.1846 14.8947 9.93026 14.7072 9.74273C14.5196 9.55519 14.2653 9.44983 14.0001 9.44983ZM20.4601 9.62983C20.3304 8.27166 19.8758 6.96466 19.1345 5.81926C18.3932 4.67386 17.3871 3.72373 16.2012 3.04916C15.0153 2.37458 13.6844 1.99539 12.3211 1.94362C10.9577 1.89185 9.60191 2.16903 8.36826 2.75173C7.13461 3.33443 6.05935 4.20553 5.23335 5.29141C4.40734 6.3773 3.85487 7.64607 3.62261 8.99049C3.39035 10.3349 3.48513 11.7155 3.89894 13.0156C4.31275 14.3157 5.03343 15.497 6.00008 16.4598L11.3001 21.7698C11.393 21.8636 11.5036 21.938 11.6255 21.9887C11.7474 22.0395 11.8781 22.0656 12.0101 22.0656C12.1421 22.0656 12.2728 22.0395 12.3947 21.9887C12.5165 21.938 12.6271 21.8636 12.7201 21.7698L18.0001 16.4598C18.8913 15.5753 19.5744 14.5035 19.9999 13.3221C20.4254 12.1407 20.5826 10.8795 20.4601 9.62983ZM16.6001 15.0498L12.0001 19.6498L7.40008 15.0498C6.72217 14.3719 6.20288 13.5522 5.87954 12.6496C5.55621 11.747 5.43686 10.784 5.53008 9.82983C5.6239 8.86094 5.93184 7.92499 6.43165 7.08968C6.93145 6.25436 7.61063 5.54054 8.42008 4.99983C9.48102 4.29507 10.7264 3.91913 12.0001 3.91913C13.2738 3.91913 14.5191 4.29507 15.5801 4.99983C16.3871 5.53845 17.0647 6.24911 17.5644 7.08077C18.0641 7.91243 18.3734 8.84443 18.4701 9.80983C18.5663 10.7673 18.4485 11.7341 18.1251 12.6404C17.8016 13.5467 17.2807 14.3697 16.6001 15.0498Z" fill="black"/>
</svg>
