<svg width="24" height="24" viewBox="0 0 24 24" fill="none" xmlns="http://www.w3.org/2000/svg">
<path d="M14.4099 6.53031C14.0963 6.59957 13.7715 6.60059 13.4575 6.5333C13.1434 6.46601 12.8476 6.33198 12.5899 6.14031C12.4186 6.01516 12.212 5.94771 11.9999 5.94771C11.7878 5.94771 11.5811 6.01516 11.4099 6.14031C11.1522 6.33198 10.8563 6.46601 10.5423 6.5333C10.2283 6.60059 9.90347 6.59957 9.58988 6.53031C9.44382 6.49877 9.29255 6.50036 9.14718 6.53497C9.00182 6.56958 8.86606 6.63633 8.74988 6.73031C8.63386 6.82443 8.5404 6.94335 8.47637 7.07832C8.41234 7.2133 8.37937 7.36091 8.37988 7.51031V10.4103C8.37288 11.053 8.51562 11.6885 8.7968 12.2665C9.07799 12.8445 9.48989 13.3491 9.99988 13.7403L11.3699 14.7403C11.5411 14.8655 11.7478 14.9329 11.9599 14.9329C12.172 14.9329 12.3786 14.8655 12.5499 14.7403L13.9199 13.7403C14.4372 13.3533 14.8568 12.8505 15.1451 12.2723C15.4333 11.6941 15.5822 11.0564 15.5799 10.4103V7.51031C15.5804 7.36091 15.5474 7.2133 15.4834 7.07832C15.4194 6.94335 15.3259 6.82443 15.2099 6.73031C15.0984 6.64201 14.9694 6.5785 14.8315 6.54401C14.6935 6.50952 14.5498 6.50485 14.4099 6.53031ZM13.6199 10.4103C13.6226 10.7449 13.5472 11.0756 13.3996 11.3759C13.2521 11.6762 13.0364 11.938 12.7699 12.1403L11.9999 12.7103L11.2299 12.1403C10.9633 11.938 10.7477 11.6762 10.6001 11.3759C10.4526 11.0756 10.3772 10.7449 10.3799 10.4103V8.57031C10.9446 8.53049 11.4955 8.37745 11.9999 8.12031C12.5042 8.37745 13.0552 8.53049 13.6199 8.57031V10.4103ZM20.4599 9.63031C20.3195 8.16922 19.8031 6.76939 18.9611 5.56713C18.119 4.36486 16.98 3.40114 15.6549 2.7698C14.3298 2.13846 12.8638 1.86103 11.3996 1.96451C9.93543 2.068 8.52301 2.54887 7.29988 3.36031C6.24908 4.06295 5.36693 4.98961 4.71682 6.0737C4.06672 7.15779 3.66478 8.37241 3.53988 9.63031C3.41736 10.88 3.57455 12.1412 4.00005 13.3226C4.42555 14.5039 5.10868 15.5758 5.99988 16.4603L11.2999 21.7703C11.3928 21.864 11.5034 21.9384 11.6253 21.9892C11.7472 22.04 11.8779 22.0661 12.0099 22.0661C12.1419 22.0661 12.2726 22.04 12.3945 21.9892C12.5163 21.9384 12.6269 21.864 12.7199 21.7703L17.9999 16.4603C18.8911 15.5758 19.5742 14.5039 19.9997 13.3226C20.4252 12.1412 20.5824 10.88 20.4599 9.63031ZM16.5999 15.0503L11.9999 19.6503L7.39988 15.0503C6.72197 14.3724 6.20268 13.5526 5.87935 12.6501C5.55601 11.7475 5.43667 10.7845 5.52988 9.83031C5.6237 8.86141 5.93164 7.92547 6.43145 7.09015C6.93126 6.25483 7.61044 5.54102 8.41988 5.00031C9.48083 4.29554 10.7262 3.9196 11.9999 3.9196C13.2736 3.9196 14.5189 4.29554 15.5799 5.00031C16.3869 5.53893 17.0646 6.24959 17.5642 7.08125C18.0639 7.9129 18.3732 8.84491 18.4699 9.81031C18.5661 10.7677 18.4483 11.7346 18.1249 12.6409C17.8014 13.5471 17.2805 14.3701 16.5999 15.0503Z" fill="black"/>
</svg>
