<svg id="bg-line-special-parnas" xmlns="http://www.w3.org/2000/svg" width="1500" height="100%" viewBox="0 0 1853.107 1167.853">
  <path id="Path_19303" data-name="Path 19303" d="M442.906,690.2a18.753,18.753,0,0,0-17.2,11.462,18.5,18.5,0,0,0-1.433,7.094l0,.984h-.984c-7.1-.008,6.461.915-.641.884s-14.2-.121-21.306-.179l-10.653-.131-10.653-.153q-10.653-.16-21.306-.42,10.653-.259,21.306-.419l10.653-.153,10.653-.131c7.1-.058,14.2-.143,21.306-.178,6.78-.031-7.1-1.071-.324-1.083a20.455,20.455,0,0,1,5.987-13.555,20.623,20.623,0,0,1,13.613-5.962l-.756-624.865.179-21.129c.092-7.043.161-14.087.285-21.13q.159-10.565.419-21.13.259,10.564.419,21.13c.125,7.043.193,14.086.285,21.13l.179,21.129.956,625.825,0,.979Z" transform="translate(79.884 444.969) rotate(-90)" fill="#ca7e65"/>
  <path id="Path_19304" data-name="Path 19304" d="M131.868,20.424A18.7,18.7,0,0,1,124.745,19a18.654,18.654,0,0,1-6.025-4.034,18.615,18.615,0,0,1-4.049-6,18.5,18.5,0,0,1-1.433-7.094l0-.984h-.984c-7.1.008,6.21-.914-.891-.883S97.156.123,90.054.18L79.4.312,68.749.465Q58.1.625,47.443.884,58.1,1.144,68.749,1.3L79.4,1.457l10.653.131c7.1.058,14.2.143,21.306.178,6.78.031-6.854,1.07-.074,1.082a20.458,20.458,0,0,0,1.527,6.881,20.559,20.559,0,0,0,4.46,6.675,20.623,20.623,0,0,0,13.613,5.962l1.277,978.585.179,21.129c.092,7.043.161,14.087.285,21.13q.159,10.565.419,21.13.259-10.564.419-21.13c.125-7.043.193-14.086.285-21.13l.179-21.129L132.854,21.406l0-.979Z" transform="translate(788.767 133.93) rotate(-90)" fill="#ca7e65"/>
  <path id="Path_19305" data-name="Path 19305" d="M.991,20.57a18.7,18.7,0,0,0,7.123-1.427,18.654,18.654,0,0,0,6.025-4.034,18.615,18.615,0,0,0,4.049-6,18.5,18.5,0,0,0,1.433-7.094l0-.984h.984c7.1.008,257.659-.915,264.76-.884s14.2.121,21.306.179l10.653.131L327.98.61q10.653.16,21.306.42-10.653.259-21.306.419L317.327,1.6l-10.653.131c-7.1.058-14.2.143-21.306.178-6.78.031-257.015,1.071-263.8,1.083a20.458,20.458,0,0,1-1.527,6.881,20.559,20.559,0,0,1-4.46,6.675,20.693,20.693,0,0,1-6.7,4.441,20.683,20.683,0,0,1-6.911,1.521L0,795.822-.18,816.952c-.092,7.043-.161,14.087-.285,21.13q-.159,10.565-.419,21.13-.259-10.564-.419-21.13c-.125-7.043-.193-14.086-.285-21.13l-.179-21.129L0,21.552l0-.979Z" transform="translate(1.767 -0.146)" fill="#ca7e65"/>
  <path id="Path_19306" data-name="Path 19306" d="M412.235,690.2a18.753,18.753,0,0,0-17.2,11.462,18.5,18.5,0,0,0-1.433,7.094l0,.984h-.984c-7.1-.008-352.271-.069-359.373-.1s-14.2-.121-21.306-.179l-10.653-.131-10.653-.153q-10.653-.16-21.306-.42,10.653-.259,21.306-.419l10.653-.153,10.653-.131c7.1-.058,14.2-.143,21.306-.178,6.78-.031,351.627-.086,358.408-.1a20.455,20.455,0,0,1,5.987-13.555,20.623,20.623,0,0,1,13.613-5.962l1.089-626.012.179-21.129c.092-7.043.161-14.087.285-21.13q.159-10.565.419-21.13.259,10.564.419,21.13c.125,7.043.193,14.086.285,21.13l.179,21.129-.889,626.972,0,.979Z" transform="translate(709.737 753.743) rotate(90)" fill="#ca7e65"/>
</svg>
