<svg xmlns="http://www.w3.org/2000/svg" width="48.641" height="48.641" viewBox="0 0 48.641 48.641">
  <g id="btn-icon" transform="translate(25.17 48.641) rotate(-137)" opacity="1">
    <g id="Group_98" data-name="Group 98" transform="translate(0 0)">
      <path id="Path_1471" data-name="Path 1471" d="M34.12.3A1.008,1.008,0,0,0,32.992.09L21.166,5.435a1.008,1.008,0,0,0-.593.919v6.062L.3,32.694A1.008,1.008,0,1,0,1.721,34.12L22,13.842h6.062a1.008,1.008,0,0,0,.919-.593L34.326,1.424A1.008,1.008,0,0,0,34.12.3Zm-6.709,11.53H22.59V7l8.8-3.977Z" transform="translate(0)" fill="#fff"/>
    </g>
  </g>
</svg>
