<svg xmlns="http://www.w3.org/2000/svg" width="40" height="49" viewBox="0 0 50.953 59.101">
  <g id="helmt-right" opacity="0.5">
    <g id="Group_68" data-name="Group 68">
      <path id="Path_1446" data-name="Path 1446" d="M35.294,9.879A1.731,1.731,0,0,1,35.8,8.655a29.55,29.55,0,0,1,50.446,20.9,1.731,1.731,0,0,1-1.731,1.731H75.432l1.518,9.112a1.732,1.732,0,0,1-1.708,2.016H65.766A18.449,18.449,0,0,1,47.423,59.1H38.88a1.731,1.731,0,0,1-1.72-1.929l2.759-24.038A1.732,1.732,0,0,1,38.274,31.4V29.55a18.338,18.338,0,0,1,4.235-11.739L35.8,11.1A1.731,1.731,0,0,1,35.294,9.879ZM41.737,29.55v.123h9.4a1.731,1.731,0,1,1,0,3.463H43.4l-2.582,22.5h6.6a14.977,14.977,0,0,0,14.96-14.96,1.732,1.732,0,0,1,1.731-1.731H73.2L71.68,29.835c0-.021-.005-.043-.008-.064s-.006-.04-.007-.06c0-.053-.008-.107-.008-.161a14.96,14.96,0,0,0-29.92,0Zm3.221-14.187a18.412,18.412,0,0,1,30.08,12.456h7.69a26.09,26.09,0,0,0-43.213-17.9Z" transform="translate(-35.294)" fill="#a8b0a5"/>
    </g>
  </g>
</svg>
