<svg xmlns="http://www.w3.org/2000/svg" width="40" height="49" viewBox="0 0 50.953 59.101">
  <g id="helmet-left">
    <g id="Group_68" data-name="Group 68" transform="translate(0)">
      <path id="Path_1446" data-name="Path 1446" d="M86.247,9.879a1.731,1.731,0,0,0-.507-1.224,29.55,29.55,0,0,0-50.446,20.9,1.732,1.732,0,0,0,1.731,1.731h9.084l-1.518,9.112A1.732,1.732,0,0,0,46.3,42.409h9.477A18.449,18.449,0,0,0,74.117,59.1h8.543a1.731,1.731,0,0,0,1.72-1.929L81.622,33.134A1.732,1.732,0,0,0,83.267,31.4V29.55a18.338,18.338,0,0,0-4.235-11.739L85.74,11.1A1.731,1.731,0,0,0,86.247,9.879ZM79.8,29.55v.123h-9.4a1.731,1.731,0,1,0,0,3.463h7.729l2.582,22.5h-6.6a14.977,14.977,0,0,1-14.96-14.96,1.731,1.731,0,0,0-1.731-1.731H48.342l1.518-9.112c0-.021.005-.043.008-.064s.006-.04.007-.06c0-.053.008-.107.008-.161a14.96,14.96,0,0,1,29.92,0ZM76.583,15.363A18.412,18.412,0,0,0,46.5,27.819h-7.69a26.09,26.09,0,0,1,43.213-17.9Z" transform="translate(-35.294)" fill="#CA7E65"/>
    </g>
  </g>
</svg>
