<svg xmlns="http://www.w3.org/2000/svg" width="709.884" height="137.146" viewBox="0 0 709.884 137.146">
  <path id="line-step" d="M.991,20.57a18.7,18.7,0,0,0,7.123-1.427,18.654,18.654,0,0,0,6.025-4.034,18.615,18.615,0,0,0,4.049-6,18.5,18.5,0,0,0,1.433-7.094l0-.984h.984c7.1.008,617.373-.915,624.475-.884s14.2.121,21.306.179l10.653.131L687.694.61Q698.347.77,709,1.03q-10.653.259-21.306.419L677.042,1.6l-10.653.131c-7.1.058-14.2.143-21.306.178-6.78.031-616.73,1.071-623.51,1.083a20.458,20.458,0,0,1-1.527,6.881,20.559,20.559,0,0,1-4.46,6.675,20.693,20.693,0,0,1-6.7,4.441,20.683,20.683,0,0,1-6.911,1.521L.883,73.9.7,95.033c-.092,7.043-.161,14.087-.285,21.13Q.26,126.728,0,137.293q-.259-10.564-.419-21.13c-.125-7.043-.193-14.086-.285-21.13L-.884,73.9,0,21.552l0-.979Z" transform="translate(0.884 -0.146)" fill="#ca7e65"/>
</svg>
