<svg id="Component_6_1" data-name="Component 6 – 1" xmlns="http://www.w3.org/2000/svg" width="580" height="450" viewBox="0 0 723.904 590.683">
  <g id="_002-pillar" data-name="002-pillar">
    <g id="Group_67" data-name="Group 67">
      <path id="Path_1445" data-name="Path 1445" d="M24.684,0H5.648a5.648,5.648,0,1,0,3.87,9.757V29.443a.889.889,0,0,0,.889.889h9.518a.889.889,0,0,0,.889-.889V9.757A5.647,5.647,0,1,0,24.684,0ZM19.037,28.555H16.055v-17.2a.889.889,0,0,0-1.777,0v17.2H11.3V6.536h7.741ZM24.684,9.518a3.875,3.875,0,0,1-3.87-3.87.889.889,0,0,0-.889-.889H10.407a.889.889,0,0,0-.889.889,3.871,3.871,0,1,1-3.87-3.871H24.684a3.87,3.87,0,1,1,0,7.741Z" fill="#ca7e65"/>
    </g>
  </g>
  <g id="Ellipse_106" data-name="Ellipse 106" transform="translate(11.051 106.473)" fill="none" stroke="#ca7e65" stroke-width="2">
    <circle cx="4" cy="4" r="4" stroke="none"/>
    <circle cx="4" cy="4" r="3" fill="none"/>
  </g>
  <g id="Ellipse_107" data-name="Ellipse 107" transform="translate(11.051 50.473)" fill="none" stroke="#ca7e65" stroke-width="2">
    <circle cx="4" cy="4" r="4" stroke="none"/>
    <circle cx="4" cy="4" r="3" fill="none"/>
  </g>
  <line id="Line_64" data-name="Line 64" y2="28" transform="translate(15.051 68.473)" fill="none" stroke="#ca7e65" stroke-linecap="round" stroke-width="6"/>
  <g id="Ellipse_108" data-name="Ellipse 108" transform="translate(11.051 124.473)" fill="none" stroke="#ca7e65" stroke-width="2">
    <circle cx="4" cy="4" r="4" stroke="none"/>
    <circle cx="4" cy="4" r="3" fill="none"/>
  </g>
  <path id="Path_1501" data-name="Path 1501" d="M412.235,690.2a18.753,18.753,0,0,0-17.2,11.462,18.5,18.5,0,0,0-1.433,7.094l0,.984h-.984c-7.1-.008-352.271-.069-359.373-.1s-14.2-.121-21.306-.179l-10.653-.131-10.653-.153q-10.653-.16-21.306-.42,10.653-.259,21.306-.419l10.653-.153,10.653-.131c7.1-.058,14.2-.143,21.306-.178,6.78-.031,351.627-.086,358.408-.1a20.455,20.455,0,0,1,5.987-13.555,20.623,20.623,0,0,1,13.613-5.962L410.5,63.389l.179-21.129c.092-7.043.161-14.087.285-21.13q.159-10.565.419-21.13.259,10.564.419,21.13c.125,7.043.193,14.086.285,21.13l.179,21.129.956,625.825,0,.979Z" transform="translate(723.904 177.456) rotate(90)" fill="#ca7e65"/>
</svg>
