<svg id="Component_8_1" data-name="Component 8 – 1" xmlns="http://www.w3.org/2000/svg" width="1853.224" height="1142.538" viewBox="0 0 1853.224 1142.538">
  <g id="Component_7_1" data-name="Component 7 – 1">
    <path id="Path_1509" data-name="Path 1509" d="M.991,20.57a18.7,18.7,0,0,0,7.123-1.427,18.654,18.654,0,0,0,6.025-4.034,18.615,18.615,0,0,0,4.049-6,18.5,18.5,0,0,0,1.433-7.094l0-.984h.984c7.1.008,617.373-.915,624.475-.884s14.2.121,21.306.179l10.653.131L687.694.61Q698.347.77,709,1.03q-10.653.259-21.306.419L677.042,1.6l-10.653.131c-7.1.058-14.2.143-21.306.178-6.78.031-616.73,1.071-623.51,1.083a20.458,20.458,0,0,1-1.527,6.881,20.559,20.559,0,0,1-4.46,6.675,20.693,20.693,0,0,1-6.7,4.441,20.683,20.683,0,0,1-6.911,1.521L.883,73.9.7,95.033c-.092,7.043-.161,14.087-.285,21.13Q.26,126.728,0,137.293q-.259-10.564-.419-21.13c-.125-7.043-.193-14.086-.285-21.13L-.884,73.9,0,21.552l0-.979Z" transform="translate(0.884 -0.146)" fill="#ca7e65"/>
    <path id="Path_1510" data-name="Path 1510" d="M.266,1018.882a18.624,18.624,0,0,1,13.148,5.461,18.613,18.613,0,0,1,4.049,6,18.5,18.5,0,0,1,1.433,7.094l0,.984h.984c7.1-.008,663.183-1.05,670.285-1.081s14.2-.121,21.306-.178l10.653-.131,10.653-.153q10.653-.16,21.306-.42-10.653-.259-21.306-.419l-10.653-.153-10.653-.131c-7.1-.058-14.2-.143-21.306-.178-6.78-.031-662.54.894-669.32.882a20.459,20.459,0,0,0-1.527-6.881,20.561,20.561,0,0,0-4.46-6.675,20.694,20.694,0,0,0-6.7-4.441,20.681,20.681,0,0,0-6.911-1.521L.883,62.115.7,40.986C.612,33.943.543,26.9.419,19.856Q.26,9.291,0-1.273-.259,9.291-.419,19.856C-.544,26.9-.612,33.943-.7,40.986L-.884,62.115-.721,1017.9l0,.979Z" transform="translate(0.884 20.854)" fill="#ca7e65"/>
  </g>
  <path id="Path_1514" data-name="Path 1514" d="M442.906,690.2a18.753,18.753,0,0,0-17.2,11.462,18.5,18.5,0,0,0-1.433,7.094l0,.984h-.984c-7.1-.008,6.461.915-.641.884s-14.2-.121-21.306-.179l-10.653-.131-10.653-.153q-10.653-.16-21.306-.42,10.653-.259,21.306-.419l10.653-.153,10.653-.131c7.1-.058,14.2-.143,21.306-.178,6.78-.031-7.1-1.071-.324-1.083a20.455,20.455,0,0,1,5.987-13.555,20.623,20.623,0,0,1,13.613-5.962l-.756-624.865.179-21.129c.092-7.043.161-14.087.285-21.13q.159-10.565.419-21.13.259,10.564.419,21.13c.125,7.043.193,14.086.285,21.13l.179,21.129.956,625.825,0,.979Z" transform="translate(80 1501.019) rotate(-90)" fill="#ca7e65"/>
  <path id="Path_1515" data-name="Path 1515" d="M131.868,20.424A18.7,18.7,0,0,1,124.745,19a18.654,18.654,0,0,1-6.025-4.034,18.615,18.615,0,0,1-4.049-6,18.5,18.5,0,0,1-1.433-7.094l0-.984h-.984c-7.1.008,6.21-.914-.891-.883S97.156.123,90.054.18L79.4.312,68.749.465Q58.1.625,47.443.884,58.1,1.144,68.749,1.3L79.4,1.457l10.653.131c7.1.058,14.2.143,21.306.178,6.78.031-6.854,1.07-.074,1.082a20.458,20.458,0,0,0,1.527,6.881,20.559,20.559,0,0,0,4.46,6.675,20.623,20.623,0,0,0,13.613,5.962l1.277,978.585.179,21.129c.092,7.043.161,14.087.285,21.13q.159,10.565.419,21.13.259-10.564.419-21.13c.125-7.043.193-14.086.285-21.13l.179-21.129L132.854,21.406l0-.979Z" transform="translate(788.884 1189.981) rotate(-90)" fill="#ca7e65"/>
</svg>
