<svg xmlns="http://www.w3.org/2000/svg" width="364.041" height="118.585" viewBox="0 0 364.041 118.585">
  <path id="line-text-after" d="M680.788,338.349l-.372,16.213-.282,16.212-.555,32.425,1.209-1.209-39.663-.5-39.662-.352-.949-.009-.636.751c-12.482,14.747-27.5,27.418-44.593,36.264A118.361,118.361,0,0,1,500,451.937a115.619,115.619,0,0,1-28.462-3.513,122.441,122.441,0,0,1-26.823-10.283c-17.083-8.854-32.11-21.515-44.587-36.267l-.638-.754-.953.008-39.662.355-39.663.5,1.216,1.216-.558-32.425-.283-16.212-.375-16.213-.374,16.213-.284,16.212L318,403.2l-.02,1.2,1.236.016,39.663.5,39.662.355-1.591-.746a151.67,151.67,0,0,0,45.543,37.862,127.325,127.325,0,0,0,27.847,10.787,118.8,118.8,0,0,0,59.327,0,127.326,127.326,0,0,0,27.847-10.787,151.7,151.7,0,0,0,45.538-37.865l-1.585.743,39.662-.353,39.663-.5,1.229-.016L682,403.2l-.555-32.425-.282-16.212Z" transform="translate(-317.976 -338.349)" fill="#ca7e65"/>
</svg>
