<svg id="line-blog" xmlns="http://www.w3.org/2000/svg" width="580" height="1020.616" viewBox="0 0 713.479 1020.616">
  <path id="Path_19307" data-name="Path 19307" d="M442.906,690.2a18.753,18.753,0,0,0-17.2,11.462,18.5,18.5,0,0,0-1.433,7.094l0,.984h-.984c-7.1-.008-901.82,1.062-908.922,1.03s-14.2-.121-21.306-.179l-10.653-.131-10.653-.153q-10.653-.16-21.306-.42,10.653-.259,21.306-.419l10.653-.153,10.653-.131c7.1-.058,14.2-.143,21.306-.178,6.78-.031,901.176-1.218,907.957-1.229a20.455,20.455,0,0,1,5.987-13.555,20.623,20.623,0,0,1,13.613-5.962l1.089-621.982.179-21.129c.092-7.043.161-14.087.285-21.13q.159-10.565.419-21.13.259,10.564.419,21.13c.125,7.043.193,14.086.285,21.13l.179,21.129-.889,622.942,0,.979Z" transform="translate(2.712 444.781) rotate(-90)" fill="#ca7e65"/>
  <path id="Path_19308" data-name="Path 19308" d="M684.908,77.316a18.684,18.684,0,0,1-18.63-18.631l0-.988h-.984c-7.1.008-14.2.069-21.306.1s-14.2.121-21.306.179l-10.653.132-10.653.154q-10.653.161-21.306.421,10.653.261,21.306.421l10.653.154,10.653.132c7.1.058,14.2.144,21.306.179,6.78.031,13.56.087,20.341.1a20.528,20.528,0,0,0,19.6,19.6l-.756,627.382.179,21.214c.092,7.072.161,14.143.285,21.215q.159,10.607.419,21.215.259-10.607.419-21.215c.125-7.072.193-14.143.285-21.215l.179-21.214L685.894,78.3l0-.983Z" transform="translate(770.292 334.716) rotate(90)" fill="#ca7e65"/>
</svg>
