<svg id="line-header-two" xmlns="http://www.w3.org/2000/svg" width="580" height="437.325" viewBox="0 0 711.204 437.325">
  <g id="_017-pegasus" data-name="017-pegasus" transform="translate(682.404)">
    <g id="Group_90" data-name="Group 90" transform="translate(0 0)">
      <path id="Path_1463" data-name="Path 1463" d="M.183,37.149a.844.844,0,0,1,.661-.319h9.864a5.374,5.374,0,0,1,.964.087v-1.4a8.711,8.711,0,0,1,8.7-8.7H23.5V24.944a.844.844,0,1,1,1.688,0v1.868h2.771a.844.844,0,0,1,.844.844V39.961a.844.844,0,0,1-.844.844H25.673a.843.843,0,0,1-.6-.247l-2.743-2.743v4.714l6.219,6.219a.844.844,0,0,1-.6,1.44H3.555a.844.844,0,0,1-.822-.653L.022,37.865A.844.844,0,0,1,.183,37.149ZM16.07,42.192V48.5h9.849l-5.026-5.026a.844.844,0,0,1-.247-.6v-7.1a.844.844,0,0,1,1.44-.6l3.936,3.936h1.09V28.5h-6.74a7.021,7.021,0,0,0-7.013,7.013v2.02A5.366,5.366,0,0,1,16.07,42.192ZM2.418,40.72H7.17a.844.844,0,0,1,0,1.688H2.81l.512,2.2H8.074a.844.844,0,1,1,0,1.687H3.713l.512,2.2H14.383V42.192a3.679,3.679,0,0,0-3.675-3.675h-8.8Z" transform="translate(0 -24.1)" fill="#ca7e65"/>
    </g>
  </g>
  <path id="Path_1494" data-name="Path 1494" d="M104.839,19.54a18.706,18.706,0,0,1-7.123-1.427,18.653,18.653,0,0,1-6.025-4.034,18.615,18.615,0,0,1-4.049-6A18.5,18.5,0,0,1,86.209.984l0-.984h-.984c-7.1.008-321.6-.915-328.7-.884s-14.2.121-21.306.179l-10.653.131L-286.09-.42Q-296.743-.26-307.4,0q10.653.259,21.306.419l10.653.153L-264.785.7c7.1.058,14.2.143,21.306.178C-236.7.913,77.477,1.953,84.257,1.965a20.459,20.459,0,0,0,1.527,6.881,20.559,20.559,0,0,0,4.46,6.675,20.623,20.623,0,0,0,13.613,5.962L103.1,646.348l.179,21.129c.092,7.043.161,14.087.285,21.13q.159,10.565.419,21.13.259-10.564.419-21.13c.125-7.043.193-14.086.285-21.13l.179-21.129.956-625.825,0-.979Z" transform="translate(0.883 129.929) rotate(-90)" fill="#ca7e65"/>
</svg>
