<svg id="line-header" xmlns="http://www.w3.org/2000/svg" width="130" height="125.83" viewBox="0 0 200 100">
  <g id="_017-pegasus" data-name="017-pegasus" transform="translate(0 78.209)">
    <g id="Group_90" data-name="Group 90" transform="translate(0 0)">
      <path id="Path_1463" data-name="Path 1463" d="M28.617,37.149a.844.844,0,0,0-.661-.319H18.092a5.374,5.374,0,0,0-.964.087v-1.4a8.711,8.711,0,0,0-8.7-8.7H5.3V24.944a.844.844,0,1,0-1.688,0v1.868H.844A.844.844,0,0,0,0,27.655V39.961a.844.844,0,0,0,.844.844H3.127a.843.843,0,0,0,.6-.247l2.743-2.743v4.714L.247,48.749a.844.844,0,0,0,.6,1.44h24.4a.844.844,0,0,0,.822-.653l2.711-11.671A.844.844,0,0,0,28.617,37.149ZM12.73,42.192V48.5H2.881l5.026-5.026a.844.844,0,0,0,.247-.6v-7.1a.844.844,0,0,0-1.44-.6L2.778,39.117H1.688V28.5H8.428a7.021,7.021,0,0,1,7.013,7.013v2.02A5.366,5.366,0,0,0,12.73,42.192ZM26.382,40.72H21.63a.844.844,0,0,0,0,1.688h4.36l-.512,2.2H20.726a.844.844,0,1,0,0,1.688h4.36l-.512,2.2H14.417V42.192a3.679,3.679,0,0,1,3.675-3.675h8.8Z" transform="translate(0 -24.1)" fill="#ca7e65"/>
    </g>
  </g>
  <path id="Path_1493" data-name="Path 1493" d="M684.908,77.316a18.684,18.684,0,0,1-18.63-18.631l0-.988h-.984c-7.1.008-14.2.069-21.306.1s-14.2.121-21.306.179l-10.653.132-10.653.154q-10.653.161-21.306.421,10.653.261,21.306.421l10.653.154,10.653.132c7.1.058,14.2.144,21.306.179,6.78.031,13.56.087,20.341.1a20.528,20.528,0,0,0,19.6,19.6l-.756,627.382.179,21.214c.092,7.072.161,14.143.285,21.215q.159,10.607.419,21.215.259-10.607.419-21.215c.125-7.072.193-14.143.285-21.215l.179-21.214L685.894,78.3l0-.983Z" transform="translate(771.859 -580.069) rotate(90)" fill="#ca7e65"/>
</svg>
