<svg id="line-customers" xmlns="http://www.w3.org/2000/svg" width="1250" height="992.698" viewBox="0 0 1557.273 992.698">
  <path id="Path_19309" data-name="Path 19309" d="M.991,20.57a18.7,18.7,0,0,0,7.123-1.427,18.654,18.654,0,0,0,6.025-4.034,18.615,18.615,0,0,0,4.049-6,18.5,18.5,0,0,0,1.433-7.094l0-.984h.984c7.1.008,617.373-.915,624.475-.884s14.2.121,21.306.179l10.653.131L687.694.61Q698.347.77,709,1.03q-10.653.259-21.306.419L677.042,1.6l-10.653.131c-7.1.058-14.2.143-21.306.178-6.78.031-616.73,1.071-623.51,1.083a20.458,20.458,0,0,1-1.527,6.881,20.559,20.559,0,0,1-4.46,6.675,20.693,20.693,0,0,1-6.7,4.441,20.683,20.683,0,0,1-6.911,1.521L0,788.156-.18,809.285c-.092,7.043-.161,14.087-.285,21.13q-.159,10.565-.419,21.13-.259-10.564-.419-21.13c-.125-7.043-.193-14.086-.285-21.13l-.179-21.129L0,21.552l0-.979Z" transform="translate(1.767 -0.146)" fill="#ca7e65"/>
  <rect id="Rectangle_258" data-name="Rectangle 258" width="208" height="102" rx="15" transform="translate(245.884 583.956)" fill="#fff" opacity="0.05"/>
  <g id="Component_4_1" data-name="Component 4 – 1" transform="translate(0.884 547.603)">
    <path id="Path_19310" data-name="Path 19310" d="M412.235,690.2a18.753,18.753,0,0,0-17.2,11.462,18.5,18.5,0,0,0-1.433,7.094l0,.984h-.984c-7.1-.008-352.271-.069-359.373-.1s-14.2-.121-21.306-.179l-10.653-.131-10.653-.153q-10.653-.16-21.306-.42,10.653-.259,21.306-.419l10.653-.153,10.653-.131c7.1-.058,14.2-.143,21.306-.178,6.78-.031,351.627-.086,358.408-.1a20.455,20.455,0,0,1,5.987-13.555,20.623,20.623,0,0,1,13.613-5.962l1.4-1471.518.179-21.129c.092-7.043.161-14.087.285-21.13q.159-10.565.419-21.13.259,10.564.419,21.13c.125,7.043.193,14.086.285,21.13l.179,21.129-1.2,1472.478,0,.979Z" transform="translate(709.737 30.671) rotate(90)" fill="#ca7e65"/>
    <g id="_017-pegasus" data-name="017-pegasus" transform="translate(1527.589 418.066)">
      <g id="Group_90" data-name="Group 90" transform="translate(0 0)">
        <path id="Path_1463" data-name="Path 1463" d="M.183,37.149a.844.844,0,0,1,.661-.319h9.864a5.374,5.374,0,0,1,.964.087v-1.4a8.711,8.711,0,0,1,8.7-8.7H23.5V24.944a.844.844,0,1,1,1.688,0v1.868h2.771a.844.844,0,0,1,.844.844V39.961a.844.844,0,0,1-.844.844H25.673a.843.843,0,0,1-.6-.247l-2.743-2.743v4.714l6.219,6.219a.844.844,0,0,1-.6,1.44H3.555a.844.844,0,0,1-.822-.653L.022,37.865A.844.844,0,0,1,.183,37.149ZM16.07,42.192V48.5h9.849l-5.026-5.026a.844.844,0,0,1-.247-.6v-7.1a.844.844,0,0,1,1.44-.6l3.936,3.936h1.09V28.5h-6.74a7.021,7.021,0,0,0-7.013,7.013v2.02A5.366,5.366,0,0,1,16.07,42.192ZM2.418,40.72H7.17a.844.844,0,0,1,0,1.688H2.81l.512,2.2H8.074a.844.844,0,1,1,0,1.687H3.713l.512,2.2H14.383V42.192a3.679,3.679,0,0,0-3.675-3.675h-8.8Z" transform="translate(0 -24.1)" fill="#ca7e65"/>
      </g>
    </g>
  </g>
</svg>
