<svg width="24" height="24" viewBox="0 0 24 24" fill="none" xmlns="http://www.w3.org/2000/svg">
<path d="M21 13.9997H19C18.7348 13.9997 18.4804 14.1051 18.2929 14.2926C18.1054 14.4801 18 14.7345 18 14.9997C18 15.2649 18.1054 15.5193 18.2929 15.7068C18.4804 15.8943 18.7348 15.9997 19 15.9997H20V19.9997H4V15.9997H11C11.2652 15.9997 11.5196 15.8943 11.7071 15.7068C11.8946 15.5193 12 15.2649 12 14.9997C12 14.7345 11.8946 14.4801 11.7071 14.2926C11.5196 14.1051 11.2652 13.9997 11 13.9997H10V8.9997C10 8.73449 9.89464 8.48013 9.70711 8.2926C9.51957 8.10506 9.26522 7.9997 9 7.9997H3C2.73478 7.9997 2.48043 8.10506 2.29289 8.2926C2.10536 8.48013 2 8.73449 2 8.9997V14.9997V20.9997C2 21.2649 2.10536 21.5193 2.29289 21.7068C2.48043 21.8943 2.73478 21.9997 3 21.9997H21C21.2652 21.9997 21.5196 21.8943 21.7071 21.7068C21.8946 21.5193 22 21.2649 22 20.9997V14.9997C22 14.7345 21.8946 14.4801 21.7071 14.2926C21.5196 14.1051 21.2652 13.9997 21 13.9997ZM4 9.9997H8V13.9997H4V9.9997ZM12.71 6.6997L14 5.4097V16.9997C14 17.2649 14.1054 17.5193 14.2929 17.7068C14.4804 17.8943 14.7348 17.9997 15 17.9997C15.2652 17.9997 15.5196 17.8943 15.7071 17.7068C15.8946 17.5193 16 17.2649 16 16.9997V5.4097L17.29 6.6997C17.3826 6.79419 17.4931 6.86936 17.6149 6.92086C17.7368 6.97236 17.8677 6.99916 18 6.9997C18.1316 7.00047 18.2621 6.97524 18.3839 6.92548C18.5057 6.87571 18.6166 6.80239 18.71 6.7097C18.8962 6.52234 19.0008 6.26889 19.0008 6.0047C19.0008 5.74052 18.8962 5.48707 18.71 5.2997L15.71 2.2997C15.617 2.20598 15.5064 2.13158 15.3846 2.08081C15.2627 2.03004 15.132 2.00391 15 2.00391C14.868 2.00391 14.7373 2.03004 14.6154 2.08081C14.4936 2.13158 14.383 2.20598 14.29 2.2997L11.29 5.2997C11.1037 5.48707 10.9992 5.74052 10.9992 6.0047C10.9992 6.26889 11.1037 6.52234 11.29 6.7097C11.3836 6.80278 11.4947 6.8764 11.617 6.92631C11.7392 6.97622 11.8701 7.00144 12.0021 7.00051C12.1341 6.99958 12.2646 6.97252 12.3861 6.9209C12.5076 6.86927 12.6177 6.79409 12.71 6.6997Z" fill="black"/>
</svg>
