<svg width="24" height="24" viewBox="0 0 24 24" fill="none" xmlns="http://www.w3.org/2000/svg">
<path d="M15 1.99968C13.363 2.00101 11.7782 2.576 10.5213 3.62469C9.26431 4.67338 8.41463 6.12944 8.11997 7.73968C7.2584 8.2045 6.52365 8.87308 5.97981 9.68708C5.43598 10.5011 5.09958 11.4358 4.99997 12.4097C4.25572 12.7371 3.60253 13.241 3.09701 13.8778C2.5915 14.5147 2.24892 15.2652 2.09896 16.0643C1.949 16.8634 1.99619 17.6871 2.23643 18.4638C2.47667 19.2406 2.90272 19.9471 3.47765 20.522C4.05258 21.0969 4.75905 21.523 5.53582 21.7632C6.31259 22.0035 7.13624 22.0507 7.93536 21.9007C8.73449 21.7507 9.48499 21.4082 10.1218 20.9026C10.7586 20.3971 11.2626 19.7439 11.59 18.9997C12.561 18.9032 13.4938 18.5713 14.3076 18.0329C15.1213 17.4944 15.7915 16.7657 16.26 15.9097C18.0109 15.6288 19.5899 14.6939 20.6782 13.2937C21.7664 11.8936 22.2827 10.1326 22.1227 8.36656C21.9627 6.60049 21.1384 4.96095 19.8163 3.77915C18.4942 2.59734 16.7729 1.96137 15 1.99968ZM9.99997 17.4297C9.99997 17.5297 9.99997 17.6297 9.92997 17.7397C9.8008 18.2544 9.53742 18.7256 9.1667 19.1053C8.79597 19.485 8.33117 19.7595 7.8197 19.901C7.30823 20.0424 6.7684 20.0456 6.25528 19.9103C5.74216 19.775 5.27411 19.506 4.89888 19.1308C4.52365 18.7555 4.25466 18.2875 4.11935 17.7744C3.98405 17.2613 3.98727 16.7214 4.12869 16.21C4.27011 15.6985 4.54467 15.2337 4.92436 14.863C5.30404 14.4922 5.77527 14.2289 6.28997 14.0997L6.56997 13.9997C7.03955 13.9119 7.52344 13.9399 7.97976 14.0813C8.43608 14.2226 8.8511 14.473 9.18889 14.8108C9.52667 15.1486 9.77707 15.5636 9.91839 16.0199C10.0597 16.4762 10.0877 16.9601 9.99997 17.4297ZM15 13.7597C14.9868 13.8239 14.9701 13.8873 14.95 13.9497C14.907 14.1337 14.8502 14.3142 14.78 14.4897C14.5497 15.0735 14.1854 15.5949 13.7163 16.0118C13.2473 16.4288 12.6867 16.7295 12.08 16.8897C12.08 16.7097 12.08 16.5397 12.02 16.3597C11.96 16.1797 12.02 16.0897 12.02 15.9597C12.02 15.8297 11.9 15.5797 11.84 15.3897C11.78 15.1997 11.77 15.1497 11.72 15.0297C11.6338 14.8392 11.5335 14.6553 11.42 14.4797C11.42 14.3897 11.33 14.2897 11.27 14.1997C11.0921 13.939 10.8913 13.6947 10.67 13.4697L10.47 13.2997C10.3023 13.1456 10.1253 13.0019 9.93997 12.8697C9.83102 12.7988 9.71743 12.7353 9.59997 12.6797C9.43992 12.5779 9.27283 12.4877 9.09997 12.4097C8.97081 12.3544 8.83694 12.3109 8.69997 12.2797C8.53161 12.2114 8.35762 12.1578 8.17997 12.1197C8.03997 12.1197 7.88997 12.1197 7.73997 12.0597L7.12997 11.9997C7.28916 11.394 7.58835 10.8341 8.00347 10.3651C8.41859 9.89613 8.93803 9.5312 9.51997 9.29968C9.69148 9.22806 9.86879 9.17118 10.05 9.12968L10.25 9.07968C10.4966 9.02781 10.7479 9.00101 11 8.99968C12.0608 8.99968 13.0783 9.42111 13.8284 10.1713C14.5785 10.9214 15 11.9388 15 12.9997C14.9986 13.255 14.9718 13.5096 14.92 13.7597H15ZM17 13.5997C17 13.3997 17 13.1997 17 12.9997C17 11.4084 16.3678 9.88226 15.2426 8.75704C14.1174 7.63182 12.5913 6.99968 11 6.99968C10.8 6.99968 10.6 6.99968 10.4 6.99968C10.7296 6.25823 11.2347 5.60814 11.8717 5.10553C12.5087 4.60292 13.2585 4.2629 14.0563 4.1148C14.8541 3.96671 15.6759 4.01501 16.4509 4.25552C17.2258 4.49603 17.9306 4.92153 18.5044 5.49529C19.0781 6.06905 19.5036 6.77383 19.7441 7.54878C19.9846 8.32374 20.0329 9.14558 19.8848 9.94337C19.7368 10.7412 19.3967 11.4909 18.8941 12.1279C18.3915 12.7649 17.7414 13.2701 17 13.5997Z" fill="black"/>
</svg>
