<svg width="24" height="24" viewBox="0 0 24 24" fill="none" xmlns="http://www.w3.org/2000/svg">
<path d="M7.4199 15.5404C7.23365 15.7277 7.12911 15.9812 7.12911 16.2454C7.12911 16.5096 7.23365 16.763 7.4199 16.9504C7.51286 17.0441 7.62346 17.1185 7.74532 17.1693C7.86718 17.22 7.99789 17.2462 8.1299 17.2462C8.26191 17.2462 8.39262 17.22 8.51448 17.1693C8.63633 17.1185 8.74694 17.0441 8.8399 16.9504C9.02615 16.763 9.13069 16.5096 9.13069 16.2454C9.13069 15.9812 9.02615 15.7277 8.8399 15.5404C8.74694 15.4467 8.63633 15.3723 8.51448 15.3215C8.39262 15.2707 8.26191 15.2446 8.1299 15.2446C7.99789 15.2446 7.86718 15.2707 7.74532 15.3215C7.62346 15.3723 7.51286 15.4467 7.4199 15.5404ZM7.4199 7.05038C7.23365 7.23775 7.12911 7.4912 7.12911 7.75538C7.12911 8.01957 7.23365 8.27302 7.4199 8.46038C7.51286 8.55411 7.62346 8.62851 7.74532 8.67927C7.86718 8.73004 7.99789 8.75618 8.1299 8.75618C8.26191 8.75618 8.39262 8.73004 8.51448 8.67927C8.63633 8.62851 8.74694 8.55411 8.8399 8.46038C9.02615 8.27302 9.13069 8.01957 9.13069 7.75538C9.13069 7.4912 9.02615 7.23775 8.8399 7.05038C8.74694 6.95665 8.63633 6.88226 8.51448 6.83149C8.39262 6.78072 8.26191 6.75458 8.1299 6.75458C7.99789 6.75458 7.86718 6.78072 7.74532 6.83149C7.62346 6.88226 7.51286 6.95665 7.4199 7.05038ZM12.3699 17.0504C12.1721 17.0504 11.9788 17.109 11.8143 17.2189C11.6499 17.3288 11.5217 17.485 11.446 17.6677C11.3703 17.8504 11.3505 18.0515 11.3891 18.2455C11.4277 18.4395 11.5229 18.6176 11.6628 18.7575C11.8026 18.8973 11.9808 18.9926 12.1748 19.0312C12.3688 19.0698 12.5699 19.0499 12.7526 18.9743C12.9353 18.8986 13.0915 18.7704 13.2014 18.606C13.3112 18.4415 13.3699 18.2482 13.3699 18.0504C13.3767 17.9149 13.3558 17.7795 13.3086 17.6523C13.2614 17.5252 13.1888 17.4089 13.0953 17.3107C13.0017 17.2125 12.8892 17.1343 12.7645 17.081C12.6398 17.0276 12.5055 17.0002 12.3699 17.0004V17.0504ZM6.3699 11.0504C6.17212 11.0504 5.97878 11.109 5.81433 11.2189C5.64988 11.3288 5.52171 11.485 5.44602 11.6677C5.37033 11.8504 5.35053 12.0515 5.38911 12.2455C5.4277 12.4395 5.52294 12.6176 5.66279 12.7575C5.80264 12.8973 5.98083 12.9926 6.17481 13.0312C6.36879 13.0698 6.56986 13.0499 6.75258 12.9743C6.93531 12.8986 7.09149 12.7704 7.20137 12.606C7.31125 12.4415 7.3699 12.2482 7.3699 12.0504C7.37668 11.9149 7.35583 11.7795 7.30862 11.6523C7.26141 11.5252 7.18883 11.4089 7.09529 11.3107C7.00174 11.2125 6.8892 11.1343 6.76449 11.081C6.63979 11.0276 6.50554 11.0002 6.3699 11.0004V11.0504ZM12.3699 5.05038C12.1721 5.05038 11.9788 5.10903 11.8143 5.21891C11.6499 5.32879 11.5217 5.48497 11.446 5.6677C11.3703 5.85043 11.3505 6.05149 11.3891 6.24547C11.4277 6.43945 11.5229 6.61764 11.6628 6.75749C11.8026 6.89734 11.9808 6.99258 12.1748 7.03117C12.3688 7.06975 12.5699 7.04995 12.7526 6.97426C12.9353 6.89857 13.0915 6.7704 13.2014 6.60595C13.3112 6.4415 13.3699 6.24816 13.3699 6.05038C13.3767 5.91492 13.3558 5.77948 13.3086 5.65233C13.2614 5.52517 13.1888 5.40895 13.0953 5.31073C13.0017 5.21251 12.8892 5.13434 12.7645 5.08099C12.6398 5.02764 12.5055 5.00021 12.3699 5.00038V5.05038ZM15.9099 7.10038C15.7695 7.24 15.6736 7.41817 15.6346 7.61231C15.5955 7.80645 15.6149 8.00783 15.6905 8.1909C15.766 8.37397 15.8941 8.5305 16.0587 8.64065C16.2233 8.75079 16.4169 8.80959 16.6149 8.80959C16.8129 8.80959 17.0065 8.75079 17.1711 8.64065C17.3357 8.5305 17.4638 8.37397 17.5393 8.1909C17.6149 8.00783 17.6343 7.80645 17.5952 7.61231C17.5562 7.41817 17.4603 7.24 17.3199 7.10038C17.1392 6.90734 16.8895 6.7937 16.6252 6.78433C16.361 6.77496 16.1038 6.87062 15.9099 7.05038V7.10038ZM22.2099 7.10038C21.2956 5.27268 19.8903 3.7358 18.1515 2.66208C16.4127 1.58837 14.4091 1.02027 12.3655 1.02149C10.3219 1.02271 8.31902 1.5932 6.58148 2.669C4.84395 3.74479 3.44045 5.28335 2.52838 7.11214C1.61631 8.94094 1.23172 10.9877 1.41774 13.0228C1.60377 15.0579 2.35305 17.001 3.58157 18.6341C4.81008 20.2672 6.46926 21.5259 8.37304 22.2688C10.2768 23.0118 12.3499 23.2097 14.3599 22.8404C14.8653 22.7453 15.3468 22.5504 15.776 22.2671C16.2053 21.9838 16.5737 21.6177 16.8599 21.1904C17.1682 20.7258 17.381 20.2044 17.4857 19.6567C17.5905 19.109 17.5851 18.546 17.4699 18.0004C17.4069 17.6707 17.3735 17.336 17.3699 17.0004C17.3743 16.0313 17.6602 15.0845 18.1928 14.2749C18.7254 13.4653 19.4817 12.828 20.3699 12.4404C20.8488 12.226 21.2786 11.9157 21.6329 11.5287C21.9872 11.1417 22.2585 10.6863 22.4299 10.1904C22.6033 9.68367 22.6732 9.14729 22.6354 8.61307C22.5976 8.07884 22.4529 7.55764 22.2099 7.08038V7.10038ZM20.5099 9.54038C20.4246 9.7797 20.2921 9.99947 20.1203 10.1867C19.9486 10.3739 19.741 10.5248 19.5099 10.6304C18.2799 11.181 17.2349 12.0749 16.5006 13.2049C15.7662 14.3348 15.3736 15.6528 15.3699 17.0004C15.3714 17.4705 15.4183 17.9393 15.5099 18.4004C15.571 18.6822 15.575 18.9734 15.5218 19.2567C15.4685 19.5401 15.3591 19.81 15.1999 20.0504C15.0652 20.2608 14.888 20.4407 14.6796 20.5784C14.4712 20.7162 14.2362 20.8089 13.9899 20.8504C13.4558 20.9508 12.9134 21.001 12.3699 21.0004C11.1641 21.001 9.97041 20.7592 8.85982 20.2895C7.74923 19.8198 6.74435 19.1317 5.90486 18.2661C5.06537 17.4005 4.40838 16.375 3.97291 15.2506C3.53745 14.1261 3.33238 12.9256 3.3699 11.7204C3.44751 9.47318 4.3589 7.33534 5.92653 5.72334C7.49415 4.11135 9.60573 3.14066 11.8499 3.00038H12.3599C14.0357 3.0008 15.678 3.46907 17.102 4.35245C18.526 5.23583 19.6751 6.49923 20.4199 8.00038C20.6491 8.47536 20.6815 9.02167 20.5099 9.52038V9.54038ZM12.3699 11.0004C12.1721 11.0004 11.9788 11.059 11.8143 11.1689C11.6499 11.2788 11.5217 11.435 11.446 11.6177C11.3703 11.8004 11.3505 12.0015 11.3891 12.1955C11.4277 12.3895 11.5229 12.5676 11.6628 12.7075C11.8026 12.8473 11.9808 12.9426 12.1748 12.9812C12.3688 13.0198 12.5699 12.9999 12.7526 12.9243C12.9353 12.8486 13.0915 12.7204 13.2014 12.556C13.3112 12.3915 13.3699 12.1982 13.3699 12.0004C13.3699 11.7352 13.2645 11.4808 13.077 11.2933C12.8895 11.1057 12.6351 11.0004 12.3699 11.0004Z" fill="black"/>
</svg>
