<svg width="24" height="24" viewBox="0 0 24 24" fill="none" xmlns="http://www.w3.org/2000/svg">
<path d="M16 4.00019H15.41L15.71 3.71019C15.8032 3.61695 15.8772 3.50626 15.9277 3.38443C15.9781 3.26261 16.0041 3.13204 16.0041 3.00019C16.0041 2.86833 15.9781 2.73776 15.9277 2.61594C15.8772 2.49411 15.8032 2.38342 15.71 2.29019C15.6168 2.19695 15.5061 2.12299 15.3842 2.07253C15.2624 2.02207 15.1319 1.99609 15 1.99609C14.7337 1.99609 14.4783 2.10188 14.29 2.29019L12.29 4.29019C12.1963 4.38315 12.1219 4.49375 12.0711 4.61561C12.0203 4.73747 11.9942 4.86817 11.9942 5.00019C11.9942 5.1322 12.0203 5.2629 12.0711 5.38476C12.1219 5.50662 12.1963 5.61722 12.29 5.71019L14.29 7.71019C14.383 7.80391 14.4936 7.87831 14.6154 7.92908C14.7373 7.97985 14.868 8.00598 15 8.00598C15.132 8.00598 15.2627 7.97985 15.3846 7.92908C15.5064 7.87831 15.617 7.80391 15.71 7.71019C15.8037 7.61722 15.8781 7.50662 15.9289 7.38476C15.9797 7.2629 16.0058 7.1322 16.0058 7.00019C16.0058 6.86817 15.9797 6.73747 15.9289 6.61561C15.8781 6.49375 15.8037 6.38315 15.71 6.29019L15.41 6.00019H16C16.7956 6.00019 17.5587 6.31626 18.1213 6.87887C18.6839 7.44147 19 8.20454 19 9.00019V11.0002C19 11.2654 19.1054 11.5198 19.2929 11.7073C19.4804 11.8948 19.7348 12.0002 20 12.0002C20.2652 12.0002 20.5196 11.8948 20.7071 11.7073C20.8946 11.5198 21 11.2654 21 11.0002V9.00019C21 7.6741 20.4732 6.40233 19.5355 5.46465C18.5979 4.52697 17.3261 4.00019 16 4.00019ZM16 18.0002H15V11.0002C15 10.735 14.8946 10.4806 14.7071 10.2931C14.5196 10.1055 14.2652 10.0002 14 10.0002H7V9.00019C7 8.73497 6.89464 8.48062 6.70711 8.29308C6.51957 8.10554 6.26522 8.00019 6 8.00019C5.73478 8.00019 5.48043 8.10554 5.29289 8.29308C5.10536 8.48062 5 8.73497 5 9.00019V10.0002H4C3.73478 10.0002 3.48043 10.1055 3.29289 10.2931C3.10536 10.4806 3 10.735 3 11.0002C3 11.2654 3.10536 11.5198 3.29289 11.7073C3.48043 11.8948 3.73478 12.0002 4 12.0002H5V19.0002C5 19.2654 5.10536 19.5198 5.29289 19.7073C5.48043 19.8948 5.73478 20.0002 6 20.0002H13V21.0002C13 21.2654 13.1054 21.5198 13.2929 21.7073C13.4804 21.8948 13.7348 22.0002 14 22.0002C14.2652 22.0002 14.5196 21.8948 14.7071 21.7073C14.8946 21.5198 15 21.2654 15 21.0002V20.0002H16C16.2652 20.0002 16.5196 19.8948 16.7071 19.7073C16.8946 19.5198 17 19.2654 17 19.0002C17 18.735 16.8946 18.4806 16.7071 18.2931C16.5196 18.1055 16.2652 18.0002 16 18.0002ZM13 18.0002H7V12.0002H13V18.0002Z" fill="black"/>
</svg>
