<svg width="24" height="24" viewBox="0 0 24 24" fill="none" xmlns="http://www.w3.org/2000/svg">
<path d="M22.7099 21.2902L21.7099 20.2902L15.7099 14.2902L9.70994 8.29019L3.70994 2.29019L2.70994 1.29019C2.52164 1.10188 2.26624 0.996094 1.99994 0.996094C1.73364 0.996094 1.47824 1.10188 1.28994 1.29019C1.10164 1.47849 0.99585 1.73388 0.99585 2.00019C0.99585 2.26649 1.10164 2.52188 1.28994 2.71019L1.99994 3.41019V21.0002C1.99994 21.2654 2.1053 21.5198 2.29283 21.7073C2.48037 21.8948 2.73472 22.0002 2.99994 22.0002H20.5899L21.2899 22.7102C21.3829 22.8039 21.4935 22.8783 21.6154 22.9291C21.7372 22.9798 21.8679 23.006 21.9999 23.006C22.132 23.006 22.2627 22.9798 22.3845 22.9291C22.5064 22.8783 22.617 22.8039 22.7099 22.7102C22.8037 22.6172 22.8781 22.5066 22.9288 22.3848C22.9796 22.2629 23.0057 22.1322 23.0057 22.0002C23.0057 21.8682 22.9796 21.7375 22.9288 21.6156C22.8781 21.4937 22.8037 21.3831 22.7099 21.2902ZM3.99994 5.41019L6.58994 8.00019H3.99994V5.41019ZM7.99994 20.0002H3.99994V16.0002H7.99994V20.0002ZM7.99994 14.0002H3.99994V10.0002H7.99994V14.0002ZM9.99994 11.4102L12.5899 14.0002H9.99994V11.4102ZM13.9999 20.0002H9.99994V16.0002H13.9999V20.0002ZM15.9999 20.0002V17.4102L18.5899 20.0002H15.9999ZM8.66994 4.00019H13.9999V9.00019C13.9999 9.2654 14.1053 9.51976 14.2928 9.70729C14.4804 9.89483 14.7347 10.0002 14.9999 10.0002H19.9999V15.3302C19.9999 15.5954 20.1053 15.8498 20.2928 16.0373C20.4804 16.2248 20.7347 16.3302 20.9999 16.3302C21.2652 16.3302 21.5195 16.2248 21.707 16.0373C21.8946 15.8498 21.9999 15.5954 21.9999 15.3302V3.00019C21.9999 2.73497 21.8946 2.48061 21.707 2.29308C21.5195 2.10554 21.2652 2.00019 20.9999 2.00019H8.66994C8.40473 2.00019 8.15037 2.10554 7.96283 2.29308C7.7753 2.48061 7.66994 2.73497 7.66994 3.00019C7.66994 3.2654 7.7753 3.51976 7.96283 3.70729C8.15037 3.89483 8.40473 4.00019 8.66994 4.00019ZM15.9999 4.00019H19.9999V8.00019H15.9999V4.00019Z" fill="black"/>
</svg>
