<svg width="24" height="24" viewBox="0 0 24 24" fill="none" xmlns="http://www.w3.org/2000/svg">
<path d="M13.2099 5.70045C13.2896 5.71009 13.3702 5.71009 13.4499 5.70045L15.3899 5.21045C15.6471 5.14662 15.8684 4.98335 16.0053 4.75648C16.1421 4.52962 16.1834 4.2577 16.1199 4.00045C16.0561 3.7433 15.8928 3.52199 15.666 3.38512C15.4391 3.24825 15.1672 3.20701 14.9099 3.27045L12.9999 3.73045C12.7347 3.76228 12.493 3.89816 12.328 4.1082C12.1629 4.31824 12.0881 4.58524 12.1199 4.85045C12.1518 5.11567 12.2876 5.35738 12.4977 5.52241C12.7077 5.68745 12.9747 5.76228 13.2399 5.73045L13.2099 5.70045ZM9.50994 9.00045H7.50994C7.24472 9.00045 6.99037 9.10581 6.80283 9.29335C6.61529 9.48088 6.50994 9.73524 6.50994 10.0005C6.50994 10.2657 6.61529 10.52 6.80283 10.7076C6.99037 10.8951 7.24472 11.0005 7.50994 11.0005H9.50994C9.77515 11.0005 10.0295 10.8951 10.217 10.7076C10.4046 10.52 10.5099 10.2657 10.5099 10.0005C10.5099 9.73524 10.4046 9.48088 10.217 9.29335C10.0295 9.10581 9.77515 9.00045 9.50994 9.00045ZM13.5099 9.00045C13.2447 9.00045 12.9904 9.10581 12.8028 9.29335C12.6153 9.48088 12.5099 9.73524 12.5099 10.0005C12.5099 10.2657 12.6153 10.52 12.8028 10.7076C12.9904 10.8951 13.2447 11.0005 13.5099 11.0005H15.5099C15.7752 11.0005 16.0295 10.8951 16.217 10.7076C16.4046 10.52 16.5099 10.2657 16.5099 10.0005C16.5099 9.73524 16.4046 9.48088 16.217 9.29335C16.0295 9.10581 15.7752 9.00045 15.5099 9.00045H13.5099ZM7.38994 7.15045H7.62994L9.56994 6.67045C9.83117 6.6068 10.0564 6.44198 10.1961 6.21225C10.3359 5.98252 10.3786 5.70669 10.3149 5.44546C10.2513 5.18422 10.0865 4.95896 9.85673 4.81925C9.627 4.67953 9.35117 4.6368 9.08994 4.70045L7.14994 5.18045C6.88472 5.21228 6.64301 5.34816 6.47798 5.5582C6.31294 5.76824 6.23811 6.03524 6.26994 6.30046C6.30176 6.56567 6.43764 6.80738 6.64768 6.97241C6.85772 7.13745 7.12472 7.21228 7.38994 7.18045V7.15045ZM3.99994 10.5105C4.26515 10.5105 4.51951 10.4051 4.70704 10.2176C4.89458 10.03 4.99994 9.77567 4.99994 9.51046V7.51046C4.99994 7.24524 4.89458 6.99088 4.70704 6.80335C4.51951 6.61581 4.26515 6.51046 3.99994 6.51046C3.73472 6.51046 3.48037 6.61581 3.29283 6.80335C3.10529 6.99088 2.99994 7.24524 2.99994 7.51046V9.51046C2.99994 9.77567 3.10529 10.03 3.29283 10.2176C3.48037 10.4051 3.73472 10.5105 3.99994 10.5105ZM20.6199 2.21045C20.5023 2.11179 20.3636 2.04152 20.2144 2.00511C20.0653 1.96869 19.9098 1.9671 19.7599 2.00045L18.7599 2.24045C18.5028 2.30429 18.2815 2.46756 18.1446 2.69443C18.0077 2.92129 17.9665 3.19321 18.0299 3.45045C18.0847 3.67233 18.2138 3.86876 18.3957 4.00704C18.5777 4.14532 18.8015 4.21711 19.0299 4.21045C19.0882 4.44482 19.2293 4.6502 19.4271 4.78865C19.625 4.92709 19.8663 4.98926 20.1064 4.96366C20.3466 4.93806 20.5693 4.82643 20.7336 4.64938C20.8978 4.47233 20.9924 4.24183 20.9999 4.00045V3.00045C21.0008 2.84856 20.967 2.69848 20.9011 2.5616C20.8353 2.42471 20.7391 2.30463 20.6199 2.21045ZM19.9999 7.00045C19.7347 7.00045 19.4804 7.10581 19.2928 7.29335C19.1053 7.48088 18.9999 7.73524 18.9999 8.00045V9.14046C18.8115 9.25225 18.665 9.42284 18.583 9.62598C18.5009 9.82913 18.4879 10.0536 18.5458 10.2649C18.6038 10.4762 18.7295 10.6626 18.9037 10.7955C19.0778 10.9284 19.2908 11.0004 19.5099 11.0005H19.9999C20.2652 11.0005 20.5195 10.8951 20.707 10.7076C20.8946 10.52 20.9999 10.2657 20.9999 10.0005V8.00045C20.9999 7.73524 20.8946 7.48088 20.707 7.29335C20.5195 7.10581 20.2652 7.00045 19.9999 7.00045ZM19.9999 13.0005H3.99994C3.73472 13.0005 3.48037 13.1058 3.29283 13.2933C3.10529 13.4809 2.99994 13.7352 2.99994 14.0005V17.0005C2.99328 17.2289 3.06507 17.4527 3.20335 17.6347C3.34163 17.8166 3.53806 17.9457 3.75994 18.0005L19.7599 22.0005C19.8396 22.0101 19.9202 22.0101 19.9999 22.0005C20.2652 22.0005 20.5195 21.8951 20.707 21.7076C20.8946 21.52 20.9999 21.2657 20.9999 21.0005V14.0005C20.9999 13.7352 20.8946 13.4809 20.707 13.2933C20.5195 13.1058 20.2652 13.0005 19.9999 13.0005ZM18.9999 19.7205L4.99994 16.2205V15.0005H18.9999V19.7205Z" fill="black"/>
</svg>
