<svg width="24" height="24" viewBox="0 0 24 24" fill="none" xmlns="http://www.w3.org/2000/svg">
<path d="M21 11.0004H3C2.73478 11.0004 2.48043 11.1057 2.29289 11.2933C2.10536 11.4808 2 11.7351 2 12.0004C2 12.2656 2.10536 12.5199 2.29289 12.7075C2.48043 12.895 2.73478 13.0004 3 13.0004H21C21.2652 13.0004 21.5196 12.895 21.7071 12.7075C21.8946 12.5199 22 12.2656 22 12.0004C22 11.7351 21.8946 11.4808 21.7071 11.2933C21.5196 11.1057 21.2652 11.0004 21 11.0004ZM10.93 9.00036H12.43C12.6952 9.00036 12.9496 8.89501 13.1371 8.70747C13.3246 8.51993 13.43 8.26558 13.43 8.00036C13.43 7.73515 13.3246 7.48079 13.1371 7.29326C12.9496 7.10572 12.6952 7.00036 12.43 7.00036H10.93C10.6648 7.00036 10.4104 7.10572 10.2229 7.29326C10.0354 7.48079 9.93 7.73515 9.93 8.00036C9.93 8.26558 10.0354 8.51993 10.2229 8.70747C10.4104 8.89501 10.6648 9.00036 10.93 9.00036ZM15.43 8.00036C15.43 8.26558 15.5354 8.51993 15.7229 8.70747C15.9104 8.89501 16.1648 9.00036 16.43 9.00036H17C17.1974 8.99938 17.3901 8.93998 17.5539 8.82964C17.7176 8.71931 17.845 8.56298 17.92 8.38036C17.9966 8.19825 18.0175 7.99754 17.9801 7.80355C17.9428 7.60956 17.8488 7.43099 17.71 7.29036L17.05 6.64036C16.8626 6.45411 16.6092 6.34957 16.345 6.34957C16.0808 6.34957 15.8274 6.45411 15.64 6.64036C15.4921 6.78813 15.3942 6.97854 15.3601 7.18482C15.326 7.3911 15.3575 7.60287 15.45 7.79036C15.4384 7.8598 15.4317 7.92998 15.43 8.00036ZM11.65 4.77036L12 4.41036L12.81 5.22036C12.9974 5.40661 13.2508 5.51116 13.515 5.51116C13.7792 5.51116 14.0326 5.40661 14.22 5.22036C14.4063 5.033 14.5108 4.77955 14.5108 4.51536C14.5108 4.25118 14.4063 3.99773 14.22 3.81036L13.16 2.75036C13.0853 2.67208 12.9973 2.60774 12.9 2.56036C12.8305 2.41636 12.7274 2.29113 12.5995 2.19517C12.4716 2.09922 12.3225 2.03534 12.1648 2.00889C12.0071 1.98244 11.8454 1.9942 11.6932 2.04318C11.541 2.09215 11.4027 2.17692 11.29 2.29036L10.23 3.35036C10.0417 3.53867 9.93591 3.79406 9.93591 4.06036C9.93591 4.32666 10.0417 4.58206 10.23 4.77036C10.4183 4.95867 10.6737 5.06445 10.94 5.06445C11.2063 5.06445 11.4617 4.95867 11.65 4.77036ZM17 15.0004H7C6.80257 15.0013 6.60986 15.0608 6.44614 15.1711C6.28242 15.2814 6.15502 15.4377 6.08 15.6204C6.00342 15.8025 5.9825 16.0032 6.01987 16.1972C6.05725 16.3912 6.15124 16.5697 6.29 16.7104L11.29 21.7104C11.383 21.8041 11.4936 21.8785 11.6154 21.9293C11.7373 21.98 11.868 22.0062 12 22.0062C12.132 22.0062 12.2627 21.98 12.3846 21.9293C12.5064 21.8785 12.617 21.8041 12.71 21.7104L17.71 16.7104C17.8488 16.5697 17.9428 16.3912 17.9801 16.1972C18.0175 16.0032 17.9966 15.8025 17.92 15.6204C17.845 15.4377 17.7176 15.2814 17.5539 15.1711C17.3901 15.0608 17.1974 15.0013 17 15.0004ZM12 19.5904L9.41 17.0004H14.59L12 19.5904ZM7.05 9.00036C7.18161 9.00112 7.31207 8.9759 7.43391 8.92613C7.55574 8.87637 7.66656 8.80304 7.76 8.71036L8.82 7.60036C9.0083 7.41206 9.11409 7.15666 9.11409 6.89036C9.11409 6.62406 9.0083 6.36867 8.82 6.18036C8.6317 5.99206 8.3763 5.88627 8.11 5.88627C7.8437 5.88627 7.5883 5.99206 7.4 6.18036L6.34 7.24036C6.24627 7.33333 6.17188 7.44393 6.12111 7.56579C6.07034 7.68765 6.0442 7.81835 6.0442 7.95036C6.0442 8.08237 6.07034 8.21308 6.12111 8.33494C6.17188 8.4568 6.24627 8.5674 6.34 8.66036C6.42919 8.76212 6.5381 8.84472 6.66014 8.90317C6.78218 8.96161 6.91481 8.99467 7.05 9.00036Z" fill="black"/>
</svg>
