<svg width="24" height="24" viewBox="0 0 24 24" fill="none" xmlns="http://www.w3.org/2000/svg">
<path d="M13 11.0003H2.00005C1.73483 11.0003 1.48048 11.1056 1.29294 11.2932C1.10541 11.4807 1.00005 11.7351 1.00005 12.0003V21.0003C1.00005 21.2655 1.10541 21.5198 1.29294 21.7074C1.48048 21.8949 1.73483 22.0003 2.00005 22.0003H12.86C12.91 22.0003 12.95 22.0003 13 22.0003C13.2653 22.0003 13.5196 21.8949 13.7072 21.7074C13.8947 21.5198 14 21.2655 14 21.0003V12.0003C14 11.7351 13.8947 11.4807 13.7072 11.2932C13.5196 11.1056 13.2653 11.0003 13 11.0003ZM7.44005 20.0003L9.37005 18.0703C9.39742 18.029 9.43456 17.9952 9.47819 17.9718C9.52181 17.9484 9.57054 17.9361 9.62005 17.9361C9.66956 17.9361 9.71829 17.9484 9.76191 17.9718C9.80553 17.9952 9.84268 18.029 9.87005 18.0703L11.79 20.0003H7.44005ZM12 17.3803L11.28 16.6703C10.8316 16.2418 10.2353 16.0027 9.61505 16.0027C8.99482 16.0027 8.39846 16.2418 7.95005 16.6703L4.61005 20.0003H3.00005V13.0003H12V17.3803ZM2.00005 4.11027C2.17359 4.11024 2.34414 4.06505 2.49493 3.97914C2.64571 3.89323 2.77154 3.76955 2.86005 3.62027C2.98721 3.43883 3.05372 3.22181 3.05005 3.00027C3.05022 2.86464 3.02279 2.73038 2.96944 2.60568C2.91609 2.48098 2.83793 2.36843 2.73971 2.27489C2.64149 2.18134 2.52526 2.10876 2.39811 2.06155C2.27095 2.01434 2.13552 1.99349 2.00005 2.00027C1.73483 2.00027 1.48048 2.10563 1.29294 2.29317C1.10541 2.4807 1.00005 2.73506 1.00005 3.00027V3.10027C0.998728 3.23244 1.02362 3.36355 1.07328 3.48603C1.12294 3.60851 1.19639 3.71993 1.28938 3.81385C1.38237 3.90777 1.49306 3.98233 1.61504 4.03321C1.73702 4.08409 1.86788 4.11028 2.00005 4.11027ZM9.91005 4.00027H10.1C10.3653 4.00027 10.6196 3.89492 10.8072 3.70738C10.9947 3.51984 11.1 3.26549 11.1 3.00027C11.1 2.73506 10.9947 2.4807 10.8072 2.29317C10.6196 2.10563 10.3653 2.00027 10.1 2.00027H9.91005C9.64483 2.00027 9.39048 2.10563 9.20294 2.29317C9.01541 2.4807 8.91005 2.73506 8.91005 3.00027C8.91005 3.26549 9.01541 3.51984 9.20294 3.70738C9.39048 3.89492 9.64483 4.00027 9.91005 4.00027ZM2.00005 8.78027C2.26527 8.78027 2.51962 8.67492 2.70716 8.48738C2.89469 8.29984 3.00005 8.04549 3.00005 7.78027V7.56027C3.00005 7.29506 2.89469 7.0407 2.70716 6.85317C2.51962 6.66563 2.26527 6.56027 2.00005 6.56027C1.73483 6.56027 1.48048 6.66563 1.29294 6.85317C1.10541 7.0407 1.00005 7.29506 1.00005 7.56027V7.78027C1.00005 8.04549 1.10541 8.29984 1.29294 8.48738C1.48048 8.67492 1.73483 8.78027 2.00005 8.78027ZM14.09 2.00027H13.9C13.6348 2.00027 13.3805 2.10563 13.1929 2.29317C13.0054 2.4807 12.9 2.73506 12.9 3.00027C12.9 3.26549 13.0054 3.51984 13.1929 3.70738C13.3805 3.89492 13.6348 4.00027 13.9 4.00027H14.09C14.3553 4.00027 14.6096 3.89492 14.7972 3.70738C14.9847 3.51984 15.09 3.26549 15.09 3.00027C15.09 2.73506 14.9847 2.4807 14.7972 2.29317C14.6096 2.10563 14.3553 2.00027 14.09 2.00027ZM5.91005 4.00027H6.10005C6.36527 4.00027 6.61962 3.89492 6.80716 3.70738C6.99469 3.51984 7.10005 3.26549 7.10005 3.00027C7.10005 2.73506 6.99469 2.4807 6.80716 2.29317C6.61962 2.10563 6.36527 2.00027 6.10005 2.00027H5.91005C5.64483 2.00027 5.39048 2.10563 5.20294 2.29317C5.01541 2.4807 4.91005 2.73506 4.91005 3.00027C4.91005 3.26549 5.01541 3.51984 5.20294 3.70738C5.39048 3.89492 5.64483 4.00027 5.91005 4.00027ZM22 6.40027C21.7348 6.40027 21.4805 6.50563 21.2929 6.69317C21.1054 6.8807 21 7.13506 21 7.40027V7.61027C21 7.87549 21.1054 8.12985 21.2929 8.31738C21.4805 8.50492 21.7348 8.61027 22 8.61027C22.2653 8.61027 22.5196 8.50492 22.7072 8.31738C22.8947 8.12985 23 7.87549 23 7.61027V7.40027C23 7.13506 22.8947 6.8807 22.7072 6.69317C22.5196 6.50563 22.2653 6.40027 22 6.40027ZM17.1201 20.0003H16.88C16.6148 20.0003 16.3605 20.1056 16.1729 20.2932C15.9854 20.4807 15.88 20.7351 15.88 21.0003C15.88 21.2655 15.9854 21.5198 16.1729 21.7074C16.3605 21.8949 16.6148 22.0003 16.88 22.0003H17.1201C17.3853 22.0003 17.6396 21.8949 17.8272 21.7074C18.0147 21.5198 18.1201 21.2655 18.1201 21.0003C18.1201 20.7351 18.0147 20.4807 17.8272 20.2932C17.6396 20.1056 17.3853 20.0003 17.1201 20.0003ZM21.9 2.00027C21.6525 2.02515 21.4232 2.14139 21.2567 2.3263C21.0903 2.51121 20.9988 2.75151 21 3.00027C21.0024 3.14589 21.0365 3.28923 21.1 3.42027C21.1921 3.61782 21.3463 3.77987 21.5389 3.88176C21.7316 3.98365 21.9523 4.0198 22.1674 3.9847C22.3825 3.9496 22.5803 3.84518 22.7306 3.68733C22.8809 3.52948 22.9755 3.32685 23 3.11027V3.00027C22.9773 2.72533 22.8511 2.46924 22.647 2.28365C22.4428 2.09807 22.1759 1.9968 21.9 2.00027ZM22 10.9003C21.7348 10.9003 21.4805 11.0056 21.2929 11.1932C21.1054 11.3807 21 11.6351 21 11.9003V12.1203C21 12.3855 21.1054 12.6398 21.2929 12.8274C21.4805 13.0149 21.7348 13.1203 22 13.1203C22.2653 13.1203 22.5196 13.0149 22.7072 12.8274C22.8947 12.6398 23 12.3855 23 12.1203V11.9003C23 11.6351 22.8947 11.3807 22.7072 11.1932C22.5196 11.0056 22.2653 10.9003 22 10.9003ZM18.09 2.00027H17.9C17.6348 2.00027 17.3805 2.10563 17.1929 2.29317C17.0054 2.4807 16.9 2.73506 16.9 3.00027C16.9 3.26549 17.0054 3.51984 17.1929 3.70738C17.3805 3.89492 17.6348 4.00027 17.9 4.00027H18.09C18.3553 4.00027 18.6096 3.89492 18.7972 3.70738C18.9847 3.51984 19.09 3.26549 19.09 3.00027C19.09 2.73506 18.9847 2.4807 18.7972 2.29317C18.6096 2.10563 18.3553 2.00027 18.09 2.00027ZM22 20.0003C21.8466 20.0001 21.6954 20.0379 21.56 20.1103C21.3933 20.192 21.2525 20.3185 21.1536 20.4757C21.0547 20.6329 21.0015 20.8146 21 21.0003C21 21.2655 21.1054 21.5198 21.2929 21.7074C21.4805 21.8949 21.7348 22.0003 22 22.0003C22.275 21.9775 22.5311 21.8513 22.7167 21.6472C22.9023 21.4431 23.0035 21.1761 23 20.9003C22.9752 20.6528 22.8589 20.4234 22.674 20.257C22.4891 20.0905 22.2488 19.999 22 20.0003ZM22 15.4403C21.7348 15.4403 21.4805 15.5456 21.2929 15.7332C21.1054 15.9207 21 16.1751 21 16.4403V16.6603C21 16.9255 21.1054 17.1798 21.2929 17.3674C21.4805 17.5549 21.7348 17.6603 22 17.6603C22.2653 17.6603 22.5196 17.5549 22.7072 17.3674C22.8947 17.1798 23 16.9255 23 16.6603V16.4003C23 16.1351 22.8947 15.8807 22.7072 15.6932C22.5196 15.5056 22.2653 15.4003 22 15.4003V15.4403Z" fill="black"/>
</svg>
