<svg width="24" height="24" viewBox="0 0 24 24" fill="none" xmlns="http://www.w3.org/2000/svg">
<path d="M21 18.2805V11.7205C21.2704 11.57 21.5023 11.3589 21.6773 11.1037C21.8523 10.8484 21.9657 10.556 22.0085 10.2495C22.0514 9.94306 22.0225 9.6308 21.9242 9.33735C21.8259 9.0439 21.6608 8.77727 21.442 8.55844C21.2232 8.33961 20.9566 8.17455 20.6631 8.07624C20.3697 7.97794 20.0574 7.94907 19.7509 7.99192C19.4444 8.03476 19.152 8.14815 18.8968 8.32316C18.6416 8.49817 18.4304 8.73002 18.28 9.00047H15V5.72047C15.2704 5.57004 15.5023 5.35889 15.6773 5.10365C15.8523 4.84841 15.9657 4.55604 16.0085 4.24955C16.0514 3.94305 16.0225 3.6308 15.9242 3.33735C15.8259 3.0439 15.6608 2.77727 15.442 2.55844C15.2232 2.33961 14.9565 2.17455 14.6631 2.07624C14.3697 1.97794 14.0574 1.94907 13.7509 1.99192C13.4444 2.03476 13.152 2.14815 12.8968 2.32316C12.6416 2.49817 12.4304 2.73002 12.28 3.00047H5.71998C5.56955 2.73002 5.3584 2.49817 5.10317 2.32316C4.84793 2.14815 4.55556 2.03476 4.24906 1.99192C3.94257 1.94907 3.63031 1.97794 3.33686 2.07624C3.04342 2.17455 2.77679 2.33961 2.55795 2.55844C2.33912 2.77727 2.17406 3.0439 2.07575 3.33735C1.97745 3.6308 1.94858 3.94305 1.99143 4.24955C2.03427 4.55604 2.14766 4.84841 2.32267 5.10365C2.49768 5.35889 2.72953 5.57004 2.99998 5.72047V12.2805C2.72953 12.4309 2.49768 12.642 2.32267 12.8973C2.14766 13.1525 2.03427 13.4449 1.99143 13.7514C1.94858 14.0579 1.97745 14.3701 2.07575 14.6636C2.17406 14.957 2.33912 15.2237 2.55795 15.4425C2.77679 15.6613 3.04342 15.8264 3.33686 15.9247C3.63031 16.023 3.94257 16.0519 4.24906 16.009C4.55556 15.9662 4.84793 15.8528 5.10317 15.6778C5.3584 15.5028 5.56955 15.2709 5.71998 15.0005H8.99998V18.2805C8.72953 18.4309 8.49768 18.642 8.32267 18.8973C8.14766 19.1525 8.03427 19.4449 7.99143 19.7514C7.94858 20.0579 7.97745 20.3701 8.07575 20.6636C8.17406 20.957 8.33912 21.2237 8.55795 21.4425C8.77679 21.6613 9.04342 21.8264 9.33686 21.9247C9.63031 22.023 9.94257 22.0519 10.2491 22.009C10.5556 21.9662 10.8479 21.8528 11.1032 21.6778C11.3584 21.5028 11.5695 21.2709 11.72 21.0005H18.28C18.4304 21.2709 18.6416 21.5028 18.8968 21.6778C19.152 21.8528 19.4444 21.9662 19.7509 22.009C20.0574 22.0519 20.3697 22.023 20.6631 21.9247C20.9566 21.8264 21.2232 21.6613 21.442 21.4425C21.6608 21.2237 21.8259 20.957 21.9242 20.6636C22.0225 20.3701 22.0514 20.0579 22.0085 19.7514C21.9657 19.4449 21.8523 19.1525 21.6773 18.8973C21.5023 18.642 21.2704 18.4309 21 18.2805ZM7.99998 10.0005C8.00209 10.3495 8.0955 10.6919 8.27093 10.9936C8.44636 11.2954 8.69771 11.546 8.99998 11.7205V13.0005H5.71998C5.54956 12.6997 5.30071 12.4509 4.99998 12.2805V5.72047C5.30071 5.55004 5.54956 5.3012 5.71998 5.00047H12.28C12.4504 5.3012 12.6993 5.55004 13 5.72047V9.00047H11.72C11.4973 8.62506 11.1579 8.33282 10.7536 8.16833C10.3492 8.00384 9.90221 7.97614 9.48068 8.08945C9.05914 8.20277 8.68626 8.45087 8.41891 8.79592C8.15156 9.14096 8.00444 9.564 7.99998 10.0005ZM13 11.0005V12.2805C12.6993 12.4509 12.4504 12.6997 12.28 13.0005H11V11.7205C11.3007 11.55 11.5496 11.3012 11.72 11.0005H13ZM19 18.2805C18.6993 18.4509 18.4504 18.6997 18.28 19.0005H11.72C11.5496 18.6997 11.3007 18.4509 11 18.2805V15.0005H12.28C12.4304 15.2709 12.6416 15.5028 12.8968 15.6778C13.152 15.8528 13.4444 15.9662 13.7509 16.009C14.0574 16.0519 14.3697 16.023 14.6631 15.9247C14.9565 15.8264 15.2232 15.6613 15.442 15.4425C15.6608 15.2237 15.8259 14.957 15.9242 14.6636C16.0225 14.3701 16.0514 14.0579 16.0085 13.7514C15.9657 13.4449 15.8523 13.1525 15.6773 12.8973C15.5023 12.642 15.2704 12.4309 15 12.2805V11.0005H18.28C18.4504 11.3012 18.6993 11.55 19 11.7205V18.2805Z" fill="black"/>
</svg>
