<svg width="24" height="24" viewBox="0 0 24 24" fill="none" xmlns="http://www.w3.org/2000/svg">
<path d="M21.5401 5.16008C21.3943 5.06143 21.2251 5.00301 21.0495 4.99072C20.8739 4.97843 20.6982 5.0127 20.5401 5.09008C17.8367 6.21904 14.9293 6.77737 12.0001 6.73008C9.05741 6.78291 6.13581 6.22446 3.42007 5.09008C3.26197 5.0127 3.08625 4.97843 2.91067 4.99072C2.73508 5.00301 2.56585 5.06143 2.42007 5.16008C2.28664 5.255 2.17856 5.38124 2.10533 5.5277C2.0321 5.67417 1.99595 5.83638 2.00007 6.00008V18.0001C2.00035 18.1674 2.04261 18.332 2.12297 18.4787C2.20334 18.6255 2.31925 18.7497 2.46007 18.8401C2.60585 18.9387 2.77508 18.9971 2.95067 19.0094C3.12625 19.0217 3.30197 18.9874 3.46007 18.9101C6.16342 17.7811 9.07084 17.2228 12.0001 17.2701C14.9427 17.2172 17.8643 17.7757 20.5801 18.9101C20.7125 18.9684 20.8554 18.9991 21.0001 19.0001C21.1917 18.9996 21.3791 18.944 21.5401 18.8401C21.6809 18.7497 21.7968 18.6255 21.8772 18.4787C21.9575 18.332 21.9998 18.1674 22.0001 18.0001V6.00008C21.9998 5.83276 21.9575 5.66818 21.8772 5.52143C21.7968 5.37467 21.6809 5.25043 21.5401 5.16008ZM20.0001 16.5201C17.42 15.6674 14.7173 15.2451 12.0001 15.2701C9.28289 15.2451 6.58012 15.6674 4.00007 16.5201V7.52008C6.58012 8.37273 9.28289 8.79503 12.0001 8.77008C14.7173 8.79503 17.42 8.37273 20.0001 7.52008V16.5201Z" fill="black"/>
</svg>
