<svg width="24" height="24" viewBox="0 0 24 24" fill="none" xmlns="http://www.w3.org/2000/svg">
<path d="M21.46 5.8303C21.4312 5.63166 21.3434 5.44627 21.2078 5.29824C21.0723 5.15022 20.8953 5.0464 20.7 5.0003H20.59C14.9405 3.67047 9.05945 3.67047 3.40998 5.0003H3.29998C3.10879 5.04438 2.93479 5.14373 2.79965 5.28599C2.66452 5.42824 2.57421 5.6071 2.53998 5.8003C1.82001 9.88213 1.82001 14.0585 2.53998 18.1403C2.57421 18.3335 2.66452 18.5124 2.79965 18.6546C2.93479 18.7969 3.10879 18.8962 3.29998 18.9403H3.40998C6.223 19.6229 9.10541 19.9786 12 20.0003C14.8922 19.9983 17.7746 19.6627 20.59 19.0003H20.7C20.8912 18.9562 21.0652 18.8569 21.2003 18.7146C21.3355 18.5724 21.4258 18.3935 21.46 18.2003C22.1835 14.1087 22.1835 9.9219 21.46 5.8303ZM19.6 17.1703C14.593 18.2703 9.40695 18.2703 4.39998 17.1703C3.85997 13.7448 3.85997 10.2558 4.39998 6.8303C9.40695 5.73035 14.593 5.73035 19.6 6.8303C20.14 10.2558 20.14 13.7448 19.6 17.1703Z" fill="black"/>
</svg>
