<svg width="24" height="24" viewBox="0 0 24 24" fill="none" xmlns="http://www.w3.org/2000/svg">
<path d="M22.6099 7.04963L16.9999 1.38963C16.9065 1.29694 16.7957 1.22362 16.6738 1.17385C16.552 1.12409 16.4215 1.09887 16.2899 1.09963C16.0276 1.10073 15.7762 1.20488 15.5899 1.38963L1.38991 15.5396C1.20366 15.727 1.09912 15.9804 1.09912 16.2446C1.09912 16.5088 1.20366 16.7623 1.38991 16.9496L7.04991 22.6096C7.14335 22.7023 7.25417 22.7756 7.37601 22.8254C7.49784 22.8752 7.62831 22.9004 7.75991 22.8996C8.02225 22.8985 8.27365 22.7944 8.45991 22.6096L11.2899 19.7796L19.7799 11.2896L22.6099 8.45963C22.7962 8.27226 22.9007 8.01881 22.9007 7.75463C22.9007 7.49044 22.7962 7.23699 22.6099 7.04963ZM19.0699 9.16963L18.3599 8.45963C18.1726 8.27338 17.9191 8.16883 17.6549 8.16883C17.3907 8.16883 17.1373 8.27338 16.9499 8.45963C16.8562 8.55259 16.7818 8.66319 16.731 8.78505C16.6803 8.90691 16.6541 9.03761 16.6541 9.16963C16.6541 9.30164 16.6803 9.43234 16.731 9.5542C16.7818 9.67606 16.8562 9.78666 16.9499 9.87963L17.6599 10.5896L16.2399 11.9996L14.1199 9.87963C13.9286 9.7158 13.6825 9.63019 13.4309 9.63991C13.1792 9.64964 12.9404 9.75397 12.7624 9.93206C12.5843 10.1102 12.4799 10.3489 12.4702 10.6006C12.4605 10.8522 12.5461 11.0983 12.7099 11.2896L14.8299 13.4096L13.4099 14.8296L12.7099 14.1196C12.5216 13.9313 12.2662 13.8255 11.9999 13.8255C11.7336 13.8255 11.4782 13.9313 11.2899 14.1196C11.1016 14.3079 10.9958 14.5633 10.9958 14.8296C10.9958 15.0959 11.1016 15.3513 11.2899 15.5396L11.9999 16.2396L10.5899 17.6596L8.45991 15.5396C8.27255 15.3534 8.0191 15.2488 7.75491 15.2488C7.49073 15.2488 7.23728 15.3534 7.04991 15.5396C6.86366 15.727 6.75912 15.9804 6.75912 16.2446C6.75912 16.5088 6.86366 16.7623 7.04991 16.9496L9.16991 19.0696L7.75991 20.4896L3.50991 16.2396L16.2399 3.50963L20.4899 7.75963L19.0699 9.16963Z" fill="black"/>
</svg>
