<svg width="24" height="24" viewBox="0 0 24 24" fill="none" xmlns="http://www.w3.org/2000/svg">
<path d="M10.71 11.2902L8.21 8.79018C8.0217 8.60188 7.7663 8.49609 7.5 8.49609C7.2337 8.49609 6.9783 8.60188 6.79 8.79018C6.6017 8.97849 6.49591 9.23388 6.49591 9.50019C6.49591 9.63204 6.52188 9.76261 6.57234 9.88443C6.6228 10.0063 6.69676 10.1169 6.79 10.2102L7.59 11.0002H3C2.73478 11.0002 2.48043 11.1055 2.29289 11.2931C2.10536 11.4806 2 11.735 2 12.0002C2 12.2654 2.10536 12.5198 2.29289 12.7073C2.48043 12.8948 2.73478 13.0002 3 13.0002H7.59L6.79 13.7902C6.69627 13.8831 6.62188 13.9937 6.57111 14.1156C6.52034 14.2375 6.4942 14.3682 6.4942 14.5002C6.4942 14.6322 6.52034 14.7629 6.57111 14.8848C6.62188 15.0066 6.69627 15.1172 6.79 15.2102C6.88296 15.3039 6.99356 15.3783 7.11542 15.4291C7.23728 15.4798 7.36799 15.506 7.5 15.506C7.63201 15.506 7.76272 15.4798 7.88458 15.4291C8.00644 15.3783 8.11704 15.3039 8.21 15.2102L10.71 12.7102C10.801 12.6151 10.8724 12.5029 10.92 12.3802C11.02 12.1367 11.02 11.8636 10.92 11.6202C10.8724 11.4974 10.801 11.3853 10.71 11.2902ZM21 11.0002H16.41L17.21 10.2102C17.3032 10.1169 17.3772 10.0063 17.4277 9.88443C17.4781 9.76261 17.5041 9.63204 17.5041 9.50019C17.5041 9.36833 17.4781 9.23776 17.4277 9.11594C17.3772 8.99411 17.3032 8.88342 17.21 8.79018C17.1168 8.69695 17.0061 8.62299 16.8842 8.57253C16.7624 8.52206 16.6319 8.49609 16.5 8.49609C16.3681 8.49609 16.2376 8.52206 16.1158 8.57253C15.9939 8.62299 15.8832 8.69695 15.79 8.79018L13.29 11.2902C13.199 11.3853 13.1276 11.4974 13.08 11.6202C12.98 11.8636 12.98 12.1367 13.08 12.3802C13.1276 12.5029 13.199 12.6151 13.29 12.7102L15.79 15.2102C15.883 15.3039 15.9936 15.3783 16.1154 15.4291C16.2373 15.4798 16.368 15.506 16.5 15.506C16.632 15.506 16.7627 15.4798 16.8846 15.4291C17.0064 15.3783 17.117 15.3039 17.21 15.2102C17.3037 15.1172 17.3781 15.0066 17.4289 14.8848C17.4797 14.7629 17.5058 14.6322 17.5058 14.5002C17.5058 14.3682 17.4797 14.2375 17.4289 14.1156C17.3781 13.9937 17.3037 13.8831 17.21 13.7902L16.41 13.0002H21C21.2652 13.0002 21.5196 12.8948 21.7071 12.7073C21.8946 12.5198 22 12.2654 22 12.0002C22 11.735 21.8946 11.4806 21.7071 11.2931C21.5196 11.1055 21.2652 11.0002 21 11.0002Z" fill="black"/>
</svg>
