<svg width="24" height="24" viewBox="0 0 24 24" fill="none" xmlns="http://www.w3.org/2000/svg">
<path d="M20 16.1803V7.82029C20.4797 7.65317 20.9091 7.36701 21.2479 6.98861C21.5868 6.61021 21.824 6.15197 21.9374 5.65684C22.0507 5.16171 22.0365 4.64591 21.8961 4.15777C21.7556 3.66963 21.4935 3.22515 21.1343 2.86598C20.7752 2.50682 20.3307 2.24472 19.8426 2.10427C19.3544 1.96382 18.8386 1.94961 18.3435 2.06297C17.8484 2.17633 17.3901 2.41355 17.0117 2.7524C16.6333 3.09125 16.3472 3.52063 16.18 4.00029H7.82004C7.65293 3.52063 7.36676 3.09125 6.98836 2.7524C6.60996 2.41355 6.15172 2.17633 5.6566 2.06297C5.16147 1.94961 4.64566 1.96382 4.15753 2.10427C3.66939 2.24472 3.22491 2.50682 2.86574 2.86598C2.50657 3.22515 2.24448 3.66963 2.10403 4.15777C1.96358 4.64591 1.94937 5.16171 2.06273 5.65684C2.17609 6.15197 2.41331 6.61021 2.75216 6.98861C3.09101 7.36701 3.52038 7.65317 4.00004 7.82029V16.1803C3.52038 16.3474 3.09101 16.6336 2.75216 17.012C2.41331 17.3904 2.17609 17.8486 2.06273 18.3437C1.94937 18.8389 1.96358 19.3547 2.10403 19.8428C2.24448 20.3309 2.50657 20.7754 2.86574 21.1346C3.22491 21.4938 3.66939 21.7559 4.15753 21.8963C4.64566 22.0368 5.16147 22.051 5.6566 21.9376C6.15172 21.8242 6.60996 21.587 6.98836 21.2482C7.36676 20.9093 7.65293 20.4799 7.82004 20.0003H16.18C16.3472 20.4799 16.6333 20.9093 17.0117 21.2482C17.3901 21.587 17.8484 21.8242 18.3435 21.9376C18.8386 22.051 19.3544 22.0368 19.8426 21.8963C20.3307 21.7559 20.7752 21.4938 21.1343 21.1346C21.4935 20.7754 21.7556 20.3309 21.8961 19.8428C22.0365 19.3547 22.0507 18.8389 21.9374 18.3437C21.824 17.8486 21.5868 17.3904 21.2479 17.012C20.9091 16.6336 20.4797 16.3474 20 16.1803ZM19 4.00029C19.1978 4.00029 19.3912 4.05894 19.5556 4.16882C19.7201 4.2787 19.8482 4.43488 19.9239 4.61761C19.9996 4.80033 20.0194 5.0014 19.9808 5.19538C19.9422 5.38936 19.847 5.56754 19.7072 5.7074C19.5673 5.84725 19.3891 5.94249 19.1951 5.98107C19.0012 6.01966 18.8001 5.99986 18.6174 5.92417C18.4346 5.84848 18.2785 5.72031 18.1686 5.55586C18.0587 5.39141 18 5.19807 18 5.00029C18 4.73507 18.1054 4.48072 18.2929 4.29318C18.4805 4.10565 18.7348 4.00029 19 4.00029ZM5.00004 4.00029C5.19783 4.00029 5.39117 4.05894 5.55561 4.16882C5.72006 4.2787 5.84824 4.43488 5.92392 4.61761C5.99961 4.80033 6.01942 5.0014 5.98083 5.19538C5.94225 5.38936 5.847 5.56754 5.70715 5.7074C5.5673 5.84725 5.38912 5.94249 5.19514 5.98107C5.00115 6.01966 4.80009 5.99986 4.61736 5.92417C4.43464 5.84848 4.27846 5.72031 4.16858 5.55586C4.05869 5.39141 4.00004 5.19807 4.00004 5.00029C4.00004 4.73507 4.1054 4.48072 4.29294 4.29318C4.48047 4.10565 4.73483 4.00029 5.00004 4.00029ZM5.00004 20.0003C4.80226 20.0003 4.60892 19.9416 4.44447 19.8318C4.28003 19.7219 4.15185 19.5657 4.07617 19.383C4.00048 19.2002 3.98067 18.9992 4.01926 18.8052C4.05784 18.6112 4.15309 18.433 4.29294 18.2932C4.43279 18.1533 4.61097 18.0581 4.80495 18.0195C4.99894 17.9809 5.2 18.0007 5.38273 18.0764C5.56545 18.1521 5.72163 18.2803 5.83151 18.4447C5.9414 18.6092 6.00004 18.8025 6.00004 19.0003C6.00004 19.2655 5.89469 19.5199 5.70715 19.7074C5.51961 19.8949 5.26526 20.0003 5.00004 20.0003ZM16.18 18.0003H7.82004C7.67073 17.5809 7.42994 17.2 7.11514 16.8852C6.80035 16.5704 6.41944 16.3296 6.00004 16.1803V7.82029C6.41944 7.67097 6.80035 7.43018 7.11514 7.11539C7.42994 6.80059 7.67073 6.41969 7.82004 6.00029H16.18C16.3294 6.41969 16.5702 6.80059 16.8849 7.11539C17.1997 7.43018 17.5806 7.67097 18 7.82029V16.1803C17.5806 16.3296 17.1997 16.5704 16.8849 16.8852C16.5702 17.2 16.3294 17.5809 16.18 18.0003ZM19 20.0003C18.8023 20.0003 18.6089 19.9416 18.4445 19.8318C18.28 19.7219 18.1519 19.5657 18.0762 19.383C18.0005 19.2002 17.9807 18.9992 18.0193 18.8052C18.0578 18.6112 18.1531 18.433 18.2929 18.2932C18.4328 18.1533 18.611 18.0581 18.805 18.0195C18.9989 17.9809 19.2 18.0007 19.3827 18.0764C19.5655 18.1521 19.7216 18.2803 19.8315 18.4447C19.9414 18.6092 20 18.8025 20 19.0003C20 19.2655 19.8947 19.5199 19.7072 19.7074C19.5196 19.8949 19.2653 20.0003 19 20.0003Z" fill="black"/>
</svg>
