<svg width="24" height="24" viewBox="0 0 24 24" fill="none" xmlns="http://www.w3.org/2000/svg">
<path d="M16 7.00047H7.99998C7.73477 7.00047 7.48041 7.10583 7.29288 7.29336C7.10534 7.4809 6.99998 7.73525 6.99998 8.00047V16.0005C6.99998 16.2657 7.10534 16.52 7.29288 16.7076C7.48041 16.8951 7.73477 17.0005 7.99998 17.0005H16C16.2652 17.0005 16.5196 16.8951 16.7071 16.7076C16.8946 16.52 17 16.2657 17 16.0005V8.00047C17 7.73525 16.8946 7.4809 16.7071 7.29336C16.5196 7.10583 16.2652 7.00047 16 7.00047ZM15 15.0005H8.99998V9.00047H15V15.0005ZM21 18.2805V5.72047C21.2704 5.57004 21.5023 5.35889 21.6773 5.10365C21.8523 4.84841 21.9657 4.55604 22.0085 4.24955C22.0514 3.94305 22.0225 3.6308 21.9242 3.33735C21.8259 3.0439 21.6608 2.77727 21.442 2.55844C21.2232 2.33961 20.9566 2.17455 20.6631 2.07624C20.3697 1.97794 20.0574 1.94907 19.7509 1.99192C19.4444 2.03476 19.152 2.14815 18.8968 2.32316C18.6416 2.49817 18.4304 2.73002 18.28 3.00047H5.71998C5.56955 2.73002 5.3584 2.49817 5.10317 2.32316C4.84793 2.14815 4.55556 2.03476 4.24906 1.99192C3.94257 1.94907 3.63031 1.97794 3.33686 2.07624C3.04342 2.17455 2.77679 2.33961 2.55795 2.55844C2.33912 2.77727 2.17406 3.0439 2.07575 3.33735C1.97745 3.6308 1.94858 3.94305 1.99143 4.24955C2.03427 4.55604 2.14766 4.84841 2.32267 5.10365C2.49768 5.35889 2.72953 5.57004 2.99998 5.72047V18.2805C2.72953 18.4309 2.49768 18.642 2.32267 18.8973C2.14766 19.1525 2.03427 19.4449 1.99143 19.7514C1.94858 20.0579 1.97745 20.3701 2.07575 20.6636C2.17406 20.957 2.33912 21.2237 2.55795 21.4425C2.77679 21.6613 3.04342 21.8264 3.33686 21.9247C3.63031 22.023 3.94257 22.0519 4.24906 22.009C4.55556 21.9662 4.84793 21.8528 5.10317 21.6778C5.3584 21.5028 5.56955 21.2709 5.71998 21.0005H18.28C18.4304 21.2709 18.6416 21.5028 18.8968 21.6778C19.152 21.8528 19.4444 21.9662 19.7509 22.009C20.0574 22.0519 20.3697 22.023 20.6631 21.9247C20.9566 21.8264 21.2232 21.6613 21.442 21.4425C21.6608 21.2237 21.8259 20.957 21.9242 20.6636C22.0225 20.3701 22.0514 20.0579 22.0085 19.7514C21.9657 19.4449 21.8523 19.1525 21.6773 18.8973C21.5023 18.642 21.2704 18.4309 21 18.2805ZM19 18.2805C18.6993 18.4509 18.4504 18.6997 18.28 19.0005H5.71998C5.54956 18.6997 5.30071 18.4509 4.99998 18.2805V5.72047C5.30071 5.55004 5.54956 5.3012 5.71998 5.00047H18.28C18.4504 5.3012 18.6993 5.55004 19 5.72047V18.2805Z" fill="black"/>
</svg>
