<svg width="24" height="24" viewBox="0 0 24 24" fill="none" xmlns="http://www.w3.org/2000/svg">
<path d="M17.2701 12.0003C17.2126 9.05725 17.7712 6.13469 18.9101 3.42032C18.9874 3.26222 19.0217 3.0865 19.0094 2.91091C18.9971 2.73533 18.9387 2.56609 18.8401 2.42032C18.7452 2.28688 18.6189 2.17881 18.4724 2.10557C18.326 2.03234 18.1638 1.9962 18.0001 2.00032H6.00008C5.83276 2.0006 5.66818 2.04285 5.52143 2.12322C5.37467 2.20358 5.25043 2.31949 5.16008 2.46032C5.06143 2.60609 5.00301 2.77533 4.99072 2.95091C4.97843 3.1265 5.0127 3.30222 5.09008 3.46032C6.2235 6.16232 6.78201 9.07068 6.73008 12.0003C6.78759 14.9434 6.22897 17.8659 5.09008 20.5803C5.0127 20.7384 4.97843 20.9141 4.99072 21.0897C5.00301 21.2653 5.06143 21.4345 5.16008 21.5803C5.255 21.7137 5.38124 21.8218 5.5277 21.8951C5.67417 21.9683 5.83638 22.0044 6.00008 22.0003H18.0001C18.1674 22 18.332 21.9578 18.4787 21.8774C18.6255 21.797 18.7497 21.6811 18.8401 21.5403C18.9387 21.3945 18.9971 21.2253 19.0094 21.0497C19.0217 20.8741 18.9874 20.6984 18.9101 20.5403C17.7767 17.8383 17.2181 14.93 17.2701 12.0003ZM16.5201 20.0003H7.52008C8.37273 17.4203 8.79503 14.7175 8.77008 12.0003C8.78214 9.28092 8.34631 6.57809 7.48008 4.00032H16.4801C15.6274 6.58037 15.2051 9.28314 15.2301 12.0003C15.218 14.7197 15.6538 17.4225 16.5201 20.0003Z" fill="black"/>
</svg>
