<svg width="24" height="24" viewBox="0 0 24 24" fill="none" xmlns="http://www.w3.org/2000/svg">
<path d="M7.60012 15.18C7.41181 14.9917 7.15642 14.8859 6.89012 14.8859C6.62382 14.8859 6.36842 14.9917 6.18012 15.18C5.99181 15.3683 5.88603 15.6237 5.88603 15.89C5.88603 16.1563 5.99181 16.4117 6.18012 16.6L7.24012 17.66C7.33308 17.7537 7.44368 17.8281 7.56554 17.8789C7.6874 17.9297 7.81811 17.9558 7.95012 17.9558C8.08213 17.9558 8.21284 17.9297 8.3347 17.8789C8.45655 17.8281 8.56716 17.7537 8.66012 17.66C8.75385 17.567 8.82824 17.4564 8.87901 17.3346C8.92978 17.2127 8.95592 17.082 8.95592 16.95C8.95592 16.818 8.92978 16.6873 8.87901 16.5654C8.82824 16.4436 8.75385 16.333 8.66012 16.24L7.60012 15.18ZM3.81012 9.78L2.75012 10.84C2.67183 10.9147 2.60749 11.0027 2.56012 11.1C2.41612 11.1695 2.29088 11.2726 2.19493 11.4005C2.09897 11.5284 2.03509 11.6775 2.00865 11.8352C1.9822 11.9929 1.99396 12.1546 2.04293 12.3068C2.09191 12.459 2.17667 12.5973 2.29012 12.71L3.35012 13.77C3.44308 13.8637 3.55368 13.9381 3.67554 13.9889C3.7974 14.0397 3.92811 14.0658 4.06012 14.0658C4.19213 14.0658 4.32284 14.0397 4.4447 13.9889C4.56655 13.9381 4.67716 13.8637 4.77012 13.77C4.86385 13.677 4.93824 13.5664 4.98901 13.4446C5.03978 13.3227 5.06592 13.192 5.06592 13.06C5.06592 12.928 5.03978 12.7973 4.98901 12.6754C4.93824 12.5536 4.86385 12.443 4.77012 12.35L4.41012 12L5.22012 11.19C5.38394 10.9987 5.46955 10.7526 5.45983 10.5009C5.45011 10.2493 5.34578 10.0105 5.16768 9.83244C4.98959 9.65434 4.75085 9.55001 4.49917 9.54029C4.2475 9.53057 4.00142 9.61617 3.81012 9.78ZM8.00012 10.57C7.7349 10.57 7.48055 10.6754 7.29301 10.8629C7.10548 11.0504 7.00012 11.3048 7.00012 11.57V13.07C7.00012 13.3352 7.10548 13.5896 7.29301 13.7771C7.48055 13.9646 7.7349 14.07 8.00012 14.07C8.26534 14.07 8.51969 13.9646 8.70723 13.7771C8.89476 13.5896 9.00012 13.3352 9.00012 13.07V11.57C9.00012 11.3048 8.89476 11.0504 8.70723 10.8629C8.51969 10.6754 8.26534 10.57 8.00012 10.57ZM21.7101 11.29L16.7101 6.29C16.5695 6.15124 16.3909 6.05725 16.1969 6.01987C16.0029 5.9825 15.8022 6.00342 15.6201 6.08C15.4375 6.15502 15.2812 6.28242 15.1708 6.44614C15.0605 6.60986 15.0011 6.80257 15.0001 7V17C15.0011 17.1974 15.0605 17.3901 15.1708 17.5539C15.2812 17.7176 15.4375 17.845 15.6201 17.92C15.7388 17.976 15.8689 18.0034 16.0001 18C16.1317 18.0008 16.2622 17.9755 16.384 17.9258C16.5059 17.876 16.6167 17.8027 16.7101 17.71L21.7101 12.71C21.8038 12.617 21.8782 12.5064 21.929 12.3846C21.9798 12.2627 22.0059 12.132 22.0059 12C22.0059 11.868 21.9798 11.7373 21.929 11.6154C21.8782 11.4936 21.8038 11.383 21.7101 11.29ZM17.0001 14.59V9.41L19.5901 12L17.0001 14.59ZM12.0001 2C11.7349 2 11.4805 2.10536 11.293 2.29289C11.1055 2.48043 11.0001 2.73478 11.0001 3V21C11.0001 21.2652 11.1055 21.5196 11.293 21.7071C11.4805 21.8946 11.7349 22 12.0001 22C12.2653 22 12.5197 21.8946 12.7072 21.7071C12.8948 21.5196 13.0001 21.2652 13.0001 21V3C13.0001 2.73478 12.8948 2.48043 12.7072 2.29289C12.5197 2.10536 12.2653 2 12.0001 2ZM8.38012 6.08C8.19801 6.00342 7.99729 5.9825 7.80331 6.01987C7.60932 6.05725 7.43074 6.15124 7.29012 6.29L6.64012 7C6.45387 7.18736 6.34933 7.44081 6.34933 7.705C6.34933 7.96919 6.45387 8.22264 6.64012 8.41C6.82475 8.59841 7.07635 8.70624 7.34012 8.71C7.49666 8.70906 7.6508 8.67138 7.79012 8.6C7.94035 8.63249 8.09606 8.62991 8.24514 8.59246C8.39421 8.55502 8.53265 8.4837 8.6497 8.38407C8.76674 8.28444 8.85925 8.15916 8.92002 8.01798C8.98079 7.87679 9.0082 7.7235 9.00012 7.57V7C8.99913 6.80257 8.93973 6.60986 8.8294 6.44614C8.71906 6.28242 8.56274 6.15502 8.38012 6.08Z" fill="black"/>
</svg>
