<svg width="24" height="24" viewBox="0 0 24 24" fill="none" xmlns="http://www.w3.org/2000/svg">
<path d="M18 4.99978H19V5.99978C19 6.26499 19.1054 6.51935 19.2929 6.70688C19.4804 6.89442 19.7348 6.99978 20 6.99978C20.2652 6.99978 20.5196 6.89442 20.7071 6.70688C20.8946 6.51935 21 6.26499 21 5.99978V4.99978H22C22.2652 4.99978 22.5196 4.89442 22.7071 4.70689C22.8946 4.51935 23 4.265 23 3.99978C23 3.73456 22.8946 3.48021 22.7071 3.29267C22.5196 3.10514 22.2652 2.99978 22 2.99978H21V1.99978C21 1.73456 20.8946 1.48021 20.7071 1.29267C20.5196 1.10514 20.2652 0.999778 20 0.999778C19.7348 0.999778 19.4804 1.10514 19.2929 1.29267C19.1054 1.48021 19 1.73456 19 1.99978V2.99978H18C17.7348 2.99978 17.4804 3.10514 17.2929 3.29267C17.1054 3.48021 17 3.73456 17 3.99978C17 4.265 17.1054 4.51935 17.2929 4.70689C17.4804 4.89442 17.7348 4.99978 18 4.99978ZM11 8.99978C11 9.265 11.1054 9.51935 11.2929 9.70689C11.4804 9.89442 11.7348 9.99978 12 9.99978C12.2652 9.99978 12.5196 9.89442 12.7071 9.70689C12.8946 9.51935 13 9.265 13 8.99978C13 8.73456 13.1054 8.48021 13.2929 8.29267C13.4804 8.10514 13.7348 7.99978 14 7.99978H15C15.2652 7.99978 15.5196 8.10514 15.7071 8.29267C15.8946 8.48021 16 8.73456 16 8.99978V9.99978C16 10.265 15.8946 10.5193 15.7071 10.7069C15.5196 10.8944 15.2652 10.9998 15 10.9998H14.5C14.2348 10.9998 13.9804 11.1051 13.7929 11.2927C13.6054 11.4802 13.5 11.7346 13.5 11.9998C13.5 12.265 13.6054 12.5193 13.7929 12.7069C13.9804 12.8944 14.2348 12.9998 14.5 12.9998H15C15.2652 12.9998 15.5196 13.1051 15.7071 13.2927C15.8946 13.4802 16 13.7346 16 13.9998V14.9998C16 15.265 15.8946 15.5193 15.7071 15.7069C15.5196 15.8944 15.2652 15.9998 15 15.9998H14C13.7348 15.9998 13.4804 15.8944 13.2929 15.7069C13.1054 15.5193 13 15.265 13 14.9998C13 14.7346 12.8946 14.4802 12.7071 14.2927C12.5196 14.1051 12.2652 13.9998 12 13.9998C11.7348 13.9998 11.4804 14.1051 11.2929 14.2927C11.1054 14.4802 11 14.7346 11 14.9998C11 15.7954 11.3161 16.5585 11.8787 17.1211C12.4413 17.6837 13.2044 17.9998 14 17.9998H15C15.7957 17.9998 16.5587 17.6837 17.1213 17.1211C17.6839 16.5585 18 15.7954 18 14.9998V13.9998C17.9956 13.2597 17.7178 12.5474 17.22 11.9998C17.7178 11.4521 17.9956 10.7398 18 9.99978V8.99978C18 8.20413 17.6839 7.44107 17.1213 6.87846C16.5587 6.31585 15.7957 5.99978 15 5.99978H14C13.2044 5.99978 12.4413 6.31585 11.8787 6.87846C11.3161 7.44107 11 8.20413 11 8.99978ZM7 6.99978V16.9998C7 17.265 7.10536 17.5194 7.2929 17.7069C7.48043 17.8944 7.73479 17.9998 8 17.9998C8.26522 17.9998 8.51958 17.8944 8.70711 17.7069C8.89465 17.5194 9 17.265 9 16.9998V6.99978C9 6.73456 8.89465 6.48021 8.70711 6.29267C8.51958 6.10514 8.26522 5.99978 8 5.99978C7.73479 5.99978 7.48043 6.10514 7.2929 6.29267C7.10536 6.48021 7 6.73456 7 6.99978ZM21.6 8.99978C21.4713 9.02602 21.349 9.07736 21.2402 9.15087C21.1313 9.22438 21.038 9.31861 20.9656 9.42819C20.8931 9.53777 20.843 9.66055 20.818 9.78951C20.793 9.91846 20.7937 10.0511 20.82 10.1798C21.2104 12.076 20.979 14.0475 20.1601 15.8018C19.3412 17.5561 17.9785 18.9995 16.2741 19.9178C14.5698 20.8362 12.6148 21.1805 10.6993 20.8996C8.78381 20.6188 7.00992 19.7278 5.64097 18.3588C4.27202 16.9899 3.38099 15.216 3.10014 13.3005C2.81929 11.385 3.16359 9.42995 4.08194 7.72564C5.00028 6.02133 6.44372 4.65858 8.19798 3.83966C9.95224 3.02075 11.9238 2.78934 13.82 3.17978C14.0852 3.23282 14.3606 3.17834 14.5857 3.02831C14.8107 2.87828 14.967 2.64499 15.02 2.37978C15.073 2.11456 15.0186 1.83914 14.8685 1.61409C14.7185 1.38905 14.4852 1.23282 14.22 1.17978C13.4882 1.04343 12.7442 0.983109 12 0.999778C9.82441 0.999778 7.69767 1.64492 5.88873 2.85361C4.07979 4.06231 2.66989 5.78027 1.83733 7.79026C1.00477 9.80025 0.786929 12.012 1.21137 14.1458C1.6358 16.2796 2.68345 18.2396 4.22183 19.778C5.76021 21.3163 7.72022 22.364 9.85401 22.7884C11.9878 23.2129 14.1995 22.995 16.2095 22.1625C18.2195 21.3299 19.9375 19.92 21.1462 18.1111C22.3549 16.3021 23 14.1754 23 11.9998C23.0021 11.2608 22.9284 10.5237 22.78 9.79978C22.7561 9.66927 22.7064 9.54484 22.6338 9.43373C22.5613 9.32261 22.4674 9.22705 22.3576 9.15259C22.2478 9.07813 22.1242 9.02627 21.9942 9.00004C21.8641 8.9738 21.7301 8.97372 21.6 8.99978Z" fill="black"/>
</svg>
