<svg width="24" height="24" viewBox="0 0 24 24" fill="none" xmlns="http://www.w3.org/2000/svg">
<path d="M17 17.9998C17.2652 17.9998 17.5196 17.8944 17.7071 17.7069C17.8946 17.5194 18 17.265 18 16.9998V6.99978C18 6.73456 17.8946 6.48021 17.7071 6.29267C17.5196 6.10514 17.2652 5.99978 17 5.99978C16.7348 5.99978 16.4804 6.10514 16.2929 6.29267C16.1054 6.48021 16 6.73456 16 6.99978V16.9998C16 17.265 16.1054 17.5194 16.2929 17.7069C16.4804 17.8944 16.7348 17.9998 17 17.9998ZM18 4.99978H19V5.99978C19 6.26499 19.1054 6.51935 19.2929 6.70688C19.4804 6.89442 19.7348 6.99978 20 6.99978C20.2652 6.99978 20.5196 6.89442 20.7071 6.70688C20.8946 6.51935 21 6.26499 21 5.99978V4.99978H22C22.2652 4.99978 22.5196 4.89442 22.7071 4.70689C22.8946 4.51935 23 4.265 23 3.99978C23 3.73456 22.8946 3.48021 22.7071 3.29267C22.5196 3.10514 22.2652 2.99978 22 2.99978H21V1.99978C21 1.73456 20.8946 1.48021 20.7071 1.29267C20.5196 1.10514 20.2652 0.999778 20 0.999778C19.7348 0.999778 19.4804 1.10514 19.2929 1.29267C19.1054 1.48021 19 1.73456 19 1.99978V2.99978H18C17.7348 2.99978 17.4804 3.10514 17.2929 3.29267C17.1054 3.48021 17 3.73456 17 3.99978C17 4.265 17.1054 4.51935 17.2929 4.70689C17.4804 4.89442 17.7348 4.99978 18 4.99978ZM21.6 8.99978C21.4713 9.02602 21.349 9.07736 21.2402 9.15087C21.1313 9.22438 21.038 9.31861 20.9656 9.42819C20.8931 9.53777 20.843 9.66055 20.818 9.78951C20.793 9.91846 20.7937 10.0511 20.82 10.1798C21.2104 12.076 20.979 14.0475 20.1601 15.8018C19.3412 17.5561 17.9785 18.9995 16.2741 19.9178C14.5698 20.8362 12.6148 21.1805 10.6993 20.8996C8.78381 20.6188 7.00992 19.7278 5.64097 18.3588C4.27202 16.9899 3.38099 15.216 3.10014 13.3005C2.81929 11.385 3.16359 9.42995 4.08194 7.72564C5.00028 6.02133 6.44372 4.65858 8.19798 3.83966C9.95224 3.02075 11.9238 2.78934 13.82 3.17978C14.0852 3.23282 14.3606 3.17834 14.5857 3.02831C14.8107 2.87828 14.967 2.64499 15.02 2.37978C15.073 2.11456 15.0186 1.83914 14.8685 1.61409C14.7185 1.38905 14.4852 1.23282 14.22 1.17978C13.4882 1.04343 12.7442 0.983109 12 0.999778C9.82441 0.999778 7.69767 1.64492 5.88873 2.85361C4.07979 4.06231 2.66989 5.78027 1.83733 7.79026C1.00477 9.80025 0.786929 12.012 1.21137 14.1458C1.6358 16.2796 2.68345 18.2396 4.22183 19.778C5.76021 21.3163 7.72022 22.364 9.85401 22.7884C11.9878 23.2129 14.1995 22.995 16.2095 22.1625C18.2195 21.3299 19.9375 19.92 21.1462 18.1111C22.3549 16.3021 23 14.1754 23 11.9998C23.0021 11.2608 22.9284 10.5237 22.78 9.79978C22.7561 9.66927 22.7064 9.54484 22.6338 9.43373C22.5613 9.32261 22.4674 9.22705 22.3576 9.15259C22.2478 9.07813 22.1242 9.02627 21.9942 9.00004C21.8641 8.9738 21.7301 8.97372 21.6 8.99978ZM10 12.9998H11C11.7957 12.9998 12.5587 12.6837 13.1213 12.1211C13.6839 11.5585 14 10.7954 14 9.99978V8.99978C14 8.20413 13.6839 7.44107 13.1213 6.87846C12.5587 6.31585 11.7957 5.99978 11 5.99978H10C9.20436 5.99978 8.44129 6.31585 7.87868 6.87846C7.31608 7.44107 7 8.20413 7 8.99978C7 9.265 7.10536 9.51935 7.2929 9.70689C7.48043 9.89442 7.73479 9.99978 8 9.99978C8.26522 9.99978 8.51958 9.89442 8.70711 9.70689C8.89465 9.51935 9 9.265 9 8.99978C9 8.73456 9.10536 8.48021 9.2929 8.29267C9.48043 8.10514 9.73479 7.99978 10 7.99978H11C11.2652 7.99978 11.5196 8.10514 11.7071 8.29267C11.8946 8.48021 12 8.73456 12 8.99978V9.99978C12 10.265 11.8946 10.5193 11.7071 10.7069C11.5196 10.8944 11.2652 10.9998 11 10.9998H10C9.20436 10.9998 8.44129 11.3158 7.87868 11.8785C7.31608 12.4411 7 13.2041 7 13.9998V16.9998C7 17.265 7.10536 17.5194 7.2929 17.7069C7.48043 17.8944 7.73479 17.9998 8 17.9998H13C13.2652 17.9998 13.5196 17.8944 13.7071 17.7069C13.8946 17.5194 14 17.265 14 16.9998C14 16.7346 13.8946 16.4802 13.7071 16.2927C13.5196 16.1051 13.2652 15.9998 13 15.9998H9V13.9998C9 13.7346 9.10536 13.4802 9.2929 13.2927C9.48043 13.1051 9.73479 12.9998 10 12.9998Z" fill="black"/>
</svg>
