<svg width="24" height="24" viewBox="0 0 24 24" fill="none" xmlns="http://www.w3.org/2000/svg">
<path d="M20.8301 7.31998C20.0191 5.80444 18.8352 4.52067 17.3901 3.58998C16.0823 2.74866 14.5963 2.22392 13.0502 2.05746C11.5041 1.891 9.9405 2.0874 8.4836 2.63106C7.0267 3.17472 5.71667 4.05066 4.65758 5.18927C3.59849 6.32789 2.81954 7.69781 2.3826 9.19019C1.94567 10.6826 1.8628 12.2563 2.14058 13.7863C2.41835 15.3163 3.04912 16.7605 3.98277 18.004C4.91641 19.2476 6.12721 20.2563 7.51895 20.9499C8.91069 21.6436 10.445 22.0031 12.0001 22H12.2901C13.9891 21.9498 15.6473 21.4674 17.1082 20.5983C18.569 19.7292 19.7841 18.5021 20.6388 17.0328C21.4936 15.5635 21.9597 13.9006 21.9931 12.2012C22.0266 10.5017 21.6263 8.82175 20.8301 7.31998ZM11.0001 19.93C9.0782 19.6741 7.31468 18.7289 6.03741 17.2703C4.76014 15.8116 4.05604 13.9388 4.05604 12C4.05604 10.0612 4.76014 8.18831 6.03741 6.72968C7.31468 5.27105 9.0782 4.3259 11.0001 4.06998V19.93ZM13.0001 4.06998C13.8646 4.18057 14.7055 4.43047 15.4901 4.80998L13.0001 9.11998V4.06998ZM13.0001 13.07L17.1701 5.89998C17.7849 6.42793 18.3174 7.04473 18.7501 7.72998L13.0001 17.69V13.07ZM14.1501 19.65L19.7401 9.99998C19.9091 10.6533 19.9964 11.3251 20.0001 12C19.9988 13.746 19.4264 15.4436 18.3702 16.8339C17.3139 18.2242 15.8318 19.2307 14.1501 19.7V19.65Z" fill="black"/>
</svg>
