<svg width="24" height="24" viewBox="0 0 24 24" fill="none" xmlns="http://www.w3.org/2000/svg">
<path d="M20.83 7.32026C20.8354 7.29387 20.8354 7.26665 20.83 7.24026C20.0288 5.75831 18.8661 4.50279 17.45 3.59026C15.8278 2.53903 13.933 1.98625 12 2.00026C11.7348 2.00026 11.4804 2.10562 11.2929 2.29315C11.1054 2.48069 11 2.73504 11 3.00026V21.0003C11 21.2655 11.1054 21.5198 11.2929 21.7074C11.4804 21.8949 11.7348 22.0003 12 22.0003H12.28C13.9799 21.9518 15.6394 21.4706 17.1015 20.6021C18.5637 19.7337 19.7802 18.5067 20.6361 17.0372C21.492 15.5677 21.9589 13.9041 21.9929 12.2039C22.0268 10.5036 21.6266 8.82277 20.83 7.32026ZM13 4.06026C13.8648 4.16963 14.7059 4.41959 15.49 4.80026L13 9.12026V4.06026ZM13 13.1203L17.17 5.90026C17.7876 6.42547 18.3205 7.04271 18.75 7.73026L13 17.6903V13.1203ZM14.16 19.6903L19.75 10.0003C19.9137 10.6544 19.9976 11.3259 20 12.0003C20.0072 13.7457 19.439 15.445 18.3833 16.8351C17.3277 18.2251 15.8433 19.2286 14.16 19.6903Z" fill="black"/>
</svg>
