<svg width="24" height="24" viewBox="0 0 24 24" fill="none" xmlns="http://www.w3.org/2000/svg">
<path d="M17 6.99989C16.5377 5.79565 15.7816 4.72607 14.8007 3.88837C13.8198 3.05066 12.645 2.47141 11.3833 2.20326C10.1215 1.93511 8.81271 1.98657 7.57589 2.35295C6.33907 2.71934 5.21343 3.38904 4.3013 4.30117C3.38916 5.21331 2.71946 6.33894 2.35308 7.57577C1.98669 8.81259 1.93523 10.1214 2.20338 11.3831C2.47153 12.6449 3.05079 13.8197 3.88849 14.8006C4.72619 15.7815 5.79578 16.5375 7.00002 16.9999C7.46238 18.2041 8.21839 19.2737 9.19932 20.1114C10.1802 20.9491 11.355 21.5284 12.6168 21.7965C13.8785 22.0647 15.1873 22.0132 16.4241 21.6468C17.661 21.2804 18.7866 20.6107 19.6987 19.6986C20.6109 18.7865 21.2806 17.6608 21.647 16.424C22.0133 15.1872 22.0648 13.8784 21.7966 12.6166C21.5285 11.3549 20.9492 10.1801 20.1115 9.1992C19.2738 8.21827 18.2043 7.46226 17 6.99989ZM15.4 8.59989C15.4722 8.97562 15.5091 9.35729 15.51 9.73989C15.5079 10.1912 15.4543 10.6408 15.35 11.0799L12.91 8.65989C13.3491 8.55566 13.7987 8.50198 14.25 8.49989C14.6326 8.50084 15.0143 8.53767 15.39 8.60989L15.4 8.59989ZM14.46 12.9999C14.0614 13.5673 13.5674 14.0612 13 14.4599L9.54002 10.9999C9.93866 10.4325 10.4326 9.93854 11 9.53989L14.46 12.9999ZM6.46002 14.4599C5.76721 13.9807 5.18817 13.355 4.76385 12.6273C4.33953 11.8996 4.08029 11.0875 4.00448 10.2485C3.92867 9.40953 4.03812 8.56413 4.32511 7.77212C4.6121 6.98011 5.06961 6.26083 5.66528 5.66516C6.26095 5.06949 6.98023 4.61198 7.77224 4.32499C8.56425 4.038 9.40965 3.92854 10.2486 4.00436C11.0876 4.08017 11.8997 4.33941 12.6274 4.76373C13.3552 5.18805 13.9808 5.76709 14.46 6.45989H14.21C12.1554 6.47312 10.1899 7.30064 8.74456 8.76098C7.29922 10.2213 6.49203 12.1953 6.50002 14.2499C6.50002 14.3299 6.51002 14.4199 6.51002 14.4999L6.46002 14.4599ZM8.56002 15.3499C8.48779 14.9742 8.45097 14.5925 8.45002 14.2099C8.4521 13.7586 8.50578 13.309 8.61001 12.8699L11.04 15.2999C10.6009 15.4041 10.1513 15.4578 9.70002 15.4599C9.33532 15.4691 8.97054 15.4457 8.61001 15.3899L8.56002 15.3499ZM14.25 19.9999C13.3141 19.9981 12.3926 19.7687 11.5651 19.3314C10.7375 18.8942 10.0288 18.2621 9.50002 17.4899H9.75002C11.8029 17.4873 13.7711 16.6713 15.2236 15.2206C16.6762 13.7699 17.4947 11.8028 17.5 9.74989C17.5 9.66989 17.5 9.57989 17.5 9.49989C18.5158 10.1929 19.2827 11.1932 19.6882 12.3542C20.0936 13.5151 20.1161 14.7754 19.7526 15.9501C19.389 17.1248 18.6584 18.152 17.668 18.8809C16.6776 19.6098 15.4797 20.002 14.25 19.9999Z" fill="black"/>
</svg>
