<svg width="24" height="24" viewBox="0 0 24 24" fill="none" xmlns="http://www.w3.org/2000/svg">
<path d="M21.8401 5.55962C21.7073 4.70803 21.3082 3.92038 20.7001 3.30962C20.0893 2.7015 19.3017 2.30243 18.4501 2.16962C16.688 1.90353 14.8909 1.98507 13.1601 2.40962C13.0918 2.42362 13.0249 2.4437 12.9601 2.46962C10.4275 3.10795 8.11541 4.42123 6.27011 6.26962C4.41421 8.12821 3.09446 10.4533 2.45011 12.9996C2.45011 13.0596 2.45011 13.1196 2.40011 13.1896C1.97553 14.9238 1.894 16.7242 2.16011 18.4896C2.30286 19.3234 2.70124 20.0922 3.30011 20.6896C3.91088 21.2977 4.69853 21.6968 5.55011 21.8296C6.23783 21.9414 6.93337 21.9983 7.63011 21.9996C8.72923 21.9933 9.82365 21.8556 10.8901 21.5896H11.0301C13.566 20.9476 15.8817 19.6334 17.7332 17.7854C19.5846 15.9375 20.9033 13.6243 21.5501 11.0896C21.5501 11.0296 21.5501 10.9696 21.6001 10.8996C22.03 9.15264 22.1115 7.33811 21.8401 5.55962ZM16.3701 3.99962C16.9597 3.9965 17.5485 4.04334 18.1301 4.13962C18.2117 4.15696 18.292 4.18035 18.3701 4.20962L17.0001 5.58962L15.4601 4.04962C15.7601 3.99962 16.0701 3.99962 16.3701 3.99962ZM7.67011 7.66962C9.17564 6.17223 11.0321 5.07556 13.0701 4.47962L15.5901 6.99962L13.4401 9.14962L12.7101 8.41962C12.6172 8.32589 12.5066 8.25149 12.3847 8.20072C12.2628 8.14996 12.1321 8.12382 12.0001 8.12382C11.8681 8.12382 11.7374 8.14996 11.6155 8.20072C11.4937 8.25149 11.3831 8.32589 11.2901 8.41962C11.1039 8.60698 10.9993 8.86043 10.9993 9.12462C10.9993 9.3888 11.1039 9.64225 11.2901 9.82962L12.0201 10.5596L10.5601 11.9996L9.83011 11.2696C9.64275 11.0834 9.3893 10.9788 9.12511 10.9788C8.86093 10.9788 8.60748 11.0834 8.42011 11.2696C8.32639 11.3626 8.25199 11.4732 8.20122 11.595C8.15045 11.7169 8.12432 11.8476 8.12432 11.9796C8.12432 12.1116 8.15045 12.2423 8.20122 12.3642C8.25199 12.4861 8.32639 12.5967 8.42011 12.6896L9.15011 13.4196L7.00011 15.5896L4.49011 13.0796C5.07969 11.0382 6.17323 9.17776 7.67011 7.66962ZM4.21011 18.3696C4.18085 18.2915 4.15745 18.2112 4.14011 18.1296C3.9887 17.2482 3.94171 16.352 4.00011 15.4596L5.59011 16.9996L4.21011 18.3696ZM5.87011 19.8596C5.78849 19.8423 5.70826 19.8189 5.63011 19.7896L7.00011 18.4096L8.54011 19.9996C7.6477 20.058 6.75152 20.011 5.87011 19.8596ZM16.3301 16.3296C14.822 17.8265 12.9616 18.92 10.9201 19.5096L8.41011 16.9996L10.5601 14.8496L11.2901 15.5796C11.3827 15.6729 11.4927 15.7469 11.614 15.7977C11.7352 15.8484 11.8652 15.8747 11.9966 15.8752C12.128 15.8756 12.2582 15.8502 12.3797 15.8004C12.5013 15.7505 12.6119 15.6772 12.7051 15.5846C12.7984 15.492 12.8724 15.382 12.9232 15.2608C12.9739 15.1396 13.0002 15.0095 13.0007 14.8782C13.0011 14.7468 12.9757 14.6166 12.9259 14.495C12.876 14.3734 12.8027 14.2629 12.7101 14.1696L12.0001 13.4396L13.4401 11.9996L14.1701 12.7296C14.2636 12.8223 14.3744 12.8956 14.4962 12.9454C14.618 12.9952 14.7485 13.0204 14.8801 13.0196C15.0779 13.0188 15.271 12.9593 15.435 12.8488C15.5989 12.7382 15.7265 12.5815 15.8014 12.3985C15.8763 12.2154 15.8953 12.0143 15.8559 11.8205C15.8165 11.6267 15.7205 11.4489 15.5801 11.3096L14.8501 10.5796L17.0001 8.40962L19.5101 10.9196C18.9205 12.9611 17.827 14.8215 16.3301 16.3296ZM20.0001 8.53962L18.4101 6.99962L19.7901 5.62962C19.8194 5.70777 19.8428 5.78799 19.8601 5.86962C20.0115 6.75102 20.0585 7.64721 20.0001 8.53962Z" fill="black"/>
</svg>
