<svg width="24" height="24" viewBox="0 0 24 24" fill="none" xmlns="http://www.w3.org/2000/svg">
<path d="M19 12.9996H17C16.7348 12.9996 16.4804 13.105 16.2929 13.2925C16.1054 13.4801 16 13.7344 16 13.9996C16 14.2649 16.1054 14.5192 16.2929 14.7067C16.4804 14.8943 16.7348 14.9996 17 14.9996H17.91C17.7016 16.2261 17.1171 17.3574 16.2374 18.2371C15.3578 19.1167 14.2264 19.7012 13 19.9096V10.9996H14C14.2652 10.9996 14.5196 10.8943 14.7071 10.7067C14.8946 10.5192 15 10.2649 15 9.99964C15 9.73442 14.8946 9.48007 14.7071 9.29253C14.5196 9.105 14.2652 8.99964 14 8.99964H13V7.81964C13.6672 7.58374 14.2296 7.11957 14.5876 6.50916C14.9457 5.89875 15.0765 5.1814 14.9568 4.4839C14.8371 3.78641 14.4747 3.15367 13.9337 2.69753C13.3926 2.24139 12.7077 1.99121 12 1.99121C11.2923 1.99121 10.6074 2.24139 10.0663 2.69753C9.52527 3.15367 9.16288 3.78641 9.0432 4.4839C8.92353 5.1814 9.05429 5.89875 9.41237 6.50916C9.77045 7.11957 10.3328 7.58374 11 7.81964V8.99964H10C9.73478 8.99964 9.48043 9.105 9.29289 9.29253C9.10536 9.48007 9 9.73442 9 9.99964C9 10.2649 9.10536 10.5192 9.29289 10.7067C9.48043 10.8943 9.73478 10.9996 10 10.9996H11V19.9096C9.77356 19.7012 8.64222 19.1167 7.76256 18.2371C6.8829 17.3574 6.29842 16.2261 6.09 14.9996H7C7.26522 14.9996 7.51957 14.8943 7.70711 14.7067C7.89464 14.5192 8 14.2649 8 13.9996C8 13.7344 7.89464 13.4801 7.70711 13.2925C7.51957 13.105 7.26522 12.9996 7 12.9996H5C4.73478 12.9996 4.48043 13.105 4.29289 13.2925C4.10536 13.4801 4 13.7344 4 13.9996C4 16.1214 4.84285 18.1562 6.34315 19.6565C7.84344 21.1568 9.87827 21.9996 12 21.9996C14.1217 21.9996 16.1566 21.1568 17.6569 19.6565C19.1571 18.1562 20 16.1214 20 13.9996C20 13.7344 19.8946 13.4801 19.7071 13.2925C19.5196 13.105 19.2652 12.9996 19 12.9996ZM12 5.99964C11.8022 5.99964 11.6089 5.94099 11.4444 5.83111C11.28 5.72123 11.1518 5.56505 11.0761 5.38232C11.0004 5.1996 10.9806 4.99853 11.0192 4.80455C11.0578 4.61057 11.153 4.43238 11.2929 4.29253C11.4327 4.15268 11.6109 4.05744 11.8049 4.01885C11.9989 3.98027 12.2 4.00007 12.3827 4.07576C12.5654 4.15145 12.7216 4.27962 12.8315 4.44407C12.9414 4.60852 13 4.80186 13 4.99964C13 5.26485 12.8946 5.51921 12.7071 5.70674C12.5196 5.89428 12.2652 5.99964 12 5.99964Z" fill="black"/>
</svg>
