<svg width="24" height="24" viewBox="0 0 24 24" fill="none" xmlns="http://www.w3.org/2000/svg">
<path d="M9.99992 13H13.9999C14.2651 13 14.5195 12.8946 14.707 12.7071C14.8946 12.5196 14.9999 12.2652 14.9999 12C14.9999 11.7348 14.8946 11.4804 14.707 11.2929C14.5195 11.1054 14.2651 11 13.9999 11H9.99992C9.73471 11 9.48035 11.1054 9.29282 11.2929C9.10528 11.4804 8.99992 11.7348 8.99992 12C8.99992 12.2652 9.10528 12.5196 9.29282 12.7071C9.48035 12.8946 9.73471 13 9.99992 13ZM18.9999 3H4.99992C4.29638 3.00546 3.61714 3.25801 3.08093 3.71352C2.54473 4.16902 2.18567 4.79849 2.06653 5.49189C1.94738 6.18529 2.07574 6.89851 2.42915 7.50687C2.78257 8.11523 3.33855 8.58002 3.99992 8.82V18C3.99992 18.7956 4.316 19.5587 4.8786 20.1213C5.44121 20.6839 6.20428 21 6.99992 21H16.9999C17.7956 21 18.5586 20.6839 19.1212 20.1213C19.6839 19.5587 19.9999 18.7956 19.9999 18V8.82C20.6613 8.58002 21.2173 8.11523 21.5707 7.50687C21.9241 6.89851 22.0525 6.18529 21.9333 5.49189C21.8142 4.79849 21.4551 4.16902 20.9189 3.71352C20.3827 3.25801 19.7035 3.00546 18.9999 3ZM17.9999 18C17.9999 18.2652 17.8946 18.5196 17.707 18.7071C17.5195 18.8946 17.2651 19 16.9999 19H6.99992C6.73471 19 6.48035 18.8946 6.29282 18.7071C6.10528 18.5196 5.99992 18.2652 5.99992 18V9H17.9999V18ZM18.9999 7H4.99992C4.73471 7 4.48035 6.89464 4.29282 6.70711C4.10528 6.51957 3.99992 6.26522 3.99992 6C3.99992 5.73478 4.10528 5.48043 4.29282 5.29289C4.48035 5.10536 4.73471 5 4.99992 5H18.9999C19.2651 5 19.5195 5.10536 19.707 5.29289C19.8946 5.48043 19.9999 5.73478 19.9999 6C19.9999 6.26522 19.8946 6.51957 19.707 6.70711C19.5195 6.89464 19.2651 7 18.9999 7Z" fill="black"/>
</svg>
