<svg width="24" height="24" viewBox="0 0 24 24" fill="none" xmlns="http://www.w3.org/2000/svg">
<path d="M17.8699 8.59961C17.7954 8.42833 17.6744 8.28134 17.5207 8.17529C17.3669 8.06925 17.1865 8.00839 16.9999 7.99961H12.4199L13.6899 3.25961C13.7304 3.11128 13.7361 2.95563 13.7066 2.80474C13.6771 2.65386 13.6132 2.5118 13.5199 2.38961C13.4257 2.26725 13.3045 2.16837 13.1657 2.1007C13.0269 2.03304 12.8743 1.99844 12.7199 1.99961H5.71992C5.49416 1.99188 5.27243 2.06081 5.09085 2.19518C4.90926 2.32955 4.77852 2.52145 4.71992 2.73961L2.03992 12.7396C1.99915 12.8907 1.99439 13.0492 2.02603 13.2024C2.05767 13.3556 2.12482 13.4993 2.22208 13.6219C2.31935 13.7444 2.44401 13.8424 2.58606 13.908C2.7281 13.9737 2.88355 14.005 3.03992 13.9996H6.88992L5.07992 20.7396C5.02062 20.9569 5.03644 21.1879 5.12483 21.3952C5.21321 21.6024 5.36898 21.7737 5.56688 21.8813C5.76479 21.989 5.99325 22.0266 6.21523 21.9882C6.43721 21.9498 6.63971 21.8375 6.78992 21.6696L17.6899 9.66961C17.8197 9.52749 17.9057 9.35094 17.9377 9.16115C17.9696 8.97135 17.9461 8.77637 17.8699 8.59961ZM8.07992 17.2796L9.15992 13.2796C9.20504 13.1291 9.21407 12.9701 9.18627 12.8155C9.15847 12.6609 9.09463 12.515 8.99992 12.3896C8.90472 12.2659 8.78187 12.1662 8.64122 12.0985C8.50057 12.0307 8.34601 11.9969 8.18992 11.9996H4.34992L6.48992 3.99961H11.4199L10.1499 8.73961C10.1091 8.89067 10.1044 9.04918 10.136 9.20241C10.1677 9.35564 10.2348 9.49931 10.3321 9.62187C10.4293 9.74442 10.554 9.84244 10.6961 9.90805C10.8381 9.97366 10.9936 10.005 11.1499 9.99961H14.7199L8.07992 17.2796ZM18.9999 12.9996H17.9999C17.2043 12.9996 16.4412 13.3157 15.8786 13.8783C15.316 14.4409 14.9999 15.204 14.9999 15.9996V20.9996C14.9999 21.2648 15.1053 21.5192 15.2928 21.7067C15.4804 21.8943 15.7347 21.9996 15.9999 21.9996C16.2651 21.9996 16.5195 21.8943 16.707 21.7067C16.8946 21.5192 16.9999 21.2648 16.9999 20.9996V18.9996H19.9999V20.9996C19.9999 21.2648 20.1053 21.5192 20.2928 21.7067C20.4804 21.8943 20.7347 21.9996 20.9999 21.9996C21.2651 21.9996 21.5195 21.8943 21.707 21.7067C21.8946 21.5192 21.9999 21.2648 21.9999 20.9996V15.9996C21.9999 15.204 21.6839 14.4409 21.1212 13.8783C20.5586 13.3157 19.7956 12.9996 18.9999 12.9996ZM19.9999 16.9996H16.9999V15.9996C16.9999 15.7344 17.1053 15.48 17.2928 15.2925C17.4804 15.105 17.7347 14.9996 17.9999 14.9996H18.9999C19.2651 14.9996 19.5195 15.105 19.707 15.2925C19.8946 15.48 19.9999 15.7344 19.9999 15.9996V16.9996Z" fill="black"/>
</svg>
