<svg width="24" height="24" viewBox="0 0 24 24" fill="none" xmlns="http://www.w3.org/2000/svg">
<path d="M19.8799 15.5001H15.3799C15.1147 15.5001 14.8603 15.6055 14.6728 15.793C14.4853 15.9806 14.3799 16.2349 14.3799 16.5001C14.3799 16.7654 14.4853 17.0197 14.6728 17.2073C14.8603 17.3948 15.1147 17.5001 15.3799 17.5001H17.7799C17.0357 18.2862 16.1398 18.9131 15.1463 19.3428C14.1528 19.7725 13.0824 19.9962 11.9999 20.0001C10.9284 19.9991 9.86786 19.7849 8.87992 19.3701L7.38992 20.8601C8.81032 21.6112 10.3932 22.0026 11.9999 22.0001C14.5635 21.9928 17.0264 21.0012 18.8799 19.2301V21.0001C18.8799 21.2654 18.9853 21.5197 19.1728 21.7073C19.3603 21.8948 19.6147 22.0001 19.8799 22.0001C20.1451 22.0001 20.3995 21.8948 20.587 21.7073C20.7746 21.5197 20.8799 21.2654 20.8799 21.0001V16.5001C20.8799 16.2349 20.7746 15.9806 20.587 15.793C20.3995 15.6055 20.1451 15.5001 19.8799 15.5001ZM18.3099 7.10015L19.7399 5.67015L21.7399 3.67015C21.8332 3.57691 21.9071 3.46622 21.9576 3.3444C22.008 3.22257 22.034 3.09201 22.034 2.96015C22.034 2.82829 22.008 2.69772 21.9576 2.5759C21.9071 2.45408 21.8332 2.34338 21.7399 2.25015C21.6467 2.15691 21.536 2.08295 21.4142 2.03249C21.2923 1.98203 21.1618 1.95605 21.0299 1.95605C20.8981 1.95605 20.7675 1.98203 20.6457 2.03249C20.5238 2.08295 20.4132 2.15691 20.3199 2.25015L18.3199 4.25015C16.5397 2.78674 14.3044 1.99092 11.9999 2.00015C9.43631 2.00746 6.97341 2.99906 5.11992 4.77015V3.00015C5.11992 2.73493 5.01456 2.48058 4.82703 2.29304C4.63949 2.1055 4.38514 2.00015 4.11992 2.00015C3.8547 2.00015 3.60035 2.1055 3.41281 2.29304C3.22528 2.48058 3.11992 2.73493 3.11992 3.00015V7.50015C3.11992 7.76536 3.22528 8.01972 3.41281 8.20725C3.60035 8.39479 3.8547 8.50015 4.11992 8.50015H8.61992C8.88514 8.50015 9.13949 8.39479 9.32703 8.20725C9.51456 8.01972 9.61992 7.76536 9.61992 7.50015C9.61992 7.23493 9.51456 6.98058 9.32703 6.79304C9.13949 6.6055 8.88514 6.50015 8.61992 6.50015H6.21992C7.57617 5.0573 9.42318 4.17409 11.3977 4.02419C13.3722 3.8743 15.3314 4.46857 16.8899 5.69015L5.68992 16.8901C4.59574 15.4949 4.00072 13.7732 3.99992 12.0001C3.99992 11.7349 3.89456 11.4806 3.70703 11.293C3.51949 11.1055 3.26514 11.0001 2.99992 11.0001C2.7347 11.0001 2.48035 11.1055 2.29281 11.293C2.10528 11.4806 1.99992 11.7349 1.99992 12.0001C1.99633 14.3071 2.79931 16.5427 4.26992 18.3201L2.26992 20.3201C2.17619 20.4131 2.1018 20.5237 2.05103 20.6456C2.00026 20.7674 1.97412 20.8981 1.97412 21.0301C1.97412 21.1622 2.00026 21.2929 2.05103 21.4147C2.1018 21.5366 2.17619 21.6472 2.26992 21.7401C2.36288 21.8339 2.47348 21.9083 2.59534 21.959C2.7172 22.0098 2.84791 22.0359 2.97992 22.0359C3.11193 22.0359 3.24264 22.0098 3.3645 21.959C3.48636 21.9083 3.59696 21.8339 3.68992 21.7401L5.68992 19.7401L7.11992 18.3101L18.3099 7.10015ZM19.3699 8.88015C19.7847 9.86809 19.9989 10.9287 19.9999 12.0001C19.9999 12.2654 20.1053 12.5197 20.2928 12.7073C20.4803 12.8948 20.7347 13.0001 20.9999 13.0001C21.2651 13.0001 21.5195 12.8948 21.707 12.7073C21.8946 12.5197 21.9999 12.2654 21.9999 12.0001C22.0024 10.3934 21.611 8.81055 20.8599 7.39015L19.3699 8.88015Z" fill="black"/>
</svg>
