<svg width="24" height="24" viewBox="0 0 24 24" fill="none" xmlns="http://www.w3.org/2000/svg">
<path d="M22 12.0002H5V6.41039C4.99649 6.05027 5.09153 5.69604 5.27484 5.38603C5.45815 5.07603 5.72275 4.82206 6.04 4.6516C6.39081 4.46149 6.79058 4.38095 7.18764 4.4204C6.98554 5.03246 6.95683 5.68852 7.10469 6.31589C7.25255 6.94326 7.5712 7.51745 8.02535 7.97484L9.08594 9.03539C9.17877 9.12827 9.28899 9.20195 9.41031 9.25222C9.53162 9.30248 9.66165 9.32836 9.79297 9.32836C9.92429 9.32836 10.0543 9.30248 10.1756 9.25222C10.2969 9.20195 10.4072 9.12827 10.5 9.03539L14.0352 5.50023C14.128 5.4074 14.2017 5.29718 14.252 5.17587C14.3023 5.05455 14.3281 4.92452 14.3281 4.7932C14.3281 4.66189 14.3023 4.53186 14.252 4.41054C14.2017 4.28923 14.128 4.17901 14.0352 4.08617L12.9746 3.02562C12.3843 2.438 11.6035 2.08057 10.773 2.01776C9.94248 1.95496 9.11682 2.19091 8.44489 2.68309C7.83906 2.44648 7.18459 2.36147 6.53841 2.43543C5.89223 2.5094 5.27391 2.74011 4.73722 3.10751C4.20052 3.4749 3.76171 3.96785 3.45895 4.54348C3.15618 5.11911 2.99863 5.76 3 6.41039V12.0002H2C1.73478 12.0002 1.48043 12.1056 1.29289 12.2931C1.10536 12.4807 1 12.735 1 13.0002C1 13.2655 1.10536 13.5198 1.29289 13.7073C1.48043 13.8949 1.73478 14.0002 2 14.0002H3V17.0002C3.0019 17.6186 3.19517 18.2212 3.55327 18.7254C3.91137 19.2295 4.41674 19.6105 5 19.8159V21.0002C5 21.2655 5.10536 21.5198 5.29289 21.7073C5.48043 21.8949 5.73478 22.0002 6 22.0002C6.26522 22.0002 6.51957 21.8949 6.70711 21.7073C6.89464 21.5198 7 21.2655 7 21.0002V20.0002H17V21.0002C17 21.2655 17.1054 21.5198 17.2929 21.7073C17.4804 21.8949 17.7348 22.0002 18 22.0002C18.2652 22.0002 18.5196 21.8949 18.7071 21.7073C18.8946 21.5198 19 21.2655 19 21.0002V19.816C19.5833 19.6105 20.0886 19.2296 20.4467 18.7254C20.8048 18.2213 20.9981 17.6186 21 17.0002V14.0002H22C22.2652 14.0002 22.5196 13.8949 22.7071 13.7073C22.8946 13.5198 23 13.2655 23 13.0002C23 12.735 22.8946 12.4807 22.7071 12.2931C22.5196 12.1056 22.2652 12.0002 22 12.0002ZM9.43945 4.43968C9.72098 4.1589 10.1024 4.00121 10.5 4.00121C10.8976 4.00121 11.279 4.1589 11.5605 4.43968L11.9141 4.7932L9.793 6.91429L9.43948 6.56078C9.15854 6.27933 9.00075 5.89791 9.00074 5.50024C9.00074 5.10257 9.15852 4.72114 9.43945 4.43968ZM19 17.0002C18.9998 17.2654 18.8944 17.5196 18.7069 17.7071C18.5194 17.8946 18.2652 18.0001 18 18.0002H6C5.73484 18.0001 5.48059 17.8946 5.29309 17.7071C5.10559 17.5196 5.00018 17.2654 5 17.0002V14.0002H19V17.0002Z" fill="black"/>
</svg>
