<svg width="24" height="24" viewBox="0 0 24 24" fill="none" xmlns="http://www.w3.org/2000/svg">
<path d="M20.4901 13.9402L20.1501 14.1402C19.9221 14.2755 19.7571 14.4958 19.6914 14.7527C19.6258 15.0096 19.6649 15.2821 19.8001 15.5102C19.8886 15.6595 20.0145 15.7831 20.1652 15.869C20.316 15.955 20.4866 16.0002 20.6601 16.0002C20.8396 16.0001 21.0158 15.9518 21.1701 15.8602L21.5101 15.6602C21.7103 15.5146 21.8494 15.2999 21.9005 15.0576C21.9515 14.8154 21.9109 14.5628 21.7865 14.3488C21.662 14.1348 21.4626 13.9745 21.2269 13.8991C20.9911 13.8236 20.7357 13.8382 20.5101 13.9402H20.4901ZM11.6501 6.36019L12.0001 6.15019L19.0001 10.1502L17.2401 11.1502C17.0475 11.2593 16.8965 11.4294 16.8109 11.6336C16.7253 11.8378 16.7099 12.0646 16.7671 12.2785C16.8243 12.4924 16.9508 12.6813 17.1269 12.8155C17.303 12.9497 17.5187 13.0217 17.7401 13.0202C17.9153 13.0214 18.0877 12.9766 18.2401 12.8902L21.5001 11.0002C21.654 10.913 21.782 10.7865 21.8711 10.6336C21.9601 10.4808 22.0071 10.3071 22.0071 10.1302C22.0071 9.95329 21.9601 9.77956 21.8711 9.62672C21.782 9.47388 21.654 9.3474 21.5001 9.26019L12.5001 4.07019C12.3481 3.98242 12.1756 3.93621 12.0001 3.93621C11.8246 3.93621 11.6521 3.98242 11.5001 4.07019L10.6501 4.56019C10.4194 4.69279 10.2508 4.91163 10.1814 5.16856C10.112 5.42548 10.1475 5.69945 10.2801 5.93019C10.4127 6.16092 10.6316 6.32953 10.8885 6.39892C11.1454 6.46831 11.4194 6.43279 11.6501 6.30019V6.36019ZM3.71011 2.29019C3.61687 2.19695 3.50618 2.12299 3.38436 2.07253C3.26254 2.02207 3.13197 1.99609 3.00011 1.99609C2.86825 1.99609 2.73769 2.02207 2.61586 2.07253C2.49404 2.12299 2.38335 2.19695 2.29011 2.29019C2.10181 2.47849 1.99602 2.73388 1.99602 3.00019C1.99602 3.26649 2.10181 3.52188 2.29011 3.71019L5.93011 7.34019L2.50011 9.34019C2.34621 9.4274 2.21821 9.55388 2.12915 9.70672C2.04009 9.85956 1.99316 10.0333 1.99316 10.2102C1.99316 10.3871 2.04009 10.5608 2.12915 10.7136C2.21821 10.8665 2.34621 10.993 2.50011 11.0802L11.5001 16.2802C11.654 16.363 11.8254 16.4075 12.0001 16.4102C12.1746 16.406 12.3457 16.3615 12.5001 16.2802L14.0001 15.4002L15.4501 16.8602L12.0101 18.8602L3.50011 13.9302C3.26937 13.7976 2.99541 13.7621 2.73848 13.8314C2.48156 13.9008 2.26272 14.0694 2.13011 14.3002C1.9975 14.5309 1.96199 14.8049 2.03138 15.0618C2.10076 15.3187 2.26937 15.5376 2.50011 15.6702L11.5001 20.8702C11.6521 20.958 11.8246 21.0042 12.0001 21.0042C12.1756 21.0042 12.3481 20.958 12.5001 20.8702L16.9101 18.3202L20.2901 21.7102C20.3831 21.8039 20.4937 21.8783 20.6155 21.9291C20.7374 21.9798 20.8681 22.006 21.0001 22.006C21.1321 22.006 21.2628 21.9798 21.3847 21.9291C21.5065 21.8783 21.6171 21.8039 21.7101 21.7102C21.8038 21.6172 21.8782 21.5066 21.929 21.3848C21.9798 21.2629 22.0059 21.1322 22.0059 21.0002C22.0059 20.8682 21.9798 20.7375 21.929 20.6156C21.8782 20.4937 21.8038 20.3831 21.7101 20.2902L3.71011 2.29019ZM12.0001 14.2902L5.00011 10.1902L7.40011 8.81019L12.5201 13.9402L12.0001 14.2902Z" fill="black"/>
</svg>
