<svg width="24" height="24" viewBox="0 0 24 24" fill="none" xmlns="http://www.w3.org/2000/svg">
<path d="M10.2599 4.99987L11.9999 3.99987L18.9999 7.99987L15.8499 9.82987C15.6212 9.96179 15.4539 10.1788 15.3846 10.4336C15.3153 10.6884 15.3496 10.9603 15.4799 11.1899C15.5453 11.3045 15.6326 11.405 15.737 11.4857C15.8413 11.5664 15.9606 11.6256 16.0879 11.66C16.2153 11.6944 16.3482 11.7032 16.4789 11.6861C16.6097 11.6689 16.7358 11.626 16.8499 11.5599L21.4999 8.86987C21.6538 8.78266 21.7818 8.65617 21.8709 8.50333C21.96 8.3505 22.0069 8.17677 22.0069 7.99987C22.0069 7.82298 21.96 7.64925 21.8709 7.49641C21.7818 7.34357 21.6538 7.21709 21.4999 7.12987L12.4999 1.92987C12.3479 1.8421 12.1755 1.7959 11.9999 1.7959C11.8244 1.7959 11.652 1.8421 11.4999 1.92987L9.25994 3.22987C9.14535 3.2952 9.04482 3.38256 8.96414 3.4869C8.88345 3.59125 8.82421 3.71053 8.78982 3.83787C8.75543 3.96521 8.74657 4.0981 8.76375 4.22887C8.78094 4.35965 8.82382 4.48574 8.88994 4.59987C8.95272 4.71698 9.03821 4.8204 9.14141 4.9041C9.24462 4.98779 9.36347 5.05008 9.49102 5.08732C9.61857 5.12456 9.75226 5.13601 9.88428 5.12099C10.0163 5.10598 10.144 5.0648 10.2599 4.99987ZM3.70994 2.28987C3.6167 2.19663 3.50601 2.12267 3.38419 2.07221C3.26237 2.02175 3.1318 1.99578 2.99994 1.99578C2.86808 1.99578 2.73751 2.02175 2.61569 2.07221C2.49387 2.12267 2.38318 2.19663 2.28994 2.28987C2.10164 2.47818 1.99585 2.73357 1.99585 2.99987C1.99585 3.26617 2.10164 3.52157 2.28994 3.70987L4.53994 5.99987L2.53994 7.16987C2.38604 7.25709 2.25804 7.38357 2.16898 7.53641C2.07992 7.68925 2.03299 7.86298 2.03299 8.03987C2.03299 8.21677 2.07992 8.3905 2.16898 8.54333C2.25804 8.69617 2.38604 8.82266 2.53994 8.90987L11.5399 14.1099C11.692 14.1976 11.8644 14.2438 12.0399 14.2438C12.2155 14.2438 12.3879 14.1976 12.5399 14.1099L12.6399 14.0499L13.7099 15.1199L12.0399 16.1199L3.49994 11.1299C3.38569 11.0642 3.25963 11.0217 3.12895 11.0048C2.99827 10.9878 2.86553 10.9968 2.73831 11.0311C2.6111 11.0655 2.49189 11.1246 2.38751 11.205C2.28312 11.2854 2.1956 11.3856 2.12994 11.4999C2.06428 11.6141 2.02177 11.7402 2.00482 11.8709C1.98788 12.0015 1.99685 12.1343 2.0312 12.2615C2.06556 12.3887 2.12464 12.5079 2.20507 12.6123C2.28549 12.7167 2.38569 12.8042 2.49994 12.8699L11.4999 18.0699C11.6523 18.1563 11.8248 18.2011 11.9999 18.1999C12.1751 18.2011 12.3475 18.1563 12.4999 18.0699L15.1299 16.5499L16.1999 17.6199L11.9999 19.9999L3.49994 15.1299C3.2692 14.9973 2.99524 14.9617 2.73831 15.0311C2.48139 15.1005 2.26255 15.2691 2.12994 15.4999C1.99733 15.7306 1.96182 16.0046 2.03121 16.2615C2.10059 16.5184 2.2692 16.7373 2.49994 16.8699L11.4999 22.0699C11.652 22.1576 11.8244 22.2038 11.9999 22.2038C12.1755 22.2038 12.3479 22.1576 12.4999 22.0699L17.6699 19.0699L20.2899 21.6999C20.3829 21.7936 20.4935 21.868 20.6154 21.9188C20.7372 21.9695 20.8679 21.9957 20.9999 21.9957C21.132 21.9957 21.2627 21.9695 21.3845 21.9188C21.5064 21.868 21.617 21.7936 21.7099 21.6999C21.8037 21.6069 21.8781 21.4963 21.9288 21.3744C21.9796 21.2526 22.0057 21.1219 22.0057 20.9899C22.0057 20.8579 21.9796 20.7272 21.9288 20.6053C21.8781 20.4834 21.8037 20.3728 21.7099 20.2799L3.70994 2.28987ZM4.99994 7.99987L5.99994 7.41987L8.74994 10.1699L4.99994 7.99987ZM20.4999 11.1299L18.3799 12.3499C18.1492 12.4825 17.9806 12.7013 17.9112 12.9582C17.8418 13.2152 17.8773 13.4891 18.0099 13.7199C18.1425 13.9506 18.3614 14.1192 18.6183 14.1886C18.8752 14.258 19.1492 14.2225 19.3799 14.0899L21.4999 12.8699C21.6142 12.8042 21.7144 12.7167 21.7948 12.6123C21.8752 12.5079 21.9343 12.3887 21.9687 12.2615C22.003 12.1343 22.012 12.0015 21.9951 11.8709C21.9781 11.7402 21.9356 11.6141 21.8699 11.4999C21.8043 11.3856 21.7168 11.2854 21.6124 11.205C21.508 11.1246 21.3888 11.0655 21.2616 11.0311C21.1344 10.9968 21.0016 10.9878 20.8709 11.0048C20.7403 11.0217 20.6142 11.0642 20.4999 11.1299Z" fill="black"/>
</svg>
