<svg width="24" height="24" viewBox="0 0 24 24" fill="none" xmlns="http://www.w3.org/2000/svg">
<path d="M10.6599 6.00019H17.9999C18.2652 6.00019 18.5195 6.10554 18.707 6.29308C18.8946 6.48062 18.9999 6.73497 18.9999 7.00019V13.0002C19.0011 13.1767 18.9526 13.35 18.8599 13.5002C18.7897 13.6111 18.7419 13.7349 18.7195 13.8643C18.697 13.9937 18.7003 14.1263 18.7291 14.2544C18.7579 14.3825 18.8116 14.5038 18.8873 14.6111C18.9629 14.7185 19.059 14.8099 19.1699 14.8802C19.3265 14.9855 19.5112 15.0413 19.6999 15.0402C19.8673 15.0399 20.0318 14.9976 20.1786 14.9173C20.3253 14.8369 20.4496 14.721 20.5399 14.5802C20.8405 14.108 21.0001 13.5599 20.9999 13.0002V7.00019C20.9999 6.20454 20.6839 5.44147 20.1213 4.87887C19.5587 4.31626 18.7956 4.00019 17.9999 4.00019H10.6599C10.3947 4.00019 10.1404 4.10554 9.95283 4.29308C9.7653 4.48062 9.65994 4.73497 9.65994 5.00019C9.65994 5.2654 9.7653 5.51976 9.95283 5.70729C10.1404 5.89483 10.3947 6.00019 10.6599 6.00019ZM21.7099 20.2902L5.85994 4.45019L3.70994 2.29019C3.6167 2.19695 3.50601 2.12299 3.38419 2.07253C3.26237 2.02207 3.1318 1.99609 2.99994 1.99609C2.86808 1.99609 2.73751 2.02207 2.61569 2.07253C2.49387 2.12299 2.38318 2.19695 2.28994 2.29019C2.10164 2.47849 1.99585 2.73388 1.99585 3.00019C1.99585 3.26649 2.10164 3.52188 2.28994 3.71019L3.68994 5.10019C3.24707 5.63463 3.00322 6.3061 2.99994 7.00019V13.0002C2.99994 13.7958 3.31601 14.5589 3.87862 15.1215C4.44123 15.6841 5.20429 16.0002 5.99994 16.0002H10.9999V18.0002H6.99994C6.73472 18.0002 6.48037 18.1055 6.29283 18.2931C6.1053 18.4806 5.99994 18.735 5.99994 19.0002C5.99994 19.2654 6.1053 19.5198 6.29283 19.7073C6.48037 19.8948 6.73472 20.0002 6.99994 20.0002H16.9999C17.2037 19.9981 17.402 19.9337 17.5682 19.8157C17.7345 19.6978 17.8607 19.5319 17.9299 19.3402L20.2899 21.7102C20.3829 21.8039 20.4935 21.8783 20.6154 21.9291C20.7372 21.9798 20.8679 22.006 20.9999 22.006C21.132 22.006 21.2627 21.9798 21.3845 21.9291C21.5064 21.8783 21.617 21.8039 21.7099 21.7102C21.8037 21.6172 21.8781 21.5066 21.9288 21.3848C21.9796 21.2629 22.0057 21.1322 22.0057 21.0002C22.0057 20.8682 21.9796 20.7375 21.9288 20.6156C21.8781 20.4937 21.8037 20.3831 21.7099 20.2902ZM5.99994 14.0002C5.73472 14.0002 5.48037 13.8948 5.29283 13.7073C5.1053 13.5198 4.99994 13.2654 4.99994 13.0002V7.00019C5.00238 6.83944 5.04355 6.68164 5.11994 6.54019L12.5899 14.0002H5.99994ZM12.9999 18.0002V16.0002H14.5899L16.5899 18.0002H12.9999Z" fill="black"/>
</svg>
