<svg width="24" height="24" viewBox="0 0 24 24" fill="none" xmlns="http://www.w3.org/2000/svg">
<path d="M21.7099 20.2902L3.70994 2.29019C3.52164 2.10188 3.26624 1.99609 2.99994 1.99609C2.73364 1.99609 2.47824 2.10188 2.28994 2.29019C2.10164 2.47849 1.99585 2.73388 1.99585 3.00019C1.99585 3.26649 2.10164 3.52188 2.28994 3.71019L3.28994 4.71019C3.09854 5.11327 2.99947 5.55397 2.99994 6.00019V14.0002C2.99994 14.7958 3.31601 15.5589 3.87862 16.1215C4.44123 16.6841 5.20429 17.0002 5.99994 17.0002H8.99994V19.0002H5.99994C5.73472 19.0002 5.48037 19.1055 5.29283 19.2931C5.1053 19.4806 4.99994 19.735 4.99994 20.0002C4.99994 20.2654 5.1053 20.5198 5.29283 20.7073C5.48037 20.8948 5.73472 21.0002 5.99994 21.0002H17.9999C18.2037 20.9981 18.402 20.9337 18.5682 20.8157C18.7345 20.6978 18.8607 20.5319 18.9299 20.3402L20.2899 21.7102C20.3829 21.8039 20.4935 21.8783 20.6154 21.9291C20.7372 21.9798 20.8679 22.006 20.9999 22.006C21.132 22.006 21.2627 21.9798 21.3845 21.9291C21.5064 21.8783 21.617 21.8039 21.7099 21.7102C21.8037 21.6172 21.8781 21.5066 21.9288 21.3848C21.9796 21.2629 22.0057 21.1322 22.0057 21.0002C22.0057 20.8682 21.9796 20.7375 21.9288 20.6156C21.8781 20.4937 21.8037 20.3831 21.7099 20.2902ZM4.99994 6.41019L9.58994 11.0002H4.99994V6.41019ZM12.9999 19.0002H10.9999V17.0002H12.9999V19.0002ZM5.99994 15.0002C5.73472 15.0002 5.48037 14.8948 5.29283 14.7073C5.1053 14.5198 4.99994 14.2654 4.99994 14.0002V13.0002H11.5899L13.5899 15.0002H5.99994ZM14.9999 19.0002V17.0002H15.5899L17.5899 19.0002H14.9999ZM9.65994 5.00019H17.9999C18.2652 5.00019 18.5195 5.10554 18.707 5.29308C18.8946 5.48062 18.9999 5.73497 18.9999 6.00019V11.0002H17.6599C17.3947 11.0002 17.1404 11.1055 16.9528 11.2931C16.7653 11.4806 16.6599 11.735 16.6599 12.0002C16.6599 12.2654 16.7653 12.5198 16.9528 12.7073C17.1404 12.8948 17.3947 13.0002 17.6599 13.0002H18.9999V14.0002C19.0054 14.0366 19.0054 14.0737 18.9999 14.1102C18.9736 14.2389 18.973 14.3715 18.9979 14.5005C19.0229 14.6294 19.0731 14.7522 19.1455 14.8618C19.2179 14.9714 19.3112 15.0656 19.4201 15.1391C19.529 15.2126 19.6512 15.2639 19.7799 15.2902H19.9799C20.2139 15.2949 20.4421 15.2174 20.6248 15.0713C20.8075 14.9251 20.9332 14.7195 20.9799 14.4902C21.0007 14.3277 21.0074 14.1638 20.9999 14.0002V6.00019C20.9999 5.20454 20.6839 4.44147 20.1213 3.87887C19.5587 3.31626 18.7956 3.00019 17.9999 3.00019H9.65994C9.39472 3.00019 9.14037 3.10554 8.95283 3.29308C8.7653 3.48061 8.65994 3.73497 8.65994 4.00019C8.65994 4.2654 8.7653 4.51976 8.95283 4.70729C9.14037 4.89483 9.39472 5.00019 9.65994 5.00019Z" fill="black"/>
</svg>
