<svg width="24" height="24" viewBox="0 0 24 24" fill="none" xmlns="http://www.w3.org/2000/svg">
<path d="M22 9.66966C21.9368 9.48674 21.822 9.32608 21.6693 9.20716C21.5167 9.08823 21.3328 9.01615 21.14 8.99966L15.45 8.16966L12.9 2.99966C12.8181 2.83059 12.6902 2.688 12.5311 2.58823C12.3719 2.48846 12.1878 2.43555 12 2.43555C11.8121 2.43555 11.6281 2.48846 11.4689 2.58823C11.3097 2.688 11.1819 2.83059 11.1 2.99966L8.54998 8.15966L2.85998 8.99966C2.6749 9.02596 2.5009 9.10362 2.35773 9.22381C2.21455 9.34401 2.10794 9.50193 2.04998 9.67966C1.99692 9.85333 1.99216 10.0382 2.03621 10.2143C2.08025 10.3905 2.17144 10.5514 2.29998 10.6797L6.42998 14.6797L5.42998 20.3597C5.3896 20.5481 5.40453 20.7442 5.47296 20.9243C5.54139 21.1044 5.66041 21.261 5.81571 21.3751C5.971 21.4891 6.15595 21.5559 6.34831 21.5674C6.54066 21.5789 6.73224 21.5345 6.89998 21.4397L12 18.7697L17.1 21.4397C17.2403 21.5188 17.3988 21.5602 17.56 21.5597C17.7718 21.5604 17.9784 21.4939 18.15 21.3697C18.3051 21.2585 18.4252 21.1053 18.4961 20.9281C18.567 20.7509 18.5857 20.5571 18.55 20.3697L17.55 14.6897L21.68 10.6897C21.8244 10.5673 21.9311 10.4066 21.9877 10.226C22.0444 10.0455 22.0486 9.85253 22 9.66966ZM15.85 13.6697C15.7342 13.7821 15.6474 13.9208 15.5969 14.074C15.5464 14.2273 15.5337 14.3905 15.56 14.5497L16.28 18.7497L12.52 16.7497C12.3738 16.6774 12.213 16.6398 12.05 16.6398C11.8869 16.6398 11.7261 16.6774 11.58 16.7497L7.81998 18.7497L8.53998 14.5497C8.56622 14.3905 8.55354 14.2273 8.50305 14.074C8.45255 13.9208 8.36572 13.7821 8.24998 13.6697L5.24998 10.6697L9.45998 10.0597C9.62198 10.0371 9.77598 9.9752 9.90848 9.87931C10.041 9.78342 10.1479 9.65649 10.22 9.50966L12 5.69966L13.88 9.51966C13.952 9.66649 14.059 9.79342 14.1915 9.88931C14.324 9.9852 14.478 10.0471 14.64 10.0697L18.85 10.6797L15.85 13.6697Z" fill="black"/>
</svg>
