<svg width="24" height="24" viewBox="0 0 24 24" fill="none" xmlns="http://www.w3.org/2000/svg">
<path d="M23.0001 9.32017C23.0628 9.06323 23.0271 8.79216 22.9001 8.56017C22.576 7.99781 22.1441 7.50498 21.6291 7.10996C21.114 6.71495 20.5261 6.42551 19.8989 6.25828C19.2718 6.09104 18.6178 6.04928 17.9745 6.13541C17.3312 6.22154 16.7112 6.43385 16.1501 6.76017L14.0001 8.00017L9.00011 5.65017C8.85796 5.57652 8.7002 5.53809 8.54011 5.53809C8.38002 5.53809 8.22226 5.57652 8.08011 5.65017L5.08011 7.38017C4.93185 7.46569 4.80802 7.58783 4.72047 7.73491C4.63293 7.88198 4.5846 8.04907 4.58011 8.22017C4.57527 8.39254 4.61508 8.56323 4.69568 8.71567C4.77628 8.86811 4.89493 8.99712 5.04011 9.09017L8.34011 11.1702L6.60011 12.1702L1.82011 12.7502C1.62796 12.7739 1.44683 12.853 1.29873 12.9777C1.15063 13.1024 1.04192 13.2674 0.985801 13.4527C0.929679 13.6381 0.92856 13.8357 0.982579 14.0216C1.0366 14.2075 1.14343 14.3738 1.29011 14.5002L4.83011 17.5602C5.29616 18.005 5.89301 18.2879 6.53236 18.3672C7.1717 18.4464 7.81957 18.3177 8.38011 18.0002L22.5001 9.93017C22.6205 9.8677 22.7268 9.78141 22.8128 9.67655C22.8987 9.57168 22.9625 9.45043 23.0001 9.32017ZM7.47011 16.3202C7.27802 16.4259 7.05651 16.4655 6.83969 16.433C6.62286 16.4005 6.42274 16.2976 6.27011 16.1402L4.37011 14.5102L7.10011 14.1802C7.23426 14.163 7.36354 14.1188 7.48011 14.0502L10.8401 12.1202C10.9898 12.0338 11.1145 11.9101 11.2022 11.7611C11.2898 11.6121 11.3373 11.443 11.3401 11.2702C11.3422 11.0985 11.3 10.9293 11.2177 10.7786C11.1354 10.628 11.0157 10.5011 10.8701 10.4102L7.57011 8.32017L8.67011 7.69017L13.6701 10.0102C13.8123 10.0838 13.97 10.1222 14.1301 10.1222C14.2902 10.1222 14.448 10.0838 14.5901 10.0102L17.1501 8.53017C17.6747 8.23617 18.2756 8.10662 18.8747 8.15833C19.4739 8.21004 20.0436 8.44063 20.5101 8.82017L7.47011 16.3202Z" fill="black"/>
</svg>
