<svg width="24" height="24" viewBox="0 0 24 24" fill="none" xmlns="http://www.w3.org/2000/svg">
<path d="M21.0001 4.41019L21.7101 3.71019C21.8984 3.52188 22.0042 3.26649 22.0042 3.00019C22.0042 2.73388 21.8984 2.47849 21.7101 2.29019C21.5218 2.10188 21.2664 1.99609 21.0001 1.99609C20.7338 1.99609 20.4784 2.10188 20.2901 2.29019L18.8901 3.70019L16.0601 6.53019L9.7501 12.8302C8.71614 12.148 7.46577 11.8739 6.24126 12.0611C5.01676 12.2482 3.90532 12.8832 3.12228 13.843C2.33925 14.8029 1.94038 16.0192 2.00297 17.2563C2.06556 18.4935 2.58515 19.6633 3.46105 20.5392C4.33696 21.4151 5.50682 21.9347 6.74395 21.9973C7.98109 22.0599 9.19741 21.661 10.1572 20.878C11.1171 20.095 11.7521 18.9835 11.9392 17.759C12.1263 16.5345 11.8523 15.2841 11.1701 14.2502L16.7601 8.65019L18.8801 10.7802C18.9733 10.8728 19.0839 10.9461 19.2055 10.9959C19.327 11.0458 19.4572 11.0712 19.5886 11.0707C19.72 11.0703 19.85 11.0439 19.9713 10.9932C20.0925 10.9425 20.2025 10.8684 20.2951 10.7752C20.3877 10.6819 20.461 10.5714 20.5108 10.4498C20.5607 10.3282 20.5861 10.198 20.5857 10.0666C20.5852 9.93525 20.5588 9.80524 20.5081 9.68402C20.4574 9.56281 20.3833 9.45277 20.2901 9.36019L18.1701 7.24019L19.5901 5.83019L20.2901 6.53019C20.3827 6.62342 20.4927 6.69751 20.6139 6.74823C20.7352 6.79894 20.8652 6.82528 20.9966 6.82574C21.128 6.82621 21.2582 6.80079 21.3797 6.75093C21.5013 6.70108 21.6119 6.62777 21.7051 6.53519C21.7983 6.4426 21.8724 6.33256 21.9231 6.21135C21.9738 6.09013 22.0002 5.96012 22.0007 5.82872C22.0011 5.69733 21.9757 5.56713 21.9258 5.44556C21.876 5.32398 21.8027 5.21342 21.7101 5.12019L21.0001 4.41019ZM7.0001 20.0002C6.40675 20.0002 5.82673 19.8242 5.33339 19.4946C4.84004 19.1649 4.45552 18.6964 4.22846 18.1482C4.00139 17.6001 3.94199 16.9969 4.05774 16.4149C4.1735 15.833 4.45922 15.2984 4.87878 14.8789C5.29833 14.4593 5.83288 14.1736 6.41483 14.0578C6.99677 13.9421 7.59997 14.0015 8.14815 14.2285C8.69632 14.4556 9.16486 14.8401 9.4945 15.3335C9.82415 15.8268 10.0001 16.4068 10.0001 17.0002C10.0001 17.7958 9.68403 18.5589 9.12142 19.1215C8.55881 19.6841 7.79575 20.0002 7.0001 20.0002Z" fill="black"/>
</svg>
