<svg width="24" height="24" viewBox="0 0 24 24" fill="none" xmlns="http://www.w3.org/2000/svg">
<path d="M21.7101 6.53019L20.2901 5.12019L21.7101 3.71019C21.8984 3.52188 22.0042 3.26649 22.0042 3.00019C22.0042 2.73388 21.8984 2.47849 21.7101 2.29019C21.5218 2.10188 21.2664 1.99609 21.0001 1.99609C20.7338 1.99609 20.4784 2.10188 20.2901 2.29019L9.7501 12.8302C8.71614 12.148 7.46577 11.8739 6.24126 12.0611C5.01676 12.2482 3.90532 12.8832 3.12228 13.843C2.33925 14.8029 1.94038 16.0192 2.00297 17.2563C2.06556 18.4935 2.58515 19.6633 3.46105 20.5392C4.33696 21.4151 5.50682 21.9347 6.74395 21.9973C7.98109 22.0599 9.19741 21.661 10.1572 20.878C11.1171 20.095 11.7521 18.9835 11.9392 17.759C12.1263 16.5345 11.8523 15.2841 11.1701 14.2502L16.0501 9.36019L17.4601 10.7802C17.5535 10.8729 17.6644 10.9462 17.7862 10.996C17.908 11.0457 18.0385 11.0709 18.1701 11.0702C18.3017 11.0709 18.4322 11.0457 18.554 10.996C18.6758 10.9462 18.7867 10.8729 18.8801 10.7802C18.9738 10.6872 19.0482 10.5766 19.099 10.4548C19.1498 10.3329 19.1759 10.2022 19.1759 10.0702C19.1759 9.93817 19.1498 9.80747 19.099 9.68561C19.0482 9.56375 18.9738 9.45315 18.8801 9.36019L17.4601 8.00019L18.8801 6.58019L20.2901 8.00019C20.3835 8.09287 20.4944 8.16619 20.6162 8.21596C20.738 8.26572 20.8685 8.29095 21.0001 8.29019C21.1317 8.29095 21.2622 8.26572 21.384 8.21596C21.5058 8.16619 21.6167 8.09287 21.7101 8.00019C21.8116 7.90654 21.8926 7.79289 21.948 7.66639C22.0034 7.53989 22.032 7.40329 22.032 7.26519C22.032 7.12708 22.0034 6.99048 21.948 6.86398C21.8926 6.73748 21.8116 6.62383 21.7101 6.53019ZM7.0001 20.0002C6.40675 20.0002 5.82673 19.8242 5.33339 19.4946C4.84004 19.1649 4.45552 18.6964 4.22846 18.1482C4.00139 17.6001 3.94199 16.9969 4.05774 16.4149C4.1735 15.833 4.45922 15.2984 4.87878 14.8789C5.29833 14.4593 5.83288 14.1736 6.41483 14.0578C6.99677 13.9421 7.59997 14.0015 8.14815 14.2285C8.69632 14.4556 9.16486 14.8401 9.4945 15.3335C9.82415 15.8268 10.0001 16.4068 10.0001 17.0002C10.0001 17.7958 9.68403 18.5589 9.12142 19.1215C8.55881 19.6841 7.79575 20.0002 7.0001 20.0002Z" fill="black"/>
</svg>
