<svg width="24" height="24" viewBox="0 0 24 24" fill="none" xmlns="http://www.w3.org/2000/svg">
<path d="M21.12 16.2296C20.7755 14.9671 19.9498 13.8901 18.82 13.2296L16.71 11.9996L16.23 6.5296C16.2169 6.36983 16.1655 6.21557 16.0802 6.07982C15.9949 5.94407 15.8783 5.83082 15.74 5.7496L12.74 4.0296C12.588 3.94183 12.4156 3.89562 12.24 3.89562C12.0645 3.89562 11.8921 3.94183 11.74 4.0296C11.5881 4.1126 11.4602 4.23365 11.3691 4.3809C11.2779 4.52815 11.2266 4.69654 11.22 4.8696L11.07 8.7696L9.32005 7.7696L6.46005 3.9196C6.34375 3.76529 6.18524 3.64799 6.00368 3.58186C5.82212 3.51574 5.6253 3.50363 5.437 3.547C5.24871 3.59037 5.07702 3.68736 4.94268 3.82625C4.80834 3.96514 4.71712 4.13997 4.68005 4.3296L3.81005 8.9396C3.65854 9.56454 3.71184 10.2216 3.96211 10.814C4.21237 11.4063 4.64635 11.9026 5.20005 12.2296L19.26 20.3396C19.486 20.4725 19.7552 20.5114 20.0096 20.4478C20.264 20.3842 20.4832 20.2233 20.62 19.9996C20.9499 19.436 21.164 18.8123 21.2499 18.165C21.3357 17.5176 21.2916 16.8597 21.12 16.2296ZM19.24 17.9996L6.20005 10.4996C6.01305 10.3855 5.86872 10.2131 5.78922 10.0089C5.70973 9.80475 5.69948 9.58014 5.76005 9.3696L6.22005 6.9296L7.88005 9.1296C7.96066 9.23905 8.06273 9.33092 8.18005 9.3996L11.53 11.3396C11.6794 11.426 11.8486 11.4723 12.0212 11.4739C12.1938 11.4755 12.3638 11.4325 12.5148 11.3489C12.6658 11.2654 12.7926 11.1442 12.8829 10.9971C12.9732 10.85 13.0239 10.6821 13.03 10.5096L13.19 6.6096L14.28 7.2396L14.76 12.7096C14.7743 12.8703 14.8272 13.0252 14.9143 13.161C15.0013 13.2968 15.12 13.4096 15.26 13.4896L17.82 14.9996C18.1531 15.1917 18.4448 15.448 18.6782 15.7535C18.9116 16.059 19.0822 16.4078 19.18 16.7796C19.2916 17.1766 19.3121 17.5936 19.24 17.9996Z" fill="black"/>
</svg>
