<svg width="24" height="24" viewBox="0 0 24 24" fill="none" xmlns="http://www.w3.org/2000/svg">
<path d="M2.50003 8.85964L11.5 14.0596C11.6521 14.1474 11.8245 14.1936 12 14.1936C12.1756 14.1936 12.348 14.1474 12.5 14.0596L21.5 8.85964C21.6512 8.77238 21.7768 8.64709 21.8646 8.49622C21.9523 8.34535 21.999 8.17415 22 7.99964C22.0007 7.82343 21.9549 7.65016 21.8671 7.49738C21.7792 7.34461 21.6526 7.21774 21.5 7.12964L12.5 1.93964C12.348 1.85187 12.1756 1.80566 12 1.80566C11.8245 1.80566 11.6521 1.85187 11.5 1.93964L2.50003 7.12964C2.34743 7.21774 2.22081 7.34461 2.13301 7.49738C2.04521 7.65016 1.99933 7.82343 2.00003 7.99964C2.00108 8.17415 2.04779 8.34535 2.13551 8.49622C2.22322 8.64709 2.34889 8.77238 2.50003 8.85964ZM12 3.99964L19 7.99964L12 11.9996L5.00003 7.99964L12 3.99964ZM20.5 11.1696L12 15.9996L3.50003 11.1296C3.3859 11.0635 3.25981 11.0206 3.12903 11.0035C2.99825 10.9863 2.86537 10.9951 2.73803 11.0295C2.61069 11.0639 2.49141 11.1232 2.38706 11.2038C2.28271 11.2845 2.19536 11.3851 2.13003 11.4996C1.99966 11.7293 1.96539 12.0011 2.03471 12.2559C2.10403 12.5107 2.2713 12.7277 2.50003 12.8596L11.5 18.0596C11.6521 18.1474 11.8245 18.1936 12 18.1936C12.1756 18.1936 12.348 18.1474 12.5 18.0596L21.5 12.8596C21.7288 12.7277 21.896 12.5107 21.9654 12.2559C22.0347 12.0011 22.0004 11.7293 21.87 11.4996C21.8047 11.3851 21.7173 11.2845 21.613 11.2038C21.5087 11.1232 21.3894 11.0639 21.262 11.0295C21.1347 10.9951 21.0018 10.9863 20.871 11.0035C20.7402 11.0206 20.6142 11.0635 20.5 11.1296V11.1696ZM20.5 15.1696L12 19.9996L3.50003 15.1296C3.3859 15.0635 3.25981 15.0206 3.12903 15.0035C2.99825 14.9863 2.86537 14.9951 2.73803 15.0295C2.61069 15.0639 2.49141 15.1232 2.38706 15.2038C2.28271 15.2845 2.19536 15.3851 2.13003 15.4996C1.99966 15.7293 1.96539 16.0011 2.03471 16.2559C2.10403 16.5107 2.2713 16.7277 2.50003 16.8596L11.5 22.0596C11.6521 22.1474 11.8245 22.1936 12 22.1936C12.1756 22.1936 12.348 22.1474 12.5 22.0596L21.5 16.8596C21.7288 16.7277 21.896 16.5107 21.9654 16.2559C22.0347 16.0011 22.0004 15.7293 21.87 15.4996C21.8047 15.3851 21.7173 15.2845 21.613 15.2038C21.5087 15.1232 21.3894 15.0639 21.262 15.0295C21.1347 14.9951 21.0018 14.9863 20.871 15.0035C20.7402 15.0206 20.6142 15.0635 20.5 15.1296V15.1696Z" fill="black"/>
</svg>
