<svg width="24" height="24" viewBox="0 0 24 24" fill="none" xmlns="http://www.w3.org/2000/svg">
<path d="M11.0699 6.12019C11.3731 6.03841 11.6859 5.99805 11.9999 6.00019C13.0608 6.00019 14.0782 6.42161 14.8284 7.17176C15.5785 7.9219 15.9999 8.93932 15.9999 10.0002V11.3402C15.9999 11.6054 16.1053 11.8598 16.2928 12.0473C16.4804 12.2348 16.7347 12.3402 16.9999 12.3402C17.2652 12.3402 17.5195 12.2348 17.707 12.0473C17.8946 11.8598 17.9999 11.6054 17.9999 11.3402V10.0002C17.9985 8.58331 17.4957 7.21265 16.5806 6.13096C15.6654 5.04927 14.397 4.32633 12.9999 4.09019V3.00019C12.9999 2.73497 12.8946 2.48061 12.707 2.29308C12.5195 2.10554 12.2652 2.00019 11.9999 2.00019C11.7347 2.00019 11.4804 2.10554 11.2928 2.29308C11.1053 2.48061 10.9999 2.73497 10.9999 3.00019V4.10019L10.5499 4.18019C10.2927 4.24914 10.0734 4.41747 9.9402 4.64814C9.80705 4.87881 9.77099 5.15293 9.83994 5.41019C9.9089 5.66745 10.0772 5.88678 10.3079 6.01993C10.5386 6.15308 10.8127 6.18914 11.0699 6.12019ZM21.7099 20.2902L3.70994 2.29019C3.52164 2.10188 3.26624 1.99609 2.99994 1.99609C2.73364 1.99609 2.47824 2.10188 2.28994 2.29019C2.10164 2.47849 1.99585 2.73388 1.99585 3.00019C1.99585 3.26649 2.10164 3.52188 2.28994 3.71019L6.40994 7.82019C6.13897 8.51505 5.99993 9.25435 5.99994 10.0002V13.1802C5.41639 13.3865 4.91094 13.7683 4.55288 14.2731C4.19482 14.778 4.00168 15.3812 3.99994 16.0002V18.0002C3.99994 18.2654 4.1053 18.5198 4.29283 18.7073C4.48037 18.8948 4.73472 19.0002 4.99994 19.0002H8.13994C8.37022 19.8476 8.87294 20.5956 9.57054 21.1289C10.2681 21.6622 11.1218 21.9512 11.9999 21.9512C12.878 21.9512 13.7317 21.6622 14.4293 21.1289C15.1269 20.5956 15.6297 19.8476 15.8599 19.0002H17.5899L20.2899 21.7102C20.3829 21.8039 20.4935 21.8783 20.6154 21.9291C20.7372 21.9798 20.8679 22.006 20.9999 22.006C21.132 22.006 21.2627 21.9798 21.3845 21.9291C21.5064 21.8783 21.617 21.8039 21.7099 21.7102C21.8037 21.6172 21.8781 21.5066 21.9288 21.3848C21.9796 21.2629 22.0057 21.1322 22.0057 21.0002C22.0057 20.8682 21.9796 20.7375 21.9288 20.6156C21.8781 20.4937 21.8037 20.3831 21.7099 20.2902ZM7.99994 10.0002C7.98468 9.81717 7.98468 9.6332 7.99994 9.45019L11.5899 13.0002H7.99994V10.0002ZM11.9999 20.0002C11.6509 19.9981 11.3085 19.9047 11.0068 19.7292C10.705 19.5538 10.4545 19.3025 10.2799 19.0002H13.7199C13.5454 19.3025 13.2949 19.5538 12.9931 19.7292C12.6914 19.9047 12.349 19.9981 11.9999 20.0002ZM5.99994 17.0002V16.0002C5.99994 15.735 6.1053 15.4806 6.29283 15.2931C6.48037 15.1055 6.73472 15.0002 6.99994 15.0002H13.5899L15.5899 17.0002H5.99994Z" fill="black"/>
</svg>
