<svg width="24" height="24" viewBox="0 0 24 24" fill="none" xmlns="http://www.w3.org/2000/svg">
<path d="M10.6599 6.00019H16.9999C17.2652 6.00019 17.5195 6.10554 17.707 6.29308C17.8946 6.48062 17.9999 6.73497 17.9999 7.00019V13.3402C17.9999 13.6054 18.1053 13.8598 18.2928 14.0473C18.4804 14.2348 18.7347 14.3402 18.9999 14.3402C19.2652 14.3402 19.5195 14.2348 19.707 14.0473C19.8946 13.8598 19.9999 13.6054 19.9999 13.3402V7.00019C19.9999 6.20454 19.6839 5.44147 19.1213 4.87887C18.5587 4.31626 17.7956 4.00019 16.9999 4.00019H10.6599C10.3947 4.00019 10.1404 4.10554 9.95283 4.29308C9.7653 4.48062 9.65994 4.73497 9.65994 5.00019C9.65994 5.2654 9.7653 5.51976 9.95283 5.70729C10.1404 5.89483 10.3947 6.00019 10.6599 6.00019ZM21.7099 20.2902L3.70994 2.29019C3.52164 2.10188 3.26624 1.99609 2.99994 1.99609C2.73364 1.99609 2.47824 2.10188 2.28994 2.29019C2.10164 2.47849 1.99585 2.73388 1.99585 3.00019C1.99585 3.26649 2.10164 3.52188 2.28994 3.71019L4.28994 5.71019C4.09854 6.11327 3.99947 6.55397 3.99994 7.00019V19.0002C4.00093 19.1976 4.06033 19.3903 4.17066 19.554C4.281 19.7178 4.43732 19.8452 4.61994 19.9202C4.73862 19.9762 4.86876 20.0036 4.99994 20.0002C5.13155 20.0009 5.26201 19.9757 5.38385 19.926C5.50569 19.8762 5.6165 19.8029 5.70994 19.7102L8.40994 17.0002H15.5899L20.2899 21.7102C20.3829 21.8039 20.4935 21.8783 20.6154 21.9291C20.7372 21.9798 20.8679 22.006 20.9999 22.006C21.132 22.006 21.2627 21.9798 21.3845 21.9291C21.5064 21.8783 21.617 21.8039 21.7099 21.7102C21.8037 21.6172 21.8781 21.5066 21.9288 21.3848C21.9796 21.2629 22.0057 21.1322 22.0057 21.0002C22.0057 20.8682 21.9796 20.7375 21.9288 20.6156C21.8781 20.4937 21.8037 20.3831 21.7099 20.2902ZM7.99994 15.0002C7.86833 14.9994 7.73787 15.0246 7.61603 15.0744C7.4942 15.1242 7.38338 15.1975 7.28994 15.2902L5.99994 16.5902V7.41019L13.5899 15.0002H7.99994Z" fill="black"/>
</svg>
