<svg width="24" height="24" viewBox="0 0 24 24" fill="none" xmlns="http://www.w3.org/2000/svg">
<path d="M3.70994 2.29019C3.6167 2.19695 3.50601 2.12299 3.38419 2.07253C3.26237 2.02207 3.1318 1.99609 2.99994 1.99609C2.86808 1.99609 2.73751 2.02207 2.61569 2.07253C2.49387 2.12299 2.38318 2.19695 2.28994 2.29019C2.10164 2.47849 1.99585 2.73388 1.99585 3.00019C1.99585 3.26649 2.10164 3.52188 2.28994 3.71019L5.08994 6.50019H4.99994C4.20429 6.50019 3.44123 6.81626 2.87862 7.37887C2.31601 7.94147 1.99994 8.70454 1.99994 9.50019V17.5002C1.99994 18.2958 2.31601 19.0589 2.87862 19.6215C3.44123 20.1841 4.20429 20.5002 4.99994 20.5002H19.0799L20.2899 21.7202C20.3829 21.8139 20.4935 21.8883 20.6154 21.9391C20.7372 21.9898 20.8679 22.016 20.9999 22.016C21.132 22.016 21.2627 21.9898 21.3845 21.9391C21.5064 21.8883 21.617 21.8139 21.7099 21.7202C21.8037 21.6272 21.8781 21.5166 21.9288 21.3948C21.9796 21.2729 22.0057 21.1422 22.0057 21.0102C22.0057 20.8782 21.9796 20.7475 21.9288 20.6256C21.8781 20.5037 21.8037 20.3931 21.7099 20.3002L3.70994 2.29019ZM10.1999 11.6202L12.8799 14.3002C12.6057 14.433 12.3047 14.5014 11.9999 14.5002C11.4695 14.5002 10.9608 14.2895 10.5857 13.9144C10.2107 13.5393 9.99994 13.0306 9.99994 12.5002C9.99869 12.1954 10.0671 11.8945 10.1999 11.6202ZM4.99994 18.5002C4.73472 18.5002 4.48037 18.3948 4.29283 18.2073C4.1053 18.0198 3.99994 17.7654 3.99994 17.5002V9.50019C3.99994 9.23497 4.1053 8.98062 4.29283 8.79308C4.48037 8.60554 4.73472 8.50019 4.99994 8.50019H7.06994L8.76994 10.1902C8.27457 10.8589 8.00489 11.668 7.99994 12.5002C7.99994 13.5611 8.42137 14.5785 9.17151 15.3286C9.92166 16.0788 10.9391 16.5002 11.9999 16.5002C12.8356 16.4974 13.6484 16.2276 14.3199 15.7302L17.0899 18.5002H4.99994ZM18.9999 6.50019H17.7199L17.4099 5.50019C17.2019 4.9118 16.8156 4.40292 16.3048 4.04444C15.7939 3.68595 15.184 3.4957 14.5599 3.50019H10.1599C9.89472 3.50019 9.64037 3.60554 9.45283 3.79308C9.2653 3.98061 9.15994 4.23497 9.15994 4.50019C9.15994 4.7654 9.2653 5.01976 9.45283 5.20729C9.64037 5.39483 9.89472 5.50019 10.1599 5.50019H14.5599C14.7696 5.49964 14.9741 5.565 15.1446 5.68703C15.315 5.80905 15.4429 5.98156 15.5099 6.18019L16.0499 7.81019C16.1153 8.01067 16.2424 8.18537 16.413 8.30929C16.5836 8.43322 16.7891 8.50003 16.9999 8.50019H18.9999C19.2652 8.50019 19.5195 8.60554 19.707 8.79308C19.8946 8.98062 19.9999 9.23497 19.9999 9.50019V15.3402C19.9999 15.6054 20.1053 15.8598 20.2928 16.0473C20.4804 16.2348 20.7347 16.3402 20.9999 16.3402C21.2652 16.3402 21.5195 16.2348 21.707 16.0473C21.8946 15.8598 21.9999 15.6054 21.9999 15.3402V9.50019C21.9999 8.70454 21.6839 7.94147 21.1213 7.37887C20.5587 6.81626 19.7956 6.50019 18.9999 6.50019Z" fill="black"/>
</svg>
