<svg width="24" height="24" viewBox="0 0 24 24" fill="none" xmlns="http://www.w3.org/2000/svg">
<path d="M7 13.0004C6.80222 13.0004 6.60888 13.0591 6.44443 13.169C6.27998 13.2788 6.15181 13.435 6.07612 13.6178C6.00043 13.8005 5.98063 14.0015 6.01921 14.1955C6.0578 14.3895 6.15304 14.5677 6.29289 14.7075C6.43275 14.8474 6.61093 14.9426 6.80491 14.9812C6.99889 15.0198 7.19996 15 7.38268 14.9243C7.56541 14.8486 7.72159 14.7205 7.83147 14.556C7.94135 14.3916 8 14.1982 8 14.0004C8 13.7352 7.89464 13.4809 7.70711 13.2933C7.51957 13.1058 7.26522 13.0004 7 13.0004ZM19.76 9.11044L18.41 5.05044C18.202 4.46205 17.8157 3.95318 17.3048 3.59469C16.794 3.23621 16.1841 3.04596 15.56 3.05044H9.66C9.39478 3.05044 9.14043 3.15579 8.95289 3.34333C8.76536 3.53087 8.66 3.78522 8.66 4.05044C8.66 4.31565 8.76536 4.57001 8.95289 4.75754C9.14043 4.94508 9.39478 5.05044 9.66 5.05044H15.56C15.7793 5.03971 15.9961 5.10146 16.1768 5.22616C16.3575 5.35087 16.4922 5.53159 16.56 5.74044L17.61 9.00044H15.66C15.3948 9.00044 15.1404 9.1058 14.9529 9.29333C14.7654 9.48087 14.66 9.73522 14.66 10.0004C14.66 10.2657 14.7654 10.52 14.9529 10.7075C15.1404 10.8951 15.3948 11.0004 15.66 11.0004H19C19.2652 11.0004 19.5196 11.1058 19.7071 11.2933C19.8946 11.4809 20 11.7352 20 12.0004V15.3404C20 15.6057 20.1054 15.86 20.2929 16.0475C20.4804 16.2351 20.7348 16.3404 21 16.3404C21.2652 16.3404 21.5196 16.2351 21.7071 16.0475C21.8946 15.86 22 15.6057 22 15.3404V12.0004C21.9973 11.3392 21.7763 10.6974 21.3712 10.1747C20.9661 9.6521 20.3997 9.27795 19.76 9.11044ZM3.76 2.29044C3.5717 2.0955 3.31367 1.98336 3.04268 1.97867C2.77169 1.97398 2.50993 2.07713 2.315 2.26544C2.12007 2.45374 2.00792 2.71177 2.00323 2.98276C1.99854 3.25375 2.1017 3.5155 2.29 3.71044L5.11 6.52044L4.24 9.11044C3.60033 9.27795 3.03392 9.6521 2.62883 10.1747C2.22374 10.6974 2.00268 11.3392 2 12.0004V16.0004C2.00174 16.6194 2.19488 17.2226 2.55294 17.7275C2.911 18.2324 3.41645 18.6141 4 18.8204V20.0004C4 20.2657 4.10536 20.52 4.29289 20.7075C4.48043 20.8951 4.73478 21.0004 5 21.0004C5.26522 21.0004 5.51957 20.8951 5.70711 20.7075C5.89464 20.52 6 20.2657 6 20.0004V19.0004H17.59L18 19.4104V20.0004C18 20.2657 18.1054 20.52 18.2929 20.7075C18.4804 20.8951 18.7348 21.0004 19 21.0004C19.1622 20.9989 19.321 20.954 19.46 20.8704L20.29 21.7104C20.383 21.8042 20.4936 21.8786 20.6154 21.9293C20.7373 21.9801 20.868 22.0062 21 22.0062C21.132 22.0062 21.2627 21.9801 21.3846 21.9293C21.5064 21.8786 21.617 21.8042 21.71 21.7104C21.8037 21.6175 21.8781 21.5069 21.9289 21.385C21.9797 21.2632 22.0058 21.1325 22.0058 21.0004C22.0058 20.8684 21.9797 20.7377 21.9289 20.6159C21.8781 20.494 21.8037 20.3834 21.71 20.2904L3.76 2.29044ZM6.76 8.10044L7.66 9.00044H6.39L6.76 8.10044ZM5 17.0004C4.73478 17.0004 4.48043 16.8951 4.29289 16.7075C4.10536 16.52 4 16.2657 4 16.0004V12.0004C4 11.7352 4.10536 11.4809 4.29289 11.2933C4.48043 11.1058 4.73478 11.0004 5 11.0004H9.59L11.59 13.0004H11C10.7348 13.0004 10.4804 13.1058 10.2929 13.2933C10.1054 13.4809 10 13.7352 10 14.0004C10 14.2657 10.1054 14.52 10.2929 14.7075C10.4804 14.8951 10.7348 15.0004 11 15.0004H13C13.1622 14.9989 13.321 14.954 13.46 14.8704L15.59 17.0004H5Z" fill="black"/>
</svg>
