<svg width="24" height="24" viewBox="0 0 24 24" fill="none" xmlns="http://www.w3.org/2000/svg">
<path d="M19.7099 16.2902L5.70994 2.29019C5.52164 2.10188 5.26624 1.99609 4.99994 1.99609C4.73364 1.99609 4.47824 2.10188 4.28994 2.29019C4.10164 2.47849 3.99585 2.73388 3.99585 3.00019C3.99585 3.26649 4.10164 3.52188 4.28994 3.71019L6.58994 6.00019H4.99994C4.81145 6.00072 4.62696 6.05451 4.46772 6.15536C4.30848 6.25621 4.18099 6.40001 4.09994 6.57019C4.02968 6.73258 4.00377 6.91071 4.02485 7.0864C4.04594 7.26208 4.11326 7.42902 4.21994 7.57019L10.9999 16.1002V20.0002H6.74994C6.48472 20.0002 6.23037 20.1055 6.04283 20.2931C5.8553 20.4806 5.74994 20.735 5.74994 21.0002C5.74994 21.2654 5.8553 21.5198 6.04283 21.7073C6.23037 21.8948 6.48472 22.0002 6.74994 22.0002H17.2499C17.5152 22.0002 17.7695 21.8948 17.957 21.7073C18.1446 21.5198 18.2499 21.2654 18.2499 21.0002C18.2499 20.735 18.1446 20.4806 17.957 20.2931C17.7695 20.1055 17.5152 20.0002 17.2499 20.0002H12.9999V16.1002L14.6399 14.1002L18.2899 17.7502C18.3829 17.8439 18.4935 17.9183 18.6154 17.9691C18.7372 18.0198 18.8679 18.046 18.9999 18.046C19.132 18.046 19.2627 18.0198 19.3845 17.9691C19.5064 17.9183 19.617 17.8439 19.7099 17.7502C19.8099 17.6566 19.8895 17.5436 19.9439 17.418C19.9984 17.2925 20.0265 17.1571 20.0265 17.0202C20.0265 16.8833 19.9984 16.7479 19.9439 16.6223C19.8895 16.4968 19.8099 16.3837 19.7099 16.2902ZM7.07994 8.00019H8.58994L10.4799 9.89019H8.58994L7.07994 8.00019ZM11.9999 14.1502L10.1899 11.8902H12.4799L13.2199 12.6302L11.9999 14.1502ZM14.6599 8.00019H16.9199L16.2899 8.79019C16.1253 8.99618 16.0487 9.25886 16.0768 9.52106C16.1049 9.78326 16.2354 10.0237 16.4399 10.1902C16.6186 10.3335 16.8409 10.4111 17.0699 10.4102C17.2193 10.4107 17.3669 10.3777 17.5019 10.3137C17.6369 10.2497 17.7558 10.1562 17.8499 10.0402L19.7799 7.62019C19.8866 7.47902 19.9539 7.31208 19.975 7.1364C19.9961 6.96071 19.9702 6.78258 19.8999 6.62019C19.8263 6.44066 19.7019 6.28645 19.5421 6.17636C19.3823 6.06627 19.1939 6.00506 18.9999 6.00019H14.6599C14.3947 6.00019 14.1404 6.10554 13.9528 6.29308C13.7653 6.48062 13.6599 6.73497 13.6599 7.00019C13.6599 7.2654 13.7653 7.51976 13.9528 7.70729C14.1404 7.89483 14.3947 8.00019 14.6599 8.00019Z" fill="black"/>
</svg>
