<svg width="24" height="24" viewBox="0 0 24 24" fill="none" xmlns="http://www.w3.org/2000/svg">
<path d="M21.9999 10.9402C21.9895 10.8483 21.9694 10.7578 21.9399 10.6702V10.5802C21.8919 10.4774 21.8277 10.3828 21.7499 10.3002L15.7499 4.30019C15.6673 4.2224 15.5728 4.15827 15.4699 4.11019H15.3799C15.2784 4.05193 15.1662 4.01453 15.0499 4.00019H10.6599C10.3947 4.00019 10.1404 4.10554 9.95283 4.29308C9.7653 4.48062 9.65994 4.73497 9.65994 5.00019C9.65994 5.2654 9.7653 5.51976 9.95283 5.70729C10.1404 5.89483 10.3947 6.00019 10.6599 6.00019H13.9999V9.00019C13.9999 9.79584 14.316 10.5589 14.8786 11.1215C15.4412 11.6841 16.2043 12.0002 16.9999 12.0002H19.9999V15.3402C19.9999 15.6054 20.1053 15.8598 20.2928 16.0473C20.4804 16.2348 20.7347 16.3402 20.9999 16.3402C21.2652 16.3402 21.5195 16.2348 21.707 16.0473C21.8946 15.8598 21.9999 15.6054 21.9999 15.3402V11.0002C21.9999 11.0002 21.9999 11.0002 21.9999 10.9402ZM16.9999 10.0002C16.7347 10.0002 16.4804 9.89483 16.2928 9.70729C16.1053 9.51976 15.9999 9.2654 15.9999 9.00019V7.41019L18.5899 10.0002H16.9999ZM3.70994 2.29019C3.6167 2.19695 3.50601 2.12299 3.38419 2.07253C3.26237 2.02207 3.1318 1.99609 2.99994 1.99609C2.86808 1.99609 2.73751 2.02207 2.61569 2.07253C2.49387 2.12299 2.38318 2.19695 2.28994 2.29019C2.10164 2.47849 1.99585 2.73388 1.99585 3.00019C1.99585 3.26649 2.10164 3.52188 2.28994 3.71019L3.19994 4.61019C2.8287 4.88861 2.52711 5.24936 2.31889 5.66407C2.11067 6.07878 2.00149 6.53614 1.99994 7.00019V17.0002C1.99994 17.7958 2.31601 18.5589 2.87862 19.1215C3.44123 19.6841 4.20429 20.0002 4.99994 20.0002H18.5899L20.2899 21.7102C20.3829 21.8039 20.4935 21.8783 20.6154 21.9291C20.7372 21.9798 20.8679 22.006 20.9999 22.006C21.132 22.006 21.2627 21.9798 21.3845 21.9291C21.5064 21.8783 21.617 21.8039 21.7099 21.7102C21.8037 21.6172 21.8781 21.5066 21.9288 21.3848C21.9796 21.2629 22.0057 21.1322 22.0057 21.0002C22.0057 20.8682 21.9796 20.7375 21.9288 20.6156C21.8781 20.4937 21.8037 20.3831 21.7099 20.2902L3.70994 2.29019ZM4.99994 18.0002C4.73472 18.0002 4.48037 17.8948 4.29283 17.7073C4.1053 17.5198 3.99994 17.2654 3.99994 17.0002V7.00019C4.00207 6.79638 4.06642 6.5981 4.18438 6.43188C4.30234 6.26567 4.46827 6.13947 4.65994 6.07019L16.5899 18.0002H4.99994Z" fill="black"/>
</svg>
