<svg width="24" height="24" viewBox="0 0 24 24" fill="none" xmlns="http://www.w3.org/2000/svg">
<path d="M19.2199 6.00019H12.6599C12.3947 6.00019 12.1404 6.10554 11.9528 6.29308C11.7653 6.48062 11.6599 6.73497 11.6599 7.00019C11.6599 7.2654 11.7653 7.51976 11.9528 7.70729C12.1404 7.89483 12.3947 8.00019 12.6599 8.00019H19.2199C19.4268 8.00019 19.6252 8.08236 19.7715 8.22864C19.9178 8.37492 19.9999 8.57332 19.9999 8.78019V9.56019H16.2199C15.9547 9.56019 15.7004 9.66554 15.5128 9.85308C15.3253 10.0406 15.2199 10.295 15.2199 10.5602C15.2199 10.8254 15.3253 11.0798 15.5128 11.2673C15.7004 11.4548 15.9547 11.5602 16.2199 11.5602H18.5899L17.8899 12.2502C17.7962 12.3431 17.7218 12.4537 17.671 12.5756C17.6203 12.6975 17.5941 12.8282 17.5941 12.9602C17.5941 13.0922 17.6203 13.2229 17.671 13.3448C17.7218 13.4666 17.7962 13.5772 17.8899 13.6702C17.9829 13.7639 18.0935 13.8383 18.2154 13.8891C18.3372 13.9398 18.4679 13.966 18.5999 13.966C18.732 13.966 18.8627 13.9398 18.9845 13.8891C19.1064 13.8383 19.217 13.7639 19.3099 13.6702L21.1899 11.7902C21.42 11.561 21.6034 11.2893 21.7299 10.9902V10.8902C21.8958 10.5571 21.9879 10.1921 21.9999 9.82019V8.82019C22.0039 8.45212 21.935 8.08691 21.7972 7.7456C21.6594 7.40428 21.4554 7.09361 21.197 6.83148C20.9386 6.56935 20.6308 6.36095 20.2915 6.21828C19.9522 6.0756 19.588 6.00148 19.2199 6.00019ZM3.70994 2.29019C3.6167 2.19695 3.50601 2.12299 3.38419 2.07253C3.26237 2.02207 3.1318 1.99609 2.99994 1.99609C2.86808 1.99609 2.73751 2.02207 2.61569 2.07253C2.49387 2.12299 2.38318 2.19695 2.28994 2.29019C2.10164 2.47849 1.99585 2.73388 1.99585 3.00019C1.99585 3.26649 2.10164 3.52188 2.28994 3.71019L5.13994 6.55019C4.78576 6.80395 4.49746 7.13879 4.29913 7.52674C4.10081 7.9147 3.99822 8.34448 3.99994 8.78019V9.78019C4.00023 10.1598 4.08207 10.5349 4.23994 10.8802V10.9402C4.36755 11.2417 4.55074 11.5164 4.77994 11.7502L10.1899 17.1502V21.0002C10.1896 21.1701 10.2326 21.3374 10.3148 21.4861C10.397 21.6348 10.5158 21.7601 10.6599 21.8502C10.8191 21.9488 11.0027 22.0008 11.1899 22.0002C11.3465 21.9992 11.5006 21.9616 11.6399 21.8902L15.1999 20.1102C15.3649 20.0271 15.5035 19.8999 15.6006 19.7429C15.6977 19.5858 15.7494 19.4049 15.7499 19.2202V17.2202L20.2599 21.7402C20.3529 21.8339 20.4635 21.9083 20.5854 21.9591C20.7072 22.0098 20.8379 22.036 20.9699 22.036C21.102 22.036 21.2327 22.0098 21.3545 21.9591C21.4764 21.9083 21.587 21.8339 21.6799 21.7402C21.7737 21.6472 21.8481 21.5366 21.8988 21.4148C21.9496 21.2929 21.9757 21.1622 21.9757 21.0302C21.9757 20.8982 21.9496 20.7675 21.8988 20.6456C21.8481 20.5238 21.7737 20.4131 21.6799 20.3202L3.70994 2.29019ZM5.99994 8.78019C5.99873 8.62323 6.04615 8.46976 6.13568 8.34084C6.22521 8.21192 6.35245 8.11388 6.49994 8.06019L6.58994 8.00019L8.14994 9.56019H5.99994V8.78019ZM14.0699 16.0702C13.9773 16.1636 13.9039 16.2744 13.8542 16.3963C13.8044 16.5181 13.7792 16.6486 13.7799 16.7802V18.6002L12.2199 19.3802V16.7802C12.2207 16.6486 12.1955 16.5181 12.1457 16.3963C12.0959 16.2744 12.0226 16.1636 11.9299 16.0702L7.40994 11.5602H10.1499L14.3699 15.7802L14.0699 16.0702Z" fill="black"/>
</svg>
