<svg width="24" height="24" viewBox="0 0 24 24" fill="none" xmlns="http://www.w3.org/2000/svg">
<path d="M21.7099 20.2902L20.1099 18.6902L3.70994 2.29019C3.6167 2.19695 3.50601 2.12299 3.38419 2.07253C3.26237 2.02207 3.1318 1.99609 2.99994 1.99609C2.86808 1.99609 2.73751 2.02207 2.61569 2.07253C2.49387 2.12299 2.38318 2.19695 2.28994 2.29019C2.10164 2.47849 1.99585 2.73388 1.99585 3.00019C1.99585 3.26649 2.10164 3.52188 2.28994 3.71019L3.68994 5.10019C3.24707 5.63463 3.00322 6.3061 2.99994 7.00019V18.0002C2.99994 18.7958 3.31601 19.5589 3.87862 20.1215C4.44123 20.6841 5.20429 21.0002 5.99994 21.0002H17.9999C18.4469 20.9975 18.8877 20.895 19.2899 20.7002L20.2899 21.7002C20.3829 21.7939 20.4935 21.8683 20.6154 21.9191C20.7372 21.9698 20.8679 21.996 20.9999 21.996C21.132 21.996 21.2627 21.9698 21.3845 21.9191C21.5064 21.8683 21.617 21.7939 21.7099 21.7002C21.8962 21.5128 22.0007 21.2594 22.0007 20.9952C22.0007 20.731 21.8962 20.4775 21.7099 20.2902ZM5.99994 19.0002C5.73472 19.0002 5.48037 18.8948 5.29283 18.7073C5.1053 18.5198 4.99994 18.2654 4.99994 18.0002V7.00019C5.00238 6.83944 5.04355 6.68164 5.11994 6.54019L17.5899 19.0002H5.99994ZM10.6199 6.00019C10.818 6.011 11.0084 6.08047 11.1669 6.19978C11.3254 6.31908 11.4448 6.48283 11.5099 6.67019L12.0499 8.31019C12.1153 8.51067 12.2424 8.68537 12.413 8.80929C12.5836 8.93322 12.7891 9.00003 12.9999 9.00019H17.9999C18.2652 9.00019 18.5195 9.10554 18.707 9.29308C18.8946 9.48062 18.9999 9.73497 18.9999 10.0002V14.3402C18.9999 14.6054 19.1053 14.8598 19.2928 15.0473C19.4804 15.2348 19.7347 15.3402 19.9999 15.3402C20.2652 15.3402 20.5195 15.2348 20.707 15.0473C20.8946 14.8598 20.9999 14.6054 20.9999 14.3402V10.0002C20.9999 9.20454 20.6839 8.44147 20.1213 7.87887C19.5587 7.31626 18.7956 7.00019 17.9999 7.00019H13.7199L13.3999 6.00019C13.2022 5.43847 12.8417 4.94831 12.3644 4.59215C11.8872 4.23598 11.3147 4.02991 10.7199 4.00019C10.5886 3.99362 10.4573 4.01298 10.3335 4.05717C10.2096 4.10136 10.0957 4.16951 9.99819 4.25772C9.90069 4.34594 9.82152 4.4525 9.7652 4.57131C9.70888 4.69012 9.67651 4.81886 9.66994 4.95019C9.66338 5.08151 9.68274 5.21284 9.72693 5.33668C9.77112 5.46051 9.83926 5.57444 9.92748 5.67194C10.0157 5.76944 10.1223 5.84861 10.2411 5.90493C10.3599 5.96125 10.4886 5.99362 10.6199 6.00019Z" fill="black"/>
</svg>
