<svg width="24" height="24" viewBox="0 0 24 24" fill="none" xmlns="http://www.w3.org/2000/svg">
<path d="M18.9999 6.00019H15.9999V5.00019C15.9999 4.46975 15.7892 3.96104 15.4142 3.58597C15.0391 3.2109 14.5304 3.00019 13.9999 3.00019H9.99994C9.79245 2.99926 9.58627 3.03306 9.38994 3.10019C9.2641 3.14091 9.14758 3.2062 9.04715 3.29226C8.94671 3.37833 8.86434 3.48346 8.80482 3.60158C8.7453 3.7197 8.7098 3.84845 8.70038 3.98039C8.69096 4.11232 8.7078 4.24481 8.74994 4.37019C8.83442 4.61787 9.01264 4.82258 9.24633 4.94036C9.48003 5.05814 9.75059 5.07962 9.99994 5.00019H13.9999V6.00019H12.6599C12.3947 6.00019 12.1404 6.10554 11.9528 6.29308C11.7653 6.48062 11.6599 6.73497 11.6599 7.00019C11.6599 7.2654 11.7653 7.51976 11.9528 7.70729C12.1404 7.89483 12.3947 8.00019 12.6599 8.00019H18.9999C19.2652 8.00019 19.5195 8.10554 19.707 8.29308C19.8946 8.48062 19.9999 8.73497 19.9999 9.00019V10.2802L17.4299 11.1402C17.305 11.1819 17.1895 11.248 17.0902 11.3345C16.9908 11.421 16.9095 11.5262 16.851 11.6443C16.7925 11.7623 16.7578 11.8907 16.7491 12.0221C16.7403 12.1536 16.7576 12.2854 16.7999 12.4102C16.867 12.6088 16.9948 12.7813 17.1653 12.9033C17.3358 13.0254 17.5403 13.0907 17.7499 13.0902C17.8584 13.0882 17.9661 13.0714 18.0699 13.0402L19.9999 12.3902V15.3402C19.9999 15.6054 20.1053 15.8598 20.2928 16.0473C20.4804 16.2348 20.7347 16.3402 20.9999 16.3402C21.2652 16.3402 21.5195 16.2348 21.707 16.0473C21.8946 15.8598 21.9999 15.6054 21.9999 15.3402V9.00019C21.9999 8.20454 21.6839 7.44147 21.1213 6.87887C20.5587 6.31626 19.7956 6.00019 18.9999 6.00019ZM3.70994 2.29019C3.6167 2.19695 3.50601 2.12299 3.38419 2.07253C3.26237 2.02207 3.1318 1.99609 2.99994 1.99609C2.86808 1.99609 2.73751 2.02207 2.61569 2.07253C2.49387 2.12299 2.38318 2.19695 2.28994 2.29019C2.10164 2.47849 1.99585 2.73388 1.99585 3.00019C1.99585 3.26649 2.10164 3.52188 2.28994 3.71019L4.61994 6.00019C3.89184 6.09314 3.22308 6.4498 2.74025 7.00265C2.25742 7.55551 1.99403 8.2662 1.99994 9.00019V18.0002C1.99994 18.7958 2.31601 19.5589 2.87862 20.1215C3.44123 20.6841 4.20429 21.0002 4.99994 21.0002H18.9999C19.178 20.9956 19.3554 20.9755 19.5299 20.9402L20.2899 21.7102C20.3829 21.8039 20.4935 21.8783 20.6154 21.9291C20.7372 21.9798 20.8679 22.006 20.9999 22.006C21.132 22.006 21.2627 21.9798 21.3845 21.9291C21.5064 21.8783 21.617 21.8039 21.7099 21.7102C21.8037 21.6172 21.8781 21.5066 21.9288 21.3848C21.9796 21.2629 22.0057 21.1322 22.0057 21.0002C22.0057 20.8682 21.9796 20.7375 21.9288 20.6156C21.8781 20.4937 21.8037 20.3831 21.7099 20.2902L3.70994 2.29019ZM3.99994 9.00019C3.99994 8.73497 4.1053 8.48062 4.29283 8.29308C4.48037 8.10554 4.73472 8.00019 4.99994 8.00019H6.58994L10.5899 12.0002H9.15994L3.99994 10.2802V9.00019ZM4.99994 19.0002C4.73472 19.0002 4.48037 18.8948 4.29283 18.7073C4.1053 18.5198 3.99994 18.2654 3.99994 18.0002V12.3902L8.67994 14.0002C8.78612 14.0146 8.89376 14.0146 8.99994 14.0002H12.5899L17.5899 19.0002H4.99994Z" fill="black"/>
</svg>
