<svg width="24" height="24" viewBox="0 0 24 24" fill="none" xmlns="http://www.w3.org/2000/svg">
<path d="M21.7099 20.2902L20.7799 19.3602L20.6899 19.2602L20.6299 19.1902L20.1299 18.6902L19.9999 18.6202L14.8199 13.4202L14.7299 13.3402L11.5299 10.1302L11.4299 10.0002L3.70994 2.29019C3.6167 2.19695 3.50601 2.12299 3.38419 2.07253C3.26237 2.02207 3.1318 1.99609 2.99994 1.99609C2.86808 1.99609 2.73751 2.02207 2.61569 2.07253C2.49387 2.12299 2.38318 2.19695 2.28994 2.29019C2.10164 2.47849 1.99585 2.73388 1.99585 3.00019C1.99585 3.26649 2.10164 3.52188 2.28994 3.71019L3.28994 4.71019C3.09854 5.11327 2.99947 5.55397 2.99994 6.00019V18.0002C2.99994 18.7958 3.31601 19.5589 3.87862 20.1215C4.44123 20.6841 5.20429 21.0002 5.99994 21.0002H17.9999C18.4414 20.9949 18.8757 20.8888 19.2699 20.6902C19.2699 20.6902 19.2699 20.6902 19.3199 20.6902L20.2699 21.6902C20.3629 21.7839 20.4735 21.8583 20.5954 21.9091C20.7172 21.9598 20.8479 21.986 20.9799 21.986C21.112 21.986 21.2427 21.9598 21.3645 21.9091C21.4864 21.8583 21.597 21.7839 21.6899 21.6902C21.8759 21.5059 21.9821 21.256 21.9858 20.9943C21.9896 20.7325 21.8905 20.4797 21.7099 20.2902ZM4.99994 6.41019L8.23994 9.65019C7.99446 9.77675 7.76875 9.93846 7.56994 10.1302L4.99994 12.7102V6.41019ZM5.99994 19.0002C5.73472 19.0002 5.48037 18.8948 5.29283 18.7073C5.1053 18.5198 4.99994 18.2654 4.99994 18.0002V15.5402L8.99994 11.5402C9.14963 11.4017 9.34604 11.3248 9.54994 11.3248C9.75385 11.3248 9.95025 11.4017 10.0999 11.5402L17.5899 19.0002H5.99994ZM9.65994 5.00019H17.9999C18.2652 5.00019 18.5195 5.10554 18.707 5.29308C18.8946 5.48062 18.9999 5.73497 18.9999 6.00019V11.9402C18.9067 11.8469 18.796 11.773 18.6742 11.7225C18.5524 11.6721 18.4218 11.6461 18.2899 11.6461C18.1581 11.6461 18.0275 11.6721 17.9057 11.7225C17.7839 11.773 17.6732 11.8469 17.5799 11.9402C17.4867 12.0334 17.4127 12.1441 17.3623 12.2659C17.3118 12.3878 17.2858 12.5183 17.2858 12.6502C17.2858 12.782 17.3118 12.9126 17.3623 13.0344C17.4127 13.1563 17.4867 13.2669 17.5799 13.3602L19.3199 15.1002C19.4129 15.1939 19.5235 15.2683 19.6454 15.3191C19.7672 15.3698 19.8979 15.396 20.0299 15.396C20.162 15.396 20.2927 15.3698 20.4145 15.3191C20.5364 15.2683 20.647 15.1939 20.7399 15.1002C20.8338 15.0056 20.9078 14.8931 20.9576 14.7695C21.0075 14.6458 21.032 14.5135 21.0299 14.3802V6.00019C21.0299 5.20454 20.7139 4.44147 20.1513 3.87887C19.5887 3.31626 18.8256 3.00019 18.0299 3.00019H9.65994C9.39472 3.00019 9.14037 3.10554 8.95283 3.29308C8.7653 3.48061 8.65994 3.73497 8.65994 4.00019C8.65994 4.2654 8.7653 4.51976 8.95283 4.70729C9.14037 4.89483 9.39472 5.00019 9.65994 5.00019Z" fill="black"/>
</svg>
