<svg width="24" height="24" viewBox="0 0 24 24" fill="none" xmlns="http://www.w3.org/2000/svg">
<path d="M10.8399 5.38019C11.2243 5.10639 11.693 4.97729 12.1633 5.01572C12.6336 5.05415 13.0752 5.25763 13.4099 5.59019C13.7855 5.96354 13.9977 6.47061 13.9999 7.00019V10.0002C13.9999 10.2654 14.1053 10.5198 14.2928 10.7073C14.4804 10.8948 14.7347 11.0002 14.9999 11.0002H15.9999C16.2652 11.0002 16.5195 11.1055 16.707 11.2931C16.8946 11.4806 16.9999 11.735 16.9999 12.0002V12.3402C16.9999 12.6054 17.1053 12.8598 17.2928 13.0473C17.4804 13.2348 17.7347 13.3402 17.9999 13.3402C18.2652 13.3402 18.5195 13.2348 18.707 13.0473C18.8946 12.8598 18.9999 12.6054 18.9999 12.3402V12.0002C18.9999 11.2045 18.6839 10.4415 18.1213 9.87886C17.5587 9.31626 16.7956 9.00019 15.9999 9.00019V7.00019C16.0004 6.47474 15.8972 5.95437 15.6965 5.46879C15.4957 4.98321 15.2013 4.54194 14.8299 4.17019C14.1476 3.5075 13.2542 3.10545 12.3057 3.03417C11.3571 2.9629 10.4137 3.22692 9.63994 3.78019C9.53488 3.85898 9.44637 3.95769 9.37947 4.07069C9.31256 4.18369 9.26856 4.30876 9.24999 4.43876C9.23142 4.56877 9.23864 4.70115 9.27123 4.82837C9.30382 4.95558 9.36115 5.07513 9.43994 5.18019C9.51873 5.28524 9.61745 5.37375 9.73045 5.44066C9.84345 5.50757 9.96852 5.55156 10.0985 5.57014C10.2285 5.58871 10.3609 5.58149 10.4881 5.5489C10.6153 5.51631 10.7349 5.45898 10.8399 5.38019ZM21.7099 20.2902L3.70994 2.29019C3.52164 2.10188 3.26624 1.99609 2.99994 1.99609C2.73364 1.99609 2.47824 2.10188 2.28994 2.29019C2.10164 2.47849 1.99585 2.73388 1.99585 3.00019C1.99585 3.26649 2.10164 3.52188 2.28994 3.71019L7.61994 9.00019C6.89184 9.09314 6.22308 9.4498 5.74025 10.0027C5.25742 10.5555 4.99403 11.2662 4.99994 12.0002V18.0002C4.99994 18.7958 5.31601 19.5589 5.87862 20.1215C6.44123 20.6841 7.20429 21.0002 7.99994 21.0002H15.9999C16.464 20.9986 16.9213 20.8895 17.3361 20.6812C17.7508 20.473 18.1115 20.1714 18.3899 19.8002L20.2899 21.7102C20.3829 21.8039 20.4935 21.8783 20.6154 21.9291C20.7372 21.9798 20.8679 22.006 20.9999 22.006C21.132 22.006 21.2627 21.9798 21.3845 21.9291C21.5064 21.8783 21.617 21.8039 21.7099 21.7102C21.8037 21.6172 21.8781 21.5066 21.9288 21.3848C21.9796 21.2629 22.0057 21.1322 22.0057 21.0002C22.0057 20.8682 21.9796 20.7375 21.9288 20.6156C21.8781 20.4937 21.8037 20.3831 21.7099 20.2902ZM15.9999 19.0002H7.99994C7.73472 19.0002 7.48037 18.8948 7.29283 18.7073C7.1053 18.5198 6.99994 18.2654 6.99994 18.0002V12.0002C6.99994 11.735 7.1053 11.4806 7.29283 11.2931C7.48037 11.1055 7.73472 11.0002 7.99994 11.0002H9.58994L11.6599 13.0702C11.4683 13.1395 11.3023 13.2657 11.1844 13.4319C11.0664 13.5981 11.0021 13.7964 10.9999 14.0002V16.0002C10.9999 16.2654 11.1053 16.5198 11.2928 16.7073C11.4804 16.8948 11.7347 17.0002 11.9999 17.0002C12.2652 17.0002 12.5195 16.8948 12.707 16.7073C12.8946 16.5198 12.9999 16.2654 12.9999 16.0002V14.4102L16.9299 18.3402C16.8607 18.5319 16.7345 18.6978 16.5682 18.8157C16.402 18.9337 16.2037 18.9981 15.9999 19.0002Z" fill="black"/>
</svg>
