<svg width="24" height="24" viewBox="0 0 24 24" fill="none" xmlns="http://www.w3.org/2000/svg">
<path d="M10.6301 5.49021C11.6231 5.25811 12.6589 5.28295 13.6396 5.56237C14.6204 5.84178 15.5137 6.36657 16.2353 7.08716C16.9569 7.80776 17.483 8.70038 17.7637 9.68075C18.0445 10.6611 18.0708 11.6969 17.8401 12.6902C17.8088 12.8183 17.8032 12.9512 17.8235 13.0815C17.8438 13.2117 17.8897 13.3367 17.9584 13.4491C18.0272 13.5616 18.1175 13.6593 18.2242 13.7367C18.3309 13.8141 18.4518 13.8697 18.5801 13.9002C18.6564 13.91 18.7337 13.91 18.8101 13.9002C19.0385 13.9069 19.2623 13.8351 19.4443 13.6968C19.6262 13.5585 19.7553 13.3621 19.8101 13.1402C20.1216 11.8147 20.0896 10.4317 19.7172 9.12197C19.3448 7.81228 18.6443 6.61931 17.682 5.65601C16.7197 4.69272 15.5275 3.99097 14.2182 3.61722C12.9089 3.24346 11.5259 3.21008 10.2001 3.52021C9.93484 3.58121 9.70472 3.74507 9.56032 3.97574C9.41592 4.20641 9.36906 4.485 9.43006 4.75021C9.49106 5.01543 9.65492 5.24555 9.88559 5.38995C10.1163 5.53436 10.3948 5.58121 10.6601 5.52021L10.6301 5.49021ZM21.7101 20.0702L17.4401 15.8002L3.71006 2.07021C3.6171 1.97648 3.5065 1.90209 3.38464 1.85132C3.26278 1.80055 3.13207 1.77441 3.00006 1.77441C2.86805 1.77441 2.73734 1.80055 2.61548 1.85132C2.49362 1.90209 2.38302 1.97648 2.29006 2.07021C2.10381 2.25757 1.99927 2.51103 1.99927 2.77521C1.99927 3.0394 2.10381 3.29285 2.29006 3.48021L5.50006 6.69021C4.39683 8.22999 3.87575 10.1113 4.02957 11.9992C4.18339 13.8872 5.00213 15.6593 6.34006 17.0002L11.2901 21.9502C11.383 22.0439 11.4936 22.1183 11.6155 22.1691C11.7373 22.2199 11.868 22.246 12.0001 22.246C12.1321 22.246 12.2628 22.2199 12.3846 22.1691C12.5065 22.1183 12.6171 22.0439 12.7101 21.9502L16.7101 17.9502L20.2701 21.5102C20.457 21.6985 20.7112 21.8048 20.9765 21.8058C21.2419 21.8067 21.4968 21.7022 21.6851 21.5152C21.8734 21.3282 21.9797 21.0741 21.9806 20.8087C21.9816 20.5434 21.877 20.2885 21.6901 20.1002L21.7101 20.0702ZM12.1201 13.3102C11.8393 13.3282 11.5579 13.2867 11.2942 13.1885C11.0306 13.0902 10.7906 12.9375 10.5901 12.7402C10.3892 12.5414 10.2327 12.3022 10.131 12.0385C10.0293 11.7747 9.9847 11.4924 10.0001 11.2102L12.1201 13.3102ZM12.0001 19.8102L7.76006 15.5702C6.80044 14.6066 6.19665 13.3455 6.04767 11.9938C5.89868 10.642 6.21334 9.27971 6.94006 8.13021L8.41006 9.60021C8.05147 10.3443 7.93201 11.1811 8.06809 11.9958C8.20416 12.8105 8.58911 13.5631 9.17006 14.1502C9.54099 14.5234 9.98189 14.8197 10.4675 15.0221C10.9531 15.2246 11.4739 15.3293 12.0001 15.3302C12.6005 15.3275 13.1923 15.1872 13.7301 14.9202L15.3101 16.5002L12.0001 19.8102Z" fill="black"/>
</svg>
