<svg width="24" height="24" viewBox="0 0 24 24" fill="none" xmlns="http://www.w3.org/2000/svg">
<path d="M10.1899 5.23019C10.7809 5.07621 11.3892 4.99891 11.9999 5.00019C13.8565 5.00019 15.6369 5.73768 16.9497 7.05044C18.2624 8.36319 18.9999 10.1437 18.9999 12.0002C19.0012 12.6109 18.9239 13.2192 18.7699 13.8102C18.735 13.9369 18.7255 14.0693 18.7418 14.1997C18.7581 14.3301 18.7999 14.4561 18.8649 14.5703C18.93 14.6845 19.0169 14.7848 19.1207 14.8655C19.2245 14.9461 19.3432 15.0055 19.4699 15.0402C19.5563 15.05 19.6436 15.05 19.7299 15.0402C19.9557 15.0479 20.1774 14.979 20.359 14.8446C20.5406 14.7102 20.6713 14.5183 20.7299 14.3002C20.9196 13.5485 21.0104 12.7753 20.9999 12.0002C20.9999 9.61324 20.0517 7.32405 18.3639 5.63622C16.6761 3.9484 14.3869 3.00019 11.9999 3.00019C11.2134 2.99691 10.43 3.09779 9.66994 3.30019C9.41944 3.37663 9.20892 3.54829 9.08363 3.77829C8.95835 4.00829 8.9283 4.27827 8.99994 4.53019C9.07029 4.77746 9.23316 4.98815 9.45476 5.1185C9.67635 5.24885 9.93963 5.28884 10.1899 5.23019ZM21.7099 20.2902L3.70994 2.29019C3.52164 2.10188 3.26624 1.99609 2.99994 1.99609C2.73364 1.99609 2.47824 2.10188 2.28994 2.29019C2.10164 2.47849 1.99585 2.73388 1.99585 3.00019C1.99585 3.26649 2.10164 3.52188 2.28994 3.71019L4.99994 6.38019C3.72442 7.97564 3.02956 9.95753 3.02956 12.0002C3.02956 14.0428 3.72442 16.0247 4.99994 17.6202L3.28994 19.2902C3.15118 19.4308 3.05719 19.6094 3.01981 19.8034C2.98244 19.9974 3.00336 20.1981 3.07994 20.3802C3.15496 20.5628 3.28236 20.7191 3.44608 20.8295C3.6098 20.9398 3.80252 20.9992 3.99994 21.0002H11.9999C14.0462 20.9918 16.0284 20.2863 17.6199 19.0002L20.2899 21.6802C20.3829 21.7739 20.4935 21.8483 20.6154 21.8991C20.7372 21.9498 20.8679 21.976 20.9999 21.976C21.132 21.976 21.2627 21.9498 21.3845 21.8991C21.5064 21.8483 21.617 21.7739 21.7099 21.6802C21.8902 21.4937 21.9909 21.2445 21.9909 20.9852C21.9909 20.7258 21.8902 20.4767 21.7099 20.2902ZM11.9999 19.0002H6.40994L7.04994 18.3702C7.23619 18.1828 7.34073 17.9294 7.34073 17.6652C7.34073 17.401 7.23619 17.1475 7.04994 16.9602C5.85843 15.7687 5.13672 14.1873 5.01732 12.5065C4.89792 10.8257 5.38884 9.15818 6.39994 7.81019L16.1899 17.6002C14.981 18.5069 13.5111 18.998 11.9999 19.0002Z" fill="black"/>
</svg>
