<svg width="24" height="24" viewBox="0 0 24 24" fill="none" xmlns="http://www.w3.org/2000/svg">
<path d="M11.2899 17.7102C11.3829 17.8039 11.4935 17.8783 11.6154 17.9291C11.7372 17.9798 11.8679 18.006 11.9999 18.006C12.132 18.006 12.2627 17.9798 12.3845 17.9291C12.5064 17.8783 12.617 17.8039 12.7099 17.7102C12.7983 17.613 12.8693 17.5014 12.9199 17.3802C12.9728 17.2605 13.0002 17.1311 13.0002 17.0002C13.0002 16.8693 12.9728 16.7399 12.9199 16.6202C12.8693 16.499 12.7983 16.3874 12.7099 16.2902C12.617 16.1965 12.5064 16.1221 12.3845 16.0713C12.2627 16.0205 12.132 15.9944 11.9999 15.9944C11.8679 15.9944 11.7372 16.0205 11.6154 16.0713C11.4935 16.1221 11.3829 16.1965 11.2899 16.2902C11.2016 16.3874 11.1306 16.499 11.0799 16.6202C11.027 16.7399 10.9997 16.8693 10.9997 17.0002C10.9997 17.1311 11.027 17.2605 11.0799 17.3802C11.1306 17.5014 11.2016 17.613 11.2899 17.7102ZM8.65994 4.00019H15.9999C16.2652 4.00019 16.5195 4.10554 16.707 4.29308C16.8946 4.48062 16.9999 4.73497 16.9999 5.00019V12.3402C16.9999 12.6054 17.1053 12.8598 17.2928 13.0473C17.4804 13.2348 17.7347 13.3402 17.9999 13.3402C18.2652 13.3402 18.5195 13.2348 18.707 13.0473C18.8946 12.8598 18.9999 12.6054 18.9999 12.3402V5.00019C18.9999 4.20454 18.6839 3.44147 18.1213 2.87887C17.5587 2.31626 16.7956 2.00019 15.9999 2.00019H8.65994C8.39472 2.00019 8.14037 2.10554 7.95283 2.29308C7.7653 2.48061 7.65994 2.73497 7.65994 3.00019C7.65994 3.2654 7.7653 3.51976 7.95283 3.70729C8.14037 3.89483 8.39472 4.00019 8.65994 4.00019ZM21.7099 20.2902L3.70994 2.29019C3.52164 2.10188 3.26624 1.99609 2.99994 1.99609C2.73364 1.99609 2.47824 2.10188 2.28994 2.29019C2.10164 2.47849 1.99585 2.73388 1.99585 3.00019C1.99585 3.26649 2.10164 3.52188 2.28994 3.71019L4.99994 6.41019V19.0002C4.99994 19.7958 5.31601 20.5589 5.87862 21.1215C6.44123 21.6841 7.20429 22.0002 7.99994 22.0002H15.9999C16.5888 21.9997 17.1645 21.8259 17.6553 21.5005C18.1461 21.1751 18.5303 20.7124 18.7599 20.1702L20.2899 21.7102C20.3829 21.8039 20.4935 21.8783 20.6154 21.9291C20.7372 21.9798 20.8679 22.006 20.9999 22.006C21.132 22.006 21.2627 21.9798 21.3845 21.9291C21.5064 21.8783 21.617 21.8039 21.7099 21.7102C21.8037 21.6172 21.8781 21.5066 21.9288 21.3848C21.9796 21.2629 22.0057 21.1322 22.0057 21.0002C22.0057 20.8682 21.9796 20.7375 21.9288 20.6156C21.8781 20.4937 21.8037 20.3831 21.7099 20.2902ZM16.9999 19.0002C16.9999 19.2654 16.8946 19.5198 16.707 19.7073C16.5195 19.8948 16.2652 20.0002 15.9999 20.0002H7.99994C7.73472 20.0002 7.48037 19.8948 7.29283 19.7073C7.1053 19.5198 6.99994 19.2654 6.99994 19.0002V8.41019L16.9999 18.4102V19.0002Z" fill="black"/>
</svg>
