<svg width="24" height="24" viewBox="0 0 24 24" fill="none" xmlns="http://www.w3.org/2000/svg">
<path d="M6 11.0002C5.80222 11.0002 5.60888 11.0588 5.44443 11.1687C5.27998 11.2786 5.15181 11.4348 5.07612 11.6175C5.00043 11.8002 4.98063 12.0013 5.01921 12.1953C5.0578 12.3893 5.15304 12.5674 5.29289 12.7073C5.43275 12.8471 5.61093 12.9424 5.80491 12.981C5.99889 13.0196 6.19996 12.9998 6.38268 12.9241C6.56541 12.8484 6.72159 12.7202 6.83147 12.5558C6.94135 12.3913 7 12.198 7 12.0002C7 11.735 6.89464 11.4806 6.70711 11.2931C6.51957 11.1055 6.26522 11.0002 6 11.0002ZM11.86 9.45019L4.71 2.29019C4.61676 2.19695 4.50607 2.12299 4.38425 2.07253C4.26243 2.02207 4.13186 1.99609 4 1.99609C3.86814 1.99609 3.73757 2.02207 3.61575 2.07253C3.49393 2.12299 3.38324 2.19695 3.29 2.29019C3.1017 2.47849 2.99591 2.73388 2.99591 3.00019C2.99591 3.26649 3.1017 3.52188 3.29 3.71019L4.59 5.00019H4C3.20435 5.00019 2.44129 5.31626 1.87868 5.87887C1.31607 6.44147 1 7.20454 1 8.00019V16.0002C1 16.7958 1.31607 17.5589 1.87868 18.1215C2.44129 18.6841 3.20435 19.0002 4 19.0002H18.59L21.29 21.7102C21.383 21.8039 21.4936 21.8783 21.6154 21.9291C21.7373 21.9798 21.868 22.006 22 22.006C22.132 22.006 22.2627 21.9798 22.3846 21.9291C22.5064 21.8783 22.617 21.8039 22.71 21.7102C22.8037 21.6172 22.8781 21.5066 22.9289 21.3848C22.9797 21.2629 23.0058 21.1322 23.0058 21.0002C23.0058 20.8682 22.9797 20.7375 22.9289 20.6156C22.8781 20.4937 22.8037 20.3831 22.71 20.2902L11.86 9.45019ZM11.12 11.5402L12.46 12.8802C12.3185 12.9566 12.1608 12.9977 12 13.0002C11.7348 13.0002 11.4804 12.8948 11.2929 12.7073C11.1054 12.5198 11 12.2654 11 12.0002C11.0024 11.8394 11.0436 11.6816 11.12 11.5402ZM4 17.0002C3.73478 17.0002 3.48043 16.8948 3.29289 16.7073C3.10536 16.5198 3 16.2654 3 16.0002V8.00019C3 7.73497 3.10536 7.48062 3.29289 7.29308C3.48043 7.10554 3.73478 7.00019 4 7.00019H6.59L9.69 10.1002C9.24713 10.6346 9.00328 11.3061 9 12.0002C9 12.7958 9.31607 13.5589 9.87868 14.1215C10.4413 14.6841 11.2044 15.0002 12 15.0002C12.6941 14.9969 13.3656 14.7531 13.9 14.3102L16.59 17.0002H4ZM20 5.00019H12.66C12.3948 5.00019 12.1404 5.10554 11.9529 5.29308C11.7654 5.48062 11.66 5.73497 11.66 6.00019C11.66 6.2654 11.7654 6.51976 11.9529 6.70729C12.1404 6.89483 12.3948 7.00019 12.66 7.00019H20C20.2652 7.00019 20.5196 7.10554 20.7071 7.29308C20.8946 7.48062 21 7.73497 21 8.00019V15.3402C21 15.6054 21.1054 15.8598 21.2929 16.0473C21.4804 16.2348 21.7348 16.3402 22 16.3402C22.2652 16.3402 22.5196 16.2348 22.7071 16.0473C22.8946 15.8598 23 15.6054 23 15.3402V8.00019C23 7.20454 22.6839 6.44147 22.1213 5.87887C21.5587 5.31626 20.7956 5.00019 20 5.00019ZM19 12.0002C19 11.8024 18.9414 11.6091 18.8315 11.4446C18.7216 11.2802 18.5654 11.152 18.3827 11.0763C18.2 11.0006 17.9989 10.9808 17.8049 11.0194C17.6109 11.058 17.4327 11.1532 17.2929 11.2931C17.153 11.4329 17.0578 11.6111 17.0192 11.8051C16.9806 11.9991 17.0004 12.2001 17.0761 12.3829C17.1518 12.5656 17.28 12.7218 17.4444 12.8317C17.6089 12.9415 17.8022 13.0002 18 13.0002C18.2652 13.0002 18.5196 12.8948 18.7071 12.7073C18.8946 12.5198 19 12.2654 19 12.0002Z" fill="black"/>
</svg>
