<svg width="24" height="24" viewBox="0 0 24 24" fill="none" xmlns="http://www.w3.org/2000/svg">
<path d="M19.4999 4.00019H9.99994C9.73472 4.00019 9.48037 4.10554 9.29283 4.29308C9.1053 4.48062 8.99994 4.73497 8.99994 5.00019C8.99994 5.2654 9.1053 5.51976 9.29283 5.70729C9.48037 5.89483 9.73472 6.00019 9.99994 6.00019H19.4999C19.7652 6.00019 20.0195 6.10554 20.207 6.29308C20.3946 6.48062 20.4999 6.73497 20.4999 7.00019V13.7602L18.6199 11.8802C18.2985 11.5604 17.9087 11.3177 17.4799 11.1702C17.3552 11.1282 17.2234 11.1111 17.092 11.12C16.9607 11.129 16.8324 11.1637 16.7145 11.2222C16.5965 11.2807 16.4913 11.3618 16.4047 11.461C16.3181 11.5602 16.252 11.6754 16.2099 11.8002C16.1679 11.9249 16.1509 12.0568 16.1598 12.1881C16.1687 12.3194 16.2034 12.4477 16.2619 12.5657C16.3204 12.6836 16.4016 12.7888 16.5007 12.8754C16.5999 12.962 16.7152 13.0282 16.8399 13.0702C16.9782 13.1137 17.1024 13.1931 17.1999 13.3002L20.5099 16.5902C20.5042 16.64 20.5042 16.6903 20.5099 16.7402C20.5054 16.7901 20.5054 16.8403 20.5099 16.8902C20.5475 16.9541 20.591 17.0144 20.6399 17.0702C20.6643 17.1111 20.6946 17.1482 20.7299 17.1802C20.7899 17.2357 20.8572 17.2828 20.9299 17.3202C20.9644 17.344 21.0013 17.3641 21.0399 17.3802C21.1563 17.4325 21.2824 17.4597 21.4099 17.4602C21.6752 17.4602 21.9295 17.3548 22.117 17.1673C22.3046 16.9798 22.4099 16.7254 22.4099 16.4602V7.00019C22.4103 6.21989 22.1066 5.47015 21.5633 4.91006C21.02 4.34997 20.2799 4.02359 19.4999 4.00019ZM3.20994 2.29019C3.02164 2.10188 2.76624 1.99609 2.49994 1.99609C2.23364 1.99609 1.97824 2.10188 1.78994 2.29019C1.60164 2.47849 1.49585 2.73388 1.49585 3.00019C1.49585 3.26649 1.60164 3.52188 1.78994 3.71019L3.17994 5.10019C2.74067 5.63599 2.5004 6.30733 2.49994 7.00019V17.0002C2.49994 17.7958 2.81601 18.5589 3.37862 19.1215C3.94123 19.6841 4.70429 20.0002 5.49994 20.0002H18.0899L19.7899 21.7102C19.8829 21.8039 19.9935 21.8783 20.1154 21.9291C20.2372 21.9798 20.3679 22.006 20.4999 22.006C20.632 22.006 20.7627 21.9798 20.8845 21.9291C21.0064 21.8783 21.117 21.8039 21.2099 21.7102C21.3037 21.6172 21.3781 21.5066 21.4288 21.3848C21.4796 21.2629 21.5057 21.1322 21.5057 21.0002C21.5057 20.8682 21.4796 20.7375 21.4288 20.6156C21.3781 20.4937 21.3037 20.3831 21.2099 20.2902L3.20994 2.29019ZM4.49994 7.00019C4.50238 6.83944 4.54355 6.68164 4.61994 6.54019L7.33994 9.25019C6.96813 9.3918 6.6282 9.60595 6.33994 9.88019L4.49994 11.7602V7.00019ZM5.49994 18.0002C5.23472 18.0002 4.98037 17.8948 4.79283 17.7073C4.6053 17.5198 4.49994 17.2654 4.49994 17.0002V14.5802L7.79994 11.2902C7.98687 11.107 8.23819 11.0043 8.49994 11.0043C8.76169 11.0043 9.01301 11.107 9.19994 11.2902L15.9099 18.0002H5.49994Z" fill="black"/>
</svg>
