<svg width="24" height="24" viewBox="0 0 24 24" fill="none" xmlns="http://www.w3.org/2000/svg">
<path d="M6.99994 10.0002C6.80216 10.0002 6.60882 10.0588 6.44437 10.1687C6.27992 10.2786 6.15175 10.4348 6.07606 10.6175C6.00037 10.8002 5.98057 11.0013 6.01916 11.1953C6.05774 11.3893 6.15298 11.5674 6.29283 11.7073C6.43269 11.8471 6.61087 11.9424 6.80485 11.981C6.99883 12.0196 7.1999 11.9998 7.38262 11.9241C7.56535 11.8484 7.72153 11.7202 7.83141 11.5558C7.94129 11.3913 7.99994 11.198 7.99994 11.0002C7.99994 10.735 7.89458 10.4806 7.70705 10.2931C7.51951 10.1055 7.26516 10.0002 6.99994 10.0002ZM3.70994 2.29019C3.6167 2.19695 3.50601 2.12299 3.38419 2.07253C3.26237 2.02207 3.1318 1.99609 2.99994 1.99609C2.86808 1.99609 2.73751 2.02207 2.61569 2.07253C2.49387 2.12299 2.38318 2.19695 2.28994 2.29019C2.10164 2.47849 1.99585 2.73388 1.99585 3.00019C1.99585 3.26649 2.10164 3.52188 2.28994 3.71019L4.61994 6.00019C3.89184 6.09314 3.22308 6.4498 2.74025 7.00265C2.25742 7.55551 1.99403 8.2662 1.99994 9.00019V15.0002C1.99994 15.7958 2.31601 16.5589 2.87862 17.1215C3.44123 17.6841 4.20429 18.0002 4.99994 18.0002H5.99994V21.0002C5.99994 21.2654 6.1053 21.5198 6.29283 21.7073C6.48037 21.8948 6.73472 22.0002 6.99994 22.0002H16.9999C17.2652 22.0002 17.5195 21.8948 17.707 21.7073C17.8946 21.5198 17.9999 21.2654 17.9999 21.0002V19.4102L20.2899 21.7102C20.3829 21.8039 20.4935 21.8783 20.6154 21.9291C20.7372 21.9798 20.8679 22.006 20.9999 22.006C21.132 22.006 21.2627 21.9798 21.3845 21.9291C21.5064 21.8783 21.617 21.8039 21.7099 21.7102C21.8037 21.6172 21.8781 21.5066 21.9288 21.3848C21.9796 21.2629 22.0057 21.1322 22.0057 21.0002C22.0057 20.8682 21.9796 20.7375 21.9288 20.6156C21.8781 20.4937 21.8037 20.3831 21.7099 20.2902L3.70994 2.29019ZM5.99994 15.0002V16.0002H4.99994C4.73472 16.0002 4.48037 15.8948 4.29283 15.7073C4.1053 15.5198 3.99994 15.2654 3.99994 15.0002V9.00019C3.99994 8.73497 4.1053 8.48062 4.29283 8.29308C4.48037 8.10554 4.73472 8.00019 4.99994 8.00019H6.58994L12.5899 14.0002H6.99994C6.73472 14.0002 6.48037 14.1055 6.29283 14.2931C6.1053 14.4806 5.99994 14.735 5.99994 15.0002ZM15.9999 20.0002H7.99994V16.0002H14.5899L15.9999 17.4102V20.0002ZM18.9999 6.00019H17.9999V3.00019C17.9999 2.73497 17.8946 2.48061 17.707 2.29308C17.5195 2.10554 17.2652 2.00019 16.9999 2.00019H8.65994C8.39472 2.00019 8.14037 2.10554 7.95283 2.29308C7.7653 2.48061 7.65994 2.73497 7.65994 3.00019C7.65994 3.2654 7.7653 3.51976 7.95283 3.70729C8.14037 3.89483 8.39472 4.00019 8.65994 4.00019H15.9999V6.00019H12.6599C12.3947 6.00019 12.1404 6.10554 11.9528 6.29308C11.7653 6.48062 11.6599 6.73497 11.6599 7.00019C11.6599 7.2654 11.7653 7.51976 11.9528 7.70729C12.1404 7.89483 12.3947 8.00019 12.6599 8.00019H18.9999C19.2652 8.00019 19.5195 8.10554 19.707 8.29308C19.8946 8.48062 19.9999 8.73497 19.9999 9.00019V15.0002C20.0054 15.0366 20.0054 15.0737 19.9999 15.1102C19.9736 15.2389 19.973 15.3715 19.9979 15.5005C20.0229 15.6294 20.0731 15.7522 20.1455 15.8618C20.2179 15.9714 20.3112 16.0656 20.4201 16.1391C20.529 16.2126 20.6512 16.2639 20.7799 16.2902H20.9799C21.2139 16.2949 21.4421 16.2174 21.6248 16.0713C21.8075 15.9251 21.9332 15.7195 21.9799 15.4902C22.0007 15.3277 22.0074 15.1638 21.9999 15.0002V9.00019C21.9999 8.20454 21.6839 7.44147 21.1213 6.87887C20.5587 6.31626 19.7956 6.00019 18.9999 6.00019Z" fill="black"/>
</svg>
