<svg width="24" height="24" viewBox="0 0 24 24" fill="none" xmlns="http://www.w3.org/2000/svg">
<path d="M11.6599 7.00019H14.9999V8.00019C14.9999 8.2654 15.1053 8.51976 15.2928 8.70729C15.4804 8.89483 15.7347 9.00019 15.9999 9.00019C16.2652 9.00019 16.5195 8.89483 16.707 8.70729C16.8946 8.51976 16.9999 8.2654 16.9999 8.00019V7.00019H17.9999C18.2652 7.00019 18.5195 7.10554 18.707 7.29308C18.8946 7.48062 18.9999 7.73497 18.9999 8.00019V11.0002H17.6599C17.3947 11.0002 17.1404 11.1055 16.9528 11.2931C16.7653 11.4806 16.6599 11.735 16.6599 12.0002C16.6599 12.2654 16.7653 12.5198 16.9528 12.7073C17.1404 12.8948 17.3947 13.0002 17.6599 13.0002H18.9999V14.3402C18.9999 14.6054 19.1053 14.8598 19.2928 15.0473C19.4804 15.2348 19.7347 15.3402 19.9999 15.3402C20.2652 15.3402 20.5195 15.2348 20.707 15.0473C20.8946 14.8598 20.9999 14.6054 20.9999 14.3402V8.00019C20.9999 7.20454 20.6839 6.44147 20.1213 5.87887C19.5587 5.31626 18.7956 5.00019 17.9999 5.00019H16.9999V4.00019C16.9999 3.73497 16.8946 3.48061 16.707 3.29308C16.5195 3.10554 16.2652 3.00019 15.9999 3.00019C15.7347 3.00019 15.4804 3.10554 15.2928 3.29308C15.1053 3.48061 14.9999 3.73497 14.9999 4.00019V5.00019H11.6599C11.3947 5.00019 11.1404 5.10554 10.9528 5.29308C10.7653 5.48062 10.6599 5.73497 10.6599 6.00019C10.6599 6.2654 10.7653 6.51976 10.9528 6.70729C11.1404 6.89483 11.3947 7.00019 11.6599 7.00019ZM21.7099 20.2902L20.1099 18.6902L3.70994 2.29019C3.6167 2.19695 3.50601 2.12299 3.38419 2.07253C3.26237 2.02207 3.1318 1.99609 2.99994 1.99609C2.86808 1.99609 2.73751 2.02207 2.61569 2.07253C2.49387 2.12299 2.38318 2.19695 2.28994 2.29019C2.10164 2.47849 1.99585 2.73388 1.99585 3.00019C1.99585 3.26649 2.10164 3.52188 2.28994 3.71019L4.19994 5.61019C3.8287 5.88861 3.52711 6.24936 3.31889 6.66407C3.11067 7.07878 3.00149 7.53614 2.99994 8.00019V18.0002C2.99994 18.7958 3.31601 19.5589 3.87862 20.1215C4.44123 20.6841 5.20429 21.0002 5.99994 21.0002H17.9999C18.4469 20.9975 18.8877 20.895 19.2899 20.7002L20.2899 21.7002C20.3829 21.7939 20.4935 21.8683 20.6154 21.9191C20.7372 21.9698 20.8679 21.996 20.9999 21.996C21.132 21.996 21.2627 21.9698 21.3845 21.9191C21.5064 21.8683 21.617 21.7939 21.7099 21.7002C21.8962 21.5128 22.0007 21.2594 22.0007 20.9952C22.0007 20.731 21.8962 20.4775 21.7099 20.2902ZM4.99994 8.00019C5.00207 7.79638 5.06642 7.5981 5.18438 7.43188C5.30234 7.26567 5.46827 7.13947 5.65994 7.07019L9.58994 11.0002H4.99994V8.00019ZM5.99994 19.0002C5.73472 19.0002 5.48037 18.8948 5.29283 18.7073C5.1053 18.5198 4.99994 18.2654 4.99994 18.0002V13.0002H11.5899L17.5899 19.0002H5.99994Z" fill="black"/>
</svg>
