<svg width="24" height="24" viewBox="0 0 24 24" fill="none" xmlns="http://www.w3.org/2000/svg">
<path d="M11.6199 7.92019C11.7402 7.97143 11.8693 7.99861 11.9999 8.00019H17.9999C18.2652 8.00019 18.5195 8.10554 18.707 8.29308C18.8946 8.48062 18.9999 8.73497 18.9999 9.00019V14.3402C18.9999 14.6054 19.1053 14.8598 19.2928 15.0473C19.4804 15.2348 19.7347 15.3402 19.9999 15.3402C20.2652 15.3402 20.5195 15.2348 20.707 15.0473C20.8946 14.8598 20.9999 14.6054 20.9999 14.3402V9.00019C20.9999 8.20454 20.6839 7.44147 20.1213 6.87887C19.5587 6.31626 18.7956 6.00019 17.9999 6.00019H14.4099L16.7099 3.71019C16.8032 3.61695 16.8771 3.50626 16.9276 3.38443C16.9781 3.26261 17.004 3.13204 17.004 3.00019C17.004 2.86833 16.9781 2.73776 16.9276 2.61594C16.8771 2.49411 16.8032 2.38342 16.7099 2.29019C16.6167 2.19695 16.506 2.12299 16.3842 2.07253C16.2624 2.02207 16.1318 1.99609 15.9999 1.99609C15.7336 1.99609 15.4782 2.10188 15.2899 2.29019L11.2899 6.29019C11.1989 6.38529 11.1275 6.49743 11.0799 6.62019C10.9799 6.86365 10.9799 7.13672 11.0799 7.38019C11.1814 7.62454 11.3756 7.81871 11.6199 7.92019ZM21.7099 20.2902L3.70994 2.29019C3.52164 2.10188 3.26624 1.99609 2.99994 1.99609C2.73364 1.99609 2.47824 2.10188 2.28994 2.29019C2.10164 2.47849 1.99585 2.73388 1.99585 3.00019C1.99585 3.26649 2.10164 3.52188 2.28994 3.71019L4.82994 6.24019C4.2877 6.46985 3.82503 6.85401 3.49962 7.34481C3.1742 7.8356 3.00042 8.41131 2.99994 9.00019V17.0002C2.99994 17.7958 3.31601 18.5589 3.87862 19.1215C4.44123 19.6841 5.20429 20.0002 5.99994 20.0002V21.0002C5.99994 21.2654 6.1053 21.5198 6.29283 21.7073C6.48037 21.8948 6.73472 22.0002 6.99994 22.0002C7.26516 22.0002 7.51951 21.8948 7.70705 21.7073C7.89458 21.5198 7.99994 21.2654 7.99994 21.0002V20.0002H15.9999V21.0002C15.9999 21.2654 16.1053 21.5198 16.2928 21.7073C16.4804 21.8948 16.7347 22.0002 16.9999 22.0002C17.2652 22.0002 17.5195 21.8948 17.707 21.7073C17.8946 21.5198 17.9999 21.2654 17.9999 21.0002V20.0002C18.178 19.9956 18.3554 19.9755 18.5299 19.9402L20.2899 21.7102C20.3829 21.8039 20.4935 21.8783 20.6154 21.9291C20.7372 21.9798 20.8679 22.006 20.9999 22.006C21.132 22.006 21.2627 21.9798 21.3845 21.9291C21.5064 21.8783 21.617 21.8039 21.7099 21.7102C21.8037 21.6172 21.8781 21.5066 21.9288 21.3848C21.9796 21.2629 22.0057 21.1322 22.0057 21.0002C22.0057 20.8682 21.9796 20.7375 21.9288 20.6156C21.8781 20.4937 21.8037 20.3831 21.7099 20.2902ZM5.99994 18.0002C5.73472 18.0002 5.48037 17.8948 5.29283 17.7073C5.1053 17.5198 4.99994 17.2654 4.99994 17.0002V9.00019C4.99994 8.73497 5.1053 8.48062 5.29283 8.29308C5.48037 8.10554 5.73472 8.00019 5.99994 8.00019H6.58994L16.5899 18.0002H5.99994Z" fill="black"/>
</svg>
