<svg width="24" height="24" viewBox="0 0 24 24" fill="none" xmlns="http://www.w3.org/2000/svg">
<path d="M21.7099 20.2902L3.70994 2.29019C3.52164 2.10188 3.26624 1.99609 2.99994 1.99609C2.73364 1.99609 2.47824 2.10188 2.28994 2.29019C2.10164 2.47849 1.99585 2.73388 1.99585 3.00019C1.99585 3.26649 2.10164 3.52188 2.28994 3.71019L6.28994 7.71019C5.02098 9.66959 4.32799 11.9461 4.28994 14.2802C4.30043 16.3227 5.11578 18.2787 6.55914 19.7239C8.00249 21.1692 9.95745 21.9871 11.9999 22.0002C13.117 22.0051 14.2215 21.7649 15.2357 21.2967C16.2499 20.8285 17.1491 20.1436 17.8699 19.2902L20.2899 21.7102C20.3829 21.8039 20.4935 21.8783 20.6154 21.9291C20.7372 21.9798 20.8679 22.006 20.9999 22.006C21.132 22.006 21.2627 21.9798 21.3845 21.9291C21.5064 21.8783 21.617 21.8039 21.7099 21.7102C21.8037 21.6172 21.8781 21.5066 21.9288 21.3848C21.9796 21.2629 22.0057 21.1322 22.0057 21.0002C22.0057 20.8682 21.9796 20.7375 21.9288 20.6156C21.8781 20.4937 21.8037 20.3831 21.7099 20.2902ZM11.9999 20.0002C10.4758 19.9975 9.01476 19.3909 7.937 18.3131C6.85924 17.2354 6.25259 15.7744 6.24994 14.2502C6.28426 12.4476 6.79115 10.6855 7.71994 9.14019L16.4599 17.8702C15.9255 18.5389 15.2467 19.0778 14.4742 19.4467C13.7018 19.8156 12.8559 20.0048 11.9999 20.0002ZM10.8499 5.24019C11.2999 4.82019 11.6999 4.49019 11.9999 4.24019C13.4299 5.36019 17.1299 8.67019 17.6799 13.1202C17.7094 13.3641 17.8277 13.5886 18.0121 13.7509C18.1965 13.9132 18.4343 14.002 18.6799 14.0002H18.7999C19.0622 13.9677 19.3009 13.8327 19.4639 13.6247C19.627 13.4167 19.701 13.1526 19.6699 12.8902C18.8899 6.46019 12.8199 2.34019 12.5699 2.17019C12.4046 2.05841 12.2095 1.99868 12.0099 1.99868C11.8103 1.99868 11.6153 2.05841 11.4499 2.17019C10.761 2.66195 10.1061 3.19985 9.48994 3.78019C9.31683 3.96517 9.2204 4.20897 9.22011 4.46232C9.21982 4.71566 9.3157 4.95968 9.48838 5.14506C9.66107 5.33044 9.89768 5.44337 10.1504 5.46103C10.4031 5.47868 10.6532 5.39975 10.8499 5.24019Z" fill="black"/>
</svg>
