<svg width="24" height="24" viewBox="0 0 24 24" fill="none" xmlns="http://www.w3.org/2000/svg">
<path d="M21.75 11.9997C21.7495 11.8151 21.6978 11.6342 21.6007 11.4771C21.5036 11.32 21.365 11.1928 21.2 11.1097L15.08 8.04973V4.04973C15.08 3.23286 14.7555 2.44945 14.1779 1.87184C13.6003 1.29423 12.8169 0.969727 12 0.969727C11.1832 0.969727 10.3998 1.29423 9.82215 1.87184C9.24453 2.44945 8.92003 3.23286 8.92003 4.04973V8.04973L2.80003 11.1097C2.63512 11.1928 2.49644 11.32 2.39936 11.4771C2.30228 11.6342 2.25059 11.8151 2.25003 11.9997V15.3297C2.24868 15.4926 2.28714 15.6534 2.36208 15.7981C2.43702 15.9427 2.54617 16.0669 2.68003 16.1597C2.81313 16.2509 2.96632 16.3086 3.12653 16.3277C3.28673 16.3469 3.44919 16.327 3.60003 16.2697L8.92003 14.2697V17.9997L7.10003 18.5997C6.90141 18.6668 6.7289 18.7946 6.60688 18.9651C6.48485 19.1356 6.41949 19.3401 6.42003 19.5497V21.9997C6.42058 22.132 6.44738 22.2629 6.49888 22.3848C6.55038 22.5067 6.62555 22.6171 6.72003 22.7097C6.9063 22.8945 7.15769 22.9986 7.42003 22.9997H16.59C16.8553 22.9997 17.1096 22.8944 17.2971 22.7068C17.4847 22.5193 17.59 22.2649 17.59 21.9997V19.4997C17.5906 19.2901 17.5252 19.0856 17.4032 18.9151C17.2812 18.7446 17.1087 18.6168 16.91 18.5497L15.08 17.9997V14.2797L20.4 16.2797C20.5509 16.337 20.7133 16.3569 20.8735 16.3377C21.0337 16.3186 21.1869 16.2609 21.32 16.1697C21.4539 16.0769 21.563 15.9527 21.638 15.8081C21.7129 15.6634 21.7514 15.5026 21.75 15.3397V11.9997ZM14.44 11.8997C14.2878 11.8408 14.1235 11.82 13.9614 11.8391C13.7993 11.8583 13.6443 11.9169 13.51 12.0097C13.3776 12.1016 13.2693 12.2242 13.1944 12.367C13.1195 12.5097 13.0803 12.6685 13.08 12.8297V18.6697C13.0802 18.8806 13.147 19.086 13.2709 19.2567C13.3949 19.4273 13.5695 19.5544 13.77 19.6197L15.58 20.2197V20.9997H8.41003V20.2197L10.22 19.6197C10.4205 19.5544 10.5952 19.4273 10.7191 19.2567C10.8431 19.086 10.9099 18.8806 10.91 18.6697V12.8297C10.9098 12.6685 10.8705 12.5097 10.7957 12.367C10.7208 12.2242 10.6125 12.1016 10.48 12.0097C10.3458 11.9169 10.1908 11.8583 10.0287 11.8391C9.8666 11.82 9.70226 11.8408 9.55003 11.8997L4.24003 13.8997V12.6197L10.35 9.55973C10.5168 9.47801 10.6575 9.35147 10.7565 9.19427C10.8554 9.03708 10.9085 8.85544 10.91 8.66973V4.07973C10.91 3.79329 11.0238 3.51859 11.2264 3.31605C11.4289 3.11351 11.7036 2.99973 11.99 2.99973C12.2765 2.99973 12.5512 3.11351 12.7537 3.31605C12.9562 3.51859 13.07 3.79329 13.07 4.07973V8.66973C13.0715 8.85544 13.1247 9.03708 13.2236 9.19427C13.3225 9.35147 13.4633 9.47801 13.63 9.55973L19.74 12.6197V13.8897L14.44 11.8997Z" fill="black"/>
</svg>
