<svg width="24" height="24" viewBox="0 0 24 24" fill="none" xmlns="http://www.w3.org/2000/svg">
<path d="M21.0001 11.24C20.9952 11.2136 20.9952 11.1864 21.0001 11.16V10.97C21.0001 10.74 20.9401 10.51 20.9001 10.28C20.8944 10.2268 20.8944 10.1732 20.9001 10.12C20.8501 9.87 20.7801 9.63 20.7101 9.39C20.2825 8.00973 19.5257 6.75416 18.5048 5.73154C17.4839 4.70892 16.2296 3.94992 14.8501 3.52H14.7701C14.5501 3.45 14.3201 3.39 14.0901 3.34H13.9101C13.7283 3.30357 13.5447 3.27686 13.3601 3.26H13.1201V3C13.1201 2.73478 13.0148 2.48043 12.8272 2.29289C12.6397 2.10536 12.3853 2 12.1201 2C11.8549 2 11.6005 2.10536 11.413 2.29289C11.2255 2.48043 11.1201 2.73478 11.1201 3V3.06C10.7836 3.10047 10.4496 3.16057 10.1201 3.24C9.91005 3.27921 9.70291 3.33266 9.50011 3.4H9.37011C9.12011 3.48 8.89011 3.57 8.65011 3.66C7.41531 4.14891 6.3051 4.90708 5.40036 5.8793C4.49561 6.85151 3.8191 8.01328 3.42011 9.28C3.41665 9.30655 3.41665 9.33345 3.42011 9.36C3.34281 9.5961 3.27937 9.83651 3.23011 10.08V10.24C3.17677 10.48 3.13677 10.73 3.11011 10.99C3.11011 10.99 3.11011 11.06 3.11011 11.1C3.11011 11.14 3.11011 11.16 3.11011 11.19C3.11011 11.22 3.11011 11.19 3.11011 11.24C3.11011 11.49 3.11011 11.74 3.11011 12C3.11011 12.2652 3.21546 12.5196 3.403 12.7071C3.59054 12.8946 3.84489 13 4.11011 13H11.1101V19C11.1101 19.2652 11.0048 19.5196 10.8172 19.7071C10.6297 19.8946 10.3753 20 10.1101 20C9.84489 20 9.59054 19.8946 9.403 19.7071C9.21546 19.5196 9.11011 19.2652 9.11011 19C9.11011 18.7348 9.00475 18.4804 8.81721 18.2929C8.62968 18.1054 8.37532 18 8.11011 18C7.84489 18 7.59054 18.1054 7.403 18.2929C7.21546 18.4804 7.11011 18.7348 7.11011 19C7.11011 19.7956 7.42618 20.5587 7.98879 21.1213C8.5514 21.6839 9.31446 22 10.1101 22C10.9058 22 11.6688 21.6839 12.2314 21.1213C12.794 20.5587 13.1101 19.7956 13.1101 19V13H20.1101C20.3753 13 20.6297 12.8946 20.8172 12.7071C21.0047 12.5196 21.1101 12.2652 21.1101 12C21.0001 11.74 21.0001 11.49 21.0001 11.24ZM8.00011 11H5.08011C5.08011 11 5.08011 10.93 5.08011 10.89C5.08011 10.85 5.08011 10.61 5.16011 10.48C5.24011 10.35 5.16011 10.35 5.16011 10.29C5.16011 10.23 5.24011 9.97 5.29011 9.81V9.73C5.61015 8.82311 6.11364 7.99189 6.76915 7.2882C7.42467 6.58452 8.21815 6.02345 9.10011 5.64C8.43011 7.35076 8.05806 9.16363 8.00011 11ZM10.0001 11C10.1901 7.09 11.4401 5 12.0001 5C12.5601 5 13.7901 7.09 14.0001 11H10.0001ZM16.0001 11C15.9422 9.16363 15.5701 7.35076 14.9001 5.64C15.7702 6.03569 16.55 6.60538 17.1915 7.31396C17.833 8.02254 18.3226 8.85499 18.6301 9.76C18.6906 9.93352 18.7407 10.1105 18.7801 10.29C18.7756 10.3399 18.7756 10.3901 18.7801 10.44C18.7801 10.58 18.8401 10.73 18.8601 10.87C18.8801 11.01 18.8601 10.94 18.8601 10.98L16.0001 11Z" fill="black"/>
</svg>
