<svg width="24" height="24" viewBox="0 0 24 24" fill="none" xmlns="http://www.w3.org/2000/svg">
<path d="M18.83 9.16979C18.7368 9.07655 18.6261 9.00259 18.5042 8.95213C18.3824 8.90167 18.2519 8.8757 18.12 8.8757C17.9881 8.8757 17.8576 8.90167 17.7358 8.95213C17.6139 9.00259 17.5032 9.07655 17.41 9.16979C17.3168 9.26303 17.2428 9.37372 17.1923 9.49554C17.1419 9.61736 17.1159 9.74793 17.1159 9.87979C17.1159 10.0116 17.1419 10.1422 17.1923 10.264C17.2428 10.3859 17.3168 10.4965 17.41 10.5898C17.7856 10.9631 17.9978 11.4702 18 11.9998C18.0002 12.2911 17.9368 12.579 17.8142 12.8433C17.6915 13.1076 17.5126 13.3419 17.29 13.5298C17.1887 13.6137 17.105 13.7168 17.0437 13.8332C16.9823 13.9495 16.9445 14.0768 16.9325 14.2078C16.9204 14.3388 16.9343 14.4709 16.9733 14.5965C17.0124 14.7221 17.0758 14.8387 17.16 14.9398C17.2447 15.0403 17.3483 15.1232 17.465 15.1836C17.5817 15.2441 17.7092 15.2809 17.8401 15.2921C17.9711 15.3032 18.1029 15.2884 18.2282 15.2486C18.3534 15.2087 18.4696 15.1446 18.57 15.0598C19.0171 14.6849 19.3768 14.2167 19.6238 13.6881C19.8709 13.1595 19.9992 12.5833 20 11.9998C19.9944 10.9399 19.5744 9.92424 18.83 9.16979ZM14.43 4.09979C14.2676 4.02953 14.0895 4.00362 13.9138 4.0247C13.7381 4.04578 13.5712 4.1131 13.43 4.21979L8.65 7.99979H5C4.73478 7.99979 4.48043 8.10514 4.29289 8.29268C4.10536 8.48022 4 8.73457 4 8.99979V14.9998C4 15.265 4.10536 15.5194 4.29289 15.7069C4.48043 15.8944 4.73478 15.9998 5 15.9998H8.65L13.38 19.7798C13.5559 19.9209 13.7744 19.9985 14 19.9998C14.1494 20.0023 14.297 19.9679 14.43 19.8998C14.6002 19.8187 14.744 19.6912 14.8448 19.532C14.9457 19.3728 14.9995 19.1883 15 18.9998V4.99979C14.9995 4.8113 14.9457 4.6268 14.8448 4.46757C14.744 4.30833 14.6002 4.18084 14.43 4.09979ZM13 16.9198L9.62 14.2198C9.44406 14.0786 9.22556 14.0011 9 13.9998H6V9.99979H9C9.22556 9.99848 9.44406 9.92095 9.62 9.77979L13 7.07979V16.9198Z" fill="black"/>
</svg>
