<svg width="24" height="24" viewBox="0 0 24 24" fill="none" xmlns="http://www.w3.org/2000/svg">
<path d="M15.53 14.1302C15.4371 14.0365 15.3265 13.9621 15.2046 13.9113C15.0828 13.8605 14.9521 13.8344 14.82 13.8344C14.688 13.8344 14.5573 13.8605 14.4355 13.9113C14.3136 13.9621 14.203 14.0365 14.11 14.1302C13.9238 14.3176 13.8193 14.571 13.8193 14.8352C13.8193 15.0994 13.9238 15.3528 14.11 15.5402L20.29 21.7202C20.383 21.8139 20.4936 21.8883 20.6155 21.9391C20.7373 21.9899 20.868 22.016 21 22.016C21.1321 22.016 21.2628 21.9899 21.3846 21.9391C21.5065 21.8883 21.6171 21.8139 21.71 21.7202C21.8963 21.5328 22.0008 21.2794 22.0008 21.0152C22.0008 20.751 21.8963 20.4976 21.71 20.3102L15.53 14.1302ZM16.76 11.6402C17.5554 11.6395 18.318 11.323 18.88 10.7602L21.71 7.93021C21.8963 7.74285 22.0008 7.48939 22.0008 7.22521C22.0008 6.96102 21.8963 6.70757 21.71 6.52021C21.6171 6.42648 21.5065 6.35209 21.3846 6.30132C21.2628 6.25055 21.1321 6.22441 21 6.22441C20.868 6.22441 20.7373 6.25055 20.6155 6.30132C20.4936 6.35209 20.383 6.42648 20.29 6.52021L17.46 9.35021C17.2727 9.53646 17.0192 9.641 16.755 9.641C16.4909 9.641 16.2374 9.53646 16.05 9.35021L19.59 5.81021C19.7763 5.62285 19.8808 5.36939 19.8808 5.10521C19.8808 4.84102 19.7763 4.58757 19.59 4.40021C19.4971 4.30648 19.3865 4.23208 19.2646 4.18132C19.1428 4.13055 19.0121 4.10441 18.88 4.10441C18.748 4.10441 18.6173 4.13055 18.4955 4.18132C18.3736 4.23208 18.263 4.30648 18.17 4.40021L14.64 7.93021C14.4538 7.74285 14.3492 7.48939 14.3492 7.22521C14.3492 6.96102 14.4538 6.70757 14.64 6.52021L17.46 3.69021C17.5647 3.60056 17.6497 3.49024 17.7098 3.36618C17.7698 3.24211 17.8035 3.10698 17.8088 2.96926C17.8142 2.83154 17.791 2.69421 17.7407 2.56588C17.6904 2.43756 17.6141 2.32101 17.5167 2.22356C17.4192 2.1261 17.3027 2.04984 17.1744 1.99957C17.046 1.9493 16.9087 1.92609 16.771 1.93141C16.6333 1.93673 16.4981 1.97046 16.3741 2.03048C16.25 2.09051 16.1397 2.17553 16.05 2.28021L13.22 5.11021C12.6582 5.67271 12.3427 6.43521 12.3427 7.23021C12.3427 8.02521 12.6582 8.78771 13.22 9.35021L12 10.5902L10.44 9.05021C10.8828 8.25116 11.0502 7.3286 10.9165 6.42494C10.7827 5.52127 10.3553 4.68675 9.70004 4.05021C8.26004 2.61021 4.53004 1.00021 2.77004 2.79021C1.01004 4.58021 2.60004 8.27021 4.00004 9.72021C4.78187 10.5048 5.83303 10.9625 6.94004 11.0002H7.08004C7.75616 10.9906 8.41803 10.8044 9.00004 10.4602L10.57 12.0002L2.29004 20.2802C2.19746 20.3734 2.12415 20.484 2.0743 20.6056C2.02444 20.7271 1.99902 20.8573 1.99949 20.9887C1.99995 21.1201 2.02629 21.2502 2.077 21.3714C2.12771 21.4926 2.2018 21.6026 2.29504 21.6952C2.38828 21.7878 2.49884 21.8611 2.62041 21.911C2.74198 21.9608 2.87218 21.9862 3.00358 21.9858C3.13497 21.9853 3.26499 21.959 3.38621 21.9082C3.50742 21.8575 3.61746 21.7834 3.71004 21.6902L12.71 12.6902L14.63 10.7702C14.9104 11.0483 15.2428 11.2682 15.6083 11.4175C15.9738 11.5668 16.3652 11.6425 16.76 11.6402ZM8.43004 8.44021C8.2427 8.62644 8.01912 8.77224 7.77314 8.86857C7.52717 8.96489 7.26404 9.0097 7.00004 9.00021C6.41545 8.97503 5.8634 8.7241 5.46004 8.30021C4.38004 7.22021 3.62004 4.77021 4.19004 4.20021C4.37937 4.05739 4.61329 3.98651 4.85004 4.00021C6.12634 4.10193 7.33438 4.61816 8.29004 5.47021C8.69832 5.84793 8.9418 6.37097 8.96799 6.92655C8.99418 7.48213 8.80098 8.02576 8.43004 8.44021Z" fill="black"/>
</svg>
