<svg width="24" height="24" viewBox="0 0 24 24" fill="none" xmlns="http://www.w3.org/2000/svg">
<path d="M22 9.66966C21.9368 9.48674 21.822 9.32608 21.6693 9.20716C21.5167 9.08823 21.3328 9.01615 21.14 8.99966L15.45 8.16966L12.9 2.99966C12.8181 2.83059 12.6902 2.688 12.5311 2.58823C12.3719 2.48846 12.1878 2.43555 12 2.43555C11.8121 2.43555 11.6281 2.48846 11.4689 2.58823C11.3097 2.688 11.1819 2.83059 11.1 2.99966L8.54998 8.15966L2.85998 8.99966C2.6749 9.02596 2.5009 9.10362 2.35773 9.22381C2.21455 9.34401 2.10794 9.50193 2.04998 9.67966C1.99692 9.85333 1.99216 10.0382 2.03621 10.2143C2.08025 10.3905 2.17144 10.5514 2.29998 10.6797L6.42998 14.6797L5.42998 20.3597C5.3896 20.5481 5.40453 20.7442 5.47296 20.9243C5.54139 21.1044 5.66041 21.261 5.81571 21.3751C5.971 21.4891 6.15595 21.5559 6.34831 21.5674C6.54066 21.5789 6.73224 21.5345 6.89998 21.4397L12 18.7697L17.1 21.4397C17.2403 21.5188 17.3988 21.5602 17.56 21.5597C17.7718 21.5604 17.9784 21.4939 18.15 21.3697C18.3051 21.2585 18.4252 21.1053 18.4961 20.9281C18.567 20.7509 18.5857 20.5571 18.55 20.3697L17.55 14.6897L21.68 10.6897C21.8244 10.5673 21.9311 10.4066 21.9877 10.226C22.0444 10.0455 22.0486 9.85253 22 9.66966ZM11 16.9997L7.76998 18.6997L8.48998 14.4997C8.51622 14.3405 8.50354 14.1773 8.45305 14.024C8.40255 13.8708 8.31572 13.7321 8.19998 13.6197L5.19998 10.6197L9.40998 10.0097C9.57198 9.98712 9.72598 9.9252 9.85848 9.82931C9.99098 9.73342 10.0979 9.60649 10.17 9.45966L11 7.72966V16.9997ZM15.8 13.6197C15.6842 13.7321 15.5974 13.8708 15.5469 14.024C15.4964 14.1773 15.4837 14.3405 15.51 14.4997L16.23 18.6997L13 16.9997V7.72966L13.88 9.51966C13.952 9.66649 14.059 9.79342 14.1915 9.88931C14.324 9.9852 14.478 10.0471 14.64 10.0697L18.85 10.6797L15.8 13.6197Z" fill="black"/>
</svg>
