<svg width="24" height="24" viewBox="0 0 24 24" fill="none" xmlns="http://www.w3.org/2000/svg">
<path d="M17 9.28027C17.3956 9.28027 17.7823 9.16298 18.1112 8.94321C18.4401 8.72345 18.6964 8.41109 18.8478 8.04564C18.9991 7.68019 19.0388 7.27806 18.9616 6.89009C18.8844 6.50213 18.6939 6.14577 18.4142 5.86606C18.1345 5.58636 17.7782 5.39587 17.3902 5.3187C17.0022 5.24153 16.6001 5.28114 16.2346 5.43252C15.8692 5.58389 15.5568 5.84024 15.3371 6.16913C15.1173 6.49803 15 6.88471 15 7.28027C15 7.81071 15.2107 8.31942 15.5858 8.69449C15.9609 9.06956 16.4696 9.28027 17 9.28027ZM2.71001 13.9203C2.90817 13.9836 3.0992 14.0674 3.28001 14.1703C3.90194 14.5341 4.60949 14.7258 5.33001 14.7258C6.05054 14.7258 6.75808 14.5341 7.38001 14.1703C7.77109 13.9513 8.2118 13.8363 8.66001 13.8363C9.10822 13.8363 9.54893 13.9513 9.94001 14.1703L10.15 14.2703C10.7568 14.5657 11.4266 14.7083 12.1011 14.6856C12.7757 14.663 13.4344 14.4757 14.02 14.1403C14.4111 13.9213 14.8518 13.8063 15.3 13.8063C15.7482 13.8063 16.1889 13.9213 16.58 14.1403C17.2138 14.5025 17.9301 14.6953 18.66 14.7003C19.3644 14.693 20.0543 14.4998 20.66 14.1403C20.8408 14.0374 21.0319 13.9536 21.23 13.8903C21.3778 13.8801 21.5215 13.8372 21.6507 13.7647C21.7799 13.6922 21.8914 13.5919 21.9771 13.4711C22.0628 13.3502 22.1205 13.2118 22.1462 13.0659C22.1719 12.92 22.1648 12.7702 22.1255 12.6274C22.0862 12.4845 22.0157 12.3522 21.919 12.2399C21.8223 12.1277 21.7018 12.0383 21.5664 11.9783C21.4309 11.9183 21.2838 11.8892 21.1357 11.893C20.9876 11.8968 20.8422 11.9334 20.71 12.0003C20.3611 12.1086 20.0256 12.2562 19.71 12.4403C19.3908 12.6246 19.0286 12.7216 18.66 12.7216C18.2914 12.7216 17.9293 12.6246 17.61 12.4403C16.9173 12.0495 16.1354 11.8441 15.34 11.8441C14.5446 11.8441 13.7628 12.0495 13.07 12.4403C12.9759 12.4863 12.8791 12.5263 12.78 12.5603L14.34 11.0003C14.3758 10.954 14.406 10.9036 14.43 10.8503C14.4753 10.8011 14.5155 10.7475 14.55 10.6903C14.5547 10.627 14.5547 10.5635 14.55 10.5003C14.5557 10.4371 14.5557 10.3735 14.55 10.3103C14.5548 10.2504 14.5548 10.1902 14.55 10.1303C14.5557 10.0671 14.5557 10.0035 14.55 9.94027C14.5204 9.88149 14.487 9.8247 14.45 9.77027C14.4241 9.71267 14.3904 9.65885 14.35 9.61027L11.28 6.28027C11.1992 6.19222 11.1047 6.11791 11 6.06027C10.9303 6.05105 10.8597 6.05105 10.79 6.06027C10.7337 6.05113 10.6763 6.05113 10.62 6.06027C10.4869 6.00671 10.3428 5.98612 10.2 6.00027L6.66001 7.32027C6.41078 7.41054 6.20757 7.59606 6.09507 7.83608C5.98256 8.0761 5.96995 8.35097 6.06001 8.60027C6.15028 8.84951 6.3358 9.05271 6.57582 9.16522C6.81584 9.27773 7.0907 9.29034 7.34001 9.20027L10.27 8.13027L12.27 10.2503L10.37 12.1503C9.73342 11.9028 9.04987 11.7996 8.36858 11.848C7.68729 11.8964 7.02522 12.0953 6.43001 12.4303C6.11077 12.6146 5.74864 12.7116 5.38001 12.7116C5.01139 12.7116 4.64925 12.6146 4.33001 12.4303C4.01443 12.2462 3.67894 12.0986 3.33001 11.9903C3.20206 11.9425 3.06569 11.9215 2.92931 11.9285C2.79292 11.9355 2.65941 11.9703 2.53701 12.0309C2.4146 12.0914 2.3059 12.1764 2.2176 12.2806C2.1293 12.3848 2.06327 12.5059 2.02359 12.6366C1.98391 12.7673 1.97142 12.9047 1.98688 13.0404C2.00234 13.1761 2.04543 13.3072 2.11349 13.4256C2.18155 13.544 2.27314 13.6472 2.38261 13.7288C2.49209 13.8104 2.61712 13.8688 2.75001 13.9003L2.71001 13.9203ZM20.71 17.0103C20.3611 17.1186 20.0256 17.2662 19.71 17.4503C19.3908 17.6346 19.0286 17.7316 18.66 17.7316C18.2914 17.7316 17.9293 17.6346 17.61 17.4503C16.9173 17.0595 16.1354 16.8541 15.34 16.8541C14.5446 16.8541 13.7628 17.0595 13.07 17.4503C12.7481 17.6373 12.3824 17.7359 12.01 17.7359C11.6377 17.7359 11.272 17.6373 10.95 17.4503C10.2573 17.0595 9.47538 16.8541 8.68001 16.8541C7.88465 16.8541 7.10275 17.0595 6.41001 17.4503C6.09077 17.6346 5.72864 17.7316 5.36001 17.7316C4.99139 17.7316 4.62925 17.6346 4.31001 17.4503C3.99443 17.2662 3.65894 17.1186 3.31001 17.0103C3.18206 16.9625 3.04569 16.9415 2.90931 16.9485C2.77292 16.9555 2.63941 16.9903 2.51701 17.0509C2.3946 17.1114 2.2859 17.1964 2.1976 17.3006C2.1093 17.4048 2.04327 17.526 2.00359 17.6566C1.96391 17.7873 1.95142 17.9247 1.96688 18.0604C1.98234 18.1961 2.02543 18.3272 2.09349 18.4456C2.16155 18.564 2.25314 18.6672 2.36261 18.7488C2.47209 18.8304 2.59712 18.8888 2.73001 18.9203C2.92817 18.9836 3.11919 19.0674 3.30001 19.1703C3.92194 19.5341 4.62949 19.7258 5.35001 19.7258C6.07054 19.7258 6.77808 19.5341 7.40001 19.1703C7.79109 18.9513 8.2318 18.8363 8.68001 18.8363C9.12822 18.8363 9.56894 18.9513 9.96001 19.1703C10.5873 19.529 11.2974 19.7177 12.02 19.7177C12.7426 19.7177 13.4527 19.529 14.08 19.1703C14.4711 18.9513 14.9118 18.8363 15.36 18.8363C15.8082 18.8363 16.2489 18.9513 16.64 19.1703C17.2738 19.5325 17.9901 19.7253 18.72 19.7303C19.4244 19.723 20.1143 19.5298 20.72 19.1703C20.9008 19.0674 21.0919 18.9836 21.29 18.9203C21.4161 18.8822 21.5334 18.8197 21.6353 18.7362C21.7372 18.6528 21.8217 18.5501 21.8839 18.434C21.9461 18.318 21.9849 18.1908 21.9979 18.0597C22.011 17.9287 21.9981 17.7963 21.96 17.6703C21.9219 17.5442 21.8594 17.4269 21.776 17.325C21.6925 17.2231 21.5898 17.1386 21.4738 17.0764C21.3577 17.0142 21.2305 16.9754 21.0995 16.9624C20.9684 16.9493 20.8361 16.9622 20.71 17.0003V17.0103Z" fill="black"/>
</svg>
