<svg width="24" height="24" viewBox="0 0 24 24" fill="none" xmlns="http://www.w3.org/2000/svg">
<path d="M18.0001 2.7803C17.9493 2.55472 17.8219 2.35371 17.6396 2.2115C17.4572 2.06928 17.2313 1.99465 17.0001 2.0003H7.00009C6.76893 1.99465 6.54295 2.06928 6.36063 2.2115C6.1783 2.35371 6.05089 2.55472 6.00009 2.7803L4.00009 11.7803C3.96698 11.9279 3.96777 12.0811 4.00241 12.2283C4.03706 12.3755 4.10464 12.513 4.20009 12.6303C4.29631 12.749 4.41845 12.8441 4.55713 12.9082C4.69581 12.9723 4.84734 13.0038 5.00009 13.0003H8.94009C8.98031 13.3321 9.00034 13.6661 9.00009 14.0003C9.00946 16.3574 8.08549 18.6223 6.43009 20.3003C6.29249 20.4407 6.19931 20.6185 6.1622 20.8116C6.1251 21.0046 6.14571 21.2043 6.22147 21.3857C6.29723 21.5671 6.42477 21.7221 6.58816 21.8314C6.75154 21.9408 6.94352 21.9995 7.14009 22.0003H16.8601C17.0567 21.9995 17.2486 21.9408 17.412 21.8314C17.5754 21.7221 17.703 21.5671 17.7787 21.3857C17.8545 21.2043 17.8751 21.0046 17.838 20.8116C17.8009 20.6185 17.7077 20.4407 17.5701 20.3003C15.9147 18.6223 14.9907 16.3574 15.0001 14.0003C14.9998 13.6661 15.0199 13.3321 15.0601 13.0003H16.0001V15.0003C16.0001 15.2655 16.1054 15.5199 16.293 15.7074C16.4805 15.8949 16.7349 16.0003 17.0001 16.0003C17.2653 16.0003 17.5197 15.8949 17.7072 15.7074C17.8947 15.5199 18.0001 15.2655 18.0001 15.0003V13.0003H19.0001C19.1495 13.0008 19.2971 12.9678 19.4321 12.9038C19.5671 12.8398 19.686 12.7463 19.7801 12.6303C19.8755 12.513 19.9431 12.3755 19.9778 12.2283C20.0124 12.0811 20.0132 11.9279 19.9801 11.7803L18.0001 2.7803ZM9.22009 20.0003C10.3872 18.2173 11.006 16.1313 11.0001 14.0003C11.0001 13.6703 11.0001 13.3303 10.9501 13.0003H13.0501C13.0501 13.3303 13.0001 13.6703 13.0001 14.0003C12.9942 16.1313 13.613 18.2173 14.7801 20.0003H9.22009ZM6.22009 11.0003L7.80009 4.0003H16.2001L17.7501 11.0003H6.22009Z" fill="black"/>
</svg>
