<svg width="24" height="24" viewBox="0 0 24 24" fill="none" xmlns="http://www.w3.org/2000/svg">
<path d="M18.9999 3.00006C18.7192 2.68621 18.3755 2.43497 17.9913 2.26268C17.6071 2.09039 17.1909 2.00091 16.7699 2.00006H7.22988C6.80654 1.99749 6.38745 2.08454 6.00016 2.25551C5.61287 2.42647 5.26615 2.67747 4.98279 2.992C4.69943 3.30653 4.48584 3.67747 4.35608 4.08044C4.22631 4.48341 4.18331 4.90928 4.22988 5.33006L5.78988 19.3301C5.87145 20.0672 6.22318 20.748 6.7772 21.2411C7.33122 21.7342 8.04824 22.0046 8.78988 22.0001H15.2099C15.9515 22.0046 16.6685 21.7342 17.2226 21.2411C17.7766 20.748 18.1283 20.0672 18.2099 19.3301L19.7699 5.33006C19.813 4.90935 19.7667 4.48428 19.634 4.08272C19.5013 3.68117 19.2852 3.31221 18.9999 3.00006ZM16.1999 19.1101C16.1727 19.3558 16.0554 19.5827 15.8708 19.7471C15.6861 19.9114 15.4471 20.0016 15.1999 20.0001H8.78988C8.54267 20.0016 8.30366 19.9114 8.11899 19.7471C7.93432 19.5827 7.81707 19.3558 7.78988 19.1101L6.77988 10.0001H17.2199L16.1999 19.1101ZM17.4399 8.00006H6.55988L6.23988 5.11006C6.22413 4.96976 6.23827 4.82772 6.28136 4.69328C6.32445 4.55885 6.39551 4.43506 6.48988 4.33006C6.58338 4.22646 6.69752 4.14358 6.82496 4.08675C6.95241 4.02992 7.09034 4.00039 7.22988 4.00006H16.7699C16.9094 4.00039 17.0474 4.02992 17.1748 4.08675C17.3022 4.14358 17.4164 4.22646 17.5099 4.33006C17.6042 4.43506 17.6753 4.55885 17.7184 4.69328C17.7615 4.82772 17.7756 4.96976 17.7599 5.11006L17.4399 8.00006ZM13.9999 18.0001C14.2651 18.0001 14.5195 17.8947 14.707 17.7072C14.8945 17.5196 14.9999 17.2653 14.9999 17.0001V13.0001C14.9999 12.7348 14.8945 12.4805 14.707 12.2929C14.5195 12.1054 14.2651 12.0001 13.9999 12.0001C13.7347 12.0001 13.4803 12.1054 13.2928 12.2929C13.1052 12.4805 12.9999 12.7348 12.9999 13.0001V17.0001C12.9999 17.2653 13.1052 17.5196 13.2928 17.7072C13.4803 17.8947 13.7347 18.0001 13.9999 18.0001ZM9.99988 18.0001C10.2651 18.0001 10.5195 17.8947 10.707 17.7072C10.8945 17.5196 10.9999 17.2653 10.9999 17.0001V13.0001C10.9999 12.7348 10.8945 12.4805 10.707 12.2929C10.5195 12.1054 10.2651 12.0001 9.99988 12.0001C9.73467 12.0001 9.48031 12.1054 9.29278 12.2929C9.10524 12.4805 8.99988 12.7348 8.99988 13.0001V17.0001C8.99988 17.2653 9.10524 17.5196 9.29278 17.7072C9.48031 17.8947 9.73467 18.0001 9.99988 18.0001Z" fill="black"/>
</svg>
