<svg width="24" height="24" viewBox="0 0 24 24" fill="none" xmlns="http://www.w3.org/2000/svg">
<path d="M19.8701 8.59961C19.7956 8.42833 19.6746 8.28134 19.5209 8.17529C19.3671 8.06925 19.1867 8.00839 19.0001 7.99961H14.4201L15.6901 3.25961C15.7306 3.11128 15.7363 2.95563 15.7068 2.80474C15.6773 2.65386 15.6134 2.5118 15.5201 2.38961C15.427 2.2686 15.3073 2.17052 15.1704 2.10292C15.0334 2.03532 14.8828 1.99998 14.7301 1.99961H7.73012C7.50436 1.99188 7.28263 2.06081 7.10104 2.19518C6.91946 2.32955 6.78872 2.52145 6.73012 2.73961L4.05012 12.7396C4.00967 12.8879 4.00397 13.0436 4.03345 13.1945C4.06294 13.3454 4.12681 13.4874 4.22012 13.6096C4.31431 13.732 4.43555 13.8309 4.57434 13.8985C4.71314 13.9662 4.86572 14.0008 5.02012 13.9996H8.89012L7.08012 20.7396C7.02082 20.9569 7.03664 21.1879 7.12502 21.3952C7.21341 21.6024 7.36917 21.7737 7.56708 21.8813C7.76499 21.989 7.99344 22.0266 8.21543 21.9882C8.43741 21.9498 8.63991 21.8375 8.79012 21.6696L19.6901 9.66961C19.8199 9.52749 19.9059 9.35094 19.9379 9.16115C19.9698 8.97135 19.9463 8.77637 19.8701 8.59961ZM10.0801 17.2796L11.1501 13.2796C11.1906 13.1313 11.1963 12.9756 11.1668 12.8247C11.1373 12.6739 11.0734 12.5318 10.9801 12.4096C10.887 12.2886 10.7673 12.1905 10.6304 12.1229C10.4934 12.0553 10.3428 12.02 10.1901 12.0196H6.35012L8.49012 3.99961H13.4201L12.1501 8.73961C12.1093 8.89067 12.1046 9.04918 12.1362 9.20241C12.1679 9.35564 12.235 9.49931 12.3323 9.62187C12.4295 9.74442 12.5542 9.84244 12.6963 9.90805C12.8383 9.97366 12.9938 10.005 13.1501 9.99961H16.7201L10.0801 17.2796Z" fill="black"/>
</svg>
