<svg width="24" height="24" viewBox="0 0 24 24" fill="none" xmlns="http://www.w3.org/2000/svg">
<path d="M7.70994 6.29019L3.70994 2.29019C3.6167 2.19695 3.50601 2.12299 3.38419 2.07253C3.26237 2.02207 3.1318 1.99609 2.99994 1.99609C2.86808 1.99609 2.73751 2.02207 2.61569 2.07253C2.49387 2.12299 2.38318 2.19695 2.28994 2.29019C2.10164 2.47849 1.99585 2.73388 1.99585 3.00019C1.99585 3.26649 2.10164 3.52188 2.28994 3.71019L4.61994 6.00019C3.89184 6.09314 3.22308 6.4498 2.74025 7.00265C2.25742 7.55551 1.99403 8.2662 1.99994 9.00019V15.0002C1.99994 15.7958 2.31601 16.5589 2.87862 17.1215C3.44123 17.6841 4.20429 18.0002 4.99994 18.0002H13.9999C14.694 17.9969 15.3655 17.7531 15.8999 17.3102L20.2899 21.7102C20.3829 21.8039 20.4935 21.8783 20.6154 21.9291C20.7372 21.9798 20.8679 22.006 20.9999 22.006C21.132 22.006 21.2627 21.9798 21.3845 21.9291C21.5064 21.8783 21.617 21.8039 21.7099 21.7102C21.8037 21.6172 21.8781 21.5066 21.9288 21.3848C21.9796 21.2629 22.0057 21.1322 22.0057 21.0002C22.0057 20.8682 21.9796 20.7375 21.9288 20.6156C21.8781 20.4937 21.8037 20.3831 21.7099 20.2902L7.70994 6.29019ZM13.9999 16.0002H4.99994C4.73472 16.0002 4.48037 15.8948 4.29283 15.7073C4.1053 15.5198 3.99994 15.2654 3.99994 15.0002V9.00019C3.99994 8.73497 4.1053 8.48062 4.29283 8.29308C4.48037 8.10554 4.73472 8.00019 4.99994 8.00019H6.58994L14.4599 15.8802C14.3185 15.9566 14.1607 15.9977 13.9999 16.0002ZM21.5299 7.15019C21.3779 7.06242 21.2055 7.01621 21.0299 7.01621C20.8544 7.01621 20.682 7.06242 20.5299 7.15019L16.9999 8.89019C16.9715 8.11376 16.6428 7.37866 16.0833 6.83962C15.5237 6.30059 14.7769 5.99966 13.9999 6.00019H12.6599C12.3947 6.00019 12.1404 6.10554 11.9528 6.29308C11.7653 6.48062 11.6599 6.73497 11.6599 7.00019C11.6599 7.2654 11.7653 7.51976 11.9528 7.70729C12.1404 7.89483 12.3947 8.00019 12.6599 8.00019H13.9999C14.2652 8.00019 14.5195 8.10554 14.707 8.29308C14.8946 8.48062 14.9999 8.73497 14.9999 9.00019V10.5002C14.9962 10.5635 14.9962 10.6269 14.9999 10.6902C15.0059 10.7591 15.0227 10.8266 15.0499 10.8902C15.0499 10.8902 15.0999 10.9502 15.1199 10.9902C15.1607 11.0664 15.2111 11.137 15.2699 11.2002C15.2699 11.2002 15.3699 11.2602 15.4199 11.3002L15.5899 11.4102C15.6663 11.4206 15.7436 11.4206 15.8199 11.4102C15.8665 11.4149 15.9134 11.4149 15.9599 11.4102C16.0232 11.4139 16.0867 11.4139 16.1499 11.4102C16.2188 11.4043 16.2864 11.3874 16.3499 11.3602L19.9999 9.62019V15.3402C19.9999 15.6054 20.1053 15.8598 20.2928 16.0473C20.4804 16.2348 20.7347 16.3402 20.9999 16.3402C21.2652 16.3402 21.5195 16.2348 21.707 16.0473C21.8946 15.8598 21.9999 15.6054 21.9999 15.3402V8.00019C22.0003 7.83024 21.9573 7.66301 21.8751 7.51429C21.7928 7.36557 21.6741 7.24026 21.5299 7.15019Z" fill="black"/>
</svg>
