<svg width="24" height="24" viewBox="0 0 24 24" fill="none" xmlns="http://www.w3.org/2000/svg">
<path d="M16.93 4.09979C16.7676 4.02953 16.5895 4.00362 16.4138 4.0247C16.2381 4.04578 16.0712 4.1131 15.93 4.21979L11.15 7.99979H7.5C7.23478 7.99979 6.98043 8.10514 6.79289 8.29268C6.60536 8.48022 6.5 8.73457 6.5 8.99979V14.9998C6.5 15.265 6.60536 15.5194 6.79289 15.7069C6.98043 15.8944 7.23478 15.9998 7.5 15.9998H11.15L15.88 19.7798C16.0559 19.9209 16.2744 19.9985 16.5 19.9998C16.6494 20.0023 16.797 19.9679 16.93 19.8998C17.1002 19.8187 17.244 19.6912 17.3448 19.532C17.4457 19.3728 17.4995 19.1883 17.5 18.9998V4.99979C17.4995 4.8113 17.4457 4.6268 17.3448 4.46757C17.244 4.30833 17.1002 4.18084 16.93 4.09979ZM15.5 16.9198L12.12 14.2198C11.9441 14.0786 11.7256 14.0011 11.5 13.9998H8.5V9.99979H11.5C11.7256 9.99848 11.9441 9.92095 12.12 9.77979L15.5 7.07979V16.9198Z" fill="black"/>
</svg>
