<svg width="24" height="24" viewBox="0 0 24 24" fill="none" xmlns="http://www.w3.org/2000/svg">
<path d="M12.43 4.09979C12.2676 4.02953 12.0895 4.00362 11.9138 4.0247C11.7381 4.04578 11.5712 4.1131 11.43 4.21979L6.65 7.99979H3C2.73478 7.99979 2.48043 8.10514 2.29289 8.29268C2.10536 8.48022 2 8.73457 2 8.99979V14.9998C2 15.265 2.10536 15.5194 2.29289 15.7069C2.48043 15.8944 2.73478 15.9998 3 15.9998H6.65L11.38 19.7798C11.5559 19.9209 11.7744 19.9985 12 19.9998C12.1494 20.0023 12.297 19.9679 12.43 19.8998C12.6002 19.8187 12.744 19.6912 12.8448 19.532C12.9457 19.3728 12.9995 19.1883 13 18.9998V4.99979C12.9995 4.8113 12.9457 4.6268 12.8448 4.46757C12.744 4.30833 12.6002 4.18084 12.43 4.09979ZM11 16.9198L7.62 14.2198C7.44406 14.0786 7.22556 14.0011 7 13.9998H4V9.99979H7C7.22556 9.99848 7.44406 9.92095 7.62 9.77979L11 7.07979V16.9198ZM15.14 4.08979C15.0087 4.0714 14.875 4.07906 14.7467 4.11233C14.6183 4.1456 14.4977 4.20383 14.3919 4.28369C14.286 4.36354 14.1969 4.46347 14.1297 4.57776C14.0625 4.69205 14.0184 4.81847 14 4.94979C13.9816 5.08111 13.9893 5.21477 14.0225 5.34313C14.0558 5.47149 14.114 5.59204 14.1939 5.6979C14.3552 5.91169 14.5948 6.05266 14.86 6.08979C16.2762 6.30803 17.5676 7.02591 18.5004 8.11358C19.4333 9.20124 19.9462 10.5869 19.9462 12.0198C19.9462 13.4527 19.4333 14.8383 18.5004 15.926C17.5676 17.0137 16.2762 17.7315 14.86 17.9498C14.5948 17.9684 14.3478 18.0915 14.1734 18.2922C13.999 18.4928 13.9114 18.7546 13.93 19.0198C13.9486 19.285 14.0717 19.532 14.2724 19.7064C14.4731 19.8808 14.7348 19.9684 15 19.9498H15.14C17.0328 19.6634 18.7602 18.7078 20.0086 17.2564C21.2569 15.8051 21.9434 13.9542 21.9434 12.0398C21.9434 10.1254 21.2569 8.27451 20.0086 6.82313C18.7602 5.37175 17.0328 4.41614 15.14 4.12979V4.08979ZM14.68 13.8698C14.4148 13.9122 14.1773 14.0583 14.0198 14.2758C13.8622 14.4934 13.7976 14.7646 13.84 15.0298C13.8824 15.295 14.0285 15.5325 14.246 15.69C14.4636 15.8476 14.7348 15.9122 15 15.8698C15.1085 15.8686 15.2163 15.8517 15.32 15.8198C16.099 15.5436 16.7733 15.0328 17.2502 14.3577C17.7271 13.6826 17.9832 12.8763 17.9832 12.0498C17.9832 11.2232 17.7271 10.417 17.2502 9.7419C16.7733 9.06681 16.099 8.55602 15.32 8.27979C15.068 8.19492 14.7927 8.21361 14.5545 8.33176C14.3164 8.44991 14.1349 8.65783 14.05 8.90979C13.9651 9.16174 13.9838 9.43709 14.102 9.67526C14.2201 9.91344 14.428 10.0949 14.68 10.1798C15.0595 10.3237 15.3862 10.5797 15.6167 10.9137C15.8472 11.2477 15.9707 11.6439 15.9707 12.0498C15.9707 12.4556 15.8472 12.8519 15.6167 13.1859C15.3862 13.5199 15.0595 13.7759 14.68 13.9198V13.8698Z" fill="black"/>
</svg>
