<svg width="24" height="24" viewBox="0 0 24 24" fill="none" xmlns="http://www.w3.org/2000/svg">
<path d="M12.56 2.16955C12.3946 2.05778 12.1996 1.99805 12 1.99805C11.8004 1.99805 11.6054 2.05778 11.44 2.16955C11.14 2.36955 4.25 7.16955 4.25 14.2496C4.25 16.305 5.06652 18.2762 6.51992 19.7296C7.97333 21.183 9.94457 21.9996 12 21.9996C14.0554 21.9996 16.0267 21.183 17.4801 19.7296C18.9335 18.2762 19.75 16.305 19.75 14.2496C19.75 7.04955 12.85 2.35955 12.56 2.16955ZM12 19.9996C10.4758 19.9969 9.01482 19.3903 7.93706 18.3125C6.85929 17.2347 6.25264 15.7737 6.25 14.2496C6.25 9.24955 10.46 5.47955 12 4.24955C13.55 5.45955 17.75 9.24955 17.75 14.2496C17.7474 15.7737 17.1407 17.2347 16.0629 18.3125C14.9852 19.3903 13.5242 19.9969 12 19.9996Z" fill="black"/>
</svg>
