<svg width="24" height="24" viewBox="0 0 24 24" fill="none" xmlns="http://www.w3.org/2000/svg">
<path d="M18.08 6.99955C17.9486 6.98862 17.8163 7.00378 17.6908 7.04416C17.5653 7.08455 17.449 7.14936 17.3486 7.23487C17.2482 7.32037 17.1658 7.42489 17.1059 7.54239C17.0461 7.6599 17.0101 7.78808 17 7.91955L16.65 12.4696C16.1876 12.3264 15.7728 12.0603 15.45 11.6996C15.3562 11.5931 15.2408 11.5079 15.1115 11.4496C14.9822 11.3912 14.8419 11.361 14.7 11.361C14.5582 11.361 14.4179 11.3912 14.2886 11.4496C14.1593 11.5079 14.0439 11.5931 13.95 11.6996C13.7018 11.9693 13.4004 12.1846 13.0647 12.3318C12.7291 12.4791 12.3666 12.5551 12 12.5551C11.6335 12.5551 11.271 12.4791 10.9353 12.3318C10.5997 12.1846 10.2982 11.9693 10.05 11.6996C9.95619 11.5931 9.84078 11.5079 9.71147 11.4496C9.58215 11.3912 9.4419 11.361 9.30003 11.361C9.15815 11.361 9.0179 11.3912 8.88859 11.4496C8.75928 11.5079 8.64387 11.5931 8.55003 11.6996C8.22625 12.0591 7.81179 12.325 7.35003 12.4696L7.00003 7.91955C6.98993 7.78808 6.95394 7.6599 6.89411 7.54239C6.83428 7.42489 6.75181 7.32037 6.65143 7.23487C6.55105 7.14936 6.43475 7.08455 6.30923 7.04416C6.1837 7.00378 6.05143 6.98862 5.92003 6.99955C5.78855 7.00965 5.66037 7.04565 5.54287 7.10547C5.42536 7.1653 5.32085 7.24778 5.23534 7.34815C5.14983 7.44853 5.08502 7.56483 5.04464 7.69035C5.00425 7.81588 4.98909 7.94815 5.00003 8.07955L5.86003 19.2296C5.91809 19.9847 6.25961 20.6899 6.81605 21.2037C7.37249 21.7175 8.10267 22.0018 8.86003 21.9996H15.16C15.9174 22.0018 16.6476 21.7175 17.204 21.2037C17.7604 20.6899 18.102 19.9847 18.16 19.2296L19 8.07955C19.011 7.94815 18.9958 7.81588 18.9554 7.69035C18.915 7.56483 18.8502 7.44853 18.7647 7.34815C18.6792 7.24778 18.5747 7.1653 18.4572 7.10547C18.3397 7.04565 18.2115 7.00965 18.08 6.99955ZM16.14 19.0796C16.1199 19.3307 16.0057 19.5649 15.8203 19.7355C15.6349 19.9061 15.3919 20.0004 15.14 19.9996H8.85003C8.59811 20.0004 8.35516 19.9061 8.16977 19.7355C7.98437 19.5649 7.87018 19.3307 7.85003 19.0796L7.50003 14.4996C8.14837 14.364 8.76138 14.095 9.30003 13.7096C10.0887 14.2702 11.0324 14.5715 12 14.5715C12.9677 14.5715 13.9113 14.2702 14.7 13.7096C15.2387 14.095 15.8517 14.364 16.5 14.4996L16.14 19.0796ZM12 9.99955C12.8612 9.99692 13.6863 9.65366 14.2952 9.04474C14.9041 8.43581 15.2474 7.6107 15.25 6.74955C15.25 3.99955 12.67 2.23955 12.56 2.16955C12.3947 2.05778 12.1996 1.99805 12 1.99805C11.8004 1.99805 11.6054 2.05778 11.44 2.16955C11.33 2.24955 8.75003 3.99955 8.75003 6.74955C8.75266 7.6107 9.09592 8.43581 9.70484 9.04474C10.3138 9.65366 11.1389 9.99692 12 9.99955ZM12 4.29955C12.7237 4.91928 13.173 5.79994 13.25 6.74955C13.25 7.08107 13.1183 7.39902 12.8839 7.63344C12.6495 7.86786 12.3315 7.99955 12 7.99955C11.6685 7.99955 11.3506 7.86786 11.1161 7.63344C10.8817 7.39902 10.75 7.08107 10.75 6.74955C10.8323 5.80143 11.2807 4.92265 12 4.29955Z" fill="black"/>
</svg>
