<svg width="24" height="24" viewBox="0 0 24 24" fill="none" xmlns="http://www.w3.org/2000/svg">
<path d="M6.92005 5.51019L3.71005 2.29019C3.61681 2.19695 3.50612 2.12299 3.38429 2.07253C3.26247 2.02207 3.1319 1.99609 3.00005 1.99609C2.86819 1.99609 2.73762 2.02207 2.6158 2.07253C2.49397 2.12299 2.38328 2.19695 2.29005 2.29019C2.10174 2.47849 1.99595 2.73388 1.99595 3.00019C1.99595 3.26649 2.10174 3.52188 2.29005 3.71019L4.56005 6.00019C3.40701 6.65567 2.34467 7.45915 1.40005 8.39019C1.21379 8.57755 1.10925 8.831 1.10925 9.09519C1.10925 9.35937 1.21379 9.61282 1.40005 9.80019C1.49266 9.89467 1.6031 9.96984 1.72498 10.0213C1.84686 10.0728 1.97774 10.0996 2.11005 10.1002C2.37239 10.0991 2.62379 9.99493 2.81005 9.81019C3.76299 8.86515 4.8558 8.07252 6.05005 7.46019L7.54005 9.00019C6.30078 9.54188 5.17451 10.312 4.22005 11.2702C4.11605 11.3606 4.03187 11.4715 3.97277 11.596C3.91367 11.7205 3.88093 11.8558 3.87661 11.9935C3.87229 12.1313 3.89648 12.2684 3.94767 12.3963C3.99885 12.5243 4.07592 12.6402 4.17404 12.737C4.27217 12.8337 4.38923 12.9091 4.51788 12.9585C4.64652 13.0079 4.78399 13.0301 4.92164 13.0238C5.05929 13.0176 5.19416 12.9829 5.31779 12.9221C5.44141 12.8612 5.55113 12.7754 5.64005 12.6702C6.60961 11.7049 7.79088 10.9791 9.09005 10.5502L10.71 12.1602C9.32372 12.4269 8.04899 13.1026 7.05005 14.1002C6.94605 14.1906 6.86187 14.3015 6.80277 14.426C6.74367 14.5505 6.71093 14.6858 6.70661 14.8235C6.70229 14.9613 6.72648 15.0984 6.77767 15.2263C6.82885 15.3543 6.90592 15.4702 7.00404 15.567C7.10217 15.6637 7.21923 15.7391 7.34788 15.7885C7.47652 15.8379 7.61399 15.8601 7.75164 15.8538C7.88929 15.8476 8.02416 15.8129 8.14779 15.7521C8.27141 15.6912 8.38113 15.6054 8.47005 15.5002C8.93075 15.0301 9.47973 14.6557 10.0855 14.3982C10.6913 14.1408 11.3419 14.0056 12 14.0002C12.211 14.0007 12.4216 14.0175 12.63 14.0502L20.29 21.7102C20.383 21.8039 20.4936 21.8783 20.6155 21.9291C20.7373 21.9798 20.868 22.006 21 22.006C21.1321 22.006 21.2628 21.9798 21.3846 21.9291C21.5065 21.8783 21.6171 21.8039 21.71 21.7102C21.8038 21.6172 21.8782 21.5066 21.9289 21.3848C21.9797 21.2629 22.0058 21.1322 22.0058 21.0002C22.0058 20.8682 21.9797 20.7375 21.9289 20.6156C21.8782 20.4937 21.8038 20.3831 21.71 20.2902L6.92005 5.51019ZM12 16.0002C11.4067 16.0002 10.8267 16.1761 10.3333 16.5058C9.83999 16.8354 9.45547 17.304 9.22841 17.8521C9.00134 18.4003 8.94193 19.0035 9.05769 19.5855C9.17345 20.1674 9.45917 20.7019 9.87873 21.1215C10.2983 21.5411 10.8328 21.8268 11.4148 21.9425C11.9967 22.0583 12.5999 21.9989 13.1481 21.7718C13.6963 21.5448 14.1648 21.1602 14.4945 20.6669C14.8241 20.1735 15 19.5935 15 19.0002C15 18.2045 14.684 17.4415 14.1214 16.8789C13.5588 16.3163 12.7957 16.0002 12 16.0002ZM12 20.0002C11.8023 20.0002 11.6089 19.9415 11.4445 19.8317C11.28 19.7218 11.1519 19.5656 11.0762 19.3829C11.0005 19.2001 10.9807 18.9991 11.0193 18.8051C11.0578 18.6111 11.1531 18.4329 11.2929 18.2931C11.4328 18.1532 11.611 18.058 11.805 18.0194C11.9989 17.9808 12.2 18.0006 12.3827 18.0763C12.5655 18.152 12.7216 18.2802 12.8315 18.4446C12.9414 18.6091 13 18.8024 13 19.0002C13 19.2654 12.8947 19.5198 12.7072 19.7073C12.5196 19.8948 12.2653 20.0002 12 20.0002ZM22.61 8.39019C21.0121 6.79361 19.0741 5.57856 16.9408 4.83572C14.8076 4.09289 12.5341 3.84145 10.29 4.10019C10.1587 4.11463 10.0315 4.1548 9.91574 4.2184C9.79994 4.282 9.6978 4.36779 9.61516 4.47086C9.44825 4.67903 9.37087 4.94497 9.40005 5.21019C9.42922 5.4754 9.56256 5.71817 9.77072 5.88507C9.97889 6.05198 10.2448 6.12936 10.51 6.10019C12.456 5.87809 14.427 6.09619 16.2774 6.73836C18.1277 7.38052 19.81 8.43033 21.2 9.81019C21.3883 9.99716 21.6432 10.1017 21.9086 10.1007C22.1739 10.0998 22.4281 9.99349 22.615 9.80519C22.802 9.61688 22.9065 9.36201 22.9056 9.09665C22.9047 8.83129 22.7983 8.57716 22.61 8.39019ZM18.36 12.6302C18.5502 12.7955 18.7957 12.8829 19.0475 12.875C19.2993 12.8671 19.5388 12.7645 19.7182 12.5876C19.8976 12.4107 20.0036 12.1727 20.0151 11.921C20.0265 11.6693 19.9426 11.4226 19.78 11.2302C18.4443 9.87898 16.7742 8.90594 14.94 8.41019C14.8094 8.35971 14.6695 8.33725 14.5296 8.34427C14.3897 8.35129 14.2528 8.38763 14.1279 8.45093C14.0029 8.51423 13.8926 8.60308 13.8042 8.71173C13.7158 8.82037 13.6511 8.94639 13.6145 9.0816C13.5779 9.21682 13.5701 9.35822 13.5916 9.49665C13.6131 9.63507 13.6635 9.76743 13.7394 9.88514C13.8154 10.0029 13.9152 10.1033 14.0325 10.18C14.1497 10.2566 14.2818 10.3078 14.42 10.3302C15.9102 10.7432 17.2677 11.5357 18.36 12.6302Z" fill="black"/>
</svg>
