<svg width="24" height="24" viewBox="0 0 24 24" fill="none" xmlns="http://www.w3.org/2000/svg">
<path d="M12.8 13.4C12.7 13.3 12.7 13.2 12.6 13.2C12.1 12.9 11.5 13 11.1 13.4L7.1 19.4C7.1 19.6 7 19.8 7 20C7 20.6 7.4 21 8 21H16C16.2 21 16.4 20.9 16.6 20.8C17.1 20.5 17.2 19.9 16.9 19.4L12.8 13.4ZM19 3H5C3.3 3 2 4.3 2 6V15C2 16.7 3.3 18 5 18H5.8C6.4 18 6.8 17.6 6.8 17C6.8 16.4 6.4 16 5.8 16H5C4.4 16 4 15.6 4 15V6C4 5.4 4.4 5 5 5H19C19.6 5 20 5.4 20 6V15C20 15.6 19.6 16 19 16H18.2C17.6 16 17.2 16.4 17.2 17C17.2 17.6 17.6 18 18.2 18H19C20.7 18 22 16.7 22 15V6C22 4.3 20.7 3 19 3Z" fill="black"/>
</svg>
