<svg width="24" height="24" viewBox="0 0 24 24" fill="none" xmlns="http://www.w3.org/2000/svg">
<path d="M21 20H3C2.4 20 2 20.4 2 21C2 21.6 2.4 22 3 22H21C21.6 22 22 21.6 22 21C22 20.4 21.6 20 21 20ZM10 4H21C21.6 4 22 3.6 22 3C22 2.4 21.6 2 21 2H10C9.4 2 9 2.4 9 3C9 3.6 9.4 4 10 4ZM21 16H11C10.4 16 10 16.4 10 17C10 17.6 10.4 18 11 18H21C21.6 18 22 17.6 22 17C22 16.4 21.6 16 21 16ZM21 10H3C2.4 10 2 10.4 2 11C2 11.6 2.4 12 3 12H21C21.6 12 22 11.6 22 11C22 10.4 21.6 10 21 10ZM21 6H3C2.4 6 2 6.4 2 7C2 7.6 2.4 8 3 8H21C21.6 8 22 7.6 22 7C22 6.4 21.6 6 21 6Z" fill="black"/>
</svg>
