<svg width="24" height="24" viewBox="0 0 24 24" fill="none" xmlns="http://www.w3.org/2000/svg">
<path d="M10 15H3C2.4 15 2 15.4 2 16C2 16.6 2.4 17 3 17H10C10.6 17 11 16.6 11 16C11 15.4 10.6 15 10 15ZM10 11H3C2.4 11 2 11.4 2 12C2 12.6 2.4 13 3 13H10C10.6 13 11 12.6 11 12C11 11.4 10.6 11 10 11ZM10 7H3C2.4 7 2 7.4 2 8C2 8.6 2.4 9 3 9H10C10.6 9 11 8.6 11 8C11 7.4 10.6 7 10 7ZM14 5H21C21.6 5 22 4.6 22 4C22 3.4 21.6 3 21 3H14C13.4 3 13 3.4 13 4C13 4.6 13.4 5 14 5ZM10 19H3C2.4 19 2 19.4 2 20C2 20.6 2.4 21 3 21H10C10.6 21 11 20.6 11 20C11 19.4 10.6 19 10 19ZM21 15H14C13.4 15 13 15.4 13 16C13 16.6 13.4 17 14 17H21C21.6 17 22 16.6 22 16C22 15.4 21.6 15 21 15ZM21 7H14C13.4 7 13 7.4 13 8C13 8.6 13.4 9 14 9H21C21.6 9 22 8.6 22 8C22 7.4 21.6 7 21 7ZM10 3H7C6.4 3 6 3.4 6 4C6 4.6 6.4 5 7 5H10C10.6 5 11 4.6 11 4C11 3.4 10.6 3 10 3ZM21 11H14C13.4 11 13 11.4 13 12C13 12.6 13.4 13 14 13H21C21.6 13 22 12.6 22 12C22 11.4 21.6 11 21 11ZM17 19H14C13.4 19 13 19.4 13 20C13 20.6 13.4 21 14 21H17C17.6 21 18 20.6 18 20C18 19.4 17.6 19 17 19Z" fill="black"/>
</svg>
