<svg width="24" height="24" viewBox="0 0 24 24" fill="none" xmlns="http://www.w3.org/2000/svg">
<path d="M21 15H3C2.4 15 2 15.4 2 16C2 16.6 2.4 17 3 17H21C21.6 17 22 16.6 22 16C22 15.4 21.6 15 21 15ZM15 19H3C2.4 19 2 19.4 2 20C2 20.6 2.4 21 3 21H15C15.6 21 16 20.6 16 20C16 19.4 15.6 19 15 19ZM3 5H21C21.6 5 22 4.6 22 4C22 3.4 21.6 3 21 3H3C2.4 3 2 3.4 2 4C2 4.6 2.4 5 3 5ZM21 7H3C2.4 7 2 7.4 2 8C2 8.6 2.4 9 3 9H21C21.6 9 22 8.6 22 8C22 7.4 21.6 7 21 7ZM21 11H3C2.4 11 2 11.4 2 12C2 12.6 2.4 13 3 13H21C21.6 13 22 12.6 22 12C22 11.4 21.6 11 21 11Z" fill="black"/>
</svg>
