<svg width="24" height="24" viewBox="0 0 24 24" fill="none" xmlns="http://www.w3.org/2000/svg">
<path d="M19 13H17C16.4 13 16 13.4 16 14C16 14.6 16.4 15 17 15H17.9C17.5 17.5 15.5 19.5 13 19.9V11H14C14.6 11 15 10.6 15 10C15 9.4 14.6 9 14 9H13V7.8C14.2 7.4 15 6.3 15 5C15 3.3 13.7 2 12 2C10.3 2 9 3.3 9 5C9 6.3 9.8 7.4 11 7.8V9H10C9.4 9 9 9.4 9 10C9 10.6 9.4 11 10 11H11V19.9C8.5 19.5 6.5 17.5 6.1 15H7C7.6 15 8 14.6 8 14C8 13.4 7.6 13 7 13H5C4.4 13 4 13.4 4 14C4 18.4 7.6 22 12 22C16.4 22 20 18.4 20 14C20 13.4 19.6 13 19 13ZM12 4C12.6 4 13 4.4 13 5C13 5.6 12.6 6 12 6C11.4 6 11 5.6 11 5C11 4.4 11.4 4 12 4Z" fill="black"/>
</svg>
