<svg width="24" height="24" viewBox="0 0 24 24" fill="none" xmlns="http://www.w3.org/2000/svg">
<path d="M12.7 12.4998C12.3 12.0998 11.7 12.0998 11.3 12.4998L8.3 15.4998C7.9 15.8998 7.9 16.4998 8.3 16.8998C8.7 17.2998 9.3 17.2998 9.7 16.8998L12 14.5998L14.3 16.8998C14.5 17.0998 14.7 17.1998 15 17.1998C15.3 17.1998 15.5 17.0998 15.7 16.8998C16.1 16.4998 16.1 15.8998 15.7 15.4998L12.7 12.4998ZM9.7 11.4998L12 9.1998L14.3 11.4998C14.5 11.6998 14.7 11.7998 15 11.7998C15.3 11.7998 15.5 11.6998 15.7 11.4998C16.1 11.0998 16.1 10.4998 15.7 10.0998L12.7 7.0998C12.3 6.6998 11.7 6.6998 11.3 7.0998L8.3 10.0998C7.9 10.4998 7.9 11.0998 8.3 11.4998C8.7 11.7998 9.3 11.7998 9.7 11.4998Z" fill="black"/>
</svg>
