<svg width="24" height="24" viewBox="0 0 24 24" fill="none" xmlns="http://www.w3.org/2000/svg">
<path d="M11.3 11.5002C11.5 11.7002 11.7 11.8002 12 11.8002C12.3 11.8002 12.5 11.7002 12.7 11.5002L15.7 8.5002C16.1 8.1002 16.1 7.5002 15.7 7.1002C15.3 6.7002 14.7 6.7002 14.3 7.1002L12 9.3002L9.7 7.0002C9.3 6.6002 8.7 6.6002 8.3 7.0002C7.9 7.4002 7.9 8.00019 8.3 8.40019L11.3 11.5002ZM14.3 12.5002L12 14.8002L9.7 12.5002C9.3 12.1002 8.7 12.1002 8.3 12.5002C7.9 12.9002 7.9 13.5002 8.3 13.9002L11.3 16.9002C11.5 17.1002 11.7 17.2002 12 17.2002C12.3 17.2002 12.5 17.1002 12.7 16.9002L15.7 13.9002C16.1 13.5002 16.1 12.9002 15.7 12.5002C15.3 12.2002 14.7 12.2002 14.3 12.5002Z" fill="black"/>
</svg>
