<svg width="24" height="24" viewBox="0 0 24 24" fill="none" xmlns="http://www.w3.org/2000/svg">
<path d="M10 2H3C2.4 2 2 2.4 2 3V10C2 10.6 2.4 11 3 11H10C10.6 11 11 10.6 11 10V3C11 2.4 10.6 2 10 2ZM10 13H3C2.4 13 2 13.4 2 14V21C2 21.6 2.4 22 3 22H10C10.6 22 11 21.6 11 21V14C11 13.4 10.6 13 10 13ZM21 2H14C13.4 2 13 2.4 13 3V10C13 10.6 13.4 11 14 11H21C21.6 11 22 10.6 22 10V3C22 2.4 21.6 2 21 2ZM21 13H14C13.4 13 13 13.4 13 14V21C13 21.6 13.4 22 14 22H21C21.6 22 22 21.6 22 21V14C22 13.4 21.6 13 21 13Z" fill="black"/>
</svg>
