<svg width="24" height="24" viewBox="0 0 24 24" fill="none" xmlns="http://www.w3.org/2000/svg">
<path d="M12 2C6.5 2 2 6.5 2 12C2 17.5 6.5 22 12 22C17.5 22 22 17.5 22 12C22 6.5 17.5 2 12 2ZM15.7 12.7L12.7 15.7C12.6 15.8 12.5 15.9 12.4 15.9C12.2 16 11.9 16 11.6 15.9C11.5 15.9 11.4 15.8 11.3 15.7L8.3 12.7C7.9 12.3 7.9 11.7 8.3 11.3C8.7 10.9 9.3 10.9 9.7 11.3L11 12.6V9C11 8.4 11.4 8 12 8C12.6 8 13 8.4 13 9V12.6L14.3 11.3C14.7 10.9 15.3 10.9 15.7 11.3C16.1 11.7 16.1 12.3 15.7 12.7Z" fill="black"/>
</svg>
