<svg width="24" height="24" viewBox="0 0 24 24" fill="none" xmlns="http://www.w3.org/2000/svg">
<path d="M17 7H4C2.9 7 2 7.9 2 9V15C2 16.1 2.9 17 4 17H10.7C10.1 17 9.7 16.6 9.7 16C9.7 15.8 9.7 15.7 9.8 15.5L11.2 13H8C7.9 13 7.8 13 7.7 12.9H7.6H7.5L7.4 12.8C7.3 12.8 7.3 12.7 7.2 12.7C7.1 12.6 7.1 12.5 7 12.4C7 12.3 7 12.3 7 12.2V12.1C7 12.1 7 12.1 7 12C7 11.9 7.1 11.7 7.1 11.6C7.1 11.6 7.1 11.6 7.1 11.5L9.4 7.5C9.7 7 10.3 6.9 10.8 7.1C11.3 7.4 11.4 8 11.2 8.5L9.7 11H13C13 11 13 11 13.1 11C13.2 11 13.4 11.1 13.5 11.1C13.5 11.1 13.5 11.1 13.6 11.1L13.7 11.2C13.8 11.2 13.8 11.3 13.9 11.3C14 11.4 14 11.5 14.1 11.6C14.1 11.7 14.1 11.7 14.1 11.8V11.9C14.1 11.9 14.1 11.9 14.1 12C14.1 12.1 14 12.3 14 12.4C14 12.4 14 12.4 14 12.5L11.7 16.5C11.4 16.8 11 17 10.7 17H17C18.1 17 19 16.1 19 15V9C19 7.9 18.1 7 17 7ZM21 10C20.4 10 20 10.4 20 11V13C20 13.6 20.4 14 21 14C21.6 14 22 13.6 22 13V11C22 10.4 21.6 10 21 10Z" fill="black"/>
</svg>
