<svg width="24" height="24" viewBox="0 0 24 24" fill="none" xmlns="http://www.w3.org/2000/svg">
<path d="M4 4.5H20C20.6 4.5 21 4.1 21 3.5C21 2.9 20.6 2.5 20 2.5H4C3.4 2.5 3 2.9 3 3.5C3 4.1 3.4 4.5 4 4.5ZM12 6.5C11.4 6.5 11 6.9 11 7.5C11 8.1 11.4 8.5 12 8.5C12.6 8.5 13 8.1 13 7.5C13 6.9 12.6 6.5 12 6.5ZM12 10.5C11.4 10.5 11 10.9 11 11.5C11 12.1 11.4 12.5 12 12.5C12.6 12.5 13 12.1 13 11.5C13 10.9 12.6 10.5 12 10.5ZM12 14.5C11.4 14.5 11 14.9 11 15.5C11 16.1 11.4 16.5 12 16.5C12.6 16.5 13 16.1 13 15.5C13 14.9 12.6 14.5 12 14.5ZM12 18.5C11.4 18.5 11 18.9 11 19.5C11 20.1 11.4 20.5 12 20.5C12.6 20.5 13 20.1 13 19.5C13 18.9 12.6 18.5 12 18.5ZM20 6.5C19.4 6.5 19 6.9 19 7.5C19 8.1 19.4 8.5 20 8.5C20.6 8.5 21 8.1 21 7.5C21 6.9 20.6 6.5 20 6.5ZM20 10.5C19.4 10.5 19 10.9 19 11.5C19 12.1 19.4 12.5 20 12.5C20.6 12.5 21 12.1 21 11.5C21 10.9 20.6 10.5 20 10.5ZM20 14.5C19.4 14.5 19 14.9 19 15.5C19 16.1 19.4 16.5 20 16.5C20.6 16.5 21 16.1 21 15.5C21 14.9 20.6 14.5 20 14.5ZM20 18.5C19.4 18.5 19 18.9 19 19.5C19 20.1 19.4 20.5 20 20.5C20.6 20.5 21 20.1 21 19.5C21 18.9 20.6 18.5 20 18.5ZM16 18.5C15.4 18.5 15 18.9 15 19.5C15 20.1 15.4 20.5 16 20.5C16.6 20.5 17 20.1 17 19.5C17 18.9 16.6 18.5 16 18.5ZM8 18.5C7.4 18.5 7 18.9 7 19.5C7 20.1 7.4 20.5 8 20.5C8.6 20.5 9 20.1 9 19.5C9 18.9 8.6 18.5 8 18.5ZM16 10.5C15.4 10.5 15 10.9 15 11.5C15 12.1 15.4 12.5 16 12.5C16.6 12.5 17 12.1 17 11.5C17 10.9 16.6 10.5 16 10.5ZM8 10.5C7.4 10.5 7 10.9 7 11.5C7 12.1 7.4 12.5 8 12.5C8.6 12.5 9 12.1 9 11.5C9 10.9 8.6 10.5 8 10.5ZM4 6.5C3.4 6.5 3 6.9 3 7.5C3 8.1 3.4 8.5 4 8.5C4.6 8.5 5 8.1 5 7.5C5 6.9 4.6 6.5 4 6.5ZM4 10.5C3.4 10.5 3 10.9 3 11.5C3 12.1 3.4 12.5 4 12.5C4.6 12.5 5 12.1 5 11.5C5 10.9 4.6 10.5 4 10.5ZM4 14.5C3.4 14.5 3 14.9 3 15.5C3 16.1 3.4 16.5 4 16.5C4.6 16.5 5 16.1 5 15.5C5 14.9 4.6 14.5 4 14.5ZM4 18.5C3.4 18.5 3 18.9 3 19.5C3 20.1 3.4 20.5 4 20.5C4.6 20.5 5 20.1 5 19.5C5 18.9 4.6 18.5 4 18.5Z" fill="black"/>
</svg>
