<svg width="24" height="24" viewBox="0 0 24 24" fill="none" xmlns="http://www.w3.org/2000/svg">
<path d="M3.5 3C2.9 3 2.5 3.4 2.5 4V20C2.5 20.6 2.9 21 3.5 21C4.1 21 4.5 20.6 4.5 20V4C4.5 3.4 4.1 3 3.5 3ZM7.5 11C6.9 11 6.5 11.4 6.5 12C6.5 12.6 6.9 13 7.5 13C8.1 13 8.5 12.6 8.5 12C8.5 11.4 8.1 11 7.5 11ZM11.5 11C10.9 11 10.5 11.4 10.5 12C10.5 12.6 10.9 13 11.5 13C12.1 13 12.5 12.6 12.5 12C12.5 11.4 12.1 11 11.5 11ZM15.5 11C14.9 11 14.5 11.4 14.5 12C14.5 12.6 14.9 13 15.5 13C16.1 13 16.5 12.6 16.5 12C16.5 11.4 16.1 11 15.5 11ZM19.5 11C18.9 11 18.5 11.4 18.5 12C18.5 12.6 18.9 13 19.5 13C20.1 13 20.5 12.6 20.5 12C20.5 11.4 20.1 11 19.5 11ZM7.5 3C6.9 3 6.5 3.4 6.5 4C6.5 4.6 6.9 5 7.5 5C8.1 5 8.5 4.6 8.5 4C8.5 3.4 8.1 3 7.5 3ZM11.5 3C10.9 3 10.5 3.4 10.5 4C10.5 4.6 10.9 5 11.5 5C12.1 5 12.5 4.6 12.5 4C12.5 3.4 12.1 3 11.5 3ZM15.5 3C14.9 3 14.5 3.4 14.5 4C14.5 4.6 14.9 5 15.5 5C16.1 5 16.5 4.6 16.5 4C16.5 3.4 16.1 3 15.5 3ZM19.5 5C20.1 5 20.5 4.6 20.5 4C20.5 3.4 20.1 3 19.5 3C18.9 3 18.5 3.4 18.5 4C18.5 4.6 18.9 5 19.5 5ZM19.5 7C18.9 7 18.5 7.4 18.5 8C18.5 8.6 18.9 9 19.5 9C20.1 9 20.5 8.6 20.5 8C20.5 7.4 20.1 7 19.5 7ZM19.5 15C18.9 15 18.5 15.4 18.5 16C18.5 16.6 18.9 17 19.5 17C20.1 17 20.5 16.6 20.5 16C20.5 15.4 20.1 15 19.5 15ZM11.5 7C10.9 7 10.5 7.4 10.5 8C10.5 8.6 10.9 9 11.5 9C12.1 9 12.5 8.6 12.5 8C12.5 7.4 12.1 7 11.5 7ZM11.5 15C10.9 15 10.5 15.4 10.5 16C10.5 16.6 10.9 17 11.5 17C12.1 17 12.5 16.6 12.5 16C12.5 15.4 12.1 15 11.5 15ZM7.5 19C6.9 19 6.5 19.4 6.5 20C6.5 20.6 6.9 21 7.5 21C8.1 21 8.5 20.6 8.5 20C8.5 19.4 8.1 19 7.5 19ZM11.5 19C10.9 19 10.5 19.4 10.5 20C10.5 20.6 10.9 21 11.5 21C12.1 21 12.5 20.6 12.5 20C12.5 19.4 12.1 19 11.5 19ZM15.5 19C14.9 19 14.5 19.4 14.5 20C14.5 20.6 14.9 21 15.5 21C16.1 21 16.5 20.6 16.5 20C16.5 19.4 16.1 19 15.5 19ZM19.5 19C18.9 19 18.5 19.4 18.5 20C18.5 20.6 18.9 21 19.5 21C20.1 21 20.5 20.6 20.5 20C20.5 19.4 20.1 19 19.5 19Z" fill="black"/>
</svg>
