<svg width="24" height="24" viewBox="0 0 24 24" fill="none" xmlns="http://www.w3.org/2000/svg">
<path d="M20.5 3C19.9 3 19.5 3.4 19.5 4V20C19.5 20.6 19.9 21 20.5 21C21.1 21 21.5 20.6 21.5 20V4C21.5 3.4 21.1 3 20.5 3ZM16.5 11C15.9 11 15.5 11.4 15.5 12C15.5 12.6 15.9 13 16.5 13C17.1 13 17.5 12.6 17.5 12C17.5 11.4 17.1 11 16.5 11ZM12.5 11C11.9 11 11.5 11.4 11.5 12C11.5 12.6 11.9 13 12.5 13C13.1 13 13.5 12.6 13.5 12C13.5 11.4 13.1 11 12.5 11ZM8.5 11C7.9 11 7.5 11.4 7.5 12C7.5 12.6 7.9 13 8.5 13C9.1 13 9.5 12.6 9.5 12C9.5 11.4 9.1 11 8.5 11ZM4.5 11C3.9 11 3.5 11.4 3.5 12C3.5 12.6 3.9 13 4.5 13C5.1 13 5.5 12.6 5.5 12C5.5 11.4 5.1 11 4.5 11ZM16.5 19C15.9 19 15.5 19.4 15.5 20C15.5 20.6 15.9 21 16.5 21C17.1 21 17.5 20.6 17.5 20C17.5 19.4 17.1 19 16.5 19ZM12.5 19C11.9 19 11.5 19.4 11.5 20C11.5 20.6 11.9 21 12.5 21C13.1 21 13.5 20.6 13.5 20C13.5 19.4 13.1 19 12.5 19ZM8.5 19C7.9 19 7.5 19.4 7.5 20C7.5 20.6 7.9 21 8.5 21C9.1 21 9.5 20.6 9.5 20C9.5 19.4 9.1 19 8.5 19ZM4.5 19C3.9 19 3.5 19.4 3.5 20C3.5 20.6 3.9 21 4.5 21C5.1 21 5.5 20.6 5.5 20C5.5 19.4 5.1 19 4.5 19ZM4.5 15C3.9 15 3.5 15.4 3.5 16C3.5 16.6 3.9 17 4.5 17C5.1 17 5.5 16.6 5.5 16C5.5 15.4 5.1 15 4.5 15ZM4.5 7C3.9 7 3.5 7.4 3.5 8C3.5 8.6 3.9 9 4.5 9C5.1 9 5.5 8.6 5.5 8C5.5 7.4 5.1 7 4.5 7ZM12.5 15C11.9 15 11.5 15.4 11.5 16C11.5 16.6 11.9 17 12.5 17C13.1 17 13.5 16.6 13.5 16C13.5 15.4 13.1 15 12.5 15ZM12.5 7C11.9 7 11.5 7.4 11.5 8C11.5 8.6 11.9 9 12.5 9C13.1 9 13.5 8.6 13.5 8C13.5 7.4 13.1 7 12.5 7ZM16.5 3C15.9 3 15.5 3.4 15.5 4C15.5 4.6 15.9 5 16.5 5C17.1 5 17.5 4.6 17.5 4C17.5 3.4 17.1 3 16.5 3ZM12.5 3C11.9 3 11.5 3.4 11.5 4C11.5 4.6 11.9 5 12.5 5C13.1 5 13.5 4.6 13.5 4C13.5 3.4 13.1 3 12.5 3ZM8.5 3C7.9 3 7.5 3.4 7.5 4C7.5 4.6 7.9 5 8.5 5C9.1 5 9.5 4.6 9.5 4C9.5 3.4 9.1 3 8.5 3ZM4.5 3C3.9 3 3.5 3.4 3.5 4C3.5 4.6 3.9 5 4.5 5C5.1 5 5.5 4.6 5.5 4C5.5 3.4 5.1 3 4.5 3Z" fill="black"/>
</svg>
