<svg width="24" height="24" viewBox="0 0 24 24" fill="none" xmlns="http://www.w3.org/2000/svg">
<path d="M20.5 3.5C20.5 2.9 20.1 2.5 19.5 2.5H3.5C2.9 2.5 2.5 2.9 2.5 3.5V19.5C2.5 20.1 2.9 20.5 3.5 20.5C4.1 20.5 4.5 20.1 4.5 19.5V4.5H19.5C20.1 4.5 20.5 4.1 20.5 3.5ZM19.5 10.5C18.9 10.5 18.5 10.9 18.5 11.5C18.5 12.1 18.9 12.5 19.5 12.5C20.1 12.5 20.5 12.1 20.5 11.5C20.5 10.9 20.1 10.5 19.5 10.5ZM19.5 6.5C18.9 6.5 18.5 6.9 18.5 7.5C18.5 8.1 18.9 8.5 19.5 8.5C20.1 8.5 20.5 8.1 20.5 7.5C20.5 6.9 20.1 6.5 19.5 6.5ZM19.5 14.5C18.9 14.5 18.5 14.9 18.5 15.5C18.5 16.1 18.9 16.5 19.5 16.5C20.1 16.5 20.5 16.1 20.5 15.5C20.5 14.9 20.1 14.5 19.5 14.5ZM7.5 18.5C6.9 18.5 6.5 18.9 6.5 19.5C6.5 20.1 6.9 20.5 7.5 20.5C8.1 20.5 8.5 20.1 8.5 19.5C8.5 18.9 8.1 18.5 7.5 18.5ZM11.5 18.5C10.9 18.5 10.5 18.9 10.5 19.5C10.5 20.1 10.9 20.5 11.5 20.5C12.1 20.5 12.5 20.1 12.5 19.5C12.5 18.9 12.1 18.5 11.5 18.5ZM15.5 18.5C14.9 18.5 14.5 18.9 14.5 19.5C14.5 20.1 14.9 20.5 15.5 20.5C16.1 20.5 16.5 20.1 16.5 19.5C16.5 18.9 16.1 18.5 15.5 18.5ZM19.5 18.5C18.9 18.5 18.5 18.9 18.5 19.5C18.5 20.1 18.9 20.5 19.5 20.5C20.1 20.5 20.5 20.1 20.5 19.5C20.5 18.9 20.1 18.5 19.5 18.5Z" fill="black"/>
</svg>
