<svg width="24" height="24" viewBox="0 0 24 24" fill="none" xmlns="http://www.w3.org/2000/svg">
<path d="M11 3C10.4 3 10 3.4 10 4V20C10 20.6 10.4 21 11 21C11.6 21 12 20.6 12 20V4C12 3.4 11.6 3 11 3ZM7 11C6.4 11 6 11.4 6 12C6 12.6 6.4 13 7 13C7.6 13 8 12.6 8 12C8 11.4 7.6 11 7 11ZM3 11C2.4 11 2 11.4 2 12C2 12.6 2.4 13 3 13C3.6 13 4 12.6 4 12C4 11.4 3.6 11 3 11ZM15 11C14.4 11 14 11.4 14 12C14 12.6 14.4 13 15 13C15.6 13 16 12.6 16 12C16 11.4 15.6 11 15 11ZM19 11C18.4 11 18 11.4 18 12C18 12.6 18.4 13 19 13C19.6 13 20 12.6 20 12C20 11.4 19.6 11 19 11ZM7 3C6.4 3 6 3.4 6 4C6 4.6 6.4 5 7 5C7.6 5 8 4.6 8 4C8 3.4 7.6 3 7 3ZM3 3C2.4 3 2 3.4 2 4C2 4.6 2.4 5 3 5C3.6 5 4 4.6 4 4C4 3.4 3.6 3 3 3ZM15 3C14.4 3 14 3.4 14 4C14 4.6 14.4 5 15 5C15.6 5 16 4.6 16 4C16 3.4 15.6 3 15 3ZM19 5C19.6 5 20 4.6 20 4C20 3.4 19.6 3 19 3C18.4 3 18 3.4 18 4C18 4.6 18.4 5 19 5ZM19 7C18.4 7 18 7.4 18 8C18 8.6 18.4 9 19 9C19.6 9 20 8.6 20 8C20 7.4 19.6 7 19 7ZM19 15C18.4 15 18 15.4 18 16C18 16.6 18.4 17 19 17C19.6 17 20 16.6 20 16C20 15.4 19.6 15 19 15ZM3 7C2.4 7 2 7.4 2 8C2 8.6 2.4 9 3 9C3.6 9 4 8.6 4 8C4 7.4 3.6 7 3 7ZM3 15C2.4 15 2 15.4 2 16C2 16.6 2.4 17 3 17C3.6 17 4 16.6 4 16C4 15.4 3.6 15 3 15ZM7 19C6.4 19 6 19.4 6 20C6 20.6 6.4 21 7 21C7.6 21 8 20.6 8 20C8 19.4 7.6 19 7 19ZM3 19C2.4 19 2 19.4 2 20C2 20.6 2.4 21 3 21C3.6 21 4 20.6 4 20C4 19.4 3.6 19 3 19ZM15 19C14.4 19 14 19.4 14 20C14 20.6 14.4 21 15 21C15.6 21 16 20.6 16 20C16 19.4 15.6 19 15 19ZM19 19C18.4 19 18 19.4 18 20C18 20.6 18.4 21 19 21C19.6 21 20 20.6 20 20C20 19.4 19.6 19 19 19Z" fill="black"/>
</svg>
