<svg width="24" height="24" viewBox="0 0 24 24" fill="none" xmlns="http://www.w3.org/2000/svg">
<path d="M12 9.5C12.6 9.5 13 9.1 13 8.5C13 7.9 12.6 7.5 12 7.5C11.4 7.5 11 7.9 11 8.5C11 9.1 11.4 9.5 12 9.5ZM12 13.5C12.6 13.5 13 13.1 13 12.5C13 11.9 12.6 11.5 12 11.5C11.4 11.5 11 11.9 11 12.5C11 13.1 11.4 13.5 12 13.5ZM12 17.5C12.6 17.5 13 17.1 13 16.5C13 15.9 12.6 15.5 12 15.5C11.4 15.5 11 15.9 11 16.5C11 17.1 11.4 17.5 12 17.5ZM12 5.5C12.6 5.5 13 5.1 13 4.5C13 3.9 12.6 3.5 12 3.5C11.4 3.5 11 3.9 11 4.5C11 5.1 11.4 5.5 12 5.5ZM20 5.5C20.6 5.5 21 5.1 21 4.5C21 3.9 20.6 3.5 20 3.5C19.4 3.5 19 3.9 19 4.5C19 5.1 19.4 5.5 20 5.5ZM8 5.5C8.6 5.5 9 5.1 9 4.5C9 3.9 8.6 3.5 8 3.5C7.4 3.5 7 3.9 7 4.5C7 5.1 7.4 5.5 8 5.5ZM16 5.5C16.6 5.5 17 5.1 17 4.5C17 3.9 16.6 3.5 16 3.5C15.4 3.5 15 3.9 15 4.5C15 5.1 15.4 5.5 16 5.5ZM16 13.5C16.6 13.5 17 13.1 17 12.5C17 11.9 16.6 11.5 16 11.5C15.4 11.5 15 11.9 15 12.5C15 13.1 15.4 13.5 16 13.5ZM4 9.5C4.6 9.5 5 9.1 5 8.5C5 7.9 4.6 7.5 4 7.5C3.4 7.5 3 7.9 3 8.5C3 9.1 3.4 9.5 4 9.5ZM20 15.5C19.4 15.5 19 15.9 19 16.5C19 17.1 19.4 17.5 20 17.5C20.6 17.5 21 17.1 21 16.5C21 15.9 20.6 15.5 20 15.5ZM20 11.5C19.4 11.5 19 11.9 19 12.5C19 13.1 19.4 13.5 20 13.5C20.6 13.5 21 13.1 21 12.5C21 11.9 20.6 11.5 20 11.5ZM20 7.5C19.4 7.5 19 7.9 19 8.5C19 9.1 19.4 9.5 20 9.5C20.6 9.5 21 9.1 21 8.5C21 7.9 20.6 7.5 20 7.5ZM20 19.5H4C3.4 19.5 3 19.9 3 20.5C3 21.1 3.4 21.5 4 21.5H20C20.6 21.5 21 21.1 21 20.5C21 19.9 20.6 19.5 20 19.5ZM4 13.5C4.6 13.5 5 13.1 5 12.5C5 11.9 4.6 11.5 4 11.5C3.4 11.5 3 11.9 3 12.5C3 13.1 3.4 13.5 4 13.5ZM4 5.5C4.6 5.5 5 5.1 5 4.5C5 3.9 4.6 3.5 4 3.5C3.4 3.5 3 3.9 3 4.5C3 5.1 3.4 5.5 4 5.5ZM8 13.5C8.6 13.5 9 13.1 9 12.5C9 11.9 8.6 11.5 8 11.5C7.4 11.5 7 11.9 7 12.5C7 13.1 7.4 13.5 8 13.5ZM4 17.5C4.6 17.5 5 17.1 5 16.5C5 15.9 4.6 15.5 4 15.5C3.4 15.5 3 15.9 3 16.5C3 17.1 3.4 17.5 4 17.5Z" fill="black"/>
</svg>
