<svg width="24" height="24" viewBox="0 0 24 24" fill="none" xmlns="http://www.w3.org/2000/svg">
<path d="M12 15C11.4 15 11 15.4 11 16C11 16.6 11.4 17 12 17C12.6 17 13 16.6 13 16C13 15.4 12.6 15 12 15ZM12 19C11.4 19 11 19.4 11 20C11 20.6 11.4 21 12 21C12.6 21 13 20.6 13 20C13 19.4 12.6 19 12 19ZM12 7C11.4 7 11 7.4 11 8C11 8.6 11.4 9 12 9C12.6 9 13 8.6 13 8C13 7.4 12.6 7 12 7ZM12 3C11.4 3 11 3.4 11 4C11 4.6 11.4 5 12 5C12.6 5 13 4.6 13 4C13 3.4 12.6 3 12 3ZM4 15C3.4 15 3 15.4 3 16C3 16.6 3.4 17 4 17C4.6 17 5 16.6 5 16C5 15.4 4.6 15 4 15ZM4 19C3.4 19 3 19.4 3 20C3 20.6 3.4 21 4 21C4.6 21 5 20.6 5 20C5 19.4 4.6 19 4 19ZM4 7C3.4 7 3 7.4 3 8C3 8.6 3.4 9 4 9C4.6 9 5 8.6 5 8C5 7.4 4.6 7 4 7ZM4 3C3.4 3 3 3.4 3 4C3 4.6 3.4 5 4 5C4.6 5 5 4.6 5 4C5 3.4 4.6 3 4 3ZM8 3C7.4 3 7 3.4 7 4C7 4.6 7.4 5 8 5C8.6 5 9 4.6 9 4C9 3.4 8.6 3 8 3ZM16 3C15.4 3 15 3.4 15 4C15 4.6 15.4 5 16 5C16.6 5 17 4.6 17 4C17 3.4 16.6 3 16 3ZM8 19C7.4 19 7 19.4 7 20C7 20.6 7.4 21 8 21C8.6 21 9 20.6 9 20C9 19.4 8.6 19 8 19ZM16 19C15.4 19 15 19.4 15 20C15 20.6 15.4 21 16 21C16.6 21 17 20.6 17 20C17 19.4 16.6 19 16 19ZM8 11C7.4 11 7 11.4 7 12C7 12.6 7.4 13 8 13C8.6 13 9 12.6 9 12C9 11.4 8.6 11 8 11ZM16 11C15.4 11 15 11.4 15 12C15 12.6 15.4 13 16 13C16.6 13 17 12.6 17 12C17 11.4 16.6 11 16 11ZM20 15C19.4 15 19 15.4 19 16C19 16.6 19.4 17 20 17C20.6 17 21 16.6 21 16C21 15.4 20.6 15 20 15ZM20 19C19.4 19 19 19.4 19 20C19 20.6 19.4 21 20 21C20.6 21 21 20.6 21 20C21 19.4 20.6 19 20 19ZM20 7C19.4 7 19 7.4 19 8C19 8.6 19.4 9 20 9C20.6 9 21 8.6 21 8C21 7.4 20.6 7 20 7ZM12 11C11.4 11 11 11.4 11 12C11 12.6 11.4 13 12 13C12.6 13 13 12.6 13 12C13 11.4 12.6 11 12 11ZM4 11C3.4 11 3 11.4 3 12C3 12.6 3.4 13 4 13C4.6 13 5 12.6 5 12C5 11.4 4.6 11 4 11ZM20 11C19.4 11 19 11.4 19 12C19 12.6 19.4 13 20 13C20.6 13 21 12.6 21 12C21 11.4 20.6 11 20 11ZM20 5C20.6 5 21 4.6 21 4C21 3.4 20.6 3 20 3C19.4 3 19 3.4 19 4C19 4.6 19.4 5 20 5Z" fill="black"/>
</svg>
