<svg width="24" height="24" viewBox="0 0 24 24" fill="none" xmlns="http://www.w3.org/2000/svg">
<path d="M21.7001 10.3002L12.7 2.3002C12.3 2.0002 11.8 2.0002 11.4 2.3002L2.40005 10.3002C2.00005 10.7002 1.90005 11.3002 2.30005 11.7002C2.70005 12.1002 3.30005 12.2002 3.70005 11.8002L4.00005 11.4002V21.0002C4.00005 21.6002 4.40005 22.0002 5.00005 22.0002H19C19.6 22.0002 20 21.6002 20 21.0002V11.4002L20.3 11.7002C20.7 12.1002 21.3001 12.0002 21.7001 11.6002C22.1 11.3002 22.1 10.6002 21.7001 10.3002ZM14 15.0002H13V16.0002C13 16.6002 12.6 17.0002 12 17.0002C11.4 17.0002 11 16.6002 11 16.0002V15.0002H10.0001C9.40005 15.0002 9.00005 14.6002 9.00005 14.0002C9.00005 13.4002 9.40005 13.0002 10.0001 13.0002H11V12.0002C11 11.4002 11.4 11.0002 12 11.0002C12.6 11.0002 13 11.4002 13 12.0002V13.0002H14C14.6 13.0002 15 13.4002 15 14.0002C15 14.6002 14.6 15.0002 14 15.0002Z" fill="black"/>
</svg>
