<svg width="24" height="24" viewBox="0 0 24 24" fill="none" xmlns="http://www.w3.org/2000/svg">
<path d="M18.7 2C18.1 2 17.7 2.4 17.7 3V13.4C17.7 14.5 16.8 15.4 15.7 15.4H7.70005L10.6 12.5C11 12.1 11 11.5 10.6 11.1C10.2 10.7 9.60005 10.7 9.20005 11.1L4.60005 15.7C4.20005 16.1 4.20005 16.7 4.60005 17.1L9.20005 21.7C9.40005 21.9 9.70005 22 9.90005 22C10.2 22 10.4 21.9 10.6 21.7C11 21.3 11 20.7 10.6 20.3L7.70005 17.4H15.7C17.9 17.4 19.7 15.6 19.7 13.4V3C19.7 2.4 19.2 2 18.7 2Z" fill="black"/>
</svg>
