<svg width="24" height="24" viewBox="0 0 24 24" fill="none" xmlns="http://www.w3.org/2000/svg">
<path d="M21 4.2998H11.6C8.8 4.2998 6.6 6.4998 6.6 9.2998V16.2998L3.7 13.3998C3.3 12.9998 2.7 12.9998 2.3 13.3998C1.9 13.7998 1.9 14.3998 2.3 14.7998L6.9 19.3998C7.1 19.5998 7.3 19.6998 7.6 19.6998C7.9 19.6998 8.1 19.5998 8.3 19.3998L12.9 14.7998C13.3 14.3998 13.3 13.7998 12.9 13.3998C12.5 12.9998 11.9 12.9998 11.5 13.3998L8.6 16.2998V9.2998C8.6 7.5998 9.9 6.2998 11.6 6.2998H21C21.6 6.2998 22 5.8998 22 5.2998C22 4.6998 21.6 4.2998 21 4.2998Z" fill="black"/>
</svg>
