<svg width="24" height="24" viewBox="0 0 24 24" fill="none" xmlns="http://www.w3.org/2000/svg">
<path d="M19.4 15.7L14.8 11C14.4 10.6 13.8 10.6 13.4 11C13 11.4 13 12 13.4 12.4L16.3 15.3H9.30005C7.60005 15.3 6.30005 14 6.30005 12.3V3C6.30005 2.4 5.90005 2 5.30005 2C4.70005 2 4.30005 2.4 4.30005 3V12.4C4.30005 15.2 6.50005 17.4 9.30005 17.4H16.3L13.4 20.3C13.2 20.5 13.1 20.7 13.1 21C13.1 21.6 13.5 22 14.1 22C14.4 22 14.6 21.9 14.8 21.7L19.4 17.1C19.8 16.7 19.8 16.1 19.4 15.7Z" fill="black"/>
</svg>
