<svg width="24" height="24" viewBox="0 0 24 24" fill="none" xmlns="http://www.w3.org/2000/svg">
<path d="M19.4 6.9L14.8 2.3C14.4 1.9 13.8 1.9 13.4 2.3C13 2.7 13 3.3 13.4 3.7L16.3 6.6H8.30005C6.10005 6.6 4.30005 8.4 4.30005 10.6V21C4.30005 21.6 4.70005 22 5.30005 22C5.90005 22 6.30005 21.6 6.30005 21V10.6C6.30005 9.5 7.20005 8.6 8.30005 8.6H16.3L13.4 11.5C13.2 11.7 13.1 11.9 13.1 12.2C13.1 12.8 13.5 13.2 14.1 13.2C14.4 13.2 14.6 13.1 14.8 12.9L19.4 8.3C19.8 7.9 19.8 7.3 19.4 6.9Z" fill="black"/>
</svg>
