<svg width="24" height="24" viewBox="0 0 24 24" fill="none" xmlns="http://www.w3.org/2000/svg">
<path d="M21.7 13.3998C21.3 12.9998 20.7 12.9998 20.3 13.3998L17.4 16.2998V8.2998C17.4 6.0998 15.6 4.2998 13.4 4.2998H3C2.4 4.2998 2 4.6998 2 5.2998C2 5.8998 2.4 6.2998 3 6.2998H13.4C14.5 6.2998 15.4 7.1998 15.4 8.2998V16.2998L12.5 13.3998C12.1 12.9998 11.5 12.9998 11.1 13.3998C10.7 13.7998 10.7 14.3998 11.1 14.7998L15.7 19.3998C15.9 19.5998 16.1 19.6998 16.4 19.6998C16.7 19.6998 16.9 19.5998 17.1 19.3998L21.7 14.7998C22.1 14.3998 22.1 13.6998 21.7 13.3998Z" fill="black"/>
</svg>
