<svg width="24" height="24" viewBox="0 0 24 24" fill="none" xmlns="http://www.w3.org/2000/svg">
<path d="M22 11H20.9C20.7 9.3 20 7.7 19 6.4L19.8 5.6C20.2 5.2 20.2 4.6 19.8 4.2C19.4 3.8 18.8 3.8 18.4 4.2L17.6 5C16.3 3.9 14.7 3.3 13 3.1V2C13 1.4 12.6 1 12 1C11.4 1 11 1.4 11 2V3.1C9.3 3.2 7.7 3.9 6.4 5L5.6 4.2C5.2 3.8 4.6 3.8 4.2 4.2C3.8 4.6 3.8 5.2 4.2 5.6L5 6.4C3.9 7.7 3.2 9.3 3.1 11H2C1.4 11 1 11.4 1 12C1 12.6 1.4 13 2 13H3.1C3.3 14.7 4 16.3 5 17.6L4.2 18.4C3.8 18.8 3.8 19.4 4.2 19.8C4.6 20.2 5.2 20.2 5.6 19.8L6.4 19C7.7 20.1 9.3 20.7 11 20.9V22C11 22.6 11.4 23 12 23C12.6 23 13 22.6 13 22V20.9C14.7 20.7 16.3 20 17.6 19L18.4 19.8C18.8 20.2 19.4 20.2 19.8 19.8C20.2 19.4 20.2 18.8 19.8 18.4L19 17.6C20.1 16.3 20.7 14.7 20.9 13H22C22.6 13 23 12.6 23 12C23 11.4 22.6 11 22 11ZM9 16C8.4 16 8 15.6 8 15C8 14.4 8.4 14 9 14C9.6 14 10 14.4 10 15C10 15.6 9.6 16 9 16ZM9.5 12C8.7 12 8 11.3 8 10.5C8 9.7 8.7 9 9.5 9C10.3 9 11 9.7 11 10.5C11 11.3 10.3 12 9.5 12ZM14.5 15C13.7 15 13 14.3 13 13.5C13 12.7 13.7 12 14.5 12C15.3 12 16 12.7 16 13.5C16 14.3 15.3 15 14.5 15ZM15 10C14.4 10 14 9.6 14 9C14 8.4 14.4 8 15 8C15.6 8 16 8.4 16 9C16 9.6 15.6 10 15 10Z" fill="black"/>
</svg>
