<svg width="24" height="24" viewBox="0 0 24 24" fill="none" xmlns="http://www.w3.org/2000/svg">
<path d="M14 9.2002H9.99995C9.59995 9.2002 9.19995 9.5002 9.19995 10.0002V14.0002C9.19995 14.4002 9.49995 14.8002 9.99995 14.8002H14C14.4 14.8002 14.8 14.5002 14.8 14.0002V10.0002C14.8 9.6002 14.4 9.2002 14 9.2002ZM14 16.2002H9.99995C9.59995 16.2002 9.19995 16.5002 9.19995 17.0002V21.0002C9.19995 21.4002 9.49995 21.8002 9.99995 21.8002H14C14.4 21.8002 14.8 21.5002 14.8 21.0002V17.0002C14.8 16.6002 14.4 16.2002 14 16.2002ZM6.99995 2.2002H2.99995C2.59995 2.2002 2.19995 2.6002 2.19995 3.0002V7.0002C2.19995 7.4002 2.49995 7.8002 2.99995 7.8002H6.99995C7.39995 7.8002 7.79995 7.5002 7.79995 7.0002V3.0002C7.79995 2.6002 7.39995 2.2002 6.99995 2.2002ZM6.99995 9.2002H2.99995C2.59995 9.2002 2.19995 9.5002 2.19995 10.0002V14.0002C2.19995 14.4002 2.49995 14.8002 2.99995 14.8002H6.99995C7.39995 14.8002 7.79995 14.5002 7.79995 14.0002V10.0002C7.79995 9.6002 7.39995 9.2002 6.99995 9.2002ZM21 2.2002H17C16.6 2.2002 16.2 2.5002 16.2 3.0002V7.0002C16.2 7.4002 16.5 7.8002 17 7.8002H21C21.4 7.8002 21.7999 7.5002 21.7999 7.0002V3.0002C21.7999 2.6002 21.4 2.2002 21 2.2002ZM14 2.2002H9.99995C9.59995 2.2002 9.19995 2.6002 9.19995 3.0002V7.0002C9.19995 7.4002 9.49995 7.8002 9.99995 7.8002H14C14.4 7.8002 14.8 7.5002 14.8 7.0002V3.0002C14.8 2.6002 14.4 2.2002 14 2.2002ZM21 9.2002H17C16.6 9.2002 16.2 9.5002 16.2 10.0002V14.0002C16.2 14.4002 16.5 14.8002 17 14.8002H21C21.4 14.8002 21.7999 14.5002 21.7999 14.0002V10.0002C21.7999 9.6002 21.4 9.2002 21 9.2002Z" fill="black"/>
</svg>
