<svg width="24" height="24" viewBox="0 0 24 24" fill="none" xmlns="http://www.w3.org/2000/svg">
<path d="M14.3 14.8L12 17.1L9.7 14.8C9.3 14.4 8.7 14.4 8.3 14.8C7.9 15.2 7.9 15.8 8.3 16.2L11.3 19.2C11.5 19.4 11.7 19.5 12 19.5C12.3 19.5 12.5 19.4 12.7 19.2L15.7 16.2C16.1 15.8 16.1 15.2 15.7 14.8C15.3 14.4 14.7 14.4 14.3 14.8ZM9.7 10.2L12 7.9L14.3 10.2C14.5 10.4 14.7 10.5 15 10.5C15.3 10.5 15.5 10.4 15.7 10.2C16.1 9.8 16.1 9.2 15.7 8.8L12.7 5.8C12.3 5.4 11.7 5.4 11.3 5.8L8.3 8.8C7.9 9.2 7.9 9.8 8.3 10.2C8.7 10.6 9.3 10.6 9.7 10.2Z" fill="black"/>
</svg>
