<svg width="24" height="24" viewBox="0 0 24 24" fill="none" xmlns="http://www.w3.org/2000/svg">
<path d="M13 8H21C21.6 8 22 7.6 22 7C22 6.4 21.6 6 21 6H13C12.4 6 12 6.4 12 7C12 7.6 12.4 8 13 8ZM21 10H13C12.4 10 12 10.4 12 11C12 11.6 12.4 12 13 12H21C21.6 12 22 11.6 22 11C22 10.4 21.6 10 21 10ZM3 12H9C9.6 12 10 11.6 10 11V5C10 4.4 9.6 4 9 4H3C2.4 4 2 4.4 2 5V11C2 11.6 2.4 12 3 12ZM21 14H3C2.4 14 2 14.4 2 15C2 15.6 2.4 16 3 16H21C21.6 16 22 15.6 22 15C22 14.4 21.6 14 21 14ZM13 18H3C2.4 18 2 18.4 2 19C2 19.6 2.4 20 3 20H13C13.6 20 14 19.6 14 19C14 18.4 13.6 18 13 18Z" fill="black"/>
</svg>
