<svg width="24" height="24" viewBox="0 0 24 24" fill="none" xmlns="http://www.w3.org/2000/svg">
<path d="M19 8H21C21.6 8 22 7.6 22 7C22 6.4 21.6 6 21 6H19C18.4 6 18 6.4 18 7C18 7.6 18.4 8 19 8ZM21 10H19C18.4 10 18 10.4 18 11C18 11.6 18.4 12 19 12H21C21.6 12 22 11.6 22 11C22 10.4 21.6 10 21 10ZM3 8H5C5.6 8 6 7.6 6 7C6 6.4 5.6 6 5 6H3C2.4 6 2 6.4 2 7C2 7.6 2.4 8 3 8ZM3 12H5C5.6 12 6 11.6 6 11C6 10.4 5.6 10 5 10H3C2.4 10 2 10.4 2 11C2 11.6 2.4 12 3 12ZM9 12H15C15.6 12 16 11.6 16 11V5C16 4.4 15.6 4 15 4H9C8.4 4 8 4.4 8 5V11C8 11.6 8.4 12 9 12ZM21 14H3C2.4 14 2 14.4 2 15C2 15.6 2.4 16 3 16H21C21.6 16 22 15.6 22 15C22 14.4 21.6 14 21 14ZM13 18H3C2.4 18 2 18.4 2 19C2 19.6 2.4 20 3 20H13C13.6 20 14 19.6 14 19C14 18.4 13.6 18 13 18Z" fill="black"/>
</svg>
