<svg width="24" height="24" viewBox="0 0 24 24" fill="none" xmlns="http://www.w3.org/2000/svg">
<path d="M13 18H3C2.4 18 2 18.4 2 19C2 19.6 2.4 20 3 20H13C13.6 20 14 19.6 14 19C14 18.4 13.6 18 13 18ZM3 8H11C11.6 8 12 7.6 12 7C12 6.4 11.6 6 11 6H3C2.4 6 2 6.4 2 7C2 7.6 2.4 8 3 8ZM3 12H11C11.6 12 12 11.6 12 11C12 10.4 11.6 10 11 10H3C2.4 10 2 10.4 2 11C2 11.6 2.4 12 3 12ZM21 4H15C14.4 4 14 4.4 14 5V11C14 11.6 14.4 12 15 12H21C21.6 12 22 11.6 22 11V5C22 4.4 21.6 4 21 4ZM21 14H3C2.4 14 2 14.4 2 15C2 15.6 2.4 16 3 16H21C21.6 16 22 15.6 22 15C22 14.4 21.6 14 21 14Z" fill="black"/>
</svg>
