<svg width="24" height="24" viewBox="0 0 24 24" fill="none" xmlns="http://www.w3.org/2000/svg">
<path d="M4.9 12.2C4.4 12.1 3.8 12.4 3.7 12.9L3.2 14.8C3.1 15.4 3.4 16 4 16.1C4.1 16.1 4.2 16.1 4.2 16.1C4.7 16.1 5.1 15.8 5.2 15.3L5.7 13.4C5.8 12.9 5.5 12.4 4.9 12.2ZM7.5 5H9.5C10.1 5 10.5 4.6 10.5 4C10.5 3.4 10.1 3 9.5 3H7.5C6.9 3 6.5 3.4 6.5 4C6.5 4.6 7 5 7.5 5ZM4.2 19C4.2 18.5 3.9 18.1 3.4 18C2.9 17.9 2.3 18.2 2.2 18.7L2 19.7C2 19.8 2 19.9 2 19.9C2 20.5 2.4 20.9 3 20.9H4C4.5 20.9 4.9 20.6 5 20.1C5.1 19.7 4.8 19.2 4.2 19ZM6.4 6.4C5.9 6.3 5.3 6.6 5.2 7.1L4.7 9.1C4.7 9.2 4.7 9.3 4.7 9.3C4.7 9.9 5.1 10.3 5.7 10.3C6.2 10.3 6.6 10 6.7 9.5L7.2 7.6C7.3 7.1 6.9 6.6 6.4 6.4ZM10 12.5C9.4 12.5 9 12.9 9 13.5V15.5C9 16.1 9.4 16.5 10 16.5C10.6 16.5 11 16.1 11 15.5V13.5C11 13 10.6 12.5 10 12.5ZM10 6.5C9.4 6.5 9 6.9 9 7.5V9.5C9 10.1 9.4 10.5 10 10.5C10.6 10.5 11 10.1 11 9.5V7.5C11 7 10.6 6.5 10 6.5ZM10.5 18.6C10 18.4 9.4 18.5 9.1 19H8C7.4 19 7 19.4 7 20C7 20.6 7.4 21 8 21H10C10.6 21 11 20.6 11 20V19.5C11 19.2 10.8 18.8 10.5 18.6ZM22 19.8L18 3.8C17.9 3.3 17.5 3 17 3H14C13.4 3 13 3.4 13 4V20C13 20.6 13.4 21 14 21H21C21.1 21 21.2 21 21.2 21C21.8 20.8 22.1 20.3 22 19.8Z" fill="black"/>
</svg>
