<svg width="24" height="24" viewBox="0 0 24 24" fill="none" xmlns="http://www.w3.org/2000/svg">
<path d="M11.9999 2C11.3999 2 10.9999 2.4 10.9999 3V21C10.9999 21.6 11.3999 22 11.9999 22C12.5999 22 12.9999 21.6 12.9999 21V3C12.9999 2.4 12.5999 2 11.9999 2ZM21.6999 11.3L16.6999 6.3C16.4999 6.1 16.2999 6 15.9999 6C15.3999 6 14.9999 6.4 14.9999 7V17C14.9999 17.6 15.3999 18 15.9999 18C16.2999 18 16.4999 17.9 16.6999 17.7L21.6999 12.7C22.0999 12.3 22.0999 11.7 21.6999 11.3ZM3.7999 9.8L2.6999 10.9C2.5999 11 2.5999 11.1 2.4999 11.2C2.3999 11.2 2.2999 11.3 2.1999 11.4C1.7999 11.8 1.7999 12.4 2.1999 12.8L3.2999 13.9C3.4999 14.1 3.6999 14.2 3.9999 14.2C4.2999 14.2 4.4999 14.1 4.6999 13.9C5.0999 13.5 5.0999 12.9 4.6999 12.5L4.3999 12L5.1999 11.2C5.5999 10.8 5.5999 10.2 5.1999 9.8C4.7999 9.4 4.1999 9.4 3.7999 9.8ZM7.5999 15.2C7.1999 14.8 6.5999 14.8 6.1999 15.2C5.7999 15.6 5.7999 16.2 6.1999 16.6L7.2999 17.7C7.3999 17.8 7.6999 18 7.8999 18C8.1999 18 8.3999 17.9 8.5999 17.7C8.9999 17.3 8.9999 16.7 8.5999 16.3L7.5999 15.2ZM7.2999 6.3L6.5999 7C6.3999 7.1 6.2999 7.4 6.2999 7.7C6.2999 8.3 6.6999 8.7 7.2999 8.7C7.4999 8.7 7.5999 8.7 7.7999 8.6C7.8999 8.6 7.8999 8.6 7.9999 8.6C8.5999 8.6 8.9999 8.2 8.9999 7.6V7C8.9999 6.7 8.8999 6.5 8.6999 6.3C8.2999 5.9 7.6999 5.9 7.2999 6.3ZM7.9999 10.6C7.3999 10.6 6.9999 11 6.9999 11.6V13.1C6.9999 13.7 7.3999 14.1 7.9999 14.1C8.5999 14.1 8.9999 13.7 8.9999 13.1V11.6C8.9999 11 8.5999 10.6 7.9999 10.6Z" fill="black"/>
</svg>
