<svg width="24" height="24" viewBox="0 0 24 24" fill="none" xmlns="http://www.w3.org/2000/svg">
<path d="M21 11.0004H3C2.4 11.0004 2 11.4004 2 12.0004C2 12.6004 2.4 13.0004 3 13.0004H21C21.6 13.0004 22 12.6004 22 12.0004C22 11.4004 21.6 11.0004 21 11.0004ZM17 15.0004H7C6.7 15.0004 6.5 15.1004 6.3 15.3004C5.9 15.7004 5.9 16.3004 6.3 16.7004L11.3 21.7004C11.5 21.9004 11.7 22.0004 12 22.0004C12.3 22.0004 12.5 21.9004 12.7 21.7004L17.7 16.7004C17.9 16.5004 18 16.3004 18 16.0004C18 15.4004 17.6 15.0004 17 15.0004ZM15.4 8.00039C15.4 8.60039 15.8 9.00039 16.4 9.00039H17C17.3 9.00039 17.5 8.90039 17.7 8.70039C18.1 8.30039 18.1 7.70039 17.7 7.30039L17 6.60039C16.7 6.30039 16.2 6.20039 15.8 6.40039C15.3 6.60039 15.1 7.20039 15.4 7.70039C15.4 7.90039 15.4 7.90039 15.4 8.00039ZM11.6 4.80039L12 4.40039L12.8 5.20039C13 5.40039 13.2 5.50039 13.5 5.50039C13.8 5.50039 14 5.40039 14.2 5.20039C14.6 4.80039 14.6 4.20039 14.2 3.80039L13.1 2.70039C13 2.60039 12.9 2.60039 12.8 2.50039C12.8 2.40039 12.7 2.30039 12.6 2.20039C12.2 1.80039 11.6 1.80039 11.2 2.20039L10.1 3.30039C9.7 3.70039 9.7 4.30039 10.1 4.70039C10.5 5.10039 11.3 5.20039 11.6 4.80039ZM7.1 9.00039C7.4 9.00039 7.6 8.90039 7.8 8.70039L8.9 7.60039C9.3 7.20039 9.3 6.60039 8.9 6.20039C8.5 5.80039 7.9 5.80039 7.5 6.20039L6.3 7.20039C6.2 7.40039 6.1 7.70039 6.1 7.90039C6.1 8.50039 6.5 8.90039 7.1 9.00039ZM10.9 9.00039H12.4C13 9.00039 13.4 8.60039 13.4 8.00039C13.4 7.40039 13 7.00039 12.4 7.00039H10.9C10.3 7.00039 9.9 7.40039 9.9 8.00039C9.9 8.60039 10.4 9.00039 10.9 9.00039Z" fill="black"/>
</svg>
