<svg width="24" height="24" viewBox="0 0 24 24" fill="none" xmlns="http://www.w3.org/2000/svg">
<path d="M7.4 7.20045C7.5 7.20045 7.6 7.20045 7.6 7.20045L9.5 6.70045C10 6.60045 10.4 6.00045 10.2 5.50045C10.1 5.00045 9.5 4.60045 9 4.80045L7.1 5.20045C6.7 5.30045 6.3 5.70045 6.3 6.20045C6.4 6.70045 6.8 7.20045 7.4 7.20045ZM9.5 9.00045H7.5C6.9 9.00045 6.5 9.40045 6.5 10.0004C6.5 10.6004 6.9 11.0004 7.5 11.0004H9.5C10.1 11.0004 10.5 10.6004 10.5 10.0004C10.5 9.40045 10.1 9.00045 9.5 9.00045ZM13.2 5.70045C13.3 5.70045 13.4 5.70045 13.4 5.70045L15.3 5.20045C15.9 5.00045 16.3 4.50045 16.1 4.00045C16 3.50045 15.4 3.10045 14.9 3.30045L13 3.70045C12.6 3.80045 12.2 4.20045 12.2 4.70045C12.2 5.20045 12.7 5.70045 13.2 5.70045ZM13.5 9.00045C12.9 9.00045 12.5 9.40045 12.5 10.0004C12.5 10.6004 12.9 11.0004 13.5 11.0004H15.5C16.1 11.0004 16.5 10.6004 16.5 10.0004C16.5 9.40045 16.1 9.00045 15.5 9.00045H13.5ZM21 2.80045C20.9 2.30045 20.3 1.90045 19.8 2.10045L18.8 2.30045C18.4 2.40045 18 2.80045 18 3.30045C18 3.90045 18.4 4.30045 19 4.30045C19.1 4.70045 19.5 5.00045 20 5.00045C20.6 5.00045 21 4.60045 21 4.00045V3.00045C21 2.90045 21 2.80045 21 2.80045ZM4 10.5004C4.6 10.5004 5 10.1004 5 9.50045V7.50045C5 6.90045 4.6 6.50045 4 6.50045C3.4 6.50045 3 7.00045 3 7.50045V9.50045C3 10.1004 3.4 10.5004 4 10.5004ZM20 7.00045C19.4 7.00045 19 7.40045 19 8.00045V9.10045C18.7 9.30045 18.5 9.60045 18.5 10.0004C18.5 10.6004 18.9 11.0004 19.5 11.0004H20C20.6 11.0004 21 10.6004 21 10.0004V8.00045C21 7.40045 20.6 7.00045 20 7.00045ZM20 13.0004H4C3.4 13.0004 3 13.4004 3 14.0004V17.0004C3 17.5004 3.3 17.9004 3.8 18.0004L19.8 22.0004C19.9 22.0004 20 22.0004 20 22.0004C20.6 22.0004 21 21.6004 21 21.0004V14.0004C21 13.4004 20.6 13.0004 20 13.0004Z" fill="black"/>
</svg>
