<svg width="24" height="24" viewBox="0 0 24 24" fill="none" xmlns="http://www.w3.org/2000/svg">
<path d="M13.2001 1.9996C11.2001 1.8996 9.20008 2.6996 7.70008 4.0996C6.30008 5.4996 5.50008 7.4996 5.50008 9.4996L3.60008 13.4996C3.40008 13.9996 3.60008 14.5996 4.10008 14.7996C4.20008 14.9996 4.40008 14.9996 4.50008 14.9996H5.50008V16.9996C5.50008 18.0996 6.40008 18.9996 7.50008 18.9996H8.50008V20.9996C8.50008 21.5996 8.90008 21.9996 9.50008 21.9996C10.1001 21.9996 18.1001 21.9996 18.5001 21.9996C18.6001 21.9996 18.7001 21.9996 18.8001 21.9996C19.3001 21.7996 19.6001 21.2996 19.5001 20.7996L18.6001 17.5996L20.5001 10.2996C20.5001 10.1996 20.5001 10.0996 20.5001 9.9996V9.7996C20.5001 5.6996 17.3001 2.1996 13.2001 1.9996Z" fill="black"/>
</svg>
