<svg width="24" height="24" viewBox="0 0 24 24" fill="none" xmlns="http://www.w3.org/2000/svg">
<path d="M6 16.0005C5.4 16.0005 5 16.4005 5 17.0005C5 17.6005 5.4 18.0005 6 18.0005C6.6 18.0005 7 17.6005 7 17.0005C7 16.4005 6.6 16.0005 6 16.0005ZM2 17.0005C1.4 17.0005 1 17.4005 1 18.0005C1 18.6005 1.4 19.0005 2 19.0005C2.6 19.0005 3 18.6005 3 18.0005C3 17.4005 2.6 17.0005 2 17.0005ZM5 20.0005C4.4 20.0005 4 20.4005 4 21.0005C4 21.6005 4.4 22.0005 5 22.0005C5.6 22.0005 6 21.6005 6 21.0005C6 20.4005 5.6 20.0005 5 20.0005ZM16.2 2.00048C12.2 1.90048 9 4.90047 8.9 8.90047C8.9 9.00047 8.9 9.00048 8.9 9.10048L7.1 12.9005C6.9 13.4005 7.1 14.0005 7.6 14.2005C7.7 14.3005 7.9 14.3005 8 14.3005H8.9V16.1005C8.9 17.2005 9.8 18.0005 10.8 18.0005H11.7V19.8005C11.7 20.4005 12.1 20.8005 12.7 20.8005C13.3 20.8005 20.7 20.8005 21.1 20.8005C21.2 20.8005 21.3 20.8005 21.4 20.8005C21.9 20.6005 22.2 20.1005 22.1 19.6005L21.2 16.6005L23 9.80048C23 9.70048 23 9.60047 23 9.50047V9.30048C23 5.40048 20 2.20048 16.2 2.00048Z" fill="black"/>
</svg>
