<svg width="24" height="24" viewBox="0 0 24 24" fill="none" xmlns="http://www.w3.org/2000/svg">
<path d="M13.2 1.9996C11.2 1.8996 9.2 2.6996 7.7 4.0996C6.3 5.4996 5.5 7.3996 5.5 9.4996L3.7 12.4996C3.6 12.6996 3.5 12.7996 3.5 12.9996C3.5 13.0996 3.5 13.1996 3.6 13.2996L5 17.1996V17.2996C5.5 18.2996 6.5 18.9996 7.7 18.9996H8.5V20.9996C8.5 21.5996 8.9 21.9996 9.5 21.9996C10.1 21.9996 10.5 21.5996 10.5 20.9996V18.9996H12.5C12.6 18.9996 12.7 18.9996 12.8 18.8996L16.5 17.5996V17.6996L17.5 21.1996C17.6 21.5996 18 21.8996 18.5 21.8996C18.6 21.8996 18.7 21.8996 18.8 21.8996C19.3 21.6996 19.6 21.1996 19.5 20.6996L18.6 17.4996L20.5 10.1996C20.5 10.0996 20.5 9.9996 20.5 9.8996V9.7996C20.5 5.6996 17.3 2.1996 13.2 1.9996ZM17 15.3996L13.5 16.5996V13.6996L17.8 12.2996L17 15.3996ZM18.4 9.9996C18.3 9.9996 18.2 9.9996 18.1 9.9996L12.3 11.9996H6.3L7.4 10.2996C7.5 10.0996 7.6 9.8996 7.5 9.6996V9.4996C7.5 6.4996 10 3.9996 13 3.9996C13.1 3.9996 13.1 3.9996 13.2 3.9996C16.2 4.1996 18.6 6.6996 18.5 9.7996L18.4 9.9996Z" fill="black"/>
</svg>
