<svg width="24" height="24" viewBox="0 0 24 24" fill="none" xmlns="http://www.w3.org/2000/svg">
<path d="M16.4001 3.3C12.5001 1.1 7.7001 1.8 4.6001 4.8V3C4.6001 2.4 4.2001 2 3.6001 2C3.0001 2 2.6001 2.4 2.6001 3V7.5C2.6001 8.1 3.0001 8.5 3.6001 8.5H8.1001C8.7001 8.5 9.1001 8.1 9.1001 7.5C9.1001 6.9 8.7001 6.5 8.1001 6.5H5.7001C7.1001 4.9 9.2001 4 11.5001 4C15.9001 4 19.5001 7.6 19.5001 12C19.5001 16.4 15.9001 20 11.5001 20C10.9001 20 10.5001 20.4 10.5001 21C10.5001 21.6 10.9001 22 11.5001 22C15.1001 22 18.4001 20.1 20.2001 17C22.9001 12.2 21.2001 6.1 16.4001 3.3ZM11.4001 8C10.8001 8 10.4001 8.4 10.4001 9V12C10.4001 12.6 10.8001 13 11.4001 13H13.4001C14.0001 13 14.4001 12.6 14.4001 12C14.4001 11.4 14.0001 11 13.4001 11H12.4001V9C12.4001 8.4 12.0001 8 11.4001 8Z" fill="black"/>
</svg>
