<svg width="24" height="24" viewBox="0 0 24 24" fill="none" xmlns="http://www.w3.org/2000/svg">
<path d="M21.5 6.5H18.5V2.5C18.5 1.9 18.1 1.5 17.5 1.5H6.5C5.9 1.5 5.5 1.9 5.5 2.5V6.5H2.5C1.9 6.5 1.5 6.9 1.5 7.5V21.5C1.5 22.1 1.9 22.5 2.5 22.5H21.5C22.1 22.5 22.5 22.1 22.5 21.5V7.5C22.5 6.9 22.1 6.5 21.5 6.5ZM7.5 18.5H6.5C5.9 18.5 5.5 18.1 5.5 17.5C5.5 16.9 5.9 16.5 6.5 16.5H7.5C8.1 16.5 8.5 16.9 8.5 17.5C8.5 18.1 8.1 18.5 7.5 18.5ZM7.5 14.5H6.5C5.9 14.5 5.5 14.1 5.5 13.5C5.5 12.9 5.9 12.5 6.5 12.5H7.5C8.1 12.5 8.5 12.9 8.5 13.5C8.5 14.1 8.1 14.5 7.5 14.5ZM12.5 18.5H11.5C10.9 18.5 10.5 18.1 10.5 17.5C10.5 16.9 10.9 16.5 11.5 16.5H12.5C13.1 16.5 13.5 16.9 13.5 17.5C13.5 18.1 13.1 18.5 12.5 18.5ZM12.5 14.5H11.5C10.9 14.5 10.5 14.1 10.5 13.5C10.5 12.9 10.9 12.5 11.5 12.5H12.5C13.1 12.5 13.5 12.9 13.5 13.5C13.5 14.1 13.1 14.5 12.5 14.5ZM13.5 9H13V9.5C13 10.1 12.6 10.5 12 10.5C11.4 10.5 11 10.1 11 9.5V9H10.5C9.9 9 9.5 8.6 9.5 8C9.5 7.4 9.9 7 10.5 7H11V6.5C11 5.9 11.4 5.5 12 5.5C12.6 5.5 13 5.9 13 6.5V7H13.5C14.1 7 14.5 7.4 14.5 8C14.5 8.6 14.1 9 13.5 9ZM17.5 18.5H16.5C15.9 18.5 15.5 18.1 15.5 17.5C15.5 16.9 15.9 16.5 16.5 16.5H17.5C18.1 16.5 18.5 16.9 18.5 17.5C18.5 18.1 18.1 18.5 17.5 18.5ZM17.5 14.5H16.5C15.9 14.5 15.5 14.1 15.5 13.5C15.5 12.9 15.9 12.5 16.5 12.5H17.5C18.1 12.5 18.5 12.9 18.5 13.5C18.5 14.1 18.1 14.5 17.5 14.5Z" fill="black"/>
</svg>
