<svg width="24" height="24" viewBox="0 0 24 24" fill="none" xmlns="http://www.w3.org/2000/svg">
<path d="M21.7001 10.3002L12.7 2.3002C12.3 2.0002 11.8 2.0002 11.4 2.3002L2.40005 10.3002C2.00005 10.7002 1.90005 11.3002 2.30005 11.7002C2.70005 12.1002 3.30005 12.2002 3.70005 11.8002L4.00005 11.4002V21.0002C4.00005 21.6002 4.40005 22.0002 5.00005 22.0002H19C19.6 22.0002 20 21.6002 20 21.0002V11.4002L20.3 11.7002C20.7 12.1002 21.3001 12.0002 21.7001 11.6002C22.1 11.3002 22.1 10.6002 21.7001 10.3002ZM12 11.0002C13.5 11.0002 14.7 12.2002 14.7 13.7002C14.7 15.2002 13.5 16.4002 12 16.4002C10.5 16.4002 9.30005 15.2002 9.30005 13.7002C9.30005 12.2002 10.5 11.0002 12 11.0002ZM7.00005 20.0002C7.00005 19.9002 7.00005 19.9002 7.10005 19.8002C9.30005 17.1002 13.3 16.6002 16 18.8002C16.4 19.1002 16.7 19.4002 17 19.8002C17 19.8002 17 19.9002 17.1 20.0002H7.00005Z" fill="black"/>
</svg>
