<svg width="24" height="24" viewBox="0 0 24 24" fill="none" xmlns="http://www.w3.org/2000/svg">
<path d="M21 4.4L21.7 3.7C22.1 3.3 22.1 2.7 21.7 2.3C21.3 1.9 20.7 1.9 20.3 2.3L9.8 12.8C9 12.3 8 12 7 12C4.2 12 2 14.2 2 17C2 19.8 4.2 22 7 22C9.8 22 12 19.8 12 17C12 16 11.7 15 11.2 14.2L16.8 8.6L18.9 10.7C19.3 11.1 19.9 11.1 20.3 10.7C20.7 10.3 20.7 9.7 20.3 9.3L18.2 7.2L19.6 5.8L20.3 6.5C20.7 6.9 21.3 6.9 21.7 6.5C22.1 6.1 22.1 5.5 21.7 5.1L21 4.4ZM7 20C5.3 20 4 18.7 4 17C4 15.3 5.3 14 7 14C8.7 14 10 15.3 10 17C10 18.7 8.7 20 7 20Z" fill="black"/>
</svg>
