<svg width="24" height="24" viewBox="0 0 24 24" fill="none" xmlns="http://www.w3.org/2000/svg">
<path d="M21 17H13C12.4 17 12 17.4 12 18C12 18.6 12.4 19 13 19H21C21.6 19 22 18.6 22 18C22 17.4 21.6 17 21 17ZM21 13H13C12.4 13 12 13.4 12 14C12 14.6 12.4 15 13 15H21C21.6 15 22 14.6 22 14C22 13.4 21.6 13 21 13ZM13 7H21C21.6 7 22 6.6 22 6C22 5.4 21.6 5 21 5H13C12.4 5 12 5.4 12 6C12 6.6 12.4 7 13 7ZM21 9H13C12.4 9 12 9.4 12 10C12 10.6 12.4 11 13 11H21C21.6 11 22 10.6 22 10C22 9.4 21.6 9 21 9ZM9.00005 5C8.40005 5 8.00005 5.4 8.00005 6V18C8.00005 18.6 8.40005 19 9.00005 19C9.60005 19 10.0001 18.6 10.0001 18V6C10.0001 5.4 9.60005 5 9.00005 5ZM4.60005 12L5.70005 11.1C6.10005 10.7 6.20005 10.1 5.80005 9.7C5.40005 9.3 4.80005 9.2 4.40005 9.6L2.40005 11.3L2.30005 11.4C1.90005 11.8 2.00005 12.5 2.40005 12.8L4.40005 14.5C4.60005 14.6 4.80005 14.7 5.00005 14.7C5.30005 14.7 5.60005 14.6 5.80005 14.3C6.20005 13.9 6.10005 13.2 5.70005 12.9L4.60005 12Z" fill="black"/>
</svg>
