<svg width="24" height="24" viewBox="0 0 24 24" fill="none" xmlns="http://www.w3.org/2000/svg">
<path d="M3 7H21C21.6 7 22 6.6 22 6C22 5.4 21.6 5 21 5H3C2.4 5 2 5.4 2 6C2 6.6 2.4 7 3 7ZM3 11H13C13.6 11 14 10.6 14 10C14 9.4 13.6 9 13 9H3C2.4 9 2 9.4 2 10C2 10.6 2.4 11 3 11ZM21 17H3C2.4 17 2 17.4 2 18C2 18.6 2.4 19 3 19H21C21.6 19 22 18.6 22 18C22 17.4 21.6 17 21 17ZM3 15H13C13.6 15 14 14.6 14 14C14 13.4 13.6 13 13 13H3C2.4 13 2 13.4 2 14C2 14.6 2.4 15 3 15ZM21.8 9.7C21.4 9.3 20.8 9.2 20.4 9.6L18.4 11.3L18.3 11.4C17.9 11.8 18 12.5 18.4 12.8L20.4 14.5C20.6 14.6 20.8 14.7 21 14.7C21.3 14.7 21.6 14.6 21.8 14.3C22.2 13.9 22.1 13.2 21.7 12.9L20.6 12L21.7 11.1C22.1 10.7 22.1 10.1 21.8 9.7Z" fill="black"/>
</svg>
