<svg width="24" height="24" viewBox="0 0 24 24" fill="none" xmlns="http://www.w3.org/2000/svg">
<path d="M10.0001 8H21.0001C21.6001 8 22.0001 7.6 22.0001 7C22.0001 6.4 21.6001 6 21.0001 6H10.0001C9.4001 6 9.0001 6.4 9.0001 7C9.0001 7.6 9.4001 8 10.0001 8ZM5.7001 15.3V8.7C5.9001 8.9 6.1001 9 6.3001 9C6.6001 9 6.8001 8.9 7.0001 8.8C7.4001 8.4 7.5001 7.8 7.1001 7.4L5.4001 5.4C5.2001 5.1 5.0001 5 4.7001 5C4.4001 5 4.1001 5.1 3.9001 5.4L2.2001 7.4C1.9001 7.8 1.9001 8.4 2.4001 8.8C2.8001 9.1 3.3001 9.1 3.7001 8.8V15.4C3.3001 15.1 2.8001 15 2.4001 15.4C2.0001 15.8 1.9001 16.4 2.3001 16.8L4.0001 18.8C4.1001 18.9 4.4001 19 4.7001 19C5.0001 19 5.3001 18.9 5.5001 18.6L7.2001 16.6C7.6001 16.2 7.5001 15.5 7.1001 15.2C6.6001 14.9 6.0001 14.9 5.7001 15.3ZM21.0001 11H10.0001C9.4001 11 9.0001 11.4 9.0001 12C9.0001 12.6 9.4001 13 10.0001 13H21.0001C21.6001 13 22.0001 12.6 22.0001 12C22.0001 11.4 21.6001 11 21.0001 11ZM21.0001 16H10.0001C9.4001 16 9.0001 16.4 9.0001 17C9.0001 17.6 9.4001 18 10.0001 18H21.0001C21.6001 18 22.0001 17.6 22.0001 17C22.0001 16.4 21.6001 16 21.0001 16Z" fill="black"/>
</svg>
