<svg width="24" height="24" viewBox="0 0 24 24" fill="none" xmlns="http://www.w3.org/2000/svg">
<path d="M6.9999 8.00015H20.9999C21.5999 8.00015 21.9999 7.60015 21.9999 7.00015C21.9999 6.40015 21.5999 6.00015 20.9999 6.00015H6.9999C6.3999 6.00015 5.9999 6.40015 5.9999 7.00015C5.9999 7.60015 6.3999 8.00015 6.9999 8.00015ZM20.9999 11.0001H6.9999C6.3999 11.0001 5.9999 11.4001 5.9999 12.0001C5.9999 12.6001 6.3999 13.0001 6.9999 13.0001H20.9999C21.5999 13.0001 21.9999 12.6001 21.9999 12.0001C21.9999 11.4001 21.5999 11.0001 20.9999 11.0001ZM20.9999 16.0001H6.9999C6.3999 16.0001 5.9999 16.4001 5.9999 17.0001C5.9999 17.6001 6.3999 18.0001 6.9999 18.0001H20.9999C21.5999 18.0001 21.9999 17.6001 21.9999 17.0001C21.9999 16.4001 21.5999 16.0001 20.9999 16.0001ZM3.6999 6.30015C3.5999 6.20015 3.4999 6.10015 3.3999 6.10015C2.9999 5.90015 2.5999 6.00015 2.2999 6.30015C2.1999 6.40015 2.0999 6.50015 2.0999 6.60015C1.9999 6.90015 1.9999 7.10015 2.0999 7.40015C2.1999 7.50015 2.1999 7.60015 2.2999 7.70015C2.3999 7.80015 2.4999 7.90015 2.5999 7.90015C2.6999 8.00015 2.8999 8.00015 2.9999 8.00015C3.2999 8.00015 3.4999 7.90015 3.6999 7.70015C3.7999 7.60015 3.8999 7.50015 3.8999 7.40015C3.9999 7.10015 3.9999 6.90015 3.8999 6.60015C3.8999 6.50015 3.7999 6.40015 3.6999 6.30015ZM3.6999 11.3001C3.3999 11.0001 2.9999 10.9001 2.5999 11.1001C2.4999 11.2001 2.3999 11.2001 2.2999 11.3001C2.1999 11.4001 2.0999 11.5001 2.0999 11.6001C1.9999 11.8001 1.9999 12.1001 2.0999 12.4001C2.1999 12.5001 2.1999 12.6001 2.2999 12.7001C2.3999 12.8001 2.4999 12.9001 2.5999 12.9001C2.6999 13.0001 2.8999 13.0001 2.9999 13.0001C3.0999 13.0001 3.2999 13.0001 3.3999 12.9001C3.4999 12.8001 3.5999 12.8001 3.6999 12.7001C3.7999 12.6001 3.8999 12.5001 3.8999 12.4001C3.9999 12.2001 3.9999 11.9001 3.8999 11.6001C3.8999 11.5001 3.7999 11.4001 3.6999 11.3001ZM3.6999 16.3001C3.5999 16.2001 3.4999 16.1001 3.3999 16.1001C3.1999 16.0001 2.8999 16.0001 2.5999 16.1001C2.4999 16.1001 2.3999 16.2001 2.2999 16.3001C2.1999 16.4001 2.0999 16.5001 2.0999 16.6001C1.8999 17.0001 1.9999 17.4001 2.2999 17.7001C2.3999 17.8001 2.4999 17.9001 2.5999 17.9001C2.6999 18.0001 2.8999 18.0001 2.9999 18.0001C3.0999 18.0001 3.2999 18.0001 3.3999 17.9001C3.4999 17.8001 3.5999 17.8001 3.6999 17.7001C3.9999 17.4001 4.0999 17.0001 3.8999 16.6001C3.8999 16.5001 3.7999 16.4001 3.6999 16.3001Z" fill="black"/>
</svg>
