<svg width="24" height="24" viewBox="0 0 24 24" fill="none" xmlns="http://www.w3.org/2000/svg">
<path d="M20 20.9998H14.8C14.9 20.7998 14.9 20.5998 14.9 20.3998C17.9 19.1998 19.9 16.2998 19.9 12.9998C19.9 10.9998 19.1 9.09975 17.8 7.59975L18.4 6.99975C18.5 6.89976 18.6 6.79975 18.6 6.59975L19.3 4.49975C19.4 4.09975 19.3 3.69975 19.1 3.49975L17 1.39975C16.7 1.09975 16.3 0.999755 16 1.19975L14 1.79975C13.9 1.79975 13.7 1.89975 13.6 1.99975L7.2 8.39975C6.8 8.79975 6.8 9.39976 7.2 9.79976L5.8 11.1998C5.4 11.5998 5.4 12.1998 5.8 12.5998L7.9 14.6998C8.3 15.0998 8.9 15.0998 9.3 14.6998L10.7 13.2998C11.1 13.6998 11.7 13.6998 12.1 13.2998L16.5 8.99975C17.5 10.0998 18 11.4998 18 12.9998C18 15.2998 16.6 17.3998 14.5 18.3998C13.6 16.9998 11.8 16.4998 10.4 17.3998C10 17.6998 9.6 17.9998 9.4 18.4998C9 18.2998 8.6 18.1998 8.3 17.8998C8.7 17.7998 9 17.3998 9 16.9998C9 16.3998 8.6 15.9998 8 15.9998H4C3.4 15.9998 3 16.3998 3 16.9998C3 17.5998 3.4 17.9998 4 17.9998H5.3C6.3 19.0998 7.6 19.9998 9 20.4998C9 20.6998 9.1 20.8998 9.1 20.9998H4C3.4 20.9998 3 21.3998 3 21.9998C3 22.5998 3.4 22.9998 4 22.9998H20C20.6 22.9998 21 22.5998 21 21.9998C21 21.4998 20.6 20.9998 20 20.9998ZM8.6 12.5998L7.9 11.8998L8.6 11.1998L9.3 11.8998L8.6 12.5998ZM12 20.9998C11.4 20.9998 11 20.5998 11 19.9998C11 19.3998 11.4 18.9998 12 18.9998C12.6 18.9998 13 19.3998 13 19.9998C13 20.5998 12.6 20.9998 12 20.9998Z" fill="black"/>
</svg>
