<svg width="24" height="24" viewBox="0 0 24 24" fill="none" xmlns="http://www.w3.org/2000/svg">
<path d="M18.1001 12.3996L11.9001 18.5996C10.2001 20.2996 7.5001 20.2996 5.9001 18.5996C4.2001 16.8996 4.2001 14.1996 5.9001 12.5996L13.9001 4.59961C14.9001 3.69961 16.4001 3.69961 17.4001 4.59961C18.4001 5.59961 18.4001 7.19961 17.4001 8.09961L10.5001 14.9996C10.2001 15.2996 9.7001 15.2996 9.4001 14.9996C9.1001 14.6996 9.1001 14.1996 9.4001 13.8996L14.5001 8.79961C14.9001 8.39961 14.9001 7.79961 14.5001 7.39961C14.1001 6.99961 13.5001 6.99961 13.1001 7.39961L8.0001 12.5996C6.9001 13.6996 6.9001 15.3996 8.0001 16.4996C9.1001 17.4996 10.8001 17.4996 11.9001 16.4996L18.8001 9.59961C20.6001 7.79961 20.6001 4.99961 18.8001 3.19961C17.0001 1.39961 14.2001 1.39961 12.4001 3.19961L4.4001 11.1996C3.2001 12.3996 2.6001 13.9996 2.6001 15.5996C2.6001 19.0996 5.4001 21.7996 8.9001 21.7996C10.6001 21.7996 12.1001 21.0996 13.3001 19.9996L19.5001 13.7996C19.9001 13.3996 19.9001 12.7996 19.5001 12.3996C19.1001 11.9996 18.5001 11.9996 18.1001 12.3996Z" fill="black"/>
</svg>
