<svg width="24" height="24" viewBox="0 0 24 24" fill="none" xmlns="http://www.w3.org/2000/svg">
<path d="M22.6 2.10037C22.5 1.80037 22.2 1.50037 21.9 1.40037C17.7001 0.30037 13.4 1.60037 10.5 5.00037L9.40005 6.30037L6.70005 5.70037C5.40005 5.20037 4.00005 5.80037 3.40005 7.00037L1.20005 10.9004C1.00005 11.2004 1.00005 11.5004 1.20005 11.8004C1.30005 12.1004 1.60005 12.3004 1.90005 12.4004L5.00005 13.1004C4.70005 13.9004 4.60005 14.7004 4.40005 15.5004C4.40005 15.8004 4.50005 16.1004 4.70005 16.3004L7.80005 19.4004C8.00005 19.6004 8.20005 19.7004 8.50005 19.7004H8.60005C9.50005 19.6004 10.3 19.5004 11.1 19.2004L11.7 22.2004C11.8 22.5004 12 22.8004 12.3 22.9004C12.4 23.0004 12.6 23.0004 12.7 23.0004C12.9 23.0004 13 23.0004 13.2 22.9004L17.1 20.7004C18.2001 20.1004 18.8 18.7004 18.5 17.4004L17.8 14.6004L19 13.5004C22.3 10.7004 23.7001 6.20037 22.6 2.10037ZM7.30005 8.80037C6.70005 9.60037 6.10005 10.4004 5.70005 11.2004L3.60005 10.7004L5.10005 8.00037C5.30005 7.60037 5.70005 7.50037 6.20005 7.60037L7.90005 8.00037L7.30005 8.80037ZM16 18.9004L13.3 20.4004L12.9 18.4004C13.8 18.0004 14.6 17.4004 15.3 16.8004L16 16.1004L16.4 17.8004C16.6 18.3004 16.3 18.8004 16 18.9004ZM16.7 8.80037C15.9 8.80037 15.2 8.10037 15.2 7.30037C15.2 6.50037 15.9 5.80037 16.7 5.80037C17.5 5.80037 18.2001 6.50037 18.2001 7.30037C18.2001 8.10037 17.6 8.80037 16.7 8.80037Z" fill="black"/>
</svg>
