<svg width="24" height="24" viewBox="0 0 24 24" fill="none" xmlns="http://www.w3.org/2000/svg">
<path d="M22.6001 7.09961L16.9001 1.39961C16.5001 0.999609 15.9001 0.999609 15.5001 1.39961L1.4001 15.4996C1.0001 15.8996 1.0001 16.4996 1.4001 16.8996L7.1001 22.5996C7.5001 22.9996 8.1001 22.9996 8.5001 22.5996L10.6001 20.4996L7.1001 16.9996C6.7001 16.5996 6.7001 15.9996 7.1001 15.5996C7.5001 15.1996 8.1001 15.1996 8.5001 15.5996L12.0001 19.0996L13.4001 17.6996L11.3001 15.5996C10.9001 15.1996 10.9001 14.5996 11.3001 14.1996C11.7001 13.7996 12.3001 13.7996 12.7001 14.1996L14.8001 16.2996L16.2001 14.8996L12.7001 11.3996C12.3001 10.9996 12.3001 10.3996 12.7001 9.99961C13.1001 9.59961 13.7001 9.59961 14.1001 9.99961L17.6001 13.4996L19.0001 12.0996L16.9001 9.99961C16.5001 9.59961 16.5001 8.99961 16.9001 8.59961C17.3001 8.19961 17.9001 8.19961 18.3001 8.59961L20.4001 10.6996L22.5001 8.59961C23.0001 8.09961 23.0001 7.39961 22.6001 7.09961Z" fill="black"/>
</svg>
