<svg width="24" height="24" viewBox="0 0 24 24" fill="none" xmlns="http://www.w3.org/2000/svg">
<path d="M21 2H3C2.4 2 2 2.4 2 3V21C2 21.6 2.4 22 3 22H9C9.6 22 10 21.6 10 21V18H7C6.4 18 6 17.6 6 17C6 16.4 6.4 16 7 16H10V14H7C6.4 14 6 13.6 6 13C6 12.4 6.4 12 7 12H10V10H7C6.4 10 6 9.6 6 9C6 8.4 6.4 8 7 8H8V7C8 6.4 8.4 6 9 6C9.6 6 10 6.4 10 7V10H12V7C12 6.4 12.4 6 13 6C13.6 6 14 6.4 14 7V10H16V7C16 6.4 16.4 6 17 6C17.6 6 18 6.4 18 7V10H21C21.6 10 22 9.6 22 9V3C22 2.4 21.6 2 21 2Z" fill="black"/>
</svg>
