<svg width="24" height="24" viewBox="0 0 24 24" fill="none" xmlns="http://www.w3.org/2000/svg">
<path d="M16.0001 8V5C16.0001 4.4 15.6001 4 15.0001 4H14.0001V3H15.0001C15.6001 3 16.0001 2.6 16.0001 2C16.0001 1.4 15.6001 1 15.0001 1H10.2001C8.50008 1 6.90008 2 6.10008 3.6C5.90008 4 6.10008 4.6 6.60008 4.9C7.10008 5.1 7.70008 4.9 7.90008 4.5C8.30008 3.6 9.20008 3 10.2001 3H12.0001V4H11.0001C10.4001 4 10.0001 4.4 10.0001 5V8C8.30008 8 7.00008 9.3 7.00008 11V20C7.00008 21.7 8.30008 23 10.0001 23H16.0001C17.7001 23 19.0001 21.7 19.0001 20V11C19.0001 9.3 17.7001 8 16.0001 8ZM12.0001 6H14.0001V8H12.0001V6ZM14.0001 17H12.0001C11.4001 17 11.0001 16.6 11.0001 16C11.0001 15.4 11.4001 15 12.0001 15H14.0001C14.6001 15 15.0001 15.4 15.0001 16C15.0001 16.6 14.6001 17 14.0001 17Z" fill="black"/>
</svg>
