<svg width="24" height="24" viewBox="0 0 24 24" fill="none" xmlns="http://www.w3.org/2000/svg">
<path d="M18.8 7.6L16 5.5V3H17C17.6 3 18 2.6 18 2C18 1.4 17.6 1 17 1H8.7C7.3 1 6.1 1.5 5.1 2.5L4.3 3.3C3.9 3.7 3.9 4.3 4.3 4.7C4.7 5.1 5.3 5.1 5.7 4.7L6.5 3.9C7.1 3.3 7.9 3 8.7 3H10V5.5L7.2 7.6C6.4 8.2 6 9.1 6 10V22C6 22.6 6.4 23 7 23H19C19.6 23 20 22.6 20 22V10C20 9.1 19.6 8.2 18.8 7.6ZM12 3H14V5H12V3ZM13 17C11.9 17 11 16.1 11 15C11 13.9 11.9 13 13 13C14.1 13 15 13.9 15 15C15 16.1 14.1 17 13 17Z" fill="black"/>
</svg>
