<svg width="24" height="24" viewBox="0 0 24 24" fill="none" xmlns="http://www.w3.org/2000/svg">
<path d="M19.6 3.6002C19.4 3.4002 19.1 3.3002 18.8 3.4002C16.6 3.9002 14.4 3.4002 12.6 2.1002C12.3 1.9002 11.8 1.9002 11.5 2.1002C9.6 3.4002 7.4 3.9002 5.2 3.4002C4.7 3.3002 4.1 3.7002 4 4.2002C4 4.3002 4 4.3002 4 4.4002V11.9002C4 14.8002 5.4 17.5002 7.8 19.2002L11.5 21.8002C11.8 22.0002 12.3 22.0002 12.7 21.8002L16.4 19.2002C18.8 17.5002 20.2 14.8002 20.2 11.9002V4.4002C20 4.1002 19.9 3.8002 19.6 3.6002ZM14 13.0002H13V14.0002C13 14.6002 12.6 15.0002 12 15.0002C11.4 15.0002 11 14.6002 11 14.0002V13.0002H10C9.4 13.0002 9 12.6002 9 12.0002C9 11.4002 9.4 11.0002 10 11.0002H11V10.0002C11 9.4002 11.4 9.0002 12 9.0002C12.6 9.0002 13 9.4002 13 10.0002V11.0002H14C14.6 11.0002 15 11.4002 15 12.0002C15 12.6002 14.6 13.0002 14 13.0002Z" fill="black"/>
</svg>
