<svg width="24" height="24" viewBox="0 0 24 24" fill="none" xmlns="http://www.w3.org/2000/svg">
<path d="M5 18C4.4 18 4 18.4 4 19V21C4 21.6 4.4 22 5 22C5.6 22 6 21.6 6 21V19C6 18.4 5.6 18 5 18ZM10 14C9.4 14 9 14.4 9 15V21C9 21.6 9.4 22 10 22C10.6 22 11 21.6 11 21V15C11 14.4 10.6 14 10 14ZM20 2C19.4 2 19 2.4 19 3V21C19 21.6 19.4 22 20 22C20.6 22 21 21.6 21 21V3C21 2.4 20.6 2 20 2ZM15 9C14.4 9 14 9.4 14 10V21C14 21.6 14.4 22 15 22C15.6 22 16 21.6 16 21V10C16 9.4 15.6 9 15 9Z" fill="black"/>
</svg>
