<svg width="24" height="24" viewBox="0 0 24 24" fill="none" xmlns="http://www.w3.org/2000/svg">
<path d="M21.2 17.3L19.2 15.3C18.8 14.9 18.2 14.9 17.8 15.3C17.4 15.7 17.4 16.3 17.8 16.7L18.1 17H15.5C14.9 17 14.5 17.4 14.5 18C14.5 18.6 14.9 19 15.5 19H18.1L17.8 19.3C17.6 19.5 17.5 19.7 17.5 20C17.5 20.6 17.9 21 18.5 21C18.8 21 19 20.9 19.2 20.7L21.2 18.7C21.3 18.6 21.4 18.5 21.4 18.4C21.4 18.3 21.5 18.2 21.5 18C21.5 17.9 21.5 17.7 21.4 17.6C21.4 17.5 21.3 17.4 21.2 17.3ZM8.50002 17H5.90002L6.20002 16.7C6.60002 16.3 6.60002 15.7 6.20002 15.3C5.80002 14.9 5.20002 14.9 4.80002 15.3L2.80002 17.3C2.70002 17.4 2.60002 17.5 2.60002 17.6C2.60002 17.7 2.50002 17.8 2.50002 18C2.50002 18.1 2.50002 18.3 2.60002 18.4C2.70002 18.5 2.70002 18.6 2.80002 18.7L4.80002 20.7C5.00002 20.9 5.20002 21 5.50002 21C5.80002 21 6.00002 20.9 6.20002 20.7C6.60002 20.3 6.60002 19.7 6.20002 19.3L5.90002 19H8.50002C9.10002 19 9.50002 18.6 9.50002 18C9.50002 17.4 9.10002 17 8.50002 17ZM18 9.2C19.4 9.2 20.6 8 20.6 6.6C20.6 5.2 19.4 4 18 4C16.6 4 15.4 5.2 15.4 6.6C15.4 8 16.6 9.2 18 9.2ZM22.7 12.9C20.6 10.3 16.8 9.9 14.2 12C13.9 12.3 13.5 12.6 13.3 12.9C12.9 13.5 12.9 14.3 13.5 14.7C13.7 14.9 14 15 14.3 15H16.2C16.3 14.7 16.5 14.5 16.7 14.2C17.7 13.2 19.3 13.2 20.2 14.2L21 15H21.6C22.3 15 22.9 14.4 22.9 13.7C23 13.4 22.9 13.1 22.7 12.9ZM2.20002 11.9C1.90002 12.2 1.50002 12.5 1.30002 12.8C0.900016 13.4 0.900016 14.2 1.50002 14.6C1.70002 14.9 2.00002 15 2.30002 15H3.00002L3.80002 14.2C4.80002 13.2 6.40002 13.2 7.30002 14.2C7.50002 14.4 7.70002 14.7 7.80002 15H9.70002C10.4 15 11 14.4 11 13.7C11 13.4 10.9 13.1 10.7 12.9C8.60002 10.3 4.80002 9.9 2.20002 11.9ZM6.00002 9.2C7.40002 9.2 8.60002 8 8.60002 6.6C8.60002 5.2 7.40002 4 6.00002 4C4.60002 4 3.40002 5.2 3.40002 6.6C3.40002 8 4.60002 9.2 6.00002 9.2Z" fill="black"/>
</svg>
