<svg width="24" height="24" viewBox="0 0 24 24" fill="none" xmlns="http://www.w3.org/2000/svg">
<path d="M21.8 10C21.4 8.8 20.2 8 19 8C17.3 8 16 9.3 16 11C16 12.3 16.8 13.4 18 13.8V15.5C18 18 16 20 13.5 20C11 20 9 18 9 15.5V14.5L12.1 12C13.3 11 14 9.6 14 8.1V3C14 2.4 13.6 2 13 2H11C10.4 2 10 2.4 10 3C10 3.6 10.4 4 11 4H12V8.1C12 9 11.6 9.9 10.9 10.4L8 12.7L5.1 10.4C4.4 9.9 4 9 4 8.1V4H5C5.6 4 6 3.6 6 3C6 2.4 5.6 2 5 2H3C2.4 2 2 2.4 2 3V8.1C2 9.6 2.7 11.1 3.9 12L7 14.5V15.5C7 19.1 9.9 22 13.5 22C17.1 22 20 19.1 20 15.5V13.8C21.6 13.3 22.4 11.6 21.8 10Z" fill="black"/>
</svg>
