<svg width="24" height="24" viewBox="0 0 24 24" fill="none" xmlns="http://www.w3.org/2000/svg">
<path d="M9.99992 4.5H13.9999C14.5999 4.5 14.9999 4.1 14.9999 3.5C14.9999 2.9 14.5999 2.5 13.9999 2.5H9.99992C9.39992 2.5 8.99992 2.9 8.99992 3.5C8.99992 4.1 9.39992 4.5 9.99992 4.5ZM18.2999 8.6L19.1999 7.7C19.5999 7.3 19.5999 6.7 19.1999 6.3C18.7999 5.9 18.1999 5.9 17.7999 6.3L16.8999 7.2C13.9999 4.9 9.99992 4.9 7.09992 7.2L6.19992 6.3C5.79992 5.9 5.19992 5.9 4.79992 6.3C4.39992 6.7 4.39992 7.3 4.79992 7.7L5.69992 8.6C2.99992 12.1 3.59992 17.1 7.09992 19.8C10.5999 22.5 15.5999 21.9 18.2999 18.4C20.5999 15.5 20.5999 11.5 18.2999 8.6ZM13.6999 14.5C13.2999 15.1 12.6999 15.5 11.9999 15.5C10.8999 15.5 9.99992 14.6 9.99992 13.5C9.99992 12.8 10.3999 12.1 10.9999 11.8V9.5C10.9999 8.9 11.3999 8.5 11.9999 8.5C12.5999 8.5 12.9999 8.9 12.9999 9.5V11.8C13.9999 12.3 14.2999 13.5 13.6999 14.5Z" fill="black"/>
</svg>
