<svg width="24" height="24" viewBox="0 0 24 24" fill="none" xmlns="http://www.w3.org/2000/svg">
<path d="M15 10.6C15.8 11.5 16.8 12 18 12V13.8L20 15.8V11.5C21.2 10.8 22 9.5 22 8.1C22 8 22 7.8 21.9 7.7L19.9 2.7C19.8 2.2 19.4 2 19 2H6.2L15 10.6C15 10.6 14.9 10.7 15 10.6ZM22.7 21.3L20 18.6L18 16.6L13.2 11.8L4.1 2.6L2.7 1.3C2.3 0.9 1.7 0.9 1.3 1.3C0.9 1.7 0.9 2.3 1.3 2.7L3.3 4.7L2.1 7.7C2 7.7 2 7.9 2 8C2 9.4 2.8 10.7 4 11.4V21C4 21.6 4.4 22 5 22H19C19.4 22 19.8 21.7 19.9 21.3L21.3 22.7C21.7 23.1 22.3 23.1 22.7 22.7C23.1 22.3 23.1 21.7 22.7 21.3ZM10 14C9.4 14 9 14.4 9 15V20H6V12C7.2 12 8.2 11.5 9 10.6C9.3 10.9 9.6 11.2 10 11.4L12.6 14H10ZM18 20H15V16.4L18 19.4V20Z" fill="black"/>
</svg>
