<svg width="24" height="24" viewBox="0 0 24 24" fill="none" xmlns="http://www.w3.org/2000/svg">
<path d="M22.3 20.4C21.1 19 20.5 17.3 20.5 15.5V8C20.5 4.7 18.3 2 15.5 2H6.5C3.7 2 1.5 4.7 1.5 8C1.5 11.3 3.7 14 6.5 14H9.5V15.5C9.5 17.8 10.3 20 11.7 21.7C11.9 21.9 12.2 22 12.5 22H21.5C22.1 22 22.5 21.6 22.5 21C22.5 20.8 22.4 20.5 22.3 20.4ZM6.5 9.2C5.9 9.2 5.4 8.6 5.5 8C5.4 7.4 5.9 6.8 6.5 6.8C7.1 6.9 7.6 7.4 7.5 8C7.6 8.6 7.1 9.2 6.5 9.2ZM13 20C12 18.7 11.5 17.1 11.5 15.4V8.4V8.3C11.5 8.2 11.5 8 11.5 7.9C11.5 6.5 11.1 5.1 10.2 3.9H15.5C17.2 3.9 18.5 5.7 18.5 7.9V15.4C18.5 17 18.9 18.6 19.6 20H13Z" fill="black"/>
</svg>
