<svg width="24" height="24" viewBox="0 0 24 24" fill="none" xmlns="http://www.w3.org/2000/svg">
<path d="M15.9 13.2002C15.8 13.2002 15.8 13.1002 15.7 13.1002C17.2 12.0002 18 10.3002 18 8.4002C18 8.2002 18 8.0002 18 7.8002V7.7002L18.3 5.3002C18.5 3.7002 17.4 2.3002 15.9 2.0002L15 1.8002C13 1.5002 11 1.5002 9.00003 1.8002L8.20003 2.0002C6.60003 2.3002 5.50003 3.7002 5.70003 5.3002L6.00003 7.7002V7.8002C6.00003 8.0002 6.00003 8.2002 6.00003 8.4002C6.00003 10.2002 6.80003 12.0002 8.30003 13.1002C8.20003 13.1002 8.20003 13.2002 8.10003 13.2002C4.80003 14.6002 2.50003 17.7002 2.10003 21.3002C2.00003 21.8002 2.40003 22.3002 3.00003 22.4002C3.60003 22.5002 20.5 22.4002 21 22.4002H21.1C21.6 22.3002 22 21.8002 22 21.3002C21.5 17.7002 19.2 14.6002 15.9 13.2002ZM12 16.3002L10.3 14.6002C11.4 14.4002 12.5 14.4002 13.6 14.6002L12 16.3002ZM12 12.4002C9.80003 12.4002 8.10003 10.7002 8.00003 8.5002H16C15.9 10.7002 14.2 12.4002 12 12.4002Z" fill="black"/>
</svg>
