<svg width="24" height="24" viewBox="0 0 24 24" fill="none" xmlns="http://www.w3.org/2000/svg">
<path d="M16.2 12.9003C16.2 12.9003 16.1 12.9003 16.2 12.9003C16 12.8003 15.9 12.7003 15.7 12.7003C18.3 10.7003 18.8 6.90029 16.7 4.30029C14.6 1.70029 10.9 1.20029 8.3 3.30029C5.7 5.40029 5.2 9.10029 7.3 11.7003C7.6 12.1003 7.9 12.4003 8.3 12.7003C8.2 12.8003 8 12.8003 7.9 12.9003C7.9 12.9003 7.9 12.9003 7.8 12.9003C4.6 14.4003 2.4 17.4003 2 20.9003C2 21.4003 2.4 21.9003 3 22.0003H21C21.5 21.9003 21.9 21.4003 21.9 20.9003C21.6 17.4003 19.4 14.4003 16.2 12.9003ZM8 7.60029C8.2 5.40029 10.2 3.80029 12.3 4.00029C14.2 4.20029 15.7 5.70029 15.9 7.60029H8ZM12 16.2003L10.1 14.3003C11.4 14.0003 12.7 14.0003 14 14.3003L12 16.2003Z" fill="black"/>
</svg>
