<svg width="24" height="24" viewBox="0 0 24 24" fill="none" xmlns="http://www.w3.org/2000/svg">
<path d="M20 16.2V7.8C21.2 7.4 22 6.3 22 5C22 3.3 20.7 2 19 2C17.7 2 16.6 2.8 16.2 4H7.8C7.4 2.8 6.3 2 5 2C3.3 2 2 3.3 2 5C2 6.3 2.8 7.4 4 7.8V16.2C2.8 16.6 2 17.7 2 19C2 20.7 3.3 22 5 22C6.3 22 7.4 21.2 7.8 20H16.2C16.6 21.2 17.7 22 19 22C20.7 22 22 20.7 22 19C22 17.7 21.2 16.6 20 16.2ZM16.2 18H7.8C7.5 17.2 6.8 16.5 6 16.2V7.8C6.8 7.5 7.5 6.8 7.8 6H16.2C16.5 6.8 17.2 7.5 18 7.8V16.2C17.2 16.5 16.5 17.2 16.2 18ZM19 4C19.6 4 20 4.4 20 5C20 5.6 19.6 6 19 6C18.4 6 18 5.6 18 5C18 4.4 18.4 4 19 4ZM5 4C5.6 4 6 4.4 6 5C6 5.6 5.6 6 5 6C4.4 6 4 5.6 4 5C4 4.4 4.4 4 5 4ZM5 20C4.4 20 4 19.6 4 19C4 18.4 4.4 18 5 18C5.6 18 6 18.4 6 19C6 19.6 5.6 20 5 20ZM19 20C18.4 20 18 19.6 18 19C18 18.4 18.4 18 19 18C19.6 18 20 18.4 20 19C20 19.6 19.6 20 19 20Z" fill="black"/>
</svg>
