<svg width="24" height="24" viewBox="0 0 24 24" fill="none" xmlns="http://www.w3.org/2000/svg">
<path d="M19.8 18.4L15.8 14.4L13.7 12.3L5.7 4.3L2.7 1.3C2.3 0.9 1.7 0.9 1.3 1.3C0.9 1.7 0.9 2.3 1.3 2.7L5 6.4C3.9 7.7 3.2 9.3 3.1 11H2C1.4 11 1 11.4 1 12C1 12.6 1.4 13 2 13H3.1C3.3 14.7 4 16.3 5 17.6L4.2 18.4C3.8 18.8 3.8 19.4 4.2 19.8C4.6 20.2 5.2 20.2 5.6 19.8L6.4 19C7.7 20.1 9.3 20.7 11 20.9V22C11 22.6 11.4 23 12 23C12.6 23 13 22.6 13 22V20.9C14.7 20.7 16.3 20 17.6 19L21.3 22.7C21.5 22.9 21.7 23 22 23C22.3 23 22.5 22.9 22.7 22.7C23.1 22.3 23.1 21.7 22.7 21.3L19.8 18.4ZM9 16C8.4 16 8 15.6 8 15C8 14.4 8.4 14 9 14C9.6 14 10 14.4 10 15C10 15.6 9.6 16 9 16ZM9.5 12C8.7 12 8 11.3 8 10.5C8 10.2 8.1 9.9 8.3 9.7L10.4 11.8C10.1 11.9 9.8 12 9.5 12ZM20.9 13H22C22.6 13 23 12.6 23 12C23 11.4 22.6 11 22 11H20.9C20.7 9.3 20 7.7 19 6.4L19.8 5.6C20.2 5.2 20.2 4.6 19.8 4.2C19.4 3.8 18.8 3.8 18.4 4.2L17.6 5C16.3 3.9 14.7 3.3 13 3.1V2C13 1.4 12.6 1 12 1C11.4 1 11 1.4 11 2V3.1C10 3.2 9 3.5 8.1 3.9L20.1 15.9C20.5 15 20.8 14 20.9 13ZM15 10C14.4 10 14 9.6 14 9C14 8.4 14.4 8 15 8C15.6 8 16 8.4 16 9C16 9.6 15.6 10 15 10Z" fill="black"/>
</svg>
