<svg width="24" height="24" viewBox="0 0 24 24" fill="none" xmlns="http://www.w3.org/2000/svg">
<path d="M3 7.2002H21C21.6 7.2002 22 6.8002 22 6.2002C22 5.6002 21.6 5.2002 21 5.2002H3C2.4 5.2002 2 5.6002 2 6.2002C2 6.8002 2.4 7.2002 3 7.2002ZM9 15.2002H3C2.4 15.2002 2 15.6002 2 16.2002C2 16.8002 2.4 17.2002 3 17.2002H9C9.6 17.2002 10 16.8002 10 16.2002C10 15.6002 9.6 15.2002 9 15.2002ZM18.5 10.2002H3C2.4 10.2002 2 10.6002 2 11.2002C2 11.8002 2.4 12.2002 3 12.2002H18.5C19.3 12.2002 20 12.9002 20 13.7002C20 14.5002 19.3 15.2002 18.5 15.2002H15.7C16 14.8002 16.1 14.3002 15.7 13.9002C15.3 13.5002 14.7 13.4002 14.3 13.8002L12.3 15.5002L12.2 15.6002C11.8 16.0002 11.9 16.7002 12.3 17.0002L14.3 18.7002C14.5 18.8002 14.7 18.9002 14.9 18.9002C15.2 18.9002 15.5 18.8002 15.7 18.5002C16 18.1002 16 17.6002 15.7 17.2002H18.5C20.4 17.2002 22 15.6002 22 13.7002C22 11.8002 20.4 10.2002 18.5 10.2002Z" fill="black"/>
</svg>
