<svg width="24" height="24" viewBox="0 0 24 24" fill="none" xmlns="http://www.w3.org/2000/svg">
<path d="M14.4899 10.8603C14.8248 10.3993 15.0257 9.8546 15.0704 9.28651C15.115 8.71841 15.0018 8.14903 14.743 7.64131C14.4843 7.13358 14.0902 6.70729 13.6044 6.40955C13.1185 6.11182 12.5597 5.95424 11.9899 5.95424C11.42 5.95424 10.8613 6.11182 10.3754 6.40955C9.88953 6.70729 9.49545 7.13358 9.23672 7.64131C8.978 8.14903 8.86472 8.71841 8.90939 9.28651C8.95407 9.8546 9.15497 10.3993 9.48988 10.8603C9.06505 11.1311 8.68683 11.4687 8.36988 11.8603C8.28715 11.9673 8.22631 12.0896 8.19083 12.2202C8.15535 12.3507 8.14593 12.4869 8.16311 12.6211C8.18029 12.7553 8.22373 12.8848 8.29095 13.0022C8.35817 13.1196 8.44785 13.2226 8.55488 13.3053C8.66191 13.388 8.78418 13.4489 8.91472 13.4844C9.04526 13.5198 9.18152 13.5293 9.3157 13.5121C9.44988 13.4949 9.57936 13.4515 9.69675 13.3842C9.81414 13.317 9.91715 13.2273 9.99988 13.1203C10.2441 12.8099 10.5554 12.5587 10.9104 12.3855C11.2653 12.2124 11.6549 12.1217 12.0499 12.1203C12.4449 12.1217 12.8344 12.2124 13.1894 12.3855C13.5444 12.5587 13.8557 12.8099 14.0999 13.1203C14.194 13.2363 14.3129 13.3298 14.4479 13.3938C14.5829 13.4578 14.7305 13.4908 14.8799 13.4903C15.0673 13.4894 15.2508 13.4359 15.4093 13.3358C15.5678 13.2357 15.695 13.093 15.7763 12.9241C15.8576 12.7552 15.8898 12.5669 15.8692 12.3805C15.8487 12.1942 15.7761 12.0174 15.6599 11.8703C15.3287 11.471 14.9333 11.1297 14.4899 10.8603ZM11.9999 10.1303C11.786 10.1302 11.577 10.0671 11.3987 9.94903C11.2204 9.83093 11.0808 9.663 10.9972 9.46615C10.9137 9.2693 10.8899 9.05222 10.9288 8.84194C10.9677 8.63167 11.0676 8.43749 11.2161 8.28357C11.3646 8.12966 11.555 8.02282 11.7638 7.97635C11.9725 7.92989 12.1903 7.94585 12.39 8.02225C12.5898 8.09865 12.7626 8.23211 12.8871 8.40602C13.0115 8.57993 13.082 8.78661 13.0899 9.00031C13.0953 9.14678 13.071 9.29283 13.0187 9.42973C12.9663 9.56663 12.8869 9.69156 12.7851 9.79705C12.6834 9.90254 12.5614 9.98642 12.4265 10.0437C12.2915 10.1009 12.1465 10.1304 11.9999 10.1303ZM20.4599 9.63031C20.3195 8.16922 19.8031 6.76939 18.9611 5.56713C18.119 4.36486 16.98 3.40114 15.6549 2.7698C14.3298 2.13846 12.8638 1.86103 11.3996 1.96451C9.93543 2.068 8.52301 2.54887 7.29988 3.36031C6.24908 4.06295 5.36693 4.98961 4.71682 6.0737C4.06672 7.15779 3.66478 8.37241 3.53988 9.63031C3.41736 10.88 3.57455 12.1412 4.00005 13.3226C4.42555 14.5039 5.10868 15.5758 5.99988 16.4603L11.2999 21.7703C11.3928 21.864 11.5034 21.9384 11.6253 21.9892C11.7472 22.04 11.8779 22.0661 12.0099 22.0661C12.1419 22.0661 12.2726 22.04 12.3945 21.9892C12.5163 21.9384 12.6269 21.864 12.7199 21.7703L17.9999 16.4603C18.8911 15.5758 19.5742 14.5039 19.9997 13.3226C20.4252 12.1412 20.5824 10.88 20.4599 9.63031ZM16.5999 15.0503L11.9999 19.6503L7.39988 15.0503C6.72197 14.3724 6.20268 13.5526 5.87935 12.6501C5.55601 11.7475 5.43667 10.7845 5.52988 9.83031C5.6237 8.86141 5.93164 7.92547 6.43145 7.09015C6.93126 6.25483 7.61044 5.54102 8.41988 5.00031C9.48083 4.29554 10.7262 3.9196 11.9999 3.9196C13.2736 3.9196 14.5189 4.29554 15.5799 5.00031C16.3869 5.53893 17.0646 6.24959 17.5642 7.08125C18.0639 7.9129 18.3732 8.84491 18.4699 9.81031C18.5661 10.7677 18.4483 11.7346 18.1249 12.6409C17.8014 13.5471 17.2805 14.3701 16.5999 15.0503Z" fill="black"/>
</svg>
