<svg width="24" height="24" viewBox="0 0 24 24" fill="none" xmlns="http://www.w3.org/2000/svg">
<path d="M19.4999 4.5002C18.5398 3.54025 17.2377 3.00098 15.8799 3.00098C14.5222 3.00098 13.2201 3.54025 12.2599 4.5002L4.49994 12.2602C4.01308 12.733 3.62509 13.2979 3.35852 13.922C3.09195 14.5462 2.95212 15.2171 2.94716 15.8957C2.9422 16.5743 3.07221 17.2472 3.32963 17.8752C3.58705 18.5031 3.96675 19.0736 4.44663 19.5535C4.92652 20.0334 5.49703 20.4131 6.12498 20.6705C6.75293 20.9279 7.42579 21.0579 8.10444 21.053C8.78309 21.048 9.45398 20.9082 10.0781 20.6416C10.7022 20.375 11.2671 19.9871 11.7399 19.5002L19.4999 11.7402C20.4599 10.78 20.9992 9.47792 20.9992 8.1202C20.9992 6.76248 20.4599 5.46036 19.4999 4.5002ZM10.3199 18.0902C9.72397 18.6535 8.935 18.9674 8.11494 18.9674C7.29487 18.9674 6.50591 18.6535 5.90994 18.0902C5.32797 17.5039 5.00139 16.7113 5.00139 15.8852C5.00139 15.0591 5.32797 14.2665 5.90994 13.6802L9.08994 10.5002L13.4999 14.9102L10.3199 18.0902ZM18.0899 10.3202L14.9099 13.5002L10.4999 9.0902L13.6799 5.9102C14.271 5.35652 15.0541 5.05435 15.8639 5.06756C16.6736 5.08076 17.4465 5.40831 18.0192 5.98097C18.5918 6.55362 18.9194 7.32651 18.9326 8.13627C18.9458 8.94602 18.6436 9.72918 18.0899 10.3202Z" fill="black"/>
</svg>
