<svg width="24" height="24" viewBox="0 0 24 24" fill="none" xmlns="http://www.w3.org/2000/svg">
<path d="M16.2899 6.29015L9.28994 13.2901C9.19621 13.3831 9.12182 13.4937 9.07105 13.6156C9.02028 13.7374 8.99414 13.8681 8.99414 14.0001C8.99414 14.1322 9.02028 14.2629 9.07105 14.3847C9.12182 14.5066 9.19621 14.6172 9.28994 14.7101C9.3829 14.8039 9.4935 14.8783 9.61536 14.929C9.73722 14.9798 9.86793 15.0059 9.99994 15.0059C10.132 15.0059 10.2627 14.9798 10.3845 14.929C10.5064 14.8783 10.617 14.8039 10.7099 14.7101L17.7099 7.71015C17.8982 7.52184 18.004 7.26645 18.004 7.00015C18.004 6.73385 17.8982 6.47845 17.7099 6.29015C17.5216 6.10184 17.2662 5.99606 16.9999 5.99606C16.7336 5.99606 16.4782 6.10184 16.2899 6.29015ZM20.5399 3.46015C20.0755 2.99452 19.5237 2.62509 18.9163 2.37302C18.3088 2.12096 17.6576 1.99121 16.9999 1.99121C16.3423 1.99121 15.6911 2.12096 15.0836 2.37302C14.4762 2.62509 13.9244 2.99452 13.4599 3.46015L5.28994 11.6901C5.10519 11.8764 5.00104 12.1278 4.99994 12.3901V17.5801L2.28994 20.2901C2.19621 20.3831 2.12182 20.4937 2.07105 20.6156C2.02028 20.7374 1.99414 20.8681 1.99414 21.0001C1.99414 21.1322 2.02028 21.2629 2.07105 21.3847C2.12182 21.5066 2.19621 21.6172 2.28994 21.7101C2.3829 21.8039 2.4935 21.8783 2.61536 21.929C2.73722 21.9798 2.86793 22.0059 2.99994 22.0059C3.13195 22.0059 3.26266 21.9798 3.38452 21.929C3.50637 21.8783 3.61698 21.8039 3.70994 21.7101L6.41994 19.0001H11.6099C11.8723 18.999 12.1237 18.8949 12.3099 18.7101L20.5399 10.5401C21.0056 10.0757 21.375 9.52394 21.6271 8.91648C21.8791 8.30903 22.0089 7.65782 22.0089 7.00015C22.0089 6.34248 21.8791 5.69126 21.6271 5.08381C21.375 4.47636 21.0056 3.92461 20.5399 3.46015ZM19.1199 9.12015L11.1999 17.0001H6.99994V12.8001L14.8799 4.88015C15.4486 4.35023 16.2008 4.06174 16.978 4.07545C17.7552 4.08916 18.4968 4.40401 19.0464 4.95366C19.5961 5.50331 19.9109 6.24485 19.9246 7.02206C19.9384 7.79926 19.6499 8.55145 19.1199 9.12015Z" fill="black"/>
</svg>
