<svg width="24" height="24" viewBox="0 0 24 24" fill="none" xmlns="http://www.w3.org/2000/svg">
<path d="M19.7049 19.2659L19.6379 19.3329C18.8139 20.1698 17.8312 20.8338 16.7473 21.286C15.6272 21.757 14.4244 21.9998 13.2094 22.0003C12.0148 22.0023 10.8316 21.7676 9.72821 21.3098C8.62482 20.8519 7.62306 20.18 6.78081 19.3329C5.41791 17.9856 4.52224 16.2373 4.22499 14.344C4.19523 14.1357 4.3738 14.0018 4.76071 13.9422C5.14017 13.8827 5.3485 13.9571 5.38571 14.1655C5.39478 14.1785 5.39875 14.1944 5.39687 14.2101C5.51229 14.8163 5.68417 15.4104 5.91026 15.9847C6.29871 16.9318 6.87591 17.79 7.6067 18.507C8.72064 19.6221 10.1421 20.3793 11.6891 20.6815C13.236 20.9838 14.838 20.8173 16.2897 20.2034C17.2277 19.8039 18.0802 19.228 18.8009 18.507L18.8679 18.44C18.9034 18.4037 18.9484 18.3782 18.9978 18.3664C19.0471 18.3545 19.0988 18.3568 19.1469 18.373C19.2861 18.427 19.4118 18.5108 19.5152 18.6185C19.7831 18.8939 19.8463 19.1097 19.7049 19.2659ZM14.4371 12.4021L13.7005 13.1387L14.4036 13.8418C14.5598 13.9981 14.5338 14.1803 14.3255 14.3887C14.2361 14.4965 14.1077 14.5647 13.9683 14.5784C13.927 14.5762 13.8867 14.565 13.8501 14.5458C13.8135 14.5265 13.7815 14.4996 13.7563 14.4668L13.0642 13.786L12.3276 14.5226C12.3049 14.5426 12.2783 14.5578 12.2496 14.5674C12.2208 14.577 12.1904 14.5807 12.1602 14.5784C12.0936 14.5729 12.0288 14.5543 11.9694 14.5237C11.91 14.493 11.8573 14.451 11.8142 14.3998L11.7919 14.3775C11.7369 14.3414 11.6904 14.2938 11.6557 14.2379C11.621 14.182 11.5989 14.1192 11.591 14.0538C11.5994 13.9826 11.6307 13.916 11.6803 13.8641L12.4169 13.1387L11.6803 12.4021C11.5613 12.283 11.6133 12.1156 11.8366 11.8998C11.9226 11.7918 12.0461 11.7201 12.1825 11.6989C12.2355 11.702 12.2863 11.7215 12.3276 11.7547L13.0531 12.4913L13.7785 11.7659C13.9125 11.6394 14.091 11.6878 14.3142 11.911C14.5152 12.1119 14.5561 12.2756 14.4371 12.4021ZM19.6938 13.0382C19.696 13.8972 19.5274 14.748 19.1978 15.5412C18.8683 16.3344 18.3843 17.0542 17.7741 17.6588C17.1748 18.2567 16.4664 18.7341 15.6871 19.065C14.8815 19.4039 14.0164 19.5784 13.1425 19.5784C12.2685 19.5784 11.4034 19.4039 10.5978 19.065C9.81858 18.7341 9.11009 18.2567 8.51082 17.6588C7.91256 17.0663 7.4383 16.3606 7.11573 15.5829C7.03836 15.4431 6.98196 15.2926 6.94832 15.1364H6.93706C6.87009 14.9355 7.03006 14.7719 7.41697 14.6454C7.78897 14.5263 8.01218 14.571 8.08661 14.7793C8.33018 15.4617 8.69715 16.0935 9.1692 16.6431H9.18036V12.8373C9.185 12.3512 9.28828 11.871 9.48396 11.4259C9.67964 10.9808 9.96364 10.5801 10.3187 10.248C10.6876 9.87601 11.1279 9.58239 11.6132 9.38484C12.0984 9.18729 12.6186 9.08989 13.1424 9.09849C13.6629 9.08999 14.1797 9.18753 14.6613 9.38516C15.1429 9.58279 15.5792 9.87638 15.9438 10.248C16.3179 10.6065 16.6141 11.0384 16.8139 11.5165C17.0136 11.9947 17.1125 12.5089 17.1045 13.027C17.1017 14.077 16.6834 15.0831 15.9409 15.8256C15.1985 16.568 14.1924 16.9863 13.1424 16.989C12.7193 16.9903 12.2983 16.9301 11.8924 16.8105C11.6841 16.7286 11.6357 16.5017 11.7473 16.1297C11.8664 15.7502 12.0301 15.5902 12.2384 15.6498L12.3946 15.6832C12.4988 15.7056 12.6197 15.7279 12.7574 15.7502C12.8698 15.7702 12.9836 15.7814 13.0978 15.7837C13.4622 15.7912 13.8244 15.7243 14.1621 15.5871C14.4999 15.4499 14.8061 15.2453 15.0621 14.9857C15.3225 14.7336 15.5283 14.4306 15.6665 14.0956C15.8048 13.7605 15.8725 13.4006 15.8656 13.0382C15.872 12.6817 15.8038 12.3277 15.6654 11.9991C15.527 11.6704 15.3215 11.3743 15.0621 11.1297C14.8079 10.8712 14.5034 10.6676 14.1675 10.5313C13.8316 10.395 13.4713 10.329 13.1089 10.3373C12.7324 10.3298 12.3588 10.4061 12.0153 10.5605C11.6717 10.7149 11.3668 10.9436 11.1223 11.2301C10.6669 11.7136 10.4116 12.3517 10.408 13.0159V17.6253C11.2207 18.1222 12.1564 18.3813 13.1089 18.373C13.8173 18.3742 14.5189 18.2358 15.1737 17.9657C16.1507 17.5644 16.9865 16.8817 17.5747 16.0043C18.1629 15.127 18.4771 14.0946 18.4772 13.0383C18.4752 11.6191 17.9097 10.2589 16.9052 9.25642C15.9007 8.25397 14.5392 7.69138 13.1201 7.69228C12.4144 7.6797 11.7136 7.81186 11.061 8.08059C10.4083 8.34933 9.81768 8.74894 9.32545 9.25478C9.01349 9.55495 8.72611 9.87966 8.46607 10.2258L8.44375 10.2481C8.40101 10.3103 8.35243 10.3682 8.29866 10.4211C8.22601 10.4712 8.14459 10.5071 8.05866 10.5271C7.91561 10.563 7.76474 10.5513 7.62899 10.4936C7.48206 10.4606 7.34343 10.398 7.22162 10.3094C7.17087 10.278 7.12858 10.2346 7.09843 10.183C7.06828 10.1315 7.05118 10.0733 7.04862 10.0137V2.42439C7.04799 2.31436 7.08999 2.20836 7.16581 2.12863C7.2046 2.08625 7.25215 2.05282 7.30516 2.03065C7.35816 2.00849 7.41536 1.99812 7.47277 2.00028H17.2607C17.4839 2.00028 17.5955 2.20489 17.5955 2.61412C17.5955 3.02335 17.4839 3.22796 17.2607 3.22796H8.20938V8.61858H8.22054C8.56572 8.26663 8.94733 7.95237 9.35893 7.68108C9.73726 7.41491 10.141 7.18686 10.5643 7.00028C11.3802 6.65702 12.2572 6.48239 13.1424 6.48689C14.0169 6.48166 14.883 6.65641 15.6871 7.00028C16.8769 7.49798 17.8926 8.33719 18.6057 9.41188C19.3189 10.4866 19.6975 11.7485 19.6938 13.0383V13.0382ZM19.3477 6.55385C19.3782 6.57791 19.403 6.60838 19.4204 6.6431C19.4377 6.67782 19.4472 6.71593 19.4482 6.75474C19.449 6.82644 19.4276 6.89664 19.3868 6.95564C19.3459 7.01516 19.2845 7.09328 19.2027 7.19001C19.0092 7.38346 18.8641 7.48019 18.7674 7.48019C18.7339 7.48003 18.7007 7.47302 18.67 7.45958C18.6393 7.44615 18.6117 7.42658 18.5888 7.40207C17.9013 6.78929 17.1217 6.28839 16.2786 5.91769C15.3065 5.49699 14.2573 5.2841 13.1982 5.29269C12.1983 5.29461 11.2071 5.47997 10.2741 5.83957C10.0732 5.91397 9.90579 5.7763 9.77186 5.42657C9.71489 5.29232 9.68457 5.14828 9.68257 5.00246C9.68725 4.95187 9.70667 4.90377 9.73841 4.8641C9.77015 4.82443 9.81283 4.79494 9.86116 4.77928C10.9173 4.33775 12.0538 4.12109 13.1982 4.14312C14.4099 4.14139 15.6095 4.38433 16.725 4.8574C17.6958 5.25743 18.5848 5.83246 19.3478 6.55385H19.3477Z" fill="#6563FF"/>
</svg>
