<svg width="24" height="24" viewBox="0 0 24 24" fill="none" xmlns="http://www.w3.org/2000/svg">
<path d="M19 3H5C3.34315 3 2 4.34315 2 6V15C2 16.6569 3.34315 18 5 18H19C20.6569 18 22 16.6569 22 15V6C22 4.34315 20.6569 3 19 3Z" fill="#A2A1FF"/>
<path d="M16 20.9995H8.00001C7.81901 20.9995 7.64139 20.9504 7.48611 20.8574C7.33083 20.7644 7.20371 20.631 7.11831 20.4714C7.0329 20.3118 6.99242 20.132 7.00117 19.9512C7.00992 19.7704 7.06759 19.5954 7.16801 19.4448L11.168 13.4448C11.2646 13.3153 11.3901 13.21 11.5346 13.1376C11.679 13.0651 11.8384 13.0273 12 13.0273C12.1617 13.0273 12.321 13.0651 12.4655 13.1376C12.6099 13.21 12.7355 13.3153 12.8321 13.4448L16.8321 19.4448C16.9325 19.5954 16.9902 19.7705 16.9989 19.9512C17.0077 20.132 16.9672 20.3118 16.8818 20.4714C16.7964 20.631 16.6692 20.7644 16.5139 20.8574C16.3586 20.9504 16.181 20.9995 16 20.9995Z" fill="#6563FF"/>
</svg>
