<svg width="24" height="24" viewBox="0 0 24 24" fill="none" xmlns="http://www.w3.org/2000/svg">
<path d="M1.04 17.5203C1.10667 17.4137 1.21333 17.407 1.36 17.5003C4.66103 19.4251 8.41891 20.4267 12.24 20.4003C14.8878 20.3939 17.5118 19.8989 19.98 18.9403C20.0467 18.9137 20.1433 18.8737 20.27 18.8203C20.3967 18.767 20.4867 18.727 20.54 18.7003C20.619 18.6572 20.7114 18.6457 20.7986 18.6679C20.8858 18.6902 20.9613 18.7446 21.01 18.8203C21.1233 18.9803 21.0867 19.127 20.9 19.2603C20.66 19.4337 20.3533 19.6337 19.98 19.8603C18.7795 20.5626 17.4871 21.0943 16.14 21.4403C14.79 21.8052 13.3984 21.9934 12 22.0003C9.98223 22.0119 7.98045 21.642 6.1 20.9103C4.26791 20.1968 2.58056 19.1566 1.12 17.8403C1.08647 17.8179 1.05831 17.7884 1.03757 17.7538C1.01682 17.7192 1.00399 17.6805 1 17.6403C1.001 17.5972 1.01494 17.5554 1.04 17.5203ZM7.06 11.8203C7.03602 10.9821 7.27369 10.1573 7.74 9.46032C8.20442 8.79805 8.85033 8.2841 9.6 7.98032C10.4524 7.64004 11.3474 7.41799 12.26 7.32032C12.62 7.28032 13.2067 7.22699 14.02 7.16032V6.82032C14.0705 6.23265 13.9743 5.64162 13.74 5.10032C13.5887 4.89684 13.3882 4.73506 13.1574 4.63013C12.9265 4.52519 12.6728 4.48053 12.42 4.50032H12.26C11.848 4.52993 11.4527 4.67554 11.12 4.92032C10.7967 5.16545 10.5758 5.52175 10.5 5.92032C10.4921 6.02996 10.4488 6.13407 10.3767 6.21702C10.3046 6.29997 10.2075 6.35727 10.1 6.38032L7.8 6.10032C7.57333 6.04699 7.46 5.92699 7.46 5.74032C7.461 5.69302 7.46772 5.64601 7.48 5.60032C7.55744 5.0677 7.74616 4.55736 8.03389 4.1025C8.32162 3.64765 8.70191 3.25848 9.15 2.96032C10.0841 2.37206 11.1569 2.04089 12.26 2.00032H12.76C14.0541 1.92254 15.3286 2.34499 16.32 3.18032C16.4538 3.31426 16.5775 3.45799 16.69 3.61032C16.7886 3.74114 16.8788 3.87809 16.96 4.02032C17.0426 4.185 17.1031 4.35984 17.14 4.54032C17.1933 4.76699 17.2333 4.92366 17.26 5.01032C17.2984 5.19456 17.3185 5.38214 17.32 5.57032C17.3333 5.85699 17.34 6.02699 17.34 6.08032V10.9203C17.3362 11.2432 17.3869 11.5644 17.49 11.8703C17.5575 12.0894 17.6551 12.2981 17.78 12.4903C17.8733 12.617 18.0267 12.8203 18.24 13.1003C18.3102 13.1931 18.3519 13.3043 18.36 13.4203C18.3581 13.4765 18.3425 13.5313 18.3146 13.5801C18.2867 13.6289 18.2474 13.6701 18.2 13.7003C17.0933 14.6603 16.4933 15.1803 16.4 15.2603C16.3164 15.3198 16.218 15.3549 16.1156 15.362C16.0133 15.3691 15.911 15.3477 15.82 15.3003C15.6333 15.1403 15.47 14.987 15.33 14.8403C15.19 14.6937 15.09 14.587 15.03 14.5203C14.9263 14.3957 14.8295 14.2655 14.74 14.1303C14.6067 13.937 14.5133 13.807 14.46 13.7403C13.8814 14.4407 13.1198 14.9669 12.26 15.2603C11.7122 15.4055 11.1466 15.4728 10.58 15.4603C10.1164 15.4773 9.65405 15.4021 9.21974 15.239C8.78544 15.0759 8.38784 14.8282 8.05 14.5103C7.70721 14.1553 7.44214 13.7327 7.27169 13.2696C7.10124 12.8064 7.02915 12.3129 7.06 11.8203ZM10.5 11.4203C10.4773 11.8701 10.6156 12.3132 10.89 12.6703C11.0169 12.8243 11.1777 12.9469 11.3599 13.0284C11.542 13.11 11.7406 13.1483 11.94 13.1403C11.9971 13.1384 12.054 13.1317 12.11 13.1203C12.1594 13.11 12.2096 13.1033 12.26 13.1003C12.5415 13.0241 12.8033 12.8882 13.0276 12.7018C13.2519 12.5155 13.4335 12.2831 13.56 12.0203C13.7091 11.7609 13.8202 11.4813 13.89 11.1903C13.9536 10.9515 13.9938 10.707 14.01 10.4603C14.0167 10.2737 14.02 9.96699 14.02 9.54032V9.04032C13.429 9.02205 12.838 9.07578 12.26 9.20032C11.7468 9.29305 11.2851 9.56961 10.9611 9.97824C10.6372 10.3869 10.4732 10.8995 10.5 11.4203ZM18.9 17.8603C18.9312 17.8009 18.9717 17.7469 19.02 17.7003C19.3115 17.4935 19.6361 17.3379 19.98 17.2403C20.4633 17.1104 20.9599 17.0366 21.46 17.0203C21.5869 17.0066 21.7152 17.0134 21.84 17.0403C22.44 17.0937 22.8 17.1937 22.92 17.3403C22.9806 17.4502 23.0084 17.5751 23 17.7003V17.8403C22.9775 18.4092 22.8486 18.9689 22.62 19.4903C22.3975 20.0795 22.0334 20.605 21.56 21.0203C21.5106 21.0664 21.4473 21.0945 21.38 21.1003C21.3521 21.1 21.3247 21.0932 21.3 21.0803C21.22 21.0403 21.2 20.967 21.24 20.8603C21.6196 20.1005 21.8697 19.2825 21.98 18.4403C21.9893 18.3278 21.9612 18.2153 21.9 18.1203C21.7667 17.9603 21.3933 17.8803 20.78 17.8803C20.5533 17.8803 20.2867 17.8937 19.98 17.9203C19.6467 17.9603 19.34 18.0003 19.06 18.0403C19.0036 18.0471 18.9466 18.0328 18.9 18.0003C18.888 17.9913 18.8794 17.9785 18.8758 17.9639C18.8721 17.9493 18.8736 17.9339 18.88 17.9203C18.8824 17.8991 18.8892 17.8787 18.9 17.8603Z" fill="#6563FF"/>
</svg>
