<svg width="24" height="24" viewBox="0 0 24 24" fill="none" xmlns="http://www.w3.org/2000/svg">
<path d="M14 16.0003C13.8023 16.0003 13.609 15.9416 13.4446 15.8317C13.2802 15.7218 13.152 15.5657 13.0764 15.383C13.0007 15.2003 12.9809 14.9992 13.0194 14.8053C13.058 14.6113 13.1532 14.4332 13.293 14.2933L20.293 7.29332C20.4811 7.10861 20.7345 7.00565 20.9982 7.00685C21.2618 7.00804 21.5142 7.11329 21.7007 7.2997C21.8871 7.4861 21.9923 7.73858 21.9935 8.0022C21.9947 8.26581 21.8917 8.51923 21.707 8.70732L14.707 15.7073C14.6143 15.8003 14.5041 15.8741 14.3828 15.9244C14.2614 15.9747 14.1314 16.0005 14 16.0003ZM3.00003 17.0003C2.80228 17.0003 2.60898 16.9416 2.44457 16.8317C2.28016 16.7218 2.15202 16.5657 2.07635 16.383C2.00068 16.2003 1.98088 15.9992 2.01945 15.8053C2.05802 15.6113 2.15322 15.4332 2.29303 15.2933L8.29303 9.29332C8.48112 9.10861 8.73454 9.00565 8.99816 9.00685C9.26177 9.00804 9.51425 9.11329 9.70066 9.2997C9.88706 9.4861 9.99231 9.73858 9.99351 10.0022C9.9947 10.2658 9.89174 10.5192 9.70703 10.7073L3.70703 16.7073C3.6143 16.8003 3.5041 16.8741 3.38277 16.9244C3.26144 16.9747 3.13137 17.0005 3.00003 17.0003Z" fill="#6563FF"/>
<path d="M14 16.0003C13.8686 16.0005 13.7385 15.9747 13.6172 15.9244C13.4959 15.8741 13.3857 15.8003 13.293 15.7073L8.29296 10.7073C8.10825 10.5192 8.00529 10.2658 8.00648 10.0022C8.00767 9.73858 8.11292 9.4861 8.29933 9.2997C8.48574 9.11329 8.73822 9.00804 9.00183 9.00685C9.26545 9.00565 9.51887 9.10861 9.70696 9.29332L14.707 14.2933C14.8468 14.4332 14.942 14.6113 14.9805 14.8053C15.0191 14.9992 14.9993 15.2003 14.9236 15.383C14.848 15.5657 14.7198 15.7218 14.5554 15.8317C14.391 15.9416 14.1977 16.0003 14 16.0003Z" fill="#6563FF"/>
</svg>
