<svg width="24" height="24" viewBox="0 0 24 24" fill="none" xmlns="http://www.w3.org/2000/svg">
<path d="M14.9754 3.01879L15.9352 1.2872C15.9475 1.26499 15.9553 1.24056 15.9582 1.21533C15.9611 1.19009 15.959 1.16453 15.952 1.14012C15.945 1.1157 15.9332 1.0929 15.9174 1.07302C15.9016 1.05314 15.882 1.03657 15.8598 1.02426C15.815 0.999384 15.7621 0.993353 15.7127 1.00749C15.6634 1.02163 15.6218 1.05478 15.5969 1.09964L14.6264 2.85042C13.7984 2.48743 12.9041 2.30002 12.0001 2.30002C11.096 2.30002 10.2017 2.48743 9.37368 2.85042L8.4032 1.09964C8.37833 1.05478 8.33665 1.02163 8.28734 1.00749C8.23803 0.993353 8.18512 0.999384 8.14025 1.02426C8.09539 1.04913 8.06224 1.0908 8.04811 1.14012C8.03397 1.18943 8.04 1.24234 8.06487 1.2872L9.02472 3.0188C8.11105 3.46917 7.33906 4.16247 6.79343 5.02265C6.2478 5.88283 5.94961 6.87667 5.93156 7.89515H18.0686C18.0505 6.87667 17.7523 5.88283 17.2067 5.02265C16.6611 4.16246 15.8891 3.46916 14.9754 3.01879ZM5.93147 17.1714C5.93147 17.5605 6.08604 17.9337 6.36118 18.2088C6.63632 18.4839 7.00949 18.6385 7.3986 18.6385H8.3722V21.6395C8.37171 21.8184 8.40655 21.9957 8.4747 22.1612C8.54285 22.3267 8.64298 22.4771 8.76936 22.6038C8.89574 22.7306 9.04588 22.8311 9.21118 22.8997C9.37648 22.9683 9.55369 23.0036 9.73266 23.0036C9.91162 23.0036 10.0888 22.9683 10.2541 22.8997C10.4194 22.8311 10.5696 22.7306 10.6959 22.6038C10.8223 22.4771 10.9225 22.3267 10.9906 22.1612C11.0588 21.9957 11.0936 21.8184 11.0931 21.6395V18.6385H12.907V21.6395C12.9065 21.8184 12.9413 21.9957 13.0095 22.1612C13.0776 22.3267 13.1778 22.4771 13.3041 22.6038C13.4305 22.7306 13.5806 22.8311 13.7459 22.8997C13.9112 22.9683 14.0885 23.0036 14.2674 23.0036C14.4464 23.0036 14.6236 22.9683 14.7889 22.8997C14.9542 22.8311 15.1043 22.7306 15.2307 22.6038C15.3571 22.4771 15.4572 22.3267 15.5254 22.1612C15.5935 21.9957 15.6284 21.8184 15.6279 21.6395V18.6385H16.6015C16.9906 18.6385 17.3638 18.4839 17.6389 18.2088C17.9141 17.9337 18.0686 17.5605 18.0686 17.1714V8.37525H5.93147V17.1714ZM4.06419 8.14184C3.7035 8.14225 3.3577 8.28572 3.10266 8.54076C2.84761 8.79581 2.70415 9.14161 2.70374 9.5023V15.1708C2.70326 15.3497 2.73809 15.527 2.80624 15.6925C2.87439 15.858 2.97452 16.0084 3.1009 16.1351C3.22728 16.2619 3.37742 16.3624 3.54272 16.431C3.70802 16.4996 3.88523 16.5349 4.0642 16.5349C4.24316 16.5349 4.42037 16.4996 4.58567 16.431C4.75097 16.3624 4.90111 16.2619 5.02749 16.1351C5.15387 16.0084 5.254 15.858 5.32215 15.6925C5.3903 15.527 5.42514 15.3497 5.42465 15.1708V9.5023C5.42424 9.14161 5.28078 8.79581 5.02573 8.54076C4.77068 8.28571 4.42488 8.14225 4.06419 8.14184ZM19.9359 8.14184C19.5752 8.14225 19.2294 8.28571 18.9743 8.54076C18.7193 8.79581 18.5758 9.14161 18.5754 9.5023V15.1708C18.5749 15.3497 18.6098 15.527 18.6779 15.6925C18.7461 15.858 18.8462 16.0084 18.9726 16.1351C19.099 16.2619 19.2491 16.3624 19.4144 16.431C19.5797 16.4996 19.7569 16.5349 19.9359 16.5349C20.1149 16.5349 20.2921 16.4996 20.4574 16.431C20.6227 16.3624 20.7728 16.2619 20.8992 16.1351C21.0256 16.0084 21.1257 15.858 21.1938 15.6925C21.262 15.527 21.2968 15.3497 21.2963 15.1708V9.5023C21.2959 9.14161 21.1525 8.79581 20.8974 8.54076C20.6424 8.28572 20.2966 8.14225 19.9359 8.14184Z" fill="#6563FF"/>
<path d="M9.19902 5.67513C9.47902 5.67513 9.70602 5.44814 9.70602 5.16813C9.70602 4.88812 9.47902 4.66113 9.19902 4.66113C8.91901 4.66113 8.69202 4.88812 8.69202 5.16813C8.69202 5.44814 8.91901 5.67513 9.19902 5.67513Z" fill="#A2A1FF"/>
<path d="M14.8009 5.67513C15.081 5.67513 15.3079 5.44814 15.3079 5.16813C15.3079 4.88812 15.081 4.66113 14.8009 4.66113C14.5209 4.66113 14.2939 4.88812 14.2939 5.16813C14.2939 5.44814 14.5209 5.67513 14.8009 5.67513Z" fill="#A2A1FF"/>
</svg>
