<svg width="24" height="24" viewBox="0 0 24 24" fill="none" xmlns="http://www.w3.org/2000/svg">
<path d="M12 11.7504C11.8686 11.7505 11.7385 11.7247 11.6172 11.6744C11.4959 11.6241 11.3857 11.5504 11.293 11.4574L8.29296 8.45735C8.10825 8.26927 8.00529 8.01584 8.00648 7.75223C8.00767 7.48861 8.11292 7.23613 8.29933 7.04973C8.48574 6.86332 8.73822 6.75807 9.00183 6.75688C9.26545 6.75568 9.51887 6.85864 9.70696 7.04335L12 9.33629L14.293 7.04329C14.4809 6.85773 14.7346 6.75405 14.9987 6.75489C15.2628 6.75572 15.5158 6.86101 15.7026 7.04776C15.8893 7.23451 15.9946 7.48755 15.9954 7.75165C15.9962 8.01574 15.8925 8.26944 15.707 8.45735L12.707 11.4574C12.6142 11.5504 12.504 11.6241 12.3827 11.6744C12.2614 11.7247 12.1313 11.7505 12 11.7504ZM12 17.2504C11.8686 17.2505 11.7385 17.2247 11.6172 17.1744C11.4959 17.1241 11.3857 17.0504 11.293 16.9574L8.29296 13.9574C8.10825 13.7693 8.00529 13.5158 8.00648 13.2522C8.00767 12.9886 8.11292 12.7361 8.29933 12.5497C8.48574 12.3633 8.73822 12.2581 9.00183 12.2569C9.26545 12.2557 9.51887 12.3586 9.70696 12.5434L12 14.8363L14.293 12.5433C14.4809 12.3577 14.7346 12.2541 14.9987 12.2549C15.2628 12.2557 15.5158 12.361 15.7026 12.5478C15.8893 12.7345 15.9946 12.9876 15.9954 13.2516C15.9962 13.5157 15.8925 13.7694 15.707 13.9574L12.707 16.9574C12.6142 17.0504 12.504 17.1241 12.3827 17.1744C12.2614 17.2247 12.1313 17.2505 12 17.2504Z" fill="#6563FF"/>
</svg>
