<svg width="24" height="24" viewBox="0 0 24 24" fill="none" xmlns="http://www.w3.org/2000/svg">
<path d="M9.8788 17.2431C9.68105 17.243 9.48775 17.1843 9.32334 17.0745C9.15893 16.9646 9.03079 16.8084 8.95512 16.6257C8.87945 16.443 8.85965 16.242 8.89822 16.048C8.93679 15.8541 9.03199 15.6759 9.1718 15.5361L12.7069 12.0004L9.17177 8.46474C8.98425 8.27723 8.87891 8.0229 8.87891 7.75771C8.87891 7.49252 8.98425 7.23819 9.17177 7.05068C9.35928 6.86316 9.61361 6.75781 9.8788 6.75781C10.144 6.75781 10.3983 6.86316 10.5858 7.05067L14.828 11.2934C14.9209 11.3862 14.9946 11.4964 15.0448 11.6177C15.0951 11.7391 15.121 11.8691 15.121 12.0004C15.121 12.1317 15.0951 12.2618 15.0448 12.3831C14.9946 12.5044 14.9209 12.6146 14.828 12.7074L10.5858 16.9501C10.4931 17.0431 10.3829 17.1169 10.2616 17.1672C10.1402 17.2174 10.0101 17.2432 9.8788 17.2431Z" fill="#6563FF"/>
</svg>
