<svg width="24" height="24" viewBox="0 0 24 24" fill="none" xmlns="http://www.w3.org/2000/svg">
<path d="M16.2426 15.1211C16.1112 15.1212 15.9812 15.0954 15.8598 15.0451C15.7385 14.9949 15.6283 14.9211 15.5356 14.8281L11.9999 11.293L8.46425 14.8281C8.27674 15.0156 8.02241 15.121 7.75722 15.121C7.49203 15.121 7.23771 15.0156 7.05019 14.8281C6.86267 14.6406 6.75733 14.3863 6.75732 14.1211C6.75732 13.8559 6.86267 13.6016 7.05018 13.4141L11.2929 9.17188C11.3857 9.079 11.4959 9.00532 11.6173 8.95505C11.7386 8.90478 11.8686 8.87891 11.9999 8.87891C12.1312 8.87891 12.2613 8.90478 12.3826 8.95505C12.5039 9.00532 12.6141 9.079 12.707 9.17188L16.9496 13.4141C17.0894 13.5539 17.1847 13.7321 17.2232 13.926C17.2618 14.12 17.242 14.321 17.1663 14.5037C17.0906 14.6864 16.9625 14.8426 16.7981 14.9525C16.6337 15.0623 16.4404 15.121 16.2426 15.1211L16.2426 15.1211Z" fill="#6563FF"/>
</svg>
