<svg width="24" height="24" viewBox="0 0 24 24" fill="none" xmlns="http://www.w3.org/2000/svg">
<path d="M7.75003 16.0003C7.55228 16.0003 7.35898 15.9416 7.19457 15.8317C7.03016 15.7218 6.90202 15.5657 6.82635 15.383C6.75068 15.2003 6.73088 14.9992 6.76945 14.8053C6.80802 14.6113 6.90322 14.4332 7.04303 14.2933L9.33597 12.0003L7.04303 9.70732C6.85832 9.51923 6.75536 9.26581 6.75656 9.0022C6.75775 8.73858 6.863 8.4861 7.04941 8.2997C7.23581 8.11329 7.48829 8.00804 7.75191 8.00685C8.01552 8.00565 8.26894 8.10861 8.45703 8.29332L11.457 11.2933C11.5499 11.3862 11.6236 11.4964 11.6739 11.6177C11.7241 11.739 11.75 11.869 11.75 12.0004C11.75 12.1317 11.7241 12.2617 11.6739 12.383C11.6236 12.5043 11.5499 12.6146 11.457 12.7074L8.45703 15.7074C8.3643 15.8004 8.2541 15.8741 8.13277 15.9244C8.01143 15.9747 7.88136 16.0005 7.75003 16.0003ZM13.25 16.0003C13.0523 16.0003 12.859 15.9416 12.6946 15.8317C12.5302 15.7218 12.402 15.5657 12.3264 15.383C12.2507 15.2003 12.2309 14.9992 12.2694 14.8053C12.308 14.6113 12.4032 14.4332 12.543 14.2933L14.836 12.0003L12.543 9.70732C12.3583 9.51923 12.2554 9.26581 12.2566 9.0022C12.2577 8.73858 12.363 8.4861 12.5494 8.2997C12.7358 8.11329 12.9883 8.00804 13.2519 8.00685C13.5155 8.00565 13.7689 8.10861 13.957 8.29332L16.957 11.2933C17.0499 11.3862 17.1236 11.4964 17.1739 11.6177C17.2241 11.739 17.25 11.869 17.25 12.0004C17.25 12.1317 17.2241 12.2617 17.1739 12.383C17.1236 12.5043 17.0499 12.6146 16.957 12.7074L13.957 15.7074C13.8643 15.8004 13.7541 15.8741 13.6328 15.9244C13.5114 15.9747 13.3814 16.0005 13.25 16.0003Z" fill="#6563FF"/>
</svg>
