<svg width="24" height="24" viewBox="0 0 24 24" fill="none" xmlns="http://www.w3.org/2000/svg">
<path d="M16.25 16.0004C16.1186 16.0005 15.9886 15.9747 15.8672 15.9244C15.7459 15.8741 15.6357 15.8004 15.543 15.7074L12.543 12.7074C12.4501 12.6145 12.3764 12.5043 12.3261 12.383C12.2759 12.2617 12.25 12.1316 12.25 12.0003C12.25 11.869 12.2759 11.739 12.3261 11.6177C12.3764 11.4963 12.4501 11.3861 12.543 11.2933L15.543 8.29329C15.7309 8.10773 15.9846 8.00405 16.2487 8.00489C16.5128 8.00572 16.7658 8.11101 16.9526 8.29776C17.1393 8.48451 17.2446 8.73755 17.2454 9.00165C17.2462 9.26574 17.1425 9.51944 16.957 9.70735L14.664 12.0004L16.957 14.2934C17.0968 14.4332 17.1921 14.6114 17.2306 14.8053C17.2692 14.9993 17.2494 15.2003 17.1737 15.383C17.098 15.5657 16.9699 15.7219 16.8055 15.8318C16.641 15.9417 16.4477 16.0003 16.25 16.0004ZM10.75 16.0004C10.6186 16.0005 10.4886 15.9747 10.3672 15.9244C10.2459 15.8741 10.1357 15.8004 10.043 15.7074L7.04297 12.7074C6.95009 12.6145 6.87641 12.5043 6.82614 12.383C6.77587 12.2617 6.75 12.1316 6.75 12.0003C6.75 11.869 6.77587 11.739 6.82614 11.6177C6.87641 11.4963 6.95009 11.3861 7.04297 11.2933L10.043 8.29329C10.2309 8.10773 10.4846 8.00405 10.7487 8.00489C11.0128 8.00572 11.2658 8.11101 11.4526 8.29776C11.6393 8.48451 11.7446 8.73755 11.7454 9.00165C11.7462 9.26574 11.6425 9.51944 11.457 9.70735L9.16403 12.0004L11.457 14.2934C11.5968 14.4332 11.6921 14.6114 11.7306 14.8053C11.7692 14.9993 11.7494 15.2003 11.6737 15.383C11.598 15.5657 11.4699 15.7219 11.3055 15.8318C11.141 15.9417 10.9477 16.0003 10.75 16.0004Z" fill="#6563FF"/>
</svg>
