<svg width="24" height="24" viewBox="0 0 24 24" fill="none" xmlns="http://www.w3.org/2000/svg">
<path d="M17.5941 12.6255C17.603 11.8601 17.8059 11.1095 18.1839 10.4439C18.5619 9.77833 19.1027 9.21959 19.7555 8.81998C19.3406 8.22913 18.7943 7.7425 18.1596 7.3983C17.5249 7.05409 16.8191 6.86167 16.0975 6.83615C14.5398 6.67825 13.0582 7.75308 12.2689 7.75308C11.4792 7.75308 10.2599 6.85934 8.96808 6.884C8.12025 6.90757 7.29309 7.15099 6.56764 7.59041C5.84218 8.02982 5.24333 8.65017 4.82975 9.39065C3.06736 12.4508 4.37986 16.9843 6.09739 19.4674C6.93784 20.6813 7.93967 22.0485 9.25516 21.9987C10.5229 21.9489 11.0013 21.18 12.5319 21.18C14.0629 21.18 14.4935 21.9987 15.8327 21.974C17.1956 21.9489 18.0607 20.7351 18.8943 19.5166C19.491 18.6405 19.9572 17.6823 20.2784 16.6721C19.4849 16.3332 18.8078 15.7695 18.3309 15.0504C17.8539 14.3313 17.5978 13.4884 17.5941 12.6255Z" fill="#6563FF"/>
<path d="M15.216 5.04C16.1736 3.92124 16.6483 2.46833 16.536 1C15.093 1.13974 13.7582 1.82679 12.806 2.92L12.7857 2.96688C11.8281 4.08564 11.3534 5.53855 11.4657 7.00688C12.9087 6.86714 14.2434 6.18009 15.1957 5.08688L15.216 5.04Z" fill="#6563FF"/>
</svg>
