<svg width="24" height="24" viewBox="0 0 24 24" fill="none" xmlns="http://www.w3.org/2000/svg">
<path d="M17.4583 12.6254C17.4671 11.86 17.67 11.1094 18.0481 10.4438C18.4261 9.77824 18.9668 9.2195 19.6197 8.81989C19.2047 8.22904 18.6584 7.74242 18.0237 7.39821C17.389 7.054 16.6832 6.86159 15.9617 6.83606C14.404 6.67816 12.9223 7.75299 12.133 7.75299C11.3433 7.75299 10.124 6.85925 8.83219 6.88391C7.98437 6.90748 7.15721 7.1509 6.43176 7.59032C5.70631 8.02974 5.10745 8.65008 4.69387 9.39056C2.93148 12.4507 4.24402 16.9843 5.96151 19.4673C6.80196 20.6812 7.80379 22.0485 9.11928 21.9987C10.387 21.9488 10.8654 21.1799 12.396 21.1799C13.927 21.1799 14.3576 21.9987 15.6968 21.9739C17.0597 21.9488 17.9248 20.735 18.7584 19.5165C19.3551 18.6404 19.8213 17.6822 20.1425 16.6721C19.349 16.3332 18.672 15.7694 18.195 15.0503C17.718 14.3312 17.4619 13.4883 17.4583 12.6254ZM14.9414 5.1933C15.6963 4.30799 16.0702 3.16004 15.9817 2C14.8421 2.11054 13.788 2.65288 13.0355 3.51581C12.6601 3.93385 12.3727 4.4232 12.1904 4.9547C12.0081 5.4862 11.9347 6.04897 11.9745 6.60944C12.5447 6.61731 13.1089 6.49364 13.6235 6.24803C14.138 6.00243 14.589 5.64151 14.9414 5.1933Z" fill="#6563FF"/>
</svg>
