<svg width="24" height="24" viewBox="0 0 24 24" fill="none" xmlns="http://www.w3.org/2000/svg">
<path d="M17 18H7C6.73478 18 6.48043 17.8946 6.29289 17.7071C6.10536 17.5196 6 17.2652 6 17C6 16.7348 6.10536 16.4804 6.29289 16.2929C6.48043 16.1054 6.73478 16 7 16H16V7C16 6.73478 16.1054 6.48043 16.2929 6.29289C16.4804 6.10536 16.7348 6 17 6C17.2652 6 17.5196 6.10536 17.7071 6.29289C17.8946 6.48043 18 6.73478 18 7V17C18 17.2652 17.8946 17.5196 17.7071 17.7071C17.5196 17.8946 17.2652 18 17 18Z" fill="#6563FF"/>
<path d="M17 18.0003C16.8686 18.0005 16.7385 17.9747 16.6172 17.9244C16.4959 17.8741 16.3857 17.8003 16.293 17.7073L6.29296 7.70732C6.10825 7.51923 6.00529 7.26581 6.00648 7.0022C6.00767 6.73858 6.11292 6.4861 6.29933 6.2997C6.48574 6.11329 6.73822 6.00804 7.00183 6.00685C7.26545 6.00565 7.51887 6.10861 7.70696 6.29332L17.707 16.2933C17.8468 16.4332 17.942 16.6113 17.9805 16.8053C18.0191 16.9992 17.9993 17.2003 17.9236 17.383C17.848 17.5657 17.7198 17.7218 17.5554 17.8317C17.391 17.9416 17.1977 18.0003 17 18.0003Z" fill="#6563FF"/>
</svg>
