<svg width="24" height="24" viewBox="0 0 24 24" fill="none" xmlns="http://www.w3.org/2000/svg">
<path d="M11.293 7.29332L7.29325 11.293C7.10644 11.481 7.00159 11.7353 7.00159 12.0004C7.00159 12.2654 7.10644 12.5197 7.29325 12.7077L11.293 16.7073C11.481 16.892 11.7345 16.995 11.9981 16.9938C12.2617 16.9926 12.5142 16.8874 12.7006 16.7009C12.887 16.5145 12.9922 16.2621 12.9934 15.9984C12.9946 15.7348 12.8917 15.4814 12.707 15.2933L10.414 13.0003H16C16.2652 13.0003 16.5195 12.895 16.7071 12.7074C16.8946 12.5199 17 12.2655 17 12.0003C17 11.7351 16.8946 11.4808 16.7071 11.2932C16.5195 11.1057 16.2652 11.0003 16 11.0003H10.414L12.707 8.70732C12.8926 8.5194 12.9963 8.2657 12.9954 8.00161C12.9946 7.73751 12.8893 7.48447 12.7025 7.29773C12.5158 7.11099 12.2628 7.00571 11.9987 7.00489C11.7346 7.00406 11.4809 7.10775 11.293 7.29332Z" fill="#6563FF"/>
<path d="M2 12C2 13.9778 2.58649 15.9112 3.6853 17.5557C4.78412 19.2002 6.3459 20.4819 8.17317 21.2388C10.0004 21.9957 12.0111 22.1937 13.9509 21.8079C15.8907 21.422 17.6725 20.4696 19.0711 19.0711C20.4696 17.6725 21.422 15.8907 21.8079 13.9509C22.1937 12.0111 21.9957 10.0004 21.2388 8.17317C20.4819 6.3459 19.2002 4.78412 17.5557 3.6853C15.9112 2.58649 13.9778 2 12 2C9.34874 2.00295 6.80691 3.05746 4.93219 4.93219C3.05746 6.80691 2.00295 9.34874 2 12ZM12.707 7.293C12.7999 7.38583 12.8736 7.49605 12.9238 7.61737C12.9741 7.73868 13 7.86871 13 8.00003C13 8.13135 12.9741 8.26138 12.9238 8.38269C12.8736 8.50401 12.7999 8.61423 12.707 8.70706L10.4141 11H16C16.2652 11 16.5196 11.1054 16.7071 11.2929C16.8946 11.4804 17 11.7348 17 12C17 12.2652 16.8946 12.5196 16.7071 12.7071C16.5196 12.8946 16.2652 13 16 13H10.4141L12.7071 15.293C12.8926 15.4809 12.9963 15.7346 12.9955 15.9987C12.9946 16.2628 12.8893 16.5159 12.7026 16.7026C12.5158 16.8893 12.2628 16.9946 11.9987 16.9954C11.7346 16.9963 11.4809 16.8926 11.293 16.707L7.2933 12.7073C7.10648 12.5193 7.00163 12.265 7.00163 12C7.00163 11.7349 7.10648 11.4806 7.2933 11.2926L11.293 7.293C11.3858 7.20013 11.496 7.12646 11.6174 7.07619C11.7387 7.02593 11.8687 7.00006 12 7.00006C12.1313 7.00006 12.2613 7.02593 12.3826 7.07619C12.504 7.12646 12.6142 7.20013 12.707 7.293Z" fill="#A2A1FF"/>
</svg>
