<svg width="24" height="24" viewBox="0 0 24 24" fill="none" xmlns="http://www.w3.org/2000/svg">
<path d="M12.707 16.7073L16.7067 12.7076C16.8935 12.5196 16.9984 12.2653 16.9984 12.0003C16.9984 11.7352 16.8935 11.481 16.7067 11.293L12.707 7.29332C12.5189 7.10861 12.2655 7.00565 12.0019 7.00685C11.7383 7.00804 11.4858 7.11329 11.2994 7.2997C11.113 7.4861 11.0077 7.73858 11.0065 8.0022C11.0053 8.26581 11.1083 8.51923 11.293 8.70732L13.5859 11.0003H8C7.73478 11.0003 7.48043 11.1057 7.29289 11.2932C7.10536 11.4808 7 11.7351 7 12.0003C7 12.2655 7.10536 12.5199 7.29289 12.7074C7.48043 12.895 7.73478 13.0003 8 13.0003H13.5859L11.2929 15.2933C11.1074 15.4812 11.0037 15.7349 11.0045 15.999C11.0054 16.2631 11.1107 16.5162 11.2974 16.7029C11.4842 16.8897 11.7372 16.9949 12.0013 16.9958C12.2654 16.9966 12.5191 16.8929 12.707 16.7073Z" fill="#6563FF"/>
<path d="M22 12C22 10.0222 21.4135 8.08879 20.3147 6.4443C19.2159 4.79981 17.6541 3.51809 15.8268 2.76121C13.9996 2.00433 11.9889 1.8063 10.0491 2.19215C8.10929 2.578 6.32746 3.53041 4.92894 4.92894C3.53041 6.32746 2.578 8.10929 2.19215 10.0491C1.8063 11.9889 2.00433 13.9996 2.76121 15.8268C3.51809 17.6541 4.79981 19.2159 6.4443 20.3147C8.08879 21.4135 10.0222 22 12 22C14.6513 21.9971 17.1931 20.9425 19.0678 19.0678C20.9425 17.1931 21.9971 14.6513 22 12ZM11.293 16.707C11.2001 16.6142 11.1264 16.504 11.0762 16.3826C11.0259 16.2613 11 16.1313 11 16C11 15.8687 11.0259 15.7386 11.0762 15.6173C11.1264 15.496 11.2001 15.3858 11.293 15.2929L13.5859 13H8C7.73479 13 7.48043 12.8946 7.2929 12.7071C7.10536 12.5196 7 12.2652 7 12C7 11.7348 7.10536 11.4804 7.2929 11.2929C7.48043 11.1054 7.73479 11 8 11H13.5859L11.293 8.707C11.1083 8.51892 11.0053 8.2655 11.0065 8.00188C11.0077 7.73826 11.113 7.48579 11.2994 7.29938C11.4858 7.11297 11.7383 7.00772 12.0019 7.00653C12.2655 7.00533 12.5189 7.10829 12.707 7.293L16.7067 11.2927C16.8935 11.4807 16.9984 11.735 16.9984 12C16.9984 12.2651 16.8935 12.5194 16.7067 12.7074L12.707 16.707C12.6142 16.7999 12.504 16.8735 12.3826 16.9238C12.2613 16.9741 12.1313 16.9999 12 16.9999C11.8687 16.9999 11.7387 16.9741 11.6174 16.9238C11.4961 16.8735 11.3858 16.7999 11.293 16.707Z" fill="#A2A1FF"/>
</svg>
