<svg width="24" height="24" viewBox="0 0 24 24" fill="none" xmlns="http://www.w3.org/2000/svg">
<path d="M16.707 11.2933L12.7073 7.29362C12.5193 7.10681 12.265 7.00195 11.9999 7.00195C11.7349 7.00195 11.4806 7.10681 11.2926 7.29362L7.29296 11.2933C7.10825 11.4814 7.00529 11.7348 7.00648 11.9984C7.00767 12.2621 7.11292 12.5145 7.29933 12.7009C7.48574 12.8874 7.73822 12.9926 8.00183 12.9938C8.26545 12.995 8.51887 12.892 8.70696 12.7073L11 10.4144V16.0003C11 16.2655 11.1053 16.5199 11.2928 16.7074C11.4804 16.895 11.7347 17.0003 12 17.0003C12.2652 17.0003 12.5195 16.895 12.7071 16.7074C12.8946 16.5199 13 16.2655 13 16.0003V10.4144L15.293 12.7074C15.4809 12.8929 15.7346 12.9966 15.9987 12.9958C16.2628 12.995 16.5158 12.8897 16.7026 12.7029C16.8893 12.5162 16.9946 12.2631 16.9954 11.999C16.9962 11.7349 16.8925 11.4812 16.707 11.2933Z" fill="#6563FF"/>
<path d="M12 2C10.0222 2 8.08879 2.58649 6.4443 3.6853C4.79981 4.78412 3.51809 6.3459 2.76121 8.17317C2.00433 10.0004 1.8063 12.0111 2.19215 13.9509C2.578 15.8907 3.53041 17.6725 4.92894 19.0711C6.32746 20.4696 8.10929 21.422 10.0491 21.8079C11.9889 22.1937 13.9996 21.9957 15.8268 21.2388C17.6541 20.4819 19.2159 19.2002 20.3147 17.5557C21.4135 15.9112 22 13.9778 22 12C21.9971 9.34874 20.9425 6.80691 19.0678 4.93219C17.1931 3.05746 14.6513 2.00295 12 2ZM16.707 12.707C16.6142 12.7999 16.504 12.8736 16.3826 12.9238C16.2613 12.9741 16.1313 13 16 13C15.8687 13 15.7386 12.9741 15.6173 12.9238C15.496 12.8736 15.3858 12.7999 15.2929 12.707L13 10.4141V16C13 16.2652 12.8946 16.5196 12.7071 16.7071C12.5196 16.8946 12.2652 17 12 17C11.7348 17 11.4804 16.8946 11.2929 16.7071C11.1054 16.5196 11 16.2652 11 16V10.4141L8.707 12.707C8.51892 12.8917 8.2655 12.9947 8.00188 12.9935C7.73826 12.9923 7.48579 12.887 7.29938 12.7006C7.11297 12.5142 7.00772 12.2617 7.00653 11.9981C7.00533 11.7345 7.10829 11.4811 7.293 11.293L11.2927 7.2933C11.4807 7.10648 11.735 7.00163 12 7.00163C12.2651 7.00163 12.5194 7.10648 12.7074 7.2933L16.707 11.293C16.7999 11.3858 16.8735 11.496 16.9238 11.6174C16.9741 11.7387 16.9999 11.8687 16.9999 12C16.9999 12.1313 16.9741 12.2613 16.9238 12.3826C16.8735 12.504 16.7999 12.6142 16.707 12.707Z" fill="#A2A1FF"/>
</svg>
