<svg width="24" height="24" viewBox="0 0 24 24" fill="none" xmlns="http://www.w3.org/2000/svg">
<path d="M17 18C16.7348 18 16.4804 17.8946 16.2929 17.7071C16.1054 17.5196 16 17.2652 16 17V8H7C6.73478 8 6.48043 7.89464 6.29289 7.70711C6.10536 7.51957 6 7.26522 6 7C6 6.73478 6.10536 6.48043 6.29289 6.29289C6.48043 6.10536 6.73478 6 7 6H17C17.2652 6 17.5196 6.10536 17.7071 6.29289C17.8946 6.48043 18 6.73478 18 7V17C18 17.2652 17.8946 17.5196 17.7071 17.7071C17.5196 17.8946 17.2652 18 17 18Z" fill="#6563FF"/>
<path d="M7.00003 18.0003C6.80228 18.0003 6.60898 17.9416 6.44457 17.8317C6.28016 17.7218 6.15202 17.5657 6.07635 17.383C6.00068 17.2003 5.98088 16.9992 6.01945 16.8053C6.05802 16.6113 6.15322 16.4332 6.29303 16.2933L16.293 6.29332C16.4811 6.10861 16.7345 6.00565 16.9982 6.00685C17.2618 6.00804 17.5142 6.11329 17.7007 6.2997C17.8871 6.4861 17.9923 6.73858 17.9935 7.0022C17.9947 7.26581 17.8917 7.51923 17.707 7.70732L7.70703 17.7073C7.6143 17.8003 7.5041 17.8741 7.38277 17.9244C7.26144 17.9747 7.13137 18.0005 7.00003 18.0003Z" fill="#6563FF"/>
</svg>
