<svg width="24" height="24" viewBox="0 0 24 24" fill="none" xmlns="http://www.w3.org/2000/svg">
<path d="M13.9882 12.0583C13.9929 11.9239 13.9711 11.7899 13.924 11.6639C13.8769 11.5379 13.8054 11.4224 13.7136 11.3241C13.6218 11.2258 13.5116 11.1465 13.3891 11.0908C13.2667 11.0351 13.1345 11.0042 13 10.9996H9.73232L11.1758 8.49963C11.2415 8.38587 11.2842 8.26028 11.3014 8.13002C11.3186 7.99976 11.31 7.8674 11.276 7.74048C11.242 7.61357 11.1833 7.49459 11.1034 7.39035C11.0234 7.28611 10.9236 7.19866 10.8099 7.13297C10.6961 7.06729 10.5704 7.02467 10.4402 7.00755C10.3099 6.99043 10.1776 6.99914 10.0507 7.03319C9.92376 7.06724 9.80481 7.12596 9.70061 7.20599C9.59642 7.28603 9.50901 7.3858 9.44339 7.49963L7.13381 11.4996C7.05276 11.6526 7.0119 11.8237 7.01506 11.9968C7.01822 12.1699 7.0653 12.3394 7.15188 12.4893C7.23846 12.6392 7.36171 12.7647 7.51006 12.854C7.65841 12.9432 7.827 12.9934 8.00002 12.9996H11.2677L9.82424 15.4996C9.6918 15.7294 9.656 16.0023 9.72472 16.2584C9.79344 16.5145 9.96105 16.7328 10.1907 16.8654C10.4204 16.998 10.6933 17.0339 10.9494 16.9653C11.2056 16.8967 11.424 16.7292 11.5567 16.4996L13.8662 12.4996C13.9333 12.3612 13.9747 12.2116 13.9882 12.0583Z" fill="#6563FF"/>
<path d="M17 6.99963H4C3.46973 7.00016 2.96133 7.21104 2.58637 7.586C2.21141 7.96096 2.00053 8.46936 2 8.99963V14.9996C2.00053 15.5299 2.21141 16.0383 2.58637 16.4133C2.96133 16.7882 3.46973 16.9991 4 16.9996H10.6895C10.514 16.9995 10.3416 16.9532 10.1897 16.8654C10.0378 16.7776 9.91162 16.6513 9.82394 16.4993C9.73626 16.3473 9.69013 16.1749 9.69018 15.9994C9.69023 15.824 9.73646 15.6516 9.82422 15.4996L11.2677 12.9996H8C7.82698 12.9934 7.65839 12.9432 7.51004 12.854C7.36169 12.7647 7.23844 12.6392 7.15186 12.4893C7.06528 12.3394 7.0182 12.1699 7.01504 11.9968C7.01188 11.8237 7.05274 11.6526 7.13379 11.4996L9.44336 7.49963C9.50898 7.3858 9.59639 7.28603 9.70059 7.20599C9.80479 7.12596 9.92373 7.06724 10.0506 7.03319C10.1775 6.99914 10.3099 6.99043 10.4402 7.00755C10.5704 7.02467 10.696 7.06729 10.8098 7.13297C10.9236 7.19866 11.0233 7.28611 11.1033 7.39035C11.1833 7.49459 11.242 7.61357 11.2759 7.74048C11.3099 7.8674 11.3186 7.99976 11.3014 8.13002C11.2842 8.26028 11.2415 8.38587 11.1758 8.49963L9.7323 10.9996H13C13.1344 11.0042 13.2667 11.0352 13.3891 11.0908C13.5115 11.1465 13.6218 11.2258 13.7136 11.3241C13.8054 11.4224 13.8769 11.5379 13.924 11.6639C13.9711 11.7899 13.9929 11.9239 13.9882 12.0583C13.9746 12.2116 13.9333 12.3611 13.8662 12.4996L11.5566 16.4996C11.4688 16.6518 11.3423 16.7782 11.1901 16.8659C11.0379 16.9537 10.8652 16.9998 10.6895 16.9996H17C17.5303 16.9991 18.0387 16.7882 18.4136 16.4133C18.7886 16.0383 18.9995 15.5299 19 14.9996V8.99963C18.9995 8.46936 18.7886 7.96096 18.4136 7.586C18.0387 7.21104 17.5303 7.00016 17 6.99963ZM21 13.9996C20.7348 13.9996 20.4804 13.8943 20.2929 13.7067C20.1054 13.5192 20 13.2648 20 12.9996V10.9996C20 10.7344 20.1054 10.4801 20.2929 10.2925C20.4804 10.105 20.7348 9.99963 21 9.99963C21.2652 9.99963 21.5196 10.105 21.7071 10.2925C21.8946 10.4801 22 10.7344 22 10.9996V12.9996C22 13.2648 21.8946 13.5192 21.7071 13.7067C21.5196 13.8943 21.2652 13.9996 21 13.9996Z" fill="#A2A1FF"/>
</svg>
