<svg width="24" height="24" viewBox="0 0 24 24" fill="none" xmlns="http://www.w3.org/2000/svg">
<path d="M10.3965 11.519H10.2882L10.5288 11.3867C11.0262 11.13 11.4147 10.703 11.6235 10.1837C11.8119 9.63915 11.8615 9.05616 11.7678 8.48756C11.7125 7.98419 11.5223 7.50507 11.2175 7.10071C10.9126 6.69635 10.5043 6.38171 10.0357 6.18996C9.42806 5.92841 8.77236 5.79727 8.11091 5.80501H2V18.1592H7.5816C8.11368 18.1599 8.64486 18.1156 9.16949 18.0269C9.74206 17.946 10.2853 17.7231 10.7496 17.3785C11.214 17.0339 11.5847 16.5786 11.828 16.054C12.1925 15.3077 12.2983 14.4613 12.1287 13.6482C12.0573 13.1706 11.8588 12.721 11.554 12.3465C11.2493 11.9719 10.8495 11.6861 10.3965 11.519ZM4.89905 7.95827H7.30494C7.71101 7.95786 8.11541 8.01043 8.50788 8.11464C8.7213 8.16497 8.91321 8.28181 9.05591 8.44829C9.19862 8.61478 9.28473 8.8223 9.30182 9.04091C9.35108 9.28709 9.35108 9.54058 9.30182 9.78676C9.26726 9.92581 9.20317 10.0558 9.11392 10.1679C9.02466 10.28 8.91233 10.3715 8.78455 10.4364C8.41223 10.6244 7.99847 10.7154 7.58161 10.701H4.875L4.89905 7.95827ZM9.55445 14.8631C9.50033 15.155 9.3545 15.4221 9.13816 15.6255C8.92181 15.8288 8.64624 15.9579 8.35151 15.9939C8.08999 16.0462 7.82423 16.0743 7.55756 16.0781H4.875V12.8061H7.738C8.04542 12.8068 8.35048 12.8597 8.64022 12.9625C8.89807 13.0442 9.12434 13.2037 9.28802 13.419C9.45169 13.6344 9.54476 13.8951 9.55447 14.1654C9.58644 14.3969 9.58644 14.6316 9.55445 14.8631ZM21.9928 14.0571C22.0048 14.0331 22.0048 14.009 21.9688 14.0331V12.6978C21.9575 12.0863 21.8181 11.4839 21.5598 10.9295C21.169 10.0955 20.4834 9.43569 19.6351 9.07709C18.7023 8.69363 17.6773 8.5932 16.6879 8.78833C15.9361 8.89256 15.2313 9.21467 14.6605 9.7149C14.0897 10.2151 13.6779 10.8716 13.476 11.6032C13.1247 12.7253 13.0749 13.9202 13.3316 15.0676C13.4517 15.715 13.7519 16.3154 14.1977 16.7999C14.7669 17.3794 15.4816 17.7949 16.2668 18.0028C17.0231 18.2094 17.815 18.2505 18.5885 18.1231C19.5601 18.004 20.4544 17.5333 21.1026 16.7999C21.4258 16.4567 21.6683 16.0458 21.8124 15.5969C21.8807 15.4942 21.9105 15.3706 21.8965 15.2481H19.5388C19.5137 15.246 19.4886 15.2519 19.4671 15.2648C19.4455 15.2778 19.4285 15.2972 19.4185 15.3203C19.3001 15.5525 19.1302 15.7545 18.9217 15.9108C18.7132 16.0672 18.4716 16.1738 18.2156 16.2224C17.8585 16.296 17.4901 16.296 17.1329 16.2224C16.826 16.1763 16.5351 16.0557 16.2856 15.8712C16.0361 15.6866 15.8355 15.4438 15.7015 15.1639C15.596 14.9355 15.527 14.6919 15.497 14.4421V14.0571L21.9928 14.0571ZM15.6413 12.3249C15.6929 12.1324 15.7572 11.9435 15.8337 11.7595C15.9612 11.4443 16.1786 11.1736 16.4588 10.9811C16.739 10.7886 17.0697 10.6828 17.4096 10.6769C17.765 10.6426 18.1234 10.692 18.4562 10.8212C18.7579 10.9366 19.0225 11.1319 19.2217 11.3862C19.4209 11.6405 19.5471 11.9442 19.5869 12.2647V12.5174L15.6413 12.5534C15.6372 12.4773 15.6372 12.4011 15.6413 12.325V12.3249ZM20.0561 6.31021H15.0519V7.7538L20.0561 7.7418V6.31021Z" fill="#6563FF"/>
</svg>
