<svg width="24" height="24" viewBox="0 0 24 24" fill="none" xmlns="http://www.w3.org/2000/svg">
<path d="M7.18842 13.3522H5.2699L5.79309 10.9377H7.63135C8.82599 10.9377 9.11047 11.5229 9.11047 11.9874C9.11047 12.6447 8.68286 13.3522 7.18842 13.3522ZM7.84918 9.71515H5.93618L6.45565 7.29883H8.29578C9.48956 7.29883 9.77496 7.88583 9.77496 8.35035C9.7749 9.00751 9.34723 9.71515 7.84918 9.71515ZM11.6033 17.1406H9.68481L10.2069 14.7225H12.0471C13.24 14.7225 13.5228 15.3113 13.5228 15.7758C13.5228 16.4348 13.0978 17.1406 11.6033 17.1406ZM12.3109 13.3522H10.397L10.9182 10.9377H12.7575C13.9513 10.9377 14.2339 11.5229 14.2339 11.9874C14.2339 12.6447 13.809 13.3522 12.3109 13.3522ZM12.9753 9.71515H11.0614L11.5836 7.29883H13.4201C14.6157 7.29883 14.9001 7.88583 14.9001 8.35035C14.9002 9.00751 14.4734 9.71515 12.9753 9.71515ZM16.7223 15.3203H14.8065L15.3287 12.9022H17.167C18.3608 12.9022 18.6453 13.4927 18.6453 13.9555C18.6453 14.6126 18.2203 15.3203 16.7223 15.3203ZM17.4353 11.8776H15.5195L16.0417 9.46125H17.8818C19.0756 9.46125 19.3583 10.0482 19.3583 10.5128C19.3583 11.17 18.9333 11.8776 17.4353 11.8776Z" fill="#A2A1FF"/>
<path d="M12 2C6.47717 2 2 6.47717 2 12C2 17.5228 6.47717 22 12 22C17.5228 22 22 17.5228 22 12C22 6.47717 17.5228 2 12 2ZM7.18842 13.3519H5.2699L5.79309 10.9374H7.63135C8.82599 10.9374 9.11048 11.5226 9.11048 11.9871C9.11047 12.6444 8.68286 13.3519 7.18842 13.3519ZM7.84918 9.71484H5.93616L6.45563 7.29852H8.29578C9.48957 7.29852 9.77497 7.8855 9.77497 8.35003C9.7749 9.0072 9.34723 9.71484 7.84918 9.71484ZM11.6033 17.1403H9.68481L10.2069 14.7222H12.0471C13.24 14.7222 13.5228 15.311 13.5228 15.7755C13.5228 16.4345 13.0978 17.1403 11.6033 17.1403ZM12.3109 13.3519H10.397L10.9182 10.9374H12.7575C13.9512 10.9374 14.2339 11.5226 14.2339 11.9871C14.2339 12.6444 13.809 13.3519 12.3109 13.3519ZM12.9753 9.71484H11.0614L11.5836 7.29852H13.4201C14.6157 7.29852 14.9002 7.8855 14.9002 8.35003C14.9002 9.0072 14.4734 9.71484 12.9753 9.71484ZM16.7223 15.32H14.8065L15.3287 12.9019H17.1671C18.3608 12.9019 18.6453 13.4924 18.6453 13.9552C18.6453 14.6123 18.2203 15.32 16.7223 15.32ZM17.4353 11.8773H15.5195L16.0417 9.46094H17.8818C19.0756 9.46094 19.3583 10.0479 19.3583 10.5125C19.3583 11.1697 18.9334 11.8773 17.4353 11.8773Z" fill="#6563FF"/>
</svg>
