<svg width="24" height="24" viewBox="0 0 24 24" fill="none" xmlns="http://www.w3.org/2000/svg">
<path d="M19.9648 13H3.96484C3.69963 13 3.44527 12.8946 3.25774 12.7071C3.0702 12.5196 2.96484 12.2652 2.96484 12C2.96484 11.7348 3.0702 11.4804 3.25774 11.2929C3.44527 11.1054 3.69963 11 3.96484 11H19.9648C20.2301 11 20.4844 11.1054 20.672 11.2929C20.8595 11.4804 20.9648 11.7348 20.9648 12C20.9648 12.2652 20.8595 12.5196 20.672 12.7071C20.4844 12.8946 20.2301 13 19.9648 13Z" fill="#6563FF"/>
<path d="M11.9648 21C11.8335 21 11.7035 20.9742 11.5821 20.9239C11.4608 20.8737 11.3505 20.8 11.2577 20.7072C11.1648 20.6143 11.0911 20.5041 11.0409 20.3827C10.9907 20.2614 10.9648 20.1313 10.9648 20V4C10.9648 3.73478 11.0702 3.48043 11.2577 3.29289C11.4453 3.10536 11.6996 3 11.9648 3C12.2301 3 12.4844 3.10536 12.672 3.29289C12.8595 3.48043 12.9648 3.73478 12.9648 4V20C12.9649 20.1313 12.939 20.2614 12.8888 20.3827C12.8386 20.5041 12.7649 20.6143 12.672 20.7072C12.5792 20.8001 12.4689 20.8737 12.3476 20.924C12.2262 20.9742 12.0962 21 11.9648 21Z" fill="#6563FF"/>
<path d="M3.96411 17C4.5164 17 4.96411 16.5523 4.96411 16C4.96411 15.4477 4.5164 15 3.96411 15C3.41183 15 2.96411 15.4477 2.96411 16C2.96411 16.5523 3.41183 17 3.96411 17Z" fill="#A2A1FF"/>
<path d="M3.96411 21C4.5164 21 4.96411 20.5523 4.96411 20C4.96411 19.4477 4.5164 19 3.96411 19C3.41183 19 2.96411 19.4477 2.96411 20C2.96411 20.5523 3.41183 21 3.96411 21Z" fill="#A2A1FF"/>
<path d="M3.96411 9C4.5164 9 4.96411 8.55228 4.96411 8C4.96411 7.44772 4.5164 7 3.96411 7C3.41183 7 2.96411 7.44772 2.96411 8C2.96411 8.55228 3.41183 9 3.96411 9Z" fill="#A2A1FF"/>
<path d="M3.96411 5C4.5164 5 4.96411 4.55228 4.96411 4C4.96411 3.44772 4.5164 3 3.96411 3C3.41183 3 2.96411 3.44772 2.96411 4C2.96411 4.55228 3.41183 5 3.96411 5Z" fill="#A2A1FF"/>
<path d="M7.96411 5C8.5164 5 8.96411 4.55228 8.96411 4C8.96411 3.44772 8.5164 3 7.96411 3C7.41183 3 6.96411 3.44772 6.96411 4C6.96411 4.55228 7.41183 5 7.96411 5Z" fill="#A2A1FF"/>
<path d="M15.9641 5C16.5164 5 16.9641 4.55228 16.9641 4C16.9641 3.44772 16.5164 3 15.9641 3C15.4118 3 14.9641 3.44772 14.9641 4C14.9641 4.55228 15.4118 5 15.9641 5Z" fill="#A2A1FF"/>
<path d="M7.96411 21C8.5164 21 8.96411 20.5523 8.96411 20C8.96411 19.4477 8.5164 19 7.96411 19C7.41183 19 6.96411 19.4477 6.96411 20C6.96411 20.5523 7.41183 21 7.96411 21Z" fill="#A2A1FF"/>
<path d="M15.9641 21C16.5164 21 16.9641 20.5523 16.9641 20C16.9641 19.4477 16.5164 19 15.9641 19C15.4118 19 14.9641 19.4477 14.9641 20C14.9641 20.5523 15.4118 21 15.9641 21Z" fill="#A2A1FF"/>
<path d="M19.9641 17C20.5164 17 20.9641 16.5523 20.9641 16C20.9641 15.4477 20.5164 15 19.9641 15C19.4118 15 18.9641 15.4477 18.9641 16C18.9641 16.5523 19.4118 17 19.9641 17Z" fill="#A2A1FF"/>
<path d="M19.9641 21C20.5164 21 20.9641 20.5523 20.9641 20C20.9641 19.4477 20.5164 19 19.9641 19C19.4118 19 18.9641 19.4477 18.9641 20C18.9641 20.5523 19.4118 21 19.9641 21Z" fill="#A2A1FF"/>
<path d="M19.9641 9C20.5164 9 20.9641 8.55228 20.9641 8C20.9641 7.44772 20.5164 7 19.9641 7C19.4118 7 18.9641 7.44772 18.9641 8C18.9641 8.55228 19.4118 9 19.9641 9Z" fill="#A2A1FF"/>
<path d="M19.9641 5C20.5164 5 20.9641 4.55228 20.9641 4C20.9641 3.44772 20.5164 3 19.9641 3C19.4118 3 18.9641 3.44772 18.9641 4C18.9641 4.55228 19.4118 5 19.9641 5Z" fill="#A2A1FF"/>
</svg>
