<svg width="24" height="24" viewBox="0 0 24 24" fill="none" xmlns="http://www.w3.org/2000/svg">
<path opacity="0.99" d="M10.3125 16.0941C10.1811 16.0942 10.051 16.0684 9.92972 16.0181C9.80839 15.9678 9.69819 15.8941 9.60546 15.8011L6.79296 12.9886C6.60739 12.8007 6.5037 12.547 6.50452 12.2829C6.50535 12.0188 6.61062 11.7658 6.79736 11.579C6.9841 11.3923 7.23714 11.287 7.50124 11.2861C7.76534 11.2853 8.01904 11.389 8.20696 11.5745L10.3124 13.68L15.793 8.19954C15.9809 8.01398 16.2346 7.9103 16.4987 7.91114C16.7628 7.91197 17.0158 8.01726 17.2026 8.20401C17.3893 8.39076 17.4946 8.6438 17.4954 8.9079C17.4962 9.17199 17.3925 9.42569 17.207 9.6136L11.0195 15.8011C10.9267 15.8941 10.8165 15.9679 10.6952 16.0181C10.5739 16.0684 10.4438 16.0942 10.3125 16.0941Z" fill="#6563FF"/>
<path d="M12 2C10.0222 2 8.08879 2.58649 6.4443 3.6853C4.79981 4.78412 3.51809 6.3459 2.76121 8.17317C2.00433 10.0004 1.8063 12.0111 2.19215 13.9509C2.578 15.8907 3.53041 17.6725 4.92894 19.0711C6.32746 20.4696 8.10929 21.422 10.0491 21.8079C11.9889 22.1937 13.9996 21.9957 15.8268 21.2388C17.6541 20.4819 19.2159 19.2002 20.3147 17.5557C21.4135 15.9112 22 13.9778 22 12C21.997 9.34877 20.9424 6.80699 19.0677 4.93228C17.193 3.05758 14.6512 2.00303 12 2ZM17.207 9.61328L11.0195 15.8008C10.9267 15.8937 10.8165 15.9673 10.6951 16.0176C10.5738 16.0679 10.4438 16.0938 10.3125 16.0938C10.1812 16.0938 10.0511 16.0679 9.92981 16.0176C9.8085 15.9673 9.69828 15.8937 9.60544 15.8008L6.793 12.9883C6.60743 12.8004 6.50374 12.5467 6.50457 12.2826C6.50539 12.0185 6.61067 11.7654 6.79741 11.5787C6.98415 11.3919 7.23719 11.2867 7.50129 11.2858C7.76538 11.285 8.01908 11.3887 8.207 11.5742L10.3125 13.6797L15.793 8.19922C15.9809 8.01366 16.2346 7.90998 16.4987 7.91081C16.7628 7.91165 17.0159 8.01694 17.2026 8.20368C17.3893 8.39043 17.4946 8.64348 17.4954 8.90757C17.4963 9.17167 17.3926 9.42537 17.207 9.61328Z" fill="#A2A1FF"/>
</svg>
