<svg width="24" height="24" viewBox="0 0 24 24" fill="none" xmlns="http://www.w3.org/2000/svg">
<path d="M9.83986 17.0804C9.70852 17.0806 9.57845 17.0548 9.45712 17.0045C9.33578 16.9542 9.22559 16.8805 9.13286 16.7874L5.29302 12.9476C5.1993 12.855 5.12482 12.7447 5.07386 12.6232C5.0229 12.5016 4.99648 12.3712 4.9961 12.2394C4.99572 12.1077 5.0214 11.9771 5.07165 11.8553C5.12191 11.7334 5.19575 11.6227 5.28894 11.5296C5.38212 11.4364 5.49281 11.3625 5.61464 11.3123C5.73646 11.262 5.86702 11.2363 5.99881 11.2367C6.1306 11.2371 6.26101 11.2635 6.38255 11.3144C6.50409 11.3654 6.61436 11.4398 6.70702 11.5336L9.83986 14.6664L17.293 7.21325C17.4807 7.02638 17.7348 6.92159 17.9996 6.92188C18.2645 6.92216 18.5184 7.02749 18.7056 7.21476C18.8929 7.40203 18.9982 7.65594 18.9985 7.92077C18.9987 8.18561 18.8939 8.43972 18.707 8.62736L10.5469 16.7875C10.4541 16.8805 10.3439 16.9543 10.2226 17.0045C10.1013 17.0548 9.97119 17.0806 9.83986 17.0804Z" fill="#6563FF"/>
</svg>
