<svg width="24" height="24" viewBox="0 0 24 24" fill="none" xmlns="http://www.w3.org/2000/svg">
<path d="M10.2002 16.3997C10.0689 16.3999 9.9388 16.3741 9.81747 16.3238C9.69614 16.2735 9.58594 16.1997 9.49321 16.1067L6.29301 12.9071C6.10725 12.7192 6.00341 12.4654 6.00415 12.2012C6.0049 11.937 6.11018 11.6839 6.29699 11.497C6.48381 11.3102 6.73697 11.2049 7.00116 11.2042C7.26536 11.2034 7.51912 11.3072 7.70701 11.493L10.2002 13.9857L16.293 7.8929C16.4809 7.70734 16.7346 7.60366 16.9987 7.6045C17.2628 7.60533 17.5159 7.71062 17.7026 7.89737C17.8893 8.08412 17.9946 8.33716 17.9954 8.60126C17.9963 8.86535 17.8926 9.11905 17.707 9.30696L10.9072 16.1068C10.8145 16.1998 10.7043 16.2735 10.5829 16.3238C10.4616 16.3741 10.3315 16.3999 10.2002 16.3997Z" fill="#6563FF"/>
<path d="M21 2H3C2.73478 2 2.48043 2.10536 2.29289 2.29289C2.10536 2.48043 2 2.73478 2 3V21C2 21.2652 2.10536 21.5196 2.29289 21.7071C2.48043 21.8946 2.73478 22 3 22H21C21.2652 22 21.5196 21.8946 21.7071 21.7071C21.8946 21.5196 22 21.2652 22 21V3C22 2.73478 21.8946 2.48043 21.7071 2.29289C21.5196 2.10536 21.2652 2 21 2ZM17.707 9.30713L10.9072 16.1069C10.8144 16.1998 10.7041 16.2735 10.5828 16.3238C10.4615 16.374 10.3315 16.3999 10.2002 16.3999C10.0688 16.3999 9.93882 16.374 9.8175 16.3238C9.69618 16.2735 9.58596 16.1998 9.49313 16.1069L6.293 12.9072C6.10725 12.7194 6.0034 12.4656 6.00415 12.2014C6.00489 11.9372 6.11017 11.684 6.29699 11.4972C6.4838 11.3104 6.73696 11.2051 7.00116 11.2043C7.26535 11.2036 7.51912 11.3074 7.707 11.4932L10.2002 13.9858L16.293 7.89307C16.4809 7.70751 16.7346 7.60383 16.9987 7.60466C17.2628 7.6055 17.5159 7.71079 17.7026 7.89754C17.8893 8.08428 17.9946 8.33733 17.9954 8.60142C17.9963 8.86552 17.8926 9.11922 17.707 9.30713Z" fill="#A2A1FF"/>
</svg>
