<svg width="24" height="24" viewBox="0 0 24 24" fill="none" xmlns="http://www.w3.org/2000/svg">
<path d="M21 12.0002C20.7552 12.0006 20.5187 11.9108 20.336 11.7478L12 4.33813L3.66409 11.7478C3.46583 11.9239 3.20572 12.0141 2.94099 11.9984C2.67626 11.9827 2.42859 11.8626 2.25247 11.6643C2.07635 11.466 1.98621 11.2059 2.00187 10.9412C2.01753 10.6765 2.13771 10.4288 2.33597 10.2527L11.336 2.25268C11.5189 2.08992 11.7552 2 12 2C12.2449 2 12.4812 2.08992 12.6641 2.25268L21.6641 10.2527C21.8157 10.3874 21.9228 10.565 21.9711 10.7619C22.0194 10.9589 22.0067 11.1659 21.9347 11.3555C21.8627 11.545 21.7347 11.7082 21.5678 11.8234C21.4008 11.9385 21.2028 12.0002 21 12.0002Z" fill="#A2A1FF"/>
<path d="M14 13H13V12C13 11.7348 12.8946 11.4804 12.7071 11.2929C12.5196 11.1054 12.2652 11 12 11C11.7348 11 11.4804 11.1054 11.2929 11.2929C11.1054 11.4804 11 11.7348 11 12V13H10C9.73478 13 9.48043 13.1054 9.29289 13.2929C9.10536 13.4804 9 13.7348 9 14C9 14.2652 9.10536 14.5196 9.29289 14.7071C9.48043 14.8946 9.73478 15 10 15H11V16C11 16.2652 11.1054 16.5196 11.2929 16.7071C11.4804 16.8946 11.7348 17 12 17C12.2652 17 12.5196 16.8946 12.7071 16.7071C12.8946 16.5196 13 16.2652 13 16V15H14C14.2652 15 14.5196 14.8946 14.7071 14.7071C14.8946 14.5196 15 14.2652 15 14C15 13.7348 14.8946 13.4804 14.7071 13.2929C14.5196 13.1054 14.2652 13 14 13Z" fill="#6563FF"/>
<path d="M12 4.33789L4 11.449V21C3.99997 21.1313 4.02581 21.2614 4.07605 21.3827C4.12629 21.5041 4.19995 21.6143 4.29282 21.7072C4.38568 21.8 4.49594 21.8737 4.61728 21.9239C4.73862 21.9742 4.86867 22 5 22H19C19.1313 22 19.2614 21.9742 19.3827 21.9239C19.5041 21.8737 19.6143 21.8 19.7072 21.7072C19.8 21.6143 19.8737 21.5041 19.9239 21.3827C19.9742 21.2614 20 21.1313 20 21V11.449L12 4.33789ZM14 15H13V16C13 16.2652 12.8946 16.5196 12.7071 16.7071C12.5196 16.8946 12.2652 17 12 17C11.7348 17 11.4804 16.8946 11.2929 16.7071C11.1054 16.5196 11 16.2652 11 16V15H10C9.73478 15 9.48043 14.8946 9.29289 14.7071C9.10536 14.5196 9 14.2652 9 14C9 13.7348 9.10536 13.4804 9.29289 13.2929C9.48043 13.1054 9.73478 13 10 13H11V12C11 11.7348 11.1054 11.4804 11.2929 11.2929C11.4804 11.1054 11.7348 11 12 11C12.2652 11 12.5196 11.1054 12.7071 11.2929C12.8946 11.4804 13 11.7348 13 12V13H14C14.2652 13 14.5196 13.1054 14.7071 13.2929C14.8946 13.4804 15 13.7348 15 14C15 14.2652 14.8946 14.5196 14.7071 14.7071C14.5196 14.8946 14.2652 15 14 15Z" fill="#C1C0FF"/>
</svg>
