<svg width="24" height="24" viewBox="0 0 24 24" fill="none" xmlns="http://www.w3.org/2000/svg">
<path d="M12 22.0003H3.00001C2.80224 22.0003 2.60891 21.9416 2.44447 21.8317C2.28003 21.7219 2.15187 21.5657 2.07619 21.383C2.00052 21.2002 1.98072 20.9992 2.01932 20.8052C2.05791 20.6113 2.15315 20.4331 2.29301 20.2933L4.25685 18.3294C2.81962 16.5713 2.02348 14.3765 1.99934 12.1059C1.97521 9.83531 2.72453 7.62408 4.12407 5.83591C5.52361 4.04774 7.49003 2.7891 9.69993 2.26698C11.9098 1.74487 14.2316 1.99037 16.2835 2.96311C18.3353 3.93585 19.995 5.57791 20.9896 7.61923C21.9842 9.66055 22.2545 11.9796 21.7561 14.1949C21.2576 16.4103 20.0201 18.3901 18.2469 19.8086C16.4738 21.2272 14.2707 22.0001 12 22.0003Z" fill="#A2A1FF"/>
</svg>
