<svg width="24" height="24" viewBox="0 0 24 24" fill="none" xmlns="http://www.w3.org/2000/svg">
<path d="M14.6855 6.62874H7.72854L10.6499 3.70732C10.8355 3.5194 10.9391 3.2657 10.9383 3.00161C10.9375 2.73751 10.8322 2.48447 10.6454 2.29773C10.4587 2.11099 10.2056 2.00571 9.94154 2.00489C9.67744 2.00406 9.42375 2.10775 9.23583 2.29332L4.60772 6.9214C4.4209 7.10941 4.31604 7.36369 4.31604 7.62874C4.31604 7.89378 4.4209 8.14807 4.60772 8.33607L9.23583 12.9647C9.42335 13.1522 9.67768 13.2575 9.94287 13.2575C10.2081 13.2575 10.4624 13.1522 10.6499 12.9647C10.8374 12.7772 10.9428 12.5228 10.9428 12.2576C10.9428 11.9925 10.8374 11.7381 10.6499 11.5506L7.72838 8.62874H14.6855C15.4809 8.62961 16.2435 8.94596 16.8059 9.50838C17.3683 10.0708 17.6847 10.8334 17.6855 11.6287V21.0003C17.6855 21.2655 17.7909 21.5199 17.9784 21.7074C18.166 21.895 18.4203 22.0003 18.6855 22.0003C18.9508 22.0003 19.2051 21.895 19.3926 21.7074C19.5802 21.5199 19.6855 21.2655 19.6855 21.0003V11.6287C19.684 10.3031 19.1567 9.03227 18.2194 8.09493C17.282 7.15759 16.0111 6.6303 14.6855 6.62874Z" fill="#6563FF"/>
</svg>
