<svg width="24" height="24" viewBox="0 0 24 24" fill="none" xmlns="http://www.w3.org/2000/svg">
<path d="M14.0576 22.0004C13.8599 22.0003 13.6666 21.9416 13.5021 21.8318C13.3377 21.7219 13.2096 21.5657 13.1339 21.383C13.0583 21.2003 13.0385 20.9993 13.077 20.8053C13.1156 20.6114 13.2108 20.4332 13.3506 20.2934L17.2715 16.372L13.3506 12.4501C13.2578 12.3572 13.1841 12.247 13.1339 12.1257C13.0836 12.0044 13.0577 11.8744 13.0577 11.7431C13.0577 11.6118 13.0836 11.4817 13.1339 11.3604C13.1841 11.2391 13.2577 11.1289 13.3506 11.036C13.4434 10.9432 13.5537 10.8695 13.675 10.8193C13.7963 10.769 13.9263 10.7432 14.0576 10.7432C14.1889 10.7432 14.319 10.769 14.4403 10.8193C14.5616 10.8695 14.6718 10.9432 14.7647 11.036L19.3926 15.6649C19.4855 15.7578 19.5591 15.868 19.6094 15.9893C19.6597 16.1106 19.6856 16.2406 19.6856 16.372C19.6856 16.5033 19.6597 16.6333 19.6094 16.7546C19.5591 16.8759 19.4855 16.9862 19.3926 17.079L14.7646 21.7074C14.6719 21.8004 14.5617 21.8741 14.4404 21.9244C14.319 21.9747 14.1889 22.0005 14.0576 22.0004Z" fill="#6563FF"/>
<path d="M18.6856 17.3716H9.31445C7.98885 17.37 6.71799 16.8427 5.78064 15.9054C4.8433 14.968 4.31601 13.6972 4.31445 12.3716V3C4.31445 2.73478 4.41981 2.48043 4.60735 2.29289C4.79488 2.10536 5.04924 2 5.31445 2C5.57967 2 5.83402 2.10536 6.02156 2.29289C6.2091 2.48043 6.31445 2.73478 6.31445 3V12.3716C6.31532 13.167 6.63167 13.9295 7.19409 14.4919C7.75651 15.0544 8.51907 15.3707 9.31445 15.3716H18.6856C18.9508 15.3716 19.2051 15.4769 19.3927 15.6645C19.5802 15.852 19.6856 16.1064 19.6856 16.3716C19.6856 16.6368 19.5802 16.8912 19.3927 17.0787C19.2051 17.2662 18.9508 17.3716 18.6856 17.3716Z" fill="#6563FF"/>
</svg>
