<svg width="24" height="24" viewBox="0 0 24 24" fill="none" xmlns="http://www.w3.org/2000/svg">
<path d="M9.94238 22.0004C9.81104 22.0005 9.68097 21.9747 9.55964 21.9244C9.43831 21.8742 9.32811 21.8004 9.23538 21.7074L4.60742 17.079C4.51454 16.9862 4.44086 16.8759 4.39059 16.7546C4.34033 16.6333 4.31445 16.5033 4.31445 16.372C4.31445 16.2406 4.34033 16.1106 4.39059 15.9893C4.44086 15.868 4.51454 15.7578 4.60742 15.6649L9.23535 11.036C9.42287 10.8485 9.67719 10.7432 9.94238 10.7432C10.2076 10.7432 10.4619 10.8485 10.6494 11.036C10.8369 11.2235 10.9423 11.4779 10.9423 11.7431C10.9423 12.0083 10.8369 12.2626 10.6494 12.4501L6.72852 16.372L10.6494 20.2934C10.7892 20.4332 10.8844 20.6114 10.923 20.8054C10.9616 20.9993 10.9418 21.2004 10.8661 21.3831C10.7904 21.5658 10.6623 21.7219 10.4978 21.8318C10.3334 21.9417 10.1401 22.0003 9.94238 22.0004Z" fill="#6563FF"/>
<path d="M15.6856 17.3716H5.31445C5.04924 17.3716 4.79488 17.2662 4.60735 17.0787C4.41981 16.8912 4.31445 16.6368 4.31445 16.3716C4.31445 16.1064 4.41981 15.852 4.60735 15.6645C4.79488 15.4769 5.04924 15.3716 5.31445 15.3716H15.6856C16.2158 15.371 16.7242 15.1601 17.0991 14.7851C17.474 14.4102 17.6849 13.9018 17.6856 13.3716V3C17.6856 2.73478 17.7909 2.48043 17.9784 2.29289C18.166 2.10536 18.4203 2 18.6856 2C18.9508 2 19.2051 2.10536 19.3927 2.29289C19.5802 2.48043 19.6856 2.73478 19.6856 3V13.3716C19.6844 14.4321 19.2626 15.4489 18.5127 16.1988C17.7628 16.9487 16.7461 17.3705 15.6856 17.3716Z" fill="#6563FF"/>
</svg>
