<svg width="24" height="24" viewBox="0 0 24 24" fill="none" xmlns="http://www.w3.org/2000/svg">
<path d="M21 4.31445H11.6284C10.3028 4.31601 9.03191 4.8433 8.09456 5.78064C7.15722 6.71799 6.62994 7.98885 6.62838 9.31445V16.2715L3.70696 13.3501C3.51904 13.1645 3.26534 13.0609 3.00124 13.0617C2.73714 13.0625 2.4841 13.1678 2.29736 13.3546C2.11062 13.5413 2.00535 13.7944 2.00452 14.0585C2.0037 14.3226 2.10739 14.5763 2.29296 14.7642L6.92107 19.3923C7.10907 19.5791 7.36336 19.684 7.6284 19.684C7.89345 19.684 8.14773 19.5791 8.33574 19.3923L12.9643 14.7642C13.1519 14.5766 13.2572 14.3223 13.2572 14.0571C13.2572 13.7919 13.1519 13.5376 12.9643 13.3501C12.7768 13.1626 12.5225 13.0572 12.2573 13.0572C11.9921 13.0572 11.7378 13.1626 11.5503 13.3501L8.62838 16.2716V9.31445C8.62925 8.51907 8.94559 7.75651 9.50802 7.19409C10.0704 6.63167 10.833 6.31532 11.6284 6.31445H21C21.2652 6.31445 21.5195 6.2091 21.7071 6.02156C21.8946 5.83402 22 5.57967 22 5.31445C22 5.04924 21.8946 4.79488 21.7071 4.60735C21.5195 4.41981 21.2652 4.31445 21 4.31445Z" fill="#6563FF"/>
</svg>
