<svg width="24" height="24" viewBox="0 0 24 24" fill="none" xmlns="http://www.w3.org/2000/svg">
<path d="M19.6083 8.01088C19.6836 7.82818 19.7032 7.62734 19.6648 7.43352C19.6263 7.23971 19.5315 7.06156 19.3922 6.9214L14.7641 2.29332C14.5762 2.10775 14.3225 2.00406 14.0584 2.00489C13.7943 2.00571 13.5413 2.11099 13.3545 2.29773C13.1678 2.48447 13.0625 2.73751 13.0617 3.00161C13.0608 3.2657 13.1645 3.5194 13.3501 3.70732L16.2715 6.62871H8.31445C7.25396 6.62993 6.23725 7.05174 5.48736 7.80162C4.73748 8.55151 4.31567 9.56822 4.31445 10.6287V21.0003C4.31445 21.2655 4.41981 21.5199 4.60735 21.7074C4.79488 21.895 5.04924 22.0003 5.31445 22.0003C5.57967 22.0003 5.83402 21.895 6.02156 21.7074C6.2091 21.5199 6.31445 21.2655 6.31445 21.0003V10.6287C6.31498 10.0985 6.52587 9.59007 6.90082 9.21511C7.27578 8.84016 7.78418 8.62927 8.31445 8.62874H16.2716L13.3501 11.5506C13.2572 11.6435 13.1836 11.7537 13.1333 11.875C13.0831 11.9963 13.0572 12.1263 13.0572 12.2576C13.0572 12.389 13.0831 12.519 13.1333 12.6403C13.1836 12.7616 13.2572 12.8718 13.3501 12.9647C13.4429 13.0575 13.5531 13.1312 13.6745 13.1814C13.7958 13.2317 13.9258 13.2575 14.0571 13.2575C14.1884 13.2575 14.3184 13.2317 14.4397 13.1814C14.5611 13.1312 14.6713 13.0575 14.7641 12.9647L19.3922 8.33607C19.4849 8.24294 19.5584 8.13243 19.6083 8.01088Z" fill="#6563FF"/>
</svg>
