<svg width="24" height="24" viewBox="0 0 24 24" fill="none" xmlns="http://www.w3.org/2000/svg">
<path d="M21.707 13.3501C21.6142 13.2572 21.5039 13.1835 21.3826 13.1332C21.2613 13.083 21.1313 13.0571 21 13.0571C20.8687 13.0571 20.7386 13.083 20.6173 13.1332C20.496 13.1835 20.3858 13.2572 20.2929 13.3501L17.3715 16.2715V8.31445C17.3703 7.25396 16.9485 6.23725 16.1986 5.48736C15.4488 4.73748 14.432 4.31567 13.3715 4.31445H3C2.73478 4.31445 2.48043 4.41981 2.29289 4.60735C2.10536 4.79488 2 5.04924 2 5.31445C2 5.57967 2.10536 5.83402 2.29289 6.02156C2.48043 6.2091 2.73478 6.31445 3 6.31445H13.3716C13.9019 6.31498 14.4103 6.52587 14.7852 6.90082C15.1602 7.27578 15.3711 7.78418 15.3716 8.31445V16.2716L12.4497 13.3501C12.2622 13.1626 12.0079 13.0572 11.7427 13.0572C11.4775 13.0572 11.2232 13.1626 11.0356 13.3501C10.8481 13.5376 10.7428 13.7919 10.7428 14.0571C10.7428 14.3223 10.8481 14.5766 11.0356 14.7641L15.6643 19.3922C15.8523 19.5791 16.1065 19.6839 16.3716 19.6839C16.6366 19.6839 16.8909 19.5791 17.0789 19.3922L21.707 14.7641C21.7999 14.6713 21.8736 14.5611 21.9238 14.4398C21.9741 14.3185 22 14.1884 22 14.0571C22 13.9258 21.9741 13.7958 21.9238 13.6744C21.8736 13.5531 21.7999 13.4429 21.707 13.3501Z" fill="#6563FF"/>
</svg>
