<svg width="24" height="24" viewBox="0 0 24 24" fill="none" xmlns="http://www.w3.org/2000/svg">
<path d="M9.5 12C10.3284 12 11 11.3284 11 10.5C11 9.67157 10.3284 9 9.5 9C8.67157 9 8 9.67157 8 10.5C8 11.3284 8.67157 12 9.5 12Z" fill="#8382FF"/>
<path d="M9 16C9.55228 16 10 15.5523 10 15C10 14.4477 9.55228 14 9 14C8.44772 14 8 14.4477 8 15C8 15.5523 8.44772 16 9 16Z" fill="#6563FF"/>
<path d="M14.5 15C15.3284 15 16 14.3284 16 13.5C16 12.6716 15.3284 12 14.5 12C13.6716 12 13 12.6716 13 13.5C13 14.3284 13.6716 15 14.5 15Z" fill="#8382FF"/>
<path d="M15 10C15.5523 10 16 9.55228 16 9C16 8.44772 15.5523 8 15 8C14.4477 8 14 8.44772 14 9C14 9.55228 14.4477 10 15 10Z" fill="#6563FF"/>
<path d="M12 8C11.7348 8 11.4804 7.89464 11.2929 7.70711C11.1054 7.51957 11 7.26522 11 7V2C11 1.73478 11.1054 1.48043 11.2929 1.29289C11.4804 1.10536 11.7348 1 12 1C12.2652 1 12.5196 1.10536 12.7071 1.29289C12.8946 1.48043 13 1.73478 13 2V7C13 7.26522 12.8946 7.51957 12.7071 7.70711C12.5196 7.89464 12.2652 8 12 8ZM12 23C11.7348 23 11.4804 22.8946 11.2929 22.7071C11.1054 22.5196 11 22.2652 11 22V17C11 16.7348 11.1054 16.4804 11.2929 16.2929C11.4804 16.1054 11.7348 16 12 16C12.2652 16 12.5196 16.1054 12.7071 16.2929C12.8946 16.4804 13 16.7348 13 17V22C13 22.2652 12.8946 22.5196 12.7071 22.7071C12.5196 22.8946 12.2652 23 12 23ZM22 13H18C17.7348 13 17.4804 12.8946 17.2929 12.7071C17.1054 12.5196 17 12.2652 17 12C17 11.7348 17.1054 11.4804 17.2929 11.2929C17.4804 11.1054 17.7348 11 18 11H22C22.2652 11 22.5196 11.1054 22.7071 11.2929C22.8946 11.4804 23 11.7348 23 12C23 12.2652 22.8946 12.5196 22.7071 12.7071C22.5196 12.8946 22.2652 13 22 13ZM6 13H2C1.73478 13 1.48043 12.8946 1.29289 12.7071C1.10536 12.5196 1 12.2652 1 12C1 11.7348 1.10536 11.4804 1.29289 11.2929C1.48043 11.1054 1.73478 11 2 11H6C6.26522 11 6.51957 11.1054 6.70711 11.2929C6.89464 11.4804 7 11.7348 7 12C7 12.2652 6.89464 12.5196 6.70711 12.7071C6.51957 12.8946 6.26522 13 6 13Z" fill="#C1C0FF"/>
<path d="M18 12.9996C17.7347 12.9996 17.4804 12.8942 17.2929 12.7067C17.1053 12.5192 17 12.2648 17 11.9996C17 11.7344 17.1053 11.48 17.2929 11.2925C17.4804 11.105 17.7347 10.9996 18 10.9996H20.941C20.7113 8.97265 19.8009 7.08356 18.3584 5.64112C16.916 4.19869 15.0269 3.28824 13 3.05859V6.99959C13 7.26481 12.8946 7.51916 12.7071 7.7067C12.5195 7.89424 12.2652 7.99959 12 7.99959C11.7347 7.99959 11.4804 7.89424 11.2929 7.7067C11.1053 7.51916 11 7.26481 11 6.99959V3.05859C8.97302 3.28824 7.08393 4.19869 5.64149 5.64112C4.19906 7.08356 3.2886 8.97265 3.05896 10.9996H5.99996C6.26518 10.9996 6.51953 11.105 6.70707 11.2925C6.8946 11.48 6.99996 11.7344 6.99996 11.9996C6.99996 12.2648 6.8946 12.5192 6.70707 12.7067C6.51953 12.8942 6.26518 12.9996 5.99996 12.9996H3.05896C3.2886 15.0265 4.19906 16.9156 5.64149 18.3581C7.08393 19.8005 8.97302 20.711 11 20.9406V16.9996C11 16.7344 11.1053 16.48 11.2929 16.2925C11.4804 16.1049 11.7347 15.9996 12 15.9996C12.2652 15.9996 12.5195 16.1049 12.7071 16.2925C12.8946 16.48 13 16.7344 13 16.9996V20.9406C15.0269 20.711 16.916 19.8005 18.3584 18.3581C19.8009 16.9156 20.7113 15.0265 20.941 12.9996H18ZM8.99996 15.9996C8.80218 15.9996 8.60884 15.9409 8.44439 15.8311C8.27994 15.7212 8.15177 15.565 8.07608 15.3823C8.00039 15.1996 7.98059 14.9985 8.01917 14.8045C8.05776 14.6105 8.153 14.4323 8.29285 14.2925C8.43271 14.1526 8.61089 14.0574 8.80487 14.0188C8.99885 13.9802 9.19992 14 9.38264 14.0757C9.56537 14.1514 9.72155 14.2796 9.83143 14.444C9.94131 14.6085 9.99996 14.8018 9.99996 14.9996C9.99996 15.2648 9.8946 15.5192 9.70707 15.7067C9.51953 15.8942 9.26518 15.9996 8.99996 15.9996ZM9.49996 11.9996C9.20329 11.9996 8.91328 11.9116 8.6666 11.7468C8.41993 11.582 8.22767 11.3477 8.11414 11.0736C8.00061 10.7995 7.9709 10.4979 8.02878 10.207C8.08666 9.91599 8.22952 9.64871 8.4393 9.43893C8.64908 9.22915 8.91635 9.08629 9.20732 9.02842C9.4983 8.97054 9.7999 9.00024 10.074 9.11377C10.3481 9.22731 10.5823 9.41957 10.7472 9.66624C10.912 9.91291 11 10.2029 11 10.4996C11 10.8974 10.8419 11.2789 10.5606 11.5603C10.2793 11.8416 9.89778 11.9996 9.49996 11.9996ZM14.5 14.9996C14.2033 14.9996 13.9133 14.9116 13.6666 14.7468C13.4199 14.582 13.2277 14.3477 13.1141 14.0736C13.0006 13.7995 12.9709 13.4979 13.0288 13.207C13.0867 12.916 13.2295 12.6487 13.4393 12.4389C13.6491 12.2292 13.9164 12.0863 14.2073 12.0284C14.4983 11.9705 14.7999 12.0002 15.074 12.1138C15.3481 12.2273 15.5823 12.4196 15.7472 12.6662C15.912 12.9129 16 13.2029 16 13.4996C16 13.8974 15.8419 14.2789 15.5606 14.5603C15.2793 14.8416 14.8978 14.9996 14.5 14.9996ZM15 9.99959C14.8022 9.99959 14.6088 9.94094 14.4444 9.83106C14.2799 9.72118 14.1518 9.565 14.0761 9.38228C14.0004 9.19955 13.9806 8.99848 14.0192 8.8045C14.0578 8.61052 14.153 8.43234 14.2929 8.29249C14.4327 8.15263 14.6109 8.05739 14.8049 8.01881C14.9989 7.98022 15.1999 8.00003 15.3826 8.07571C15.5654 8.1514 15.7215 8.27957 15.8314 8.44402C15.9413 8.60847 16 8.80181 16 8.99959C16 9.26481 15.8946 9.51916 15.7071 9.7067C15.5195 9.89424 15.2652 9.99959 15 9.99959Z" fill="#A2A1FF"/>
<path d="M4.97853 6.39247C5.39628 5.8704 5.87052 5.39616 6.39259 4.97841L5.63575 4.22157C5.44824 4.03406 5.19391 3.92871 4.92872 3.92871C4.66354 3.92871 4.40921 4.03406 4.22169 4.22157C4.03418 4.40909 3.92883 4.66341 3.92883 4.9286C3.92883 5.05991 3.9547 5.18993 4.00495 5.31124C4.05519 5.43256 4.12885 5.54278 4.22169 5.63563L4.97853 6.39247ZM4.97853 17.6073L4.22169 18.3642C4.12885 18.457 4.05519 18.5672 4.00495 18.6885C3.9547 18.8099 3.92883 18.9399 3.92883 19.0712C3.92883 19.2025 3.9547 19.3325 4.00495 19.4538C4.05519 19.5751 4.12885 19.6854 4.22169 19.7782C4.40921 19.9657 4.66354 20.0711 4.92872 20.0711C5.06003 20.0711 5.19005 20.0452 5.31137 19.995C5.43268 19.9447 5.54291 19.8711 5.63575 19.7782L6.39259 19.0214C5.87052 18.6036 5.39628 18.1294 4.97853 17.6073ZM19.0215 17.6073C18.6037 18.1294 18.1295 18.6036 17.6074 19.0214L18.3643 19.7782C18.5518 19.9657 18.8061 20.0711 19.0713 20.0711C19.3365 20.0711 19.5908 19.9657 19.7783 19.7782C19.9659 19.5907 20.0712 19.3364 20.0712 19.0712C20.0712 18.806 19.9659 18.5517 19.7783 18.3642L19.0215 17.6073ZM19.0215 6.39247L19.7783 5.63563C19.8712 5.54278 19.9448 5.43256 19.9951 5.31124C20.0453 5.18993 20.0712 5.05991 20.0712 4.9286C20.0712 4.79729 20.0453 4.66727 19.9951 4.54596C19.9448 4.42465 19.8712 4.31442 19.7783 4.22157C19.6855 4.12872 19.5753 4.05507 19.4539 4.00482C19.3326 3.95457 19.2026 3.92871 19.0713 3.92871C18.94 3.92871 18.81 3.95457 18.6887 4.00482C18.5674 4.05507 18.4571 4.12872 18.3643 4.22157L17.6074 4.97841C18.1295 5.39616 18.6037 5.8704 19.0215 6.39247Z" fill="#6563FF"/>
</svg>
