<svg width="24" height="24" viewBox="0 0 24 24" fill="none" xmlns="http://www.w3.org/2000/svg">
<path d="M20.772 3.36426C20.6781 3.25037 20.5602 3.15865 20.4267 3.09568C20.2933 3.0327 20.1475 3.00003 20 3H5.99995C5.73474 3 5.48038 3.10536 5.29285 3.29289C5.10531 3.48043 4.99995 3.73478 4.99995 4C4.99995 4.26522 5.10531 4.51957 5.29285 4.70711C5.48038 4.89464 5.73474 5 5.99995 5H18.7861L18.0051 9H4.99995C4.73474 9 4.48038 9.10536 4.29285 9.29289C4.10531 9.48043 3.99995 9.73478 3.99995 10C3.99995 10.2652 4.10531 10.5196 4.29285 10.7071C4.48038 10.8946 4.73474 11 4.99995 11H17.6147L16.4521 16.9551L10.1289 18.9517L4.7187 17.2524L4.92231 16.1875C4.97204 15.9269 4.91623 15.6573 4.76715 15.4379C4.61808 15.2185 4.38795 15.0673 4.12739 15.0176C3.86684 14.9679 3.5972 15.0237 3.3778 15.1727C3.1584 15.3218 3.0072 15.5519 2.95747 15.8125L2.58735 17.7524C2.5415 17.9933 2.58569 18.2426 2.71152 18.4531C2.83735 18.6635 3.03607 18.8204 3.26995 18.894L9.83004 20.9541C10.0257 21.0155 10.2355 21.0153 10.4311 20.9536L17.621 18.6836C17.7924 18.6294 17.946 18.53 18.0657 18.3958C18.1854 18.2617 18.2668 18.0978 18.3012 17.9214L20.9814 4.19141C21.0097 4.04662 21.0055 3.89738 20.9693 3.75438C20.9331 3.61137 20.8657 3.47815 20.772 3.36426Z" fill="#6563FF"/>
</svg>
