<svg width="24" height="24" viewBox="0 0 24 24" fill="none" xmlns="http://www.w3.org/2000/svg">
<path d="M13.455 6.95508H10.545C10.244 6.95508 10 7.19908 10 7.50008V10.4101C10 10.7111 10.244 10.9551 10.545 10.9551H13.455C13.756 10.9551 14 10.7111 14 10.4101V7.50008C14 7.19908 13.756 6.95508 13.455 6.95508Z" fill="#6563FF"/>
<path d="M13.455 0.955078H10.545C10.244 0.955078 10 1.19908 10 1.50008V4.41008C10 4.71107 10.244 4.95508 10.545 4.95508H13.455C13.756 4.95508 14 4.71107 14 4.41008V1.50008C14 1.19908 13.756 0.955078 13.455 0.955078Z" fill="#6563FF"/>
<path d="M13.455 13.0449H10.545C10.244 13.0449 10 13.2889 10 13.5899V16.4999C10 16.8009 10.244 17.0449 10.545 17.0449H13.455C13.756 17.0449 14 16.8009 14 16.4999V13.5899C14 13.2889 13.756 13.0449 13.455 13.0449Z" fill="#6563FF"/>
<path d="M7.455 6.95508H4.545C4.244 6.95508 4 7.19908 4 7.50008V10.4101C4 10.7111 4.244 10.9551 4.545 10.9551H7.455C7.756 10.9551 8 10.7111 8 10.4101V7.50008C8 7.19908 7.756 6.95508 7.455 6.95508Z" fill="#6563FF"/>
<path d="M7.455 0.955078H4.545C4.244 0.955078 4 1.19908 4 1.50008V4.41008C4 4.71107 4.244 4.95508 4.545 4.95508H7.455C7.756 4.95508 8 4.71107 8 4.41008V1.50008C8 1.19908 7.756 0.955078 7.455 0.955078Z" fill="#6563FF"/>
<path d="M7.455 13.0449H4.545C4.244 13.0449 4 13.2889 4 13.5899V16.4999C4 16.8009 4.244 17.0449 4.545 17.0449H7.455C7.756 17.0449 8 16.8009 8 16.4999V13.5899C8 13.2889 7.756 13.0449 7.455 13.0449Z" fill="#6563FF"/>
<path d="M19.455 6.95508H16.545C16.244 6.95508 16 7.19908 16 7.50008V10.4101C16 10.7111 16.244 10.9551 16.545 10.9551H19.455C19.756 10.9551 20 10.7111 20 10.4101V7.50008C20 7.19908 19.756 6.95508 19.455 6.95508Z" fill="#6563FF"/>
<path d="M19.455 0.955078H16.545C16.244 0.955078 16 1.19908 16 1.50008V4.41008C16 4.71107 16.244 4.95508 16.545 4.95508H19.455C19.756 4.95508 20 4.71107 20 4.41008V1.50008C20 1.19908 19.756 0.955078 19.455 0.955078Z" fill="#6563FF"/>
<path d="M19.455 13.0449H16.545C16.244 13.0449 16 13.2889 16 13.5899V16.4999C16 16.8009 16.244 17.0449 16.545 17.0449H19.455C19.756 17.0449 20 16.8009 20 16.4999V13.5899C20 13.2889 19.756 13.0449 19.455 13.0449Z" fill="#6563FF"/>
<path d="M13.455 19H10.545C10.244 19 10 19.244 10 19.545V22.455C10 22.756 10.244 23 10.545 23H13.455C13.756 23 14 22.756 14 22.455V19.545C14 19.244 13.756 19 13.455 19Z" fill="#6563FF"/>
</svg>
