<svg width="24" height="24" viewBox="0 0 24 24" fill="none" xmlns="http://www.w3.org/2000/svg">
<path d="M12 19.5C11.8686 19.5001 11.7385 19.4743 11.6172 19.424C11.4959 19.3737 11.3857 19.3 11.293 19.207L8.29296 16.207C8.10825 16.0189 8.00529 15.7655 8.00648 15.5019C8.00767 15.2382 8.11292 14.9858 8.29933 14.7993C8.48574 14.6129 8.73822 14.5077 9.00183 14.5065C9.26545 14.5053 9.51887 14.6083 9.70696 14.793L12 17.0859L14.293 14.7929C14.4809 14.6074 14.7346 14.5037 14.9987 14.5045C15.2628 14.5053 15.5158 14.6106 15.7026 14.7974C15.8893 14.9841 15.9946 15.2372 15.9954 15.5013C15.9962 15.7654 15.8925 16.0191 15.707 16.207L12.707 19.207C12.6142 19.3 12.504 19.3737 12.3827 19.424C12.2614 19.4743 12.1313 19.5001 12 19.5ZM15 10.5C14.8686 10.5001 14.7385 10.4743 14.6172 10.424C14.4959 10.3737 14.3857 10.3 14.293 10.207L12 7.91403L9.70696 10.207C9.51887 10.3917 9.26545 10.4946 9.00183 10.4934C8.73822 10.4923 8.48574 10.387 8.29933 10.2006C8.11292 10.0142 8.00767 9.76171 8.00648 9.4981C8.00529 9.23448 8.10825 8.98106 8.29296 8.79297L11.293 5.79297C11.3858 5.70009 11.496 5.62641 11.6173 5.57614C11.7386 5.52587 11.8687 5.5 12 5.5C12.1313 5.5 12.2613 5.52587 12.3826 5.57614C12.504 5.62641 12.6142 5.70009 12.707 5.79297L15.707 8.79297C15.8468 8.93283 15.942 9.111 15.9806 9.30496C16.0192 9.49892 15.9994 9.69995 15.9237 9.88266C15.848 10.0654 15.7199 10.2215 15.5554 10.3314C15.391 10.4413 15.1977 10.4999 15 10.5Z" fill="#6563FF"/>
</svg>
