<svg width="24" height="24" viewBox="0 0 24 24" fill="none" xmlns="http://www.w3.org/2000/svg">
<path d="M18.8914 2H5.10868C4.83109 2.00066 4.55635 2.05599 4.30015 2.16284C4.04395 2.26968 3.8113 2.42594 3.61549 2.6227C3.41968 2.81945 3.26454 3.05285 3.15894 3.30957C3.05333 3.56628 2.99933 3.84128 3.00001 4.11887V18.0251C2.99932 18.3027 3.05332 18.5777 3.15892 18.8344C3.26451 19.0911 3.41964 19.3245 3.61545 19.5213C3.81125 19.7181 4.04389 19.8743 4.30009 19.9812C4.55629 20.088 4.83102 20.1433 5.10861 20.144H16.7726L16.2274 18.2411L17.544 19.4651L18.7885 20.6171L21 22.5714V4.11887C21.0007 3.84129 20.9467 3.56629 20.8411 3.30957C20.7355 3.05286 20.5804 2.81946 20.3846 2.6227C20.1888 2.42595 19.9561 2.26968 19.6999 2.16284C19.4437 2.056 19.169 2.00066 18.8914 2ZM14.9211 15.4332C14.9211 15.4332 14.5509 14.9909 14.2423 14.6C14.9878 14.4245 15.6473 13.9909 16.104 13.376C15.7339 13.6223 15.3371 13.8259 14.9211 13.9828C14.4427 14.1871 13.9422 14.3355 13.4297 14.4251C12.5488 14.5873 11.6454 14.5838 10.7657 14.4149C10.2493 14.3138 9.74322 14.1658 9.25374 13.9726C8.99571 13.8734 8.74481 13.7565 8.50281 13.6229C8.47201 13.6023 8.44114 13.592 8.41028 13.5714C8.39481 13.5637 8.38087 13.5533 8.36914 13.5406C8.18401 13.4377 8.08114 13.3657 8.08114 13.3657C8.52132 13.9677 9.15801 14.397 9.88114 14.5794C9.57261 14.9703 9.19201 15.4331 9.19201 15.4331C8.58102 15.4496 7.97536 15.3156 7.42831 15.043C6.88127 14.7704 6.40962 14.3675 6.05488 13.8697C6.08827 11.7845 6.59471 9.7341 7.53601 7.87313C8.36436 7.22254 9.37427 6.84518 10.4263 6.79313L10.5291 6.9166C9.53937 7.16148 8.61574 7.62153 7.82401 8.264C7.82401 8.264 8.05028 8.1406 8.43081 7.96573C9.17018 7.62823 9.95818 7.40954 10.7657 7.31773C10.8233 7.30578 10.8818 7.29889 10.9406 7.29713C11.6299 7.20734 12.3274 7.20045 13.0183 7.2766C14.1048 7.40069 15.1566 7.73612 16.1143 8.264C15.3627 7.65219 14.4897 7.20695 13.5531 6.95774L13.6971 6.7932C14.7492 6.8452 15.7591 7.22258 16.5874 7.8732C17.5287 9.73413 18.0352 11.7845 18.0686 13.8697C17.711 14.367 17.2373 14.7693 16.6888 15.0418C16.1402 15.3143 15.5334 15.4486 14.9211 15.4331V15.4332ZM10.1383 10.6297C9.85905 10.6297 9.59126 10.7407 9.39382 10.9381C9.19638 11.1356 9.08546 11.4034 9.08546 11.6826C9.08547 11.9618 9.19639 12.2296 9.39384 12.4271C9.59129 12.6245 9.85908 12.7354 10.1383 12.7354C10.4175 12.7354 10.6853 12.6245 10.8828 12.4271C11.0802 12.2296 11.1912 11.9618 11.1912 11.6826C11.1912 11.4034 11.0802 11.1356 10.8828 10.9381C10.6854 10.7407 10.4176 10.6297 10.1383 10.6297H10.1383ZM13.8926 10.6297C13.6627 10.6103 13.4322 10.6606 13.2314 10.7743C13.0306 10.888 12.8688 11.0596 12.7672 11.2668C12.6656 11.4739 12.6289 11.707 12.6619 11.9353C12.6949 12.1637 12.7961 12.3768 12.9522 12.5467C13.1083 12.7166 13.3121 12.8354 13.5369 12.8876C13.7616 12.9397 13.9969 12.9228 14.2119 12.839C14.4269 12.7552 14.6116 12.6085 14.7418 12.418C14.872 12.2275 14.9417 12.0021 14.9417 11.7714C14.9478 11.6275 14.9255 11.4839 14.8761 11.3486C14.8267 11.2134 14.7512 11.0892 14.6537 10.9832C14.5563 10.8771 14.4389 10.7913 14.3083 10.7307C14.1777 10.6701 14.0365 10.6357 13.8926 10.6297Z" fill="#6563FF"/>
<path d="M14.9211 15.433C14.9211 15.433 14.5508 14.9907 14.2422 14.5998C14.9878 14.4243 15.6472 13.9907 16.1039 13.3758C15.7339 13.6222 15.337 13.8257 14.9211 13.9826C14.4426 14.1869 13.9422 14.3353 13.4297 14.425C12.5488 14.5872 11.6453 14.5837 10.7657 14.4147C10.2493 14.3136 9.74315 14.1656 9.25367 13.9724C8.99564 13.8732 8.74474 13.7563 8.50274 13.6227C8.47194 13.6021 8.44107 13.5918 8.41021 13.5712C8.39474 13.5636 8.3808 13.5531 8.36907 13.5404C8.18394 13.4376 8.08107 13.3656 8.08107 13.3656C8.52126 13.9676 9.15794 14.3969 9.88107 14.5792C9.57254 14.9702 9.19194 15.433 9.19194 15.433C8.58095 15.4494 7.97529 15.3154 7.42825 15.0428C6.88121 14.7702 6.40956 14.3673 6.05481 13.8696C6.0882 11.7844 6.59465 9.73394 7.53594 7.87297C8.36429 7.22238 9.3742 6.84501 10.4262 6.79297L10.5291 6.91644C9.5393 7.16132 8.61568 7.62137 7.82394 8.26384C7.82394 8.26384 8.05021 8.14044 8.43074 7.96557C9.17011 7.62807 9.95811 7.40938 10.7657 7.31757C10.8232 7.30562 10.8818 7.29872 10.9405 7.29697C11.6298 7.20718 12.3274 7.20029 13.0183 7.27644C14.1048 7.40053 15.1565 7.73596 16.1142 8.26384C15.3626 7.65203 14.4896 7.20679 13.5531 6.95758L13.6971 6.79304C14.7491 6.84504 15.759 7.22242 16.5873 7.87304C17.5287 9.73397 18.0351 11.7844 18.0685 13.8696C17.7109 14.3668 17.2372 14.7692 16.6887 15.0416C16.1402 15.3141 15.5334 15.4484 14.9211 15.433V15.433ZM10.1382 10.6296C9.85898 10.6296 9.59119 10.7405 9.39375 10.938C9.19631 11.1354 9.08539 11.4032 9.08539 11.6824C9.0854 11.9617 9.19633 12.2295 9.39377 12.4269C9.59122 12.6243 9.85901 12.7353 10.1382 12.7353C10.4175 12.7353 10.6853 12.6243 10.8827 12.4269C11.0802 12.2295 11.1911 11.9617 11.1911 11.6824C11.1911 11.4032 11.0802 11.1354 10.8827 10.938C10.6853 10.7405 10.4175 10.6296 10.1383 10.6296H10.1382ZM13.8925 10.6296C13.6626 10.6101 13.4322 10.6605 13.2314 10.7741C13.0306 10.8878 12.8688 11.0595 12.7671 11.2666C12.6655 11.4738 12.6288 11.7068 12.6618 11.9352C12.6948 12.1635 12.796 12.3766 12.9521 12.5465C13.1082 12.7164 13.312 12.8352 13.5368 12.8874C13.7616 12.9396 13.9968 12.9226 14.2118 12.8389C14.4268 12.7551 14.6115 12.6083 14.7417 12.4178C14.8719 12.2274 14.9416 12.002 14.9416 11.7712C14.9477 11.6274 14.9255 11.4837 14.8761 11.3485C14.8267 11.2132 14.7511 11.089 14.6537 10.983C14.5562 10.877 14.4389 10.7912 14.3083 10.7305C14.1777 10.6699 14.0364 10.6356 13.8925 10.6296Z" fill="#C1C0FF"/>
</svg>
