<svg width="24" height="24" viewBox="0 0 24 24" fill="none" xmlns="http://www.w3.org/2000/svg">
<path d="M20.0572 22H3.94295C3.41243 21.9999 2.89129 21.8602 2.43187 21.5949C1.97246 21.3296 1.59095 20.9481 1.32568 20.4886C1.06041 20.0292 0.920724 19.508 0.920654 18.9775C0.920584 18.447 1.06013 17.9258 1.32528 17.4663L9.3824 3.51123C9.64771 3.05176 10.0293 2.67021 10.4888 2.40493C10.9483 2.13966 11.4695 2 12.0001 2C12.5307 2 13.0519 2.13966 13.5114 2.40493C13.9709 2.67021 14.3525 3.05176 14.6178 3.51123L22.6749 17.4663C22.94 17.9258 23.0796 18.447 23.0795 18.9775C23.0794 19.508 22.9397 20.0292 22.6745 20.4886C22.4092 20.9481 22.0277 21.3296 21.5683 21.5949C21.1089 21.8602 20.5877 21.9999 20.0572 22Z" fill="#A2A1FF"/>
<path d="M12 18C12.5523 18 13 17.5523 13 17C13 16.4477 12.5523 16 12 16C11.4477 16 11 16.4477 11 17C11 17.5523 11.4477 18 12 18Z" fill="#6563FF"/>
<path d="M12 14C11.7348 14 11.4804 13.8946 11.2929 13.7071C11.1054 13.5196 11 13.2652 11 13V9C11 8.73478 11.1054 8.48043 11.2929 8.29289C11.4804 8.10536 11.7348 8 12 8C12.2652 8 12.5196 8.10536 12.7071 8.29289C12.8946 8.48043 13 8.73478 13 9V13C13 13.2652 12.8946 13.5196 12.7071 13.7071C12.5196 13.8946 12.2652 14 12 14Z" fill="#6563FF"/>
</svg>
