<svg width="24" height="24" viewBox="0 0 24 24" fill="none" xmlns="http://www.w3.org/2000/svg">
<path d="M15.707 11.2933L11.707 7.29332C11.5189 7.10861 11.2655 7.00565 11.0019 7.00685C10.7383 7.00804 10.4858 7.11329 10.2994 7.2997C10.113 7.4861 10.0077 7.73858 10.0065 8.0022C10.0053 8.26581 10.1083 8.51923 10.293 8.70732L12.5859 11.0003H4V13.0003H12.5859L10.2929 15.2933C10.1991 15.386 10.1246 15.4962 10.0736 15.6178C10.0225 15.7394 9.99605 15.8698 9.99564 16.0016C9.99522 16.1335 10.0209 16.2641 10.0711 16.386C10.1214 16.5079 10.1953 16.6186 10.2885 16.7118C10.3817 16.805 10.4925 16.8789 10.6144 16.9292C10.7362 16.9794 10.8669 17.0051 10.9987 17.0047C11.1305 17.0042 11.261 16.9778 11.3825 16.9267C11.5041 16.8757 11.6144 16.8011 11.707 16.7073L15.707 12.7073C15.7999 12.6145 15.8735 12.5043 15.9238 12.383C15.9741 12.2617 15.9999 12.1316 15.9999 12.0003C15.9999 11.869 15.9741 11.739 15.9238 11.6177C15.8735 11.4964 15.7999 11.3862 15.707 11.2933Z" fill="#6563FF"/>
<path d="M17 2H7C6.20462 2.00087 5.44206 2.31722 4.87964 2.87964C4.31722 3.44206 4.00087 4.20462 4 5V11H12.5859L10.293 8.707C10.1083 8.51891 10.0053 8.26549 10.0065 8.00188C10.0077 7.73826 10.113 7.48578 10.2994 7.29937C10.4858 7.11297 10.7383 7.00772 11.0019 7.00652C11.2655 7.00533 11.5189 7.10829 11.707 7.293L15.707 11.293C15.7999 11.3858 15.8736 11.4961 15.9238 11.6174C15.9741 11.7387 16 11.8687 16 12C16 12.1313 15.9741 12.2614 15.9238 12.3827C15.8736 12.504 15.7999 12.6142 15.707 12.7071L11.707 16.7071C11.5191 16.8926 11.2654 16.9963 11.0013 16.9955C10.7372 16.9946 10.4841 16.8893 10.2974 16.7026C10.1107 16.5158 10.0054 16.2628 10.0046 15.9987C10.0037 15.7346 10.1074 15.4809 10.293 15.293L12.5859 13H4V19C4.00087 19.7954 4.31722 20.5579 4.87964 21.1204C5.44206 21.6828 6.20462 21.9991 7 22H17C17.7954 21.9991 18.5579 21.6828 19.1204 21.1204C19.6828 20.5579 19.9991 19.7954 20 19V5C19.9991 4.20462 19.6828 3.44206 19.1204 2.87964C18.5579 2.31722 17.7954 2.00087 17 2Z" fill="#A2A1FF"/>
</svg>
