<svg width="24" height="24" viewBox="0 0 24 24" fill="none" xmlns="http://www.w3.org/2000/svg">
<path d="M12 2.00046C10.6994 1.95336 9.40271 2.16981 8.1879 2.63679C6.97309 3.10377 5.86528 3.81164 4.9311 4.71781C3.99692 5.62398 3.25568 6.70974 2.75195 7.90978C2.24822 9.10982 1.99242 10.3993 1.99992 11.7008C1.98266 13.0514 2.25393 14.3901 2.79558 15.6275C3.33723 16.8649 4.13678 17.9723 5.14079 18.8759C5.22168 18.9478 5.28724 19.0354 5.33357 19.1332C5.3799 19.231 5.40604 19.3372 5.41044 19.4454L5.46476 21.224C5.46896 21.355 5.50519 21.4829 5.57029 21.5966C5.63539 21.7103 5.72736 21.8063 5.83816 21.8761C5.94896 21.946 6.0752 21.9877 6.20584 21.9975C6.33648 22.0073 6.46752 21.9849 6.5875 21.9323L8.5715 21.0571C8.73931 20.9827 8.92762 20.9685 9.1047 21.0168C10.0481 21.2745 11.022 21.4038 12 21.4011C13.2987 21.4406 14.5921 21.2189 15.8035 20.7492C17.0149 20.2795 18.1197 19.5713 19.0523 18.6666C19.9849 17.762 20.7263 16.6793 21.2326 15.4827C21.739 14.2861 21.9999 13.0001 21.9999 11.7008C21.9999 10.4015 21.739 9.11545 21.2326 7.91888C20.7263 6.72231 19.9849 5.63959 19.0523 4.73493C18.1197 3.83027 17.0149 3.12208 15.8035 2.65237C14.5921 2.18265 13.2987 1.96097 12 2.00046Z" fill="#A2A1FF"/>
<path d="M6.49909 14.7729C6.3089 14.7726 6.12275 14.7181 5.96247 14.6157C5.80218 14.5133 5.67442 14.3674 5.59415 14.1949C5.51389 14.0225 5.48446 13.8308 5.50931 13.6422C5.53415 13.4537 5.61226 13.2761 5.73445 13.1304L8.78622 9.49462C8.93975 9.3102 9.15469 9.18741 9.39153 9.14883C9.62836 9.11025 9.87117 9.15847 10.0753 9.28462L13.422 11.3403L15.7345 8.58548C15.8189 8.48493 15.9222 8.402 16.0387 8.3414C16.1551 8.2808 16.2823 8.24373 16.4131 8.23231C16.5438 8.22088 16.6756 8.23533 16.8008 8.27481C16.9259 8.3143 17.0421 8.37805 17.1427 8.46244C17.2432 8.54682 17.3261 8.65018 17.3867 8.76662C17.4473 8.88306 17.4844 9.01029 17.4958 9.14105C17.5073 9.27182 17.4928 9.40355 17.4533 9.52873C17.4138 9.65392 17.3501 9.77009 17.2657 9.87064L14.3995 13.2866C14.2454 13.4702 14.0305 13.5924 13.794 13.6309C13.5574 13.6695 13.3148 13.6218 13.1104 13.4966L9.76376 11.4409L7.26571 14.4155C7.17207 14.5278 7.05482 14.618 6.92231 14.6798C6.7898 14.7416 6.64529 14.7734 6.49909 14.7729Z" fill="#6563FF"/>
</svg>
