<svg width="24" height="24" viewBox="0 0 24 24" fill="none" xmlns="http://www.w3.org/2000/svg">
<path d="M12.6825 21.9997V14.2547H10.0762V11.2362H12.6825V9.01022C12.4823 7.01161 13.9401 5.22909 15.9387 5.02886C16.1468 5.00802 16.3562 5.00515 16.5647 5.02029C17.3426 5.01755 18.1201 5.05728 18.8937 5.13929V7.83894L17.2954 7.83971C16.0422 7.83971 15.7995 8.43523 15.7995 9.30913V11.2363H18.7885L18.3993 14.2547H15.7996V21.9997L12.6825 21.9997Z" fill="#A2A1FF"/>
<path d="M20.9991 2H2.99805C2.4458 2 1.99805 2.44769 1.99805 3V21.001C1.99805 21.5533 2.4458 22.001 2.99805 22.001H20.9991C21.5513 22.001 21.9991 21.5533 21.9991 21.001V3C21.9991 2.44769 21.5513 2 20.9991 2ZM18.8938 7.83923L17.2955 7.84002C16.0423 7.84002 15.7996 8.43554 15.7996 9.30944V11.2365H18.7886L18.3994 14.2549H15.7997V21.9999H12.6826V14.2549H10.0763V11.2365H12.6826V9.0105C12.4823 7.0119 13.9402 5.22937 15.9388 5.02918C16.1469 5.00831 16.3563 5.00544 16.5648 5.02057C17.3427 5.01782 18.1202 5.05756 18.8938 5.13959V7.83923Z" fill="#6563FF"/>
</svg>
