<svg width="24" height="24" viewBox="0 0 24 24" fill="none" xmlns="http://www.w3.org/2000/svg">
<path d="M18.0041 9.4647L15.0685 14.1227C14.6258 14.8238 13.6986 15.0332 12.9975 14.5906C12.9639 14.5694 12.9312 14.5469 12.8995 14.5231L10.5634 12.7706C10.3491 12.6102 10.0545 12.611 9.84106 12.7726L6.68405 15.169C6.47528 15.3276 6.17753 15.2869 6.019 15.0781C5.89916 14.9203 5.88997 14.7046 5.99594 14.5372L8.93356 9.87721C9.37636 9.17609 10.3037 8.96668 11.0048 9.40948C11.0383 9.43063 11.0709 9.45309 11.1026 9.47682L13.4387 11.2294C13.653 11.3897 13.9476 11.3889 14.1611 11.2274L17.3161 8.83297C17.5248 8.67446 17.8225 8.7152 17.9811 8.92396C18.1008 9.08173 18.11 9.2973 18.0041 9.4647Z" fill="#A2A1FF"/>
<path d="M12.5907 1.99961C12.3938 1.99363 12.1969 1.99363 12 1.99961C6.67344 1.80668 2.19901 5.96842 2.00608 11.295C2.0012 11.4299 1.99912 11.5649 1.99992 11.6999C1.96501 14.4323 3.10966 17.0471 5.14079 18.875C5.30424 19.0204 5.40153 19.2259 5.41044 19.4445L5.46476 21.2232C5.47892 21.6656 5.84904 22.0127 6.29142 21.9985C6.39347 21.9952 6.494 21.9725 6.5875 21.9314L8.57151 21.0562C8.7393 20.9819 8.92765 20.9676 9.10471 21.0159C10.0481 21.2736 11.022 21.4029 12 21.4003C17.3574 21.5633 21.8326 17.3526 21.9957 11.9953C22.1588 6.63792 17.948 2.1627 12.5907 1.99961ZM18.0041 9.46445L15.0685 14.1225C14.6258 14.8235 13.6986 15.033 12.9975 14.5903C12.9639 14.5691 12.9313 14.5466 12.8995 14.5229L10.5634 12.7704C10.349 12.61 10.0545 12.6108 9.84105 12.7723L6.68407 15.1688C6.47527 15.3273 6.17754 15.2866 6.01897 15.0779C5.89916 14.92 5.88994 14.7044 5.99596 14.537L8.93358 9.87699C9.37633 9.17582 10.3037 8.96641 11.0048 9.40922C11.0383 9.4304 11.0709 9.45286 11.1027 9.4766L13.4387 11.2291C13.653 11.3895 13.9476 11.3886 14.1611 11.2271L17.316 8.83274C17.5248 8.67423 17.8226 8.71494 17.9811 8.92368C18.1008 9.08146 18.11 9.29703 18.0041 9.46445Z" fill="#6563FF"/>
</svg>
