<svg width="24" height="24" viewBox="0 0 24 24" fill="none" xmlns="http://www.w3.org/2000/svg">
<path d="M17.5625 21.5596C17.4002 21.5596 17.2403 21.52 17.0967 21.4444L12 18.7647L6.90332 21.4444C6.73819 21.5313 6.55205 21.5702 6.36594 21.5568C6.17983 21.5434 6.00118 21.4782 5.85019 21.3686C5.6992 21.259 5.58191 21.1093 5.51156 20.9365C5.44122 20.7636 5.42064 20.5746 5.45215 20.3907L6.42578 14.7149L2.30178 10.6953C2.1682 10.5651 2.07374 10.4001 2.02907 10.2189C1.98441 10.0378 1.99132 9.84777 2.04904 9.67036C2.10675 9.49294 2.21296 9.33522 2.35566 9.21503C2.49835 9.09484 2.67183 9.01699 2.85647 8.99026L8.55471 8.16214L11.1035 2.99808C11.1954 2.84195 11.3264 2.71252 11.4837 2.62259C11.6409 2.53266 11.8189 2.48535 12 2.48535C12.1812 2.48535 12.3592 2.53266 12.5164 2.62259C12.6737 2.71252 12.8047 2.84195 12.8965 2.99808L15.4454 8.16214L21.1436 8.99026C21.3283 9.01699 21.5017 9.09484 21.6444 9.21503C21.7871 9.33522 21.8933 9.49294 21.951 9.67036C22.0088 9.84777 22.0157 10.0378 21.971 10.2189C21.9263 10.4001 21.8319 10.5651 21.6983 10.6953L17.5743 14.7149L18.5479 20.3907C18.5725 20.5342 18.5654 20.6813 18.5272 20.8218C18.4891 20.9623 18.4207 21.0927 18.3268 21.2041C18.233 21.3154 18.116 21.4049 17.984 21.4663C17.852 21.5277 17.7082 21.5596 17.5626 21.5597L17.5625 21.5596Z" fill="#6563FF"/>
</svg>
