<svg width="24" height="24" viewBox="0 0 24 24" fill="none" xmlns="http://www.w3.org/2000/svg">
<path d="M20 11.0003C19.8683 11.0016 19.7376 10.9766 19.6157 10.9268C19.4938 10.877 19.3831 10.8034 19.29 10.7103C19.2018 10.6129 19.1308 10.5013 19.08 10.3802C19.0271 10.2605 18.9999 10.1311 18.9999 10.0003C18.9999 9.86951 19.0271 9.74013 19.08 9.62044C19.1282 9.49797 19.1995 9.38589 19.29 9.29028C19.4833 9.1118 19.7368 9.01269 19.9999 9.01269C20.2631 9.01269 20.5165 9.1118 20.7099 9.29028C20.7983 9.38748 20.8693 9.49913 20.9199 9.62036C20.9727 9.74005 21 9.86943 21 10.0002C21 10.1311 20.9727 10.2604 20.9199 10.3801C20.8691 10.5012 20.7981 10.6129 20.7099 10.7102C20.6167 10.8032 20.5059 10.8767 20.384 10.9265C20.2622 10.9763 20.1316 11.0014 20 11.0003ZM19 6.50028C19.0008 6.23533 19.1064 5.98146 19.2938 5.79411C19.4811 5.60676 19.735 5.50113 20 5.50028C20.2649 5.50113 20.5188 5.60676 20.7061 5.79411C20.8935 5.98146 20.9991 6.23533 21 6.50028C20.9991 6.76524 20.8935 7.0191 20.7061 7.20646C20.5188 7.39381 20.2649 7.49944 20 7.50028C19.735 7.49944 19.4811 7.39381 19.2938 7.20646C19.1064 7.0191 19.0008 6.76524 19 6.50028ZM20 4.00028C19.8353 4.00199 19.6728 3.96258 19.5272 3.88563C19.3816 3.80868 19.2575 3.69661 19.1661 3.55958C19.0748 3.42256 19.0191 3.2649 19.004 3.10091C18.989 2.93691 19.0151 2.77176 19.08 2.6204C19.1283 2.49795 19.1995 2.38589 19.29 2.29028C19.4833 2.1118 19.7368 2.0127 19.9999 2.0127C20.263 2.0127 20.5165 2.1118 20.7099 2.29028C20.8003 2.38587 20.8716 2.49792 20.9199 2.62036C20.9979 2.80219 21.0196 3.00325 20.9822 3.19754C20.9448 3.39184 20.8499 3.57044 20.71 3.71028C20.6126 3.79846 20.501 3.86947 20.3799 3.92028C20.2597 3.97153 20.1306 3.99871 20 4.00028ZM7.03023 6.24051C6.99793 6.11314 6.99122 5.98063 7.01048 5.85065C7.02974 5.72066 7.07459 5.59579 7.14243 5.48326C7.21028 5.37073 7.29977 5.27277 7.40573 5.19505C7.51169 5.11734 7.63201 5.06141 7.75973 5.03051C7.88711 4.99781 8.01973 4.99079 8.14985 5.00987C8.27997 5.02895 8.405 5.07375 8.51763 5.14165C8.63025 5.20956 8.72824 5.29921 8.80586 5.40537C8.88348 5.51154 8.93918 5.63209 8.96973 5.76001C9.0013 5.88736 9.00747 6.01969 8.9879 6.14942C8.96832 6.27916 8.92337 6.40377 8.85563 6.51613C8.78789 6.6285 8.69867 6.72641 8.59308 6.80429C8.48749 6.88217 8.36759 6.93848 8.24023 6.97001C8.16173 6.99016 8.081 7.00033 7.99996 7.00028C7.77631 7.00162 7.55878 6.92727 7.38273 6.78934C7.20668 6.65141 7.08245 6.45798 7.03023 6.24051ZM11.0302 5.24051C10.9979 5.11314 10.9912 4.98063 11.0105 4.85065C11.0297 4.72066 11.0746 4.59579 11.1424 4.48326C11.2103 4.37073 11.2998 4.27277 11.4057 4.19505C11.5117 4.11734 11.632 4.06141 11.7597 4.03051C11.8871 3.99781 12.0197 3.99079 12.1499 4.00987C12.28 4.02895 12.405 4.07375 12.5176 4.14165C12.6303 4.20956 12.7282 4.29921 12.8059 4.40537C12.8835 4.51154 12.9392 4.63209 12.9697 4.76001C13.0013 4.88736 13.0075 5.01969 12.9879 5.14942C12.9683 5.27916 12.9234 5.40377 12.8556 5.51613C12.7879 5.6285 12.6987 5.72641 12.5931 5.80429C12.4875 5.88217 12.3676 5.93848 12.2402 5.97001C12.1617 5.99016 12.081 6.00033 12 6.00028C11.7768 5.99955 11.5603 5.92444 11.3847 5.78683C11.2091 5.64923 11.0843 5.45698 11.0302 5.24051ZM15.0302 4.24051C14.9986 4.11316 14.9923 3.98081 15.0118 3.85104C15.0314 3.72127 15.0763 3.59662 15.1441 3.48424C15.2118 3.37185 15.3011 3.27392 15.4067 3.19607C15.5124 3.11821 15.6323 3.06196 15.7597 3.03051C16.0169 2.9678 16.2884 3.0093 16.515 3.14595C16.7417 3.28261 16.9051 3.50334 16.9697 3.76001C17.0013 3.88736 17.0075 4.01969 16.9879 4.14942C16.9683 4.27916 16.9234 4.40377 16.8556 4.51613C16.7879 4.6285 16.6987 4.72641 16.5931 4.80429C16.4875 4.88217 16.3676 4.93848 16.2402 4.97001C16.1617 4.99016 16.081 5.00033 16 5.00028C15.7763 5.00162 15.5588 4.92727 15.3827 4.78934C15.2067 4.6514 15.0824 4.45799 15.0302 4.24051ZM3.99996 8.00028C3.86828 8.00156 3.73767 7.97657 3.61576 7.92677C3.49386 7.87697 3.38311 7.80336 3.29 7.71024C3.19688 7.61713 3.12327 7.50638 3.07347 7.38448C3.02367 7.26257 2.99868 7.13196 2.99996 7.00028C2.9963 6.86911 3.02374 6.73894 3.08004 6.6204C3.12825 6.49795 3.19951 6.38589 3.28996 6.29028C3.48331 6.11178 3.7368 6.01266 3.99996 6.01266C4.26311 6.01266 4.5166 6.11178 4.70996 6.29028C4.80042 6.38587 4.87171 6.49792 4.91996 6.62036C4.98479 6.77173 5.01085 6.93687 4.99577 7.10085C4.9807 7.26482 4.92497 7.42244 4.83362 7.55945C4.74228 7.69646 4.61821 7.80852 4.47264 7.88549C4.32708 7.96247 4.16461 8.00192 3.99996 8.00028ZM3.99996 11.0003C3.86827 11.0016 3.73765 10.9766 3.61574 10.9268C3.49383 10.877 3.38307 10.8034 3.28996 10.7103C3.20178 10.6129 3.13077 10.5013 3.07996 10.3802C3.02715 10.2605 2.99988 10.1311 2.99988 10.0003C2.99988 9.86951 3.02715 9.74013 3.07996 9.62044C3.13053 9.49918 3.20157 9.3875 3.28996 9.29028C3.48331 9.11178 3.7368 9.01265 3.99996 9.01265C4.26311 9.01265 4.51661 9.11178 4.70996 9.29028C4.79834 9.38748 4.86937 9.49913 4.91996 9.62036C4.97276 9.74005 5.00004 9.86943 5.00004 10.0002C5.00004 10.1311 4.97276 10.2604 4.91996 10.3801C4.86914 10.5012 4.79813 10.6129 4.70996 10.7102C4.61674 10.8032 4.50596 10.8767 4.38408 10.9265C4.26219 10.9763 4.13162 11.0014 3.99996 11.0003ZM15 10.0003C15.0008 9.73533 15.1064 9.48146 15.2938 9.29411C15.4811 9.10676 15.735 9.00113 16 9.00028C16.2649 9.00113 16.5188 9.10676 16.7061 9.29411C16.8935 9.48146 16.9991 9.73533 17 10.0003C16.9991 10.2652 16.8935 10.5191 16.7061 10.7065C16.5188 10.8938 16.2649 10.9994 16 11.0003C15.735 10.9994 15.4811 10.8938 15.2938 10.7065C15.1064 10.5191 15.0008 10.2652 15 10.0003ZM11 10.0003C11.0008 9.73533 11.1064 9.48146 11.2938 9.29411C11.4811 9.10676 11.735 9.00113 12 9.00028C12.2649 9.00113 12.5188 9.10676 12.7061 9.29411C12.8935 9.48146 12.9991 9.73533 13 10.0003C12.9991 10.2652 12.8935 10.5191 12.7061 10.7065C12.5188 10.8938 12.2649 10.9994 12 11.0003C11.735 10.9994 11.4811 10.8938 11.2938 10.7065C11.1064 10.5191 11.0008 10.2652 11 10.0003ZM6.99996 10.0003C7.0008 9.73533 7.10643 9.48146 7.29378 9.29411C7.48114 9.10676 7.735 9.00113 7.99996 9.00028C8.26491 9.00113 8.51878 9.10676 8.70613 9.29411C8.89348 9.48146 8.99911 9.73533 8.99996 10.0003C8.99911 10.2652 8.89348 10.5191 8.70613 10.7065C8.51878 10.8938 8.26491 10.9994 7.99996 11.0003C7.735 10.9994 7.48114 10.8938 7.29378 10.7065C7.10643 10.5191 7.0008 10.2652 6.99996 10.0003Z" fill="#A2A1FF"/>
<path d="M20 14V21L4 17V14H20Z" fill="#6563FF"/>
<path d="M20 22C19.9183 22.0001 19.837 21.9899 19.7578 21.9697L3.75781 17.9697C3.54142 17.9158 3.34929 17.791 3.21198 17.6153C3.07466 17.4396 3.00004 17.223 3 17V14C2.99993 13.8687 3.02574 13.7386 3.07597 13.6172C3.1262 13.4959 3.19985 13.3856 3.29273 13.2927C3.3856 13.1999 3.49587 13.1262 3.61723 13.076C3.73859 13.0257 3.86866 12.9999 4 13H20C20.1313 12.9999 20.2614 13.0257 20.3828 13.076C20.5041 13.1262 20.6144 13.1999 20.7073 13.2927C20.8001 13.3856 20.8738 13.4959 20.924 13.6172C20.9743 13.7386 21.0001 13.8687 21 14V21C20.9999 21.2652 20.8945 21.5195 20.707 21.707C20.5195 21.8945 20.2652 21.9999 20 22ZM5 16.2188L19 19.7188V15H5V16.2188Z" fill="#6563FF"/>
</svg>
