<svg width="24" height="24" viewBox="0 0 24 24" fill="none" xmlns="http://www.w3.org/2000/svg">
<path d="M12 22C11.8687 22 11.7386 21.9742 11.6173 21.9239C11.4959 21.8737 11.3857 21.8 11.2928 21.7072C11.2 21.6143 11.1263 21.5041 11.0761 21.3827C11.0258 21.2614 11 21.1313 11 21V3C11 2.73478 11.1054 2.48043 11.2929 2.29289C11.4804 2.10536 11.7348 2 12 2C12.2652 2 12.5196 2.10536 12.7071 2.29289C12.8946 2.48043 13 2.73478 13 3V21C13 21.1313 12.9742 21.2614 12.9239 21.3827C12.8737 21.5041 12.8 21.6143 12.7072 21.7072C12.6143 21.8 12.5041 21.8737 12.3827 21.9239C12.2614 21.9742 12.1313 22 12 22Z" fill="#C1C0FF"/>
<path d="M21 12L16 7V17L21 12Z" fill="#6563FF"/>
<path d="M16 17.9999C15.7348 17.9999 15.4804 17.8946 15.2929 17.707C15.1054 17.5195 15 17.2651 15 16.9999V6.99991C15 6.80214 15.0586 6.60882 15.1685 6.44438C15.2784 6.27994 15.4346 6.15178 15.6173 6.0761C15.8 6.00042 16.0011 5.98063 16.195 6.01922C16.389 6.05782 16.5672 6.15306 16.707 6.29291L21.707 11.2929C21.7999 11.3857 21.8736 11.496 21.9238 11.6173C21.9741 11.7386 22 11.8686 22 11.9999C22 12.1313 21.9741 12.2613 21.9238 12.3826C21.8736 12.5039 21.7999 12.6141 21.707 12.707L16.707 17.707C16.6142 17.7999 16.504 17.8736 16.3827 17.9238C16.2614 17.9741 16.1313 18 16 17.9999ZM17 9.41397V14.5859L19.5859 11.9999L17 9.41397Z" fill="#6563FF"/>
<path d="M3.00005 13.0003C2.83542 13.0019 2.673 12.9624 2.52747 12.8854C2.38194 12.8084 2.25789 12.6963 2.16653 12.5594C2.07517 12.4224 2.01939 12.2648 2.00422 12.1009C1.98904 11.937 2.01497 11.7718 2.07964 11.6204C2.13037 11.4992 2.20154 11.3875 2.29005 11.2903C2.48339 11.1118 2.73687 11.0127 3.00001 11.0127C3.26314 11.0127 3.51662 11.1118 3.70997 11.2903C3.80027 11.386 3.87154 11.498 3.91997 11.6204C3.97604 11.739 4.00347 11.8691 4.00005 12.0003C4.00133 12.132 3.97633 12.2626 3.92653 12.3845C3.87673 12.5064 3.80312 12.6172 3.71001 12.7103C3.61689 12.8034 3.50614 12.877 3.38424 12.9268C3.26233 12.9766 3.13172 13.0016 3.00005 13.0003ZM4.79005 15.2103C4.60262 15.0216 4.49744 14.7664 4.49744 14.5004C4.49744 14.2344 4.60262 13.9791 4.79005 13.7904C4.97868 13.6028 5.23394 13.4974 5.50001 13.4974C5.76608 13.4974 6.02133 13.6028 6.20997 13.7904C6.39717 13.9793 6.50221 14.2344 6.50221 14.5004C6.50221 14.7663 6.39717 15.0214 6.20997 15.2103C6.0196 15.395 5.76519 15.4989 5.49997 15.5003C5.23473 15.4991 4.98029 15.3951 4.79005 15.2103ZM8.00005 18.0003C7.86838 18.0015 7.73778 17.9765 7.61588 17.9267C7.49398 17.8769 7.38322 17.8034 7.29005 17.7103C7.20174 17.613 7.13058 17.5014 7.0796 17.3802C7.0285 17.26 7.00147 17.1309 7.00005 17.0003C7.00373 16.7355 7.10731 16.4819 7.29005 16.2903C7.43325 16.1558 7.61166 16.0647 7.80457 16.0275C7.99747 15.9904 8.19696 16.0087 8.37989 16.0803C8.50106 16.131 8.61269 16.202 8.70997 16.2903C8.89253 16.4821 8.99611 16.7356 9.00005 17.0003C8.99844 17.131 8.97123 17.26 8.91997 17.3802C8.86897 17.5012 8.79798 17.6128 8.70997 17.7103C8.61681 17.8033 8.50606 17.8769 8.38417 17.9267C8.26229 17.9765 8.13171 18.0015 8.00005 18.0003ZM7.00005 13.6702C6.99952 13.5388 7.02502 13.4085 7.07509 13.2869C7.12516 13.1654 7.1988 13.0549 7.29176 12.9619C7.38472 12.869 7.49517 12.7953 7.61674 12.7453C7.7383 12.6952 7.86858 12.6697 8.00005 12.6702C8.1315 12.6697 8.26176 12.6953 8.3833 12.7454C8.50485 12.7954 8.61528 12.8691 8.70824 12.962C8.80119 13.055 8.87483 13.1654 8.92492 13.287C8.975 13.4085 9.00053 13.5388 9.00005 13.6702C8.9992 13.9352 8.89358 14.1891 8.70622 14.3764C8.51887 14.5638 8.265 14.6694 8.00005 14.6702C7.73506 14.6695 7.48115 14.5639 7.29378 14.3765C7.10641 14.1891 7.00081 13.9352 7.00005 13.6702ZM7.00005 10.3304C7.00081 10.0654 7.10641 9.8115 7.29378 9.62413C7.48115 9.43675 7.73506 9.33115 8.00005 9.33039C8.265 9.33123 8.51887 9.43686 8.70622 9.62422C8.89358 9.81157 8.9992 10.0654 9.00005 10.3304C9.00045 10.4618 8.97486 10.592 8.92475 10.7136C8.87464 10.8351 8.801 10.9455 8.70806 11.0384C8.61512 11.1313 8.50472 11.205 8.38321 11.2551C8.2617 11.3052 8.13148 11.3308 8.00005 11.3304C7.8686 11.3308 7.73836 11.3053 7.61684 11.2552C7.49531 11.2051 7.38489 11.1314 7.29195 11.0385C7.199 10.9455 7.12536 10.8351 7.07526 10.7136C7.02516 10.5921 6.9996 10.4618 7.00005 10.3304ZM8.00005 8.00031C7.83542 8.00186 7.673 7.96235 7.52747 7.88537C7.38194 7.80838 7.25789 7.69634 7.16653 7.55938C7.07517 7.42241 7.01939 7.26484 7.00422 7.10091C6.98904 6.93697 7.01497 6.77184 7.07964 6.62043C7.12803 6.49795 7.19945 6.38589 7.29005 6.29031C7.40504 6.17085 7.54831 6.08234 7.70661 6.03297C7.8649 5.9836 8.03309 5.97498 8.19561 6.00789C8.35812 6.0408 8.5097 6.11419 8.63631 6.22125C8.76292 6.32832 8.86047 6.4656 8.91993 6.62039C8.98475 6.77175 9.01081 6.93688 8.99574 7.10084C8.98068 7.26481 8.92495 7.42242 8.83363 7.55943C8.7423 7.69643 8.61824 7.8085 8.47269 7.88548C8.32714 7.96246 8.16469 8.00193 8.00005 8.00031ZM4.79005 10.2103C4.6026 10.0216 4.4974 9.76633 4.4974 9.50031C4.4974 9.23429 4.6026 8.97907 4.79005 8.79031C4.97869 8.60265 5.23396 8.4973 5.50005 8.4973C5.76614 8.4973 6.0214 8.60265 6.21005 8.79031C6.39725 8.97918 6.50229 9.23435 6.50229 9.50027C6.50229 9.7662 6.39725 10.0214 6.21005 10.2102C6.01968 10.3949 5.76527 10.4988 5.50005 10.5002C5.2348 10.499 4.98033 10.3951 4.79005 10.2103Z" fill="#A2A1FF"/>
</svg>
