<svg width="24" height="24" viewBox="0 0 24 24" fill="none" xmlns="http://www.w3.org/2000/svg">
<path d="M10 21.0003C9.86832 21.0016 9.7377 20.9766 9.61578 20.9268C9.49387 20.877 9.38311 20.8034 9.29 20.7103C9.20182 20.6129 9.13082 20.5013 9.08 20.3802C9.02373 20.2617 8.99631 20.1315 9 20.0003C9 19.7351 9.10536 19.4807 9.29289 19.2932C9.48043 19.1056 9.73478 19.0003 10 19.0003C10.2652 19.0003 10.5196 19.1056 10.7071 19.2932C10.8946 19.4807 11 19.7351 11 20.0003C11.0013 20.132 10.9763 20.2626 10.9265 20.3845C10.8767 20.5064 10.8031 20.6171 10.71 20.7103C10.6168 20.8034 10.5061 20.877 10.3842 20.9268C10.2623 20.9766 10.1317 21.0016 10 21.0003ZM5.5 20.0003C5.50084 19.7353 5.60647 19.4815 5.79383 19.2941C5.98118 19.1068 6.23504 19.0011 6.5 19.0003C6.76496 19.0011 7.01882 19.1068 7.20617 19.2941C7.39353 19.4815 7.49916 19.7353 7.5 20.0003C7.49916 20.2652 7.39353 20.5191 7.20617 20.7065C7.01882 20.8938 6.76496 20.9994 6.5 21.0003C6.23504 20.9994 5.98118 20.8938 5.79383 20.7065C5.60647 20.5191 5.50084 20.2652 5.5 20.0003ZM3 21.0003C2.86832 21.0016 2.7377 20.9766 2.61578 20.9268C2.49387 20.877 2.38311 20.8034 2.29 20.7103C2.20182 20.6129 2.13082 20.5013 2.08 20.3802C2.02875 20.26 2.00157 20.1309 2 20.0003C2.00346 19.7355 2.10708 19.4818 2.29 19.2903C2.48335 19.1118 2.73683 19.0127 2.99996 19.0127C3.26309 19.0127 3.51657 19.1118 3.70992 19.2903C3.89249 19.482 3.99607 19.7356 4 20.0003C3.99839 20.1309 3.97119 20.26 3.91992 20.3802C3.8691 20.5013 3.7981 20.6129 3.70992 20.7103C3.61671 20.8032 3.50595 20.8767 3.38407 20.9265C3.2622 20.9763 3.13165 21.0014 3 21.0003ZM3.75977 16.97C3.63236 16.9386 3.5124 16.8823 3.40676 16.8045C3.30111 16.7266 3.21186 16.6287 3.1441 16.5163C3.07634 16.4039 3.03141 16.2793 3.01188 16.1495C2.99235 16.0197 2.9986 15.8874 3.03027 15.76C3.06117 15.6323 3.1171 15.512 3.19481 15.406C3.27252 15.3001 3.37048 15.2106 3.48301 15.1427C3.59555 15.0749 3.72042 15.03 3.8504 15.0108C3.98039 14.9915 4.1129 14.9982 4.24027 15.0305C4.36763 15.0621 4.48753 15.1184 4.59312 15.1962C4.69872 15.2741 4.78793 15.372 4.85567 15.4844C4.92342 15.5968 4.96836 15.7214 4.98794 15.8511C5.00752 15.9809 5.00134 16.1132 4.96977 16.2405C4.91742 16.4579 4.79315 16.6513 4.61712 16.7892C4.44109 16.9271 4.22362 17.0015 4 17.0003C3.91897 17.0003 3.83826 16.9902 3.75977 16.97ZM4.75 12.97C4.62306 12.9382 4.50366 12.8816 4.39868 12.8035C4.2937 12.7254 4.20522 12.6273 4.13832 12.5148C4.07142 12.4023 4.02743 12.2777 4.00889 12.1482C3.99035 12.0187 3.99761 11.8867 4.03027 11.76C4.06171 11.6326 4.11797 11.5127 4.19583 11.407C4.27368 11.3014 4.3716 11.2121 4.48399 11.1444C4.59638 11.0766 4.72102 11.0317 4.8508 11.0121C4.98057 10.9926 5.11292 10.9988 5.24027 11.0305C5.36763 11.0621 5.48753 11.1184 5.59312 11.1962C5.69872 11.2741 5.78793 11.372 5.85567 11.4844C5.92342 11.5968 5.96836 11.7214 5.98794 11.8511C6.00751 11.9809 6.00134 12.1132 5.96977 12.2405C5.9161 12.4572 5.79147 12.6497 5.61573 12.7874C5.44 12.9251 5.22325 13 5 13.0003C4.91579 12.9998 4.83191 12.9896 4.75 12.97ZM5.75977 8.97002C5.63236 8.93858 5.5124 8.88232 5.40676 8.80447C5.30111 8.72661 5.21186 8.62869 5.1441 8.5163C5.07634 8.40391 5.03141 8.27927 5.01188 8.1495C4.99235 8.01972 4.9986 7.88738 5.03027 7.76002C5.06117 7.6323 5.1171 7.51198 5.19481 7.40602C5.27252 7.30007 5.37048 7.21058 5.48301 7.14273C5.59555 7.07488 5.72042 7.03003 5.8504 7.01077C5.98039 6.99151 6.1129 6.99823 6.24027 7.03052C6.36763 7.06205 6.48753 7.11837 6.59312 7.19624C6.69872 7.27412 6.78793 7.37204 6.85567 7.4844C6.92342 7.59677 6.96836 7.72138 6.98794 7.85111C7.00751 7.98085 7.00134 8.11317 6.96977 8.24052C6.91742 8.45793 6.79315 8.65128 6.61712 8.78919C6.44109 8.9271 6.22362 9.00149 6 9.00029C5.91897 9.00033 5.83826 8.99016 5.75977 8.97002ZM7 5.00029C6.86832 5.00157 6.73771 4.97658 6.61581 4.92678C6.4939 4.87698 6.38316 4.80337 6.29004 4.71025C6.19693 4.61714 6.12331 4.50639 6.07351 4.38448C6.02371 4.26258 5.99872 4.13197 6 4.00029C6.00346 3.73548 6.10708 3.4818 6.29 3.29029C6.48144 3.11189 6.7334 3.0127 6.99508 3.0127C7.25676 3.0127 7.50872 3.11189 7.70016 3.29029C7.88926 3.47854 7.99692 3.73348 8 4.00029C7.99818 4.26495 7.89224 4.51825 7.7051 4.70539C7.51795 4.89253 7.26466 4.99847 7 5.00029ZM10 5.00029C9.86832 5.00157 9.73771 4.97658 9.61581 4.92678C9.4939 4.87698 9.38316 4.80337 9.29004 4.71025C9.19693 4.61714 9.12331 4.50639 9.07351 4.38448C9.02371 4.26258 8.99872 4.13197 9 4.00029C9.00346 3.73548 9.10708 3.4818 9.29 3.29029C9.48335 3.11181 9.73683 3.0127 9.99996 3.0127C10.2631 3.0127 10.5166 3.11181 10.7099 3.29029C10.8925 3.48204 10.9961 3.73556 11 4.00029C11.0013 4.13197 10.9763 4.26258 10.9265 4.38448C10.8767 4.50639 10.8031 4.61714 10.71 4.71025C10.6168 4.80337 10.5061 4.87698 10.3842 4.92678C10.2623 4.97658 10.1317 5.00157 10 5.00029ZM9 16.0003C9.00084 15.7353 9.10647 15.4815 9.29383 15.2941C9.48118 15.1068 9.73504 15.0011 10 15.0003C10.265 15.0011 10.5188 15.1068 10.7062 15.2941C10.8935 15.4815 10.9992 15.7353 11 16.0003C10.9992 16.2652 10.8935 16.5191 10.7062 16.7065C10.5188 16.8938 10.265 16.9994 10 17.0003C9.73504 16.9994 9.48118 16.8938 9.29383 16.7065C9.10647 16.5191 9.00084 16.2652 9 16.0003ZM9 12.0003C9.00084 11.7353 9.10647 11.4815 9.29383 11.2941C9.48118 11.1068 9.73504 11.0011 10 11.0003C10.265 11.0011 10.5188 11.1068 10.7062 11.2941C10.8935 11.4815 10.9992 11.7353 11 12.0003C10.9992 12.2652 10.8935 12.5191 10.7062 12.7065C10.5188 12.8938 10.265 12.9994 10 13.0003C9.73504 12.9994 9.48118 12.8938 9.29383 12.7065C9.10647 12.5191 9.00084 12.2652 9 12.0003ZM9 8.00029C9.00084 7.73533 9.10647 7.48147 9.29383 7.29412C9.48118 7.10676 9.73504 7.00114 10 7.00029C10.265 7.00114 10.5188 7.10676 10.7062 7.29412C10.8935 7.48147 10.9992 7.73533 11 8.00029C10.9992 8.26525 10.8935 8.51911 10.7062 8.70647C10.5188 8.89382 10.265 8.99945 10 9.00029C9.73504 8.99945 9.48118 8.89382 9.29383 8.70647C9.10647 8.51911 9.00084 8.26525 9 8.00029Z" fill="#A2A1FF"/>
<path d="M14 20H21L17 4H14V20Z" fill="#6563FF"/>
<path d="M21 21H14C13.8687 21.0001 13.7386 20.9743 13.6172 20.924C13.4959 20.8738 13.3856 20.8001 13.2927 20.7073C13.1999 20.6144 13.1262 20.5041 13.076 20.3828C13.0257 20.2614 12.9999 20.1313 13 20V4C12.9999 3.86866 13.0257 3.73859 13.076 3.61723C13.1262 3.49587 13.1999 3.3856 13.2927 3.29273C13.3856 3.19985 13.4959 3.1262 13.6172 3.07597C13.7386 3.02574 13.8687 2.99993 14 3H17C17.223 3.00005 17.4396 3.07466 17.6153 3.21198C17.791 3.34929 17.9158 3.54143 17.9697 3.75781L21.9697 19.7578C22.0066 19.9052 22.0094 20.059 21.9778 20.2076C21.9463 20.3562 21.8814 20.4957 21.7879 20.6155C21.6944 20.7352 21.5749 20.8321 21.4384 20.8987C21.3018 20.9653 21.1519 21 21 21ZM15 19H19.7188L16.2188 5H15V19Z" fill="#6563FF"/>
</svg>
