<svg width="24" height="24" viewBox="0 0 24 24" fill="none" xmlns="http://www.w3.org/2000/svg">
<path d="M21 13H3C2.73478 13 2.48043 12.8946 2.29289 12.7071C2.10536 12.5196 2 12.2652 2 12C2 11.7348 2.10536 11.4804 2.29289 11.2929C2.48043 11.1054 2.73478 11 3 11H21C21.2652 11 21.5196 11.1054 21.7071 11.2929C21.8946 11.4804 22 11.7348 22 12C22 12.2652 21.8946 12.5196 21.7071 12.7071C21.5196 12.8946 21.2652 13 21 13Z" fill="#C1C0FF"/>
<path d="M12 21L17 16H7L12 21Z" fill="#6563FF"/>
<path d="M12 22C11.8687 22.0001 11.7386 21.9743 11.6173 21.9241C11.496 21.8738 11.3858 21.8 11.293 21.707L6.29304 16.707C6.15318 16.5672 6.05794 16.389 6.01934 16.195C5.98075 16.0011 6.00055 15.8 6.07622 15.6173C6.1519 15.4346 6.28006 15.2784 6.4445 15.1685C6.60894 15.0586 6.80227 15 7.00004 15H17C17.1978 15 17.3911 15.0586 17.5556 15.1685C17.72 15.2784 17.8482 15.4346 17.9238 15.6173C17.9995 15.8 18.0193 16.0011 17.9807 16.195C17.9421 16.389 17.8469 16.5672 17.707 16.707L12.707 21.707C12.6143 21.8 12.5041 21.8738 12.3828 21.9241C12.2614 21.9743 12.1314 22.0001 12 22ZM9.4141 17L12 19.5859L14.586 17H9.4141Z" fill="#6563FF"/>
<path d="M12 3.99954C11.8354 4.00109 11.673 3.96158 11.5275 3.8846C11.3819 3.80761 11.2579 3.69557 11.1665 3.55861C11.0752 3.42164 11.0194 3.26407 11.0042 3.10014C10.989 2.9362 11.015 2.77107 11.0796 2.61966C11.128 2.49719 11.1995 2.38512 11.29 2.28954C11.4305 2.15055 11.609 2.05638 11.8031 2.019C11.9971 1.98161 12.1979 2.00268 12.3799 2.07954C12.5023 2.1279 12.6143 2.19918 12.71 2.28954C12.8925 2.48129 12.9961 2.73481 13 2.99954C13.0035 3.13069 12.976 3.26081 12.92 3.37942C12.869 3.50044 12.798 3.61203 12.71 3.7095C12.6168 3.80255 12.5061 3.87612 12.3842 3.92591C12.2623 3.97571 12.1317 4.00074 12 3.99954ZM8.79005 6.20954C8.6026 6.02079 8.4974 5.76556 8.4974 5.49954C8.4974 5.23353 8.6026 4.9783 8.79005 4.78954C8.97869 4.6019 9.23394 4.49657 9.50001 4.49657C9.76608 4.49657 10.0213 4.6019 10.21 4.78954C10.3972 4.97841 10.5022 5.23358 10.5022 5.4995C10.5022 5.76543 10.3972 6.0206 10.21 6.20946C10.0196 6.39414 9.76519 6.49806 9.49997 6.49946C9.23474 6.49824 8.98031 6.39433 8.79005 6.20954ZM7.00005 8.99954C6.86837 9.00082 6.73776 8.97583 6.61585 8.92603C6.49395 8.87623 6.3832 8.80262 6.29009 8.7095C6.19697 8.61639 6.12336 8.50564 6.07356 8.38374C6.02376 8.26183 5.99877 8.13122 6.00005 7.99954C5.99889 7.80092 6.05691 7.60645 6.16671 7.44093C6.27652 7.27541 6.43312 7.14634 6.61657 7.07017C6.80001 6.99401 7.00198 6.97419 7.19673 7.01326C7.39148 7.05233 7.57018 7.14851 7.71005 7.28954C7.89259 7.4813 7.99613 7.73482 8.00005 7.99954C8.00133 8.13122 7.97634 8.26183 7.92653 8.38374C7.87673 8.50564 7.80312 8.61639 7.71001 8.7095C7.61689 8.80262 7.50614 8.87623 7.38424 8.92603C7.26234 8.97583 7.13172 9.00082 7.00005 8.99954ZM12.67 7.99954C12.6695 7.8681 12.6951 7.73786 12.7452 7.61633C12.7953 7.4948 12.8689 7.38439 12.9619 7.29144C13.0548 7.19849 13.1652 7.12485 13.2868 7.07475C13.4083 7.02466 13.5385 6.9991 13.67 6.99954C13.9349 7.00038 14.1888 7.10601 14.3761 7.29337C14.5635 7.48072 14.6691 7.73459 14.67 7.99954C14.6691 8.2645 14.5635 8.51837 14.3761 8.70572C14.1888 8.89308 13.9349 8.9987 13.67 8.99954C13.5385 8.99999 13.4083 8.97443 13.2868 8.92433C13.1652 8.87424 13.0548 8.80059 12.9619 8.70765C12.8689 8.6147 12.7953 8.50428 12.7452 8.38275C12.6951 8.26123 12.6695 8.13099 12.67 7.99954ZM9.32964 7.99954C9.33048 7.73459 9.43611 7.48072 9.62346 7.29337C9.81082 7.10602 10.0647 7.00039 10.3296 6.99954C10.4611 6.9991 10.5913 7.02466 10.7128 7.07475C10.8344 7.12485 10.9448 7.19849 11.0377 7.29144C11.1307 7.38439 11.2043 7.4948 11.2544 7.61633C11.3045 7.73786 11.3301 7.8681 11.3296 7.99954C11.3301 8.13099 11.3045 8.26123 11.2544 8.38275C11.2043 8.50428 11.1307 8.6147 11.0377 8.70765C10.9448 8.80059 10.8344 8.87424 10.7128 8.92433C10.5913 8.97443 10.4611 8.99999 10.3296 8.99954C10.0647 8.9987 9.81082 8.89307 9.62346 8.70572C9.43611 8.51836 9.33048 8.2645 9.32964 7.99954ZM17 8.99954C16.8684 9.00082 16.7378 8.97583 16.6159 8.92603C16.4939 8.87623 16.3832 8.80262 16.2901 8.7095C16.197 8.61639 16.1234 8.50564 16.0736 8.38374C16.0238 8.26183 15.9988 8.13122 16 7.99954C16 7.73433 16.1054 7.47997 16.2929 7.29244C16.4805 7.1049 16.7348 6.99954 17 6.99954C17.2653 6.99954 17.5196 7.1049 17.7072 7.29244C17.8947 7.47997 18 7.73433 18 7.99954C18.0013 8.13122 17.9763 8.26183 17.9265 8.38374C17.8767 8.50564 17.8031 8.61639 17.71 8.7095C17.6169 8.80262 17.5061 8.87623 17.3842 8.92603C17.2623 8.97583 17.1317 9.00082 17 8.99954ZM13.79 6.20954C13.6026 6.02079 13.4974 5.76558 13.4974 5.49958C13.4974 5.23358 13.6026 4.97838 13.79 4.78962C13.9787 4.60198 14.2339 4.49665 14.5 4.49665C14.7661 4.49665 15.0213 4.60198 15.21 4.78962C15.3972 4.97849 15.5022 5.23366 15.5022 5.49958C15.5022 5.76551 15.3972 6.02068 15.21 6.20954C15.0196 6.39422 14.7652 6.49814 14.5 6.49954C14.2347 6.49829 13.9803 6.39436 13.79 6.20954Z" fill="#A2A1FF"/>
</svg>
