<svg width="24" height="24" viewBox="0 0 24 24" fill="none" xmlns="http://www.w3.org/2000/svg">
<path d="M8.85435 21.5706C10.8952 22.2538 13.1029 22.254 15.1438 21.5713C14.8846 21.6546 14.6069 21.5119 14.5236 21.2527C14.5073 21.2019 14.4994 21.1489 14.5 21.0956C14.5 20.7581 14.5125 19.6831 14.5125 18.3456C14.5668 17.6602 14.3204 16.985 13.8375 16.4956C16.0625 16.2456 18.4 15.3956 18.4 11.5581C18.4164 10.5638 18.0494 9.60143 17.375 8.8706C17.6808 8.00682 17.645 7.05888 17.275 6.2206C17.275 6.2206 16.4375 5.9456 14.525 7.2456C12.8888 6.79556 11.1613 6.79556 9.52505 7.2456C7.61252 5.95812 6.77505 6.2206 6.77505 6.2206C6.40507 7.05888 6.3693 8.00682 6.67505 8.8706C6.00272 9.60267 5.63598 10.5642 5.65005 11.5581C5.65005 15.3831 7.97505 16.2456 10.2 16.4956C9.83236 16.8494 9.60579 17.3247 9.56253 17.8331C8.53271 18.4102 7.23004 18.0432 6.65295 17.0134C6.65198 17.0116 6.65101 17.0099 6.65004 17.0081C6.3354 16.4361 5.76153 16.0536 5.11251 15.9831C4.27504 15.9956 4.77504 16.4581 5.12502 16.6457C5.57627 17.0263 5.92807 17.5111 6.15004 18.0581C6.35004 18.6206 7.00004 19.6956 9.51253 19.2331C9.51253 20.0706 9.52503 20.8581 9.52503 21.0956C9.52503 21.3546 9.33964 21.6468 8.85435 21.5706Z" fill="#A2A1FF"/>
<path d="M12 2.08301C6.47717 2.08301 2 6.56018 2 12.083C2 16.506 4.87469 20.2517 8.85516 21.5708C9.33978 21.6464 9.52502 21.3546 9.52502 21.0958C9.52502 20.8583 9.51251 20.0708 9.51251 19.2333C7 19.6958 6.34998 18.6208 6.15002 18.0583C5.92804 17.5112 5.57623 17.0265 5.125 16.6458C4.77502 16.4583 4.27502 15.9958 5.11249 15.9833C5.76148 16.0537 6.33539 16.4363 6.65003 17.0083C6.65101 17.0101 6.65198 17.0118 6.65296 17.0135C7.23005 18.0433 8.53266 18.4103 9.56251 17.8332C9.60578 17.3249 9.83235 16.8495 10.2 16.4958C7.97504 16.2458 5.65003 15.3832 5.65003 11.5583C5.63593 10.5644 6.00269 9.60284 6.67499 8.87078C6.36926 8.00696 6.40503 7.05902 6.77502 6.22076C6.77502 6.22076 7.61248 5.95825 9.52502 7.24578C11.1613 6.79571 12.8887 6.79571 14.525 7.24578C16.4375 5.94573 17.275 6.22076 17.275 6.22076C17.645 7.05902 17.6807 8.00695 17.375 8.87078C18.0493 9.60161 18.4164 10.564 18.4 11.5583C18.4 15.3957 16.0625 16.2458 13.8375 16.4958C14.3204 16.9852 14.5668 17.6603 14.5125 18.3458C14.5125 19.6833 14.5 20.7583 14.5 21.0958C14.4993 21.149 14.5073 21.2021 14.5236 21.2528C14.6067 21.5116 14.8837 21.654 15.1426 21.5716C19.1243 20.2532 22 16.5068 22 12.083C22 6.56018 17.5228 2.08301 12 2.08301Z" fill="#6563FF"/>
</svg>
