<svg width="24" height="24" viewBox="0 0 24 24" fill="none" xmlns="http://www.w3.org/2000/svg">
<path d="M20.1156 5.9017C20.0343 5.79392 19.9476 5.69045 19.8556 5.5917C19.9481 5.34514 20.0184 5.09079 20.0656 4.8317C20.2049 3.8839 20.0839 2.91605 19.7156 2.0317C19.7156 2.0317 18.5956 1.6817 16.0256 3.4117C14.9345 3.11044 13.8075 2.95905 12.6756 2.9617C11.5404 2.95972 10.4102 3.11108 9.31556 3.4117C6.74556 1.6617 5.62556 2.0317 5.62556 2.0317C5.26166 2.90669 5.14074 3.8637 5.27556 4.8017C5.32301 5.07157 5.39669 5.33616 5.49556 5.5917C5.40556 5.6917 5.31556 5.8017 5.23556 5.9017C4.48932 6.83771 4.09321 8.00484 4.11556 9.2017C4.11319 9.48556 4.12654 9.76932 4.15556 10.0517C4.4755 14.4817 7.42556 15.5117 10.2356 15.8317C9.83782 16.2015 9.56813 16.6884 9.46556 17.2217C9.37261 17.5774 9.32887 17.9441 9.33556 18.3117V19.6213C8.21734 19.7206 7.06908 19.5579 6.71337 18.5599C6.33097 17.605 5.69703 16.7714 4.8789 16.1478C4.81944 16.1153 4.7629 16.0777 4.7099 16.0355C4.63805 15.8466 4.5107 15.6838 4.34459 15.5686C4.17848 15.4533 3.98139 15.3911 3.77924 15.39H3.77443C3.51003 15.3899 3.25636 15.4946 3.06894 15.6811C2.88152 15.8676 2.77563 16.1207 2.77443 16.3851C2.77053 17.1976 3.58352 17.722 3.91701 17.9008C4.30594 18.2926 4.61884 18.7532 4.83986 19.2592C5.20412 20.2826 6.26906 21.8373 9.30568 21.6352C9.30668 21.6703 9.30768 21.7035 9.30813 21.7338L9.31252 22.0014C9.31248 22.1327 9.33833 22.2627 9.38857 22.3841C9.43881 22.5054 9.51247 22.6157 9.60534 22.7085C9.6982 22.8014 9.80845 22.8751 9.92979 22.9253C10.0511 22.9756 10.1812 23.0014 10.3125 23.0014L10.3156 23.0008V23.0014H15.0267C15.1581 23.0014 15.2881 22.9756 15.4095 22.9253C15.5308 22.8751 15.6411 22.8014 15.7339 22.7086C15.8268 22.6157 15.9005 22.5055 15.9507 22.3841C16.0009 22.2628 16.0268 22.1327 16.0267 22.0014C16.0267 22.0014 16.0341 18.8417 16.0341 18.3118C16.0407 17.9442 15.997 17.5774 15.9041 17.2218L15.9022 17.2157L15.9056 17.2218C15.897 17.1868 15.8839 17.1582 15.8745 17.1243C15.7628 16.6289 15.5049 16.1786 15.134 15.8317L15.1456 15.8526C15.1388 15.8464 15.1324 15.8377 15.1255 15.8317C17.9355 15.5117 20.8655 14.4617 21.1855 10.0517C21.2146 9.76931 21.2279 9.48555 21.2255 9.20169C21.2432 8.00722 20.8515 6.84267 20.1156 5.9017Z" fill="#6563FF"/>
</svg>
