<svg width="24" height="24" viewBox="0 0 24 24" fill="none" xmlns="http://www.w3.org/2000/svg">
<path d="M9.81821 14.3133C9.67086 14.3505 9.52142 14.3788 9.37067 14.3981C9.26512 14.4142 9.1642 14.3489 9.13567 14.246L9.13686 13.2779C9.14252 13.1829 9.10426 13.0811 9.18034 12.9973C9.21651 12.9555 9.26478 12.926 9.31847 12.9129C9.49059 12.8815 9.65711 12.8247 9.81262 12.7445C10.0863 12.5864 10.2814 12.3211 10.3507 12.0128C10.3629 11.9627 10.3745 11.9122 10.3861 11.8619C9.70558 11.8606 9.02511 11.8595 8.34471 11.8586C8.28606 11.8605 8.22742 11.8544 8.17039 11.8406C7.99446 11.7938 7.86995 11.6372 7.86392 11.4553C7.86262 10.4263 7.86313 9.39732 7.86544 8.36829C7.83238 8.20878 7.8848 8.04356 8.00379 7.93229C8.07377 7.86796 8.165 7.83165 8.26005 7.83029C9.26065 7.83007 10.2613 7.82989 11.2618 7.82974C11.4917 7.83065 11.6773 8.0177 11.6763 8.24754C11.6762 8.28467 11.6711 8.32161 11.6611 8.35737C11.6768 8.40675 11.6825 8.45877 11.6778 8.51037C11.678 9.6316 11.6843 10.7533 11.6757 11.8745C11.6773 12.5917 11.3715 13.2751 10.8357 13.7518C10.8072 13.7782 10.7797 13.8057 10.7519 13.8327C10.4753 14.0528 10.158 14.2162 9.81814 14.3133L9.81821 14.3133ZM15.3538 14.2418L15.3157 14.2524L15.2941 14.2647C15.1008 14.3206 14.9041 14.3638 14.7052 14.394C14.5898 14.4237 14.4722 14.3542 14.4425 14.2387C14.4373 14.2186 14.4351 14.1978 14.4358 14.1771C14.4343 14.0697 14.4335 13.9621 14.4327 13.8546L14.4382 13.2773C14.4374 13.2349 14.4358 13.1927 14.4359 13.1504C14.4362 13.0026 14.493 12.9402 14.6768 12.8983C14.9108 12.8582 15.1298 12.7556 15.3104 12.6014C15.5159 12.4044 15.649 12.1438 15.6879 11.8617L13.8021 11.8581C13.7338 11.858 13.6653 11.859 13.5968 11.8578C13.3656 11.8655 13.1719 11.6844 13.1641 11.4531C13.1637 11.4414 13.1638 11.4297 13.1644 11.418C13.1647 10.4017 13.1655 9.38548 13.1668 8.36923L13.1651 8.33989C13.1321 8.16154 13.2134 7.98147 13.3689 7.88822C13.4327 7.84874 13.5065 7.82851 13.5815 7.82997C14.5755 7.82943 15.5695 7.82914 16.5634 7.8291C16.7933 7.83016 16.9788 8.01741 16.9778 8.24732C16.9776 8.28434 16.9725 8.32117 16.9626 8.35684C16.9782 8.40622 16.9838 8.45819 16.9791 8.50975C16.9791 9.63294 16.979 10.7562 16.9788 11.8794C16.9688 12.8958 16.3577 13.8097 15.4223 14.2073C15.3989 14.2173 15.3767 14.2302 15.3538 14.2418Z" fill="#A2A1FF"/>
<path d="M20.8656 9.05499V9.05505C20.5772 7.43011 19.8222 5.92425 18.6927 4.721C17.3097 3.23693 15.4447 2.29192 13.4301 2.05425C13.2689 2.04553 13.1083 2.0274 12.9492 2H11.8147C11.8025 2.02856 11.7762 2.01813 11.7553 2.02008C11.4631 2.04584 11.1724 2.0791 10.8841 2.13379C8.83537 2.49634 6.99229 3.60175 5.70768 5.2384C4.62327 6.58038 3.98081 8.22516 3.86839 9.94684C3.80455 10.7943 3.8668 11.6464 4.05314 12.4756C4.19084 13.0945 4.40037 13.6953 4.67741 14.2656C4.70189 14.3143 4.72599 14.3629 4.7509 14.4116C5.20091 15.3084 5.80443 16.1196 6.53404 16.8084C8.09324 18.2831 10.1511 19.116 12.2971 19.1408C12.3973 19.1422 12.4246 19.1669 12.4239 19.2692C12.4194 20.1428 12.4214 21.0165 12.4216 21.8902C12.4217 21.924 12.4243 21.9578 12.4263 22C12.4545 21.9885 12.4722 21.982 12.4892 21.9739C14.1263 21.216 15.6399 20.2162 16.9795 19.008C17.2466 18.7649 17.5029 18.5107 17.7484 18.2455C17.8538 18.1322 17.9582 18.0169 18.0637 17.9036C18.2267 17.7293 18.3678 17.5346 18.5215 17.351C18.6989 17.1393 18.8583 16.9142 19.0154 16.6878C19.3645 16.1892 19.6717 15.6625 19.934 15.1133C20.0659 14.8344 20.1915 14.5534 20.3027 14.2658C20.3069 14.2608 20.3106 14.2554 20.3138 14.2497C20.613 13.4643 20.8147 12.6451 20.9144 11.8106C20.9504 11.5194 20.9738 11.2262 20.9886 10.9334C21.0204 10.3046 20.9791 9.67426 20.8656 9.05499ZM11.6757 11.8744C11.6773 12.5916 11.3715 13.2751 10.8357 13.7518C10.8072 13.7781 10.7797 13.8057 10.7519 13.8326C10.4753 14.0528 10.158 14.2161 9.81815 14.3133L9.81821 14.3132C9.67087 14.3505 9.5214 14.3788 9.37064 14.3981C9.26511 14.4142 9.16416 14.3488 9.13565 14.2459L9.13687 13.2778C9.14249 13.1829 9.10422 13.081 9.18033 12.9972C9.21646 12.9554 9.26474 12.926 9.31845 12.9129C9.49057 12.8814 9.65707 12.8246 9.81259 12.7444C10.0863 12.5864 10.2813 12.321 10.3507 12.0127C10.3628 11.9626 10.3745 11.9122 10.3861 11.8619C9.70554 11.8605 9.02512 11.8594 8.3447 11.8585C8.28605 11.8604 8.22739 11.8544 8.17038 11.8405C7.99442 11.7937 7.8699 11.6372 7.86392 11.4552C7.86259 10.4263 7.86314 9.39728 7.86546 8.36823C7.83238 8.20874 7.88481 8.04352 8.00376 7.93225C8.07377 7.86792 8.16502 7.8316 8.26005 7.83026C9.26066 7.83002 10.2612 7.82983 11.2618 7.82971C11.4917 7.83063 11.6772 8.01764 11.6763 8.2475C11.6762 8.28461 11.6711 8.32154 11.6611 8.3573C11.6768 8.40668 11.6825 8.45874 11.6778 8.51032C11.678 9.63153 11.6842 10.7532 11.6757 11.8744ZM16.9788 11.8794C16.9687 12.8958 16.3577 13.8096 15.4223 14.2073C15.3989 14.2172 15.3766 14.2302 15.3538 14.2417L15.3157 14.2523L15.294 14.2646C15.1008 14.3205 14.9041 14.3638 14.7052 14.394C14.5898 14.4236 14.4721 14.3541 14.4425 14.2386C14.4373 14.2186 14.435 14.1978 14.4358 14.1771C14.4343 14.0696 14.4335 13.962 14.4327 13.8546L14.4382 13.2773C14.4374 13.2348 14.4358 13.1926 14.4359 13.1503C14.4361 13.0026 14.493 12.9402 14.6767 12.8982C14.9108 12.8581 15.1297 12.7555 15.3103 12.6013C15.5159 12.4043 15.649 12.1437 15.6879 11.8616L13.8021 11.8581C13.7337 11.858 13.6653 11.8589 13.5968 11.8577C13.3656 11.8655 13.1718 11.6843 13.1641 11.453C13.1637 11.4413 13.1638 11.4296 13.1644 11.4179C13.1647 10.4016 13.1655 9.38542 13.1668 8.36918L13.165 8.33982C13.1321 8.16148 13.2134 7.98142 13.3689 7.88816C13.4327 7.84867 13.5065 7.82847 13.5815 7.82987C14.5755 7.82938 15.5695 7.82908 16.5634 7.82902C16.7933 7.83012 16.9789 8.01731 16.9778 8.24723C16.9776 8.28428 16.9725 8.32108 16.9626 8.35679C16.9781 8.40617 16.9837 8.45811 16.9791 8.50968C16.9791 9.63287 16.979 10.7561 16.9788 11.8794Z" fill="#6563FF"/>
</svg>
