<svg width="24" height="24" viewBox="0 0 24 24" fill="none" xmlns="http://www.w3.org/2000/svg">
<path d="M12 22.9995C11.7349 22.9993 11.4807 22.8938 11.2932 22.7064C11.1057 22.5189 11.0002 22.2647 11 21.9995V20.523C9.04853 20.3347 7.19773 19.568 5.68487 18.321C4.17201 17.074 3.06603 15.4036 2.50871 13.524C1.95139 11.6443 1.96813 9.64105 2.55678 7.77097C3.14543 5.90089 4.27916 4.24922 5.81264 3.02769C7.34613 1.80616 9.20948 1.07044 11.1638 0.914842C13.1182 0.759242 15.0745 1.19085 16.7819 2.15435C18.4894 3.11784 19.8702 4.56931 20.7473 6.32269C21.6245 8.07607 21.958 10.0515 21.7051 11.9956C21.4585 14.5801 20.4153 17.0242 18.7196 18.9901C17.024 20.9561 14.7595 22.3469 12.2393 22.9702C12.161 22.9896 12.0807 22.9995 12 22.9995Z" fill="#A2A1FF"/>
<path d="M9 11.6885C8.46957 11.6885 7.96086 11.4778 7.58579 11.1027C7.21071 10.7276 7 10.2189 7 9.68848C7 9.15804 7.21071 8.64934 7.58579 8.27426C7.96086 7.89919 8.46957 7.68848 9 7.68848C9.53043 7.68848 10.0391 7.89919 10.4142 8.27426C10.7893 8.64934 11 9.15804 11 9.68848C11 10.2189 10.7893 10.7276 10.4142 11.1027C10.0391 11.4778 9.53043 11.6885 9 11.6885Z" fill="#6563FF"/>
<path d="M8.51465 14.6882C8.24943 14.6882 7.99508 14.5828 7.80754 14.3953C7.62001 14.2077 7.51465 13.9534 7.51465 13.6882C7.51465 13.423 7.62001 13.1686 7.80754 12.9811C7.99508 12.7935 8.24943 12.6882 8.51465 12.6882C8.64718 12.6879 8.7742 12.6351 8.86791 12.5414C8.96162 12.4477 9.01438 12.3207 9.01465 12.1882V9.68818C9.01465 9.42296 9.12001 9.16861 9.30754 8.98107C9.49508 8.79353 9.74943 8.68818 10.0146 8.68818C10.2799 8.68818 10.5342 8.79353 10.7218 8.98107C10.9093 9.16861 11.0146 9.42296 11.0146 9.68818V12.1882C11.014 12.851 10.7504 13.4866 10.2817 13.9553C9.81303 14.424 9.1775 14.6876 8.51465 14.6882ZM15 11.6885C14.4696 11.6885 13.9609 11.4778 13.5858 11.1027C13.2107 10.7276 13 10.2189 13 9.68848C13 9.15804 13.2107 8.64934 13.5858 8.27426C13.9609 7.89919 14.4696 7.68848 15 7.68848C15.5304 7.68848 16.0391 7.89919 16.4142 8.27426C16.7893 8.64934 17 9.15804 17 9.68848C17 10.2189 16.7893 10.7276 16.4142 11.1027C16.0391 11.4778 15.5304 11.6885 15 11.6885Z" fill="#6563FF"/>
<path d="M14.5146 14.6885C14.2494 14.6885 13.9951 14.5831 13.8075 14.3956C13.62 14.208 13.5146 13.9537 13.5146 13.6885C13.5146 13.4233 13.62 13.1689 13.8075 12.9814C13.9951 12.7938 14.2494 12.6885 14.5146 12.6885C14.6472 12.6882 14.7742 12.6354 14.8679 12.5417C14.9616 12.448 15.0144 12.321 15.0146 12.1885V9.68848C15.0146 9.42326 15.12 9.16891 15.3075 8.98137C15.4951 8.79383 15.7494 8.68848 16.0146 8.68848C16.2799 8.68848 16.5342 8.79383 16.7218 8.98137C16.9093 9.16891 17.0146 9.42326 17.0146 9.68848V12.1885C17.014 12.8513 16.7504 13.4869 16.2817 13.9556C15.813 14.4243 15.1775 14.6879 14.5146 14.6885Z" fill="#6563FF"/>
</svg>
