<svg width="24" height="24" viewBox="0 0 24 24" fill="none" xmlns="http://www.w3.org/2000/svg">
<path d="M14.556 12.8952L17.1285 15.4492L20.914 13.2627C21.4203 13.0095 21.7445 12.4966 21.7558 11.9307C21.7354 11.3834 21.413 10.8926 20.9189 10.6563C20.6045 10.4864 17.9082 8.92192 16.8965 8.33305L16.8935 8.33105L4.63867 1.25582C4.13772 0.938756 3.50485 0.915996 2.98242 1.19625C2.93255 1.23014 2.88489 1.26716 2.83972 1.30709L14.556 12.8952Z" fill="#A2A1FF"/>
<path d="M20.9191 10.6565C20.6248 10.4976 18.2617 9.12695 17.1281 8.46777L14.5314 11.0457L2.7854 22.6987C2.83339 22.7425 2.88458 22.7825 2.93854 22.8186C3.14746 22.9383 3.3843 23.0006 3.62506 22.9992C3.9173 22.9956 4.20349 22.9155 4.45514 22.7668C4.84381 22.5412 16.8936 15.5852 16.8936 15.5852L20.9141 13.263C21.4204 13.0098 21.7445 12.4969 21.7559 11.931C21.7355 11.3837 21.4132 10.8928 20.9191 10.6565Z" fill="#8382FF"/>
<path d="M13.6099 11.9593L2.84138 1.30859C2.45594 1.60693 2.22432 2.06591 2.24409 2.5603V21.5457C2.23115 21.998 2.44062 22.4169 2.787 22.6966L13.6099 11.9593Z" fill="#C1C0FF"/>
<path d="M20.919 10.6565C20.1747 10.2557 17.5489 8.71264 17.128 8.46777L14.5314 11.0457L13.61 11.9597L14.5561 12.8955L17.1286 15.4495L20.9141 13.263C21.4204 13.0098 21.7445 12.4969 21.7559 11.931C21.7355 11.3836 21.4131 10.8928 20.919 10.6565Z" fill="#6563FF"/>
</svg>
