<svg width="24" height="24" viewBox="0 0 24 24" fill="none" xmlns="http://www.w3.org/2000/svg">
<path d="M22 6H2V3C2 2.44772 2.44772 2 3 2H21C21.5523 2 22 2.44772 22 3V6Z" fill="#6563FF"/>
<path d="M11 8H2V14H11V8Z" fill="#A2A1FF"/>
<path d="M2 16H11V22H3C2.44772 22 2 21.5523 2 21V16Z" fill="#A2A1FF"/>
<path d="M22 8H13V14H22V8Z" fill="#A2A1FF"/>
<path d="M21 22H13V16H22V21C22 21.5523 21.5523 22 21 22Z" fill="#A2A1FF"/>
<path d="M22 8V6H2V8H11V14H2V16H11V22H13V16H22V14H13V8H22Z" fill="#C1C0FF"/>
</svg>
