<svg width="24" height="24" viewBox="0 0 24 24" fill="none" xmlns="http://www.w3.org/2000/svg">
<path d="M20.4763 9.28711L12.3373 12.0001H4.49988C4.33855 12.0001 4.17961 12.0391 4.03662 12.1138C3.89362 12.1885 3.77083 12.2967 3.67873 12.4291C3.58662 12.5616 3.52793 12.7143 3.50767 12.8744C3.48741 13.0344 3.50618 13.197 3.56238 13.3482L5.00965 17.2428C5.02234 17.277 5.03699 17.3097 5.05265 17.3419C5.3004 17.8414 5.68312 18.2615 6.15743 18.5546C6.63174 18.8476 7.17867 19.002 7.73621 19.0001H12.4968L12.4999 19.0006C12.6085 19.0005 12.7164 18.9827 12.8192 18.9479L18.6838 16.9699L19.2996 14.6512L13.4999 16.6074V13.721L20.1339 11.5096L20.4667 10.2565C20.4885 10.1727 20.4996 10.0866 20.4999 10.0001V9.77257C20.4999 9.60894 20.4862 9.44847 20.4763 9.28711Z" fill="#6563FF"/>
<path d="M3.50771 12.8939C3.50661 12.904 3.50832 12.9136 3.50753 12.9236C3.50832 12.9137 3.50667 12.9038 3.50771 12.8939ZM3.67873 12.4294C3.7709 12.2969 3.89372 12.1888 4.03672 12.114C4.17972 12.0393 4.33867 12.0002 4.50002 12.0002H12.3374L20.4764 9.28717C20.3823 7.39229 19.5898 5.59939 18.2517 4.25438C16.9136 2.90937 15.1249 2.10754 13.2305 2.0036C12.2253 1.96452 11.2228 2.13193 10.2849 2.49549C9.347 2.85905 8.49358 3.41104 7.77736 4.11736C7.05831 4.81038 6.48611 5.64105 6.09486 6.55986C5.70361 7.47868 5.50131 8.46685 5.50002 9.4655L3.64846 12.4762C3.64296 12.4852 3.64388 12.4962 3.63869 12.5053C3.65302 12.4803 3.66219 12.4532 3.67873 12.4294Z" fill="#A2A1FF"/>
<path d="M13.5 13.7209V16.6069L19.3 14.6509L20.467 10.2559L20.134 11.5099L13.5 13.7209Z" fill="#A2A1FF"/>
<path d="M18.5371 17.5228L18.7374 16.7686L18.6839 16.9701L12.8193 18.9481C12.7165 18.9829 12.6086 19.0007 12.5 19.0008L12.4969 19.0004H8.5V21.0004C8.49997 21.1317 8.52581 21.2617 8.57605 21.3831C8.62629 21.5044 8.69995 21.6147 8.79282 21.7075C8.88568 21.8004 8.99594 21.8741 9.11728 21.9243C9.23862 21.9746 9.36867 22.0004 9.5 22.0004H18.5C18.655 22.0003 18.8078 21.9642 18.9465 21.8949C19.0851 21.8256 19.2058 21.7251 19.2989 21.6013C19.3921 21.4774 19.4552 21.3336 19.4834 21.1812C19.5115 21.0288 19.5038 20.872 19.4609 20.723L18.5371 17.5228Z" fill="#A2A1FF"/>
</svg>
