<svg width="24" height="24" viewBox="0 0 24 24" fill="none" xmlns="http://www.w3.org/2000/svg">
<path d="M6 17.999C6.55228 17.999 7 17.5513 7 16.999C7 16.4467 6.55228 15.999 6 15.999C5.44772 15.999 5 16.4467 5 16.999C5 17.5513 5.44772 17.999 6 17.999Z" fill="#6563FF"/>
<path d="M2 19C2.55228 19 3 18.5523 3 18C3 17.4477 2.55228 17 2 17C1.44772 17 1 17.4477 1 18C1 18.5523 1.44772 19 2 19Z" fill="#6563FF"/>
<path d="M5 22C5.55228 22 6 21.5523 6 21C6 20.4477 5.55228 20 5 20C4.44772 20 4 20.4477 4 21C4 21.5523 4.44772 22 5 22Z" fill="#6563FF"/>
<path d="M21.1299 20.9999H12.667C12.5357 21 12.4057 20.9741 12.2843 20.9239C12.163 20.8736 12.0527 20.8 11.9599 20.7071C11.867 20.6142 11.7933 20.504 11.7431 20.3826C11.6928 20.2613 11.667 20.1313 11.667 19.9999V17.9999H10.7998C10.2872 17.9994 9.79565 17.7955 9.43314 17.433C9.07063 17.0705 8.86675 16.579 8.86624 16.0663V14.2665H8.00003C7.83152 14.2666 7.66571 14.2241 7.51803 14.1429C7.37035 14.0618 7.2456 13.9446 7.15536 13.8023C7.06512 13.6599 7.01234 13.4971 7.00191 13.3289C6.99149 13.1607 7.02376 12.9926 7.09573 12.8403L8.86624 9.08192V9.06633C8.86637 8.12006 9.05652 7.18346 9.42543 6.31206C9.79433 5.44067 10.3345 4.65223 11.0138 3.99352C11.6932 3.3348 12.4979 2.81922 13.3802 2.47735C14.2626 2.13548 15.2046 1.97429 16.1504 2.00333C18.0146 2.1069 19.767 2.92542 21.0429 4.28852C22.3188 5.65162 23.0198 7.45426 23 9.32121V9.53312C22.9998 9.61962 22.9886 9.70575 22.9668 9.78947L21.1709 16.5571L22.0899 19.7206C22.1333 19.8696 22.1415 20.0267 22.1137 20.1794C22.086 20.3321 22.023 20.4762 21.9298 20.6004C21.8367 20.7245 21.7159 20.8253 21.577 20.8946C21.4382 20.964 21.2851 21 21.1299 20.9999H21.1299Z" fill="#A2A1FF"/>
</svg>
