<svg width="24" height="24" viewBox="0 0 24 24" fill="none" xmlns="http://www.w3.org/2000/svg">
<path d="M18.5 22.0001H9.50003C9.3687 22.0001 9.23865 21.9743 9.1173 21.924C8.99596 21.8738 8.88571 21.8001 8.79284 21.7073C8.69998 21.6144 8.62632 21.5042 8.57608 21.3828C8.52584 21.2615 8.49999 21.1314 8.50003 21.0001V19.0001H7.50003C6.96978 18.9995 6.46142 18.7886 6.08648 18.4136C5.71154 18.0387 5.50063 17.5303 5.50003 17.0001V15.0001H4.50003C4.33151 15.0002 4.16571 14.9577 4.01803 14.8765C3.87035 14.7953 3.7456 14.6781 3.65536 14.5358C3.56513 14.3935 3.51234 14.2307 3.50191 14.0625C3.49149 13.8943 3.52376 13.7262 3.59573 13.5738L5.50003 9.53036V9.50009C5.49661 8.4956 5.69663 7.50081 6.08802 6.5757C6.47941 5.6506 7.05408 4.81432 7.77737 4.11728C8.49379 3.41124 9.34725 2.85944 10.2851 2.49589C11.223 2.13235 12.2254 1.96478 13.2305 2.00351C15.2093 2.1137 17.0694 2.98284 18.4235 4.42999C19.7776 5.87714 20.5214 7.79079 20.5 9.77255V10.0001C20.4998 10.0866 20.4886 10.1727 20.4668 10.2564L18.5371 17.5225L19.461 20.7227C19.5038 20.8717 19.5115 21.0285 19.4834 21.181C19.4553 21.3334 19.3921 21.4772 19.299 21.601C19.2058 21.7249 19.0851 21.8254 18.9465 21.8946C18.8078 21.9639 18.655 22 18.5 22.0001Z" fill="#A2A1FF"/>
</svg>
