<svg width="24" height="24" viewBox="0 0 24 24" fill="none" xmlns="http://www.w3.org/2000/svg">
<path d="M12 18C11.3078 18 10.6311 17.7947 10.0555 17.4101C9.47993 17.0256 9.03133 16.4789 8.76642 15.8394C8.50152 15.1999 8.4322 14.4961 8.56725 13.8172C8.7023 13.1383 9.03564 12.5146 9.52513 12.0251C10.0146 11.5356 10.6383 11.2023 11.3172 11.0673C11.9961 10.9322 12.6999 11.0015 13.3394 11.2664C13.9789 11.5313 14.5256 11.9799 14.9101 12.5555C15.2947 13.1311 15.5 13.8078 15.5 14.5C15.4989 15.4279 15.1298 16.3175 14.4736 16.9736C13.8175 17.6298 12.9279 17.9989 12 18Z" fill="#A2A1FF"/>
<path d="M14.6403 16.7715C14.3162 17.1562 13.912 17.4655 13.456 17.6776C12.9999 17.8898 12.503 17.9997 12 17.9997C11.497 17.9997 11.0001 17.8898 10.544 17.6776C10.088 17.4655 9.68377 17.1562 9.35974 16.7715C8.63973 17.2179 8.04527 17.8403 7.63242 18.5801C7.21957 19.3198 7.00192 20.1525 7 20.9997C6.99997 21.131 7.02581 21.2611 7.07605 21.3824C7.12629 21.5038 7.19995 21.614 7.29282 21.7069C7.38568 21.7997 7.49594 21.8734 7.61728 21.9236C7.73862 21.9739 7.86867 21.9997 8 21.9997H16C16.1313 21.9997 16.2614 21.9739 16.3827 21.9236C16.5041 21.8734 16.6143 21.7997 16.7072 21.7069C16.8 21.614 16.8737 21.5038 16.9239 21.3824C16.9742 21.2611 17 21.131 17 20.9997C16.9981 20.1525 16.7804 19.3198 16.3676 18.5801C15.9547 17.8403 15.3603 17.2179 14.6403 16.7715Z" fill="#6563FF"/>
<path d="M21 12.0002C20.7552 12.0006 20.5187 11.9108 20.336 11.7478L12 4.33813L3.66409 11.7478C3.46583 11.9239 3.20572 12.0141 2.94099 11.9984C2.67626 11.9827 2.42859 11.8626 2.25247 11.6643C2.07635 11.466 1.98621 11.2059 2.00187 10.9412C2.01753 10.6765 2.13771 10.4288 2.33597 10.2527L11.336 2.25268C11.5189 2.08992 11.7552 2 12 2C12.2449 2 12.4812 2.08992 12.6641 2.25268L21.6641 10.2527C21.8157 10.3874 21.9228 10.565 21.9711 10.7619C22.0194 10.9589 22.0067 11.1659 21.9347 11.3555C21.8627 11.545 21.7347 11.7082 21.5678 11.8234C21.4008 11.9385 21.2028 12.0002 21 12.0002Z" fill="#A2A1FF"/>
<path d="M12 4.33789L4 11.449V21C3.99997 21.1313 4.02581 21.2614 4.07605 21.3827C4.12629 21.5041 4.19995 21.6143 4.29282 21.7072C4.38568 21.8 4.49594 21.8737 4.61728 21.9239C4.73862 21.9742 4.86867 22 5 22H8C7.86867 22 7.73862 21.9742 7.61728 21.9239C7.49594 21.8737 7.38568 21.8 7.29282 21.7072C7.19995 21.6143 7.12629 21.5041 7.07605 21.3827C7.02581 21.2614 6.99997 21.1313 7 21C7.00192 20.1528 7.21957 19.3201 7.63242 18.5804C8.04527 17.8406 8.63973 17.2182 9.35974 16.7718L9.3598 16.7719C8.80875 16.1429 8.50342 15.3362 8.5 14.5C8.5 13.5717 8.86875 12.6815 9.52513 12.0251C10.1815 11.3687 11.0717 11 12 11C12.9283 11 13.8185 11.3687 14.4749 12.0251C15.1313 12.6815 15.5 13.5717 15.5 14.5C15.4966 15.3362 15.1912 16.1429 14.6402 16.7719L14.6403 16.7718C15.3603 17.2182 15.9547 17.8406 16.3676 18.5804C16.7804 19.3201 16.9981 20.1528 17 21C17 21.1313 16.9742 21.2614 16.9239 21.3827C16.8737 21.5041 16.8 21.6143 16.7072 21.7072C16.6143 21.8 16.5041 21.8737 16.3827 21.9239C16.2614 21.9742 16.1313 22 16 22H19C19.1313 22 19.2614 21.9742 19.3827 21.9239C19.5041 21.8737 19.6143 21.8 19.7072 21.7072C19.8 21.6143 19.8737 21.5041 19.9239 21.3827C19.9742 21.2614 20 21.1313 20 21V11.449L12 4.33789Z" fill="#C1C0FF"/>
</svg>
