<svg width="24" height="24" viewBox="0 0 24 24" fill="none" xmlns="http://www.w3.org/2000/svg">
<path d="M21.4678 2.3252C21.3741 2.22276 21.2602 2.14094 21.1331 2.08496C21.0061 2.02897 20.8688 2.00004 20.73 2H3.27003C3.13123 2.00005 2.99396 2.02899 2.86695 2.08497C2.73994 2.14095 2.62597 2.22274 2.53228 2.32515C2.43859 2.42757 2.36724 2.54835 2.32277 2.67984C2.27829 2.81132 2.26166 2.95061 2.27394 3.08887L3.79394 20.0889C3.81197 20.2914 3.89137 20.4837 4.02155 20.64C4.15172 20.7962 4.32646 20.909 4.52245 20.9634L11.7227 22.9634C11.8098 22.9877 11.8998 23 11.9903 23C12.0805 22.9999 12.1703 22.9878 12.2574 22.9639L19.4771 20.9639C19.6732 20.9095 19.848 20.7965 19.9782 20.6402C20.1085 20.4839 20.188 20.2915 20.2061 20.0889L21.7261 3.08887C21.7384 2.95062 21.7218 2.81133 21.6773 2.67986C21.6328 2.54838 21.5615 2.4276 21.4678 2.3252Z" fill="#6563FF"/>
<path d="M7.81986 13H14.7149L14.3877 16.271L11.8198 17.188L8.65629 16.0581C8.53256 16.0137 8.40129 15.9942 8.27 16.0006C8.13871 16.007 8.00997 16.0392 7.89114 16.0954C7.77231 16.1516 7.66573 16.2307 7.57748 16.3281C7.48923 16.4255 7.42105 16.5394 7.37683 16.6632C7.33262 16.787 7.31324 16.9182 7.3198 17.0495C7.32636 17.1808 7.35874 17.3095 7.41508 17.4283C7.47141 17.547 7.55061 17.6535 7.64814 17.7417C7.74566 17.8298 7.8596 17.8978 7.98344 17.9419L11.4834 19.1919C11.701 19.2694 11.9387 19.2694 12.1563 19.1919L15.6563 17.9419C15.8345 17.8782 15.991 17.7652 16.1076 17.6161C16.2242 17.467 16.2961 17.2879 16.315 17.0996L16.815 12.0996C16.8288 11.9606 16.8134 11.8202 16.7696 11.6875C16.7259 11.5549 16.6549 11.4328 16.5612 11.3292C16.4674 11.2256 16.3531 11.1428 16.2254 11.0861C16.0977 11.0294 15.9596 11.0001 15.8199 11H8.72465L8.42484 8H16.3198C16.5851 8 16.8394 7.89464 17.0269 7.70711C17.2145 7.51957 17.3198 7.26522 17.3198 7C17.3198 6.73478 17.2145 6.48043 17.0269 6.29289C16.8394 6.10536 16.5851 6 16.3198 6H7.31984C7.18014 6.00009 7.04201 6.02943 6.91433 6.08613C6.78666 6.14283 6.67227 6.22563 6.57853 6.32921C6.48479 6.4328 6.41378 6.55486 6.37007 6.68754C6.32636 6.82023 6.31091 6.9606 6.32473 7.09961L6.82473 12.0996C6.84946 12.3464 6.96497 12.5751 7.14886 12.7415C7.33274 12.9079 7.57188 13 7.81986 13Z" fill="#C1C0FF"/>
</svg>
