<svg width="24" height="24" viewBox="0 0 24 24" fill="none" xmlns="http://www.w3.org/2000/svg">
<path d="M17.476 6.12284L16.942 12.1168L16.944 12.1498L16.942 12.2238V12.2228L16.562 16.4148L16.521 16.7868L12 18.0368V18.0378L11.996 18.0408L7.48399 16.7828L7.17799 13.3178H9.39099L9.54799 15.0798L12.001 15.7448L12 15.7458L14.461 15.0708L14.722 12.2018H9.57599L9.53198 11.7168L9.43098 10.5808L9.37898 9.96984H14.917L15.119 7.73884H6.68199L6.63799 7.25384L6.53799 6.11684L6.48499 5.50684H17.529L17.476 6.12284Z" fill="#A2A1FF"/>
<path d="M3.19507 2L4.79706 19.994L11.9891 22L19.201 19.987L20.805 2H3.19507ZM17.4761 6.12299L16.9421 12.117L16.9441 12.15L16.9421 12.224V12.223L16.5621 16.415L16.5211 16.787L12.0001 18.037V18.038L11.996 18.041L7.48407 16.783L7.17804 13.318H9.39105L9.54803 15.08L12.001 15.745L12.0001 15.746L14.4611 15.071L14.722 12.202H9.57605L9.53204 11.717L9.43109 10.581L9.37909 9.96996H14.917L15.1191 7.739H6.68207L6.63806 7.25403L6.53808 6.117L6.48505 5.50702H17.5291L17.4761 6.12299Z" fill="#6563FF"/>
</svg>
