<svg width="24" height="24" viewBox="0 0 24 24" fill="none" xmlns="http://www.w3.org/2000/svg">
<path d="M3.1825 2L4.78741 20.0007L11.9892 22L19.2109 19.9979L20.8175 2H3.1825ZM17.3251 7.88728H8.87682L9.07862 10.148H17.1242L16.5183 16.926L12 18.1782V18.1786L11.9899 18.1814L7.46747 16.9261L7.15821 13.4596H9.37441L9.5316 15.2204L11.9903 15.8843L11.9923 15.8837V15.8836L14.4546 15.219L14.711 12.3557H7.05953L6.46408 5.67957H17.5227L17.3251 7.88728Z" fill="#6563FF"/>
<path d="M17.3251 7.8874H8.87685L9.07864 10.1481H17.1242L16.5183 16.9261L12 18.1784V18.1788L11.9899 18.1815L7.4675 16.9262L7.15824 13.4597H9.37444L9.53162 15.2205L11.9904 15.8844L11.9924 15.8838V15.8837L14.4547 15.2191L14.711 12.3559H7.05956L6.46411 5.67969H17.5228L17.3251 7.8874Z" fill="#C1C0FF"/>
</svg>
