<svg width="24" height="24" viewBox="0 0 24 24" fill="none" xmlns="http://www.w3.org/2000/svg">
<path d="M11.9902 22C11.8994 21.9999 11.8091 21.9874 11.7216 21.9629L5.24896 20.1582C5.05329 20.1036 4.87887 19.9908 4.74891 19.8347C4.61894 19.6785 4.5396 19.4865 4.52142 19.2842L3.07906 3.08887C3.06667 2.95059 3.08322 2.81124 3.12765 2.67971C3.17208 2.54818 3.24343 2.42734 3.33714 2.32491C3.43085 2.22247 3.54487 2.14067 3.67194 2.08473C3.799 2.0288 3.93633 1.99994 4.07516 2H19.9248C20.0636 1.99994 20.2009 2.0288 20.328 2.08473C20.4551 2.14067 20.5691 2.22247 20.6628 2.32491C20.7565 2.42734 20.8278 2.54818 20.8723 2.67971C20.9167 2.81124 20.9333 2.95059 20.9209 3.08887L19.4775 19.2773C19.4595 19.4797 19.3802 19.6718 19.2502 19.828C19.1202 19.9841 18.9457 20.0969 18.75 20.1513L12.2588 21.9629C12.1713 21.9874 12.081 21.9999 11.9902 22Z" fill="#A2A1FF"/>
<path d="M16.7773 6.3252C16.6837 6.2228 16.5698 6.14101 16.4428 6.08502C16.3159 6.02903 16.1787 6.00008 16.04 6H7.95996C7.69474 6 7.44039 6.10536 7.25285 6.29289C7.06532 6.48043 6.95996 6.73478 6.95996 7C6.95996 7.26522 7.06532 7.51957 7.25285 7.70711C7.44039 7.89464 7.69474 8 7.95996 8H14.9473L14.7698 10H9.99996C9.73474 10 9.48039 10.1054 9.29285 10.2929C9.10532 10.4804 8.99996 10.7348 8.99996 11C8.99996 11.2652 9.10532 11.5196 9.29285 11.7071C9.48039 11.8946 9.73474 12 9.99996 12H14.5923L14.3281 14.9766L12 15.5049L9.67184 14.9756L9.57613 13.9111C9.55256 13.6469 9.42501 13.403 9.22154 13.2328C9.01807 13.0627 8.75535 12.9803 8.49117 13.0039C8.22699 13.0275 7.98299 13.155 7.81285 13.3585C7.64271 13.562 7.56037 13.8247 7.58394 14.0889L7.7441 15.8789C7.76301 16.0895 7.84813 16.2888 7.98724 16.448C8.12636 16.6073 8.31233 16.7185 8.51851 16.7656L11.7783 17.5058C11.9243 17.5384 12.0756 17.5384 12.2216 17.5058L15.4814 16.7656C15.6876 16.7185 15.8736 16.6074 16.0127 16.4481C16.1518 16.2888 16.2369 16.0895 16.2558 15.8789L17.0361 7.08887C17.0483 6.95059 17.0315 6.81129 16.987 6.67983C16.9424 6.54836 16.871 6.42759 16.7773 6.3252Z" fill="#6563FF"/>
</svg>
