<svg width="24" height="24" viewBox="0 0 24 24" fill="none" xmlns="http://www.w3.org/2000/svg">
<path d="M19.3334 12.9964C19.3294 13.3646 19.0276 13.6598 18.6594 13.6558C18.2969 13.6518 18.004 13.3589 18 12.9964V7.00043C18.004 6.63223 18.3058 6.337 18.674 6.34102C19.0365 6.34497 19.3294 6.6379 19.3334 7.00043V12.9964ZM19.1007 17.1693C17.0436 18.6664 14.5424 19.4274 12 19.3298C9.4577 19.4274 6.95653 18.6663 4.89948 17.1692C4.61956 16.93 4.58656 16.5091 4.82577 16.2292C5.06498 15.9493 5.48581 15.9163 5.76573 16.1555C7.58847 17.4306 9.77712 18.0768 12.0001 17.9964C14.2235 18.0864 16.4145 17.4398 18.2328 16.1569C18.5123 15.9172 18.9332 15.9495 19.1729 16.2291C19.4126 16.5086 19.3803 16.9296 19.1008 17.1693H19.1007ZM4.66667 7.00043C4.6707 6.63223 4.97244 6.33701 5.34064 6.34104C5.70316 6.34501 5.99607 6.63792 6.00003 7.00043V12.9964C5.99599 13.3646 5.69423 13.6598 5.32604 13.6557C4.96354 13.6518 4.67065 13.3589 4.66667 12.9964V7.00043ZM8.00011 5.66707C8.00582 5.29889 8.30891 5.00506 8.67709 5.01077C9.03722 5.01636 9.3278 5.30694 9.33338 5.66707V14.5734C9.32767 14.9416 9.02459 15.2354 8.65641 15.2297C8.29628 15.2241 8.0057 14.9335 8.00011 14.5734V5.66707ZM11.3334 5.32973C11.3333 4.9616 11.6317 4.66314 11.9998 4.66309C11.9999 4.66309 11.9999 4.66309 11.9999 4.66309H12C12.3682 4.663 12.6667 4.96136 12.6667 5.32949V14.9964C12.6627 15.3646 12.3609 15.6598 11.9928 15.6557C11.6303 15.6518 11.3374 15.3589 11.3334 14.9964V5.32973ZM14.6667 5.66707C14.6725 5.29889 14.9755 5.00506 15.3437 5.01077C15.7038 5.01635 15.9944 5.30694 16 5.66707V14.5734C15.9943 14.9416 15.6912 15.2354 15.323 15.2297C14.9629 15.2241 14.6723 14.9335 14.6667 14.5734V5.66707Z" fill="#A2A1FF"/>
<path d="M19.5 2H4.5C3.11926 2 2 3.11926 2 4.5V19.5C2 20.8807 3.11926 22 4.5 22H19.5C20.8807 22 22 20.8807 22 19.5V4.5C22 3.11926 20.8807 2 19.5 2ZM14.6667 5.66663C14.6724 5.29847 14.9755 5.00464 15.3437 5.01032C15.7038 5.01593 15.9944 5.30652 16 5.66663V14.573C15.9943 14.9412 15.6912 15.235 15.323 15.2293C14.9629 15.2237 14.6723 14.9331 14.6667 14.573V5.66663ZM11.3334 5.32928C11.3333 4.96118 11.6317 4.66272 11.9998 4.66265H12C12.3681 4.66259 12.6666 4.96093 12.6667 5.32903V14.9959C12.6627 15.3641 12.3609 15.6594 11.9927 15.6553C11.6302 15.6513 11.3373 15.3584 11.3334 14.9959V5.32928H11.3334ZM8.00006 5.66663C8.0058 5.29847 8.3089 5.00464 8.67706 5.01032C9.03717 5.01594 9.32776 5.30652 9.33337 5.66663V14.573C9.32763 14.9412 9.02453 15.235 8.65637 15.2293C8.29626 15.2237 8.00567 14.9331 8.00006 14.573V5.66663ZM4.66663 7C4.67066 6.63177 4.97242 6.33661 5.34064 6.34064C5.70312 6.3446 5.99603 6.63751 6 7V12.9959C5.99597 13.3641 5.69421 13.6594 5.32599 13.6553C4.9635 13.6513 4.67059 13.3584 4.66663 12.9959V7ZM19.1007 17.1688C17.0436 18.6659 14.5424 19.427 12 19.3293C9.4577 19.427 6.95648 18.6659 4.89948 17.1688C4.61951 16.9296 4.58655 16.5087 4.82575 16.2288C5.06495 15.9489 5.48578 15.9159 5.76569 16.1551C7.58844 17.4301 9.7771 18.0764 12.0001 17.9959C14.2235 18.086 16.4145 17.4394 18.2327 16.1565C18.5123 15.9168 18.9332 15.9491 19.1729 16.2286C19.4126 16.5082 19.3803 16.9291 19.1007 17.1688ZM19.3334 12.9959C19.3293 13.3641 19.0276 13.6594 18.6594 13.6553C18.2969 13.6514 18.004 13.3585 18 12.9959V7C18.004 6.63177 18.3057 6.33655 18.674 6.34058C19.0365 6.34454 19.3294 6.63745 19.3334 7V12.9959Z" fill="#6563FF"/>
</svg>
