<svg width="24" height="24" viewBox="0 0 24 24" fill="none" xmlns="http://www.w3.org/2000/svg">
<path d="M11.1812 2.21337C11.4313 2.07346 11.7132 2 11.9998 2C12.2865 2 12.5683 2.07346 12.8185 2.21337C15.3112 3.62189 17.804 5.02996 20.297 6.43757C20.5314 6.57107 20.7266 6.76383 20.8631 6.99653C20.9995 7.22922 21.0725 7.4937 21.0745 7.76345V16.2376C21.0701 16.5177 20.9901 16.7915 20.8431 17.0299C20.696 17.2684 20.4873 17.4627 20.2389 17.5924C17.7544 18.9931 15.2705 20.3945 12.7871 21.7964C12.5322 21.9373 12.2442 22.0074 11.9531 21.9993C11.662 21.9912 11.3783 21.9052 11.1317 21.7504C10.3868 21.3186 9.6415 20.8876 8.89574 20.4575C8.73235 20.3844 8.58559 20.2787 8.46444 20.147C8.55944 20.0189 8.72934 20.003 8.86744 19.947C9.17366 19.8376 9.46898 19.6998 9.74956 19.5354C9.78486 19.5146 9.82557 19.5048 9.86648 19.5072C9.90739 19.5097 9.94664 19.5243 9.97921 19.5492C10.6161 19.9144 11.2475 20.2902 11.8865 20.6519C12.0229 20.7306 12.1609 20.6261 12.2775 20.5612C14.7155 19.1832 17.1545 17.8068 19.5943 16.4321C19.6378 16.4103 19.6738 16.376 19.6975 16.3335C19.7212 16.2909 19.7316 16.2423 19.7272 16.1938C19.7289 13.3984 19.7292 10.6027 19.728 7.80695C19.7325 7.75254 19.7198 7.69811 19.6918 7.65124C19.6639 7.60438 19.6219 7.56742 19.5719 7.54554C17.096 6.15118 14.6206 4.756 12.1458 3.36C12.103 3.33052 12.0521 3.31471 12.0001 3.31463C11.9481 3.31455 11.8972 3.33022 11.8542 3.35957C9.37877 4.75468 6.9037 6.15039 4.42904 7.5467C4.37879 7.568 4.33656 7.60463 4.30836 7.65136C4.28017 7.69808 4.26745 7.75253 4.27204 7.80691C4.27247 10.6023 4.27247 13.3981 4.27204 16.1942C4.26774 16.2425 4.27835 16.2909 4.30242 16.3329C4.32649 16.375 4.36287 16.4087 4.40667 16.4294C5.06726 16.8041 5.72828 17.1774 6.38973 17.5493C6.5731 17.6627 6.77831 17.736 6.99197 17.7646C7.20563 17.7932 7.42291 17.7764 7.62964 17.7153C7.80916 17.6477 7.96371 17.5268 8.07257 17.3689C8.18142 17.2109 8.23937 17.0234 8.23864 16.8316C8.24205 14.0524 8.23693 11.2729 8.2412 8.49417C8.24046 8.46467 8.24597 8.43536 8.25735 8.40814C8.26874 8.38092 8.28576 8.35642 8.30728 8.33624C8.3288 8.31607 8.35435 8.30067 8.38225 8.29105C8.41014 8.28144 8.43975 8.27784 8.46914 8.28048C8.78654 8.27834 9.10437 8.2762 9.42178 8.28133C9.45271 8.28271 9.483 8.2906 9.51067 8.30451C9.53834 8.31841 9.56276 8.338 9.58232 8.36199C9.60189 8.38598 9.61617 8.41384 9.62423 8.44374C9.63228 8.47364 9.63393 8.5049 9.62906 8.53548C9.62778 11.3322 9.63248 14.129 9.62692 16.9257C9.64806 17.3057 9.56691 17.6843 9.39194 18.0222C9.21697 18.3601 8.95458 18.6449 8.63211 18.8468C8.20115 19.0476 7.72937 19.1454 7.25411 19.1323C6.77885 19.1192 6.31315 18.9958 5.89386 18.7716C5.16745 18.4091 4.47424 17.9812 3.76072 17.5927C3.51218 17.4633 3.30331 17.269 3.15627 17.0304C3.00923 16.7919 2.9295 16.518 2.92554 16.2377V7.76345C2.9276 7.48825 3.00326 7.21862 3.14467 6.98252C3.28607 6.74642 3.48808 6.55246 3.72973 6.42076C6.21383 5.01886 8.69764 3.6164 11.1812 2.21337Z" fill="#6563FF"/>
<path d="M13.3482 8.08379C14.4459 7.94172 15.5614 8.1124 16.5664 8.57621C16.9305 8.79347 17.2316 9.10208 17.4397 9.47147C17.6478 9.84086 17.7559 10.2582 17.7531 10.6822C17.739 10.7353 17.7062 10.7815 17.6607 10.8123C17.6153 10.8431 17.5603 10.8565 17.5057 10.85C17.1914 10.8495 16.877 10.8542 16.5627 10.8478C16.5022 10.844 16.4453 10.8177 16.4032 10.7741C16.3611 10.7305 16.3368 10.6727 16.3351 10.6121C16.2995 10.4068 16.2196 10.2117 16.101 10.0404C15.9824 9.86904 15.8279 9.72558 15.6483 9.61995C15.0504 9.38247 14.4047 9.29008 13.7641 9.35034C13.2922 9.33564 12.8253 9.45188 12.4154 9.68619C12.2741 9.79565 12.1708 9.94663 12.1198 10.1179C12.0688 10.2892 12.0728 10.4721 12.1312 10.641C12.2322 10.881 12.5092 10.9584 12.7359 11.0297C14.0415 11.3712 15.4251 11.3373 16.7059 11.7866C16.9809 11.863 17.2348 12.0014 17.4481 12.1911C17.6614 12.3808 17.8284 12.6169 17.9363 12.8812C18.0648 13.2561 18.0958 13.6575 18.0265 14.0477C17.9573 14.438 17.7899 14.8042 17.5403 15.112C17.0887 15.5808 16.502 15.897 15.8621 16.0164C15.0287 16.1856 14.1737 16.2219 13.329 16.124C12.5183 16.0777 11.741 15.7853 11.1008 15.2857C10.8471 15.0527 10.6481 14.7665 10.518 14.4477C10.3878 14.1288 10.3296 13.7851 10.3477 13.4412C10.354 13.3859 10.3818 13.3354 10.4251 13.3005C10.4684 13.2657 10.5237 13.2493 10.5791 13.2549C10.8956 13.2524 11.2122 13.2515 11.5287 13.2554C11.558 13.2547 11.5872 13.2599 11.6145 13.2706C11.6418 13.2813 11.6667 13.2973 11.6878 13.3177C11.7089 13.3381 11.7257 13.3625 11.7373 13.3895C11.7489 13.4164 11.7551 13.4454 11.7554 13.4747C11.7709 13.6708 11.8264 13.8616 11.9184 14.0353C12.0105 14.2091 12.1373 14.3621 12.2908 14.4849C12.9687 14.8186 13.7261 14.9565 14.4781 14.8832C15.1073 14.9312 15.7355 14.7775 16.2715 14.4445C16.395 14.324 16.4848 14.1733 16.5321 14.0073C16.5794 13.8414 16.5825 13.6659 16.5411 13.4984C16.4642 13.2188 16.1717 13.0885 15.9206 13.0033C14.6317 12.5956 13.2326 12.7436 11.9562 12.2825C11.6884 12.2041 11.4408 12.0686 11.2304 11.8853C11.0201 11.702 10.852 11.4753 10.7378 11.2207C10.591 10.8407 10.5539 10.4272 10.6307 10.0271C10.7075 9.62711 10.8951 9.25669 11.1721 8.95807C11.7756 8.42543 12.544 8.11669 13.3483 8.08371L13.3482 8.08379Z" fill="#6563FF"/>
</svg>
