<svg width="24" height="24" viewBox="0 0 24 24" fill="none" xmlns="http://www.w3.org/2000/svg">
<path d="M6.99927 12C4.23785 12 1.99927 14.2386 1.99927 17C1.99927 19.7614 4.23785 22 6.99927 22C9.76069 22 11.9993 19.7614 11.9993 17C11.9993 14.2386 9.76069 12 6.99927 12ZM5.58453 19.4124C5.03225 19.4124 4.58453 18.9647 4.58453 18.4124C4.58453 17.8601 5.03225 17.4124 5.58453 17.4124C6.13681 17.4124 6.58453 17.8601 6.58453 18.4124C6.5839 18.9644 6.13655 19.4118 5.58453 19.4124Z" fill="#A2A1FF"/>
<path d="M21.7081 6.53399L20.2935 5.11944L21.7061 3.70681C22.0992 3.31898 22.1035 2.6859 21.7157 2.29278C21.3278 1.89966 20.6948 1.89539 20.3016 2.28322C20.2984 2.2864 20.2952 2.28959 20.2921 2.29281L9.75354 12.8313C10.315 13.203 10.7959 13.6838 11.1677 14.2453L16.0508 9.36211L17.4649 10.7762C17.856 11.166 18.4891 11.1649 18.879 10.7738C19.2679 10.3836 19.2679 9.75232 18.879 9.36211L17.4649 7.94805L18.8795 6.5335L20.2941 7.94805C20.687 8.33604 21.3201 8.33201 21.7081 7.93905C22.0926 7.54961 22.0926 6.92341 21.7081 6.53399Z" fill="#6563FF"/>
</svg>
