<svg width="24" height="24" viewBox="0 0 24 24" fill="none" xmlns="http://www.w3.org/2000/svg">
<path d="M7 12.001C4.23858 12.001 2 14.2396 2 17.001C2 19.7624 4.23858 22.001 7 22.001C9.76142 22.001 12 19.7624 12 17.001C12 14.2396 9.76142 12.001 7 12.001ZM5.58527 19.4134C5.03299 19.4134 4.58527 18.9657 4.58527 18.4134C4.58527 17.8611 5.03299 17.4134 5.58527 17.4134C6.13755 17.4134 6.58527 17.8611 6.58527 18.4134C6.58461 18.9654 6.13728 19.4127 5.58527 19.4134Z" fill="#A2A1FF"/>
<path d="M21.0015 4.413L21.707 3.7074C22.101 3.32045 22.1067 2.68738 21.7198 2.2934C21.3328 1.89942 20.6997 1.89372 20.3058 2.28067C20.3015 2.28488 20.2972 2.28912 20.293 2.2934L9.75403 12.8323C10.3155 13.204 10.7964 13.6848 11.1682 14.2462L16.7592 8.65531L18.879 10.7758C19.2694 11.1663 19.9025 11.1663 20.293 10.7758C20.6835 10.3853 20.6835 9.75221 20.293 9.36173L18.1732 7.24125L19.5874 5.82707L20.293 6.53264C20.6848 6.92183 21.3179 6.91973 21.707 6.52796C22.0944 6.138 22.0944 5.50849 21.707 5.11855L21.0015 4.413Z" fill="#6563FF"/>
</svg>
