<svg width="24" height="24" viewBox="0 0 24 24" fill="none" xmlns="http://www.w3.org/2000/svg">
<path d="M14 9.99967C14.0016 9.6482 13.9106 9.30251 13.7362 8.9974C13.5617 8.69229 13.3099 8.43855 13.0061 8.26174C12.7024 8.08492 12.3574 7.99128 12.0059 7.99024C11.6544 7.9892 11.3089 8.08081 11.0041 8.25582C10.6993 8.43084 10.446 8.68309 10.2697 8.98716C10.0935 9.29123 10.0004 9.63638 10 9.98786C9.99958 10.3393 10.0918 10.6847 10.2673 10.9892C10.4429 11.2937 10.6956 11.5465 11 11.7223V14.9997C11 15.2649 11.1053 15.5192 11.2929 15.7068C11.4804 15.8943 11.7348 15.9997 12 15.9997C12.2652 15.9997 12.5195 15.8943 12.7071 15.7068C12.8946 15.5192 13 15.2649 13 14.9997V11.7223C13.3032 11.5482 13.5553 11.2974 13.7308 10.995C13.9064 10.6926 13.9992 10.3493 14 9.99967Z" fill="#6563FF"/>
<path d="M12 2C10.0222 2 8.08879 2.58649 6.4443 3.6853C4.79981 4.78412 3.51809 6.3459 2.76121 8.17317C2.00433 10.0004 1.8063 12.0111 2.19215 13.9509C2.578 15.8907 3.53041 17.6725 4.92894 19.0711C6.32746 20.4696 8.10929 21.422 10.0491 21.8079C11.9889 22.1937 13.9996 21.9957 15.8268 21.2388C17.6541 20.4819 19.2159 19.2002 20.3147 17.5557C21.4135 15.9112 22 13.9778 22 12C22 10.6868 21.7413 9.38642 21.2388 8.17317C20.7363 6.95991 19.9997 5.85752 19.0711 4.92893C18.1425 4.00035 17.0401 3.26375 15.8268 2.7612C14.6136 2.25866 13.3132 2 12 2ZM13 11.7226V15C13 15.2652 12.8946 15.5196 12.7071 15.7071C12.5196 15.8946 12.2652 16 12 16C11.7348 16 11.4804 15.8946 11.2929 15.7071C11.1054 15.5196 11 15.2652 11 15V11.7226C10.6187 11.5025 10.3207 11.1627 10.1522 10.7559C9.98376 10.3492 9.9542 9.89818 10.0682 9.47291C10.1821 9.04764 10.4332 8.67186 10.7825 8.40384C11.1318 8.13582 11.5597 7.99055 12 7.99055C12.4403 7.99055 12.8682 8.13582 13.2175 8.40384C13.5668 8.67186 13.8179 9.04764 13.9319 9.47291C14.0458 9.89818 14.0162 10.3492 13.8478 10.7559C13.6793 11.1627 13.3813 11.5025 13 11.7226Z" fill="#A2A1FF"/>
</svg>
