<svg width="24" height="24" viewBox="0 0 24 24" fill="none" xmlns="http://www.w3.org/2000/svg">
<path d="M14 9.99967C14.0016 9.6482 13.9106 9.30251 13.7362 8.9974C13.5617 8.69229 13.3099 8.43855 13.0061 8.26174C12.7024 8.08492 12.3574 7.99128 12.0059 7.99024C11.6544 7.9892 11.3089 8.08081 11.0041 8.25582C10.6993 8.43084 10.446 8.68309 10.2697 8.98716C10.0935 9.29123 10.0004 9.63638 10 9.98786C9.99958 10.3393 10.0918 10.6847 10.2673 10.9892C10.4429 11.2937 10.6956 11.5465 11 11.7223V14.9997C11 15.2649 11.1053 15.5192 11.2929 15.7068C11.4804 15.8943 11.7348 15.9997 12 15.9997C12.2652 15.9997 12.5195 15.8943 12.7071 15.7068C12.8946 15.5192 13 15.2649 13 14.9997V11.7223C13.3032 11.5482 13.5553 11.2974 13.7308 10.995C13.9064 10.6926 13.9992 10.3493 14 9.99967Z" fill="#6563FF"/>
<path d="M19 2H5C4.20462 2.00087 3.44206 2.31722 2.87964 2.87964C2.31722 3.44206 2.00087 4.20462 2 5V19C2.00087 19.7954 2.31722 20.5579 2.87964 21.1204C3.44206 21.6828 4.20462 21.9991 5 22H19C19.7954 21.9991 20.5579 21.6828 21.1204 21.1204C21.6828 20.5579 21.9991 19.7954 22 19V5C21.9991 4.20462 21.6828 3.44206 21.1204 2.87964C20.5579 2.31722 19.7954 2.00087 19 2ZM13 11.7226V15C13 15.2652 12.8946 15.5196 12.7071 15.7071C12.5196 15.8946 12.2652 16 12 16C11.7348 16 11.4804 15.8946 11.2929 15.7071C11.1054 15.5196 11 15.2652 11 15V11.7226C10.6187 11.5025 10.3207 11.1627 10.1522 10.7559C9.98376 10.3492 9.9542 9.89818 10.0681 9.47291C10.1821 9.04764 10.4332 8.67186 10.7825 8.40384C11.1318 8.13582 11.5597 7.99055 12 7.99055C12.4403 7.99055 12.8682 8.13582 13.2175 8.40384C13.5668 8.67186 13.8179 9.04764 13.9319 9.47291C14.0458 9.89818 14.0162 10.3492 13.8478 10.7559C13.6793 11.1627 13.3813 11.5025 13 11.7226Z" fill="#A2A1FF"/>
</svg>
