<svg width="24" height="24" viewBox="0 0 24 24" fill="none" xmlns="http://www.w3.org/2000/svg">
<path d="M12 14.1948C11.8245 14.1948 11.6521 14.1486 11.5 14.061L2.50004 8.86377C2.02165 8.58745 1.85783 7.97563 2.13415 7.49724C2.22191 7.3453 2.3481 7.21911 2.50004 7.13135L11.5 1.93799C11.8097 1.76025 12.1904 1.76025 12.5 1.93799L21.5 7.13135C21.9784 7.40767 22.1423 8.01949 21.8659 8.49788C21.7782 8.64982 21.652 8.77601 21.5 8.86377L12.5 14.061C12.348 14.1486 12.1756 14.1948 12 14.1948Z" fill="#C1C0FF"/>
<path d="M21.5 11.1314L19.5359 9.99805L12.5 14.0611C12.1906 14.2395 11.8095 14.2395 11.5 14.0611L4.46415 9.99805L2.50004 11.1314C2.02165 11.4077 1.85783 12.0196 2.13415 12.4979C2.22191 12.6499 2.3481 12.7761 2.50004 12.8638L11.5 18.0611C11.8095 18.2395 12.1906 18.2395 12.5 18.0611L21.5 12.8638C21.9784 12.5875 22.1423 11.9757 21.8659 11.4973C21.7782 11.3454 21.652 11.2192 21.5 11.1314Z" fill="#A2A1FF"/>
<path d="M21.5 15.1314L19.5359 13.998L12.5 18.0611C12.1906 18.2395 11.8095 18.2395 11.5 18.0611L4.46415 13.998L2.50004 15.1314C2.02165 15.4077 1.85783 16.0196 2.13415 16.4979C2.22191 16.6499 2.3481 16.7761 2.50004 16.8638L11.5 22.0611C11.8095 22.2395 12.1906 22.2395 12.5 22.0611L21.5 16.8638C21.9784 16.5875 22.1423 15.9757 21.8659 15.4973C21.7782 15.3454 21.652 15.2192 21.5 15.1314Z" fill="#6563FF"/>
</svg>
