<svg width="24" height="24" viewBox="0 0 24 24" fill="none" xmlns="http://www.w3.org/2000/svg">
<path d="M18.2227 14.2783C18.1816 14.3381 18.1362 14.3949 18.0869 14.4482L18.0826 14.4529C17.8407 14.7413 17.5736 15.0077 17.2846 15.2489C15.2555 17.1245 11.9156 19.3574 11.4748 19.0129C11.0916 18.7135 12.106 17.2488 10.9357 17.0051C10.8541 16.9957 10.7726 16.9857 10.6919 16.9742L10.6904 16.9741V16.974C7.25323 16.4857 4.64307 14.0815 4.64307 11.189C4.64303 7.94402 7.92819 5.31348 11.9806 5.31348C16.033 5.31348 19.3182 7.94403 19.3182 11.189C19.3089 12.3123 18.9232 13.4001 18.2227 14.2783Z" fill="#A2A1FF"/>
<path d="M17.9067 2H6.09326C3.83264 2 2 3.83264 2 6.09326V17.9067C2 20.1674 3.83264 22 6.09332 22H17.9067C20.1674 22 22 20.1674 22 17.9067V6.09332C22 3.83264 20.1674 2 17.9067 2ZM18.2227 14.2778C18.1815 14.3376 18.1361 14.3944 18.0869 14.4478L18.0826 14.4524C17.8407 14.7408 17.5736 15.0073 17.2846 15.2485C15.2555 17.124 11.9156 19.3569 11.4748 19.0124C11.0916 18.713 12.106 17.2483 10.9357 17.0046C10.854 16.9952 10.7726 16.9852 10.6918 16.9737L10.6904 16.9736V16.9735C7.2532 16.4852 4.64309 14.081 4.64309 11.1885C4.64303 7.94355 7.92819 5.313 11.9806 5.313C16.033 5.313 19.3182 7.94355 19.3182 11.1885C19.3088 12.3118 18.9232 13.3996 18.2227 14.2778Z" fill="#6563FF"/>
<path d="M9.20313 12.2654H8.13788V9.84165C8.13727 9.63055 7.96629 9.45958 7.75519 9.45898H7.72327C7.51216 9.45958 7.34118 9.63056 7.34058 9.84167V12.6799C7.34117 12.8911 7.51215 13.0621 7.72327 13.0627H9.20313C9.41425 13.0621 9.58523 12.8911 9.58582 12.6799V12.648C9.58519 12.4369 9.41421 12.266 9.20313 12.2654ZM13.7754 9.4591H13.7434C13.5323 9.45972 13.3613 9.63069 13.3608 9.84178V11.5079L11.9776 9.65257C11.9095 9.53319 11.7828 9.45939 11.6453 9.4591H11.6134C11.4023 9.45969 11.2313 9.63066 11.2306 9.84178V12.68C11.2312 12.8911 11.4023 13.0621 11.6134 13.0627H11.6453C11.8564 13.0621 12.0273 12.8911 12.0279 12.68V10.9828L13.4211 12.8856C13.4297 12.8989 13.439 12.9117 13.4491 12.9239L13.4492 12.924C13.487 12.9745 13.5388 13.0127 13.5982 13.0339C13.6442 13.0529 13.6936 13.0627 13.7434 13.0627H13.7753C13.8377 13.0627 13.8991 13.0474 13.9541 13.018C13.9898 13.0019 14.0216 12.9782 14.0473 12.9486L14.0474 12.9484C14.1182 12.877 14.158 12.7805 14.158 12.68V9.84178C14.1574 9.63069 13.9865 9.45972 13.7754 9.4591ZM10.2773 9.45898H10.3092C10.5206 9.45898 10.6919 9.63034 10.6919 9.84173V12.6799C10.6919 12.8913 10.5206 13.0626 10.3092 13.0626H10.2773C10.0659 13.0626 9.89462 12.8913 9.89459 12.68V9.84172C9.89456 9.63037 10.0659 9.45901 10.2772 9.45898C10.2772 9.45898 10.2773 9.45898 10.2773 9.45898ZM16.5106 9.46581H15.0307C14.8196 9.46641 14.6486 9.63739 14.648 9.84849V12.6868C14.6486 12.8979 14.8196 13.0688 15.0307 13.0694H16.5106C16.7217 13.0688 16.8927 12.8979 16.8933 12.6868V12.6548C16.8927 12.4437 16.7217 12.2727 16.5106 12.2721H15.4454V11.6661H16.5106C16.7217 11.6656 16.8927 11.4947 16.8933 11.2836V11.2516C16.8927 11.0405 16.7217 10.8695 16.5106 10.8689H15.4454V10.263H16.5106C16.7217 10.2625 16.8927 10.0915 16.8933 9.88035V9.84849C16.8927 9.63737 16.7217 9.4664 16.5106 9.46581Z" fill="#6563FF"/>
</svg>
