<svg width="24" height="24" viewBox="0 0 24 24" fill="none" xmlns="http://www.w3.org/2000/svg">
<path d="M21 8H10C9.73478 8 9.48043 7.89464 9.29289 7.70711C9.10536 7.51957 9 7.26522 9 7C9 6.73478 9.10536 6.48043 9.29289 6.29289C9.48043 6.10536 9.73478 6 10 6H21C21.2652 6 21.5196 6.10536 21.7071 6.29289C21.8946 6.48043 22 6.73478 22 7C22 7.26522 21.8946 7.51957 21.7071 7.70711C21.5196 7.89464 21.2652 8 21 8ZM21 13H10C9.73478 13 9.48043 12.8946 9.29289 12.7071C9.10536 12.5196 9 12.2652 9 12C9 11.7348 9.10536 11.4804 9.29289 11.2929C9.48043 11.1054 9.73478 11 10 11H21C21.2652 11 21.5196 11.1054 21.7071 11.2929C21.8946 11.4804 22 11.7348 22 12C22 12.2652 21.8946 12.5196 21.7071 12.7071C21.5196 12.8946 21.2652 13 21 13Z" fill="#A2A1FF"/>
<path d="M4.66699 18.5C4.53565 18.5001 4.40558 18.4743 4.28422 18.424C4.16286 18.3738 4.05259 18.3001 3.95972 18.2073C3.86684 18.1144 3.79319 18.0041 3.74296 17.8828C3.69273 17.7614 3.66692 17.6313 3.66699 17.5V6.5C3.66699 6.23478 3.77235 5.98043 3.95989 5.79289C4.14742 5.60536 4.40178 5.5 4.66699 5.5C4.93221 5.5 5.18656 5.60536 5.3741 5.79289C5.56164 5.98043 5.66699 6.23478 5.66699 6.5V17.5C5.66707 17.6313 5.64125 17.7614 5.59103 17.8828C5.5408 18.0041 5.46714 18.1144 5.37427 18.2073C5.2814 18.3002 5.17113 18.3738 5.04977 18.424C4.92841 18.4743 4.79834 18.5001 4.66699 18.5Z" fill="#6563FF"/>
<path d="M21 18H10C9.73478 18 9.48043 17.8946 9.29289 17.7071C9.10536 17.5196 9 17.2652 9 17C9 16.7348 9.10536 16.4804 9.29289 16.2929C9.48043 16.1054 9.73478 16 10 16H21C21.2652 16 21.5196 16.1054 21.7071 16.2929C21.8946 16.4804 22 16.7348 22 17C22 17.2652 21.8946 17.5196 21.7071 17.7071C21.5196 17.8946 21.2652 18 21 18Z" fill="#A2A1FF"/>
<path d="M6.33405 9C6.18715 9.00035 6.04199 8.96823 5.90896 8.90593C5.77593 8.84364 5.65831 8.75271 5.56452 8.63965L4.66705 7.5625L3.7686 8.64062C3.59869 8.84445 3.35478 8.97244 3.09051 8.99643C2.82624 9.02042 2.56326 8.93845 2.35943 8.76855C2.15559 8.59865 2.0276 8.35473 2.00361 8.09046C1.97962 7.82619 2.06159 7.56321 2.2315 7.35938L3.8985 5.35938C3.99252 5.24692 4.11008 5.15645 4.24287 5.09436C4.37566 5.03226 4.52045 5.00005 4.66705 5C4.81374 5.00002 4.95864 5.03231 5.09146 5.09458C5.22428 5.15686 5.34177 5.24759 5.43561 5.36035L7.10161 7.36035C7.22308 7.50633 7.30048 7.68388 7.32475 7.87224C7.34901 8.0606 7.31913 8.25197 7.23862 8.42397C7.1581 8.59597 7.03027 8.74149 6.87008 8.8435C6.70989 8.9455 6.52396 8.99979 6.33405 9ZM4.66705 19C4.52045 18.9999 4.37566 18.9677 4.24287 18.9056C4.11008 18.8435 3.99252 18.7531 3.8985 18.6406L2.2315 16.6406C2.14737 16.5397 2.08394 16.4232 2.04484 16.2977C2.00574 16.1723 1.99173 16.0404 2.00361 15.9095C2.01549 15.7787 2.05303 15.6515 2.11408 15.5351C2.17513 15.4188 2.2585 15.3156 2.35943 15.2315C2.46035 15.1473 2.57686 15.0839 2.7023 15.0448C2.82774 15.0057 2.95965 14.9917 3.09051 15.0036C3.22136 15.0154 3.34859 15.053 3.46494 15.114C3.58129 15.1751 3.68447 15.2585 3.7686 15.3594L4.66705 16.4375L5.56451 15.3603C5.64851 15.2594 5.75156 15.176 5.86779 15.1149C5.98402 15.0538 6.11115 15.0162 6.24191 15.0042C6.37268 14.9923 6.50452 15.0062 6.62991 15.0452C6.7553 15.0841 6.87178 15.1474 6.97271 15.2314C7.07364 15.3154 7.15703 15.4185 7.21813 15.5347C7.27923 15.651 7.31684 15.7781 7.32881 15.9089C7.34078 16.0396 7.32688 16.1715 7.2879 16.2968C7.24891 16.4222 7.18562 16.5387 7.10162 16.6397L5.43562 18.6397C5.34178 18.7524 5.22429 18.8431 5.09146 18.9054C4.95864 18.9677 4.81374 19 4.66705 19Z" fill="#6563FF"/>
</svg>
