<svg width="24" height="24" viewBox="0 0 24 24" fill="none" xmlns="http://www.w3.org/2000/svg">
<path d="M8.08794 9.71094H5.08594V18.7419H8.08794V9.71094Z" fill="#A2A1FF"/>
<path d="M6.58724 8.47791H6.56752C5.70499 8.52993 4.9636 7.87288 4.91158 7.01034C4.85956 6.14781 5.51661 5.40642 6.37915 5.3544C6.45512 5.34982 6.53132 5.35079 6.60714 5.35729C7.46931 5.29485 8.21886 5.94314 8.28131 6.80531C8.34376 7.66748 7.69547 8.41703 6.8333 8.47948C6.75137 8.48541 6.66909 8.48489 6.58724 8.47791ZM18.9118 18.7418H15.9102V13.911C15.9102 12.6968 15.4756 11.8687 14.3897 11.8687C13.6959 11.8728 13.0794 12.3122 12.8494 12.9667C12.7725 13.2029 12.739 13.451 12.7505 13.699V18.7418H9.74898C9.74898 18.7391 9.78835 10.5581 9.74929 9.71101H12.7508V10.991C13.3039 10.0283 14.3467 9.45321 15.4561 9.49913C17.431 9.49913 18.9118 10.7899 18.9118 13.5638V18.7418Z" fill="#A2A1FF"/>
<path d="M20.4682 2.00011H3.53192C2.73083 1.99047 2.07336 2.6317 2.06299 3.43279V20.5679C2.07342 21.3689 2.73089 22.01 3.53192 22.0001H20.4682C21.2693 22.0101 21.9269 21.3688 21.9371 20.5677V3.43279C21.9269 2.63164 21.2693 1.99034 20.4682 2.00011ZM8.08807 18.7421H5.08606V9.71111H8.08807V18.7421ZM6.83331 8.47966C6.75134 8.48558 6.66907 8.4851 6.58722 8.47814H6.5675C5.70496 8.53014 4.96356 7.8731 4.91156 7.01055C4.85956 6.148 5.5166 5.40661 6.37915 5.35461C6.45508 5.35003 6.53131 5.35101 6.60712 5.35748C7.4693 5.29504 8.21881 5.94336 8.28131 6.80554C8.34375 7.66765 7.69543 8.41722 6.83331 8.47966ZM18.9117 18.7421H15.9102V13.9112C15.9102 12.697 15.4756 11.8689 14.3896 11.8689C13.6958 11.873 13.0794 12.3124 12.8494 12.967C12.7725 13.2031 12.739 13.4512 12.7505 13.6993V18.7421H9.74896C9.74896 18.7394 9.78833 10.5583 9.74927 9.71123H12.7508V10.9912C13.304 10.0285 14.3467 9.45342 15.4561 9.49932C17.431 9.49932 18.9117 10.7901 18.9117 13.564V18.7421H18.9117Z" fill="#6563FF"/>
</svg>
