<svg width="24" height="24" viewBox="0 0 24 24" fill="none" xmlns="http://www.w3.org/2000/svg">
<path d="M21.0001 8H7.00008C6.73487 8 6.48051 7.89464 6.29298 7.70711C6.10544 7.51957 6.00008 7.26522 6.00008 7C6.00008 6.73478 6.10544 6.48043 6.29298 6.29289C6.48051 6.10536 6.73487 6 7.00008 6H21.0001C21.2653 6 21.5197 6.10536 21.7072 6.29289C21.8947 6.48043 22.0001 6.73478 22.0001 7C22.0001 7.26522 21.8947 7.51957 21.7072 7.70711C21.5197 7.89464 21.2653 8 21.0001 8ZM21.0001 13H7.00008C6.73487 13 6.48051 12.8946 6.29298 12.7071C6.10544 12.5196 6.00008 12.2652 6.00008 12C6.00008 11.7348 6.10544 11.4804 6.29298 11.2929C6.48051 11.1054 6.73487 11 7.00008 11H21.0001C21.2653 11 21.5197 11.1054 21.7072 11.2929C21.8947 11.4804 22.0001 11.7348 22.0001 12C22.0001 12.2652 21.8947 12.5196 21.7072 12.7071C21.5197 12.8946 21.2653 13 21.0001 13ZM21.0001 18H7.00008C6.73487 18 6.48051 17.8946 6.29298 17.7071C6.10544 17.5196 6.00008 17.2652 6.00008 17C6.00008 16.7348 6.10544 16.4804 6.29298 16.2929C6.48051 16.1054 6.73487 16 7.00008 16H21.0001C21.2653 16 21.5197 16.1054 21.7072 16.2929C21.8947 16.4804 22.0001 16.7348 22.0001 17C22.0001 17.2652 21.8947 17.5196 21.7072 17.7071C21.5197 17.8946 21.2653 18 21.0001 18ZM3.00008 8C2.86928 7.99844 2.74005 7.97124 2.61971 7.91992C2.49868 7.86924 2.3872 7.79824 2.29008 7.71C2.20177 7.61266 2.13062 7.50106 2.07963 7.37992C2.02714 7.26015 2.00004 7.13081 2.00004 7.00004C2.00004 6.86927 2.02714 6.73993 2.07963 6.62016C2.13038 6.49888 2.20156 6.3872 2.29008 6.29C2.43053 6.151 2.60908 6.05684 2.80311 6.01945C2.99713 5.98207 3.19789 6.00314 3.37992 6.08C3.50234 6.12835 3.6144 6.19963 3.71008 6.29C3.7983 6.38732 3.86932 6.49894 3.92008 6.62008C3.97289 6.73976 4.00016 6.86914 4.00016 6.99996C4.00016 7.13078 3.97289 7.26016 3.92008 7.37984C3.86909 7.50089 3.7981 7.6125 3.71008 7.71C3.61691 7.80305 3.50615 7.87661 3.38425 7.9264C3.26235 7.97619 3.13176 8.00121 3.00008 8ZM3.00008 13C2.86928 12.9984 2.74005 12.9712 2.61971 12.9199C2.49868 12.8692 2.3872 12.7982 2.29008 12.71C2.20177 12.6127 2.13062 12.5011 2.07963 12.3799C2.02714 12.2602 2.00004 12.1308 2.00004 12C2.00004 11.8693 2.02714 11.7399 2.07963 11.6202C2.12803 11.4977 2.19947 11.3856 2.29008 11.29C2.38718 11.2017 2.49865 11.1307 2.61967 11.08C2.8018 11.0031 3.00265 10.9821 3.19676 11.0195C3.39087 11.0568 3.56953 11.151 3.71008 11.29C3.80039 11.3857 3.87166 11.4977 3.92008 11.6201C3.97289 11.7398 4.00016 11.8691 4.00016 12C4.00016 12.1308 3.97289 12.2602 3.92008 12.3798C3.86909 12.5009 3.7981 12.6124 3.71008 12.7099C3.61281 12.7982 3.50118 12.8692 3.38 12.9199C3.25982 12.9712 3.13074 12.9984 3.00008 13ZM3.00008 18C2.86928 17.9984 2.74005 17.9712 2.61971 17.9199C2.49868 17.8692 2.3872 17.7982 2.29008 17.71C2.15025 17.5701 2.05548 17.3915 2.01798 17.1973C1.98047 17.0031 2.00195 16.8021 2.07963 16.6202C2.12803 16.4977 2.19947 16.3856 2.29008 16.29C2.38549 16.1995 2.49738 16.1283 2.61967 16.08C2.86311 15.9794 3.13649 15.9794 3.37992 16.08C3.50231 16.1284 3.61434 16.1996 3.71 16.29C3.80031 16.3857 3.87158 16.4977 3.92 16.6201C3.99803 16.8019 4.01974 17.003 3.98232 17.1973C3.9449 17.3916 3.85007 17.5702 3.71008 17.71C3.61281 17.7983 3.50118 17.8693 3.38 17.92C3.25981 17.9712 3.13074 17.9984 3.00008 18Z" fill="#6563FF"/>
</svg>
