<svg width="24" height="24" viewBox="0 0 24 24" fill="none" xmlns="http://www.w3.org/2000/svg">
<path d="M22 6.41639H21.209C21.0356 6.44963 20.8758 6.53327 20.7497 6.65686C20.6236 6.78044 20.5367 6.93847 20.5 7.11118V16.9414C20.5388 17.1078 20.6275 17.2584 20.7542 17.373C20.8809 17.4877 21.0396 17.561 21.209 17.583H22V19.9164H14.8333V17.583H16.3334V7.24971H16.2599L12.7571 19.9164H10.0451L6.58751 7.24971H6.5V17.583H8V19.9164H2V17.583H2.76835C2.94177 17.5651 3.10533 17.4937 3.23641 17.3788C3.36748 17.2638 3.4596 17.111 3.5 16.9414V7.1111C3.46194 6.9352 3.37179 6.77483 3.24128 6.65091C3.11078 6.52698 2.94597 6.44523 2.76834 6.41631H2V4.08301H9.50266L11.9659 13.2497H12.0339L14.5198 4.08301H22V6.41639Z" fill="#6563FF"/>
</svg>
