<svg width="24" height="24" viewBox="0 0 24 24" fill="none" xmlns="http://www.w3.org/2000/svg">
<path d="M11.4414 13.6031C11.3101 13.6031 11.1801 13.5772 11.0587 13.5269C10.9374 13.4767 10.8272 13.403 10.7344 13.3101L7.19824 9.77155C7.10536 9.67872 7.03168 9.5685 6.98141 9.44719C6.93115 9.32587 6.90527 9.19584 6.90527 9.06452C6.90527 8.93321 6.93115 8.80318 6.98141 8.68186C7.03168 8.56055 7.10536 8.45033 7.19824 8.35749L13.5605 1.9947C13.6702 1.88482 13.8039 1.80205 13.9512 1.75301L16.0723 1.04549C16.2485 0.986726 16.4376 0.978215 16.6183 1.02091C16.7991 1.0636 16.9644 1.1558 17.0957 1.28719L19.2178 3.40877C19.3491 3.54011 19.4412 3.70543 19.4838 3.88619C19.5264 4.06696 19.5178 4.25602 19.459 4.43218L18.751 6.55424C18.7023 6.70153 18.6196 6.83533 18.5098 6.94487L12.1485 13.3101C12.0556 13.403 11.9454 13.4767 11.8241 13.527C11.7028 13.5772 11.5727 13.6031 11.4414 13.6031Z" fill="#C1C0FF"/>
<path d="M7.19824 9.7716L7.19818 9.77148L5.78223 11.1871C5.68935 11.2799 5.61567 11.3902 5.5654 11.5115C5.51513 11.6328 5.48926 11.7628 5.48926 11.8941C5.48926 12.0255 5.51513 12.1555 5.5654 12.2768C5.61567 12.3981 5.68935 12.5083 5.78223 12.6012L7.9043 14.7223C7.99713 14.8151 8.10735 14.8888 8.22867 14.9391C8.34998 14.9894 8.48001 15.0152 8.61133 15.0152C8.74264 15.0152 8.87267 14.9894 8.99399 14.9391C9.1153 14.8888 9.22553 14.8151 9.31836 14.7223L10.7324 13.3082L7.19824 9.7716Z" fill="#A2A1FF"/>
<path d="M8 18.0049H4C3.73478 18.0049 3.48043 17.8995 3.29289 17.712C3.10536 17.5245 3 17.2701 3 17.0049C3 16.7397 3.10536 16.4853 3.29289 16.2978C3.48043 16.1102 3.73478 16.0049 4 16.0049H8C8.26522 16.0049 8.51957 16.1102 8.70711 16.2978C8.89464 16.4853 9 16.7397 9 17.0049C9 17.2701 8.89464 17.5245 8.70711 17.712C8.51957 17.8995 8.26522 18.0049 8 18.0049Z" fill="#6563FF"/>
<path d="M20 23.0049H4C3.73478 23.0049 3.48043 22.8995 3.29289 22.712C3.10536 22.5245 3 22.2701 3 22.0049C3 21.7397 3.10536 21.4853 3.29289 21.2978C3.48043 21.1102 3.73478 21.0049 4 21.0049H20C20.2652 21.0049 20.5196 21.1102 20.7071 21.2978C20.8946 21.4853 21 21.7397 21 22.0049C21 22.2701 20.8946 22.5245 20.7071 22.712C20.5196 22.8995 20.2652 23.0049 20 23.0049Z" fill="#A2A1FF"/>
<path d="M14.8157 21.0049C14.9343 20.6846 14.9966 20.3463 15 20.0049C15 19.2092 14.6839 18.4462 14.1213 17.8836C13.5587 17.321 12.7956 17.0049 12 17.0049C11.2044 17.0049 10.4413 17.321 9.87868 17.8836C9.31607 18.4462 9 19.2092 9 20.0049C9.0034 20.3463 9.06576 20.6847 9.18433 21.0049H14.8157Z" fill="#C1C0FF"/>
<path d="M17.8725 7.58301L16.4578 8.99859C17.4522 10.096 18.002 11.5246 17.9999 13.0055C17.9937 14.1441 17.6662 15.2579 17.055 16.2187C16.4438 17.1794 15.5738 17.9481 14.5451 18.4363C14.8404 18.9066 14.9979 19.4502 14.9999 20.0055C14.9973 20.1422 14.984 20.2785 14.9602 20.4131C16.4402 19.8174 17.7095 18.795 18.6069 17.4759C19.5043 16.1569 19.9892 14.6008 19.9999 13.0055C20.0029 10.9938 19.2426 9.05598 17.8725 7.58301ZM9.42053 18.4993C9.03998 18.3451 8.67365 18.1579 8.32575 17.9398C8.22167 17.98 8.11149 18.0022 7.99994 18.0055H5.32629C6.33512 19.1332 7.61558 19.9841 9.04596 20.4775C9.01676 20.3218 9.00137 20.1639 8.99996 20.0055C9.00289 19.4749 9.14813 18.9547 9.42053 18.4993Z" fill="#A2A1FF"/>
</svg>
