<svg width="24" height="24" viewBox="0 0 24 24" fill="none" xmlns="http://www.w3.org/2000/svg">
<path d="M7.00003 18.0003C6.80228 18.0003 6.60898 17.9416 6.44457 17.8317C6.28016 17.7218 6.15202 17.5657 6.07635 17.383C6.00068 17.2003 5.98088 16.9992 6.01945 16.8053C6.05802 16.6113 6.15322 16.4332 6.29303 16.2933L16.293 6.29332C16.4811 6.10861 16.7345 6.00565 16.9982 6.00685C17.2618 6.00804 17.5142 6.11329 17.7007 6.2997C17.8871 6.4861 17.9923 6.73858 17.9935 7.0022C17.9947 7.26581 17.8917 7.51923 17.707 7.70732L7.70703 17.7073C7.6143 17.8003 7.5041 17.8741 7.38277 17.9244C7.26144 17.9747 7.13137 18.0005 7.00003 18.0003Z" fill="#6563FF"/>
<path d="M17 18.0003C16.8686 18.0005 16.7385 17.9747 16.6172 17.9244C16.4959 17.8741 16.3857 17.8003 16.293 17.7073L6.29296 7.70732C6.10825 7.51923 6.00529 7.26581 6.00648 7.0022C6.00767 6.73858 6.11292 6.4861 6.29933 6.2997C6.48574 6.11329 6.73822 6.00804 7.00183 6.00685C7.26545 6.00565 7.51887 6.10861 7.70696 6.29332L17.707 16.2933C17.8468 16.4332 17.942 16.6113 17.9805 16.8053C18.0191 16.9992 17.9993 17.2003 17.9236 17.383C17.848 17.5657 17.7198 17.7218 17.5554 17.8317C17.391 17.9416 17.1977 18.0003 17 18.0003Z" fill="#6563FF"/>
</svg>
