<svg width="24" height="24" viewBox="0 0 24 24" fill="none" xmlns="http://www.w3.org/2000/svg">
<path d="M8.89164 21.8532C7.65556 21.8532 6.44723 21.4867 5.41945 20.8C4.39167 20.1133 3.59058 19.1373 3.11749 17.9953C2.6444 16.8533 2.52055 15.5967 2.7616 14.3844C3.00265 13.172 3.59777 12.0584 4.47172 11.1843L12.4268 3.22918C13.2709 2.38659 14.415 1.91357 15.6077 1.91406C16.8004 1.91455 17.944 2.38851 18.7875 3.2318C19.6309 4.07509 20.105 5.21871 20.1057 6.41139C20.1063 7.60407 19.6335 8.74823 18.791 9.59246L11.8965 16.487C11.3726 16.9872 10.6761 17.2663 9.9517 17.2663C9.22733 17.2663 8.53081 16.9872 8.00688 16.487C7.49146 15.9711 7.20202 15.2717 7.20221 14.5424C7.20239 13.8132 7.49219 13.1139 8.00788 12.5983L13.1339 7.47137C13.2267 7.37852 13.337 7.30487 13.4583 7.25462C13.5796 7.20437 13.7096 7.17851 13.8409 7.17851C13.9722 7.17851 14.1022 7.20437 14.2236 7.25462C14.3449 7.30487 14.4551 7.37852 14.5479 7.47137C14.6408 7.56422 14.7144 7.67445 14.7647 7.79576C14.8149 7.91707 14.8408 8.04709 14.8408 8.1784C14.8408 8.30971 14.8149 8.43973 14.7647 8.56104C14.7144 8.68236 14.6408 8.79258 14.5479 8.88543L9.42194 14.0124C9.35228 14.0821 9.29702 14.1647 9.25932 14.2557C9.22161 14.3467 9.20221 14.4442 9.20221 14.5427C9.20221 14.6412 9.22161 14.7387 9.25932 14.8297C9.29702 14.9207 9.35228 15.0033 9.42194 15.073C9.56482 15.2093 9.75472 15.2854 9.95221 15.2854C10.1497 15.2854 10.3396 15.2093 10.4825 15.073L17.377 8.1784C17.8451 7.70923 18.108 7.07356 18.108 6.41082C18.108 5.74808 17.8451 5.11241 17.377 4.64324C16.9009 4.1882 16.2676 3.93426 15.609 3.93426C14.9503 3.93426 14.3171 4.1882 13.8409 4.64324L5.88578 12.5983C5.49117 12.993 5.17817 13.4615 4.96463 13.9772C4.75109 14.4928 4.64121 15.0454 4.64126 15.6035C4.6413 16.1617 4.75127 16.7143 4.96489 17.2299C5.17851 17.7455 5.49159 18.214 5.88626 18.6086C6.28094 19.0032 6.74946 19.3162 7.2651 19.5297C7.78074 19.7433 8.33339 19.8531 8.89149 19.8531C9.4496 19.8531 10.0022 19.7431 10.5178 19.5295C11.0334 19.3158 11.5019 19.0028 11.8965 18.6081L18.084 12.4216C18.1769 12.3287 18.2871 12.2551 18.4084 12.2048C18.5297 12.1546 18.6597 12.1287 18.7911 12.1287C18.9224 12.1287 19.0524 12.1546 19.1737 12.2048C19.295 12.2551 19.4052 12.3287 19.4981 12.4216C19.5909 12.5144 19.6646 12.6246 19.7148 12.746C19.7651 12.8673 19.791 12.9973 19.791 13.1286C19.791 13.2599 19.7651 13.3899 19.7148 13.5112C19.6646 13.6326 19.5909 13.7428 19.4981 13.8356L13.3106 20.0222C12.7318 20.6045 12.0432 21.0662 11.2846 21.3806C10.5261 21.6949 9.71272 21.8555 8.89164 21.8532Z" fill="#6563FF"/>
</svg>
