<svg width="24" height="24" viewBox="0 0 24 24" fill="none" xmlns="http://www.w3.org/2000/svg">
<path d="M18.8926 7.00022C17.2303 6.99229 15.8881 5.64011 15.8926 3.97776C15.905 2.32084 17.2582 0.987686 18.9152 1.00009C20.5458 1.01229 21.8682 2.32476 21.8926 3.9553V3.97776C21.8971 5.64011 20.5549 6.99229 18.8926 7.00022ZM11.7998 23.0002C5.6318 23.0002 0.799805 19.925 0.799805 16.0002C0.799805 12.0754 5.6318 9.00022 11.7998 9.00022C17.9678 9.00022 22.7998 12.0754 22.7998 16.0002C22.7998 19.925 17.9678 23.0002 11.7998 23.0002Z" fill="#A2A1FF"/>
<path d="M20.499 8.29244C18.8635 7.59737 17.0196 8.15151 16.0018 9.51491C18.954 10.2714 21.2259 11.8098 22.2301 13.7495C22.3296 13.5882 22.4244 13.4235 22.4988 13.2484C23.3151 11.3276 22.4198 9.10872 20.499 8.29244ZM11.7999 9.00026C12.1909 9.00026 12.5763 9.01314 12.9558 9.03731L13.8116 3.33223L15.8989 4.04207C15.8985 4.02016 15.8926 3.99977 15.8926 3.9778C15.8978 3.28426 16.1474 2.65553 16.5464 2.15041L13.3223 1.05397C13.2651 1.03438 13.2061 1.02003 13.1462 1.01106C12.6005 0.929697 12.0921 1.3061 12.0108 1.85182L10.9343 9.02724C11.2206 9.01363 11.5072 9.00026 11.7999 9.00026ZM7.59222 9.51619C7.50415 9.399 7.42004 9.27864 7.3186 9.17214C5.87964 7.6617 3.48865 7.60371 1.97815 9.04268C0.663507 10.2951 0.451658 12.2678 1.36694 13.7543C2.36914 11.8135 4.64038 10.2738 7.59222 9.51619Z" fill="#C1C0FF"/>
<path d="M11.8419 19.5002C10.4688 19.6208 9.10526 19.1817 8.06064 18.2824C7.67016 17.8914 7.67059 17.2579 8.06161 16.8674C8.45263 16.4769 9.08616 16.4773 9.47665 16.8684C10.1579 17.3682 11.0021 17.5937 11.8419 17.5002C12.6827 17.5935 13.5279 17.3677 14.2101 16.8674C14.6003 16.476 15.2338 16.4751 15.6251 16.8652C16.0165 17.2554 16.0174 17.8889 15.6273 18.2803C15.6262 18.2813 15.6252 18.2824 15.6242 18.2834C14.5786 19.1816 13.215 19.6202 11.8419 19.5002ZM10.0001 14.0023C10.0003 13.45 9.55269 13.0021 9.0004 13.002C8.44811 13.0018 8.00026 13.4494 8.00009 14.0016C7.99992 14.5539 8.4475 15.0018 8.99978 15.002C8.99999 15.002 9.00019 15.002 9.0004 15.002C9.55217 15.0011 9.99926 14.554 10.0001 14.0023ZM16.0001 14.0023C16.0003 13.45 15.5527 13.0021 15.0004 13.002C14.4481 13.0018 14.0003 13.4494 14.0001 14.0016C13.9999 14.5539 14.4475 15.0018 14.9998 15.002C15 15.002 15.0002 15.002 15.0004 15.002C15.5522 15.0011 15.9993 14.554 16.0001 14.0023Z" fill="#6563FF"/>
</svg>
