<svg width="24" height="24" viewBox="0 0 24 24" fill="none" xmlns="http://www.w3.org/2000/svg">
<path d="M11.4978 21.9999C11.2325 22.0002 10.9781 21.8947 10.7908 21.7069L8.29077 19.2069C7.90029 18.8166 7.90013 18.1836 8.29041 17.7932C8.29053 17.793 8.29065 17.7929 8.29077 17.7928L10.7908 15.2928C11.1829 14.904 11.816 14.9067 12.2048 15.2988C12.5913 15.6886 12.5913 16.3171 12.2048 16.7069L10.4118 18.4999L12.2048 20.2929C12.5953 20.6834 12.5952 21.3166 12.2046 21.7071C12.0171 21.8945 11.7629 21.9998 11.4978 21.9999Z" fill="#A2A1FF"/>
<path d="M21 4.5H19C18.4477 4.5 18 4.94772 18 5.5C18 6.05228 18.4477 6.5 19 6.5H20V17.5H11.4119L10.4119 18.5L11.4119 19.5H21C21.5521 19.5001 21.9999 19.0527 22 18.5005C22 18.5004 22 18.5002 22 18.5V5.5C22.0001 4.94786 21.5527 4.50014 21.0005 4.5C21.0003 4.5 21.0002 4.5 21 4.5Z" fill="#A2A1FF"/>
<path d="M12.5 2C12.7653 1.9997 13.0197 2.10515 13.207 2.293L15.707 4.793C16.0975 5.18327 16.0977 5.81619 15.7074 6.20668C15.7073 6.2068 15.7072 6.20693 15.707 6.20706L13.207 8.70706C12.8141 9.09505 12.181 9.09102 11.793 8.69806C11.4085 8.30862 11.4085 7.68242 11.793 7.293L13.586 5.5L11.793 3.707C11.4026 3.31642 11.4027 2.68325 11.7932 2.29279C11.9807 2.10537 12.2349 2.00006 12.5 2Z" fill="#6563FF"/>
<path d="M5 17.5H4V6.5H12.5859L13.5859 5.5L12.5859 4.5H3C2.44786 4.49986 2.00014 4.94734 2 5.49948C2 5.49965 2 5.49983 2 5.5V18.5C1.99986 19.0521 2.44734 19.4999 2.99948 19.5C2.99965 19.5 2.99983 19.5 3 19.5H5C5.55228 19.5 6 19.0523 6 18.5C6 17.9477 5.55228 17.5 5 17.5Z" fill="#6563FF"/>
</svg>
