<svg width="24" height="24" viewBox="0 0 24 24" fill="none" xmlns="http://www.w3.org/2000/svg">
<path d="M17.7365 14.6219L15.3105 16.8526C14.0631 17.94 12.5975 18.748 11.012 19.2224L11.6557 22.2256C11.6886 22.379 11.7571 22.5224 11.8557 22.6444C11.9542 22.7664 12.0801 22.8635 12.2231 22.9279C12.3661 22.9923 12.5222 23.0222 12.6789 23.0151C12.8355 23.0081 12.9883 22.9642 13.125 22.8872L17.0302 20.6846C17.5799 20.3506 18.0092 19.8507 18.2564 19.2569C18.5035 18.6631 18.5556 18.0062 18.4052 17.3809L17.7365 14.6219ZM7.26557 8.77591L9.35426 6.29603L6.74946 5.66755C6.1162 5.44673 5.42443 5.46253 4.80191 5.71203C4.1794 5.96153 3.6682 6.42788 3.36274 7.02493L1.16255 10.9248C1.08546 11.0614 1.04158 11.2143 1.03447 11.3709C1.02737 11.5276 1.05722 11.6838 1.12163 11.8268C1.18603 11.9698 1.28318 12.0957 1.40523 12.1942C1.52727 12.2928 1.67078 12.3612 1.82417 12.394L4.89692 13.0527C5.40633 11.489 6.21035 10.0373 7.26557 8.77591ZM16.7337 8.81629C17.0304 8.81629 17.3204 8.72831 17.567 8.56349C17.8137 8.39867 18.006 8.1644 18.1195 7.89031C18.233 7.61622 18.2627 7.31462 18.2049 7.02365C18.147 6.73268 18.0041 6.46541 17.7943 6.25563C17.5846 6.04585 17.3173 5.90299 17.0263 5.84511C16.7353 5.78723 16.4337 5.81694 16.1597 5.93047C15.8856 6.044 15.6513 6.23626 15.4865 6.48293C15.3217 6.72961 15.2337 7.01962 15.2337 7.31629C15.2338 7.71407 15.3919 8.09551 15.6732 8.37679C15.9545 8.65806 16.3359 8.81614 16.7337 8.81629Z" fill="#6563FF"/>
<path d="M22.6011 2.062C22.556 1.89072 22.4662 1.73448 22.341 1.60924C22.2158 1.48399 22.0595 1.39423 21.8882 1.34911C19.8369 0.815874 17.6766 0.873053 15.6563 1.51406C13.6361 2.15506 11.838 3.3538 10.4693 4.97217L7.26568 8.77588C5.66528 10.6847 4.65002 13.015 4.34186 15.4868C4.32209 15.6387 4.33748 15.7931 4.38684 15.9382C4.43619 16.0832 4.51819 16.2149 4.62652 16.3232L7.72662 19.4233C7.81943 19.5162 7.92965 19.5899 8.05096 19.6402C8.17227 19.6905 8.3023 19.7163 8.43362 19.7163C8.46243 19.7163 8.49124 19.7149 8.52054 19.7124C11.0303 19.505 13.4087 18.5033 15.3105 16.8526L18.9736 13.4844C20.5977 12.1193 21.8008 10.3211 22.443 8.299C23.0852 6.27691 23.14 4.11403 22.6011 2.062ZM16.7338 8.81622C16.4371 8.81622 16.1471 8.72824 15.9004 8.56342C15.6537 8.3986 15.4615 8.16433 15.3479 7.89024C15.2344 7.61615 15.2047 7.31455 15.2626 7.02358C15.3205 6.73261 15.4633 6.46534 15.6731 6.25556C15.8829 6.04578 16.1501 5.90292 16.4411 5.84504C16.7321 5.78716 17.0337 5.81687 17.3078 5.9304C17.5819 6.04393 17.8161 6.23619 17.981 6.48286C18.1458 6.72954 18.2338 7.01955 18.2338 7.31622C18.2336 7.714 18.0755 8.09545 17.7943 8.37672C17.513 8.65799 17.1315 8.81608 16.7338 8.81622Z" fill="#A2A1FF"/>
</svg>
