<svg width="24" height="24" viewBox="0 0 24 24" fill="none" xmlns="http://www.w3.org/2000/svg">
<path d="M7 6C6.44803 6.00031 6.00031 5.55311 6 5.00114C6 5.00076 6 5.00038 6 5V3C6 2.44772 6.44772 2 7 2C7.55228 2 8 2.44772 8 3V5C8.00031 5.55197 7.55311 5.99969 7.00114 6C7.00076 6 7.00038 6 7 6ZM17 6C16.448 6.00031 16.0003 5.55311 16 5.00114C16 5.00076 16 5.00038 16 5V3C16 2.44772 16.4477 2 17 2C17.5523 2 18 2.44772 18 3V5C18.0003 5.55197 17.5531 5.99969 17.0011 6C17.0008 6 17.0004 6 17 6Z" fill="#A2A1FF"/>
<path d="M19 4H18V4.99952C18 5.5518 17.5523 5.99952 17 5.99952C16.4477 5.99952 16 5.5518 16 4.99952V4H8V4.99952C8 5.5518 7.55228 5.99952 7 5.99952C6.44772 5.99952 6 5.5518 6 4.99952V4H5C3.34315 4 2 5.34315 2 7V9H22V7C22 5.34315 20.6569 4 19 4Z" fill="#6563FF"/>
<path d="M7 14C7.55228 14 8 13.5523 8 13C8 12.4477 7.55228 12 7 12C6.44772 12 6 12.4477 6 13C6 13.5523 6.44772 14 7 14Z" fill="#6563FF"/>
<path d="M7 18C7.55228 18 8 17.5523 8 17C8 16.4477 7.55228 16 7 16C6.44772 16 6 16.4477 6 17C6 17.5523 6.44772 18 7 18Z" fill="#6563FF"/>
<path d="M12 14C12.5523 14 13 13.5523 13 13C13 12.4477 12.5523 12 12 12C11.4477 12 11 12.4477 11 13C11 13.5523 11.4477 14 12 14Z" fill="#6563FF"/>
<path d="M12 18C12.5523 18 13 17.5523 13 17C13 16.4477 12.5523 16 12 16C11.4477 16 11 16.4477 11 17C11 17.5523 11.4477 18 12 18Z" fill="#6563FF"/>
<path d="M17 14C17.5523 14 18 13.5523 18 13C18 12.4477 17.5523 12 17 12C16.4477 12 16 12.4477 16 13C16 13.5523 16.4477 14 17 14Z" fill="#6563FF"/>
<path d="M17 18C17.5523 18 18 17.5523 18 17C18 16.4477 17.5523 16 17 16C16.4477 16 16 16.4477 16 17C16 17.5523 16.4477 18 17 18Z" fill="#6563FF"/>
<path d="M2 9V19C2 20.6568 3.34315 22 5 22H19C20.6569 22 22 20.6568 22 19V9H2ZM7 18C6.44772 18 6 17.5523 6 17C6 16.4477 6.44772 16 7 16C7.55228 16 8 16.4477 8 17C8 17.5523 7.55228 18 7 18ZM7 14C6.44772 14 6 13.5523 6 13C6 12.4477 6.44772 12 7 12C7.55228 12 8 12.4477 8 13C8 13.5523 7.55228 14 7 14ZM12 18C11.4477 18 11 17.5523 11 17C11 16.4477 11.4477 16 12 16C12.5523 16 13 16.4477 13 17C13 17.5523 12.5523 18 12 18ZM12 14C11.4477 14 11 13.5523 11 13C11 12.4477 11.4477 12 12 12C12.5523 12 13 12.4477 13 13C13 13.5523 12.5523 14 12 14ZM17 18C16.4477 18 16 17.5523 16 17C16 16.4477 16.4477 16 17 16C17.5523 16 18 16.4477 18 17C18 17.5523 17.5523 18 17 18ZM17 14C16.4477 14 16 13.5523 16 13C16 12.4477 16.4477 12 17 12C17.5523 12 18 12.4477 18 13C18 13.5523 17.5523 14 17 14Z" fill="#A2A1FF"/>
</svg>
