<svg width="24" height="24" viewBox="0 0 24 24" fill="none" xmlns="http://www.w3.org/2000/svg">
<path d="M19 11.0003H13.414L14.707 9.70732C14.8926 9.5194 14.9963 9.2657 14.9954 9.00161C14.9946 8.73751 14.8893 8.48447 14.7026 8.29773C14.5158 8.11099 14.2628 8.00571 13.9987 8.00489C13.7346 8.00406 13.4809 8.10775 13.293 8.29332L10.293 11.2933C10.2001 11.3862 10.1264 11.4964 10.0761 11.6177C10.0259 11.739 10 11.869 10 12.0004C10 12.1317 10.0259 12.2617 10.0761 12.383C10.1264 12.5043 10.2001 12.6146 10.293 12.7074L13.293 15.7074C13.4809 15.8929 13.7346 15.9966 13.9987 15.9958C14.2628 15.995 14.5158 15.8897 14.7026 15.7029C14.8893 15.5162 14.9946 15.2631 14.9954 14.999C14.9962 14.7349 14.8925 14.4812 14.707 14.2933L13.414 13.0003H19C19.2652 13.0003 19.5195 12.895 19.7071 12.7074C19.8946 12.5199 20 12.2655 20 12.0003C20 11.7351 19.8946 11.4808 19.7071 11.2932C19.5195 11.1057 19.2652 11.0003 19 11.0003Z" fill="#6563FF"/>
<path d="M13.4141 13L14.7071 14.293C14.8009 14.3856 14.8754 14.4959 14.9264 14.6175C14.9775 14.739 15.004 14.8695 15.0044 15.0013C15.0048 15.1332 14.9791 15.2638 14.9289 15.3857C14.8786 15.5075 14.8047 15.6183 14.7115 15.7115C14.6183 15.8047 14.5075 15.8786 14.3856 15.9288C14.2638 15.9791 14.1331 16.0048 14.0013 16.0043C13.8695 16.0039 13.739 15.9774 13.6175 15.9264C13.4959 15.8754 13.3856 15.8008 13.293 15.707L10.293 12.707C10.2001 12.6142 10.1264 12.5039 10.0762 12.3826C10.0259 12.2613 10 12.1313 10 12C10 11.8687 10.0259 11.7386 10.0762 11.6173C10.1264 11.496 10.2001 11.3858 10.293 11.2929L13.293 8.29294C13.4809 8.10738 13.7346 8.0037 13.9987 8.00453C14.2628 8.00537 14.5159 8.11066 14.7026 8.29741C14.8893 8.48415 14.9946 8.7372 14.9954 9.00129C14.9963 9.26539 14.8926 9.51909 14.707 9.707L13.4141 11H18V5C17.9991 4.20462 17.6828 3.44206 17.1204 2.87964C16.5579 2.31722 15.7954 2.00087 15 2H7C6.20462 2.00087 5.44206 2.31722 4.87964 2.87964C4.31722 3.44206 4.00087 4.20462 4 5V19C4.00087 19.7954 4.31722 20.5579 4.87964 21.1204C5.44206 21.6828 6.20462 21.9991 7 22H15C15.7954 21.9991 16.5579 21.6828 17.1204 21.1204C17.6828 20.5579 17.9991 19.7954 18 19V13H13.4141Z" fill="#A2A1FF"/>
</svg>
