<svg width="24" height="24" viewBox="0 0 24 24" fill="none" xmlns="http://www.w3.org/2000/svg">
<path d="M15.707 11.2933L11.707 7.29332C11.5189 7.10861 11.2655 7.00565 11.0019 7.00685C10.7383 7.00804 10.4858 7.11329 10.2994 7.2997C10.113 7.4861 10.0077 7.73858 10.0065 8.0022C10.0053 8.26581 10.1083 8.51923 10.293 8.70732L12.5859 11.0003H2.05C2.02 11.3303 2 11.6603 2 12.0003C2 12.3403 2.02 12.6703 2.05 13.0003H12.586L10.293 15.2933C10.1988 15.3859 10.1238 15.4961 10.0724 15.6178C10.0211 15.7395 9.99431 15.8701 9.99372 16.0022C9.99312 16.1343 10.0187 16.2651 10.069 16.3873C10.1192 16.5094 10.1932 16.6204 10.2866 16.7138C10.38 16.8071 10.4909 16.8811 10.613 16.9314C10.7352 16.9816 10.8661 17.0072 10.9981 17.0066C11.1302 17.006 11.2608 16.9793 11.3825 16.9279C11.5042 16.8765 11.6145 16.8016 11.707 16.7073L15.707 12.7073C15.7999 12.6145 15.8735 12.5043 15.9238 12.383C15.9741 12.2617 15.9999 12.1316 15.9999 12.0003C15.9999 11.869 15.9741 11.739 15.9238 11.6177C15.8735 11.4964 15.7999 11.3862 15.707 11.2933Z" fill="#6563FF"/>
<path d="M12.0001 2C9.52111 2.00018 7.13058 2.92107 5.29217 4.58403C3.45377 6.24699 2.29853 8.53349 2.05054 11H12.586L10.2931 8.707C10.1083 8.51891 10.0054 8.26549 10.0066 8.00188C10.0078 7.73826 10.113 7.48578 10.2994 7.29937C10.4858 7.11297 10.7383 7.00772 11.0019 7.00652C11.2655 7.00533 11.519 7.10829 11.7071 7.293L15.7071 11.293C15.7999 11.3858 15.8736 11.4961 15.9239 11.6174C15.9742 11.7387 16 11.8687 16 12C16 12.1313 15.9742 12.2614 15.9239 12.3827C15.8736 12.504 15.7999 12.6142 15.7071 12.7071L11.7071 16.7071C11.5191 16.8926 11.2654 16.9963 11.0013 16.9955C10.7372 16.9946 10.4842 16.8893 10.2975 16.7026C10.1107 16.5158 10.0054 16.2628 10.0046 15.9987C10.0038 15.7346 10.1075 15.4809 10.2931 15.293L12.586 13H2.05054C2.24409 14.9254 2.99215 16.7534 4.20401 18.2621C5.41586 19.7708 7.03944 20.8954 8.87783 21.4997C10.7162 22.1039 12.6904 22.1618 14.5611 21.6662C16.4317 21.1706 18.1183 20.143 19.4164 18.7078C20.7145 17.2726 21.5683 15.4916 21.8743 13.5808C22.1802 11.67 21.9252 9.7115 21.1401 7.94278C20.355 6.17405 19.0735 4.67113 17.4512 3.61628C15.8288 2.56142 13.9352 1.99997 12.0001 2Z" fill="#A2A1FF"/>
</svg>
