<svg width="24" height="24" viewBox="0 0 24 24" fill="none" xmlns="http://www.w3.org/2000/svg">
<path d="M21 11.9999C21 11.6599 20.98 11.3299 20.95 10.9999H12.5V9.49991C12.5 9.30214 12.4413 9.10882 12.3315 8.94438C12.2216 8.77994 12.0654 8.65178 11.8827 8.5761C11.7 8.50042 11.4989 8.48063 11.3049 8.51922C11.111 8.55782 10.9328 8.65306 10.793 8.79291L8.29297 11.2929C8.20009 11.3857 8.12641 11.496 8.07614 11.6173C8.02587 11.7386 8 11.8686 8 11.9999C8 12.1313 8.02587 12.2613 8.07614 12.3826C8.12641 12.5039 8.20009 12.6141 8.29297 12.707L10.793 15.207C10.9328 15.3468 11.111 15.4421 11.305 15.4807C11.4989 15.5193 11.7 15.4995 11.8827 15.4238C12.0654 15.3481 12.2216 15.2199 12.3315 15.0555C12.4413 14.891 12.5 14.6977 12.5 14.4999V12.9999H20.95C20.98 12.6699 21 12.3399 21 11.9999Z" fill="#6563FF"/>
<path d="M12.5 13V14.5C12.5 14.6978 12.4414 14.8911 12.3315 15.0556C12.2216 15.22 12.0654 15.3482 11.8827 15.4239C11.7 15.4995 11.4989 15.5193 11.305 15.4807C11.111 15.4421 10.9328 15.3469 10.793 15.207L8.29299 12.707C8.20011 12.6142 8.12643 12.504 8.07616 12.3826C8.02589 12.2613 8.00001 12.1313 8.00001 12C8.00001 11.8687 8.02589 11.7386 8.07616 11.6173C8.12643 11.496 8.20011 11.3858 8.29299 11.293L10.793 8.79295C10.9328 8.65309 11.111 8.55785 11.305 8.51926C11.4989 8.48067 11.7 8.50046 11.8827 8.57615C12.0654 8.65183 12.2216 8.78001 12.3315 8.94445C12.4414 9.1089 12.5 9.30224 12.5 9.50001V11H20.9495C20.693 8.44737 19.4652 6.09098 17.52 4.41817C15.5749 2.74536 13.0613 1.88411 10.499 2.01255C7.93673 2.14099 5.52182 3.24928 3.75373 5.10821C1.98564 6.96715 0.999634 9.43451 0.999634 12C0.999634 14.5655 1.98564 17.0329 3.75373 18.8918C5.52182 20.7507 7.93673 21.859 10.499 21.9875C13.0613 22.1159 15.5749 21.2547 17.52 19.5819C19.4652 17.909 20.693 15.5526 20.9495 13H12.5Z" fill="#A2A1FF"/>
</svg>
