<svg width="24" height="24" viewBox="0 0 24 24" fill="none" xmlns="http://www.w3.org/2000/svg">
<path d="M16.4396 15.9935C16.0258 16.5483 15.462 16.9732 14.8148 17.2183C14.0138 17.5371 13.1562 17.6893 12.2944 17.6654C11.2934 17.6978 10.2993 17.488 9.3968 17.0536C8.86892 16.7724 8.41633 16.3685 8.07716 15.8758C7.77608 15.464 7.60414 14.9721 7.58316 14.4624C7.57836 14.2002 7.69071 13.9495 7.88962 13.7786C8.10134 13.5862 8.3802 13.4847 8.66605 13.4961C8.89727 13.4866 9.12395 13.5623 9.30305 13.7088C9.49955 13.8921 9.65234 14.1172 9.75013 14.3674C9.87111 14.6812 10.038 14.9753 10.2453 15.24C10.4349 15.4888 10.6865 15.6836 10.9749 15.8049C11.3696 15.9712 11.7953 16.0515 12.2236 16.0404C12.8294 16.0736 13.4305 15.9173 13.9434 15.5933C14.3462 15.3579 14.5965 14.9289 14.6032 14.4624C14.6169 14.1346 14.4881 13.8168 14.2499 13.5911C13.9905 13.3454 13.6748 13.1672 13.3304 13.0719C12.9543 12.9541 12.4351 12.8363 11.7993 12.6957C11.0692 12.5413 10.3526 12.3286 9.65638 12.0599C9.12125 11.8455 8.65056 11.4965 8.28987 11.0468C7.9487 10.5931 7.77389 10.0359 7.79475 9.4687C7.79408 8.88956 7.98462 8.3264 8.3368 7.86665C8.73585 7.36933 9.26628 6.9938 9.86793 6.78265C10.6316 6.51345 11.4381 6.38595 12.2476 6.40642C12.8851 6.39826 13.5203 6.48536 14.1321 6.66485C14.608 6.80273 15.0548 7.02632 15.4505 7.32464C15.7658 7.55967 16.0304 7.85606 16.2282 8.19598C16.3793 8.46177 16.4603 8.76163 16.4637 9.06737C16.4644 9.33533 16.3534 9.59145 16.1572 9.77404C15.9615 9.97932 15.6871 10.0909 15.4036 10.0805C15.1762 10.094 14.9512 10.0272 14.7679 9.89184C14.5786 9.7149 14.4195 9.50826 14.2968 9.28008C14.1093 8.9063 13.8442 8.57685 13.5192 8.31377C13.0834 8.04116 12.5711 7.91718 12.0589 7.96044C11.53 7.93579 11.0056 8.06701 10.5506 8.33782C10.2183 8.51654 10.0039 8.85633 9.98573 9.23321C9.98699 9.43677 10.0531 9.63463 10.1744 9.79809C10.3203 9.97309 10.5062 10.1104 10.7164 10.1983C10.9311 10.3154 11.1608 10.4028 11.3991 10.4579C11.6346 10.5288 12.0121 10.6226 12.5529 10.7404C13.2127 10.8821 13.8256 11.0468 14.3676 11.2114C14.8584 11.3568 15.3262 11.5709 15.757 11.8472C16.1239 12.0883 16.4303 12.4108 16.6523 12.7895C16.8793 13.2172 16.9927 13.6959 16.9817 14.18C17.0097 14.8282 16.8188 15.467 16.4396 15.9935Z" fill="#A2A1FF"/>
<path d="M21.4345 14.1553C21.5768 13.4893 21.6477 12.81 21.6461 12.129C21.6163 6.89533 17.3496 2.67664 12.1159 2.70636C12.1125 2.70636 12.1091 2.70642 12.1058 2.70642C11.561 2.70502 11.0172 2.7525 10.4808 2.8482C7.89222 1.22167 4.47516 2.00164 2.84864 4.59027C2.30682 5.45252 2.01343 6.44751 2.00061 7.46576C2.00122 8.43518 2.26141 9.38672 2.75415 10.2216C2.6319 10.8424 2.56873 11.4733 2.56549 12.1061C2.60901 17.2636 6.82532 21.4094 11.9829 21.3658C12.0239 21.3655 12.0648 21.3649 12.1058 21.364C12.6908 21.3683 13.2747 21.3127 13.8484 21.1981C14.6402 21.6782 15.5389 21.9537 16.4637 21.9998C19.4637 22.0565 21.9417 19.6706 21.9985 16.6705C22.015 15.799 21.8216 14.9363 21.4345 14.1553ZM16.4396 15.9929C16.0258 16.5476 15.462 16.9725 14.8148 17.2176C14.0138 17.5364 13.1562 17.6885 12.2944 17.6647C11.2934 17.6971 10.2993 17.4873 9.3968 17.0529C8.86891 16.7717 8.41633 16.3678 8.07716 15.8751C7.77607 15.4634 7.60414 14.9714 7.58314 14.4617C7.57838 14.1995 7.69068 13.9488 7.8896 13.7779C8.10133 13.5855 8.3802 13.4841 8.66603 13.4954C8.89729 13.4859 9.12398 13.5616 9.30305 13.7081C9.49952 13.8914 9.65235 14.1165 9.75013 14.3668C9.8711 14.6805 10.038 14.9745 10.2453 15.2393C10.4349 15.4882 10.6865 15.6829 10.9749 15.8042C11.3696 15.9706 11.7954 16.0508 12.2236 16.0397C12.8294 16.0729 13.4305 15.9166 13.9434 15.5926C14.3462 15.3572 14.5965 14.9282 14.6032 14.4617C14.617 14.1338 14.4881 13.8161 14.2499 13.5904C13.9905 13.3447 13.6748 13.1664 13.3305 13.0712C12.9543 12.9534 12.4351 12.8356 11.7993 12.695C11.0692 12.5406 10.3526 12.3279 9.65639 12.0592C9.12123 11.8448 8.65059 11.4958 8.28987 11.0461C7.94868 10.5924 7.77388 10.0353 7.79475 9.46801C7.79407 8.88886 7.98462 8.32575 8.33679 7.86597C8.73584 7.36866 9.2663 6.99311 9.86792 6.78199C10.6316 6.51276 11.438 6.38526 12.2476 6.40577C12.8851 6.39759 13.5203 6.48469 14.1321 6.66419C14.608 6.80207 15.0548 7.02564 15.4505 7.32398C15.7658 7.55903 16.0303 7.85541 16.2281 8.19532C16.3793 8.46113 16.4603 8.76093 16.4637 9.06672C16.4644 9.33466 16.3533 9.59077 16.1572 9.77339C15.9615 9.97865 15.6871 10.0902 15.4036 10.0799C15.1761 10.0933 14.9512 10.0265 14.7679 9.89119C14.5786 9.71425 14.4195 9.50758 14.2968 9.27943C14.1093 8.90565 13.8442 8.57618 13.5192 8.31312C13.0834 8.04048 12.571 7.91651 12.0589 7.95979C11.53 7.93513 11.0055 8.06636 10.5506 8.33717C10.2182 8.51588 10.0039 8.85566 9.98571 9.23256C9.98699 9.43611 10.053 9.63399 10.1744 9.79744C10.3203 9.97243 10.5062 10.1097 10.7164 10.1977C10.9311 10.3148 11.1608 10.4021 11.399 10.4572C11.6346 10.5282 12.012 10.6219 12.5528 10.7397C13.2126 10.8815 13.8256 11.0462 14.3676 11.2108C14.8584 11.3562 15.3262 11.5702 15.757 11.8466C16.1239 12.0877 16.4302 12.4101 16.6523 12.7888C16.8793 13.2165 16.9927 13.6953 16.9817 14.1793C17.0097 14.8275 16.8188 15.4663 16.4396 15.9929Z" fill="#6563FF"/>
</svg>
