<svg width="24" height="24" viewBox="0 0 24 24" fill="none" xmlns="http://www.w3.org/2000/svg">
<path d="M16.5 23C15.5279 22.9998 14.5681 22.7816 13.6915 22.3614C12.0478 22.6313 10.3634 22.506 8.77774 21.9958C7.19209 21.4855 5.75071 20.6051 4.57287 19.4272C3.39502 18.2494 2.51457 16.808 2.00434 15.2224C1.49411 13.6367 1.36878 11.9523 1.63872 10.3086C1.05698 9.09526 0.866226 7.73123 1.09278 6.40482C1.31933 5.0784 1.95202 3.85502 2.90352 2.90352C3.85502 1.95202 5.0784 1.31933 6.40482 1.09278C7.73123 0.866226 9.09526 1.05698 10.3086 1.63872C11.9523 1.36878 13.6367 1.49411 15.2224 2.00434C16.808 2.51457 18.2494 3.39502 19.4272 4.57287C20.6051 5.75071 21.4855 7.19209 21.9958 8.77774C22.506 10.3634 22.6313 12.0478 22.3614 13.6915C22.8364 14.6822 23.0524 15.7773 22.9894 16.8742C22.9263 17.9711 22.5861 19.0342 22.0006 19.964C21.4152 20.8937 20.6036 21.6599 19.6416 22.1909C18.6797 22.7218 17.5988 23.0002 16.5 23Z" fill="#A2A1FF"/>
<path d="M16.1357 12.8656C15.8895 12.4423 15.5483 12.082 15.1392 11.8129C14.7387 11.5557 14.3042 11.3562 13.8482 11.2201C13.5684 11.1355 13.2586 11.0527 12.9378 10.973C12.6587 10.8951 12.3264 10.8153 11.9156 10.725C11.4263 10.6225 10.9461 10.4807 10.4796 10.3011C10.2392 10.2076 10.0271 10.0536 9.86383 9.85388C9.74469 9.69059 9.6882 9.48992 9.70465 9.28845C9.70411 9.07234 9.77597 8.86227 9.90875 8.69177C10.095 8.47327 10.3367 8.30898 10.6085 8.21618C11.0662 8.05897 11.5485 7.98586 12.0322 8.00037C12.4059 7.99438 12.7785 8.04374 13.1377 8.14685C13.3762 8.21363 13.601 8.32243 13.8013 8.46814C13.9307 8.5604 14.0411 8.67679 14.1265 8.81092C14.1884 8.92696 14.2727 9.02963 14.3744 9.11305C14.4761 9.19646 14.5933 9.25899 14.7192 9.29703C14.8451 9.33507 14.9773 9.34789 15.1082 9.33474C15.2391 9.3216 15.3661 9.28275 15.482 9.22043C15.5978 9.1581 15.7002 9.07353 15.7833 8.97155C15.8664 8.86957 15.9286 8.7522 15.9662 8.62615C16.0039 8.50011 16.0163 8.36788 16.0027 8.23703C15.9891 8.10618 15.9499 7.9793 15.8872 7.86365C15.6762 7.49062 15.3913 7.16463 15.0498 6.90565C14.6555 6.60276 14.2083 6.37591 13.731 6.2367C13.1797 6.0737 12.6071 5.99404 12.0322 6.00037C11.3018 5.98485 10.5747 6.10368 9.88723 6.35096C9.26521 6.57674 8.71862 6.97179 8.30908 7.49158C7.91717 8.00867 7.7049 8.63963 7.70459 9.28846C7.6884 9.9344 7.89302 10.5665 8.28467 11.0805C8.66275 11.5567 9.15835 11.9263 9.72267 12.1527C10.1491 12.3168 10.5857 12.453 11.0297 12.5606C11.0381 12.5634 12.5551 12.9369 12.5611 12.9387C12.8094 13.002 13.0481 13.0674 13.2666 13.1342C13.5359 13.2128 13.7929 13.3285 14.0303 13.4779C14.1779 13.5709 14.302 13.697 14.3926 13.8461C14.4807 14.028 14.5215 14.2292 14.5112 14.4311C14.5252 14.6924 14.4498 14.9508 14.2974 15.1635C14.0914 15.4314 13.8128 15.6345 13.4946 15.7485C13.0211 15.9312 12.5156 16.0169 12.0083 16.0004C11.4212 16.0231 10.8371 15.9053 10.3047 15.6566C10.059 15.5257 9.84796 15.3383 9.68896 15.1097C9.57747 14.9634 9.50778 14.7896 9.4873 14.6068C9.4873 14.3416 9.38195 14.0872 9.19441 13.8997C9.00687 13.7122 8.75252 13.6068 8.4873 13.6068C8.22209 13.6068 7.96773 13.7122 7.7802 13.8997C7.59266 14.0872 7.4873 14.3416 7.4873 14.6068C7.50407 15.1965 7.69786 15.7674 8.04346 16.2455C8.38891 16.7433 8.84914 17.1506 9.38525 17.433C10.201 17.8311 11.101 18.0258 12.0083 18.0004C12.7793 18.0189 13.546 17.8811 14.2622 17.5951C14.928 17.3398 15.506 16.898 15.9272 16.3226C16.3275 15.7616 16.5325 15.0847 16.5107 14.3959C16.5201 13.862 16.3909 13.3347 16.1357 12.8656Z" fill="#6563FF"/>
</svg>
