<svg width="24" height="24" viewBox="0 0 24 24" fill="none" xmlns="http://www.w3.org/2000/svg">
<path d="M9.3382 2C8.80788 2.0001 8.29931 2.21087 7.92439 2.58594C7.54946 2.96101 7.33889 3.46965 7.33899 3.99997C7.3391 4.5303 7.54986 5.03886 7.92493 5.41379C8.3 5.78871 8.80865 5.99928 9.33897 5.99918H11.3353V4.00041C11.3356 3.47036 11.1253 2.9619 10.7508 2.58679C10.3764 2.21168 9.86825 2.00062 9.3382 2ZM9.3382 7.33333H4.01628C3.48585 7.33322 2.9771 7.54383 2.60195 7.91883C2.2268 8.29382 2.01598 8.80249 2.01587 9.33292C2.01576 9.86335 2.22637 10.3721 2.60137 10.7473C2.97636 11.1224 3.48503 11.3332 4.01546 11.3333H9.3382C9.86863 11.3333 10.3773 11.1226 10.7524 10.7475C11.1275 10.3725 11.3382 9.86376 11.3382 9.33333C11.3382 8.8029 11.1275 8.29419 10.7524 7.91912C10.3773 7.54404 9.86863 7.33333 9.3382 7.33333Z" fill="#6563FF"/>
<path d="M21.98 9.33276C21.98 8.8033 21.7697 8.29553 21.3953 7.92114C21.0209 7.54676 20.5131 7.33643 19.9837 7.33643C19.4542 7.33643 18.9464 7.54676 18.572 7.92114C18.1977 8.29553 17.9873 8.8033 17.9873 9.33276V11.3332H19.9837C20.2461 11.3329 20.5059 11.281 20.7483 11.1803C20.9906 11.0796 21.2108 10.9322 21.3962 10.7465C21.5815 10.5607 21.7285 10.3402 21.8287 10.0977C21.9289 9.85511 21.9803 9.59519 21.98 9.33276ZM16.6573 9.33276V3.99942C16.6578 3.73694 16.6067 3.47691 16.5066 3.23424C16.4066 2.99157 16.2596 2.77101 16.0742 2.5852C15.8889 2.39939 15.6686 2.25197 15.4262 2.15138C15.1837 2.0508 14.9238 1.99902 14.6613 1.99902C14.3989 1.99902 14.1389 2.0508 13.8965 2.15138C13.654 2.25197 13.4338 2.39939 13.2484 2.5852C13.063 2.77101 12.9161 2.99157 12.8161 3.23424C12.716 3.47691 12.6648 3.73694 12.6654 3.99942V9.33276C12.6648 9.59525 12.716 9.85527 12.8161 10.0979C12.9161 10.3406 13.063 10.5612 13.2484 10.747C13.4338 10.9328 13.654 11.0802 13.8965 11.1808C14.1389 11.2814 14.3989 11.3332 14.6613 11.3332C14.9238 11.3332 15.1837 11.2814 15.4262 11.1808C15.6686 11.0802 15.8889 10.9328 16.0742 10.747C16.2596 10.5612 16.4066 10.3406 16.5066 10.0979C16.6067 9.85527 16.6578 9.59525 16.6573 9.33276Z" fill="#C1C0FF"/>
<path d="M14.661 22.0002C15.1913 22.0002 15.6999 21.7895 16.0749 21.4145C16.4499 21.0395 16.6606 20.5309 16.6606 20.0006C16.6606 19.4703 16.4499 18.9616 16.0749 18.5867C15.6999 18.2117 15.1913 18.001 14.661 18.001H12.6646V20.0006C12.6645 20.5304 12.8747 21.0386 13.249 21.4135C13.6234 21.7884 14.1312 21.9994 14.661 22.0002ZM14.661 16.666H19.9837C20.5142 16.6661 21.0229 16.4555 21.3981 16.0805C21.7732 15.7055 21.984 15.1969 21.9842 14.6664C21.9843 14.136 21.7737 13.6272 21.3987 13.2521C21.0237 12.8769 20.515 12.6661 19.9846 12.666H14.6618C14.1313 12.6659 13.6226 12.8765 13.2474 13.2515C12.8723 13.6265 12.6615 14.1352 12.6614 14.6656C12.6613 15.196 12.8719 15.7048 13.2469 16.0799C13.6219 16.4551 14.1305 16.6659 14.661 16.666H14.661Z" fill="#8382FF"/>
<path d="M2.02002 14.6656C2.02002 15.1951 2.23035 15.7028 2.60473 16.0772C2.97912 16.4516 3.48689 16.6619 4.01635 16.6619C4.54581 16.6619 5.05358 16.4516 5.42797 16.0772C5.80235 15.7028 6.01268 15.1951 6.01268 14.6656V12.666H4.01633C3.48645 12.6665 2.97845 12.8774 2.60408 13.2524C2.2297 13.6274 2.01961 14.1357 2.02002 14.6656ZM7.34275 14.6656V19.9989C7.34211 20.2614 7.39325 20.5214 7.49324 20.7641C7.59324 21.0068 7.74012 21.2274 7.92548 21.4133C8.11084 21.5991 8.33103 21.7466 8.57346 21.8472C8.81589 21.9478 9.07578 21.9997 9.33826 21.9997C9.60075 21.9998 9.86066 21.9481 10.1031 21.8475C10.3456 21.747 10.5659 21.5996 10.7513 21.4138C10.9367 21.2281 11.0837 21.0075 11.1838 20.7649C11.2839 20.5222 11.3351 20.2622 11.3346 19.9998V14.6672C11.3353 14.4048 11.2842 14.1447 11.1842 13.902C11.0843 13.6593 10.9375 13.4387 10.7521 13.2528C10.5668 13.0669 10.3467 12.9194 10.1043 12.8188C9.86185 12.7181 9.60197 12.6662 9.33949 12.6661C9.07701 12.666 8.81709 12.7177 8.57461 12.8181C8.33212 12.9186 8.11184 13.0659 7.92636 13.2517C7.74089 13.4374 7.59388 13.6579 7.49373 13.9005C7.39359 14.1431 7.34228 14.4031 7.34275 14.6656Z" fill="#A2A1FF"/>
</svg>
