<svg width="24" height="24" viewBox="0 0 24 24" fill="none" xmlns="http://www.w3.org/2000/svg">
<path d="M9.34 2C8.80957 2 8.30086 2.21071 7.92579 2.58579C7.55071 2.96086 7.34 3.46957 7.34 4C7.34 4.53043 7.55071 5.03914 7.92579 5.41421C8.30086 5.78929 8.80957 6 9.34 6H11.34V4C11.34 3.46957 11.1293 2.96086 10.7542 2.58579C10.3791 2.21071 9.87043 2 9.34 2ZM9.34 7.33H4C3.46957 7.33 2.96086 7.54071 2.58579 7.91579C2.21071 8.29086 2 8.79957 2 9.33C2 9.86043 2.21071 10.3691 2.58579 10.7442C2.96086 11.1193 3.46957 11.33 4 11.33H9.34C9.87043 11.33 10.3791 11.1193 10.7542 10.7442C11.1293 10.3691 11.34 9.86043 11.34 9.33C11.34 8.79957 11.1293 8.29086 10.7542 7.91579C10.3791 7.54071 9.87043 7.33 9.34 7.33Z" fill="#C1C0FF"/>
<path d="M22.0001 9.33C22.0001 8.79957 21.7893 8.29086 21.4143 7.91579C21.0392 7.54071 20.5305 7.33 20.0001 7.33C19.4696 7.33 18.9609 7.54071 18.5858 7.91579C18.2108 8.29086 18.0001 8.79957 18.0001 9.33V11.33H20.0001C20.5305 11.33 21.0392 11.1193 21.4143 10.7442C21.7893 10.3691 22.0001 9.86043 22.0001 9.33ZM16.6801 9.33V4C16.6801 3.46957 16.4693 2.96086 16.0943 2.58579C15.7192 2.21071 15.2105 2 14.6801 2C14.1496 2 13.6409 2.21071 13.2658 2.58579C12.8908 2.96086 12.6801 3.46957 12.6801 4V9.33C12.6801 9.86043 12.8908 10.3691 13.2658 10.7442C13.6409 11.1193 14.1496 11.33 14.6801 11.33C15.2105 11.33 15.7192 11.1193 16.0943 10.7442C16.4693 10.3691 16.6801 9.86043 16.6801 9.33Z" fill="#A2A1FF"/>
<path d="M14.66 21.9999C15.1905 21.9999 15.6992 21.7892 16.0742 21.4141C16.4493 21.0391 16.66 20.5304 16.66 19.9999C16.66 19.4695 16.4493 18.9608 16.0742 18.5857C15.6992 18.2106 15.1905 17.9999 14.66 17.9999H12.66V19.9999C12.66 20.5304 12.8707 21.0391 13.2458 21.4141C13.6209 21.7892 14.1296 21.9999 14.66 21.9999ZM14.66 16.6699H20C20.5305 16.6699 21.0392 16.4592 21.4142 16.0841C21.7893 15.7091 22 15.2004 22 14.6699C22 14.1395 21.7893 13.6308 21.4142 13.2557C21.0392 12.8806 20.5305 12.6699 20 12.6699H14.66C14.1296 12.6699 13.6209 12.8806 13.2458 13.2557C12.8707 13.6308 12.66 14.1395 12.66 14.6699C12.66 15.2004 12.8707 15.7091 13.2458 16.0841C13.6209 16.4592 14.1296 16.6699 14.66 16.6699Z" fill="#8382FF"/>
<path d="M2 14.6699C2 15.2004 2.21071 15.7091 2.58579 16.0841C2.96086 16.4592 3.46957 16.6699 4 16.6699C4.53043 16.6699 5.03914 16.4592 5.41421 16.0841C5.78929 15.7091 6 15.2004 6 14.6699V12.6699H4C3.46957 12.6699 2.96086 12.8806 2.58579 13.2557C2.21071 13.6308 2 14.1395 2 14.6699ZM7.32 14.6699V19.9999C7.32 20.5304 7.53071 21.0391 7.90579 21.4141C8.28086 21.7892 8.78957 21.9999 9.32 21.9999C9.85043 21.9999 10.3591 21.7892 10.7342 21.4141C11.1093 21.0391 11.32 20.5304 11.32 19.9999V14.6699C11.32 14.1395 11.1093 13.6308 10.7342 13.2557C10.3591 12.8806 9.85043 12.6699 9.32 12.6699C8.78957 12.6699 8.28086 12.8806 7.90579 13.2557C7.53071 13.6308 7.32 14.1395 7.32 14.6699Z" fill="#6563FF"/>
</svg>
