<svg width="24" height="24" viewBox="0 0 24 24" fill="none" xmlns="http://www.w3.org/2000/svg">
<path d="M3.80846 11.6512C4.23037 11.7325 4.65709 11.5353 4.86846 11.1612C5.26284 11.3634 5.69578 11.4793 6.13846 11.5012C6.61427 11.5092 7.07411 11.3296 7.41846 11.0012C7.6248 10.7998 7.73415 10.5191 7.71846 10.2312V9.61116C7.55218 8.42855 7.60301 7.22553 7.86846 6.06116C8.56358 4.4806 10.1422 3.47424 11.8685 3.51116H12.2685C13.9955 3.47151 15.5755 4.47876 16.2685 6.06116C16.5357 7.25238 16.5865 8.48195 16.4185 9.69116V10.2312C16.4024 10.524 16.5157 10.8092 16.7285 11.0112C17.0636 11.3351 17.5124 11.5146 17.9785 11.5112C18.4126 11.4733 18.8345 11.3474 19.2185 11.1412C19.378 11.5068 19.7396 11.7426 20.1385 11.7412C20.6907 11.7412 21.1385 11.2935 21.1385 10.7412C21.0875 10.0551 20.6114 9.47496 19.9485 9.29116C19.4779 9.09615 18.9491 9.09615 18.4785 9.29116C18.6452 7.94741 18.5224 6.58354 18.1185 5.29116C17.113 2.92543 14.7577 1.42013 12.1885 1.50116H11.7885C9.28339 1.46496 7.00114 2.93523 5.99846 5.23116C5.5814 6.5554 5.46189 7.95539 5.64846 9.33116L5.53846 9.28116C4.56816 8.88161 3.45768 9.3443 3.05814 10.3146C3.03566 10.3692 3.01575 10.4248 2.99846 10.4812C2.89627 11.0239 3.25341 11.5467 3.79616 11.6489C3.80025 11.6497 3.80435 11.6504 3.80846 11.6512ZM21.9985 16.1112C20.7422 15.8321 19.6567 15.047 18.9985 13.9412C18.6892 13.4828 18.0669 13.3619 17.6085 13.6712C17.1501 13.9805 17.0292 14.6028 17.3385 15.0612C17.957 16.0052 18.7766 16.8008 19.7385 17.3912C19.59 17.4261 19.4398 17.4529 19.2885 17.4712C18.7106 17.6028 18.2829 18.091 18.2285 18.6812C17.5665 18.5693 16.8904 18.5693 16.2285 18.6812C15.4894 18.8441 14.8023 19.1877 14.2285 19.6812C13.6421 20.1988 12.8992 20.5051 12.1185 20.5512H11.8585C11.0777 20.5051 10.3348 20.1988 9.74846 19.6812C9.19161 19.2128 8.52927 18.8868 7.81846 18.7312C7.15609 18.6242 6.48083 18.6242 5.81846 18.7312C5.75678 18.1407 5.32692 17.6546 4.74846 17.5212L4.29846 17.4012C4.9774 17.0085 5.58305 16.5009 6.08846 15.9012C6.32844 15.621 6.54264 15.3198 6.72846 15.0012C7.02475 14.5351 6.8871 13.9171 6.42102 13.6208C5.95494 13.3245 5.33692 13.4621 5.04063 13.9282C5.02556 13.9519 5.01149 13.9763 4.99846 14.0012C4.86295 14.218 4.71259 14.4251 4.54846 14.6212C3.9045 15.4074 2.99956 15.9362 1.99846 16.1112C1.40634 16.2237 0.982968 16.7487 0.998458 17.3512C0.997828 17.5336 1.0353 17.7141 1.10846 17.8812C1.42846 18.6012 2.26846 19.0512 3.89846 19.3612V19.4812C3.89846 19.6012 3.95846 19.7312 3.98846 19.8312C4.12874 20.4228 4.66043 20.8382 5.26846 20.8312C5.47164 20.8288 5.67352 20.7985 5.86846 20.7412C6.39439 20.6483 6.93253 20.6483 7.45846 20.7412C7.8712 20.8619 8.25316 21.0699 8.57846 21.3512C9.55444 22.1124 10.7608 22.5181 11.9985 22.5012H12.1585C13.36 22.4591 14.5137 22.0195 15.4385 21.2512C15.7638 20.9699 16.1457 20.7619 16.5585 20.6412C17.084 20.558 17.6207 20.5783 18.1385 20.7012C18.3432 20.7373 18.5505 20.7573 18.7585 20.7612C19.3344 20.7769 19.8466 20.397 19.9985 19.8412C19.9985 19.7212 20.0685 19.6012 20.0985 19.4812V19.3612C21.7285 19.0512 22.5685 18.6112 22.8585 17.9412C22.9393 17.7825 22.9869 17.6089 22.9985 17.4312C23.0462 16.8018 22.6172 16.2356 21.9985 16.1112Z" fill="#6563FF"/>
</svg>
