<svg width="24" height="24" viewBox="0 0 24 24" fill="none" xmlns="http://www.w3.org/2000/svg">
<path d="M19.1737 15.6513C17.8006 15.3188 16.6619 14.3637 16.0953 13.0696L16.0913 13.061C15.9706 12.8637 15.9432 12.6231 16.0165 12.4038C16.1574 12.0717 16.6238 11.9237 16.9328 11.8256C17.0099 11.8011 17.0829 11.778 17.1401 11.7553C17.6986 11.5347 17.8122 11.3063 17.8094 11.1535C17.7794 10.9585 17.6342 10.8011 17.4422 10.7554L17.4381 10.7539C17.3552 10.7206 17.2666 10.7036 17.1772 10.7039C17.0985 10.7026 17.0204 10.7181 16.9481 10.7494C16.73 10.8597 16.4924 10.9259 16.2487 10.9442C16.1082 10.9475 15.9711 10.9016 15.8609 10.8145C15.8677 10.69 15.8756 10.5617 15.8842 10.426L15.8872 10.3782C16.028 9.39167 15.968 8.38683 15.7108 7.42402C15.0908 6.01087 13.6856 5.10563 12.1426 5.12531L11.8479 5.12806C10.307 5.10903 8.90427 6.01375 8.28608 7.42531C8.0289 8.38724 7.96882 9.39123 8.10945 10.377C8.11891 10.5228 8.1277 10.6687 8.13581 10.8147C8.01445 10.9097 7.86209 10.9563 7.70832 10.9453C7.44961 10.9342 7.19635 10.8674 6.96589 10.7493C6.90938 10.7243 6.84805 10.712 6.78626 10.7134C6.52538 10.7032 6.28685 10.8599 6.1927 11.1034C6.13276 11.4187 6.5829 11.6472 6.85664 11.7553C6.9145 11.7783 6.98713 11.8013 7.06391 11.8256C7.37269 11.9236 7.83937 12.0716 7.9803 12.4039C8.05345 12.6233 8.02607 12.8639 7.90547 13.0613L7.90147 13.0697C7.69914 13.5102 7.43557 13.9199 7.11857 14.2867C6.54267 15.0031 5.72767 15.4877 4.82322 15.6515C4.73471 15.6661 4.67141 15.745 4.67643 15.8346C4.67833 15.8674 4.68602 15.8995 4.69914 15.9296C4.8278 16.2306 5.47398 16.4792 6.56767 16.6479C6.6699 16.6637 6.71318 16.8304 6.77287 17.1035C6.79673 17.2128 6.82145 17.3263 6.85594 17.4434C6.87921 17.551 6.98026 17.6235 7.08964 17.611C7.19445 17.6051 7.29856 17.5901 7.4008 17.5663C7.67036 17.5075 7.94522 17.4764 8.22111 17.4735C8.41931 17.474 8.61713 17.4907 8.8126 17.5235C9.2256 17.6282 9.60975 17.8244 9.9366 18.0977C10.4882 18.5688 11.1814 18.842 11.9061 18.8739C11.9308 18.8739 11.9555 18.8731 11.9794 18.871C12.0095 18.8724 12.0491 18.8739 12.0906 18.8739C12.8157 18.8418 13.5092 18.5684 14.0612 18.0972C14.3877 17.8242 14.7715 17.6281 15.1841 17.5236C15.3796 17.4909 15.5775 17.4742 15.7757 17.4736C16.0514 17.4749 16.3262 17.504 16.5961 17.5605C16.6984 17.5829 16.8026 17.5961 16.9073 17.5999H16.9244C17.027 17.6081 17.1197 17.5388 17.1408 17.4381C17.1748 17.3224 17.1998 17.2125 17.2242 17.1003C17.2833 16.8286 17.3266 16.6627 17.4293 16.6468C18.5232 16.4778 19.1693 16.2296 19.2972 15.9302C19.3105 15.8999 19.3184 15.8675 19.3204 15.8345C19.3253 15.7449 19.2621 15.666 19.1737 15.6513Z" fill="#A2A1FF"/>
<path d="M17.5081 2H6.50806C4.02277 2 2.00806 4.01471 2.00806 6.5V17.5C2.00806 19.9853 4.02277 22 6.50806 22H17.5081C19.9933 22 22.0081 19.9853 22.0081 17.5V6.5C22.0081 4.01471 19.9933 2 17.5081 2ZM19.2972 15.9307C19.1694 16.23 18.5232 16.4783 17.4293 16.6472C17.3267 16.6631 17.2834 16.829 17.2242 17.1007C17.1998 17.2129 17.1749 17.3229 17.1408 17.4385C17.1197 17.5392 17.027 17.6085 16.9245 17.6003H16.9073C16.8026 17.5965 16.6985 17.5833 16.5961 17.5609C16.3263 17.5044 16.0514 17.4753 15.7757 17.4741C15.5775 17.4745 15.3796 17.4913 15.1841 17.524C14.7715 17.6285 14.3878 17.8246 14.0613 18.0976C13.5093 18.5688 12.8157 18.8422 12.0906 18.8743C12.0491 18.8743 12.0095 18.8729 11.9794 18.8714C11.9555 18.8735 11.9308 18.8743 11.9061 18.8743C11.1815 18.8424 10.4883 18.5692 9.93665 18.0981C9.60981 17.8248 9.22565 17.6286 8.81263 17.5239C8.6172 17.4911 8.41938 17.4744 8.22114 17.4739C7.94526 17.4768 7.67042 17.5079 7.40089 17.5667C7.2986 17.5906 7.19453 17.6055 7.08967 17.6114C6.98029 17.6238 6.87928 17.5514 6.85603 17.4438C6.82148 17.3266 6.79676 17.2133 6.77296 17.1039C6.71327 16.8308 6.66993 16.6641 6.56776 16.6484C5.47407 16.4795 4.82789 16.231 4.69923 15.93C4.68611 15.9 4.67842 15.8678 4.67646 15.835C4.67146 15.7454 4.73475 15.6665 4.82325 15.6519C5.72773 15.4881 6.54273 15.0035 7.1186 14.2871C7.43562 13.9203 7.69923 13.5106 7.90156 13.0701L7.90553 13.0617C8.02614 12.8642 8.05354 12.6237 7.98036 12.4043C7.83943 12.0719 7.37276 11.9239 7.06398 11.826C6.9872 11.8016 6.91457 11.7787 6.8567 11.7557C6.58296 11.6476 6.13282 11.4191 6.19276 11.1038C6.28694 10.8603 6.52546 10.7035 6.78633 10.7138C6.8481 10.7124 6.90944 10.7246 6.96596 10.7497C7.19643 10.8677 7.44966 10.9346 7.70839 10.9457C7.86214 10.9566 8.01454 10.9101 8.13588 10.815C8.12776 10.669 8.11897 10.5232 8.10951 10.3774C7.96887 9.39166 8.02893 8.38763 8.28613 7.42572C8.90436 6.01416 10.3071 5.10944 11.848 5.12848L12.1426 5.12573C13.6857 5.10602 15.0909 6.01129 15.7109 7.42444C15.968 8.38721 16.028 9.39209 15.8873 10.3787L15.8843 10.4264C15.8757 10.5621 15.8677 10.6904 15.861 10.8149C15.9711 10.902 16.1083 10.9479 16.2488 10.9446C16.4924 10.9263 16.7301 10.8601 16.9482 10.7498C17.0204 10.7185 17.0985 10.703 17.1773 10.7044C17.2667 10.704 17.3553 10.721 17.4382 10.7543L17.4423 10.7559C17.6343 10.8015 17.7795 10.9589 17.8095 11.1539C17.8122 11.3067 17.6987 11.5351 17.1401 11.7557C17.083 11.7784 17.01 11.8015 16.9329 11.826C16.6238 11.9241 16.1575 12.0721 16.0166 12.4042C15.9433 12.6236 15.9707 12.8641 16.0914 13.0614L16.0954 13.07C16.6619 14.3642 17.8007 15.3192 19.1737 15.6518C19.2622 15.6665 19.3254 15.7454 19.3204 15.8349C19.3184 15.8679 19.3105 15.9003 19.2972 15.9307Z" fill="#6563FF"/>
</svg>
