<svg width="24" height="24" viewBox="0 0 24 24" fill="none" xmlns="http://www.w3.org/2000/svg">
<path d="M6 11C5.30777 11 4.63108 10.7947 4.05551 10.4101C3.47993 10.0256 3.03133 9.47893 2.76642 8.83939C2.50152 8.19985 2.4322 7.49612 2.56725 6.81719C2.7023 6.13825 3.03564 5.51461 3.52513 5.02513C4.01461 4.53564 4.63825 4.2023 5.31719 4.06725C5.99612 3.9322 6.69985 4.00152 7.33939 4.26642C7.97894 4.53133 8.52556 4.97993 8.91015 5.55551C9.29473 6.13108 9.5 6.80777 9.5 7.5C9.49888 8.42791 9.12977 9.3175 8.47364 9.97364C7.8175 10.6298 6.92792 10.9989 6 11Z" fill="#C1C0FF"/>
<path d="M8.64026 9.77179C8.31623 10.1565 7.91204 10.4658 7.45597 10.6779C6.99991 10.8901 6.50299 11 6 11C5.49701 11 5.00009 10.8901 4.54403 10.6779C4.08796 10.4658 3.68377 10.1565 3.35974 9.77179C2.63973 10.2182 2.04527 10.8406 1.63242 11.5804C1.21957 12.3201 1.00192 13.1528 1 14C1 14.2652 1.10536 14.5196 1.29289 14.7071C1.48043 14.8946 1.73478 15 2 15H10C10.2652 15 10.5196 14.8946 10.7071 14.7071C10.8946 14.5196 11 14.2652 11 14C10.9981 13.1528 10.7804 12.3201 10.3676 11.5804C9.95473 10.8406 9.36027 10.2182 8.64026 9.77179ZM18 11C17.3078 11 16.6311 10.7947 16.0555 10.4101C15.4799 10.0256 15.0313 9.47893 14.7664 8.83939C14.5015 8.19985 14.4322 7.49612 14.5673 6.81719C14.7023 6.13825 15.0356 5.51461 15.5251 5.02513C16.0146 4.53564 16.6383 4.2023 17.3172 4.06725C17.9961 3.9322 18.6999 4.00152 19.3394 4.26642C19.9789 4.53133 20.5256 4.97993 20.9101 5.55551C21.2947 6.13108 21.5 6.80777 21.5 7.5C21.4989 8.42791 21.1298 9.3175 20.4736 9.97364C19.8175 10.6298 18.9279 10.9989 18 11Z" fill="#A2A1FF"/>
<path d="M20.6403 9.77148C20.3162 10.1562 19.912 10.4655 19.456 10.6776C18.9999 10.8898 18.503 10.9997 18 10.9997C17.497 10.9997 17.0001 10.8898 16.544 10.6776C16.088 10.4655 15.6838 10.1562 15.3597 9.77148C14.6397 10.2179 14.0453 10.8403 13.6324 11.5801C13.2196 12.3198 13.0019 13.1525 13 13.9997C13 14.2649 13.1054 14.5193 13.2929 14.7068C13.4804 14.8943 13.7348 14.9997 14 14.9997H22C22.2652 14.9997 22.5196 14.8943 22.7071 14.7068C22.8946 14.5193 23 14.2649 23 13.9997C22.9981 13.1525 22.7804 12.3198 22.3676 11.5801C21.9547 10.8403 21.3603 10.2179 20.6403 9.77148Z" fill="#8382FF"/>
<path d="M21.207 18.2933L19.207 16.2933C19.0189 16.1086 18.7655 16.0057 18.5018 16.0068C18.2382 16.008 17.9858 16.1133 17.7993 16.2997C17.6129 16.4861 17.5077 16.7386 17.5065 17.0022C17.5053 17.2658 17.6083 17.5192 17.793 17.7073L18.086 18.0003H15.5C15.2348 18.0003 14.9804 18.1057 14.7929 18.2932C14.6053 18.4808 14.5 18.7351 14.5 19.0003C14.5 19.2655 14.6053 19.5199 14.7929 19.7074C14.9804 19.895 15.2348 20.0003 15.5 20.0003H18.0859L17.7929 20.2933C17.6991 20.386 17.6245 20.4962 17.5735 20.6178C17.5225 20.7394 17.496 20.8698 17.4956 21.0016C17.4952 21.1335 17.5209 21.2641 17.5711 21.386C17.6214 21.5079 17.6953 21.6186 17.7885 21.7118C17.8817 21.805 17.9924 21.8789 18.1143 21.9292C18.2362 21.9794 18.3668 22.0051 18.4987 22.0047C18.6305 22.0042 18.761 21.9778 18.8825 21.9267C19.0041 21.8757 19.1143 21.8011 19.207 21.7073L21.207 19.7073C21.2998 19.6145 21.3735 19.5043 21.4238 19.383C21.474 19.2617 21.4999 19.1316 21.4999 19.0003C21.4999 18.869 21.474 18.739 21.4238 18.6177C21.3735 18.4964 21.2998 18.3862 21.207 18.2933ZM8.49997 18.0003H5.91403L6.20703 17.7073C6.3926 17.5194 6.49628 17.2657 6.49544 17.0016C6.4946 16.7375 6.38932 16.4845 6.20257 16.2977C6.01582 16.111 5.76278 16.0057 5.49868 16.0049C5.23458 16.0041 4.98089 16.1078 4.79297 16.2933L2.79297 18.2933C2.70009 18.3862 2.62641 18.4964 2.57614 18.6177C2.52587 18.739 2.5 18.869 2.5 19.0004C2.5 19.1317 2.52587 19.2617 2.57614 19.383C2.62641 19.5043 2.70009 19.6146 2.79297 19.7074L4.79297 21.7074C4.98089 21.8929 5.2346 21.9966 5.49869 21.9958C5.76279 21.995 6.01583 21.8897 6.20257 21.7029C6.38931 21.5162 6.49458 21.2631 6.49541 20.999C6.49623 20.7349 6.39254 20.4812 6.20697 20.2933L5.91403 20.0003H8.49997C8.76519 20.0003 9.01954 19.895 9.20708 19.7074C9.39462 19.5199 9.49997 19.2655 9.49997 19.0003C9.49997 18.7351 9.39462 18.4808 9.20708 18.2932C9.01954 18.1057 8.76519 18.0003 8.49997 18.0003Z" fill="#6563FF"/>
</svg>
