<svg width="24" height="24" viewBox="0 0 24 24" fill="none" xmlns="http://www.w3.org/2000/svg">
<path d="M15 19.5004C14.8686 19.5005 14.7385 19.4747 14.6172 19.4244C14.4959 19.3741 14.3857 19.3004 14.293 19.2074L12 16.9144L9.70696 19.2074C9.51887 19.3921 9.26545 19.495 9.00183 19.4938C8.73822 19.4926 8.48574 19.3874 8.29933 19.201C8.11292 19.0146 8.00767 18.7621 8.00648 18.4985C8.00529 18.2349 8.10825 17.9814 8.29296 17.7934L11.293 14.7934C11.3858 14.7005 11.496 14.6268 11.6173 14.5765C11.7386 14.5263 11.8687 14.5004 12 14.5004C12.1313 14.5004 12.2613 14.5263 12.3826 14.5765C12.504 14.6268 12.6142 14.7005 12.707 14.7934L15.707 17.7934C15.8468 17.9332 15.942 18.1114 15.9806 18.3053C16.0192 18.4993 15.9994 18.7003 15.9237 18.883C15.848 19.0657 15.7199 19.2219 15.5554 19.3318C15.391 19.4417 15.1977 19.5003 15 19.5004ZM12 10.5004C11.8686 10.5005 11.7385 10.4747 11.6172 10.4244C11.4959 10.3741 11.3857 10.3004 11.293 10.2074L8.29296 7.20735C8.10825 7.01927 8.00529 6.76584 8.00648 6.50223C8.00767 6.23861 8.11292 5.98613 8.29933 5.79973C8.48574 5.61332 8.73822 5.50807 9.00183 5.50688C9.26545 5.50568 9.51887 5.60864 9.70696 5.79335L12 8.08629L14.293 5.79329C14.4809 5.60773 14.7346 5.50405 14.9987 5.50489C15.2628 5.50572 15.5158 5.61101 15.7026 5.79776C15.8893 5.98451 15.9946 6.23755 15.9954 6.50165C15.9962 6.76574 15.8925 7.01944 15.707 7.20735L12.707 10.2074C12.6142 10.3004 12.504 10.3741 12.3827 10.4244C12.2614 10.4747 12.1313 10.5005 12 10.5004Z" fill="#6563FF"/>
</svg>
