<svg width="24" height="24" viewBox="0 0 24 24" fill="none" xmlns="http://www.w3.org/2000/svg">
<path d="M21.9512 9.6704C21.8335 9.30846 21.5206 9.04464 21.144 8.98974L15.4453 8.16161L12.897 2.99804C12.7198 2.67056 12.3721 2.47207 12 2.48604V18.7651L17.0972 21.4448C17.5861 21.7018 18.1909 21.5138 18.4479 21.0248C18.5501 20.8302 18.5855 20.6073 18.5483 20.3906L17.5747 14.7148L21.6982 10.6958C21.9708 10.43 22.0688 10.0325 21.9512 9.6704Z" fill="#A2A1FF"/>
<path d="M11.1029 2.99854L8.55458 8.16217L2.85585 8.99036C2.63838 9.02204 2.43739 9.12445 2.28395 9.28174C1.89821 9.67725 1.90614 10.3106 2.30165 10.6963L6.42519 14.7153L5.45156 20.3911C5.41445 20.6078 5.44979 20.8307 5.55202 21.0253C5.80904 21.5143 6.41378 21.7023 6.90273 21.4453L11.9999 18.7656V2.50391C11.6443 2.5047 11.2968 2.67017 11.1029 2.99854Z" fill="#6563FF"/>
</svg>
