<svg width="24" height="24" viewBox="0 0 24 24" fill="none" xmlns="http://www.w3.org/2000/svg">
<path d="M8.00003 17C7.80228 17 7.60898 16.9413 7.44457 16.8314C7.28016 16.7215 7.15202 16.5654 7.07635 16.3827C7.00068 16.2 6.98088 15.9989 7.01945 15.805C7.05802 15.611 7.15322 15.4329 7.29303 15.293L10.586 12L7.29303 8.707C7.10832 8.51891 7.00536 8.26549 7.00656 8.00188C7.00775 7.73826 7.113 7.48578 7.29941 7.29937C7.48581 7.11297 7.73829 7.00772 8.00191 7.00652C8.26552 7.00533 8.51894 7.10829 8.70703 7.293L12.707 11.293C12.7999 11.3858 12.8736 11.4961 12.9239 11.6174C12.9741 11.7387 13 11.8687 13 12C13 12.1313 12.9741 12.2614 12.9239 12.3827C12.8736 12.504 12.7999 12.6142 12.707 12.7071L8.70703 16.7071C8.6143 16.8001 8.5041 16.8738 8.38277 16.9241C8.26143 16.9744 8.13136 17.0002 8.00003 17ZM16 17C15.7348 17 15.4805 16.8946 15.2929 16.7071C15.1054 16.5196 15 16.2652 15 16V8C15 7.73478 15.1054 7.48043 15.2929 7.29289C15.4805 7.10536 15.7348 7 16 7C16.2652 7 16.5196 7.10536 16.7071 7.29289C16.8947 7.48043 17 7.73478 17 8V16C17 16.2652 16.8947 16.5196 16.7071 16.7071C16.5196 16.8946 16.2652 17 16 17Z" fill="#6563FF"/>
</svg>
