<svg width="24" height="24" viewBox="0 0 24 24" fill="none" xmlns="http://www.w3.org/2000/svg">
<path d="M19 14C18.4067 14 17.8266 13.8241 17.3333 13.4944C16.8399 13.1648 16.4554 12.6962 16.2284 12.1481C16.0013 11.5999 15.9419 10.9967 16.0576 10.4147C16.1734 9.83279 16.4591 9.29824 16.8787 8.87868C17.2982 8.45912 17.8328 8.1734 18.4147 8.05764C18.9967 7.94189 19.5999 8.0013 20.1481 8.22836C20.6962 8.45542 21.1648 8.83994 21.4944 9.33329C21.8241 9.82664 22 10.4067 22 11C21.9991 11.7954 21.6828 12.5579 21.1204 13.1204C20.5579 13.6828 19.7954 13.9991 19 14ZM8 15C6.40924 14.9983 4.88412 14.3656 3.75928 13.2407C2.63444 12.1159 2.00174 10.5908 2 9V3C2 2.73478 2.10536 2.48043 2.29289 2.29289C2.48043 2.10536 2.73478 2 3 2H5C5.26522 2 5.51957 2.10536 5.70711 2.29289C5.89464 2.48043 6 2.73478 6 3C6 3.26522 5.89464 3.51957 5.70711 3.70711C5.51957 3.89464 5.26522 4 5 4H4V9C4 10.0609 4.42143 11.0783 5.17157 11.8284C5.92172 12.5786 6.93913 13 8 13C9.06087 13 10.0783 12.5786 10.8284 11.8284C11.5786 11.0783 12 10.0609 12 9V4H11C10.7348 4 10.4804 3.89464 10.2929 3.70711C10.1054 3.51957 10 3.26522 10 3C10 2.73478 10.1054 2.48043 10.2929 2.29289C10.4804 2.10536 10.7348 2 11 2H13C13.2652 2 13.5196 2.10536 13.7071 2.29289C13.8946 2.48043 14 2.73478 14 3V9C13.9983 10.5908 13.3656 12.1159 12.2407 13.2407C11.1159 14.3656 9.59076 14.9983 8 15Z" fill="#A2A1FF"/>
<path d="M19 13.9998C18.6585 13.9964 18.3202 13.934 18 13.8154V15.4998C18 16.6932 17.5259 17.8378 16.682 18.6817C15.8381 19.5257 14.6935 19.9998 13.5 19.9998C12.3065 19.9998 11.1619 19.5257 10.318 18.6817C9.47411 17.8378 9 16.6932 9 15.4998V14.9094C8.33877 15.0299 7.66123 15.0299 7 14.9094V15.4998C7 17.2237 7.68482 18.877 8.90381 20.096C10.1228 21.3149 11.7761 21.9998 13.5 21.9998C15.2239 21.9998 16.8772 21.3149 18.0962 20.096C19.3152 18.877 20 17.2237 20 15.4998V13.8155C19.6798 13.934 19.3415 13.9964 19 13.9998Z" fill="#6563FF"/>
</svg>
