<svg width="24" height="24" viewBox="0 0 24 24" fill="none" xmlns="http://www.w3.org/2000/svg">
<path d="M20 18.5859V11.4434C19.2049 11.9173 18.2686 12.0968 17.3547 11.9504C16.4407 11.804 15.6073 11.3411 15 10.6426C14.5204 11.1836 13.9016 11.5829 13.2111 11.797L20 18.5859Z" fill="#C1C0FF"/>
<path d="M22 23.0003C21.8686 23.0005 21.7385 22.9747 21.6172 22.9244C21.4959 22.8741 21.3857 22.8003 21.293 22.7073L1.29296 2.70732C1.10825 2.51924 1.00529 2.26581 1.00648 2.0022C1.00767 1.73858 1.11292 1.4861 1.29933 1.2997C1.48574 1.11329 1.73822 1.00804 2.00183 1.00685C2.26545 1.00565 2.51887 1.10861 2.70696 1.29332L22.707 21.2933C22.8468 21.4332 22.942 21.6113 22.9805 21.8053C23.0191 21.9992 22.9993 22.2003 22.9236 22.383C22.848 22.5657 22.7198 22.7218 22.5554 22.8317C22.391 22.9416 22.1977 23.0003 22 23.0003Z" fill="#6563FF"/>
<path d="M12.5859 14H10C9.73478 14 9.48043 14.1054 9.29289 14.2929C9.10536 14.4804 9 14.7348 9 15V22H15V16.4141L12.5859 14Z" fill="#8382FF"/>
<path d="M10 14H12.5859L10.0954 11.5095C9.68033 11.2899 9.30905 10.9961 9 10.6426C8.38972 11.336 7.55816 11.7966 6.64667 11.9463C5.73517 12.096 4.79997 11.9254 4 11.4636V21.0006C4.00008 21.2657 4.10549 21.52 4.29302 21.7074C4.48056 21.8948 4.73486 22.0001 5 22H9V15C9 14.7348 9.10536 14.4804 9.29289 14.2929C9.48043 14.1054 9.73478 14 10 14ZM15 16.4141V22H19.0005C19.204 21.9992 19.4024 21.9359 19.5687 21.8186C19.735 21.7014 19.8613 21.5359 19.9305 21.3445L15 16.4141Z" fill="#C1C0FF"/>
<path d="M13.2111 11.797C13.9016 11.5829 14.5204 11.1836 15 10.6426C15.5368 11.2528 16.2468 11.6849 17.0353 11.8814C17.8239 12.0779 18.6537 12.0294 19.414 11.7423C20.1743 11.4553 20.8291 10.9434 21.2911 10.2748C21.7531 9.6062 22.0004 8.81269 22 8C21.9999 7.87291 21.9757 7.74699 21.9287 7.62891L19.9287 2.62891C19.8544 2.44332 19.7262 2.28423 19.5607 2.17214C19.3952 2.06005 19.1999 2.0001 19 2H5C4.80009 2.0001 4.6048 2.06005 4.43927 2.17214C4.27375 2.28423 4.14558 2.44332 4.07129 2.62891L4.06317 2.64911L13.2111 11.797ZM3.25519 4.66925L2.07129 7.62891C2.0243 7.74699 2.00011 7.87291 2 8C1.99963 8.81268 2.24692 9.60619 2.70894 10.2748C3.17095 10.9433 3.82574 11.4553 4.58605 11.7423C5.34636 12.0293 6.17608 12.0778 6.96466 11.8814C7.75324 11.6849 8.46322 11.2528 9 10.6426C9.30905 10.9961 9.68033 11.2899 10.0954 11.5095L3.25519 4.66925Z" fill="#A2A1FF"/>
</svg>
