<svg width="24" height="24" viewBox="0 0 24 24" fill="none" xmlns="http://www.w3.org/2000/svg">
<path d="M10.0468 14.6931C9.39306 14.6931 8.73906 14.681 8.08576 14.6967C7.81445 14.7219 7.54189 14.6639 7.30433 14.5304C7.06677 14.3969 6.87547 14.1943 6.75584 13.9495C5.77738 12.2737 5.25163 10.3721 5.23022 8.43169C5.272 6.81913 5.93345 5.28466 7.07714 4.14709C7.82009 3.35393 8.74437 2.75286 9.77069 2.39544C10.9398 1.97288 12.2043 1.88866 13.4191 2.15244C14.7873 2.44287 16.0333 3.14628 16.9889 4.16762C17.9444 5.18896 18.5634 6.479 18.7623 7.86344C18.7921 7.98885 18.7731 8.12092 18.7091 8.23283C18.6451 8.34473 18.5409 8.42807 18.4177 8.46591C17.9174 8.67587 17.3861 8.80216 16.8448 8.83973C15.8001 8.96663 14.7448 8.98196 13.6968 8.88548C13.2769 8.83336 13.2007 8.74992 13.1975 8.31648C13.193 7.72409 13.196 7.13164 13.1954 6.53922C13.1953 6.4473 13.1938 6.35538 13.1918 6.26348C13.1975 6.21996 13.1935 6.17571 13.18 6.13392C13.1666 6.09213 13.1441 6.05384 13.1141 6.02181C13.0841 5.98977 13.0473 5.96479 13.0065 5.94865C12.9657 5.93251 12.9218 5.92562 12.878 5.92848C12.6435 5.92048 12.5394 6.0531 12.5386 6.26893C12.5349 7.28009 12.5363 8.29127 12.5368 9.30244C12.537 9.58969 12.7191 9.66 12.9638 9.65978C13.8729 9.65897 14.782 9.65566 15.691 9.66243C16.2523 9.64861 16.8132 9.7029 17.3614 9.82412C17.547 9.8411 17.7262 9.90098 17.8847 9.99904C18.0433 10.0971 18.1769 10.2306 18.275 10.3892C18.3731 10.5477 18.433 10.7268 18.45 10.9124C18.4671 11.0981 18.4407 11.2851 18.3731 11.4588C18.0676 12.8157 17.5641 14.1201 16.8786 15.3303C15.8523 17.1908 14.655 18.9517 13.3022 20.5902C12.9572 21.0195 12.591 21.4317 12.2423 21.8581C12.0843 22.0512 11.9651 22.047 11.8113 21.8475C10.5569 20.2761 9.41201 18.6204 8.38476 16.8919C8.25849 16.6713 8.15864 16.4353 8.05157 16.204C7.94867 15.9818 8.03288 15.8365 8.24475 15.7368C8.49951 15.6296 8.76974 15.5639 9.04525 15.5419C9.82433 15.4286 10.6162 15.4353 11.3932 15.5618C11.843 15.6442 11.917 15.7498 11.9164 16.2008C11.916 16.5481 11.9107 16.8955 11.9159 17.2426C11.9191 17.4632 11.9817 17.6742 12.2456 17.6721C12.5084 17.6701 12.5704 17.4581 12.5717 17.238C12.5757 16.5129 12.5705 15.7876 12.575 15.0625C12.577 14.7503 12.3797 14.6907 12.1305 14.6902C11.4359 14.6888 10.7413 14.6886 10.0468 14.6897V14.6931Z" fill="#6563FF"/>
</svg>
