<svg width="24" height="24" viewBox="0 0 24 24" fill="none" xmlns="http://www.w3.org/2000/svg">
<path d="M15.1739 17.1527C15.0288 17.5143 14.6181 17.6899 14.2565 17.5449C14.2274 17.5332 14.1991 17.5196 14.1719 17.5042L11.4572 15.3948L9.71487 17.0022C9.63271 17.0629 9.5253 17.0776 9.42987 17.0412L9.76387 14.0527L9.77456 14.0612L9.78139 14.0022C9.78139 14.0022 14.6664 9.55467 14.8654 9.36518C15.0669 9.17618 15.0004 9.13518 15.0004 9.13518C15.0119 8.90465 14.6389 9.13518 14.6389 9.13518L8.16635 13.2992L5.47086 12.3812C5.47086 12.3812 5.05686 12.2327 5.01786 11.9062C4.97686 11.5822 5.48435 11.4062 5.48435 11.4062L16.2014 7.14871C16.2014 7.14871 17.0823 6.75619 17.0823 7.40622L15.1739 17.1527Z" fill="#A2A1FF"/>
<path d="M11.994 2C6.47113 2 1.99402 6.47717 1.99402 12C1.99402 17.5228 6.47113 22 11.994 22C17.5168 22 21.994 17.5228 21.994 12C21.994 6.47717 17.5168 2 11.994 2ZM15.1738 17.1525C15.0288 17.5141 14.6181 17.6897 14.2565 17.5446C14.2274 17.533 14.1991 17.5194 14.1718 17.504L11.4571 15.3946L9.71484 17.002C9.63269 17.0627 9.52526 17.0774 9.42987 17.041L9.76385 14.0525L9.77453 14.061L9.78137 14.002C9.78137 14.002 14.6664 9.55444 14.8653 9.36499C15.0668 9.17596 15.0004 9.13495 15.0004 9.13495C15.0118 8.90442 14.6388 9.13495 14.6388 9.13495L8.16632 13.299L5.47082 12.381C5.47082 12.381 5.05682 12.2325 5.01782 11.906C4.9768 11.582 5.48431 11.406 5.48431 11.406L16.2013 7.1485C16.2013 7.1485 17.0823 6.75598 17.0823 7.40601L15.1738 17.1525Z" fill="#6563FF"/>
</svg>
