<svg width="24" height="24" viewBox="0 0 24 24" fill="none" xmlns="http://www.w3.org/2000/svg">
<path d="M13.414 12.0003L16.707 8.70732C16.8926 8.5194 16.9963 8.2657 16.9954 8.00161C16.9946 7.73751 16.8893 7.48447 16.7026 7.29773C16.5158 7.11099 16.2628 7.00571 15.9987 7.00489C15.7346 7.00406 15.4809 7.10775 15.293 7.29332L12 10.5863L8.70696 7.29332C8.51887 7.10861 8.26545 7.00565 8.00183 7.00685C7.73822 7.00804 7.48574 7.11329 7.29933 7.2997C7.11292 7.4861 7.00767 7.73858 7.00648 8.0022C7.00529 8.26582 7.10825 8.51924 7.29296 8.70732L10.5859 12.0003L7.29296 15.2933C7.10825 15.4814 7.00529 15.7348 7.00648 15.9984C7.00767 16.2621 7.11292 16.5145 7.29933 16.7009C7.48574 16.8874 7.73822 16.9926 8.00183 16.9938C8.26545 16.995 8.51887 16.892 8.70696 16.7073L12 13.4144L15.293 16.7074C15.4809 16.8929 15.7346 16.9966 15.9987 16.9958C16.2628 16.995 16.5158 16.8897 16.7026 16.7029C16.8893 16.5162 16.9946 16.2631 16.9954 15.999C16.9962 15.7349 16.8925 15.4812 16.707 15.2933L13.414 12.0003Z" fill="#6563FF"/>
<path d="M19.0708 4.92882C17.1955 3.05353 14.6521 2 12 2C9.34792 2 6.80448 3.05353 4.92919 4.92882C3.05389 6.80411 2.00037 9.34756 2.00037 11.9996C2.00037 14.6517 3.05389 17.1951 4.92919 19.0704C6.80448 20.9457 9.34792 21.9992 12 21.9992C14.6521 21.9992 17.1955 20.9457 19.0708 19.0704C20.9461 17.1951 21.9996 14.6517 21.9996 11.9996C21.9996 9.34756 20.9461 6.80411 19.0708 4.92882ZM16.707 15.2926C16.8012 15.3852 16.8762 15.4954 16.9275 15.6171C16.9789 15.7388 17.0057 15.8694 17.0063 16.0015C17.0069 16.1336 16.9813 16.2644 16.931 16.3866C16.8808 16.5087 16.8068 16.6197 16.7134 16.7131C16.62 16.8064 16.5091 16.8804 16.3869 16.9307C16.2648 16.9809 16.1339 17.0065 16.0019 17.0059C15.8698 17.0053 15.7392 16.9786 15.6175 16.9272C15.4958 16.8758 15.3855 16.8009 15.293 16.7066L12 13.4137L8.70699 16.7066C8.5189 16.8913 8.26548 16.9943 8.00186 16.9931C7.73825 16.9919 7.48577 16.8867 7.29936 16.7002C7.11296 16.5138 7.00771 16.2614 7.00651 15.9977C7.00532 15.7341 7.10828 15.4807 7.29299 15.2926L10.5859 11.9996L7.29299 8.70662C7.10828 8.51853 7.00532 8.26511 7.00651 8.0015C7.00771 7.73788 7.11296 7.4854 7.29936 7.299C7.48577 7.11259 7.73825 7.00734 8.00186 7.00615C8.26548 7.00495 8.5189 7.10791 8.70699 7.29262L12 10.5856L15.293 7.29256C15.4809 7.107 15.7346 7.00332 15.9987 7.00416C16.2628 7.00499 16.5158 7.11028 16.7026 7.29703C16.8893 7.48378 16.9946 7.73682 16.9954 8.00092C16.9962 8.26501 16.8926 8.51871 16.707 8.70662L13.414 11.9996L16.707 15.2926Z" fill="#A2A1FF"/>
</svg>
