<svg width="24" height="24" viewBox="0 0 24 24" fill="none" xmlns="http://www.w3.org/2000/svg">
<path d="M20.9999 20.7944H2.99994C2.82439 20.7945 2.65192 20.7483 2.49988 20.6605C2.34783 20.5728 2.22157 20.4466 2.13378 20.2945C2.04599 20.1425 1.99976 19.97 1.99976 19.7945C1.99975 19.6189 2.04595 19.4465 2.13373 19.2944L11.1337 3.70655C11.2286 3.56374 11.3574 3.44661 11.5085 3.3656C11.6597 3.28458 11.8285 3.24219 11.9999 3.24219C12.1714 3.24219 12.3402 3.28458 12.4914 3.3656C12.6425 3.44661 12.7712 3.56374 12.8662 3.70655L21.8662 19.2944C21.9539 19.4465 22.0001 19.6189 22.0001 19.7945C22.0001 19.97 21.9539 20.1425 21.8661 20.2945C21.7783 20.4466 21.6521 20.5728 21.5 20.6605C21.348 20.7483 21.1755 20.7945 20.9999 20.7944Z" fill="#6563FF"/>
</svg>
