<svg width="24" height="24" viewBox="0 0 24 24" fill="none" xmlns="http://www.w3.org/2000/svg">
<path d="M13.5712 17.8492C11.7059 18.0433 10.0364 16.6886 9.84233 14.8233C9.83176 14.7218 9.82578 14.6198 9.8244 14.5178V10.4422H8.56189V8.831C9.97282 8.2943 10.9349 6.97649 11.0162 5.46912C11.0188 5.41995 11.0572 5.38019 11.1062 5.37598H12.933V8.55353H15.4293V10.4423H12.9243V14.3255C12.8462 14.9246 13.2685 15.4737 13.8676 15.5518C13.953 15.5629 14.0393 15.564 14.1249 15.5549C14.4704 15.5429 14.811 15.4701 15.1312 15.3397L15.7311 17.1184C15.1199 17.6092 14.3548 17.8681 13.5712 17.8492Z" fill="#A2A1FF"/>
<path d="M2.01892 2V22H21.9819V2H2.01892ZM13.5711 17.8494C11.7058 18.0435 10.0364 16.6887 9.84229 14.8235C9.83173 14.7219 9.82575 14.62 9.82434 14.5179V10.4424H8.56183V8.83118C9.97278 8.2945 10.9348 6.97669 11.0162 5.4693C11.0187 5.42011 11.0571 5.38037 11.1062 5.37616H12.9329V8.55371H15.4293V10.4425H12.9243V14.3257C12.8462 14.9248 13.2685 15.4738 13.8676 15.552C13.953 15.5631 14.0393 15.5641 14.1248 15.555C14.4704 15.5431 14.811 15.4703 15.1311 15.3399L15.731 17.1186C15.1199 17.6094 14.3547 17.8683 13.5711 17.8494Z" fill="#6563FF"/>
</svg>
