<svg width="24" height="24" viewBox="0 0 24 24" fill="none" xmlns="http://www.w3.org/2000/svg">
<path d="M16.7855 17.9743C16.2719 18.1833 15.7254 18.3004 15.1712 18.3201C14.9074 18.3479 14.6408 18.3156 14.3913 18.2257C14.1418 18.1357 13.9159 17.9903 13.7307 17.8006C13.5454 17.6108 13.4056 17.3815 13.3216 17.1299C13.2377 16.8783 13.2119 16.6109 13.2461 16.3479V10.1219H17.2626V7.0946H13.2612V2H10.331C10.2931 2.00319 10.2576 2.02011 10.2312 2.04759C10.2048 2.07507 10.1893 2.11124 10.1877 2.1493C10.1237 3.33209 9.71787 4.47088 9.01935 5.42752C8.32084 6.38415 7.3597 7.11751 6.25256 7.5386V10.122H8.27675V16.6576C8.27675 18.8943 9.92722 22.0729 14.2843 21.9988C15.5406 22.0282 16.767 21.6134 17.7475 20.8274L16.7855 17.9744" fill="#6563FF"/>
</svg>
