<svg width="24" height="24" viewBox="0 0 24 24" fill="none" xmlns="http://www.w3.org/2000/svg">
<path d="M20.4752 7.80418C20.4855 7.98926 20.4855 8.17435 20.4855 8.34918C20.4828 9.48784 20.3166 10.6202 19.9918 11.7116C19.3075 14.2267 17.8049 16.4422 15.7212 18.0082C13.6375 19.5742 11.0916 20.4015 8.48542 20.3595C6.19117 20.362 3.94509 19.7014 2.01758 18.4571C2.35188 18.4985 2.68843 18.5191 3.02528 18.5188C4.92371 18.5206 6.76744 17.8831 8.25928 16.709C7.38059 16.6925 6.52893 16.4023 5.82299 15.8789C5.11705 15.3554 4.59198 14.6248 4.32096 13.7888C4.58258 13.8336 4.84734 13.8576 5.11276 13.8608C5.49174 13.8622 5.86903 13.8102 6.23354 13.7065C5.33111 13.5278 4.51233 13.0577 3.90299 12.3685C3.29366 11.6793 2.9275 10.8091 2.86078 9.89157C2.84368 9.78622 2.83679 9.67948 2.84019 9.57281V9.52139C3.42622 9.84758 4.08233 10.0275 4.75277 10.0458C4.17571 9.66117 3.70283 9.13968 3.37629 8.52786C3.04976 7.91604 2.87972 7.23292 2.88136 6.53942C2.88062 5.79267 3.07561 5.05878 3.4469 4.41088C4.50591 5.71573 5.82787 6.78292 7.3267 7.54297C8.82553 8.30301 10.4676 8.73887 12.1461 8.82217C11.9337 7.91735 12.0261 6.96772 12.4088 6.1208C12.7916 5.27387 13.4434 4.57706 14.2628 4.1386C15.0823 3.70014 16.0237 3.54458 16.9406 3.69608C17.8576 3.84758 18.6989 4.29767 19.3338 4.97642C20.2806 4.78956 21.1883 4.44177 22.0176 3.94814C22.0533 4.66403 21.9339 5.37918 21.6677 6.04469C21.4015 6.7102 20.9947 7.31038 20.4752 7.80418Z" fill="#6563FF"/>
</svg>
