<svg width="24" height="24" viewBox="0 0 24 24" fill="none" xmlns="http://www.w3.org/2000/svg">
<path d="M17.9984 8.06474L6.00259 8.10946L5.72552 4.78398C5.63661 4.02605 5.83987 3.26271 6.29393 2.64936C6.74798 2.036 7.41871 1.61872 8.16958 1.48245L8.95893 1.33916C10.9712 0.973963 13.0329 0.974187 15.0451 1.33982L15.831 1.48262C16.5817 1.61903 17.2523 2.03635 17.7062 2.64966C18.1601 3.26296 18.3633 4.02618 18.2744 4.78398L17.9984 8.06474Z" fill="#6563FF"/>
<path d="M6.00879 8.10919C6.05305 9.6728 6.70678 11.1572 7.83043 12.2454C8.95408 13.3336 10.4586 13.9395 12.0228 13.9336C13.5871 13.9278 15.087 13.3107 16.2025 12.2141C17.318 11.1175 17.9606 9.62835 17.9932 8.06445L6.00879 8.10919Z" fill="#C1C0FF"/>
<path d="M17.198 13.3848V13.3848L12.707 17.8758C12.6142 17.9687 12.5039 18.0424 12.3826 18.0927C12.2613 18.1429 12.1313 18.1688 12 18.1688C11.8687 18.1688 11.7386 18.1429 11.6173 18.0927C11.496 18.0424 11.3858 17.9687 11.2929 17.8758L6.80194 13.3848V13.3848C5.49347 14.1772 4.38545 15.2607 3.56403 16.5512C2.74262 17.8416 2.22996 19.3042 2.06594 20.8251C2.05073 20.9647 2.06511 21.106 2.10813 21.2397C2.15116 21.3734 2.22187 21.4966 2.31565 21.6011C2.40944 21.7057 2.5242 21.7893 2.65247 21.8466C2.78073 21.9039 2.91961 21.9335 3.06008 21.9335H20.9399C21.0803 21.9335 21.2192 21.9039 21.3475 21.8466C21.4757 21.7893 21.5905 21.7057 21.6843 21.6011C21.7781 21.4966 21.8488 21.3734 21.8918 21.2397C21.9348 21.106 21.9492 20.9647 21.934 20.8251C21.77 19.3042 21.2573 17.8416 20.4359 16.5512C19.6145 15.2607 18.5065 14.1772 17.198 13.3848Z" fill="#6563FF"/>
<path d="M15.6907 12.6536C14.6354 13.4744 13.3366 13.92 11.9997 13.92C10.6628 13.9199 9.364 13.4743 8.30871 12.6535C7.78693 12.8546 7.28293 13.099 6.802 13.3843L11.293 17.8753C11.3858 17.9682 11.4961 18.0419 11.6174 18.0921C11.7387 18.1424 11.8687 18.1683 12 18.1683C12.1313 18.1683 12.2614 18.1424 12.3827 18.0921C12.504 18.0419 12.6142 17.9682 12.7071 17.8753L17.1981 13.3843C16.717 13.099 16.2129 12.8544 15.6911 12.6533L15.6907 12.6536Z" fill="#A2A1FF"/>
</svg>
