<svg width="24" height="24" viewBox="0 0 24 24" fill="none" xmlns="http://www.w3.org/2000/svg">
<path d="M6 16.5C5.30777 16.5 4.63108 16.2947 4.05551 15.9101C3.47993 15.5256 3.03133 14.9789 2.76642 14.3394C2.50152 13.6999 2.4322 12.9961 2.56725 12.3172C2.7023 11.6383 3.03564 11.0146 3.52513 10.5251C4.01461 10.0356 4.63825 9.7023 5.31719 9.56725C5.99612 9.4322 6.69985 9.50152 7.33939 9.76642C7.97894 10.0313 8.52556 10.4799 8.91015 11.0555C9.29473 11.6311 9.5 12.3078 9.5 13C9.49888 13.9279 9.12977 14.8175 8.47364 15.4736C7.8175 16.1298 6.92792 16.4989 6 16.5Z" fill="#C1C0FF"/>
<path d="M8.64026 15.2718C8.31623 15.6565 7.91204 15.9658 7.45597 16.1779C6.99991 16.3901 6.50299 16.5 6 16.5C5.49701 16.5 5.00009 16.3901 4.54403 16.1779C4.08796 15.9658 3.68377 15.6565 3.35974 15.2718C2.63973 15.7182 2.04527 16.3406 1.63242 17.0804C1.21957 17.8201 1.00192 18.6528 1 19.5C1 19.7652 1.10536 20.0196 1.29289 20.2071C1.48043 20.3946 1.73478 20.5 2 20.5H10C10.2652 20.5 10.5196 20.3946 10.7071 20.2071C10.8946 20.0196 11 19.7652 11 19.5C10.9981 18.6528 10.7804 17.8201 10.3676 17.0804C9.95473 16.3406 9.36027 15.7182 8.64026 15.2718ZM18 16.5C17.3078 16.5 16.6311 16.2947 16.0555 15.9101C15.4799 15.5256 15.0313 14.9789 14.7664 14.3394C14.5015 13.6999 14.4322 12.9961 14.5673 12.3172C14.7023 11.6383 15.0356 11.0146 15.5251 10.5251C16.0146 10.0356 16.6383 9.7023 17.3172 9.56725C17.9961 9.4322 18.6999 9.50152 19.3394 9.76642C19.9789 10.0313 20.5256 10.4799 20.9101 11.0555C21.2947 11.6311 21.5 12.3078 21.5 13C21.4989 13.9279 21.1298 14.8175 20.4736 15.4736C19.8175 16.1298 18.9279 16.4989 18 16.5Z" fill="#A2A1FF"/>
<path d="M20.6403 15.2715C20.3162 15.6562 19.912 15.9655 19.456 16.1776C18.9999 16.3898 18.503 16.4997 18 16.4997C17.497 16.4997 17.0001 16.3898 16.544 16.1776C16.088 15.9655 15.6838 15.6562 15.3597 15.2715C14.6397 15.7179 14.0453 16.3403 13.6324 17.0801C13.2196 17.8198 13.0019 18.6525 13 19.4997C13 19.7649 13.1054 20.0193 13.2929 20.2068C13.4804 20.3943 13.7348 20.4997 14 20.4997H22C22.2652 20.4997 22.5196 20.3943 22.7071 20.2068C22.8946 20.0193 23 19.7649 23 19.4997C22.9981 18.6525 22.7804 17.8198 22.3676 17.0801C21.9547 16.3403 21.3603 15.7179 20.6403 15.2715Z" fill="#8382FF"/>
<path d="M17.207 5.79332L15.207 3.79332C15.0189 3.60861 14.7655 3.50565 14.5019 3.50685C14.2382 3.50804 13.9858 3.61329 13.7993 3.7997C13.6129 3.9861 13.5077 4.23858 13.5065 4.5022C13.5053 4.76581 13.6083 5.01924 13.793 5.20732L14.086 5.50032H9.91403L10.207 5.20732C10.3926 5.0194 10.4963 4.7657 10.4954 4.50161C10.4946 4.23751 10.3893 3.98447 10.2026 3.79773C10.0158 3.61099 9.76278 3.50571 9.49868 3.50489C9.23458 3.50406 8.98089 3.60775 8.79297 3.79332L6.79297 5.79332C6.70009 5.88615 6.62641 5.99638 6.57614 6.11769C6.52587 6.23901 6.5 6.36904 6.5 6.50035C6.5 6.63167 6.52587 6.7617 6.57614 6.88302C6.62641 7.00433 6.70009 7.11455 6.79297 7.20738L8.79297 9.20738C8.98089 9.39295 9.2346 9.49663 9.49869 9.49579C9.76279 9.49495 10.0158 9.38967 10.2026 9.20292C10.3893 9.01617 10.4946 8.76312 10.4954 8.49903C10.4962 8.23493 10.3925 7.98124 10.207 7.79332L9.91397 7.50032H14.0859L13.7929 7.79332C13.6053 7.98085 13.5 8.23518 13.5 8.50037C13.5 8.76555 13.6054 9.01988 13.7929 9.20738C13.9804 9.39489 14.2348 9.50023 14.5 9.50021C14.7651 9.5002 15.0195 9.39485 15.207 9.20732L17.207 7.20732C17.2998 7.11449 17.3735 7.00428 17.4238 6.88297C17.474 6.76166 17.4999 6.63163 17.4999 6.50032C17.4999 6.36901 17.474 6.23899 17.4238 6.11768C17.3735 5.99637 17.2998 5.88615 17.207 5.79332Z" fill="#6563FF"/>
</svg>
