<svg width="24" height="24" viewBox="0 0 24 24" fill="none" xmlns="http://www.w3.org/2000/svg">
<path d="M9 16C9.55228 16 10 15.5523 10 15C10 14.4477 9.55228 14 9 14C8.44772 14 8 14.4477 8 15C8 15.5523 8.44772 16 9 16Z" fill="#6563FF"/>
<path d="M15 10C15.5523 10 16 9.55228 16 9C16 8.44772 15.5523 8 15 8C14.4477 8 14 8.44772 14 9C14 9.55228 14.4477 10 15 10Z" fill="#6563FF"/>
<path d="M12 8C11.7348 8 11.4804 7.89464 11.2929 7.70711C11.1054 7.51957 11 7.26522 11 7V2C11 1.73478 11.1054 1.48043 11.2929 1.29289C11.4804 1.10536 11.7348 1 12 1C12.2652 1 12.5196 1.10536 12.7071 1.29289C12.8946 1.48043 13 1.73478 13 2V7C13 7.26522 12.8946 7.51957 12.7071 7.70711C12.5196 7.89464 12.2652 8 12 8ZM12 23C11.7348 23 11.4804 22.8946 11.2929 22.7071C11.1054 22.5196 11 22.2652 11 22V17C11 16.7348 11.1054 16.4804 11.2929 16.2929C11.4804 16.1054 11.7348 16 12 16C12.2652 16 12.5196 16.1054 12.7071 16.2929C12.8946 16.4804 13 16.7348 13 17V22C13 22.2652 12.8946 22.5196 12.7071 22.7071C12.5196 22.8946 12.2652 23 12 23ZM22 13H18C17.7348 13 17.4804 12.8946 17.2929 12.7071C17.1054 12.5196 17 12.2652 17 12C17 11.7348 17.1054 11.4804 17.2929 11.2929C17.4804 11.1054 17.7348 11 18 11H22C22.2652 11 22.5196 11.1054 22.7071 11.2929C22.8946 11.4804 23 11.7348 23 12C23 12.2652 22.8946 12.5196 22.7071 12.7071C22.5196 12.8946 22.2652 13 22 13Z" fill="#C1C0FF"/>
<path d="M4.97895 17.6068L4.22157 18.3642C4.12872 18.457 4.05507 18.5672 4.00482 18.6885C3.95457 18.8099 3.92871 18.9399 3.92871 19.0712C3.92871 19.2025 3.95457 19.3325 4.00482 19.4538C4.05507 19.5751 4.12872 19.6854 4.22157 19.7782C4.40909 19.9657 4.66341 20.0711 4.9286 20.0711C5.05991 20.0711 5.18993 20.0452 5.31124 19.995C5.43256 19.9447 5.54278 19.8711 5.63563 19.7782L6.39344 19.0204C5.87122 18.6028 5.39683 18.1287 4.97895 17.6068ZM19.0204 6.39344L19.7782 5.63563C19.8711 5.54278 19.9447 5.43256 19.995 5.31124C20.0452 5.18993 20.0711 5.05991 20.0711 4.9286C20.0711 4.79729 20.0452 4.66727 19.995 4.54596C19.9447 4.42465 19.8711 4.31442 19.7782 4.22157C19.6854 4.12872 19.5751 4.05507 19.4538 4.00482C19.3325 3.95457 19.2025 3.92871 19.0712 3.92871C18.9399 3.92871 18.8099 3.95457 18.6885 4.00482C18.5672 4.05507 18.457 4.12872 18.3642 4.22157L17.6068 4.97895C18.1287 5.39683 18.6028 5.87122 19.0204 6.39344Z" fill="#6563FF"/>
<path d="M6 13H2C1.73478 13 1.48043 12.8946 1.29289 12.7071C1.10536 12.5196 1 12.2652 1 12C1 11.7348 1.10536 11.4804 1.29289 11.2929C1.48043 11.1054 1.73478 11 2 11H6C6.26522 11 6.51957 11.1054 6.70711 11.2929C6.89464 11.4804 7 11.7348 7 12C7 12.2652 6.89464 12.5196 6.70711 12.7071C6.51957 12.8946 6.26522 13 6 13Z" fill="#C1C0FF"/>
<path d="M22 23.0022C21.8686 23.0024 21.7386 22.9766 21.6172 22.9263C21.4959 22.876 21.3857 22.8022 21.293 22.7092L1.29298 2.70922C1.10703 2.52139 1.00301 2.26757 1.00367 2.00326C1.00432 1.73894 1.10961 1.48564 1.2965 1.29874C1.4834 1.11184 1.73669 1.00654 2.001 1.00586C2.26531 1.00519 2.51914 1.1092 2.70698 1.29514L22.707 21.2951C22.8468 21.435 22.9421 21.6132 22.9806 21.8071C23.0192 22.0011 22.9994 22.2021 22.9237 22.3849C22.8481 22.5676 22.7199 22.7238 22.5555 22.8336C22.3911 22.9435 22.1978 23.0022 22 23.0022Z" fill="#6563FF"/>
<path d="M15.7463 14.3338C15.9395 14.0453 16.0267 13.6987 15.9929 13.3531C15.959 13.0075 15.8063 12.6844 15.5608 12.4389C15.3152 12.1933 14.9921 12.0406 14.6465 12.0068C14.3009 11.973 13.9543 12.0601 13.6658 12.2534L15.7463 14.3338ZM8.25233 9.66797C8.0598 9.95636 7.97319 10.3026 8.00725 10.6477C8.04131 10.9927 8.19393 11.3153 8.43912 11.5605C8.68431 11.8057 9.00692 11.9583 9.35199 11.9924C9.69707 12.0265 10.0433 11.9398 10.3317 11.7473L8.25233 9.66797Z" fill="#8382FF"/>
<path d="M17.6064 19.0219L10.3318 11.7473C10.0434 11.9398 9.69714 12.0264 9.35207 11.9924C9.00699 11.9583 8.68439 11.8057 8.43919 11.5605C8.194 11.3153 8.04138 10.9927 8.00732 10.6476C7.97326 10.3025 8.05987 9.95632 8.2524 9.66792L4.97829 6.39382C3.91456 7.71591 3.24891 9.31335 3.05908 10.9996H6.00008C6.2653 10.9996 6.51965 11.105 6.70719 11.2925C6.89473 11.48 7.00008 11.7344 7.00008 11.9996C7.00008 12.2648 6.89473 12.5192 6.70719 12.7067C6.51965 12.8942 6.2653 12.9996 6.00008 12.9996H3.05908C3.28902 15.0262 4.19961 16.915 5.64203 18.357C7.08445 19.7991 8.97338 20.7093 11.0001 20.9387V16.9996C11.0001 16.7344 11.1054 16.48 11.293 16.2925C11.4805 16.1049 11.7349 15.9996 12.0001 15.9996C12.2653 15.9996 12.5197 16.1049 12.7072 16.2925C12.8947 16.48 13.0001 16.7344 13.0001 16.9996V20.9406C14.6864 20.7507 16.2839 20.0853 17.6064 19.0219ZM9.00008 15.9996C8.8023 15.9996 8.60896 15.9409 8.44451 15.8311C8.28006 15.7212 8.15189 15.565 8.0762 15.3823C8.00051 15.1996 7.98071 14.9985 8.0193 14.8045C8.05788 14.6105 8.15312 14.4323 8.29298 14.2925C8.43283 14.1526 8.61101 14.0574 8.80499 14.0188C8.99897 13.9802 9.20004 14 9.38277 14.0757C9.56549 14.1514 9.72167 14.2796 9.83155 14.444C9.94143 14.6085 10.0001 14.8018 10.0001 14.9996C10.0001 15.2648 9.89472 15.5192 9.70719 15.7067C9.51965 15.8942 9.2653 15.9996 9.00008 15.9996ZM6.39254 4.97994L13.6659 12.2533C13.9544 12.0601 14.301 11.9729 14.6466 12.0067C14.9922 12.0406 15.3153 12.1933 15.5609 12.4388C15.8064 12.6844 15.9591 13.0075 15.9929 13.3531C16.0268 13.6987 15.9396 14.0453 15.7464 14.3338L19.0207 17.6081C20.085 16.2852 20.7511 14.6868 20.9411 12.9996H18.0001C17.7349 12.9996 17.4805 12.8942 17.293 12.7067C17.1054 12.5192 17.0001 12.2648 17.0001 11.9996C17.0001 11.7344 17.1054 11.48 17.293 11.2925C17.4805 11.105 17.7349 10.9996 18.0001 10.9996H20.9392C20.7098 8.97289 19.7996 7.08396 18.3575 5.64154C16.9155 4.19912 15.0267 3.28853 13.0001 3.05859V6.99959C13.0001 7.26481 12.8947 7.51916 12.7072 7.7067C12.5197 7.89424 12.2653 7.99959 12.0001 7.99959C11.7349 7.99959 11.4805 7.89424 11.293 7.7067C11.1054 7.51916 11.0001 7.26481 11.0001 6.99959V3.06044C9.31333 3.25055 7.71537 3.91626 6.39254 4.97994ZM15.0001 7.99959C15.1979 7.99959 15.3912 8.05824 15.5557 8.16812C15.7201 8.27801 15.8483 8.43418 15.924 8.61691C15.9996 8.79964 16.0195 9.0007 15.9809 9.19468C15.9423 9.38867 15.847 9.56685 15.7072 9.7067C15.5673 9.84655 15.3892 9.94179 15.1952 9.98038C15.0012 10.019 14.8001 9.99916 14.6174 9.92347C14.4347 9.84779 14.2785 9.71961 14.1686 9.55516C14.0587 9.39072 14.0001 9.19737 14.0001 8.99959C14.0001 8.73438 14.1054 8.48002 14.293 8.29249C14.4805 8.10495 14.7349 7.99959 15.0001 7.99959Z" fill="#A2A1FF"/>
</svg>
