<svg width="24" height="24" viewBox="0 0 24 24" fill="none" xmlns="http://www.w3.org/2000/svg">
<path d="M15.0625 23H8.92725C2.77783 23 1 21.2197 1 15.0625V8.92676C1 2.77832 2.78027 1 8.9375 1H15.0728C21.2222 1 23 2.78027 23 8.9375V15.0732C23 21.2217 21.2197 23 15.0625 23Z" fill="#A2A1FF"/>
<path d="M11.6543 17.002C11.444 17.0018 11.2391 16.9355 11.0684 16.8125C8.19488 14.7601 6.25289 11.6516 5.6685 8.169C5.57627 7.62454 5.94288 7.10839 6.48734 7.01616C7.0318 6.92393 7.54795 7.29053 7.64018 7.835C8.01626 10.0902 9.0672 12.1785 10.6543 13.8243V8.002C10.6543 7.44972 11.1021 7.002 11.6543 7.002C12.2066 7.002 12.6543 7.44972 12.6543 8.002V16.002C12.6546 16.554 12.2073 17.0017 11.6553 17.002C11.655 17.002 11.6547 17.002 11.6543 17.002Z" fill="#6563FF"/>
<path d="M16.6548 17.0019C16.3744 17.0022 16.1068 16.8845 15.9175 16.6777L14.2695 14.8809C13.8326 14.4053 13.2744 14.0579 12.6548 13.8759L12.6543 16.0019C12.6544 16.5541 12.207 17.0018 11.6548 17.0019C11.6546 17.0019 11.6545 17.0019 11.6543 17.0019C11.1022 17.0021 10.6544 16.5546 10.6543 16.0025C10.6543 16.0023 10.6543 16.0021 10.6543 16.0019V12.7314C10.6541 12.1793 11.1016 11.7316 11.6538 11.7314C11.6539 11.7314 11.6541 11.7314 11.6543 11.7314C13.2088 11.7329 14.6917 12.3849 15.7436 13.5293L17.3911 15.3262C17.7645 15.7329 17.7374 16.3653 17.3307 16.7387C17.1463 16.908 16.9051 17.0019 16.6548 17.0019Z" fill="#6563FF"/>
<path d="M11.6499 14.96C11.0978 14.9602 10.65 14.5127 10.6499 13.9606C10.6499 13.9604 10.6499 13.9602 10.6499 13.96V8.04004C10.6499 7.48776 11.0976 7.04004 11.6499 7.04004C12.2022 7.04004 12.6499 7.48776 12.6499 8.04004V13.96C12.6501 14.5122 12.2026 14.9599 11.6504 14.96C11.6503 14.96 11.6501 14.96 11.6499 14.96Z" fill="#6563FF"/>
<path d="M12.5703 13.8305C12.0179 13.8306 11.57 13.3829 11.5699 12.8304C11.5698 12.4244 11.8152 12.0586 12.1909 11.9047C13.9544 11.1782 15.2541 9.63897 15.6748 7.77868C15.7939 7.23939 16.3277 6.89878 16.8669 7.01789C17.4062 7.137 17.7469 7.67074 17.6277 8.21003C17.6268 8.21404 17.6259 8.21804 17.625 8.22204C17.0594 10.7177 15.315 12.7821 12.9487 13.7562C12.8286 13.8054 12.7001 13.8306 12.5703 13.8305ZM11.6543 9.00238H11.6514L10.9971 9.00038C10.4449 8.99839 9.99875 8.54958 10 7.99745C10.0171 7.45175 10.4571 7.01426 11.0029 7.00038L11.6572 7.00233C12.2095 7.00314 12.6566 7.45151 12.6558 8.00379C12.655 8.55608 12.2066 9.00313 11.6543 9.00233V9.00238H11.6543Z" fill="#6563FF"/>
</svg>
