<svg width="24" height="24" viewBox="0 0 24 24" fill="none" xmlns="http://www.w3.org/2000/svg">
<path d="M6.97595 3.43359L10.6222 3.43488L12.0057 5.39088L13.38 3.43488L17.0234 3.43414L12.0238 11.8407L6.97595 3.43359Z" fill="#6563FF"/>
<path d="M14.5996 2.42969C14.2739 2.42966 13.9686 2.58823 13.7813 2.85469L12 5.38969L10.2088 2.85289C10.0214 2.58749 9.71679 2.42966 9.39191 2.42969H6.38L9.93001 8.34969L12.03 11.8497L14.1 8.34969L17.62 2.42969H14.5996Z" fill="#6563FF"/>
<path d="M22.001 2.43897L17.6171 2.43555L14.1 8.35047L12.0301 11.8505L9.93003 8.35047L6.38413 2.43732L1.99468 2.46143C1.81847 2.46228 1.64568 2.50971 1.4937 2.59888C1.01738 2.87836 0.857839 3.49097 1.13726 3.96729L11.1568 21.0728C11.3364 21.3788 11.6647 21.5668 12.0196 21.5669H12.0206C12.376 21.5666 12.7046 21.3777 12.8838 21.0708L22.8643 3.94288C22.9532 3.79035 23 3.61701 23.0003 3.44049C23.0009 2.888 22.5536 2.43964 22.001 2.43897Z" fill="#A2A1FF"/>
</svg>
