<svg width="24" height="24" viewBox="0 0 24 24" fill="none" xmlns="http://www.w3.org/2000/svg">
<path d="M9.89994 2H8.09994C8.00148 2.32358 7.96751 2.66333 7.99994 3V21C7.96751 21.3367 8.00148 21.6764 8.09994 22H9.89994C9.9984 21.6764 10.0324 21.3367 9.99994 21V3C10.0324 2.66333 9.9984 2.32358 9.89994 2Z" fill="#C1C0FF"/>
<path d="M3 2H8V22H3C2.44772 22 2 21.5523 2 21V3C2 2.44772 2.44772 2 3 2Z" fill="#6563FF"/>
<path d="M10 2H21C21.5523 2 22 2.44772 22 3V21C22 21.5523 21.5523 22 21 22H10V2Z" fill="#A2A1FF"/>
</svg>
