<svg width="24" height="24" viewBox="0 0 24 24" fill="none" xmlns="http://www.w3.org/2000/svg">
<path d="M21.9902 6.54663C21.9817 6.11756 21.9471 5.6894 21.8867 5.26453C21.8149 4.88709 21.6931 4.52094 21.5243 4.17578C21.1543 3.44435 20.5606 2.85 19.8295 2.47913C19.4864 2.31084 19.1224 2.18906 18.7471 2.117C18.319 2.05533 17.8875 2.02011 17.4551 2.01154C17.2716 2.00488 17.0342 2.00159 16.9246 2.00159L7.0769 2C6.96777 2 6.73029 2.0033 6.54663 2.00983C6.11756 2.01826 5.6894 2.05283 5.26453 2.11334C4.8871 2.18505 4.52094 2.30688 4.17578 2.47559C3.44436 2.84574 2.85001 3.43945 2.47906 4.17047C2.31082 4.51361 2.18905 4.87763 2.11694 5.25293C2.05532 5.68103 2.0201 6.11251 2.01147 6.54493C2.00494 6.7284 2.00159 6.96583 2.00159 7.07533L2 16.9231C2 17.0322 2.0033 17.2696 2.00983 17.4534C2.01826 17.8824 2.05283 18.3106 2.11334 18.7355C2.18506 19.1129 2.30689 19.4791 2.47559 19.8242C2.84572 20.5556 3.43941 21.15 4.17041 21.5209C4.51357 21.6891 4.87761 21.8109 5.25293 21.883C5.68102 21.9447 6.1125 21.9799 6.54493 21.9885C6.72834 21.9951 6.96583 21.9984 7.07533 21.9984L16.9231 22C17.0322 22 17.2697 21.9967 17.4533 21.9902C17.8824 21.9817 18.3106 21.9471 18.7355 21.8867C19.1129 21.8149 19.479 21.6931 19.8242 21.5244C20.5556 21.1543 21.1499 20.5606 21.5209 19.8295C21.6891 19.4864 21.8109 19.1224 21.883 18.7471C21.9447 18.319 21.9799 17.8875 21.9885 17.4551C21.9951 17.2716 21.9984 17.0342 21.9984 16.9247L22 7.0769C22 6.96783 21.9967 6.73029 21.9902 6.54663ZM12.2167 18.9565H12.2138C11.0235 18.9564 9.85226 18.6582 8.80688 18.0891L5.02759 19.08L6.039 15.3869C5.25543 14.0273 4.94229 12.4472 5.14815 10.8915C5.354 9.33583 6.06735 7.89153 7.17758 6.78253C8.28781 5.67353 9.73291 4.9618 11.2888 4.75768C12.8447 4.55355 14.4245 4.86845 15.7832 5.65354C17.1419 6.43862 18.2037 7.65004 18.8039 9.09997C19.404 10.5499 19.5091 12.1573 19.1027 13.673C18.6964 15.1887 17.8013 16.528 16.5563 17.4833C15.3113 18.4385 13.786 18.9564 12.2167 18.9565Z" fill="#6563FF"/>
<path d="M12.2191 5.90137C11.1602 5.90112 10.1206 6.18455 9.20845 6.72219C8.29625 7.25983 7.54474 8.03203 7.03209 8.9585C6.51943 9.88497 6.26435 10.9319 6.29336 11.9903C6.32238 13.0488 6.63443 14.0801 7.19708 14.9771L7.33802 15.2012L6.73939 17.3871L8.98202 16.799L9.19839 16.9274C10.1115 17.468 11.1532 17.7532 12.2143 17.7531H12.2167C13.787 17.7514 15.2924 17.1264 16.4023 16.0156C17.5122 14.9047 18.1358 13.3987 18.1361 11.8284C18.1365 10.2581 17.5135 8.75185 16.404 7.64054C15.2946 6.52922 13.7894 5.9037 12.2191 5.90137H12.2191ZM15.7045 14.3714C15.5733 14.5878 15.3988 14.7748 15.1919 14.9205C14.9849 15.0662 14.7501 15.1676 14.5021 15.2181C14.1277 15.2822 13.7435 15.258 13.3801 15.1476C13.0352 15.0405 12.6963 14.9153 12.3646 14.7724C11.1343 14.1551 10.0857 13.2284 9.32159 12.0835C8.90499 11.5534 8.6522 10.9131 8.59424 10.2414C8.58929 9.96402 8.64217 9.68869 8.74952 9.43291C8.85686 9.17713 9.01631 8.94652 9.21771 8.75577C9.27724 8.68788 9.35016 8.63303 9.43191 8.59468C9.51365 8.55633 9.60245 8.53531 9.69271 8.53293C9.81142 8.53293 9.93032 8.53403 10.0341 8.53922C10.1434 8.54465 10.2903 8.49766 10.4349 8.84495C10.5833 9.20145 10.9396 10.0779 10.9841 10.1671C11.0123 10.2138 11.0285 10.2667 11.0311 10.3212C11.0337 10.3757 11.0226 10.4299 10.999 10.4791C10.9541 10.5861 10.8941 10.6862 10.8208 10.7762C10.7318 10.8802 10.6337 11.0084 10.5537 11.0882C10.4644 11.177 10.3716 11.2734 10.4755 11.4516C10.743 11.9095 11.077 12.3253 11.4665 12.6853C11.889 13.0609 12.3737 13.36 12.899 13.5692C13.0771 13.6583 13.181 13.6434 13.2849 13.5246C13.3888 13.4058 13.7302 13.0046 13.8489 12.8264C13.9676 12.6481 14.0864 12.6778 14.2496 12.7373C14.4129 12.7967 15.2888 13.2275 15.4669 13.3166C15.6451 13.4057 15.7638 13.4503 15.8083 13.5246C15.8571 13.811 15.821 14.1054 15.7045 14.3714V14.3714Z" fill="#6563FF"/>
</svg>
