<svg width="24" height="24" viewBox="0 0 24 24" fill="none" xmlns="http://www.w3.org/2000/svg">
<path d="M15.6634 11.7752C13.6464 10.6973 11.715 9.69774 9.74084 8.66309V14.853C11.8183 13.7237 14.0084 12.689 15.672 11.7666L15.6634 11.7752Z" fill="#A2A1FF"/>
<path d="M22.9738 9.71435C23.0204 8.28301 22.7063 6.86291 22.0603 5.58477C21.6286 5.05138 21.02 4.69054 20.3449 4.56762C17.5729 4.32696 14.7903 4.22912 12.0081 4.27459C9.22611 4.22888 6.44363 4.32672 3.67172 4.56762C3.12259 4.67016 2.61417 4.9273 2.20609 5.30883C1.31143 6.13818 1.24612 7.55975 1.11142 8.75726C0.963837 10.9157 0.963837 13.0818 1.11142 15.2402C1.13577 15.9162 1.23697 16.5871 1.41306 17.2402C1.53232 17.7458 1.77524 18.2139 2.11997 18.6025C2.52811 19.0048 3.0477 19.2749 3.61136 19.378C5.76718 19.6451 7.93967 19.7546 10.1115 19.7057V19.7058C13.6056 19.7617 16.6842 19.7025 20.3098 19.4299C20.8892 19.3304 21.4245 19.0568 21.8444 18.6455C22.1172 18.3742 22.3237 18.0438 22.4481 17.6798C22.8097 16.5845 22.9873 15.4369 22.9738 14.2836C23.008 13.6885 23.008 10.3094 22.9738 9.71435ZM15.6635 11.7747C15.6622 11.774 15.661 11.7733 15.6597 11.7726C14.8305 12.2319 13.8721 12.7189 12.8617 13.2317C11.8465 13.7468 10.7796 14.2878 9.74088 14.8525V8.66259V8.66253C10.728 9.17986 11.7044 9.68847 12.6861 10.2024C13.6667 10.7157 14.6526 11.2344 15.6597 11.7726C15.6635 11.7705 15.6682 11.7683 15.672 11.7661L15.6635 11.7747Z" fill="#6563FF"/>
</svg>
