<svg width="24" height="24" viewBox="0 0 24 24" fill="none" xmlns="http://www.w3.org/2000/svg">
<path d="M21.84 5.56048C21.7072 4.70889 21.3081 3.92124 20.7 3.31048C20.0892 2.70236 19.3016 2.30329 18.45 2.17048C16.2411 1.86604 13.9918 2.07691 11.878 2.78659C9.76421 3.49627 7.84332 4.68549 6.26569 6.26119C4.68805 7.83689 3.49647 9.75631 2.78419 11.8692C2.07192 13.9821 1.85829 16.2312 2.16001 18.4405C2.29282 19.2921 2.69189 20.0797 3.30001 20.6905C3.91077 21.2986 4.69842 21.6977 5.55001 21.8305C6.23773 21.9423 6.93326 21.9991 7.63001 22.0005C11.4308 21.9734 15.066 20.4416 17.74 17.7405C19.331 16.1742 20.5311 14.2556 21.2433 12.1397C21.9556 10.0238 22.16 7.76999 21.84 5.56048ZM4.21001 18.3705C4.18074 18.2923 4.15735 18.2121 4.14001 18.1305C3.86551 16.2322 4.04205 14.296 4.65535 12.4787C5.26864 10.6615 6.30142 9.01421 7.67001 7.67048C9.9719 5.34674 13.0993 4.02749 16.37 4.00048C16.9596 3.99736 17.5483 4.0442 18.13 4.14048C18.2116 4.15782 18.2919 4.18121 18.37 4.21048L13.44 9.15047L12.71 8.42048C12.617 8.32675 12.5064 8.25235 12.3846 8.20158C12.2627 8.15082 12.132 8.12468 12 8.12468C11.868 8.12468 11.7373 8.15082 11.6154 8.20158C11.4936 8.25235 11.383 8.32675 11.29 8.42048C11.1038 8.60784 10.9992 8.86129 10.9992 9.12547C10.9992 9.38966 11.1038 9.64311 11.29 9.83047L12.02 10.5605L10.56 12.0005L9.83001 11.2705C9.64264 11.0842 9.38919 10.9797 9.12501 10.9797C8.86082 10.9797 8.60737 11.0842 8.42001 11.2705C8.32628 11.3634 8.25188 11.474 8.20111 11.5959C8.15035 11.7178 8.12421 11.8485 8.12421 11.9805C8.12421 12.1125 8.15035 12.2432 8.20111 12.3651C8.25188 12.4869 8.32628 12.5975 8.42001 12.6905L9.15001 13.4205L4.21001 18.3705ZM16.33 16.3705C14.9811 17.73 13.332 18.754 11.5153 19.3601C9.69858 19.9662 7.76499 20.1376 5.87001 19.8605C5.78838 19.8431 5.70816 19.8197 5.63001 19.7905L10.56 14.8505L11.29 15.5805C11.3826 15.6737 11.4926 15.7478 11.6138 15.7985C11.7351 15.8492 11.8651 15.8756 11.9965 15.876C12.1279 15.8765 12.2581 15.8511 12.3796 15.8012C12.5012 15.7514 12.6118 15.6781 12.705 15.5855C12.7982 15.4929 12.8723 15.3829 12.923 15.2616C12.9738 15.1404 13.0001 15.0104 13.0006 14.879C13.001 14.7476 12.9756 14.6174 12.9258 14.4958C12.8759 14.3743 12.8026 14.2637 12.71 14.1705L12 13.4405L13.44 12.0005L14.17 12.7305C14.2634 12.8232 14.3743 12.8965 14.4961 12.9462C14.6179 12.996 14.7484 13.0212 14.88 13.0205C15.0778 13.0196 15.2709 12.9602 15.4348 12.8496C15.5988 12.7391 15.7263 12.5824 15.8013 12.3993C15.8762 12.2163 15.8952 12.0152 15.8558 11.8213C15.8164 11.6275 15.7204 11.4497 15.58 11.3105L14.85 10.5805L19.79 5.65048C19.8193 5.72863 19.8427 5.80885 19.86 5.89048C20.1312 7.78556 19.9531 9.71786 19.3399 11.5314C18.7267 13.3449 17.6956 14.9889 16.33 16.3305V16.3705Z" fill="black"/>
</svg>
