<svg width="24" height="24" viewBox="0 0 24 24" fill="none" xmlns="http://www.w3.org/2000/svg">
<path d="M17.4799 6.55019L14.6399 3.71019C14.547 3.61646 14.4364 3.54206 14.3145 3.49129C14.1927 3.44053 14.062 3.41439 13.9299 3.41439C13.7979 3.41439 13.6672 3.44053 13.5454 3.49129C13.4235 3.54206 13.3129 3.61646 13.2199 3.71019C13.0337 3.89755 12.9291 4.151 12.9291 4.41519C12.9291 4.67937 13.0337 4.93282 13.2199 5.12019L15.3399 7.24019L7.23994 15.3402L5.11994 13.2202C4.93258 13.0339 4.67913 12.9294 4.41494 12.9294C4.15076 12.9294 3.8973 13.0339 3.70994 13.2202C3.61621 13.3131 3.54182 13.4237 3.49105 13.5456C3.44028 13.6675 3.41414 13.7982 3.41414 13.9302C3.41414 14.0622 3.44028 14.1929 3.49105 14.3148C3.54182 14.4366 3.61621 14.5472 3.70994 14.6402L6.51994 17.4502L9.32994 20.2602C9.42256 20.3547 9.533 20.4298 9.65488 20.4813C9.77675 20.5328 9.90763 20.5596 10.0399 20.5602C10.2386 20.5613 10.433 20.5033 10.5986 20.3935C10.7641 20.2837 10.8931 20.1271 10.9693 19.9437C11.0455 19.7602 11.0653 19.5583 11.0262 19.3635C10.9872 19.1688 10.891 18.9901 10.7499 18.8502L8.65994 16.7602L16.7599 8.66019L18.8799 10.7802C18.9732 10.8728 19.0837 10.9461 19.2053 10.9959C19.3269 11.0458 19.4571 11.0712 19.5885 11.0707C19.7199 11.0703 19.8499 11.0439 19.9711 10.9932C20.0923 10.9425 20.2024 10.8684 20.2949 10.7752C20.3875 10.6819 20.4608 10.5714 20.5107 10.4498C20.5605 10.3282 20.586 10.198 20.5855 10.0666C20.585 9.93525 20.5587 9.80524 20.508 9.68402C20.4573 9.56281 20.3832 9.45277 20.2899 9.36019L17.4799 6.55019ZM3.70994 17.4602C3.52164 17.2719 3.26624 17.1661 2.99994 17.1661C2.73364 17.1661 2.47824 17.2719 2.28994 17.4602C2.10164 17.6485 1.99585 17.9039 1.99585 18.1702C1.99585 18.4365 2.10164 18.6919 2.28994 18.8802L5.11994 21.7102C5.21338 21.8029 5.3242 21.8762 5.44603 21.926C5.56787 21.9757 5.69833 22.0009 5.82994 22.0002C5.96155 22.0009 6.09201 21.9757 6.21385 21.926C6.33569 21.8762 6.4465 21.8029 6.53994 21.7102C6.63367 21.6172 6.70806 21.5066 6.75883 21.3848C6.8096 21.2629 6.83574 21.1322 6.83574 21.0002C6.83574 20.8682 6.8096 20.7375 6.75883 20.6156C6.70806 20.4937 6.63367 20.3831 6.53994 20.2902L3.70994 17.4602ZM21.7099 5.12019L18.8799 2.29019C18.7867 2.19695 18.676 2.12299 18.5542 2.07253C18.4324 2.02207 18.3018 1.99609 18.1699 1.99609C18.0381 1.99609 17.9075 2.02207 17.7857 2.07253C17.6639 2.12299 17.5532 2.19695 17.4599 2.29019C17.3667 2.38342 17.2927 2.49411 17.2423 2.61594C17.1918 2.73776 17.1658 2.86833 17.1658 3.00019C17.1658 3.13204 17.1918 3.26261 17.2423 3.38443C17.2927 3.50626 17.3667 3.61695 17.4599 3.71019L20.2899 6.54019C20.3829 6.63391 20.4935 6.70831 20.6154 6.75908C20.7372 6.80985 20.8679 6.83598 20.9999 6.83598C21.132 6.83598 21.2627 6.80985 21.3845 6.75908C21.5064 6.70831 21.617 6.63391 21.7099 6.54019C21.8037 6.44722 21.8781 6.33662 21.9288 6.21476C21.9796 6.0929 22.0057 5.9622 22.0057 5.83019C22.0057 5.69817 21.9796 5.56747 21.9288 5.44561C21.8781 5.32375 21.8037 5.21315 21.7099 5.12019Z" fill="black"/>
</svg>
