<svg width="24" height="24" viewBox="0 0 24 24" fill="none" xmlns="http://www.w3.org/2000/svg">
<path d="M21.12 16.88C20.6817 16.4453 20.1201 16.1563 19.5116 16.0525C18.9032 15.9487 18.2775 16.0351 17.72 16.3L16.57 15.16C18.9261 12.6176 20.7035 9.59491 21.78 6.29999C21.9842 5.73076 22.0225 5.11518 21.8903 4.52503C21.758 3.93489 21.4607 3.39449 21.0331 2.96685C20.6055 2.5392 20.0651 2.24193 19.4749 2.1097C18.8848 1.97747 18.2692 2.01572 17.7 2.21999C14.405 3.29646 11.3824 5.07388 8.83996 7.42999L7.69996 6.27999C7.93679 5.78309 8.03234 5.2306 7.97615 4.68301C7.91996 4.13542 7.71419 3.61385 7.38137 3.1754C7.04855 2.73695 6.60151 2.39852 6.0892 2.19717C5.57689 1.99581 5.01905 1.9393 4.47676 2.0338C3.93448 2.12831 3.42864 2.3702 3.01465 2.73298C2.60065 3.09577 2.29445 3.56547 2.12956 4.09066C1.96468 4.61584 1.94748 5.17627 2.07983 5.71058C2.21218 6.2449 2.489 6.73249 2.87996 7.11999C3.44203 7.68276 4.20458 7.99929 4.99996 7.99999C5.44356 7.99586 5.88072 7.8934 6.27996 7.69999L7.42996 8.83999C5.07385 11.3824 3.29642 14.4051 2.21996 17.7C2.03247 18.2684 2.0061 18.8777 2.14378 19.4602C2.28146 20.0427 2.57781 20.5757 2.99996 21C3.28582 21.3048 3.62913 21.55 4.01012 21.7216C4.39111 21.8933 4.80227 21.9879 5.21996 22C5.58634 21.9965 5.95023 21.9393 6.29996 21.83C9.59488 20.7535 12.6175 18.9761 15.16 16.62L16.3 17.77C16.0631 18.2669 15.9676 18.8194 16.0238 19.367C16.08 19.9146 16.2857 20.4361 16.6185 20.8746C16.9514 21.313 17.3984 21.6515 17.9107 21.8528C18.423 22.0542 18.9809 22.1107 19.5232 22.0162C20.0654 21.9217 20.5713 21.6798 20.9853 21.317C21.3993 20.9542 21.7055 20.4845 21.8704 19.9593C22.0352 19.4341 22.0524 18.8737 21.9201 18.3394C21.7877 17.8051 21.5109 17.3175 21.12 16.93V16.88ZM5.70996 5.69999C5.52298 5.8883 5.26886 5.99461 5.00349 5.99555C4.73813 5.99649 4.48326 5.89197 4.29496 5.70499C4.10665 5.51802 4.00034 5.26389 3.9994 4.99853C3.99846 4.73317 4.10298 4.4783 4.28996 4.28999C4.47694 4.10169 4.73106 3.99538 4.99642 3.99444C5.26179 3.9935 5.51665 4.09802 5.70496 4.28499C5.89326 4.47197 5.99958 4.72609 6.00051 4.99146C6.00145 5.25682 5.89694 5.51169 5.70996 5.69999ZM18.31 4.12999C18.4618 4.08 18.6202 4.05304 18.78 4.04999C18.9339 4.04874 19.0866 4.07815 19.2291 4.13653C19.3717 4.1949 19.5011 4.28107 19.61 4.38999C19.7729 4.55922 19.884 4.77159 19.9301 5.00197C19.9762 5.23235 19.9553 5.4711 19.87 5.68999C19.3417 7.31379 18.6269 8.87085 17.74 10.33L13.67 6.25999C15.1291 5.37304 16.6862 4.65827 18.31 4.12999ZM5.68996 19.87C5.47188 19.9573 5.23299 19.9787 5.00288 19.9314C4.77278 19.8842 4.56159 19.7706 4.3955 19.6045C4.2294 19.4384 4.1157 19.2272 4.0685 18.9971C4.0213 18.767 4.04267 18.5281 4.12996 18.31C4.65823 16.6862 5.37301 15.1291 6.25996 13.67L10.33 17.74C8.87081 18.6269 7.31375 19.3417 5.68996 19.87ZM12 16.59L7.40996 12C7.85559 11.3952 8.33293 10.8144 8.83996 10.26L13.75 15.17C13.1921 15.6739 12.608 16.1479 12 16.59ZM15.15 13.75L10.25 8.83999C10.8076 8.33268 11.3917 7.85534 12 7.40999L16.6 12.01C16.1511 12.6151 15.6704 13.1959 15.16 13.75H15.15ZM19.7 19.75C19.6074 19.8432 19.4973 19.9173 19.3761 19.968C19.2549 20.0187 19.1249 20.0451 18.9935 20.0456C18.8621 20.046 18.7319 20.0206 18.6103 19.9707C18.4888 19.9209 18.3782 19.8476 18.285 19.755C18.1917 19.6624 18.1176 19.5524 18.0669 19.4312C18.0162 19.3099 17.9899 19.1799 17.9894 19.0485C17.9889 18.9171 18.0144 18.7869 18.0642 18.6654C18.1141 18.5438 18.1874 18.4332 18.28 18.34C18.4673 18.1537 18.7208 18.0492 18.985 18.0492C19.2491 18.0492 19.5026 18.1537 19.69 18.34C19.8671 18.5229 19.9677 18.7665 19.9715 19.021C19.9752 19.2756 19.8816 19.522 19.71 19.71L19.7 19.75Z" fill="black"/>
</svg>
