<svg width="24" height="24" viewBox="0 0 24 24" fill="none" xmlns="http://www.w3.org/2000/svg">
<path d="M21.0599 12.2802C21.0528 10.7788 20.4525 9.34097 19.3899 8.2802L13.9999 2.8102C13.4692 2.28015 12.7499 1.98242 11.9999 1.98242C11.2499 1.98242 10.5305 2.28015 9.99988 2.8102L4.60988 8.2302C3.54726 9.29097 2.94699 10.7288 2.93988 12.2302C2.93059 12.9863 3.07183 13.7367 3.35538 14.4376C3.63892 15.1386 4.0591 15.7762 4.59144 16.3132C5.12379 16.8502 5.75766 17.2759 6.45614 17.5655C7.15462 17.8551 7.90374 18.0029 8.65988 18.0002C8.40859 18.8629 7.99072 19.6681 7.42988 20.3702C7.30888 20.5191 7.23329 20.6997 7.21212 20.8904C7.19095 21.0812 7.2251 21.2739 7.31049 21.4458C7.39588 21.6176 7.52891 21.7613 7.69371 21.8596C7.8585 21.9579 8.0481 22.0067 8.23988 22.0002H15.7599C15.9491 22.0008 16.1347 21.9478 16.2949 21.8472C16.4552 21.7466 16.5837 21.6026 16.6653 21.4319C16.747 21.2612 16.7786 21.0708 16.7564 20.8829C16.7342 20.6949 16.6591 20.5172 16.5399 20.3702C15.9782 19.6687 15.5602 18.8633 15.3099 18.0002C16.0638 18.0082 16.8118 17.8662 17.5104 17.5825C18.209 17.2989 18.8443 16.8793 19.3793 16.348C19.9143 15.8167 20.3384 15.1844 20.6269 14.4878C20.9154 13.7912 21.0626 13.0442 21.0599 12.2902V12.2802ZM17.9999 14.9102C17.5269 15.376 16.9397 15.709 16.2972 15.8757C15.6547 16.0425 14.9796 16.0371 14.3399 15.8602C14.2833 15.8554 14.2264 15.8554 14.1699 15.8602H13.9699C13.8951 15.8742 13.8215 15.8943 13.7499 15.9202H13.5999C13.5522 15.9514 13.5085 15.9883 13.4699 16.0302C13.4066 16.0682 13.3494 16.1154 13.2999 16.1702C13.2838 16.2089 13.2637 16.2457 13.2399 16.2802C13.196 16.3548 13.1559 16.4315 13.1199 16.5102C13.115 16.5701 13.115 16.6303 13.1199 16.6902C13.1199 16.7502 13.1199 16.8102 13.1199 16.8702C13.1983 17.9551 13.4763 19.0162 13.9399 20.0002H10.0599C10.5336 19.0622 10.8319 18.0455 10.9399 17.0002C10.9399 16.9402 10.9399 16.8802 10.9399 16.8102C10.9448 16.7503 10.9448 16.6901 10.9399 16.6302C10.9065 16.5452 10.8628 16.4646 10.8099 16.3902C10.7936 16.3548 10.7735 16.3212 10.7499 16.2902C10.7064 16.2334 10.652 16.1858 10.5899 16.1502C10.5491 16.1107 10.5056 16.0739 10.4599 16.0402H10.3199C10.2468 16.0065 10.1694 15.9829 10.0899 15.9702H9.89988C9.83998 15.9653 9.77978 15.9653 9.71988 15.9702C9.06165 16.1417 8.36952 16.1338 7.71536 15.9474C7.0612 15.761 6.46887 15.4029 5.99988 14.9102C5.30496 14.2109 4.91338 13.2661 4.90988 12.2802C4.90835 11.7915 5.00392 11.3073 5.19103 10.8558C5.37815 10.4044 5.65309 9.99455 5.99988 9.6502L11.3999 4.2302C11.5511 4.08298 11.7538 4.00061 11.9649 4.00061C12.1759 4.00061 12.3787 4.08298 12.5299 4.2302L17.9999 9.6502C18.3467 9.99455 18.6216 10.4044 18.8087 10.8558C18.9958 11.3073 19.0914 11.7915 19.0899 12.2802C19.0832 13.2654 18.6921 14.2091 17.9999 14.9102Z" fill="black"/>
</svg>
