<svg width="24" height="24" viewBox="0 0 24 24" fill="none" xmlns="http://www.w3.org/2000/svg">
<path d="M20 10.3503L14.22 2.94034C13.9297 2.63804 13.5803 2.39861 13.1936 2.2369C12.8069 2.07519 12.3911 1.99465 11.972 2.00028C11.5529 2.0059 11.1394 2.09757 10.7572 2.2696C10.3749 2.44163 10.0321 2.69035 9.75001 3.00034L4.00001 10.3503C3.68165 10.8419 3.51155 11.4147 3.51001 12.0003C3.52671 12.5617 3.69612 13.108 4.00001 13.5803L4.06001 13.6503L9.80001 21.0603C10.0826 21.3596 10.4238 21.5974 10.8023 21.7591C11.1807 21.9208 11.5884 22.0029 12 22.0003C12.4255 22 12.8463 21.9108 13.2355 21.7386C13.6246 21.5665 13.9735 21.315 14.26 21.0003L20 13.6503C20.3137 13.1547 20.4753 12.5779 20.4646 11.9913C20.4539 11.4048 20.2716 10.8343 19.94 10.3503H20ZM18.43 12.4903L12.76 19.7103C12.5689 19.8863 12.3222 19.9897 12.0627 20.0025C11.8032 20.0153 11.5475 19.9367 11.34 19.7803L5.65001 12.4703C5.56506 12.3277 5.51694 12.1662 5.51001 12.0003C5.51149 11.845 5.54555 11.6917 5.61001 11.5503L11.28 4.33034C11.4711 4.15435 11.7179 4.05095 11.9773 4.03816C12.2368 4.02537 12.4925 4.10399 12.7 4.26034L18.33 11.5403C18.434 11.7013 18.4895 11.8887 18.49 12.0803C18.4832 12.2221 18.4493 12.3613 18.39 12.4903H18.43Z" fill="black"/>
</svg>
