<svg width="24" height="24" viewBox="0 0 24 24" fill="none" xmlns="http://www.w3.org/2000/svg">
<path d="M20.9999 12.4999C20.9957 11.3929 20.6587 10.3128 20.0328 9.39974C19.4069 8.48671 18.5209 7.78296 17.4899 7.37988C17.4899 5.92119 16.9104 4.52225 15.879 3.4908C14.8475 2.45935 13.4486 1.87988 11.9899 1.87988C10.5312 1.87988 9.13227 2.45935 8.10082 3.4908C7.06937 4.52225 6.48991 5.92119 6.48991 7.37988C5.29702 7.84793 4.30499 8.7178 3.68512 9.83932C3.06524 10.9608 2.85643 12.2636 3.09473 13.5227C3.33303 14.7818 4.00348 15.9181 4.99033 16.7355C5.97718 17.553 7.21848 18.0001 8.49991 17.9999H8.69991C8.44729 18.8702 8.02596 19.6822 7.45991 20.3899C7.34659 20.5371 7.27651 20.7129 7.2575 20.8976C7.23849 21.0824 7.27132 21.2688 7.3523 21.436C7.43329 21.6031 7.55922 21.7444 7.716 21.844C7.87277 21.9436 8.05418 21.9976 8.23991 21.9999H15.7599C15.9491 22.0005 16.1347 21.9475 16.295 21.8469C16.4552 21.7463 16.5837 21.6022 16.6654 21.4315C16.747 21.2608 16.7786 21.0705 16.7564 20.8825C16.7342 20.6946 16.6591 20.5168 16.5399 20.3699C15.9762 19.6682 15.5549 18.8631 15.2999 17.9999H15.4999C16.9578 17.9972 18.3552 17.4169 19.3861 16.3861C20.417 15.3552 20.9973 13.9578 20.9999 12.4999ZM10.0599 19.9999C10.458 19.1925 10.7311 18.3293 10.8699 17.4399C11.2736 17.2534 11.6531 17.0183 11.9999 16.7399C12.3467 17.0183 12.7262 17.2534 13.1299 17.4399C13.2687 18.3293 13.5419 19.1925 13.9399 19.9999H10.0599ZM12.7799 14.6999L12.6999 14.6199L12.6199 14.5399H12.5499L12.3699 14.4499L12.1899 14.3899H11.8099L11.6299 14.4499C11.5685 14.4699 11.511 14.5003 11.4599 14.5399H11.3799L11.2999 14.6199L11.2199 14.6999C10.8682 15.1347 10.4174 15.4789 9.90533 15.7037C9.39324 15.9285 8.83473 16.0273 8.27659 15.9918C7.71846 15.9563 7.17695 15.7876 6.69743 15.4998C6.21791 15.212 5.81434 14.8135 5.52053 14.3376C5.22671 13.8618 5.05121 13.3224 5.00871 12.7648C4.96622 12.2072 5.05798 11.6474 5.2763 11.1326C5.49462 10.6177 5.83315 10.1626 6.26352 9.80546C6.6939 9.44832 7.20359 9.19951 7.74991 9.07988C7.80531 9.05756 7.85881 9.03081 7.90991 8.99988C7.97169 8.97741 8.03183 8.95068 8.08991 8.91988C8.14142 8.88208 8.1884 8.83846 8.22991 8.78988C8.33018 8.71066 8.40353 8.60239 8.43991 8.47988C8.4717 8.42708 8.4953 8.36976 8.50991 8.30988C8.51962 8.24357 8.51962 8.1762 8.50991 8.10988C8.51473 8.05332 8.51473 7.99645 8.50991 7.93988C8.49997 7.79005 8.49997 7.63972 8.50991 7.48988C8.50991 6.56162 8.87866 5.67139 9.53504 5.01501C10.1914 4.35863 11.0817 3.98988 12.0099 3.98988C12.9382 3.98988 13.8284 4.35863 14.4848 5.01501C15.1412 5.67139 15.5099 6.56162 15.5099 7.48988C15.5198 7.63972 15.5198 7.79005 15.5099 7.93988C15.5046 7.99309 15.5046 8.04668 15.5099 8.09988C15.4999 8.16953 15.4999 8.24024 15.5099 8.30988C15.5245 8.36976 15.5481 8.42708 15.5799 8.47988C15.6163 8.60239 15.6896 8.71066 15.7899 8.78988C15.8314 8.83846 15.8784 8.88208 15.9299 8.91988C15.988 8.95068 16.0481 8.97741 16.1099 8.99988C16.1613 9.02738 16.2148 9.05079 16.2699 9.06988C16.8162 9.18951 17.3259 9.43832 17.7563 9.79546C18.1867 10.1526 18.5252 10.6077 18.7435 11.1226C18.9618 11.6374 19.0536 12.1972 19.0111 12.7548C18.9686 13.3124 18.7931 13.8518 18.4993 14.3276C18.2055 14.8035 17.8019 15.202 17.3224 15.4898C16.8429 15.7776 16.3014 15.9463 15.7432 15.9818C15.1851 16.0173 14.6266 15.9185 14.1145 15.6937C13.6024 15.4689 13.1516 15.1247 12.7999 14.6899L12.7799 14.6999Z" fill="black"/>
</svg>
