<svg width="24" height="24" viewBox="0 0 24 24" fill="none" xmlns="http://www.w3.org/2000/svg">
<path d="M20.07 6.10959C18.9817 4.60697 17.4912 3.44227 15.77 2.74959C14.2526 2.13196 12.6067 1.89659 10.977 2.06418C9.3473 2.23178 7.78375 2.79721 6.42381 3.71075C5.06387 4.62428 3.94921 5.85795 3.17783 7.30328C2.40645 8.7486 2.00199 10.3613 2 11.9996C2 12.1896 2 12.3796 2 12.5596C2.08726 14.1237 2.54299 15.6451 3.33 16.9996C4.61526 19.2554 6.72747 20.923 9.22 21.6496C10.1259 21.8947 11.0616 22.0125 12 21.9996C12.6311 22.0025 13.2609 21.9422 13.88 21.8196C15.9226 21.4242 17.7911 20.4015 19.2251 18.8941C20.659 17.3866 21.5871 15.4694 21.88 13.4096C21.9551 12.9432 21.9953 12.4719 22 11.9996C22.0087 9.8795 21.3317 7.81342 20.07 6.10959ZM18.07 6.87959L17 9.73959L15.38 10.1796L13 8.48959V6.63959L15.49 4.82959C16.5004 5.31684 17.394 6.01603 18.11 6.87959H18.07ZM14 11.6696L13.22 13.9996H10.77L10 11.6696L12 10.2396L14 11.6696ZM12 3.99959C12.3716 4.00377 12.7425 4.03384 13.11 4.08959L12 4.88959L10.89 4.08959C11.2575 4.03384 11.6284 4.00377 12 3.99959ZM4.88 8.36959L5.28 9.68959L4.15 10.4796C4.29195 9.74518 4.53775 9.03471 4.88 8.36959ZM6.25 17.5396L7.63 17.5896L8 18.9196C7.35742 18.5402 6.76881 18.076 6.25 17.5396ZM8 15.5996L4.85 15.4896C4.45256 14.7091 4.1889 13.8674 4.07 12.9996L6.56 11.2596L8 11.8796L8.89 14.6396L8 15.5996ZM8.86 10.0696L7.3 9.36959L6.39 6.36959C7.00337 5.74315 7.71637 5.22276 8.5 4.82959L11 6.63959V8.48959L8.86 10.0696ZM13 19.9296C12.1227 20.0336 11.2342 19.9931 10.37 19.8096L9.54 16.8896L10.37 15.9996H13.44L14.11 16.9996L13 19.9296ZM15.41 19.2296L15.87 17.9996L17.23 18.0696C16.6705 18.5408 16.0478 18.9312 15.38 19.2296H15.41ZM18.87 16.1096L15.76 15.9996L15.05 14.8996L15.94 12.1396L17.45 11.7296L19.81 13.7296C19.6198 14.5709 19.2921 15.375 18.84 16.1096H18.87ZM18.92 10.2796L19.4 8.99959C19.6816 9.6793 19.8602 10.3972 19.93 11.1296L18.92 10.2796Z" fill="black"/>
</svg>
