<svg width="24" height="24" viewBox="0 0 24 24" fill="none" xmlns="http://www.w3.org/2000/svg">
<path d="M20.7099 16.0997L19.0699 14.4597C18.9264 14.3265 18.828 14.1517 18.7886 13.9599C18.7491 13.7681 18.7706 13.5687 18.8499 13.3897C19.1987 12.6408 19.3828 11.8258 19.3899 10.9997C19.3946 10.9665 19.3946 10.9328 19.3899 10.8997C19.3934 9.70307 19.0228 8.5353 18.3299 7.55968C16.991 5.68844 15.2166 4.17141 13.1599 3.13968C11.8554 2.50104 10.3844 2.28405 8.95101 2.51877C7.51759 2.75349 6.19269 3.4283 5.15994 4.44968L4.48994 5.11968C3.45782 6.15634 2.77642 7.49032 2.54145 8.93418C2.30649 10.378 2.52977 11.8592 3.17994 13.1697L3.27994 13.3397C2.74628 13.8933 2.44558 14.6307 2.43994 15.3997C2.44391 15.9303 2.58855 16.4504 2.8591 16.9068C3.12965 17.3633 3.51644 17.7399 3.98 17.9981C4.44357 18.2563 4.96733 18.3869 5.49786 18.3767C6.02839 18.3664 6.5467 18.2156 6.99994 17.9397C7.17994 18.0797 7.33994 18.2297 7.51994 18.3597C7.89845 18.6229 8.30827 18.8378 8.73994 18.9997H8.82994C9.00994 19.0697 9.19994 19.1297 9.39994 19.1897H9.54994C9.86115 19.2696 10.1792 19.3198 10.4999 19.3397H10.7799H10.8999H11.1199C11.3299 19.3397 11.5299 19.3397 11.7399 19.2797H11.9099C12.4016 19.1953 12.8794 19.0438 13.3299 18.8297C13.5095 18.7574 13.7062 18.7387 13.8961 18.776C14.086 18.8133 14.261 18.9049 14.3999 19.0397L15.8599 20.4997C16.4934 21.1354 17.3525 21.4948 18.2499 21.4997C19.0027 21.4916 19.7217 21.186 20.2499 20.6497L20.6299 20.2697C21.1815 19.7207 21.4982 18.9789 21.5131 18.2009C21.5281 17.4228 21.2401 16.6694 20.7099 16.0997ZM5.40994 16.4197C5.21216 16.4197 5.01882 16.361 4.85437 16.2511C4.68992 16.1413 4.56175 15.9851 4.48606 15.8024C4.41037 15.6196 4.39057 15.4186 4.42916 15.2246C4.46774 15.0306 4.56298 14.8524 4.70283 14.7126C4.84269 14.5727 5.02087 14.4775 5.21485 14.4389C5.40883 14.4003 5.6099 14.4201 5.79262 14.4958C5.97535 14.5715 6.13153 14.6997 6.24141 14.8641C6.35129 15.0286 6.40994 15.2219 6.40994 15.4197C6.40994 15.6849 6.30458 15.9392 6.11705 16.1268C5.92951 16.3143 5.67516 16.4197 5.40994 16.4197ZM8.50994 16.5597L8.24994 16.3597C8.35407 16.0571 8.40811 15.7396 8.40994 15.4197C8.40994 14.624 8.09387 13.861 7.53126 13.2984C6.96865 12.7357 6.20559 12.4197 5.40994 12.4197C5.27994 12.4197 5.15994 12.4197 5.02994 12.4197L4.93994 12.2597C4.47482 11.3242 4.3144 10.2666 4.4812 9.23527C4.648 8.20397 5.13365 7.25081 5.86994 6.50968L6.53994 5.83968C7.2906 5.12022 8.24687 4.65268 9.27567 4.50213C10.3045 4.35157 11.3546 4.52549 12.2799 4.99968C13.9598 5.83989 15.4189 7.06269 16.5399 8.56968L8.50994 16.5597ZM19.2899 18.9297L18.9199 19.3097C18.4999 19.7297 17.8499 19.6497 17.3099 19.1097L15.8499 17.6597C15.42 17.2325 14.8707 16.9456 14.2745 16.8367C13.6783 16.7278 13.0631 16.8021 12.5099 17.0497C12.1947 17.2042 11.8573 17.3087 11.5099 17.3597C11.3188 17.3962 11.1245 17.4129 10.9299 17.4097H10.5899H10.4899L17.3599 10.5397C17.4299 11.2248 17.3124 11.9161 17.0199 12.5397C16.7723 13.0929 16.6981 13.7081 16.807 14.3043C16.9159 14.9005 17.2028 15.4497 17.6299 15.8797L19.2699 17.5297C19.4559 17.714 19.5621 17.9638 19.5658 18.2256C19.5696 18.4874 19.4705 18.7401 19.2899 18.9297Z" fill="black"/>
</svg>
