<svg width="24" height="24" viewBox="0 0 24 24" fill="none" xmlns="http://www.w3.org/2000/svg">
<path d="M22 14.8603V14.8103C21.9879 14.6172 21.9544 14.426 21.9 14.2403L20.26 4.51027C20.1428 3.80223 19.7757 3.15964 19.2253 2.69911C18.6749 2.23859 17.9776 1.99064 17.26 2.00027H6.69C5.98097 2.00257 5.29566 2.25592 4.75565 2.71539C4.21563 3.17486 3.85581 3.81075 3.74 4.51027L2.12 14.2203C2.06564 14.406 2.0321 14.5972 2.02 14.7903V14.8403C2 14.9103 2 15.0003 2 15.0003V19.0003C2 19.7959 2.31607 20.559 2.87868 21.1216C3.44129 21.6842 4.20435 22.0003 5 22.0003H19C19.7956 22.0003 20.5587 21.6842 21.1213 21.1216C21.6839 20.559 22 19.7959 22 19.0003V15.0003C22 15.0003 22 14.9103 22 14.8603ZM5.71 4.83027C5.75048 4.59548 5.87346 4.38285 6.05679 4.23068C6.24013 4.07852 6.47177 3.99681 6.71 4.00027H17.31C17.5482 3.99681 17.7799 4.07852 17.9632 4.23068C18.1465 4.38285 18.2695 4.59548 18.31 4.83027L19.51 12.0503C19.342 12.017 19.1712 12.0003 19 12.0003H5C4.83546 12.0016 4.67141 12.0183 4.51 12.0503L5.71 4.83027ZM20 19.0003C20 19.2655 19.8946 19.5198 19.7071 19.7074C19.5196 19.8949 19.2652 20.0003 19 20.0003H5C4.73478 20.0003 4.48043 19.8949 4.29289 19.7074C4.10536 19.5198 4 19.2655 4 19.0003V15.0803L4.08 14.6203C4.15502 14.4377 4.28242 14.2813 4.44614 14.171C4.60986 14.0607 4.80257 14.0013 5 14.0003H19C19.1974 14.0013 19.3901 14.0607 19.5539 14.171C19.7176 14.2813 19.845 14.4377 19.92 14.6203L20 15.0803V19.0003ZM17 16.0003C16.8022 16.0003 16.6089 16.0589 16.4444 16.1688C16.28 16.2787 16.1518 16.4349 16.0761 16.6176C16.0004 16.8003 15.9806 17.0014 16.0192 17.1954C16.0578 17.3893 16.153 17.5675 16.2929 17.7074C16.4327 17.8472 16.6109 17.9425 16.8049 17.9811C16.9989 18.0196 17.2 17.9998 17.3827 17.9241C17.5654 17.8485 17.7216 17.7203 17.8315 17.5558C17.9414 17.3914 18 17.1981 18 17.0003C18 16.7351 17.8946 16.4807 17.7071 16.2932C17.5196 16.1056 17.2652 16.0003 17 16.0003Z" fill="black"/>
</svg>
