<svg width="24" height="24" viewBox="0 0 24 24" fill="none" xmlns="http://www.w3.org/2000/svg">
<path d="M21.48 13.1295C21.4741 13.0606 21.4572 12.9931 21.43 12.9295C21.4094 12.8702 21.3826 12.8132 21.35 12.7595C21.3226 12.7027 21.2891 12.649 21.25 12.5995L21.09 12.4695L21 12.3795L6.28 3.87954C6.04926 3.74693 5.7753 3.71142 5.51837 3.7808C5.26145 3.85019 5.04261 4.0188 4.91 4.24954C4.77739 4.48028 4.74188 4.75424 4.81126 5.01117C4.88065 5.26809 5.04926 5.48693 5.28 5.61954L16.77 12.2495H3.5C3.23478 12.2495 2.98043 12.3549 2.79289 12.5424C2.60536 12.73 2.5 12.9843 2.5 13.2495V17.2495C2.5 18.0452 2.81607 18.8083 3.37868 19.3709C3.94129 19.9335 4.70435 20.2495 5.5 20.2495H18.5C19.2956 20.2495 20.0587 19.9335 20.6213 19.3709C21.1839 18.8083 21.5 18.0452 21.5 17.2495V13.2495C21.5 13.2495 21.48 13.1695 21.48 13.1295ZM19.48 17.2495C19.48 17.5148 19.3746 17.7691 19.1871 17.9566C18.9996 18.1442 18.7452 18.2495 18.48 18.2495H5.5C5.23478 18.2495 4.98043 18.1442 4.79289 17.9566C4.60536 17.7691 4.5 17.5148 4.5 17.2495V14.2495H19.5L19.48 17.2495ZM16.48 17.2495C16.6778 17.2495 16.8711 17.1909 17.0356 17.081C17.2 16.9711 17.3282 16.8149 17.4039 16.6322C17.4796 16.4495 17.4994 16.2484 17.4608 16.0544C17.4222 15.8605 17.327 15.6823 17.1871 15.5424C17.0473 15.4026 16.8691 15.3073 16.6751 15.2688C16.4811 15.2302 16.28 15.25 16.0973 15.3257C15.9146 15.4013 15.7584 15.5295 15.6485 15.694C15.5386 15.8584 15.48 16.0518 15.48 16.2495C15.48 16.3826 15.5065 16.5143 15.558 16.6369C15.6095 16.7595 15.6849 16.8707 15.7799 16.9638C15.8749 17.0569 15.9875 17.1302 16.1112 17.1792C16.2348 17.2283 16.367 17.2522 16.5 17.2495H16.48Z" fill="black"/>
</svg>
