<svg width="24" height="24" viewBox="0 0 24 24" fill="none" xmlns="http://www.w3.org/2000/svg">
<path d="M12 12.9996C12.5934 12.9996 13.1734 12.8236 13.6667 12.494C14.1601 12.1643 14.5446 11.6958 14.7717 11.1476C14.9987 10.5995 15.0581 9.99626 14.9424 9.41431C14.8266 8.83237 14.5409 8.29782 14.1213 7.87826C13.7018 7.45871 13.1672 7.17298 12.5853 7.05723C12.0033 6.94147 11.4001 7.00088 10.852 7.22795C10.3038 7.45501 9.83525 7.83953 9.5056 8.33287C9.17596 8.82622 9.00001 9.40624 9.00001 9.99959C9.00001 10.7952 9.31608 11.5583 9.87869 12.1209C10.4413 12.6835 11.2044 12.9996 12 12.9996ZM12 8.99959C12.1978 8.99959 12.3911 9.05823 12.5556 9.16812C12.72 9.278 12.8482 9.43418 12.9239 9.6169C12.9996 9.79963 13.0194 10.0007 12.9808 10.1947C12.9422 10.3887 12.847 10.5668 12.7071 10.7067C12.5673 10.8465 12.3891 10.9418 12.1951 10.9804C12.0011 11.019 11.8001 10.9992 11.6173 10.9235C11.4346 10.8478 11.2784 10.7196 11.1685 10.5552C11.0587 10.3907 11 10.1974 11 9.99959C11 9.73437 11.1054 9.48001 11.2929 9.29248C11.4804 9.10494 11.7348 8.99959 12 8.99959ZM21.59 18.1596C21.1017 16.5401 20.2106 15.071 19 13.8896C19.6739 12.6717 20.0183 11.299 19.9993 9.90718C19.9802 8.51538 19.5984 7.15264 18.8915 5.95359C18.1845 4.75454 17.177 3.76069 15.9684 3.07023C14.7598 2.37977 13.3919 2.0166 12 2.0166C10.6081 2.0166 9.24025 2.37977 8.03164 3.07023C6.82304 3.76069 5.8155 4.75454 5.10857 5.95359C4.40165 7.15264 4.0198 8.51538 4.00076 9.90718C3.98172 11.299 4.32615 12.6717 5.00001 13.8896C3.78232 15.0671 2.88711 16.5373 2.40001 18.1596C2.26984 18.6045 2.24454 19.0735 2.32608 19.5298C2.40763 19.9861 2.59381 20.4173 2.87001 20.7896C3.15142 21.1681 3.51811 21.4749 3.94032 21.6852C4.36253 21.8954 4.82837 22.0031 5.30001 21.9996H18.7C19.17 22.0015 19.6338 21.8931 20.0542 21.6829C20.4745 21.4727 20.8396 21.1667 21.12 20.7896C21.3962 20.4173 21.5824 19.9861 21.6639 19.5298C21.7455 19.0735 21.7202 18.6045 21.59 18.1596ZM12 3.99958C13.1867 3.99958 14.3467 4.35148 15.3334 5.01077C16.3201 5.67006 17.0892 6.60713 17.5433 7.70348C17.9974 8.79984 18.1162 10.0062 17.8847 11.1701C17.6532 12.334 17.0818 13.4031 16.2427 14.2422C15.4035 15.0813 14.3344 15.6528 13.1706 15.8843C12.0067 16.1158 10.8003 15.997 9.70391 15.5429C8.60755 15.0887 7.67048 14.3197 7.01119 13.333C6.35191 12.3463 6.00001 11.1863 6.00001 9.99959C6.00001 8.40829 6.63215 6.88216 7.75737 5.75694C8.88259 4.63173 10.4087 3.99958 12 3.99958ZM19.52 19.5896C19.4259 19.7184 19.3024 19.8228 19.1598 19.8941C19.0171 19.9654 18.8595 20.0016 18.7 19.9996H5.30001C5.14054 20.0016 4.98291 19.9654 4.84026 19.8941C4.69761 19.8228 4.57409 19.7184 4.48001 19.5896C4.3901 19.4657 4.32981 19.3229 4.30381 19.172C4.2778 19.0212 4.28677 18.8664 4.33001 18.7196C4.68897 17.5108 5.33383 16.4064 6.21001 15.4996C6.95711 16.2832 7.85549 16.9069 8.85072 17.3331C9.84596 17.7593 10.9174 17.9791 12 17.9791C13.0827 17.9791 14.1541 17.7593 15.1493 17.3331C16.1445 16.9069 17.0429 16.2832 17.79 15.4996C18.6662 16.4064 19.311 17.5108 19.67 18.7196C19.7133 18.8664 19.7222 19.0212 19.6962 19.172C19.6702 19.3229 19.6099 19.4657 19.52 19.5896Z" fill="black"/>
</svg>
