<svg width="24" height="24" viewBox="0 0 24 24" fill="none" xmlns="http://www.w3.org/2000/svg">
<path d="M21 8.00024C20.9965 7.617 20.8829 7.24284 20.6728 6.92229C20.4628 6.60174 20.165 6.3483 19.815 6.19213C19.465 6.03596 19.0775 5.98364 18.6987 6.0414C18.3198 6.09916 17.9655 6.26456 17.6779 6.51792C17.3904 6.77128 17.1816 7.10192 17.0766 7.47051C16.9716 7.83909 16.9747 8.23009 17.0855 8.59697C17.1964 8.96384 17.4103 9.29115 17.7018 9.53993C17.9934 9.78871 18.3502 9.94848 18.73 10.0002C18.9401 10.5802 19.0284 11.1973 18.9895 11.8129C18.9506 12.4285 18.7852 13.0296 18.5037 13.5784C18.2223 14.1273 17.8307 14.6124 17.3535 15.0032C16.8762 15.3941 16.3236 15.6824 15.73 15.8502C15.4663 15.2432 15.0092 14.7405 14.43 14.4202C15.2588 13.3919 15.7798 12.1501 15.9329 10.8383C16.0859 9.52642 15.8646 8.19805 15.2947 7.0066C14.7247 5.81516 13.8293 4.80927 12.7119 4.10513C11.5945 3.40099 10.3007 3.02734 8.97998 3.02734C7.65924 3.02734 6.36543 3.40099 5.24804 4.10513C4.13065 4.80927 3.23526 5.81516 2.66531 7.0066C2.09536 8.19805 1.87411 9.52642 2.02712 10.8383C2.18012 12.1501 2.70114 13.3919 3.52998 14.4202C3.07098 14.6782 2.68796 15.0524 2.41939 15.5053C2.15082 15.9582 2.00618 16.4738 1.99998 17.0002V18.0002C1.99998 18.7959 2.31606 19.5589 2.87866 20.1216C3.44127 20.6842 4.20433 21.0002 4.99998 21.0002H13C13.7956 21.0002 14.5587 20.6842 15.1213 20.1216C15.6839 19.5589 16 18.7959 16 18.0002V17.8102C16.8976 17.6006 17.74 17.2016 18.4709 16.64C19.2017 16.0784 19.8042 15.3671 20.2378 14.5538C20.6715 13.7404 20.9263 12.8438 20.9853 11.924C21.0444 11.0042 20.9062 10.0823 20.58 9.22024C20.8509 8.87114 20.9986 8.44213 21 8.00024ZM14 18.0002C14 18.2655 13.8946 18.5198 13.7071 18.7073C13.5196 18.8949 13.2652 19.0002 13 19.0002H4.99998C4.73477 19.0002 4.48041 18.8949 4.29288 18.7073C4.10534 18.5198 3.99998 18.2655 3.99998 18.0002V17.0002C3.99998 16.735 4.10534 16.4807 4.29288 16.2931C4.48041 16.1056 4.73477 16.0002 4.99998 16.0002H5.40998C6.49303 16.6549 7.73446 17.0009 8.99998 17.0009C10.2655 17.0009 11.5069 16.6549 12.59 16.0002H13C13.2652 16.0002 13.5196 16.1056 13.7071 16.2931C13.8946 16.4807 14 16.735 14 17.0002V18.0002ZM8.99998 15.0002C8.01108 15.0002 7.04438 14.707 6.22213 14.1576C5.39989 13.6082 4.75903 12.8273 4.38059 11.9137C4.00215 11 3.90313 9.99469 4.09606 9.02478C4.28898 8.05488 4.76519 7.16396 5.46445 6.4647C6.16371 5.76544 7.05463 5.28924 8.02453 5.09631C8.99444 4.90338 9.99977 5.0024 10.9134 5.38084C11.827 5.75928 12.6079 6.40014 13.1573 7.22238C13.7067 8.04463 14 9.01133 14 10.0002C14 10.6568 13.8707 11.307 13.6194 11.9137C13.3681 12.5203 12.9998 13.0715 12.5355 13.5358C12.0712 14.0001 11.52 14.3684 10.9134 14.6196C10.3068 14.8709 9.65659 15.0002 8.99998 15.0002ZM8.99998 9.00024C8.8022 9.00024 8.60886 9.05888 8.44441 9.16877C8.27996 9.27865 8.15179 9.43483 8.07611 9.61755C8.00042 9.80028 7.98061 10.0013 8.0192 10.1953C8.05778 10.3893 8.15303 10.5675 8.29288 10.7073C8.43273 10.8472 8.61091 10.9424 8.80489 10.981C8.99888 11.0196 9.19994 10.9998 9.38267 10.9241C9.56539 10.8484 9.72157 10.7203 9.83145 10.5558C9.94134 10.3914 9.99998 10.198 9.99998 10.0002C9.99998 9.73502 9.89463 9.48067 9.70709 9.29313C9.51956 9.10559 9.2652 9.00024 8.99998 9.00024Z" fill="black"/>
</svg>
