<svg width="24" height="24" viewBox="0 0 24 24" fill="none" xmlns="http://www.w3.org/2000/svg">
<path d="M11.06 20.0995C10.813 19.9854 10.5918 19.8221 10.41 19.6195C10.0872 19.3075 9.8556 18.9134 9.74002 18.4795C9.51751 17.6781 9.06148 16.961 8.43002 16.4195C8.55203 15.8328 8.52438 15.2248 8.34961 14.6516C8.17485 14.0784 7.8586 13.5584 7.43002 13.1395C6.86412 12.4902 6.06554 12.0896 5.20673 12.0241C4.34793 11.9586 3.49783 12.2335 2.84002 12.7895C2.28344 13.449 2.00822 14.3007 2.07369 15.1612C2.13916 16.0216 2.54007 16.8219 3.19002 17.3895C3.78405 17.995 4.56053 18.3885 5.40002 18.5095H5.76002C6.30147 18.5112 6.83217 18.3586 7.29002 18.0695C7.53866 18.3294 7.71455 18.6502 7.80002 18.9995C8.01554 19.7608 8.4297 20.4511 9.00002 20.9995C9.34543 21.3608 9.7516 21.6587 10.2 21.8795C10.3372 21.946 10.4877 21.9802 10.64 21.9795C10.8667 21.9805 11.087 21.9043 11.2648 21.7636C11.4425 21.6229 11.5672 21.426 11.6184 21.2052C11.6695 20.9843 11.6441 20.7526 11.5463 20.5481C11.4485 20.3436 11.2841 20.1784 11.08 20.0795L11.06 20.0995ZM6.32002 16.3295C6.22423 16.4103 6.11195 16.4691 5.99103 16.5019C5.87012 16.5348 5.7435 16.5408 5.62002 16.5195C5.21828 16.4703 4.84484 16.2871 4.56002 15.9995C3.99002 15.4395 3.83002 14.6095 4.20002 14.2295C4.35509 14.0951 4.55491 14.0238 4.76002 14.0295C5.22642 14.0388 5.67098 14.2289 6.00002 14.5595C6.29864 14.84 6.49265 15.2139 6.55002 15.6195C6.56748 15.7476 6.55587 15.8779 6.51606 16.0008C6.47624 16.1237 6.40923 16.2361 6.32002 16.3295ZM21.32 10.2095C20.9716 10.0931 20.6585 9.89005 20.41 9.61953C20.0872 9.30749 19.8556 8.91336 19.74 8.47953C19.5175 7.67806 19.0615 6.96095 18.43 6.41954C18.5458 5.82863 18.5103 5.21803 18.3267 4.64455C18.1431 4.07107 17.8175 3.55334 17.38 3.13954C16.8141 2.49023 16.0155 2.08958 15.1567 2.02409C14.2979 1.9586 13.4478 2.23354 12.79 2.78953C12.2334 3.44898 11.9582 4.30071 12.0237 5.16116C12.0892 6.02161 12.4901 6.82189 13.14 7.38953C13.7471 8.00478 14.5428 8.39906 15.4 8.50954H15.76C16.3015 8.51118 16.8322 8.35856 17.29 8.06953C17.5387 8.32943 17.7146 8.65016 17.8 8.99954C18.019 9.75933 18.4327 10.4487 19 10.9995C19.4746 11.4873 20.0568 11.8571 20.7 12.0795C20.8041 12.11 20.9116 12.1268 21.02 12.1295C21.2297 12.1301 21.4342 12.0647 21.6047 11.9427C21.7751 11.8207 21.9029 11.6482 21.97 11.4495C22.0455 11.1989 22.0197 10.9287 21.8982 10.6968C21.7767 10.465 21.5691 10.29 21.32 10.2095ZM16.32 6.32954C16.2242 6.41028 16.1119 6.46912 15.991 6.50194C15.8701 6.53476 15.7435 6.54077 15.62 6.51954C15.2183 6.47031 14.8448 6.28712 14.56 5.99954C13.99 5.43954 13.83 4.60954 14.2 4.22954C14.3551 4.09515 14.5549 4.02379 14.76 4.02954C15.2264 4.03885 15.671 4.22886 16 4.55954C16.2986 4.83999 16.4927 5.21391 16.55 5.61953C16.5675 5.74756 16.5559 5.87787 16.5161 6.00078C16.4762 6.1237 16.4092 6.23607 16.32 6.32954ZM21.71 20.4495C21.5138 19.6695 21.1098 18.9572 20.5411 18.3885C19.9723 17.8197 19.2601 17.4157 18.48 17.2195C17.9539 17.0703 17.4751 16.7878 17.09 16.3995C16.7009 16.0224 16.4239 15.5447 16.29 15.0195C16.0728 14.2379 15.6548 13.5267 15.0777 12.9565C14.5005 12.3864 13.7843 11.9772 13 11.7695C12.4747 11.6361 11.9969 11.3591 11.62 10.9695C11.2285 10.5886 10.9484 10.108 10.81 9.57954C10.6228 8.89144 10.2807 8.25525 9.81002 7.71953C9.9696 7.23649 10.0341 6.72711 10 6.21953C9.86316 5.15482 9.36968 4.16786 8.60002 3.41954C7.848 2.64045 6.85373 2.13979 5.78002 1.99954C5.27141 1.94854 4.75783 2.01186 4.27684 2.18488C3.79585 2.3579 3.35961 2.63624 3.00002 2.99954C2.63672 3.35912 2.35839 3.79536 2.18537 4.27635C2.01235 4.75734 1.94903 5.27092 2.00002 5.77954C2.13689 6.84425 2.63037 7.83121 3.40002 8.57954C4.15205 9.35862 5.14632 9.85928 6.22002 9.99953H6.65002C7.36321 10.0149 8.06309 9.80498 8.65002 9.39953C8.78771 9.61967 8.89217 9.85891 8.96002 10.1095C9.1955 10.9696 9.65152 11.7533 10.2829 12.3829C10.9144 13.0126 11.6993 13.4665 12.56 13.6995C12.999 13.82 13.3989 14.0532 13.7199 14.376C14.0409 14.6988 14.2719 15.0999 14.39 15.5395C14.6231 16.4019 15.0781 17.1881 15.7098 17.8198C16.3414 18.4515 17.1276 18.9065 17.99 19.1395C18.4278 19.2626 18.825 19.4996 19.1413 19.8264C19.4575 20.1532 19.6814 20.558 19.79 20.9995C19.8299 21.1572 19.8834 21.3111 19.95 21.4595C20.0337 21.6211 20.1599 21.7567 20.3149 21.8519C20.47 21.947 20.6481 21.9981 20.83 21.9995C20.9817 21.9941 21.1309 21.9602 21.27 21.8995C21.51 21.7868 21.6954 21.5833 21.7854 21.3339C21.8754 21.0845 21.8627 20.8096 21.75 20.5695C21.75 20.5695 21.72 20.4695 21.71 20.4495ZM7.64002 7.63953C7.00002 8.26954 5.72002 8.04954 4.83002 7.16954C4.38138 6.74058 4.08919 6.17381 4.00002 5.55954C3.96659 5.34608 3.98063 5.12789 4.04112 4.92048C4.10161 4.71307 4.20708 4.52154 4.35002 4.35954C4.62251 4.1118 4.98216 3.98233 5.35002 3.99954C6.04385 4.03147 6.69892 4.32858 7.18002 4.82954C7.62499 5.25993 7.91358 5.82654 8.00002 6.43954C8.03212 6.65372 8.0165 6.87236 7.95426 7.07981C7.89203 7.28725 7.78472 7.47839 7.64002 7.63953Z" fill="black"/>
</svg>
