<svg width="24" height="24" viewBox="0 0 24 24" fill="none" xmlns="http://www.w3.org/2000/svg">
<path d="M21.9 7.58973L20.9 3.71973C20.7981 3.33541 20.6209 2.97517 20.3786 2.65995C20.1363 2.34472 19.8337 2.08081 19.4885 1.88355C19.1433 1.68629 18.7623 1.55962 18.3677 1.51089C17.9731 1.46217 17.5728 1.49237 17.19 1.59973L15.26 2.11973C15.1323 2.15337 15.0125 2.21197 14.9076 2.29214C14.8027 2.3723 14.7147 2.47245 14.6487 2.5868C14.5827 2.70116 14.54 2.82745 14.523 2.95839C14.5061 3.08934 14.5152 3.22234 14.55 3.34973L14.81 4.34973L4.18996 7.15973C3.9343 7.2278 3.71604 7.39441 3.58296 7.62308C3.44989 7.85174 3.41285 8.12382 3.47996 8.37973L3.73996 9.37973L2.73996 9.63973C2.47475 9.67288 2.23356 9.81004 2.06947 10.021C1.90537 10.232 1.83181 10.4995 1.86496 10.7647C1.89812 11.03 2.03527 11.2711 2.24625 11.4352C2.45722 11.5993 2.72475 11.6729 2.98996 11.6397C3.07632 11.6501 3.16361 11.6501 3.24996 11.6397L4.24996 11.3697L4.50996 12.3697C4.57887 12.6222 4.74402 12.8376 4.96996 12.9697C5.1214 13.0596 5.29388 13.1079 5.46996 13.1097C5.55597 13.1249 5.64396 13.1249 5.72996 13.1097L8.99996 12.0797V12.4997C9.00066 12.9437 9.10329 13.3817 9.29996 13.7797L4.29996 18.7797C4.11166 18.9667 4.00535 19.2208 4.00441 19.4862C4.00347 19.7516 4.10799 20.0064 4.29496 20.1947C4.48194 20.383 4.73606 20.4894 5.00143 20.4903C5.26679 20.4912 5.52166 20.3867 5.70996 20.1997L10.71 15.1997L10.99 15.3097V21.4997C10.99 21.7649 11.0953 22.0193 11.2829 22.2068C11.4704 22.3944 11.7247 22.4997 11.99 22.4997C12.2552 22.4997 12.5095 22.3944 12.6971 22.2068C12.8846 22.0193 12.99 21.7649 12.99 21.4997V15.3197C13.089 15.2858 13.1859 15.2457 13.28 15.1997L18.28 20.1997C18.4683 20.3867 18.7231 20.4912 18.9885 20.4903C19.2539 20.4894 19.508 20.383 19.695 20.1947C19.8819 20.0064 19.9865 19.7516 19.9855 19.4862C19.9846 19.2208 19.8783 18.9667 19.69 18.7797L14.69 13.7797C14.8841 13.3803 14.9898 12.9437 15 12.4997V10.4997L16.35 10.1397L16.6 11.1397C16.6586 11.3579 16.7893 11.5498 16.9709 11.6842C17.1525 11.8185 17.3742 11.8875 17.6 11.8797H17.86L19.79 11.3597C20.18 11.2573 20.5455 11.0774 20.8644 10.8305C21.1834 10.5837 21.4493 10.2751 21.6462 9.92319C21.8432 9.57127 21.9672 9.18324 22.0108 8.78231C22.0544 8.38137 22.0167 7.97577 21.9 7.58973ZM13 12.4997C12.9989 12.7572 12.8986 13.0044 12.72 13.1897C12.5346 13.3684 12.2874 13.4687 12.03 13.4697C11.7676 13.4686 11.5162 13.3645 11.33 13.1797C11.1452 12.9935 11.0411 12.7421 11.04 12.4797V11.4797L13 10.9997V12.4997ZM6.18996 10.7597L5.66996 8.82973L15.33 6.23973L15.59 7.23973L15.85 8.23973L6.18996 10.7597ZM19.87 8.85973C19.8044 8.9745 19.7167 9.07513 19.612 9.1558C19.5073 9.23648 19.3877 9.29559 19.26 9.32973L18.26 9.58973L17.48 6.68973L17 4.75973L16.74 3.75973L17.74 3.49973C17.8674 3.46501 18.0004 3.45585 18.1313 3.4728C18.2622 3.48974 18.3885 3.53245 18.5029 3.59846C18.6172 3.66447 18.7174 3.75247 18.7976 3.85738C18.8777 3.9623 18.9363 4.08205 18.97 4.20973L19.97 8.07973C20.0069 8.20976 20.017 8.34591 19.9999 8.47998C19.9827 8.61404 19.9385 8.74323 19.87 8.85973Z" fill="black"/>
</svg>
