<svg width="24" height="24" viewBox="0 0 24 24" fill="none" xmlns="http://www.w3.org/2000/svg">
<path d="M20.47 9.00036C20.6677 9.00036 20.8611 8.94171 21.0255 8.83183C21.19 8.72194 21.3182 8.56577 21.3938 8.38304C21.4695 8.20031 21.4893 7.99925 21.4507 7.80527C21.4122 7.61128 21.3169 7.4331 21.1771 7.29325C21.0372 7.1534 20.859 7.05816 20.6651 7.01957C20.4711 6.98099 20.27 7.00079 20.0873 7.07648C19.9046 7.15216 19.7484 7.28034 19.6385 7.44479C19.5286 7.60924 19.47 7.80258 19.47 8.00036C19.47 8.26557 19.5753 8.51993 19.7629 8.70746C19.9504 8.895 20.2047 9.00036 20.47 9.00036ZM17.47 9.00036C17.6677 9.00036 17.8611 8.94171 18.0255 8.83183C18.19 8.72194 18.3182 8.56577 18.3938 8.38304C18.4695 8.20031 18.4893 7.99925 18.4507 7.80527C18.4122 7.61128 18.3169 7.4331 18.1771 7.29325C18.0372 7.1534 17.859 7.05816 17.6651 7.01957C17.4711 6.98099 17.27 7.00079 17.0873 7.07648C16.9046 7.15216 16.7484 7.28034 16.6385 7.44479C16.5286 7.60924 16.47 7.80258 16.47 8.00036C16.47 8.26557 16.5753 8.51993 16.7629 8.70746C16.9504 8.895 17.2047 9.00036 17.47 9.00036ZM14.47 9.00036C14.6677 9.00036 14.8611 8.94171 15.0255 8.83183C15.19 8.72194 15.3182 8.56577 15.3938 8.38304C15.4695 8.20031 15.4893 7.99925 15.4507 7.80527C15.4122 7.61128 15.3169 7.4331 15.1771 7.29325C15.0372 7.1534 14.859 7.05816 14.6651 7.01957C14.4711 6.98099 14.27 7.00079 14.0873 7.07648C13.9046 7.15216 13.7484 7.28034 13.6385 7.44479C13.5286 7.60924 13.47 7.80258 13.47 8.00036C13.47 8.13168 13.4958 8.26171 13.5461 8.38304C13.5963 8.50437 13.67 8.6146 13.7629 8.70746C13.8557 8.80032 13.966 8.87398 14.0873 8.92424C14.2086 8.97449 14.3386 9.00036 14.47 9.00036ZM18.91 13.0004C18.69 13.0004 18.46 12.9304 18.24 12.8804C17.7944 12.7822 17.3566 12.6518 16.93 12.4904C16.4661 12.3216 15.9561 12.3304 15.4983 12.515C15.0404 12.6996 14.667 13.047 14.45 13.4904L14.23 13.9404C13.2545 13.3962 12.3564 12.7235 11.56 11.9404C10.7806 11.1443 10.1083 10.2501 9.55996 9.28036L9.99996 9.00036C10.4433 8.78327 10.7907 8.40989 10.9754 7.95205C11.16 7.49421 11.1687 6.98427 11 6.52036C10.8412 6.09278 10.7109 5.65515 10.61 5.21036C10.56 4.98036 10.52 4.76036 10.49 4.53036C10.3685 3.82598 9.99959 3.1881 9.44958 2.7316C8.89958 2.27509 8.20466 2.02997 7.48996 2.04036H4.48996C4.06721 2.0398 3.64911 2.1286 3.26308 2.30094C2.87705 2.47328 2.5318 2.72525 2.24996 3.04036C1.96365 3.36285 1.75024 3.74329 1.62426 4.15573C1.49828 4.56817 1.46271 5.00292 1.51996 5.43036C2.04668 9.6174 3.95234 13.5099 6.93636 16.494C9.92038 19.478 13.8129 21.3836 18 21.9104C18.1298 21.9203 18.2602 21.9203 18.39 21.9104C19.1856 21.9104 19.9487 21.5943 20.5113 21.0317C21.0739 20.4691 21.39 19.706 21.39 18.9104V15.9104C21.3796 15.2126 21.1263 14.5402 20.6736 14.0091C20.2209 13.478 19.5973 13.1212 18.91 13.0004ZM19.4 19.0004C19.4016 19.1453 19.3717 19.2889 19.3124 19.4211C19.253 19.5534 19.1656 19.6712 19.0562 19.7663C18.9468 19.8614 18.8181 19.9316 18.6788 19.972C18.5396 20.0124 18.3933 20.0221 18.25 20.0004C14.5161 19.5131 11.0471 17.8085 8.37996 15.1504C5.71496 12.4652 4.01321 8.97379 3.53996 5.22036C3.51824 5.07369 3.5294 4.92403 3.57264 4.78221C3.61588 4.64039 3.69011 4.50996 3.78996 4.40036C3.88256 4.29494 3.99629 4.21019 4.12379 4.15162C4.25128 4.09304 4.38967 4.06194 4.52996 4.06036H7.52996C7.76251 4.05518 7.98959 4.13124 8.17211 4.27543C8.35463 4.41962 8.48117 4.62293 8.52996 4.85036C8.56996 5.12369 8.61996 5.39369 8.67996 5.66036C8.79548 6.1875 8.94922 6.70554 9.13996 7.21036L7.73996 7.86036C7.62026 7.91528 7.51259 7.9933 7.42312 8.08995C7.33366 8.1866 7.26416 8.29997 7.21864 8.42355C7.17311 8.54713 7.15244 8.67849 7.15781 8.81008C7.16319 8.94167 7.1945 9.0709 7.24996 9.19036C8.68916 12.2731 11.1672 14.7512 14.25 16.1904C14.4934 16.2904 14.7665 16.2904 15.01 16.1904C15.2581 16.098 15.4595 15.911 15.57 15.6704L16.2 14.2704C16.7169 14.4552 17.2446 14.6088 17.78 14.7304C18.04 14.7904 18.32 14.8404 18.59 14.8804C18.8155 14.9312 19.0166 15.0586 19.1588 15.2409C19.301 15.4232 19.3756 15.6492 19.37 15.8804L19.4 19.0004Z" fill="black"/>
</svg>
