<svg width="24" height="24" viewBox="0 0 24 24" fill="none" xmlns="http://www.w3.org/2000/svg">
<path d="M19.85 5.56029L21.64 3.77029C21.7447 3.68064 21.8297 3.57032 21.8897 3.44626C21.9497 3.32219 21.9835 3.18706 21.9888 3.04934C21.9941 2.91162 21.9709 2.77429 21.9206 2.64596C21.8703 2.51764 21.7941 2.40109 21.6966 2.30364C21.5992 2.20618 21.4826 2.12992 21.3543 2.07965C21.226 2.02937 21.0886 2.00617 20.9509 2.01149C20.8132 2.01681 20.6781 2.05054 20.554 2.11056C20.4299 2.17058 20.3196 2.2556 20.23 2.36029L18.44 4.15029L16.64 2.36029C16.4487 2.19646 16.2026 2.11085 15.9509 2.12057C15.6993 2.1303 15.4605 2.23463 15.2824 2.41272C15.1043 2.59082 15 2.82956 14.9903 3.08123C14.9805 3.33291 15.0662 3.57898 15.23 3.77029L17 5.56029L15.21 7.36029C15.0237 7.54765 14.9192 7.8011 14.9192 8.06529C14.9192 8.32947 15.0237 8.58292 15.21 8.77029C15.3973 8.95654 15.6508 9.06108 15.915 9.06108C16.1792 9.06108 16.4326 8.95654 16.62 8.77029L18.44 7.00029L20.23 8.79029C20.4173 8.97654 20.6708 9.08108 20.935 9.08108C21.1992 9.08108 21.4526 8.97654 21.64 8.79029C21.8262 8.60292 21.9308 8.34947 21.9308 8.08529C21.9308 7.8211 21.8262 7.56765 21.64 7.38029L19.85 5.56029ZM19.44 13.0003C19.22 13.0003 18.99 12.9303 18.77 12.8803C18.3245 12.7821 17.8866 12.6518 17.46 12.4903C16.9961 12.3215 16.4861 12.3303 16.0283 12.5149C15.5704 12.6995 15.1971 13.0469 14.98 13.4903L14.76 13.9403C13.786 13.3985 12.891 12.7255 12.1 11.9403C11.3147 11.1493 10.6418 10.2543 10.1 9.28029L10.52 9.00029C10.9633 8.7832 11.3108 8.40982 11.4954 7.95198C11.68 7.49414 11.6888 6.9842 11.52 6.52029C11.3612 6.09271 11.2309 5.65508 11.13 5.21029C11.08 4.99029 11.04 4.76029 11.01 4.53029C10.8885 3.82591 10.5196 3.18803 9.9696 2.73153C9.4196 2.27502 8.72467 2.02989 8.00998 2.04029H5.00998C4.57901 2.03624 4.15223 2.1251 3.75869 2.30082C3.36515 2.47653 3.01409 2.73498 2.72941 3.05857C2.44473 3.38215 2.23311 3.76328 2.10897 4.176C1.98482 4.58872 1.95106 5.02334 2.00998 5.45029C2.54272 9.63967 4.45601 13.5322 7.44763 16.5129C10.4393 19.4937 14.3387 21.3928 18.53 21.9103H18.91C19.6474 21.9114 20.3594 21.6408 20.91 21.1503C21.2263 20.8673 21.4791 20.5205 21.6514 20.1326C21.8238 19.7447 21.9119 19.3247 21.91 18.9003V15.9003C21.8977 15.2057 21.6448 14.5368 21.1943 14.008C20.7439 13.4791 20.1238 13.1229 19.44 13.0003ZM19.94 19.0003C19.9398 19.1423 19.9094 19.2826 19.8508 19.4119C19.7921 19.5412 19.7066 19.6566 19.6 19.7503C19.4882 19.8468 19.3576 19.9188 19.2164 19.9619C19.0752 20.0049 18.9265 20.018 18.78 20.0003C15.0349 19.5201 11.5562 17.8068 8.89269 15.1306C6.22917 12.4544 4.53239 8.96762 4.06998 5.22029C4.05406 5.0738 4.06801 4.92562 4.11098 4.78468C4.15395 4.64374 4.22505 4.51297 4.31998 4.40029C4.41369 4.29362 4.52904 4.20813 4.65836 4.1495C4.78767 4.09088 4.92799 4.06047 5.06998 4.06029H8.06998C8.30253 4.05511 8.5296 4.13117 8.71212 4.27536C8.89464 4.41955 9.02119 4.62286 9.06998 4.85029C9.10998 5.12362 9.15998 5.39362 9.21998 5.66029C9.3355 6.18743 9.48924 6.70547 9.67998 7.21029L8.27998 7.86029C8.16028 7.91521 8.0526 7.99323 7.96314 8.08988C7.87367 8.18653 7.80418 8.2999 7.75865 8.42348C7.71312 8.54706 7.69245 8.67842 7.69783 8.81001C7.7032 8.9416 7.73452 9.07083 7.78998 9.19029C9.22918 12.273 11.7072 14.7511 14.79 16.1903C15.0334 16.2903 15.3065 16.2903 15.55 16.1903C15.6747 16.1457 15.7893 16.0767 15.8871 15.9875C15.985 15.8982 16.0641 15.7904 16.12 15.6703L16.74 14.2703C17.2569 14.4552 17.7846 14.6088 18.32 14.7303C18.5866 14.7903 18.8566 14.8403 19.13 14.8803C19.3574 14.9291 19.5607 15.0556 19.7049 15.2381C19.8491 15.4207 19.9252 15.6477 19.92 15.8803L19.94 19.0003Z" fill="black"/>
</svg>
