<svg width="24" height="24" viewBox="0 0 24 24" fill="none" xmlns="http://www.w3.org/2000/svg">
<path d="M15.55 9.00005C15.6745 9.04746 15.8068 9.0712 15.94 9.07005H19.94C20.2052 9.07005 20.4595 8.96469 20.6471 8.77716C20.8346 8.58962 20.94 8.33527 20.94 8.07005C20.94 7.80483 20.8346 7.55048 20.6471 7.36294C20.4595 7.17541 20.2052 7.07005 19.94 7.07005H18.35L21.64 3.78005C21.7447 3.6904 21.8297 3.58009 21.8897 3.45602C21.9497 3.33196 21.9835 3.19682 21.9888 3.0591C21.9941 2.92139 21.9709 2.78405 21.9206 2.65573C21.8703 2.5274 21.7941 2.41086 21.6966 2.3134C21.5992 2.21595 21.4826 2.13969 21.3543 2.08941C21.226 2.03914 21.0886 2.01593 20.9509 2.02125C20.8132 2.02657 20.6781 2.0603 20.554 2.12033C20.4299 2.18035 20.3196 2.26537 20.23 2.37005L16.94 5.65005V4.06005C16.94 3.79483 16.8346 3.54048 16.6471 3.35294C16.4595 3.16541 16.2052 3.06005 15.94 3.06005C15.6748 3.06005 15.4204 3.16541 15.2329 3.35294C15.0453 3.54048 14.94 3.79483 14.94 4.06005V8.06005C14.9388 8.19328 14.9626 8.32554 15.01 8.45005C15.0591 8.57289 15.1322 8.68476 15.2249 8.77917C15.3176 8.87358 15.4281 8.94866 15.55 9.00005ZM19.44 13.0001C19.22 13.0001 18.99 12.9301 18.77 12.8801C18.3245 12.7819 17.8866 12.6515 17.46 12.4901C16.9961 12.3213 16.4861 12.33 16.0283 12.5147C15.5704 12.6993 15.1971 13.0467 14.98 13.4901L14.76 13.9401C13.786 13.3982 12.891 12.7253 12.1 11.9401C11.3147 11.1491 10.6418 10.254 10.1 9.28005L10.52 9.00005C10.9633 8.78297 11.3108 8.40958 11.4954 7.95174C11.68 7.4939 11.6888 6.98396 11.52 6.52005C11.3612 6.09247 11.2309 5.65485 11.13 5.21005C11.08 4.99005 11.04 4.76005 11.01 4.53005C10.8885 3.82567 10.5196 3.18779 9.9696 2.73129C9.4196 2.27479 8.72467 2.02966 8.00998 2.04005H5.00998C4.57901 2.036 4.15223 2.12486 3.75869 2.30058C3.36515 2.4763 3.01409 2.73475 2.72941 3.05833C2.44473 3.38192 2.23311 3.76305 2.10897 4.17577C1.98482 4.58849 1.95106 5.02311 2.00998 5.45005C2.54272 9.63943 4.45601 13.5319 7.44763 16.5127C10.4393 19.4934 14.3387 21.3926 18.53 21.9101H18.91C19.6474 21.9111 20.3594 21.6406 20.91 21.1501C21.2263 20.8671 21.4791 20.5202 21.6514 20.1324C21.8238 19.7445 21.9119 19.3245 21.91 18.9001V15.9001C21.8977 15.2054 21.6448 14.5366 21.1943 14.0077C20.7439 13.4788 20.1238 13.1227 19.44 13.0001ZM19.94 19.0001C19.9398 19.142 19.9094 19.2824 19.8508 19.4117C19.7921 19.541 19.7066 19.6563 19.6 19.7501C19.4882 19.8465 19.3576 19.9186 19.2164 19.9616C19.0752 20.0047 18.9265 20.0178 18.78 20.0001C15.0349 19.5199 11.5562 17.8065 8.89269 15.1303C6.22917 12.4541 4.53239 8.96739 4.06998 5.22005C4.05406 5.07357 4.06801 4.92538 4.11098 4.78444C4.15395 4.6435 4.22505 4.51274 4.31998 4.40005C4.41369 4.29338 4.52904 4.20789 4.65836 4.14927C4.78767 4.09064 4.92799 4.06023 5.06998 4.06005H8.06998C8.30253 4.05488 8.5296 4.13093 8.71212 4.27512C8.89464 4.41931 9.02119 4.62262 9.06998 4.85005C9.10998 5.12338 9.15998 5.39338 9.21998 5.66005C9.3355 6.1872 9.48924 6.70523 9.67998 7.21005L8.27998 7.86005C8.16028 7.91497 8.0526 7.993 7.96314 8.08965C7.87367 8.1863 7.80418 8.29967 7.75865 8.42325C7.71312 8.54683 7.69245 8.67818 7.69783 8.80977C7.7032 8.94136 7.73452 9.0706 7.78998 9.19005C9.22918 12.2728 11.7072 14.7509 14.79 16.1901C15.0334 16.2901 15.3065 16.2901 15.55 16.1901C15.6747 16.1454 15.7893 16.0765 15.8871 15.9872C15.985 15.898 16.0641 15.7902 16.12 15.6701L16.74 14.2701C17.2569 14.4549 17.7846 14.6085 18.32 14.7301C18.5866 14.7901 18.8566 14.8401 19.13 14.8801C19.3574 14.9288 19.5607 15.0554 19.7049 15.2379C19.8491 15.4204 19.9252 15.6475 19.92 15.8801L19.94 19.0001Z" fill="black"/>
</svg>
