<svg width="24" height="24" viewBox="0 0 24 24" fill="none" xmlns="http://www.w3.org/2000/svg">
<path d="M4.90994 13.0997C5.00001 13.2438 5.12532 13.3626 5.27404 13.4448C5.42277 13.527 5.58999 13.57 5.75994 13.5697C5.94491 13.575 6.12772 13.5289 6.28803 13.4364C6.44834 13.344 6.57987 13.2089 6.66797 13.0462C6.75607 12.8835 6.79729 12.6995 6.78705 12.5147C6.7768 12.33 6.71549 12.1517 6.60994 11.9997C5.30151 9.92155 4.45885 7.58461 4.13994 5.14968C4.11841 5.00533 4.12874 4.85802 4.1702 4.71809C4.21166 4.57816 4.28325 4.449 4.37994 4.33968C4.47365 4.23301 4.589 4.14752 4.71832 4.08889C4.84764 4.03027 4.98795 3.99986 5.12994 3.99968H8.12994C8.36389 3.99496 8.59208 4.07243 8.7748 4.21861C8.95751 4.36478 9.08319 4.5704 9.12994 4.79968C9.12994 5.02968 9.20994 5.23968 9.25994 5.46968V5.59968C9.3763 6.12446 9.53344 6.63935 9.72994 7.13968L8.33994 7.79968C8.21983 7.85552 8.11202 7.93466 8.02275 8.03251C7.93349 8.13036 7.86455 8.24497 7.81994 8.36968C7.76905 8.49166 7.74286 8.62251 7.74286 8.75468C7.74286 8.88684 7.76905 9.0177 7.81994 9.13968C7.91994 9.34968 8.01994 9.55968 8.13994 9.77968C8.20527 9.89426 8.29262 9.9948 8.39697 10.0755C8.50132 10.1562 8.62059 10.2154 8.74794 10.2498C8.87528 10.2842 9.00816 10.293 9.13894 10.2759C9.26972 10.2587 9.39581 10.2158 9.50994 10.1497C9.67335 10.056 9.80698 9.91805 9.89544 9.75175C9.9839 9.58545 10.0236 9.39755 10.0099 9.20968L10.5799 8.99968C11.0323 8.79129 11.3907 8.42158 11.5849 7.96289C11.7791 7.50421 11.7952 6.98957 11.6299 6.51968C11.4685 6.09642 11.3381 5.66193 11.2399 5.21968V5.11968C11.2399 4.91968 11.1599 4.71968 11.1299 4.53968C11.02 3.83128 10.6601 3.18567 10.1153 2.71974C9.57045 2.25381 8.87681 1.99837 8.15994 1.99968H5.15994C4.73046 1.99343 4.30466 2.07947 3.91131 2.252C3.51796 2.42452 3.16624 2.67949 2.87994 2.99968C2.59539 3.32302 2.38381 3.70383 2.25957 4.11624C2.13533 4.52865 2.10135 4.96297 2.15994 5.38968C2.50709 8.12859 3.44542 10.7593 4.90994 13.0997ZM19.5199 12.8897L18.9199 12.7797H18.8399C18.3875 12.6829 17.943 12.5525 17.5099 12.3897C17.0473 12.2237 16.5397 12.234 16.0841 12.4184C15.6286 12.6029 15.2568 12.9486 15.0399 13.3897L14.8299 13.8497C14.1478 13.4551 13.5049 12.9964 12.9099 12.4797L21.7099 3.68968C21.8032 3.59644 21.8771 3.48575 21.9276 3.36393C21.9781 3.2421 22.004 3.11154 22.004 2.97968C22.004 2.84782 21.9781 2.71725 21.9276 2.59543C21.8771 2.47361 21.8032 2.36292 21.7099 2.26968C21.6167 2.17644 21.506 2.10248 21.3842 2.05202C21.2624 2.00156 21.1318 1.97559 20.9999 1.97559C20.8681 1.97559 20.7375 2.00156 20.6157 2.05202C20.4939 2.10248 20.3832 2.17644 20.2899 2.26968L2.28994 20.2697C2.19621 20.3626 2.12182 20.4732 2.07105 20.5951C2.02028 20.717 1.99414 20.8477 1.99414 20.9797C1.99414 21.1117 2.02028 21.2424 2.07105 21.3643C2.12182 21.4861 2.19621 21.5967 2.28994 21.6897C2.3829 21.7834 2.4935 21.8578 2.61536 21.9086C2.73722 21.9593 2.86793 21.9855 2.99994 21.9855C3.13195 21.9855 3.26266 21.9593 3.38452 21.9086C3.50637 21.8578 3.61698 21.7834 3.70994 21.6897L8.29994 17.0897C11.1725 19.6709 14.7605 21.3201 18.5899 21.8197C18.7231 21.8296 18.8568 21.8296 18.9899 21.8197C19.726 21.8235 20.4379 21.5566 20.9899 21.0697C21.3063 20.7867 21.559 20.4399 21.7314 20.052C21.9038 19.6641 21.9919 19.2441 21.9899 18.8197V15.8197C21.9846 15.1199 21.7348 14.444 21.2837 13.9089C20.8327 13.3738 20.2088 13.0133 19.5199 12.8897ZM19.9999 18.8897C19.9998 19.0317 19.9693 19.172 19.9107 19.3013C19.8521 19.4306 19.7666 19.546 19.6599 19.6397C19.5506 19.7364 19.4215 19.808 19.2815 19.8494C19.1416 19.8909 18.9943 19.9012 18.8499 19.8797C15.4528 19.4351 12.2681 17.9787 9.70994 15.6997L11.4799 13.9297C12.4995 14.8184 13.6369 15.5621 14.8599 16.1397C14.9819 16.1906 15.1128 16.2168 15.2449 16.2168C15.3771 16.2168 15.508 16.1906 15.6299 16.1397C15.7547 16.0951 15.8693 16.0261 15.9671 15.9369C16.065 15.8476 16.1441 15.7398 16.1999 15.6197L16.8199 14.2097C17.3417 14.4033 17.8764 14.5603 18.4199 14.6797H18.5299L19.2199 14.8097C19.4455 14.8605 19.6465 14.9879 19.7887 15.1702C19.931 15.3525 20.0056 15.5785 19.9999 15.8097V18.8897Z" fill="black"/>
</svg>
