<svg width="24" height="24" viewBox="0 0 24 24" fill="none" xmlns="http://www.w3.org/2000/svg">
<path d="M11 12.9998H13C13.2652 12.9998 13.5196 12.8945 13.7071 12.7069C13.8946 12.5194 14 12.265 14 11.9998C14 11.7346 13.8946 11.4803 13.7071 11.2927C13.5196 11.1052 13.2652 10.9998 13 10.9998H11C10.7348 10.9998 10.4804 11.1052 10.2929 11.2927C10.1054 11.4803 10 11.7346 10 11.9998C10 12.265 10.1054 12.5194 10.2929 12.7069C10.4804 12.8945 10.7348 12.9998 11 12.9998ZM19 19.9998H18V8.99983H19C19.2652 8.99983 19.5196 8.89447 19.7071 8.70694C19.8946 8.5194 20 8.26505 20 7.99983C20 7.73461 19.8946 7.48026 19.7071 7.29272C19.5196 7.10519 19.2652 6.99983 19 6.99983H17.91C17.6664 5.60925 16.9402 4.34909 15.8593 3.44103C14.7783 2.53297 13.4118 2.03516 12 2.03516C10.5882 2.03516 9.22169 2.53297 8.14072 3.44103C7.05975 4.34909 6.33361 5.60925 6.09 6.99983H5C4.73478 6.99983 4.48043 7.10519 4.29289 7.29272C4.10536 7.48026 4 7.73461 4 7.99983C4 8.26505 4.10536 8.5194 4.29289 8.70694C4.48043 8.89447 4.73478 8.99983 5 8.99983H6V19.9998H5C4.73478 19.9998 4.48043 20.1052 4.29289 20.2927C4.10536 20.4803 4 20.7346 4 20.9998C4 21.265 4.10536 21.5194 4.29289 21.7069C4.48043 21.8945 4.73478 21.9998 5 21.9998H19C19.2652 21.9998 19.5196 21.8945 19.7071 21.7069C19.8946 21.5194 20 21.265 20 20.9998C20 20.7346 19.8946 20.4803 19.7071 20.2927C19.5196 20.1052 19.2652 19.9998 19 19.9998ZM12 3.99983C12.8846 4.0027 13.7432 4.2987 14.4416 4.84152C15.1401 5.38434 15.6389 6.14336 15.86 6.99983H8.14C8.36114 6.14336 8.85993 5.38434 9.55836 4.84152C10.2568 4.2987 11.1154 4.0027 12 3.99983ZM16 19.9998H8V17.9998H16V19.9998ZM16 15.9998H8V8.99983H16V15.9998Z" fill="black"/>
</svg>
