<svg width="24" height="24" viewBox="0 0 24 24" fill="none" xmlns="http://www.w3.org/2000/svg">
<path d="M21.63 5.12017C21.5138 5.0262 21.3781 4.95945 21.2327 4.92484C21.0873 4.89023 20.9361 4.88863 20.79 4.92018C20.4116 5.00339 20.0199 5.00543 19.6407 4.92613C19.2614 4.84684 18.9033 4.68803 18.59 4.46018C18.4187 4.33503 18.2121 4.26758 18 4.26758C17.7879 4.26758 17.5813 4.33503 17.41 4.46018C17.0967 4.68803 16.7386 4.84684 16.3593 4.92613C15.9801 5.00543 15.5884 5.00339 15.21 4.92018C15.064 4.88881 14.9128 4.89055 14.7676 4.92527C14.6223 4.95998 14.4867 5.02679 14.3706 5.12078C14.2546 5.21477 14.161 5.33357 14.0969 5.46844C14.0328 5.60331 13.9997 5.75083 14 5.90018V9.21018C13.9984 9.92741 14.1639 10.6352 14.4833 11.2774C14.8026 11.9196 15.2671 12.4786 15.84 12.9102L17.41 14.0702C17.5813 14.1953 17.7879 14.2628 18 14.2628C18.2121 14.2628 18.4187 14.1953 18.59 14.0702L20.16 12.9102C20.7329 12.4786 21.1974 11.9196 21.5167 11.2774C21.8361 10.6352 22.0016 9.92741 22 9.21018V5.90018C22.0005 5.75078 21.9675 5.60317 21.9035 5.46819C21.8395 5.33321 21.746 5.21429 21.63 5.12017ZM20 9.21018C20.0055 9.61202 19.9181 10.0097 19.7446 10.3722C19.5712 10.7347 19.3163 11.0523 19 11.3002L18 12.0002L17 11.2802C16.6837 11.0323 16.4288 10.7147 16.2554 10.3522C16.0819 9.9897 15.9945 9.59202 16 9.19017V7.00017C16.6987 6.97218 17.3822 6.78764 18 6.46018C18.6178 6.78764 19.3013 6.97218 20 7.00017V9.21018ZM21 15.2102C20.7348 15.2102 20.4804 15.3155 20.2929 15.5031C20.1054 15.6906 20 15.945 20 16.2102V19.2102C20 19.4754 19.8946 19.7297 19.7071 19.9173C19.5196 20.1048 19.2652 20.2102 19 20.2102H5C4.73478 20.2102 4.48043 20.1048 4.29289 19.9173C4.10536 19.7297 4 19.4754 4 19.2102V9.67018L9.88 15.5502C10.4396 16.1105 11.1981 16.4268 11.99 16.4302C12.3903 16.4312 12.7867 16.3521 13.156 16.1975C13.5252 16.0429 13.8598 15.816 14.14 15.5302L13.44 14.8202L12.7 14.1402C12.5131 14.3234 12.2618 14.426 12 14.426C11.7382 14.426 11.4869 14.3234 11.3 14.1402L5.41 8.26018H11C11.2652 8.26018 11.5196 8.15482 11.7071 7.96728C11.8946 7.77975 12 7.52539 12 7.26018C12 6.99496 11.8946 6.7406 11.7071 6.55307C11.5196 6.36553 11.2652 6.26018 11 6.26018H5C4.20435 6.26018 3.44129 6.57625 2.87868 7.13885C2.31607 7.70146 2 8.46453 2 9.26018V19.2602C2 20.0558 2.31607 20.8189 2.87868 21.3815C3.44129 21.9441 4.20435 22.2602 5 22.2602H19C19.7956 22.2602 20.5587 21.9441 21.1213 21.3815C21.6839 20.8189 22 20.0558 22 19.2602V16.2602C22 15.995 21.8946 15.7406 21.7071 15.5531C21.5196 15.3655 21.2652 15.2602 21 15.2602V15.2102Z" fill="black"/>
</svg>
