<svg width="24" height="24" viewBox="0 0 24 24" fill="none" xmlns="http://www.w3.org/2000/svg">
<path d="M11.29 8.78992C11.383 8.88365 11.4936 8.95804 11.6154 9.00881C11.7373 9.05958 11.868 9.08572 12 9.08572C12.132 9.08572 12.2627 9.05958 12.3846 9.00881C12.5064 8.95804 12.617 8.88365 12.71 8.78992L14.71 6.78992C14.8963 6.60256 15.0008 6.34911 15.0008 6.08492C15.0008 5.82074 14.8963 5.56728 14.71 5.37992C14.617 5.28619 14.5064 5.2118 14.3846 5.16103C14.2627 5.11026 14.132 5.08412 14 5.08412C13.868 5.08412 13.7373 5.11026 13.6154 5.16103C13.4936 5.2118 13.383 5.28619 13.29 5.37992L13 5.66992V2.91992C13 2.65471 12.8946 2.40035 12.7071 2.21282C12.5196 2.02528 12.2652 1.91992 12 1.91992C11.7348 1.91992 11.4804 2.02528 11.2929 2.21282C11.1054 2.40035 11 2.65471 11 2.91992V5.66992L10.71 5.37992C10.617 5.28619 10.5064 5.2118 10.3846 5.16103C10.2627 5.11026 10.132 5.08412 10 5.08412C9.86799 5.08412 9.73728 5.11026 9.61542 5.16103C9.49356 5.2118 9.38296 5.28619 9.29 5.37992C9.10375 5.56728 8.99921 5.82074 8.99921 6.08492C8.99921 6.34911 9.10375 6.60256 9.29 6.78992L11.29 8.78992ZM16 11.0799H8C7.20435 11.0799 6.44129 11.396 5.87868 11.9586C5.31607 12.5212 5 13.2843 5 14.0799V19.0799C5 19.8756 5.31607 20.6386 5.87868 21.2012C6.44129 21.7639 7.20435 22.0799 8 22.0799H16C16.7956 22.0799 17.5587 21.7639 18.1213 21.2012C18.6839 20.6386 19 19.8756 19 19.0799V14.0799C19 13.2843 18.6839 12.5212 18.1213 11.9586C17.5587 11.396 16.7956 11.0799 16 11.0799ZM15.58 13.0799L12.7 15.9999C12.5131 16.1831 12.2618 16.2858 12 16.2858C11.7382 16.2858 11.4869 16.1831 11.3 15.9999L8.42 13.0799H15.58ZM17 19.0799C17 19.3451 16.8946 19.5995 16.7071 19.787C16.5196 19.9746 16.2652 20.0799 16 20.0799H8C7.73478 20.0799 7.48043 19.9746 7.29289 19.787C7.10536 19.5995 7 19.3451 7 19.0799V14.4899L9.88 17.3699C10.4425 17.9317 11.205 18.2473 12 18.2473C12.795 18.2473 13.5575 17.9317 14.12 17.3699L17 14.4899V19.0799Z" fill="black"/>
</svg>
