<svg width="24" height="24" viewBox="0 0 24 24" fill="none" xmlns="http://www.w3.org/2000/svg">
<path d="M20.5 14.2598C20.2348 14.2598 19.9804 14.3651 19.7929 14.5527C19.6054 14.7402 19.5 14.9945 19.5 15.2598V19.2598C19.5 19.525 19.3946 19.7793 19.2071 19.9669C19.0196 20.1544 18.7652 20.2598 18.5 20.2598H4.5C4.23478 20.2598 3.98043 20.1544 3.79289 19.9669C3.60536 19.7793 3.5 19.525 3.5 19.2598V9.66977L9.38 15.5498C9.93962 16.1101 10.6981 16.4264 11.49 16.4298C11.8927 16.4308 12.2915 16.3508 12.6625 16.1944C13.0336 16.0381 13.3695 15.8087 13.65 15.5198C13.8302 15.3333 13.931 15.0841 13.931 14.8248C13.931 14.5654 13.8302 14.3162 13.65 14.1298C13.5569 14.0345 13.4456 13.9588 13.3229 13.9072C13.2001 13.8555 13.0682 13.8289 12.935 13.8289C12.8018 13.8289 12.6699 13.8555 12.5471 13.9072C12.4244 13.9588 12.3131 14.0345 12.22 14.1298C12.0331 14.313 11.7818 14.4156 11.52 14.4156C11.2582 14.4156 11.0069 14.313 10.82 14.1298L4.91 8.25977H9.5C9.76522 8.25977 10.0196 8.15441 10.2071 7.96687C10.3946 7.77934 10.5 7.52498 10.5 7.25977C10.5 6.99455 10.3946 6.7402 10.2071 6.55266C10.0196 6.36512 9.76522 6.25977 9.5 6.25977H4.5C3.70435 6.25977 2.94129 6.57584 2.37868 7.13845C1.81607 7.70105 1.5 8.46412 1.5 9.25977V19.2598C1.5 20.0554 1.81607 20.8185 2.37868 21.3811C2.94129 21.9437 3.70435 22.2598 4.5 22.2598H18.5C19.2956 22.2598 20.0587 21.9437 20.6213 21.3811C21.1839 20.8185 21.5 20.0554 21.5 19.2598V15.2598C21.5 14.9945 21.3946 14.7402 21.2071 14.5527C21.0196 14.3651 20.7652 14.2598 20.5 14.2598ZM21.5 3.25977C21.2348 3.25977 20.9804 3.36512 20.7929 3.55266C20.6054 3.7402 20.5 3.99455 20.5 4.25977C19.8662 3.78441 19.1285 3.46647 18.3477 3.33215C17.5669 3.19783 16.7654 3.25097 16.0092 3.4872C15.2529 3.72342 14.5637 4.13597 13.9982 4.69084C13.4327 5.24571 13.0071 5.92702 12.7566 6.67863C12.506 7.43023 12.4377 8.23061 12.5572 9.01381C12.6767 9.79701 12.9805 10.5406 13.4438 11.1833C13.907 11.826 14.5164 12.3495 15.2216 12.7105C15.9268 13.0715 16.7077 13.2598 17.5 13.2598C18.7167 13.2553 19.8899 12.8073 20.8 11.9998C21.0002 11.8247 21.1227 11.5773 21.1406 11.3119C21.1584 11.0466 21.07 10.785 20.895 10.5848C20.72 10.3845 20.4725 10.262 20.2072 10.2442C19.9418 10.2264 19.6802 10.3147 19.48 10.4898C19.0362 10.8832 18.4858 11.1363 17.8983 11.2171C17.3108 11.2979 16.7125 11.2027 16.179 10.9436C15.6456 10.6845 15.2009 10.2731 14.9011 9.76132C14.6014 9.24959 14.46 8.66049 14.4949 8.06846C14.5298 7.47643 14.7394 6.90803 15.0972 6.43507C15.455 5.96211 15.945 5.60581 16.5052 5.41118C17.0654 5.21656 17.6708 5.19235 18.2447 5.34161C18.8187 5.49086 19.3356 5.80689 19.73 6.24977H18.5C18.2348 6.24977 17.9804 6.35512 17.7929 6.54266C17.6054 6.7302 17.5 6.98455 17.5 7.24977C17.5 7.51498 17.6054 7.76934 17.7929 7.95687C17.9804 8.14441 18.2348 8.24977 18.5 8.24977H21.5C21.7652 8.24977 22.0196 8.14441 22.2071 7.95687C22.3946 7.76934 22.5 7.51498 22.5 7.24977V4.24977C22.4974 3.98629 22.3908 3.73449 22.2036 3.54911C22.0163 3.36374 21.7635 3.25975 21.5 3.25977Z" fill="black"/>
</svg>
