<svg width="24" height="24" viewBox="0 0 24 24" fill="none" xmlns="http://www.w3.org/2000/svg">
<path d="M8.29 6.21019L10.29 8.21019C10.383 8.30391 10.4936 8.37831 10.6154 8.42908C10.7373 8.47985 10.868 8.50598 11 8.50598C11.132 8.50598 11.2627 8.47985 11.3846 8.42908C11.5064 8.37831 11.617 8.30391 11.71 8.21019C11.8037 8.11722 11.8781 8.00662 11.9289 7.88476C11.9797 7.7629 12.0058 7.6322 12.0058 7.50019C12.0058 7.36817 11.9797 7.23747 11.9289 7.11561C11.8781 6.99375 11.8037 6.88315 11.71 6.79019L11.41 6.50019H15C15.2652 6.50019 15.5196 6.39483 15.7071 6.20729C15.8946 6.01976 16 5.7654 16 5.50019C16 5.23497 15.8946 4.98062 15.7071 4.79308C15.5196 4.60554 15.2652 4.50019 15 4.50019H11.41L11.71 4.21019C11.8032 4.11695 11.8772 4.00626 11.9277 3.88443C11.9781 3.76261 12.0041 3.63204 12.0041 3.50019C12.0041 3.36833 11.9781 3.23776 11.9277 3.11594C11.8772 2.99411 11.8032 2.88342 11.71 2.79019C11.6168 2.69695 11.5061 2.62299 11.3842 2.57253C11.2624 2.52207 11.1319 2.49609 11 2.49609C10.8681 2.49609 10.7376 2.52207 10.6158 2.57253C10.4939 2.62299 10.3832 2.69695 10.29 2.79019L8.29 4.79019C8.19896 4.88529 8.12759 4.99743 8.08 5.12019C7.97998 5.36365 7.97998 5.63672 8.08 5.88019C8.12759 6.00294 8.19896 6.11508 8.29 6.21019ZM16 10.5002H8C7.20435 10.5002 6.44129 10.8163 5.87868 11.3789C5.31607 11.9415 5 12.7045 5 13.5002V18.5002C5 19.2958 5.31607 20.0589 5.87868 20.6215C6.44129 21.1841 7.20435 21.5002 8 21.5002H16C16.7956 21.5002 17.5587 21.1841 18.1213 20.6215C18.6839 20.0589 19 19.2958 19 18.5002V13.5002C19 12.7045 18.6839 11.9415 18.1213 11.3789C17.5587 10.8163 16.7956 10.5002 16 10.5002ZM15.58 12.5002L12.7 15.3802C12.5131 15.5634 12.2618 15.666 12 15.666C11.7382 15.666 11.4869 15.5634 11.3 15.3802L8.42 12.5002H15.58ZM17 18.5002C17 18.7654 16.8946 19.0198 16.7071 19.2073C16.5196 19.3948 16.2652 19.5002 16 19.5002H8C7.73478 19.5002 7.48043 19.3948 7.29289 19.2073C7.10536 19.0198 7 18.7654 7 18.5002V13.9102L9.88 16.7802C10.1555 17.0634 10.4851 17.2881 10.8494 17.441C11.2136 17.5939 11.605 17.6719 12 17.6702C12.7954 17.6695 13.5579 17.353 14.12 16.7902L17 13.9102V18.5002Z" fill="black"/>
</svg>
