<svg width="24" height="24" viewBox="0 0 24 24" fill="none" xmlns="http://www.w3.org/2000/svg">
<path d="M22.21 10.2898L20.48 8.56976C20.8991 7.88997 21.1239 7.10833 21.13 6.30976C21.128 5.45817 20.8738 4.62626 20.3995 3.91902C19.9251 3.21178 19.2519 2.66091 18.4648 2.33593C17.6776 2.01096 16.8118 1.92645 15.9767 2.09307C15.1416 2.25969 14.3745 2.66998 13.7724 3.27214C13.1702 3.8743 12.7599 4.64135 12.5933 5.47647C12.4267 6.3116 12.5112 7.17737 12.8362 7.96451C13.1612 8.75165 13.712 9.42488 14.4193 9.89922C15.1265 10.3736 15.9584 10.6278 16.81 10.6298C17.6067 10.6297 18.3882 10.4118 19.07 9.99976L20.79 11.7298C20.883 11.8235 20.9936 11.8979 21.1154 11.9486C21.2373 11.9994 21.368 12.0256 21.5 12.0256C21.632 12.0256 21.7627 11.9994 21.8846 11.9486C22.0064 11.8979 22.117 11.8235 22.21 11.7298C22.3068 11.6365 22.3838 11.5246 22.4363 11.4009C22.4889 11.2772 22.516 11.1442 22.516 11.0098C22.516 10.8753 22.4889 10.7423 22.4363 10.6186C22.3838 10.4949 22.3068 10.383 22.21 10.2898ZM18.45 7.99976C18.0093 8.41976 17.4238 8.65404 16.815 8.65404C16.2062 8.65404 15.6207 8.41976 15.18 7.99976C14.9636 7.78508 14.7921 7.52955 14.6754 7.24801C14.5586 6.96647 14.499 6.66454 14.5 6.35976C14.4947 6.05258 14.5505 5.74741 14.6641 5.46196C14.7776 5.17651 14.9468 4.91646 15.1617 4.69691C15.3766 4.47735 15.633 4.30267 15.9159 4.18299C16.1989 4.06332 16.5028 4.00103 16.81 3.99976C17.1148 3.99879 17.4167 4.0584 17.6983 4.17514C17.9798 4.29187 18.2353 4.4634 18.45 4.67976C18.6661 4.89257 18.8375 5.14635 18.9542 5.42624C19.071 5.70612 19.1308 6.00649 19.13 6.30976C19.1377 6.62291 19.0814 6.93434 18.9644 7.22495C18.8475 7.51556 18.6725 7.77921 18.45 7.99976ZM20.5 13.9998C20.2348 13.9998 19.9804 14.1051 19.7929 14.2926C19.6054 14.4802 19.5 14.7345 19.5 14.9998V18.9998C19.5 19.265 19.3946 19.5193 19.2071 19.7069C19.0196 19.8944 18.7652 19.9998 18.5 19.9998H4.5C4.23478 19.9998 3.98043 19.8944 3.79289 19.7069C3.60536 19.5193 3.5 19.265 3.5 18.9998V9.40976L9.38 15.2998C9.9425 15.8616 10.705 16.1771 11.5 16.1771C12.295 16.1771 13.0575 15.8616 13.62 15.2998L15 13.8798C15.1883 13.6915 15.2941 13.4361 15.2941 13.1698C15.2941 12.9035 15.1883 12.6481 15 12.4598C14.8117 12.2715 14.5563 12.1657 14.29 12.1657C14.0237 12.1657 13.7683 12.2715 13.58 12.4598L12.2 13.8798C12.0131 14.063 11.7618 14.1656 11.5 14.1656C11.2382 14.1656 10.9869 14.063 10.8 13.8798L4.91 7.99976H9.5C9.76522 7.99976 10.0196 7.8944 10.2071 7.70686C10.3946 7.51933 10.5 7.26497 10.5 6.99976C10.5 6.73454 10.3946 6.48019 10.2071 6.29265C10.0196 6.10511 9.76522 5.99976 9.5 5.99976H4.5C3.70435 5.99976 2.94129 6.31583 2.37868 6.87844C1.81607 7.44104 1.5 8.20411 1.5 8.99976V18.9998C1.5 19.7954 1.81607 20.5585 2.37868 21.1211C2.94129 21.6837 3.70435 21.9998 4.5 21.9998H18.5C19.2956 21.9998 20.0587 21.6837 20.6213 21.1211C21.1839 20.5585 21.5 19.7954 21.5 18.9998V14.9998C21.5 14.7345 21.3946 14.4802 21.2071 14.2926C21.0196 14.1051 20.7652 13.9998 20.5 13.9998Z" fill="black"/>
</svg>
