<svg width="24" height="24" viewBox="0 0 24 24" fill="none" xmlns="http://www.w3.org/2000/svg">
<path d="M16 11.0799H8C7.20435 11.0799 6.44129 11.3959 5.87868 11.9585C5.31607 12.5211 5 13.2842 5 14.0799V19.0799C5 19.8755 5.31607 20.6386 5.87868 21.2012C6.44129 21.7638 7.20435 22.0799 8 22.0799H16C16.7956 22.0799 17.5587 21.7638 18.1213 21.2012C18.6839 20.6386 19 19.8755 19 19.0799V14.0799C19 13.2842 18.6839 12.5211 18.1213 11.9585C17.5587 11.3959 16.7956 11.0799 16 11.0799ZM15.58 13.0799L12.7 15.9999C12.5131 16.1831 12.2618 16.2857 12 16.2857C11.7382 16.2857 11.4869 16.1831 11.3 15.9999L8.42 13.0799H15.58ZM17 19.0799C17 19.3451 16.8946 19.5994 16.7071 19.787C16.5196 19.9745 16.2652 20.0799 16 20.0799H8C7.73478 20.0799 7.48043 19.9745 7.29289 19.787C7.10536 19.5994 7 19.3451 7 19.0799V14.4899L9.88 17.3699C10.4425 17.9317 11.205 18.2472 12 18.2472C12.795 18.2472 13.5575 17.9317 14.12 17.3699L17 14.4899V19.0799ZM10.71 5.61986L11 5.32986V8.07986C11 8.34508 11.1054 8.59943 11.2929 8.78697C11.4804 8.9745 11.7348 9.07986 12 9.07986C12.2652 9.07986 12.5196 8.9745 12.7071 8.78697C12.8946 8.59943 13 8.34508 13 8.07986V5.32986L13.29 5.61986C13.3826 5.7131 13.4926 5.78719 13.6138 5.8379C13.7351 5.88861 13.8651 5.91495 13.9965 5.91542C14.1279 5.91588 14.2581 5.89046 14.3796 5.84061C14.5012 5.79075 14.6118 5.71744 14.705 5.62486C14.7982 5.53228 14.8723 5.42224 14.923 5.30102C14.9738 5.17981 15.0001 5.04979 15.0006 4.9184C15.001 4.787 14.9756 4.6568 14.9257 4.53523C14.8759 4.41366 14.8026 4.3031 14.71 4.20986L12.71 2.20986C12.617 2.11613 12.5064 2.04174 12.3846 1.99097C12.2627 1.9402 12.132 1.91406 12 1.91406C11.868 1.91406 11.7373 1.9402 11.6154 1.99097C11.4936 2.04174 11.383 2.11613 11.29 2.20986L9.29 4.20986C9.10375 4.39722 8.99921 4.65068 8.99921 4.91486C8.99921 5.17905 9.10375 5.4325 9.29 5.61986C9.38296 5.71359 9.49356 5.78798 9.61542 5.83875C9.73728 5.88952 9.86799 5.91566 10 5.91566C10.132 5.91566 10.2627 5.88952 10.3846 5.83875C10.5064 5.78798 10.617 5.71359 10.71 5.61986Z" fill="black"/>
</svg>
