<svg width="24" height="24" viewBox="0 0 24 24" fill="none" xmlns="http://www.w3.org/2000/svg">
<path d="M22 7.81952C22.0048 7.75628 22.0048 7.69277 22 7.62952L20 2.62952C19.9219 2.43188 19.7828 2.26426 19.603 2.15098C19.4232 2.0377 19.212 1.98465 19 1.99952H5C4.79972 1.99933 4.604 2.05928 4.43818 2.1716C4.27237 2.28393 4.1441 2.44346 4.07 2.62952L2.07 7.62952C2.06518 7.69277 2.06518 7.75628 2.07 7.81952C2.03677 7.87519 2.01311 7.93603 2 7.99952C2.01113 8.69076 2.20123 9.36732 2.55174 9.9632C2.90226 10.5591 3.40124 11.0539 4 11.3995V20.9995C4 21.2647 4.10536 21.5191 4.29289 21.7066C4.48043 21.8942 4.73478 21.9995 5 21.9995H19C19.2652 21.9995 19.5196 21.8942 19.7071 21.7066C19.8946 21.5191 20 21.2647 20 20.9995V11.4395C20.6046 11.0905 21.1072 10.5893 21.4581 9.98586C21.809 9.38238 21.9958 8.69758 22 7.99952C22.0094 7.93989 22.0094 7.87916 22 7.81952ZM13 19.9995H11V15.9995H13V19.9995ZM18 19.9995H15V14.9995C15 14.7343 14.8946 14.48 14.7071 14.2924C14.5196 14.1049 14.2652 13.9995 14 13.9995H10C9.73478 13.9995 9.48043 14.1049 9.29289 14.2924C9.10536 14.48 9 14.7343 9 14.9995V19.9995H6V11.9995C6.56947 11.9963 7.13169 11.8715 7.64905 11.6335C8.16642 11.3956 8.627 11.0498 9 10.6195C9.37537 11.0452 9.83701 11.386 10.3542 11.6195C10.8715 11.853 11.4325 11.9738 12 11.9738C12.5675 11.9738 13.1285 11.853 13.6458 11.6195C14.163 11.386 14.6246 11.0452 15 10.6195C15.373 11.0498 15.8336 11.3956 16.3509 11.6335C16.8683 11.8715 17.4305 11.9963 18 11.9995V19.9995ZM18 9.99952C17.4696 9.99952 16.9609 9.78881 16.5858 9.41374C16.2107 9.03866 16 8.52996 16 7.99952C16 7.73431 15.8946 7.47995 15.7071 7.29242C15.5196 7.10488 15.2652 6.99952 15 6.99952C14.7348 6.99952 14.4804 7.10488 14.2929 7.29242C14.1054 7.47995 14 7.73431 14 7.99952C14 8.52996 13.7893 9.03866 13.4142 9.41374C13.0391 9.78881 12.5304 9.99952 12 9.99952C11.4696 9.99952 10.9609 9.78881 10.5858 9.41374C10.2107 9.03866 10 8.52996 10 7.99952C10 7.73431 9.89464 7.47995 9.70711 7.29242C9.51957 7.10488 9.26522 6.99952 9 6.99952C8.73478 6.99952 8.48043 7.10488 8.29289 7.29242C8.10536 7.47995 8 7.73431 8 7.99952C8.00985 8.26217 7.96787 8.52418 7.87646 8.7706C7.78505 9.01702 7.646 9.24302 7.46725 9.4357C7.28849 9.62839 7.07354 9.78397 6.83466 9.89358C6.59578 10.0032 6.33764 10.0647 6.075 10.0745C5.54457 10.0944 5.02796 9.90278 4.63882 9.54177C4.44614 9.36302 4.29055 9.14806 4.18094 8.90918C4.07133 8.6703 4.00985 8.41217 4 8.14952L5.68 3.99952H18.32L20 8.14952C19.9621 8.65354 19.7348 9.12451 19.3637 9.46773C18.9927 9.81095 18.5054 10.0009 18 9.99952Z" fill="black"/>
</svg>
