<svg width="24" height="24" viewBox="0 0 24 24" fill="none" xmlns="http://www.w3.org/2000/svg">
<path d="M8.00007 11.0002H16.0001C16.1478 10.9992 16.2934 10.9655 16.4266 10.9016C16.5597 10.8376 16.677 10.7449 16.7701 10.6302C16.8678 10.5177 16.9392 10.3848 16.979 10.2412C17.0188 10.0976 17.026 9.94695 17.0001 9.8002L16.0001 4.8002C15.9533 4.57093 15.8276 4.36531 15.6449 4.21913C15.4622 4.07296 15.234 3.99549 15.0001 4.0002H9.00007C8.76612 3.99549 8.53793 4.07296 8.35521 4.21913C8.17249 4.36531 8.04682 4.57093 8.00007 4.8002L7.00007 9.8002C6.97144 9.94547 6.97543 10.0953 7.01175 10.2388C7.04807 10.3823 7.1158 10.516 7.21007 10.6302C7.30524 10.7476 7.42577 10.8418 7.56259 10.9059C7.69942 10.97 7.84899 11.0022 8.00007 11.0002ZM9.82007 6.0002H14.1801L14.7801 9.0002H9.22007L9.82007 6.0002ZM22.0001 13.8002C21.9533 13.5709 21.8276 13.3653 21.6449 13.2191C21.4622 13.073 21.234 12.9955 21.0001 13.0002H15.0001C14.7661 12.9955 14.5379 13.073 14.3552 13.2191C14.1725 13.3653 14.0468 13.5709 14.0001 13.8002L13.0001 18.8002C12.9714 18.9455 12.9754 19.0953 13.0117 19.2388C13.0481 19.3823 13.1158 19.516 13.2101 19.6302C13.3052 19.7475 13.4258 19.8418 13.5626 19.9059C13.6994 19.97 13.849 20.0022 14.0001 20.0002H22.0001C22.1478 19.9992 22.2934 19.9655 22.4266 19.9016C22.5597 19.8376 22.677 19.7449 22.7701 19.6302C22.8678 19.5177 22.9392 19.3848 22.979 19.2412C23.0188 19.0976 23.026 18.9469 23.0001 18.8002L22.0001 13.8002ZM15.2201 18.0002L15.8201 15.0002H20.1801L20.7801 18.0002H15.2201ZM9.00007 13.0002H3.00007C2.76612 12.9955 2.53793 13.073 2.35521 13.2191C2.17249 13.3653 2.04682 13.5709 2.00007 13.8002L1.00007 18.8002C0.971443 18.9455 0.975433 19.0953 1.01175 19.2388C1.04807 19.3823 1.1158 19.516 1.21007 19.6302C1.30524 19.7475 1.42577 19.8418 1.56259 19.9059C1.69942 19.97 1.84899 20.0022 2.00007 20.0002H10.0001C10.1478 19.9992 10.2934 19.9655 10.4266 19.9016C10.5597 19.8376 10.677 19.7449 10.7701 19.6302C10.8678 19.5177 10.9392 19.3848 10.979 19.2412C11.0188 19.0976 11.026 18.9469 11.0001 18.8002L10.0001 13.8002C9.95332 13.5709 9.82764 13.3653 9.64492 13.2191C9.46221 13.073 9.23401 12.9955 9.00007 13.0002ZM3.22007 18.0002L3.82007 15.0002H8.18007L8.78007 18.0002H3.22007Z" fill="black"/>
</svg>
