<svg width="24" height="24" viewBox="0 0 24 24" fill="none" xmlns="http://www.w3.org/2000/svg">
<path d="M12 1.99955C10.4679 1.99678 8.95565 2.34609 7.57996 3.02052C6.20428 3.69495 5.00196 4.67647 4.0658 5.88931C3.12964 7.10216 2.48469 8.51389 2.18072 10.0155C1.87675 11.5172 1.92189 13.0686 2.31266 14.5501C2.70344 16.0315 3.42938 17.4034 4.43448 18.5597C5.43957 19.7161 6.69693 20.626 8.10951 21.2193C9.52208 21.8126 11.0521 22.0734 12.5815 21.9815C14.1108 21.8897 15.5986 21.4477 16.93 20.6896H17H17.05C18.9753 19.5936 20.4821 17.8893 21.334 15.8443C22.1858 13.7993 22.3345 11.5292 21.7566 9.39058C21.1788 7.25192 19.9071 5.36569 18.1412 4.02797C16.3754 2.69025 14.2153 1.97678 12 1.99955ZM13 4.06955C14.76 4.29275 16.3959 5.09465 17.6504 6.34914C18.9049 7.60363 19.7068 9.23953 19.93 10.9996H13V4.06955ZM12 19.9996C9.97453 19.9857 8.02968 19.2041 6.55796 17.8124C5.08624 16.4207 4.19723 14.5225 4.07033 12.5009C3.94342 10.4794 4.58808 8.48495 5.87421 6.92011C7.16033 5.35528 8.99216 4.33657 11 4.06955V11.9996C11.004 12.1193 11.0276 12.2375 11.07 12.3496V12.4296V12.4996L15.07 19.3696C14.0998 19.7848 13.0554 19.9991 12 19.9996ZM16.83 18.3596L13.73 12.9996H19.93C19.7954 14.0541 19.4519 15.0713 18.9196 15.9916C18.3874 16.9119 17.677 17.7169 16.83 18.3596Z" fill="black"/>
</svg>
