<svg width="24" height="24" viewBox="0 0 24 24" fill="none" xmlns="http://www.w3.org/2000/svg">
<path d="M18.55 2.1699C18.3296 2.02517 18.0609 1.97339 17.8024 2.02583C17.5439 2.07827 17.3167 2.23069 17.17 2.4499L12 10.1999L6.83005 2.4499C6.67375 2.25586 6.45064 2.12716 6.20441 2.089C5.95819 2.05085 5.70659 2.10598 5.49889 2.24362C5.29119 2.38125 5.14235 2.59146 5.08153 2.83308C5.0207 3.07471 5.05227 3.33034 5.17005 3.5499L10.17 10.9999H7.00005C6.73483 10.9999 6.48048 11.1053 6.29294 11.2928C6.1054 11.4803 6.00005 11.7347 6.00005 11.9999C6.00005 12.2651 6.1054 12.5195 6.29294 12.707C6.48048 12.8945 6.73483 12.9999 7.00005 12.9999H11V14.9999H7.00005C6.73483 14.9999 6.48048 15.1053 6.29294 15.2928C6.1054 15.4803 6.00005 15.7347 6.00005 15.9999C6.00005 16.2651 6.1054 16.5195 6.29294 16.707C6.48048 16.8945 6.73483 16.9999 7.00005 16.9999H11V20.9999C11 21.2651 11.1054 21.5195 11.2929 21.707C11.4805 21.8945 11.7348 21.9999 12 21.9999C12.2653 21.9999 12.5196 21.8945 12.7072 21.707C12.8947 21.5195 13 21.2651 13 20.9999V16.9999H17C17.2653 16.9999 17.5196 16.8945 17.7072 16.707C17.8947 16.5195 18 16.2651 18 15.9999C18 15.7347 17.8947 15.4803 17.7072 15.2928C17.5196 15.1053 17.2653 14.9999 17 14.9999H13V12.9999H17C17.2653 12.9999 17.5196 12.8945 17.7072 12.707C17.8947 12.5195 18 12.2651 18 11.9999C18 11.7347 17.8947 11.4803 17.7072 11.2928C17.5196 11.1053 17.2653 10.9999 17 10.9999H13.87L18.87 3.5499C18.9399 3.43834 18.987 3.3141 19.0087 3.1843C19.0304 3.05449 19.0263 2.92168 18.9965 2.79347C18.9668 2.66526 18.9121 2.54419 18.8354 2.43718C18.7588 2.33018 18.6618 2.23935 18.55 2.1699Z" fill="black"/>
</svg>
