<svg width="24" height="24" viewBox="0 0 24 24" fill="none" xmlns="http://www.w3.org/2000/svg">
<path d="M9.71008 10.4603H11.9489C12.1533 10.4603 12.3494 10.3791 12.494 10.2345C12.6385 10.09 12.7197 9.89392 12.7197 9.68948C12.7197 9.48504 12.6385 9.28898 12.494 9.14442C12.3494 8.99986 12.1533 8.91864 11.9489 8.91864H9.71008C9.50564 8.91864 9.30957 8.99986 9.16501 9.14442C9.02045 9.28898 8.93924 9.48504 8.93924 9.68948C8.93924 9.89392 9.02045 10.09 9.16501 10.2345C9.30957 10.3791 9.50564 10.4603 9.71008 10.4603ZM19.4283 2.00195H4.555C3.87593 2.00445 3.22538 2.27532 2.74521 2.7555C2.26504 3.23568 1.99418 3.88623 1.9917 4.5653V19.4385C1.99417 20.1176 2.26501 20.7682 2.74519 21.2484C3.22536 21.7286 3.87592 21.9995 4.555 22.002H19.4282C20.1073 21.9995 20.7579 21.7287 21.2381 21.2485C21.7183 20.7683 21.9892 20.1178 21.9917 19.4387V4.5653C21.9892 3.88621 21.7184 3.23564 21.2382 2.75545C20.758 2.27526 20.1074 2.00441 19.4283 2.00195ZM18.3558 11.6797L18.3361 14.3552C18.3283 15.4223 17.8998 16.4433 17.1436 17.1963C16.3874 17.9493 15.3647 18.3736 14.2975 18.377H9.65855C8.59011 18.375 7.56574 17.9509 6.80866 17.197C6.05158 16.4431 5.62315 15.4205 5.61674 14.3521V9.65771C5.62249 8.58856 6.05052 7.56499 6.80756 6.81001C7.56461 6.05502 8.58934 5.62979 9.65851 5.62695H12.4822C13.1327 5.73977 13.7501 5.99562 14.2897 6.37603C14.8293 6.75643 15.2777 7.2519 15.6025 7.82666C15.8251 8.2493 15.9488 8.71694 15.9644 9.19433C16.0317 9.69989 16.0672 10.0756 16.2944 10.2838C16.6138 10.5732 17.8017 10.3782 18.0366 10.5622L18.2155 10.702L18.3243 10.9237L18.3603 11.1013L18.3558 11.6797ZM14.2588 13.5436H9.71008C9.60966 13.5406 9.50965 13.5577 9.41597 13.594C9.3223 13.6303 9.23687 13.6851 9.16475 13.755C9.09263 13.825 9.0353 13.9087 8.99614 14.0012C8.95699 14.0937 8.93681 14.1932 8.93681 14.2936C8.93681 14.3941 8.95699 14.4936 8.99614 14.5861C9.0353 14.6786 9.09263 14.7623 9.16475 14.8323C9.23687 14.9022 9.3223 14.957 9.41597 14.9933C9.50965 15.0296 9.60966 15.0467 9.71008 15.0436H14.2588C14.3589 15.0462 14.4585 15.0286 14.5517 14.9921C14.6449 14.9555 14.7298 14.9007 14.8015 14.8308C14.8732 14.7609 14.9302 14.6774 14.9691 14.5851C15.008 14.4929 15.028 14.3938 15.028 14.2936C15.028 14.1935 15.008 14.0944 14.9691 14.0022C14.9302 13.9099 14.8732 13.8264 14.8015 13.7565C14.7298 13.6866 14.6449 13.6317 14.5517 13.5952C14.4585 13.5586 14.3589 13.5411 14.2588 13.5436H14.2588Z" fill="black"/>
</svg>
