<svg width="24" height="24" viewBox="0 0 24 24" fill="none" xmlns="http://www.w3.org/2000/svg">
<path d="M11.9912 1.00068C10.5579 0.948525 9.12898 1.18737 7.79059 1.7028C6.4522 2.21823 5.23215 2.99955 4.20409 3.99958C3.17604 4.99961 2.36132 6.19762 1.80911 7.52125C1.2569 8.84489 0.978666 10.2667 0.991202 11.7009C0.97241 13.1786 1.26695 14.6436 1.85541 15.9993C2.44388 17.355 3.31291 18.5706 4.40526 19.5661L4.45699 21.2565C4.47165 21.7238 4.6676 22.1671 5.00335 22.4924C5.3391 22.8178 5.78829 22.9997 6.25582 22.9997C6.5059 22.9994 6.75323 22.9475 6.98238 22.8474L8.90328 22.0007C9.91059 22.2689 10.9488 22.4035 11.9912 22.4011C13.4245 22.4532 14.8535 22.2144 16.192 21.699C17.5304 21.1836 18.7505 20.4023 19.7787 19.4023C20.8068 18.4022 21.6216 17.2042 22.1739 15.8806C22.7263 14.5569 23.0046 13.1351 22.9922 11.7009C23.0046 10.2667 22.7263 8.84481 22.1739 7.52116C21.6216 6.19751 20.8068 4.99951 19.7787 3.99948C18.7506 2.99946 17.5304 2.21816 16.192 1.70275C14.8535 1.18734 13.4245 0.948508 11.9912 1.00068ZM11.9912 20.4011C11.1012 20.4036 10.2149 20.2857 9.35644 20.0505C8.95893 19.9432 8.53665 19.9757 8.16015 20.1423L6.44628 20.8981L6.40136 19.405C6.39142 19.1631 6.33306 18.9257 6.22973 18.7068C6.1264 18.4879 5.9802 18.292 5.79979 18.1306C4.90035 17.321 4.18441 16.3285 3.70001 15.2195C3.21561 14.1106 2.97393 12.9109 2.9912 11.7009C2.9848 10.531 3.21549 9.37204 3.66936 8.29382C4.12323 7.21561 4.79086 6.24054 5.63196 5.42746C6.47306 4.61438 7.47018 3.98015 8.56315 3.56306C9.65611 3.14597 10.8223 2.95466 11.9912 3.00068C13.1586 2.96099 14.3221 3.15666 15.4123 3.57602C16.5025 3.99538 17.4971 4.62986 18.337 5.44167C19.1769 6.25347 19.8448 7.226 20.3009 8.30133C20.7571 9.37666 20.9922 10.5328 20.9922 11.7009C20.9922 12.869 20.7571 14.0251 20.3009 15.1004C19.8448 16.1757 19.1769 17.1483 18.337 17.9601C17.4971 18.7719 16.5025 19.4064 15.4123 19.8257C14.3221 20.2451 13.1586 20.4407 11.9912 20.4011ZM15.7256 8.58564L13.4131 11.3405L10.0664 9.28388C9.86215 9.15816 9.61947 9.1102 9.38275 9.14876C9.14603 9.18732 8.93112 9.30983 8.77733 9.49388L5.72558 13.1306C5.64072 13.231 5.57652 13.3473 5.53667 13.4726C5.49682 13.598 5.48209 13.7299 5.49334 13.861C5.50458 13.992 5.54158 14.1195 5.60221 14.2363C5.66283 14.353 5.7459 14.4566 5.84664 14.5411C5.94738 14.6257 6.06382 14.6895 6.18928 14.729C6.31475 14.7685 6.44676 14.7828 6.57777 14.7711C6.70877 14.7595 6.83619 14.7221 6.95272 14.6611C7.06925 14.6001 7.17259 14.5167 7.25683 14.4157L9.75483 11.4401L13.1015 13.4958C13.3057 13.6216 13.5483 13.6697 13.785 13.6313C14.0217 13.593 14.2366 13.4707 14.3906 13.2868L17.2568 9.8708C17.3422 9.77038 17.4068 9.65408 17.4471 9.52858C17.4873 9.40308 17.5023 9.27086 17.4913 9.13953C17.4802 9.0082 17.4433 8.88035 17.3827 8.76334C17.322 8.64633 17.2388 8.54247 17.1379 8.45774C17.0369 8.37302 16.9202 8.30909 16.7944 8.26964C16.6687 8.23019 16.5364 8.216 16.4051 8.22789C16.2739 8.23978 16.1462 8.2775 16.0296 8.3389C15.913 8.4003 15.8097 8.48415 15.7256 8.58564Z" fill="black"/>
</svg>
