<svg width="24" height="24" viewBox="0 0 24 24" fill="none" xmlns="http://www.w3.org/2000/svg">
<path d="M8.99175 7.69069C8.46132 7.69069 7.95261 7.90141 7.57754 8.27648C7.20247 8.65155 6.99175 9.16026 6.99175 9.69069C6.99175 10.2211 7.20247 10.7298 7.57754 11.1049C7.95261 11.48 8.46132 11.6907 8.99175 11.6907L9.00689 11.6892V12.1906C9.00663 12.3232 8.95386 12.4502 8.86015 12.5439C8.76644 12.6376 8.63942 12.6904 8.50689 12.6906C8.24167 12.6906 7.98732 12.796 7.79978 12.9835C7.61225 13.1711 7.50689 13.4254 7.50689 13.6906C7.50689 13.9559 7.61225 14.2102 7.79978 14.3977C7.98732 14.5853 8.24167 14.6906 8.50689 14.6906C9.16974 14.69 9.80527 14.4264 10.274 13.9577C10.7427 13.489 11.0063 12.8535 11.0069 12.1906V9.69063C11.0009 9.63975 10.9907 9.58944 10.9766 9.5402C10.9402 9.03835 10.7154 8.56881 10.3473 8.22578C9.97914 7.88276 9.49492 7.69161 8.99175 7.69069ZM11.9913 1.00215C9.4822 1.0022 7.06899 1.96585 5.25002 3.69406C3.43105 5.42228 2.34527 7.78306 2.21693 10.2888C2.08858 12.7946 2.92747 15.254 4.56034 17.159C6.19321 19.064 8.49534 20.2692 10.9913 20.5256V22.0022C10.9911 22.1539 11.0255 22.3037 11.0919 22.4401C11.1583 22.5765 11.2548 22.6961 11.3743 22.7896C11.4937 22.8832 11.6329 22.9483 11.7812 22.9801C11.9296 23.0118 12.0833 23.0094 12.2305 22.9729C14.7507 22.3492 17.0151 20.9584 18.7109 18.9925C20.4067 17.0266 21.4502 14.5827 21.6973 11.9982C21.8775 10.6205 21.7606 9.22016 21.3546 7.89136C20.9485 6.56257 20.2627 5.3361 19.3432 4.29441C18.4237 3.25272 17.2919 2.41994 16.0238 1.85207C14.7557 1.28419 13.3807 0.994375 11.9913 1.0021V1.00215ZM19.7091 11.7824C19.5255 13.7384 18.7994 15.6042 17.6125 17.1697C16.4256 18.7351 14.8251 19.938 12.9913 20.6428V19.5764C12.9914 19.445 12.9655 19.315 12.9153 19.1936C12.8651 19.0722 12.7914 18.962 12.6986 18.8691C12.6057 18.7762 12.4954 18.7026 12.3741 18.6523C12.2527 18.6021 12.1226 18.5763 11.9913 18.5764C10.4512 18.5762 8.94572 18.1193 7.66526 17.2635C6.38481 16.4078 5.38687 15.1915 4.79763 13.7686C4.20839 12.3457 4.05432 10.78 4.3549 9.26947C4.65548 7.75899 5.3972 6.37155 6.48629 5.2826C7.57538 4.19365 8.96291 3.4521 10.4734 3.15171C11.984 2.85132 13.5496 3.00559 14.9725 3.59501C16.3953 4.18442 17.6115 5.18252 18.4671 6.46308C19.3227 7.74364 19.7794 9.24916 19.7794 10.7893C19.7767 11.1215 19.7532 11.4532 19.7091 11.7824ZM14.9918 7.69069C14.4613 7.69069 13.9526 7.90141 13.5775 8.27648C13.2025 8.65155 12.9918 9.16026 12.9918 9.69069C12.9918 10.2211 13.2025 10.7298 13.5775 11.1049C13.9526 11.48 14.4613 11.6907 14.9918 11.6907L15.0069 11.6892V12.1906C15.0066 12.3232 14.9539 12.4502 14.8602 12.5439C14.7664 12.6376 14.6394 12.6904 14.5069 12.6906C14.2417 12.6906 13.9873 12.796 13.7998 12.9835C13.6122 13.1711 13.5069 13.4254 13.5069 13.6906C13.5069 13.9559 13.6122 14.2102 13.7998 14.3977C13.9873 14.5853 14.2417 14.6906 14.5069 14.6906C15.1697 14.69 15.8053 14.4264 16.274 13.9577C16.7427 13.489 17.0063 12.8535 17.0069 12.1906V9.69063C17.0009 9.63975 16.9907 9.58944 16.9766 9.5402C16.9402 9.03835 16.7154 8.56881 16.3473 8.22578C15.9791 7.88276 15.4949 7.69161 14.9918 7.69069Z" fill="black"/>
</svg>
