<svg width="24" height="24" viewBox="0 0 24 24" fill="none" xmlns="http://www.w3.org/2000/svg">
<path d="M20.9189 10.6531C20.6045 10.4832 17.9082 8.91875 16.8965 8.32989L16.8935 8.32789L4.63866 1.25275C4.42988 1.1253 4.19578 1.04501 3.95273 1.01749C3.70967 0.989977 3.46354 1.0159 3.23155 1.09345C3.20537 1.10285 3.18077 1.11231 3.15532 1.12396C3.09623 1.14322 3.03847 1.16634 2.98241 1.19318C2.7481 1.33323 2.55587 1.53385 2.42595 1.77393C2.29603 2.01401 2.23322 2.28468 2.24413 2.55744V21.5428C2.2367 21.7969 2.29688 22.0484 2.41853 22.2717C2.54018 22.4949 2.71894 22.6818 2.93651 22.8133C2.9867 22.8378 3.0384 22.8591 3.0913 22.877C3.12023 22.8904 3.14781 22.902 3.17766 22.9125C3.32088 22.9645 3.4717 22.9923 3.62401 22.9949C3.91651 22.9918 4.20306 22.912 4.45507 22.7635C4.84374 22.5379 16.8935 15.5809 16.8935 15.5809L20.9141 13.2596C21.1626 13.1351 21.3724 12.945 21.5208 12.7099C21.6692 12.4747 21.7505 12.2035 21.7559 11.9256C21.7436 11.6578 21.6594 11.3983 21.5122 11.1744C21.3649 10.9505 21.1599 10.7704 20.9189 10.6531ZM4.24413 19.8391V4.10199L12.1843 11.9611L4.24413 19.8391ZM9.26213 17.6774L13.6056 13.3679L14.7552 14.5057C13.4905 15.236 11.3539 16.4697 9.26213 17.6775V17.6774ZM13.6039 10.5524L9.20607 6.19946L14.7597 9.40576L13.6039 10.5524ZM16.5507 13.4691L15.0253 11.9594L16.5531 10.4435C17.2733 10.8618 18.3959 11.5129 19.169 11.9578L16.5507 13.4691Z" fill="black"/>
</svg>
