<svg width="24" height="24" viewBox="0 0 24 24" fill="none" xmlns="http://www.w3.org/2000/svg">
<path d="M7.95224 8.00049H14.9386L14.7614 10.0005H9.9913C9.72608 10.0005 9.47173 10.1058 9.28419 10.2934C9.09665 10.4809 8.9913 10.7353 8.9913 11.0005C8.9913 11.2657 9.09665 11.5201 9.28419 11.7076C9.47173 11.8951 9.72608 12.0005 9.9913 12.0005H14.5841L14.3204 14.977L11.9913 15.5054L9.66318 14.976L9.56747 13.9116C9.5558 13.7808 9.51848 13.6536 9.45764 13.5372C9.3968 13.4208 9.31363 13.3175 9.21288 13.2333C9.11213 13.149 8.99578 13.0855 8.87046 13.0462C8.74514 13.0069 8.61332 12.9927 8.48251 13.0044C8.3517 13.016 8.22447 13.0534 8.10809 13.1142C7.9917 13.1751 7.88844 13.2582 7.80419 13.359C7.71995 13.4597 7.65638 13.5761 7.6171 13.7014C7.57783 13.8267 7.56362 13.9585 7.57529 14.0893L7.73544 15.8793C7.75435 16.09 7.83947 16.2892 7.97858 16.4485C8.1177 16.6078 8.30368 16.719 8.50986 16.7661L11.7696 17.5063C11.9156 17.5388 12.067 17.5388 12.213 17.5063L15.4737 16.7661C15.68 16.7189 15.8661 16.6076 16.0053 16.4481C16.1444 16.2886 16.2294 16.0892 16.2481 15.8784L16.6797 11.0104L16.6817 11.0004L16.6809 10.9965L17.0274 7.08834C17.0395 6.95018 17.0227 6.81103 16.9781 6.6797C16.9335 6.54838 16.8621 6.42775 16.7685 6.32547C16.6748 6.22319 16.5609 6.14148 16.434 6.08553C16.3071 6.02958 16.17 6.00061 16.0313 6.00045H7.95224C7.68702 6.00045 7.43267 6.10581 7.24513 6.29334C7.05759 6.48088 6.95224 6.73523 6.95224 7.00045C6.95224 7.26567 7.05759 7.52002 7.24513 7.70756C7.43267 7.89509 7.68702 8.00045 7.95224 8.00045V8.00049ZM20.6544 2.32568C20.5606 2.22327 20.4465 2.14148 20.3194 2.0855C20.1923 2.02952 20.055 2.00057 19.9161 2.00049H4.0665C3.92766 2.00042 3.79034 2.02928 3.66327 2.08522C3.5362 2.14116 3.42218 2.22295 3.32847 2.32539C3.23476 2.42783 3.16342 2.54866 3.11898 2.6802C3.07455 2.81173 3.058 2.95108 3.0704 3.08936L4.51376 19.2837C4.53176 19.4861 4.61104 19.6782 4.74103 19.8343C4.87102 19.9905 5.04554 20.1033 5.2413 20.1577L11.714 21.9633C11.8896 22.0128 12.0754 22.0128 12.2511 21.9633L18.7413 20.1508C18.9371 20.0964 19.1116 19.9836 19.2416 19.8275C19.3716 19.6713 19.4508 19.4792 19.4688 19.2768L20.9122 3.08935C20.9245 2.95114 20.9079 2.8119 20.8635 2.68044C20.8191 2.54898 20.7479 2.42817 20.6544 2.32568ZM17.5382 18.4107L11.9825 19.9624L6.44443 18.4175L5.15927 4.00049H18.8233L17.5382 18.4107Z" fill="black"/>
</svg>
