<svg width="24" height="24" viewBox="0 0 24 24" fill="none" xmlns="http://www.w3.org/2000/svg">
<path d="M3.19458 2L4.79725 19.9943L11.9894 22L19.2013 19.9869L20.8052 2H3.19458ZM17.4759 6.12274L16.9422 12.1174L16.9441 12.1498L16.9416 12.2239V12.2232L16.5624 16.4146L16.5206 16.7869L11.9999 18.0372V18.0378L11.9963 18.041L7.48358 16.7831L7.17784 13.3179H9.39084L9.54776 15.0802L12.0005 15.7446L11.9999 15.7457L14.4613 15.0714L14.7216 12.2021H9.5758L9.53164 11.717L9.43071 10.5806L9.37847 9.97038H14.9172L15.1189 7.73868H6.68223L6.63791 7.2542L6.53765 6.1172L6.48473 5.507H17.5288L17.4759 6.12274Z" fill="black"/>
</svg>
