<svg width="24" height="24" viewBox="0 0 24 24" fill="none" xmlns="http://www.w3.org/2000/svg">
<path d="M14.4781 14.8829C13.7261 14.9562 12.9687 14.8183 12.2908 14.4846C12.1373 14.3618 12.0105 14.2088 11.9184 14.035C11.8263 13.8613 11.7708 13.6705 11.7553 13.4745C11.755 13.4451 11.7489 13.4161 11.7373 13.3892C11.7257 13.3622 11.7089 13.3379 11.6878 13.3174C11.6667 13.297 11.6418 13.281 11.6145 13.2703C11.5872 13.2596 11.558 13.2544 11.5287 13.255C11.2121 13.2512 10.8956 13.252 10.5791 13.2546C10.5237 13.249 10.4684 13.2654 10.4251 13.3002C10.3818 13.3351 10.354 13.3856 10.3477 13.4409C10.3296 13.7848 10.3878 14.1285 10.518 14.4474C10.6481 14.7662 10.8471 15.0524 11.1007 15.2854C11.7409 15.785 12.5183 16.0774 13.329 16.1236C14.1738 16.2216 15.0287 16.1853 15.8621 16.0161C16.502 15.8967 17.0887 15.5805 17.5403 15.1117C17.79 14.8039 17.9573 14.4376 18.0265 14.0474C18.0958 13.6572 18.0648 13.2558 17.9363 12.8809C17.8284 12.6166 17.6614 12.3805 17.4482 12.1908C17.2349 12.0011 16.981 11.8627 16.7059 11.7863C15.4251 11.3369 14.0416 11.3709 12.7359 11.0294C12.5092 10.9581 12.2323 10.8806 12.1312 10.6407C12.0729 10.4718 12.0689 10.2888 12.1198 10.1176C12.1708 9.94631 12.2742 9.79533 12.4154 9.68587C12.8254 9.45158 13.2922 9.33535 13.7642 9.35006C14.4047 9.28976 15.0504 9.38215 15.6483 9.61965C15.828 9.72528 15.9824 9.86875 16.101 10.0401C16.2196 10.2114 16.2995 10.4065 16.3351 10.6118C16.3368 10.6724 16.3611 10.7302 16.4032 10.7738C16.4453 10.8174 16.5022 10.8437 16.5627 10.8475C16.877 10.8539 17.1915 10.8492 17.5058 10.8496C17.5603 10.8562 17.6154 10.8428 17.6608 10.812C17.7062 10.7811 17.739 10.735 17.7531 10.6819C17.7559 10.2579 17.6479 9.84056 17.4398 9.47116C17.2316 9.10177 16.9306 8.79316 16.5665 8.57591C15.5615 8.1121 14.446 7.94141 13.3483 8.08348V8.0834C12.544 8.11637 11.7756 8.42512 11.1721 8.95778C10.8951 9.25639 10.7075 9.62681 10.6307 10.0268C10.5539 10.4269 10.591 10.8404 10.7378 11.2204C10.852 11.475 11.0201 11.7017 11.2304 11.885C11.4408 12.0683 11.6884 12.2038 11.9561 12.2822C13.2326 12.7433 14.6317 12.5953 15.9206 13.003C16.1717 13.0882 16.4642 13.2185 16.5412 13.4981C16.5825 13.6656 16.5794 13.841 16.5321 14.007C16.4848 14.1729 16.395 14.3237 16.2715 14.4442C15.7355 14.7772 15.1073 14.9309 14.4781 14.8829ZM20.297 6.43752C17.8047 5.02819 15.3119 3.62013 12.8185 2.21334C12.5683 2.07345 12.2865 2 11.9999 2C11.7132 2 11.4314 2.07345 11.1812 2.21334C8.6975 3.61588 6.21368 5.01834 3.72974 6.42074C3.48809 6.55245 3.28609 6.74642 3.14468 6.98252C3.00327 7.21862 2.92761 7.48825 2.92554 7.76345V16.2377C2.92951 16.5179 3.00925 16.7918 3.15629 17.0304C3.30334 17.2689 3.5122 17.4632 3.76074 17.5927C4.47425 17.9811 5.16748 18.409 5.89392 18.7715C6.3132 18.9957 6.77889 19.1192 7.25415 19.1322C7.7294 19.1453 8.20118 19.0476 8.63214 18.8468C8.95461 18.6448 9.217 18.36 9.39197 18.0221C9.56694 17.6842 9.64809 17.3056 9.62696 16.9256C9.63251 14.129 9.62781 11.3321 9.62909 8.53538C9.63396 8.5048 9.63231 8.47354 9.62426 8.44365C9.6162 8.41375 9.60192 8.38589 9.58235 8.3619C9.56279 8.33791 9.53837 8.31832 9.5107 8.30441C9.48304 8.29051 9.45275 8.28261 9.42182 8.28123C9.10443 8.2761 8.78656 8.27823 8.46918 8.28038C8.43979 8.27774 8.41018 8.28135 8.38228 8.29096C8.35438 8.30057 8.32883 8.31597 8.30731 8.33614C8.28578 8.35632 8.26876 8.38082 8.25736 8.40803C8.24596 8.43525 8.24045 8.46457 8.24118 8.49406C8.23691 11.2728 8.24204 14.0524 8.23862 16.8315C8.23934 17.0234 8.1814 17.2108 8.07254 17.3688C7.96369 17.5267 7.80914 17.6476 7.62962 17.7153C7.42289 17.7764 7.20561 17.7932 6.99195 17.7646C6.77829 17.736 6.57307 17.6626 6.38969 17.5493C5.72867 17.176 5.06767 16.8027 4.40669 16.4294C4.36289 16.4087 4.3265 16.375 4.30243 16.3329C4.27836 16.2908 4.26775 16.2424 4.27205 16.1941C4.27205 13.3982 4.27205 10.6025 4.27205 7.80687C4.26745 7.75249 4.28016 7.69804 4.30835 7.65131C4.33655 7.60458 4.37879 7.56796 4.42905 7.54667C6.90459 6.15242 9.37965 4.7567 11.8542 3.35952C11.8972 3.33017 11.9481 3.3145 12.0001 3.31458C12.0522 3.31466 12.103 3.33047 12.1459 3.35995C14.6213 4.75465 17.0967 6.14982 19.5719 7.54549C19.6219 7.56737 19.6638 7.60432 19.6918 7.65119C19.7198 7.69806 19.7325 7.7525 19.728 7.80691C19.7276 10.6023 19.7273 13.3979 19.7272 16.1938C19.7316 16.2422 19.7212 16.2909 19.6975 16.3334C19.6738 16.3759 19.6378 16.4103 19.5942 16.432C17.1566 17.8104 14.7177 19.1868 12.2775 20.5611C12.1609 20.6261 12.0229 20.7306 11.8865 20.6519C11.2474 20.2901 10.6161 19.9143 9.97919 19.5492C9.94663 19.5243 9.90737 19.5096 9.86645 19.5072C9.82553 19.5047 9.78481 19.5145 9.74951 19.5354C9.46895 19.6998 9.17364 19.8376 8.86743 19.947C8.72937 20.0029 8.55951 20.0188 8.46448 20.1469C8.58561 20.2787 8.73236 20.3844 8.89575 20.4575C9.64069 20.8888 10.386 21.3198 11.1317 21.7503C11.3784 21.9052 11.662 21.9912 11.9532 21.9993C12.2443 22.0074 12.5323 21.9373 12.7871 21.7963C15.2712 20.3957 17.7552 18.9944 20.239 17.5924C20.4873 17.4627 20.696 17.2684 20.8431 17.03C20.9902 16.7915 21.0702 16.5178 21.0746 16.2377V7.76345C21.0725 7.49369 20.9996 7.2292 20.8631 6.99649C20.7266 6.76379 20.5314 6.57103 20.297 6.43752H20.297Z" fill="black"/>
</svg>
