<svg width="24" height="24" viewBox="0 0 24 24" fill="none" xmlns="http://www.w3.org/2000/svg">
<path d="M15.2647 5.27441C14.1185 5.27396 12.9914 5.56841 11.9918 6.12946C10.9679 5.55717 9.81213 5.26254 8.63921 5.27479C7.46628 5.28704 6.31694 5.60576 5.30522 6.19931C4.29349 6.79286 3.45453 7.64063 2.87158 8.6585C2.28862 9.67637 1.98193 10.829 1.98193 12.002C1.98193 13.175 2.28862 14.3276 2.87158 15.3454C3.45453 16.3633 4.29349 17.2111 5.30522 17.8046C6.31694 18.3982 7.46628 18.7169 8.63921 18.7291C9.81213 18.7414 10.9679 18.4468 11.9918 17.8745C12.8892 18.3747 13.8892 18.6627 14.9152 18.7163C15.9412 18.7699 16.9659 18.5878 17.9106 18.1839C18.8552 17.7799 19.6948 17.165 20.3648 16.3861C21.0348 15.6073 21.5175 14.6853 21.7758 13.6909C22.0341 12.6965 22.0612 11.6561 21.8549 10.6496C21.6486 9.64315 21.2145 8.69731 20.5858 7.8847C19.9572 7.07209 19.1507 6.4143 18.2283 5.96183C17.3059 5.50935 16.2921 5.27422 15.2647 5.27446V5.27441ZM10.2372 16.457C9.7497 16.6314 9.23657 16.7235 8.71883 16.7295C7.46501 16.7295 6.26254 16.2314 5.37596 15.3449C4.48937 14.4583 3.99129 13.2558 3.99129 12.002C3.99129 10.7482 4.48937 9.54569 5.37596 8.65911C6.26254 7.77252 7.46501 7.27444 8.71883 7.27444C9.23657 7.28043 9.7497 7.37253 10.2372 7.54697C9.14237 8.77264 8.5372 10.3585 8.5372 12.002C8.5372 13.6454 9.14237 15.2313 10.2372 16.457V16.457ZM11.9918 15.3996C11.5321 14.9611 11.1662 14.4339 10.9161 13.8499C10.6661 13.2659 10.5372 12.6372 10.5372 12.002C10.5372 11.3667 10.6661 10.738 10.9161 10.154C11.1662 9.56999 11.5321 9.04279 11.9918 8.60431C12.4515 9.04279 12.8174 9.56999 13.0674 10.154C13.3175 10.738 13.4464 11.3667 13.4464 12.002C13.4464 12.6372 13.3175 13.2659 13.0674 13.8499C12.8174 14.4339 12.4515 14.9611 11.9918 15.3996ZM15.2647 16.7295C14.747 16.7235 14.2339 16.6314 13.7464 16.457C14.8412 15.2313 15.4464 13.6454 15.4464 12.002C15.4464 10.3585 14.8412 8.77264 13.7464 7.54697C14.2339 7.37253 14.747 7.28043 15.2647 7.27444C16.5186 7.27444 17.721 7.77252 18.6076 8.65911C19.4942 9.54569 19.9923 10.7482 19.9923 12.002C19.9923 13.2558 19.4942 14.4583 18.6076 15.3449C17.721 16.2314 16.5186 16.7295 15.2647 16.7295V16.7295Z" fill="black"/>
</svg>
