<svg width="24" height="24" viewBox="0 0 24 24" fill="none" xmlns="http://www.w3.org/2000/svg">
<path d="M21.209 6.41688H22V4.0835H14.5198L12.0339 13.2501H11.9659L9.50269 4.0835H2V6.41682H2.76837C2.946 6.44573 3.1108 6.52747 3.2413 6.65139C3.3718 6.77532 3.46195 6.93568 3.5 7.11158V16.9419C3.4596 17.1115 3.36749 17.2643 3.23642 17.3793C3.10534 17.4942 2.94178 17.5656 2.76837 17.5835H2V19.9169H8V17.5835H6.5V7.25019H6.58752L10.0451 19.9169H12.7571L16.2599 7.25019H16.3334V17.5835H14.8334V19.9169H22V17.5835H21.209C21.0396 17.5614 20.8809 17.4882 20.7542 17.3735C20.6275 17.2589 20.5388 17.1083 20.5 16.9419V7.11164C20.5367 6.93893 20.6236 6.7809 20.7497 6.65732C20.8759 6.53374 21.0356 6.4501 21.209 6.41688Z" fill="black"/>
</svg>
