<svg width="24" height="24" viewBox="0 0 24 24" fill="none" xmlns="http://www.w3.org/2000/svg">
<path d="M11.9707 5C8.32711 5 8.32711 10.1221 8.32711 11.8574C8.32711 13.8105 8.32711 19 11.9873 19C15.6416 19 15.6416 13.8379 15.6416 11.8945C15.6416 7.31933 14.4062 5 11.9707 5ZM11.9873 17C10.8857 17 10.3271 15.2695 10.3271 11.8047C10.3271 9.61328 10.6123 7 11.9707 7C13.4248 7 13.6416 10.0664 13.6416 11.8945C13.6416 15.2822 13.085 17 11.9873 17ZM11.9883 1C5.93648 1 1.70996 5.48144 1.70996 11.8984C1.70996 17.3554 5.55664 23 11.9951 23C18.4287 23 22.2734 17.3555 22.2734 11.8984C22.2734 5.48144 18.044 1 11.9882 1H11.9883ZM11.9951 21C6.80857 21 3.70994 16.3721 3.70994 11.8984C3.70994 6.57617 7.03709 3 11.9883 3C16.9443 3 20.2734 6.57617 20.2734 11.8984C20.2734 16.3721 17.1767 21 11.9951 21H11.9951Z" fill="black"/>
</svg>
