<svg width="24" height="24" viewBox="0 0 24 24" fill="none" xmlns="http://www.w3.org/2000/svg">
<path d="M15.1392 11.8125C14.7388 11.5554 14.3042 11.3559 13.8482 11.2198C13.5684 11.1352 13.2587 11.0524 12.9378 10.9726C12.6587 10.8948 12.3265 10.815 11.9156 10.7246C11.4263 10.6221 10.9461 10.4804 10.4796 10.3008C10.2392 10.2073 10.0271 10.0532 9.86388 9.85356C9.74473 9.69027 9.68824 9.4896 9.7047 9.28813C9.70415 9.07202 9.77601 8.86195 9.9088 8.69145C10.0951 8.47294 10.3368 8.30866 10.6085 8.21586C11.0662 8.05865 11.5486 7.98553 12.0323 8.00005C12.406 7.99406 12.7785 8.04342 13.1377 8.14653C13.3763 8.21331 13.601 8.32211 13.8013 8.46782C13.9308 8.56008 14.0412 8.67647 14.1265 8.8106C14.1885 8.92664 14.2727 9.02931 14.3744 9.11273C14.4762 9.19614 14.5933 9.25866 14.7193 9.29671C14.8452 9.33475 14.9774 9.34757 15.1083 9.33442C15.2392 9.32128 15.3662 9.28243 15.482 9.22011C15.5979 9.15778 15.7003 9.07321 15.7834 8.97123C15.8665 8.86925 15.9286 8.75188 15.9663 8.62583C16.0039 8.49979 16.0163 8.36755 16.0027 8.23671C15.9892 8.10586 15.9499 7.97898 15.8873 7.86333C15.6763 7.4903 15.3913 7.1643 15.0498 6.90533C14.6556 6.60244 14.2084 6.37559 13.731 6.23638C13.1797 6.07338 12.6071 5.99372 12.0323 6.00005C11.3018 5.98453 10.5748 6.10336 9.88728 6.35064C9.26525 6.57642 8.71866 6.97147 8.30913 7.49126C7.91721 8.00834 7.70495 8.63931 7.70464 9.28814C7.68844 9.93408 7.89307 10.5662 8.28472 11.0801C8.66279 11.5564 9.1584 11.9259 9.72272 12.1524C10.1491 12.3164 10.5857 12.4527 11.0298 12.5603C11.0381 12.563 11.0438 12.5698 11.0523 12.5723C11.2437 12.6299 11.5499 12.7071 11.9922 12.8028C12.1646 12.8398 12.327 12.8806 12.4894 12.9212C12.5051 12.9259 12.5279 12.9309 12.543 12.9356L12.5611 12.9383C12.8094 13.0016 13.0482 13.067 13.2667 13.1338C13.5359 13.2124 13.793 13.3281 14.0303 13.4776C14.178 13.5706 14.302 13.6966 14.3926 13.8457C14.4808 14.0276 14.5216 14.2289 14.5113 14.4307C14.5253 14.6921 14.4498 14.9504 14.2974 15.1632C14.0914 15.4311 13.8128 15.6341 13.4947 15.7482C13.0211 15.9309 12.5157 16.0165 12.0083 16C11.4212 16.0228 10.8371 15.9049 10.3047 15.6563C10.0591 15.5254 9.84801 15.3379 9.68901 15.1094C9.57752 14.9631 9.50782 14.7893 9.48735 14.6065C9.48735 14.3413 9.38199 14.0869 9.19446 13.8994C9.00692 13.7119 8.75256 13.6065 8.48735 13.6065C8.22213 13.6065 7.96778 13.7119 7.78024 13.8994C7.59271 14.0869 7.48735 14.3413 7.48735 14.6065C7.50412 15.1962 7.6979 15.7671 8.04351 16.2452C8.38895 16.743 8.84919 17.1503 9.3853 17.4327C10.201 17.8308 11.101 18.0255 12.0083 18C12.7793 18.0186 13.546 17.8807 14.2623 17.5948C14.928 17.3394 15.5061 16.8977 15.9273 16.3223C16.3275 15.7613 16.5325 15.0844 16.5107 14.3956C16.5201 13.8616 16.3909 13.3344 16.1357 12.8653C15.8895 12.442 15.5484 12.0816 15.1392 11.8125ZM22.3614 13.6915C22.6313 12.0478 22.506 10.3634 21.9958 8.77774C21.4855 7.19209 20.6051 5.75071 19.4272 4.57287C18.2494 3.39502 16.808 2.51457 15.2224 2.00434C13.6367 1.49411 11.9523 1.36878 10.3086 1.63872C9.09526 1.05698 7.73123 0.866226 6.40482 1.09278C5.0784 1.31933 3.85502 1.95202 2.90352 2.90352C1.95202 3.85502 1.31933 5.0784 1.09278 6.40482C0.866226 7.73123 1.05698 9.09526 1.63872 10.3086C1.36878 11.9523 1.49411 13.6367 2.00434 15.2224C2.51457 16.808 3.39502 18.2494 4.57287 19.4272C5.75071 20.6051 7.19209 21.4855 8.77774 21.9958C10.3634 22.506 12.0478 22.6313 13.6915 22.3614C14.9048 22.9431 16.2689 23.1339 17.5953 22.9073C18.9217 22.6808 20.1451 22.0481 21.0966 21.0966C22.0481 20.1451 22.6808 18.9217 22.9073 17.5953C23.1339 16.2689 22.9431 14.9048 22.3614 13.6915ZM16.5 21C15.7415 20.9998 14.9953 20.808 14.3306 20.4424C14.1244 20.3286 13.8846 20.2909 13.6534 20.336C12.4209 20.5818 11.1493 20.5511 9.93015 20.2459C8.71104 19.9408 7.57484 19.3688 6.60354 18.5714C5.63223 17.7739 4.85002 16.7708 4.31334 15.6345C3.77666 14.4981 3.49888 13.2568 3.50005 12C3.50108 11.4446 3.55602 10.8906 3.66411 10.3457C3.70926 10.1147 3.67176 9.8752 3.55816 9.66905C3.08814 8.81512 2.90813 7.83166 3.04522 6.86661C3.18231 5.90156 3.62908 5.00713 4.31832 4.31788C5.00756 3.62864 5.90199 3.18185 6.86703 3.04475C7.83208 2.90766 8.81555 3.08765 9.66948 3.55767C9.87562 3.67187 10.1155 3.70957 10.3467 3.66411C11.5792 3.41827 12.8508 3.44904 14.0699 3.75419C15.2891 4.05934 16.4253 4.63127 17.3966 5.42872C18.3679 6.22617 19.1501 7.22926 19.6868 8.36563C20.2234 9.502 20.5012 10.7433 20.5 12C20.499 12.5555 20.4441 13.1095 20.336 13.6543C20.2908 13.8854 20.3284 14.1249 20.442 14.3311C20.8193 15.0162 21.0115 15.7878 20.9996 16.5698C20.9877 17.3518 20.7721 18.1172 20.3741 18.7905C19.9762 19.4638 19.4096 20.0217 18.7302 20.4091C18.0508 20.7966 17.2822 21.0003 16.5 21Z" fill="black"/>
</svg>
