<svg width="24" height="24" viewBox="0 0 24 24" fill="none" xmlns="http://www.w3.org/2000/svg">
<path d="M21.9512 15.6139C21.3339 15.4702 20.7518 15.2038 20.2396 14.8305C19.7274 14.4572 19.2956 13.9847 18.9698 13.441C18.8211 13.2214 18.5913 13.0698 18.3309 13.0196C18.0704 12.9694 17.8007 13.0248 17.5811 13.1734C17.3615 13.3221 17.2099 13.5519 17.1597 13.8124C17.1095 14.0728 17.1649 14.3425 17.3135 14.5621C17.933 15.5072 18.7533 16.3041 19.7159 16.8961C19.5811 16.9215 19.4346 16.9459 19.2745 16.9713C18.99 17.0318 18.7322 17.1815 18.5387 17.3986C18.3452 17.6156 18.2259 17.8888 18.1983 18.1783C17.5316 18.0646 16.8507 18.0633 16.1836 18.1744C15.4643 18.3332 14.7932 18.6609 14.2256 19.1305C13.6418 19.6482 12.901 19.9549 12.1221 20.0016H11.8614C11.0815 19.9548 10.34 19.6473 9.7559 19.1286C9.19642 18.6651 8.53569 18.34 7.82719 18.1793C7.15137 18.0714 6.46259 18.0727 5.78719 18.1832C5.76082 17.8951 5.64376 17.6227 5.45285 17.4053C5.26194 17.1879 5.007 17.0366 4.72469 16.9732C4.56746 16.9488 4.42293 16.9244 4.29012 16.899C4.96985 16.5058 5.57698 15.9988 6.08504 15.4C6.3195 15.1281 6.53177 14.8377 6.71981 14.5318C6.86014 14.307 6.90547 14.0357 6.84586 13.7775C6.78625 13.5193 6.62657 13.2953 6.4019 13.1547C6.17723 13.0142 5.90596 12.9686 5.64768 13.028C5.38941 13.0873 5.16526 13.2468 5.02449 13.4713C4.89127 13.688 4.74141 13.894 4.57625 14.0875C3.93716 14.8877 3.03072 15.4304 2.02352 15.6158C1.73119 15.6621 1.46554 15.8128 1.27575 16.0399C1.08596 16.2671 0.98489 16.5553 0.99125 16.8512C0.990914 17.0351 1.03022 17.217 1.10649 17.3844C1.42192 18.1002 2.26176 18.5524 3.89066 18.859L3.92192 18.9889C3.95024 19.107 3.97953 19.2272 4.01371 19.3365C4.09037 19.6144 4.25797 19.8585 4.4897 20.0298C4.72143 20.2012 5.00393 20.2899 5.29203 20.2818C5.49559 20.2766 5.69784 20.2475 5.89457 20.1949C6.41768 20.0889 6.95509 20.0734 7.48344 20.149C7.89778 20.2717 8.28082 20.4822 8.60649 20.7662C9.52581 21.5252 10.67 21.9595 11.8614 22.0016H12.1221C13.3209 21.9576 14.4717 21.5189 15.3955 20.7536C15.7228 20.4688 16.1095 20.2606 16.5274 20.1442C16.7334 20.108 16.9422 20.0903 17.1514 20.0915C17.4727 20.0909 17.7931 20.1266 18.1065 20.1979C18.3095 20.2358 18.5152 20.2571 18.7217 20.2614C19.0025 20.269 19.2778 20.1822 19.5035 20.0149C19.7292 19.8476 19.8924 19.6095 19.9668 19.3386C20.0049 19.2165 20.0342 19.0993 20.0615 18.9841L20.0928 18.8601C21.7168 18.5544 22.5596 18.1052 22.8604 17.4197C22.9365 17.2707 22.9798 17.1072 22.9874 16.9402C23.0121 16.6295 22.9194 16.3209 22.7275 16.0753C22.5357 15.8297 22.2586 15.665 21.9512 15.6139ZM3.8018 11.1481C4.00641 11.1868 4.218 11.161 4.4073 11.0742C4.5966 10.9874 4.75425 10.844 4.85844 10.6637C5.25453 10.8653 5.68891 10.9804 6.13285 11.0016C6.60387 11.0078 7.05845 10.8286 7.39848 10.5026C7.50605 10.4022 7.59017 10.2794 7.64486 10.1429C7.69955 10.0063 7.72346 9.8594 7.71488 9.71256L7.67875 9.111C7.51495 7.92412 7.5679 6.71737 7.83504 5.54941C8.17251 4.78227 8.72878 4.13172 9.43421 3.67921C10.1396 3.2267 10.9629 2.99234 11.8009 3.00547L12.1886 3.00156C13.0258 2.99038 13.8478 3.22594 14.552 3.67886C15.2562 4.13178 15.8115 4.78201 16.1486 5.54844C16.4157 6.71737 16.4686 7.92506 16.3048 9.11289L16.295 9.27598L16.2677 9.71934C16.2622 9.86375 16.2871 10.0077 16.341 10.1418C16.3948 10.2759 16.4763 10.3972 16.5802 10.4977C16.9167 10.8222 17.3666 11.0026 17.8341 11.0006C18.268 10.9627 18.69 10.8385 19.0753 10.6354C19.1534 10.8133 19.2816 10.9646 19.4443 11.0709C19.6069 11.1772 19.797 11.2339 19.9913 11.234H20.0089C20.2741 11.2293 20.5266 11.1195 20.7108 10.9286C20.8951 10.7378 20.996 10.4816 20.9913 10.2164C20.9654 9.88246 20.8379 9.56444 20.626 9.30504C20.414 9.04564 20.1278 8.85727 19.8058 8.76523C19.5712 8.66918 19.3199 8.62066 19.0664 8.62251C18.8129 8.62435 18.5624 8.67652 18.3292 8.77598C18.5044 7.41886 18.3835 6.03989 17.9747 4.73398C17.4826 3.61092 16.6703 2.65786 15.6395 1.99399C14.6086 1.33013 13.4049 0.984924 12.1788 1.00155L11.7862 1.00546C10.5633 0.990515 9.36307 1.3363 8.33553 1.99961C7.308 2.66291 6.49872 3.61433 6.00883 4.73496C5.597 6.0584 5.47706 7.45541 5.65727 8.82969C5.62309 8.81406 5.58598 8.79649 5.54594 8.77793C5.30158 8.67905 5.03939 8.63186 4.77589 8.63933C4.51239 8.64681 4.2533 8.70878 4.01494 8.82136C3.77658 8.93393 3.56412 9.09466 3.39096 9.29341C3.2178 9.49217 3.08769 9.72464 3.00883 9.97617C2.95886 10.2367 3.01429 10.5064 3.16295 10.7261C3.31162 10.9458 3.54137 11.0976 3.8018 11.1481Z" fill="black"/>
</svg>
