<svg width="24" height="24" viewBox="0 0 24 24" fill="none" xmlns="http://www.w3.org/2000/svg">
<path d="M15.4 11.1596L10.5 7.99956C10.348 7.91179 10.1755 7.86559 10 7.86559C9.82446 7.86559 9.65202 7.91179 9.5 7.99956C9.35174 8.08508 9.22791 8.20723 9.14036 8.3543C9.05282 8.50138 9.00449 8.66846 9 8.83956V15.1596C9.0013 15.3378 9.05019 15.5124 9.14161 15.6653C9.23303 15.8183 9.36367 15.944 9.52 16.0296C9.66543 16.1152 9.83123 16.1601 10 16.1596C10.1771 16.1474 10.3487 16.0925 10.5 15.9996L15.4 12.8396C15.5403 12.7489 15.6557 12.6245 15.7356 12.4778C15.8155 12.3311 15.8574 12.1666 15.8574 11.9996C15.8574 11.8325 15.8155 11.6681 15.7356 11.5213C15.6557 11.3746 15.5403 11.2502 15.4 11.1596ZM11 13.3196V10.6796L13 11.9996L11 13.3196ZM19.38 4.50956L17.83 4.30956C13.991 3.83952 10.109 3.83952 6.27 4.30956L4.72 4.50956C3.97471 4.59067 3.2854 4.94343 2.78368 5.50049C2.28195 6.05755 2.00297 6.77988 2 7.52956V16.4696C2.00636 17.2081 2.28051 17.9193 2.77155 18.471C3.26259 19.0228 3.93715 19.3776 4.67 19.4696L6.22 19.6596C8.13776 19.8926 10.0681 20.0061 12 19.9996C13.9323 19.9995 15.8627 19.8793 17.78 19.6396L19.33 19.4496C20.0628 19.3576 20.7374 19.0028 21.2285 18.451C21.7195 17.8993 21.9936 17.1881 22 16.4496V7.52956C21.9985 6.78754 21.7265 6.07152 21.235 5.5156C20.7435 4.95969 20.0662 4.60201 19.33 4.50956H19.38ZM20.05 16.5096C20.0508 16.7615 19.9565 17.0044 19.7859 17.1898C19.6154 17.3752 19.3811 17.4894 19.13 17.5096L17.58 17.6996C13.9077 18.1596 10.1923 18.1596 6.52 17.6996L4.97 17.5096C4.71889 17.4894 4.48463 17.3752 4.31406 17.1898C4.1435 17.0044 4.04919 16.7615 4.05 16.5096V7.52956C4.06192 7.28151 4.16055 7.04552 4.32869 6.86276C4.49683 6.68 4.7238 6.56207 4.97 6.52956L6.47 6.29956C10.1427 5.84621 13.8573 5.84621 17.53 6.29956L19.08 6.48956C19.3262 6.52207 19.5532 6.64 19.7213 6.82276C19.8894 7.00552 19.9881 7.24151 20 7.48956L20.05 16.5096Z" fill="black"/>
</svg>
