<svg width="24" height="24" viewBox="0 0 24 24" fill="none" xmlns="http://www.w3.org/2000/svg">
<path d="M17.4336 20.5078L16.4717 17.6543C16.4264 17.5203 16.3532 17.3974 16.257 17.2937C16.1607 17.19 16.0436 17.1079 15.9133 17.0528C15.783 16.9977 15.6425 16.9709 15.501 16.9741C15.3596 16.9773 15.2205 17.0104 15.0928 17.0713C14.7062 17.2203 14.2977 17.3044 13.8838 17.3203C13.6511 17.3498 13.4159 17.2909 13.2246 17.1553C13.0499 16.9238 12.9649 16.637 12.9853 16.3477V12H16.002C16.1333 12.0001 16.2634 11.9743 16.3848 11.924C16.5061 11.8738 16.6164 11.8002 16.7093 11.7073C16.8022 11.6144 16.8758 11.5041 16.926 11.3828C16.9763 11.2614 17.0021 11.1313 17.002 11V7.09473C17.0021 6.96339 16.9763 6.83332 16.926 6.71196C16.8758 6.5906 16.8022 6.48033 16.7093 6.38745C16.6164 6.29458 16.5061 6.22092 16.3848 6.1707C16.2634 6.12047 16.1333 6.09465 16.002 6.09473H13V2C13.0001 1.86866 12.9743 1.73859 12.924 1.61723C12.8738 1.49587 12.8002 1.3856 12.7073 1.29272C12.6144 1.19985 12.5041 1.12619 12.3828 1.07597C12.2614 1.02574 12.1313 0.999924 12 1H9.07031C8.78544 1.00131 8.51124 1.10848 8.30098 1.30068C8.09072 1.49289 7.95943 1.75639 7.93262 2.04C7.8927 3.03756 7.56049 4.0014 6.97729 4.8117C6.39409 5.62201 5.58561 6.24306 4.65234 6.59765C4.45873 6.66727 4.29133 6.79495 4.173 6.96327C4.05467 7.13159 3.99118 7.33233 3.99121 7.53808V11.1221C3.99114 11.2534 4.01695 11.3835 4.06718 11.5049C4.11741 11.6262 4.19106 11.7365 4.28394 11.8294C4.37681 11.9222 4.48708 11.9959 4.60844 12.0461C4.7298 12.0963 4.85987 12.1222 4.99121 12.1221H6.01562V16.6572C6.03244 18.3398 6.71008 19.9484 7.90234 21.1357C8.56745 21.7594 9.34948 22.2451 10.2033 22.5649C11.0571 22.8847 11.9659 23.0323 12.877 22.999C12.9307 22.999 12.9854 22.999 13.0401 22.998C14.586 22.9726 16.6583 22.3505 17.3126 21.3906C17.3997 21.2629 17.456 21.1166 17.477 20.9635C17.498 20.8103 17.4832 20.6543 17.4336 20.5078ZM13.0068 20.998C12.3342 21.0515 11.6578 20.9647 11.0204 20.7429C10.3831 20.5212 9.79887 20.1694 9.30469 19.71C8.49087 18.9011 8.02784 17.8046 8.01562 16.6572V11.1221C8.0157 10.9907 7.98988 10.8607 7.93966 10.7393C7.88943 10.6179 7.81577 10.5077 7.7229 10.4148C7.63002 10.3219 7.51975 10.2483 7.39839 10.198C7.27703 10.1478 7.14696 10.122 7.01562 10.1221H5.99121V8.20507C7.00101 7.71074 7.87591 6.97896 8.54093 6.07242C9.20595 5.16589 9.64126 4.11163 9.80957 3H11V7.09473C10.9999 7.22607 11.0257 7.35614 11.076 7.4775C11.1262 7.59886 11.1999 7.70913 11.2927 7.802C11.3856 7.89488 11.4959 7.96853 11.6172 8.01876C11.7386 8.06899 11.8687 8.09481 12 8.09473H15.002V10H11.9854C11.8541 9.99992 11.724 10.0257 11.6026 10.076C11.4813 10.1262 11.371 10.1999 11.2781 10.2927C11.1853 10.3856 11.1116 10.4959 11.0614 10.6172C11.0111 10.7386 10.9853 10.8687 10.9854 11V16.3643C10.9716 16.7752 11.0402 17.1847 11.1873 17.5686C11.3344 17.9526 11.557 18.3031 11.8419 18.5996C12.1227 18.8577 12.4538 19.0549 12.8144 19.1789C13.175 19.3029 13.5574 19.3511 13.9376 19.3203C14.2558 19.3081 14.5726 19.2703 14.8848 19.207L15.3096 20.4658C14.5857 20.7965 13.8024 20.9775 13.0068 20.998Z" fill="black"/>
</svg>
