<svg width="23" height="21" viewBox="0 0 23 21" fill="none" xmlns="http://www.w3.org/2000/svg">
<path d="M0.04 16.5198C0.106667 16.4132 0.213333 16.4065 0.36 16.4998C3.66103 18.4246 7.41891 19.4262 11.24 19.3998C13.8878 19.3934 16.5118 18.8984 18.98 17.9398C19.0467 17.9132 19.1433 17.8732 19.27 17.8198C19.3967 17.7665 19.4867 17.7265 19.54 17.6998C19.619 17.6567 19.7114 17.6452 19.7986 17.6674C19.8858 17.6897 19.9613 17.7441 20.01 17.8198C20.1233 17.9798 20.0867 18.1265 19.9 18.2598C19.66 18.4332 19.3533 18.6332 18.98 18.8598C17.7795 19.5621 16.4871 20.0939 15.14 20.4398C13.79 20.8047 12.3984 20.9929 11 20.9998C8.98223 21.0114 6.98045 20.6416 5.1 19.9098C3.26791 19.1963 1.58056 18.1561 0.12 16.8398C0.0864675 16.8174 0.058315 16.7879 0.0375663 16.7533C0.0168176 16.7187 0.00398808 16.68 0 16.6398C0.000998877 16.5967 0.0149355 16.5549 0.04 16.5198ZM6.06 10.8198C6.03602 9.98163 6.27369 9.15677 6.74 8.45983C7.20442 7.79756 7.85033 7.28361 8.6 6.97983C9.45242 6.63956 10.3474 6.4175 11.26 6.31983C11.62 6.27983 12.2067 6.2265 13.02 6.15983V5.81983C13.0705 5.23216 12.9743 4.64114 12.74 4.09983C12.5887 3.89635 12.3882 3.73457 12.1574 3.62964C11.9265 3.5247 11.6728 3.48004 11.42 3.49983H11.26C10.848 3.52944 10.4527 3.67505 10.12 3.91983C9.79671 4.16496 9.5758 4.52127 9.5 4.91983C9.4921 5.02947 9.44883 5.13359 9.37671 5.21653C9.30458 5.29948 9.20748 5.35679 9.1 5.37983L6.8 5.09983C6.57333 5.0465 6.46 4.9265 6.46 4.73983C6.461 4.69253 6.46772 4.64553 6.48 4.59983C6.55744 4.06721 6.74616 3.55687 7.03389 3.10201C7.32162 2.64716 7.70191 2.25799 8.15 1.95983C9.08405 1.37157 10.1569 1.04041 11.26 0.999834H11.76C13.0541 0.922055 14.3286 1.3445 15.32 2.17983C15.4538 2.31377 15.5775 2.45751 15.69 2.60983C15.7886 2.74066 15.8788 2.8776 15.96 3.01983C16.0426 3.18452 16.1031 3.35935 16.14 3.53983C16.1933 3.7665 16.2333 3.92317 16.26 4.00983C16.2984 4.19407 16.3185 4.38165 16.32 4.56983C16.3333 4.8565 16.34 5.0265 16.34 5.07983V9.91983C16.3362 10.2427 16.3869 10.5639 16.49 10.8698C16.5575 11.0889 16.6551 11.2976 16.78 11.4898C16.8733 11.6165 17.0267 11.8198 17.24 12.0998C17.3102 12.1926 17.3519 12.3038 17.36 12.4198C17.3581 12.476 17.3425 12.5308 17.3146 12.5796C17.2867 12.6284 17.2474 12.6697 17.2 12.6998C16.0933 13.6598 15.4933 14.1798 15.4 14.2598C15.3164 14.3193 15.218 14.3545 15.1156 14.3615C15.0133 14.3686 14.911 14.3472 14.82 14.2998C14.6333 14.1398 14.47 13.9865 14.33 13.8398C14.19 13.6932 14.09 13.5865 14.03 13.5198C13.9263 13.3952 13.8295 13.265 13.74 13.1298C13.6067 12.9365 13.5133 12.8065 13.46 12.7398C12.8814 13.4402 12.1198 13.9664 11.26 14.2598C10.7122 14.405 10.1466 14.4723 9.58 14.4598C9.1164 14.4768 8.65405 14.4016 8.21974 14.2385C7.78544 14.0754 7.38784 13.8278 7.05 13.5098C6.70721 13.1548 6.44214 12.7322 6.27169 12.2691C6.10124 11.806 6.02915 11.3124 6.06 10.8198ZM9.5 10.4198C9.47735 10.8696 9.6156 11.3127 9.89 11.6698C10.0169 11.8239 10.1777 11.9464 10.3599 12.028C10.542 12.1095 10.7406 12.1478 10.94 12.1398C10.9971 12.1379 11.054 12.1312 11.11 12.1198C11.1594 12.1095 11.2096 12.1028 11.26 12.0998C11.5415 12.0236 11.8033 11.8877 12.0276 11.7014C12.2519 11.515 12.4335 11.2826 12.56 11.0198C12.7091 10.7604 12.8202 10.4809 12.89 10.1898C12.9536 9.95098 12.9938 9.70649 13.01 9.45983C13.0167 9.27317 13.02 8.9665 13.02 8.53983V8.03983C12.429 8.02157 11.838 8.07529 11.26 8.19983C10.7468 8.29256 10.2851 8.56912 9.96112 8.97775C9.63717 9.38638 9.47323 9.89906 9.5 10.4198ZM17.9 16.8598C17.9312 16.8004 17.9717 16.7464 18.02 16.6998C18.3115 16.493 18.6361 16.3374 18.98 16.2398C19.4633 16.11 19.9599 16.0361 20.46 16.0198C20.5869 16.0062 20.7152 16.0129 20.84 16.0398C21.44 16.0932 21.8 16.1932 21.92 16.3398C21.9806 16.4497 22.0084 16.5746 22 16.6998V16.8398C21.9775 17.4087 21.8486 17.9684 21.62 18.4898C21.3975 19.079 21.0334 19.6045 20.56 20.0198C20.5106 20.0659 20.4473 20.094 20.38 20.0998C20.3521 20.0995 20.3247 20.0927 20.3 20.0798C20.22 20.0398 20.2 19.9665 20.24 19.8598C20.6196 19.1 20.8697 18.2821 20.98 17.4398C20.9893 17.3273 20.9612 17.2148 20.9 17.1198C20.7667 16.9598 20.3933 16.8798 19.78 16.8798C19.5533 16.8798 19.2867 16.8932 18.98 16.9198C18.6467 16.9598 18.34 16.9998 18.06 17.0398C18.0036 17.0466 17.9466 17.0323 17.9 16.9998C17.888 16.9908 17.8794 16.978 17.8758 16.9634C17.8721 16.9488 17.8736 16.9334 17.88 16.9198C17.8824 16.8987 17.8892 16.8782 17.9 16.8598Z" fill="black"/>
</svg>
