<svg width="23" height="22" viewBox="0 0 23 22" fill="none" xmlns="http://www.w3.org/2000/svg">
<path d="M10.2471 1.40283C10.1557 1.26635 10.0322 1.1545 9.88729 1.07717C9.74242 0.999833 9.58072 0.959409 9.4165 0.959473H1.9917C1.86037 0.959439 1.73032 0.985281 1.60898 1.03552C1.48763 1.08577 1.37738 1.15942 1.28452 1.25229C1.19165 1.34516 1.11799 1.45541 1.06775 1.57675C1.01751 1.69809 0.991665 1.82814 0.991699 1.95947V20.0415C0.99173 20.2731 1.07216 20.4975 1.21925 20.6765C1.36635 20.8554 1.57099 20.9777 1.79824 21.0226C2.02549 21.0674 2.26126 21.032 2.46529 20.9223C2.66933 20.8127 2.82898 20.6356 2.91699 20.4214L10.3418 2.33936C10.4041 2.18747 10.428 2.02259 10.4115 1.85926C10.3949 1.69593 10.3385 1.53918 10.2471 1.40283ZM2.9917 14.9731V2.95947H7.9248L2.9917 14.9731ZM21.9917 0.959473H14.4741C14.3092 0.959538 14.1469 1.00037 14.0017 1.07833C13.8564 1.1563 13.7326 1.26897 13.6414 1.40633C13.5502 1.54369 13.4944 1.70146 13.4789 1.86561C13.4635 2.02976 13.4888 2.19519 13.5527 2.34717L21.0703 20.1968C21.1465 20.3782 21.2745 20.5331 21.4383 20.642C21.6021 20.7509 21.7945 20.809 21.9912 20.8091C22.0578 20.8089 22.1241 20.8023 22.1894 20.7896C22.4157 20.7437 22.6192 20.6211 22.7654 20.4424C22.9116 20.2637 22.9916 20.04 22.9917 19.8091V1.95947C22.9917 1.82814 22.9659 1.69809 22.9156 1.57675C22.8654 1.45541 22.7917 1.34516 22.6989 1.25229C22.606 1.15942 22.4958 1.08577 22.3744 1.03552C22.2531 0.985281 22.123 0.959439 21.9917 0.959473ZM20.9917 14.8579L15.9805 2.95947H20.9917V14.8579ZM12.9492 8.52005C12.878 8.33157 12.7515 8.16899 12.5863 8.05363C12.4211 7.93827 12.2249 7.87551 12.0234 7.87357H12.0137C11.8139 7.87355 11.6188 7.93336 11.4533 8.04528C11.2879 8.15719 11.1598 8.3161 11.0854 8.5015L8.02637 16.1323C7.96554 16.2841 7.94285 16.4484 7.96027 16.611C7.97769 16.7735 8.0347 16.9293 8.12631 17.0647C8.21791 17.2001 8.34132 17.311 8.48572 17.3877C8.63012 17.4643 8.79111 17.5044 8.95459 17.5044H11.209L12.7315 20.4946C12.815 20.6592 12.9425 20.7974 13.0998 20.894C13.2571 20.9905 13.438 21.0416 13.6226 21.0415H16.2354C16.3972 21.0415 16.5565 21.0022 16.6998 20.9271C16.8431 20.8519 16.966 20.7431 17.058 20.61C17.15 20.4769 17.2083 20.3235 17.228 20.1629C17.2477 20.0023 17.2281 19.8394 17.1709 19.688L12.9492 8.52005ZM14.2358 19.0415L12.7134 16.0513C12.6299 15.8867 12.5024 15.7485 12.3451 15.652C12.1878 15.5555 12.0068 15.5044 11.8223 15.5044H10.4326L11.9863 11.6294L14.7881 19.0415H14.2358Z" fill="black"/>
</svg>
