<svg width="20" height="22" viewBox="0 0 20 22" fill="none" xmlns="http://www.w3.org/2000/svg">
<path d="M18.5045 14.7436C17.8927 14.482 17.3715 14.0458 17.0061 13.4897C16.6406 12.9336 16.4472 12.2821 16.4498 11.6166C16.4577 11.0227 16.6168 10.4405 16.9121 9.92499C17.2073 9.40951 17.629 8.97773 18.1373 8.67036C18.2523 8.59928 18.3517 8.50562 18.4295 8.39504C18.5073 8.28446 18.5619 8.15925 18.5899 8.02699C18.6179 7.89472 18.6188 7.75814 18.5926 7.62552C18.5663 7.49289 18.5134 7.36697 18.4371 7.25536C17.9801 6.59082 17.3844 6.03337 16.691 5.62148C15.9977 5.20958 15.2232 4.95306 14.421 4.86963C15.1676 3.68476 15.5064 2.28832 15.3858 0.893046C15.3623 0.639689 15.2415 0.405299 15.0489 0.239061C14.8563 0.0728238 14.6067 -0.012338 14.3526 0.00144634C12.6356 0.154484 11.0439 0.96434 9.90928 2.26219C9.19006 3.09557 8.68254 4.09018 8.4298 5.1616C7.90761 4.98488 7.36091 4.89129 6.80968 4.88426C5.78916 4.91318 4.79343 5.20529 3.91903 5.73227C3.04463 6.25925 2.32123 7.00322 1.81896 7.89205C-0.0687449 11.1694 1.08604 16.0805 3.13095 19.0366C3.95126 20.2211 5.18223 21.9995 7.03916 21.9995C7.07578 21.9995 7.11288 21.9995 7.14999 21.9975C7.77217 21.9622 8.38128 21.8045 8.94248 21.5336C9.39073 21.3064 9.88527 21.1854 10.3878 21.1801C10.8604 21.1858 11.3251 21.3015 11.7452 21.518C12.3591 21.8084 13.0281 21.9639 13.7071 21.974C15.6202 21.9379 16.7501 20.2875 17.5753 19.0814C18.2264 18.1235 18.7359 17.0765 19.088 15.973C19.163 15.7323 19.1447 15.4721 19.0365 15.2443C18.9284 15.0165 18.7385 14.8377 18.5045 14.7436ZM11.4234 3.56787C11.9487 2.98036 12.6068 2.527 13.3429 2.24561C13.1818 3.03784 12.8255 3.77733 12.3063 4.39697C11.9538 4.81984 11.525 5.17267 11.0421 5.43705L11.0392 5.43805C11.0109 5.44977 10.9825 5.46051 10.9542 5.47223C10.7677 5.54547 10.5372 5.63629 10.3595 5.69488C10.5311 4.9082 10.8969 4.17699 11.4234 3.56787ZM15.9249 17.9526C15.1212 19.1265 14.4889 19.9595 13.6705 19.9741C13.2749 19.9729 12.8859 19.8725 12.5392 19.6821C11.8688 19.3555 11.1335 19.1839 10.3878 19.1801C9.61618 19.184 8.85504 19.3591 8.15928 19.6928C7.82102 19.8655 7.45198 19.9697 7.07335 19.9994H7.04356C6.23056 19.9994 5.35606 18.7368 4.7755 17.8979C3.32285 15.7983 1.98301 11.6147 3.55235 8.89008C3.88144 8.30048 4.35734 7.80597 4.93389 7.45453C5.51043 7.10309 6.16803 6.90665 6.84287 6.88428L6.87656 6.88328C7.44585 6.93166 8.00176 7.08217 8.51768 7.32762C8.64903 7.37937 8.77843 7.43113 8.90685 7.47898C8.93956 7.49266 8.97325 7.50535 9.00743 7.51609C9.36329 7.65922 9.74129 7.73951 10.1246 7.7534C10.6674 7.71026 11.1975 7.56759 11.6886 7.3325C12.3809 6.99652 13.1418 6.82634 13.9113 6.83543C14.7343 6.86763 15.5244 7.16728 16.1618 7.68895C15.617 8.19081 15.1833 8.80108 14.8885 9.48054C14.5937 10.16 14.4443 10.8936 14.4498 11.6343V11.6353C14.4442 12.5319 14.6661 13.4153 15.0948 14.2028C15.5235 14.9903 16.1449 15.6562 16.901 16.1382C16.6377 16.7744 16.3107 17.3823 15.9249 17.9526Z" fill="black"/>
</svg>
