<svg width="21" height="21" viewBox="0 0 21 21" fill="none" xmlns="http://www.w3.org/2000/svg">
<path d="M1.9917 8.00038C1.86037 8.00034 1.73032 8.02618 1.60897 8.07643C1.48763 8.12667 1.37738 8.20033 1.28451 8.29319C1.19165 8.38606 1.11799 8.49631 1.06775 8.61765C1.01751 8.73899 0.991664 8.86904 0.991699 9.00038V13.0004C0.991699 13.2656 1.09706 13.5199 1.28459 13.7075C1.47213 13.895 1.72648 14.0004 1.9917 14.0004C2.25692 14.0004 2.51127 13.895 2.69881 13.7075C2.88634 13.5199 2.9917 13.2656 2.9917 13.0004V9.00038C2.99173 8.86904 2.96589 8.73899 2.91565 8.61765C2.86541 8.49631 2.79175 8.38606 2.69889 8.29319C2.60602 8.20033 2.49577 8.12667 2.37442 8.07643C2.25308 8.02618 2.12303 8.00034 1.9917 8.00038ZM19.9917 8.00038C19.8604 8.00034 19.7303 8.02618 19.609 8.07643C19.4876 8.12667 19.3774 8.20033 19.2845 8.29319C19.1916 8.38606 19.118 8.49631 19.0677 8.61765C19.0175 8.73899 18.9917 8.86904 18.9917 9.00038V13.0004C18.9917 13.2656 19.0971 13.5199 19.2846 13.7075C19.4721 13.895 19.7265 14.0004 19.9917 14.0004C20.2569 14.0004 20.5113 13.895 20.6988 13.7075C20.8863 13.5199 20.9917 13.2656 20.9917 13.0004V9.00038C20.9917 8.86904 20.9659 8.73899 20.9157 8.61765C20.8654 8.49631 20.7917 8.38606 20.6989 8.29319C20.606 8.20033 20.4958 8.12667 20.3744 8.07643C20.2531 8.02618 20.123 8.00034 19.9917 8.00038ZM15.8574 2.50038C15.9235 2.38667 15.9666 2.26103 15.9841 2.13065C16.0015 2.00028 15.9931 1.86774 15.9593 1.74063C15.9255 1.61351 15.8669 1.49433 15.7869 1.3899C15.7069 1.28547 15.6071 1.19785 15.4932 1.13206C15.3793 1.06628 15.2535 1.02361 15.1231 1.00652C14.9927 0.989431 14.8602 0.998245 14.7331 1.03246C14.6061 1.06668 14.4871 1.12562 14.3829 1.20591C14.2787 1.28621 14.1914 1.38627 14.126 1.50038L13.5118 2.56276C12.7233 2.19239 11.8629 2.00038 10.9917 2.00038C10.1205 2.00038 9.26008 2.19239 8.47156 2.56276L7.85742 1.50038C7.79197 1.38627 7.70465 1.28621 7.60046 1.20591C7.49627 1.12562 7.37726 1.06668 7.25025 1.03246C7.12324 0.998245 6.99073 0.989431 6.8603 1.00652C6.72988 1.02361 6.60411 1.06628 6.4902 1.13206C6.37629 1.19785 6.27649 1.28547 6.19651 1.3899C6.11653 1.49433 6.05794 1.61351 6.0241 1.74063C5.99027 1.86774 5.98185 2.00028 5.99933 2.13065C6.01681 2.26103 6.05985 2.38667 6.12598 2.50038L6.81848 3.69832C6.24069 4.25598 5.78116 4.92431 5.4673 5.66345C5.15344 6.40258 4.99169 7.19737 4.9917 8.00038V16.0004C4.99167 16.1317 5.01751 16.2618 5.06775 16.3831C5.11799 16.5044 5.19165 16.6147 5.28452 16.7076C5.37738 16.8004 5.48763 16.8741 5.60898 16.9243C5.73032 16.9746 5.86037 17.0004 5.9917 17.0004H7.9917V20.0004C7.9917 20.2656 8.09706 20.5199 8.28459 20.7075C8.47213 20.895 8.72648 21.0004 8.9917 21.0004C9.25692 21.0004 9.51127 20.895 9.69881 20.7075C9.88634 20.5199 9.9917 20.2656 9.9917 20.0004V17.0004H11.9917V20.0004C11.9917 20.2656 12.0971 20.5199 12.2846 20.7075C12.4721 20.895 12.7265 21.0004 12.9917 21.0004C13.2569 21.0004 13.5113 20.895 13.6988 20.7075C13.8863 20.5199 13.9917 20.2656 13.9917 20.0004V17.0004H15.9917C16.123 17.0004 16.2531 16.9746 16.3744 16.9243C16.4958 16.8741 16.606 16.8004 16.6989 16.7076C16.7917 16.6147 16.8654 16.5044 16.9156 16.3831C16.9659 16.2618 16.9917 16.1317 16.9917 16.0004V8.00038C16.9917 7.19737 16.83 6.40258 16.5161 5.66345C16.2022 4.92431 15.7427 4.25598 15.1649 3.69832L15.8574 2.50038ZM14.9917 15.0004H6.9917V10.0004H14.9917V15.0004ZM6.9917 8.00038C6.9917 6.93951 7.41313 5.9221 8.16327 5.17195C8.91342 4.4218 9.93083 4.00038 10.9917 4.00038C12.0526 4.00038 13.07 4.4218 13.8201 5.17195C14.5703 5.9221 14.9917 6.93951 14.9917 8.00038H6.9917Z" fill="black"/>
</svg>
