<svg width="23" height="15" viewBox="0 0 23 15" fill="none" xmlns="http://www.w3.org/2000/svg">
<path d="M22.1084 10.0318C21.9811 9.99902 21.8486 9.99176 21.7185 10.0104C21.5884 10.029 21.4632 10.0732 21.3503 10.1403C21.2373 10.2075 21.1387 10.2963 21.0601 10.4017C20.9816 10.5071 20.9247 10.627 20.8926 10.7544C20.7095 11.4608 20.2751 12.0761 19.6709 12.4852C19.0666 12.8942 18.3339 13.0688 17.6101 12.9764C16.8863 12.8839 16.221 12.5306 15.739 11.9828C15.257 11.435 14.9913 10.7302 14.9917 10.0005V9.00051H21.9917C22.123 9.00055 22.2531 8.9747 22.3744 8.92446C22.4958 8.87422 22.606 8.80056 22.6989 8.70769C22.7917 8.61483 22.8654 8.50458 22.9156 8.38323C22.9659 8.26189 22.9917 8.13184 22.9917 8.00051C22.9917 7.3439 22.8624 6.69372 22.6111 6.08709C22.3598 5.48047 21.9915 4.92927 21.5272 4.46498C21.0629 4.00068 20.5117 3.63239 19.9051 3.38111C19.2985 3.12984 18.6483 3.00051 17.9917 3.00051C17.3351 3.00051 16.6849 3.12984 16.0783 3.38111C15.4717 3.63239 14.9205 4.00068 14.4562 4.46498C13.9919 4.92927 13.6236 5.48047 13.3723 6.08709C13.121 6.69372 12.9917 7.3439 12.9917 8.00051V10.0005C12.9913 11.2177 13.435 12.3932 14.2397 13.3064C15.0443 14.2197 16.1545 14.808 17.3621 14.9609C18.5696 15.1139 19.7914 14.8209 20.7983 14.1371C21.8052 13.4532 22.528 12.4254 22.8311 11.2466C22.8634 11.1194 22.8704 10.987 22.8516 10.8571C22.8328 10.7272 22.7886 10.6022 22.7215 10.4894C22.6544 10.3766 22.5657 10.2781 22.4605 10.1996C22.3553 10.121 22.2357 10.064 22.1084 10.0318ZM17.9917 5.00051C18.7851 5.00081 19.5463 5.3142 20.1099 5.87258C20.4228 6.19262 20.6614 6.57774 20.8085 7.00051H15.176C15.3814 6.41725 15.7624 5.91189 16.2665 5.55379C16.7707 5.19569 17.3733 5.00242 17.9917 5.00051ZM15.9917 2.00051H19.9917C20.2569 2.00051 20.5113 1.89515 20.6988 1.70762C20.8863 1.52008 20.9917 1.26573 20.9917 1.00051C20.9917 0.735295 20.8863 0.480941 20.6988 0.293404C20.5113 0.105868 20.2569 0.000511245 19.9917 0.000511245H15.9917C15.7265 0.000511245 15.4721 0.105868 15.2846 0.293404C15.0971 0.480941 14.9917 0.735295 14.9917 1.00051C14.9917 1.26573 15.0971 1.52008 15.2846 1.70762C15.4721 1.89515 15.7265 2.00051 15.9917 2.00051ZM9.9097 6.71767C10.4434 6.15001 10.799 5.4384 10.9327 4.6708C11.0663 3.9032 10.9721 3.11326 10.6617 2.39863C10.3512 1.684 9.83816 1.07601 9.18592 0.649804C8.53368 0.223599 7.77084 -0.00213279 6.9917 0.000511245H1.9917C1.86037 0.000475771 1.73032 0.026317 1.60897 0.0765591C1.48763 0.126801 1.37738 0.200459 1.28451 0.293325C1.19165 0.386191 1.11799 0.496444 1.06775 0.617786C1.01751 0.739127 0.991664 0.869179 0.991699 1.00051V14.0005C0.991665 14.1318 1.01751 14.2619 1.06775 14.3832C1.11799 14.5046 1.19165 14.6148 1.28452 14.7077C1.37738 14.8006 1.48763 14.8742 1.60898 14.9245C1.73032 14.9747 1.86037 15.0005 1.9917 15.0005H7.4917C8.46484 15.0023 9.41222 14.688 10.1913 14.1049C10.9704 13.5218 11.5391 12.7015 11.8118 11.7673C12.0845 10.8332 12.0465 9.83573 11.7035 8.92506C11.3604 8.01439 10.7309 7.23974 9.9097 6.71767ZM2.9917 2.00051H6.9917C7.52213 2.00051 8.03084 2.21122 8.40591 2.5863C8.78099 2.96137 8.9917 3.47008 8.9917 4.00051C8.9917 4.53094 8.78099 5.03965 8.40591 5.41472C8.03084 5.7898 7.52213 6.00051 6.9917 6.00051H2.9917V2.00051ZM7.4917 13.0005H2.9917V8.00051H7.4917C8.15474 8.00051 8.79063 8.2639 9.25947 8.73274C9.72831 9.20158 9.9917 9.83747 9.9917 10.5005C9.9917 11.1636 9.72831 11.7994 9.25947 12.2683C8.79063 12.7371 8.15474 13.0005 7.4917 13.0005Z" fill="black"/>
</svg>
