<svg width="16" height="21" viewBox="0 0 16 21" fill="none" xmlns="http://www.w3.org/2000/svg">
<path d="M3.00003 13.14C3.03159 13.2951 3.08906 13.4439 3.17003 13.58C3.48918 14.3595 3.9619 15.0669 4.56004 15.66C5.1616 16.255 5.87088 16.7301 6.65003 17.0599C7.45068 17.4101 8.31621 17.5873 9.19003 17.58C10.067 17.5863 10.9356 17.4092 11.74 17.0599C12.5161 16.7298 13.2221 16.2547 13.82 15.66C14.4231 15.0668 14.9023 14.3598 15.23 13.58C15.5556 12.7597 15.7121 11.8822 15.69 11C15.688 10.1216 15.5147 9.25205 15.18 8.43995C14.8521 7.66318 14.3728 6.9595 13.77 6.36995C13.1651 5.7576 12.4439 5.27231 11.6488 4.9426C10.8537 4.61288 10.0008 4.44539 9.14003 4.44995C8.25188 4.45862 7.37451 4.64565 6.56004 4.99995C6.13889 5.18708 5.73698 5.41482 5.36003 5.67995C4.94855 5.95302 4.5665 6.26804 4.22003 6.61995V1.22995H13.27C13.49 1.22995 13.61 1.01995 13.61 0.609951C13.61 0.199951 13.48 -4.89897e-05 13.26 -4.89897e-05H3.47003C3.41341 -0.0028105 3.35691 0.00747578 3.3049 0.0300161C3.25288 0.0525564 3.20674 0.0867479 3.17003 0.129951C3.13151 0.167702 3.10103 0.212854 3.0804 0.26269C3.05978 0.312527 3.04945 0.366019 3.05003 0.419951V7.99995C3.05348 8.05964 3.0706 8.11774 3.10008 8.16976C3.12956 8.22178 3.1706 8.26632 3.22003 8.29995C3.34277 8.38768 3.48238 8.44897 3.63003 8.47995C3.77012 8.52312 3.91995 8.52312 4.06003 8.47995C4.14491 8.45501 4.22574 8.41797 4.30003 8.36995C4.35282 8.31861 4.39977 8.2616 4.44003 8.19995C4.69411 7.83992 4.98209 7.50506 5.30003 7.19995C5.79135 6.69436 6.38124 6.29503 7.03317 6.02669C7.68509 5.75835 8.38517 5.62672 9.09003 5.63995C9.80189 5.6304 10.508 5.76854 11.1638 6.04565C11.8195 6.32276 12.4107 6.73282 12.9 7.24995C13.4034 7.73563 13.8029 8.31839 14.0745 8.96297C14.3461 9.60754 14.484 10.3005 14.48 11C14.474 11.6869 14.3348 12.3661 14.07 13C13.8118 13.6685 13.4221 14.2784 12.9239 14.7937C12.4258 15.309 11.8294 15.7192 11.17 16C10.5161 16.2667 9.81625 16.4026 9.11003 16.4C8.15759 16.4075 7.22214 16.1476 6.41003 15.65V11C6.41484 10.3356 6.66812 9.69701 7.12003 9.20995C7.36548 8.92131 7.67263 8.69149 8.01879 8.53744C8.36496 8.3834 8.7413 8.30907 9.12003 8.31995C9.4901 8.30455 9.85928 8.3669 10.2038 8.50297C10.5483 8.63904 10.8604 8.84581 11.12 9.10995C11.368 9.35669 11.5625 9.65182 11.6916 9.97696C11.8206 10.3021 11.8813 10.6503 11.87 11C11.8714 11.3627 11.8005 11.7221 11.6614 12.0571C11.5223 12.3921 11.3178 12.696 11.0599 12.9511C10.802 13.2062 10.4959 13.4074 10.1594 13.5428C9.82287 13.6782 9.46274 13.7453 9.10003 13.74H8.76003L8.39003 13.67H8.24003C8.03003 13.61 7.87003 13.77 7.75003 14.15C7.63003 14.53 7.68004 14.75 7.89004 14.83C8.2957 14.9506 8.71682 15.0112 9.14003 15.01C9.66103 15.0167 10.1779 14.9173 10.6593 14.7179C11.1407 14.5185 11.5764 14.2232 11.94 13.85C12.3209 13.4817 12.6208 13.038 12.8205 12.5473C13.0203 12.0565 13.1155 11.5295 13.1 11C13.1106 10.4814 13.0129 9.96632 12.8132 9.48764C12.6134 9.00897 12.316 8.57721 11.94 8.21995C11.577 7.84665 11.1411 7.55195 10.6595 7.35412C10.1778 7.15629 9.66064 7.05957 9.14003 7.06995C8.61657 7.06037 8.09662 7.15738 7.61183 7.35508C7.12703 7.55278 6.68752 7.84704 6.32003 8.21995C5.96353 8.55117 5.6785 8.95178 5.48246 9.39717C5.28641 9.84257 5.1835 10.3233 5.18004 10.81V14.61C4.70385 14.0651 4.33716 13.4336 4.10003 12.75C4.02004 12.54 3.80003 12.5 3.43003 12.62C3.06003 12.74 2.88003 12.91 2.95003 13.11L3.00003 13.14ZM9.25003 2.13995C8.10411 2.11635 6.96606 2.33441 5.91003 2.77995C5.85211 2.7842 5.79747 2.80848 5.7555 2.84862C5.71353 2.88877 5.68685 2.94227 5.68004 2.99995C5.68462 3.14745 5.71509 3.29299 5.77004 3.42995C5.91004 3.77995 6.07004 3.90995 6.27004 3.83995C7.2042 3.4767 8.19773 3.2902 9.20003 3.28995C10.2596 3.28121 11.309 3.49587 12.28 3.91995C13.1237 4.28756 13.9035 4.78715 14.59 5.39995C14.6131 5.42478 14.6409 5.44467 14.6718 5.45843C14.7028 5.47218 14.7362 5.4795 14.77 5.47995C14.86 5.47995 15.01 5.37995 15.2 5.18995L15.39 4.99995C15.4307 4.93758 15.4516 4.86439 15.45 4.78995C15.4437 4.71289 15.4079 4.64124 15.35 4.58995C14.5867 3.87205 13.6988 3.29935 12.73 2.89995C11.6168 2.41075 10.416 2.15221 9.20003 2.13995H9.25003ZM7.64004 12.05C7.64748 12.1162 7.66923 12.18 7.70376 12.2369C7.73829 12.2939 7.78479 12.3427 7.84003 12.38C7.92861 12.4835 8.05429 12.5481 8.19003 12.56C8.25235 12.5628 8.31332 12.5413 8.36003 12.5L9.09003 11.77L9.79003 12.45C9.81486 12.4825 9.84653 12.5093 9.88282 12.5283C9.9191 12.5473 9.95912 12.5581 10 12.56C10.139 12.5422 10.2669 12.4747 10.36 12.37C10.56 12.16 10.59 11.98 10.43 11.82L9.73003 11.12L10.47 10.38C10.59 10.26 10.55 10.09 10.34 9.88995C10.13 9.68995 9.94003 9.61995 9.81003 9.74995L9.08003 10.47L8.36003 9.72995C8.3154 9.70017 8.26361 9.68291 8.21003 9.67995C8.0762 9.70317 7.95536 9.77425 7.87003 9.87995C7.64003 10.1 7.59003 10.26 7.71003 10.38L8.45003 11.12L7.71003 11.84C7.64635 11.8935 7.60381 11.9679 7.59003 12.05H7.64004ZM15.57 16.62C15.4628 16.5149 15.3375 16.4302 15.2 16.37C15.1514 16.3551 15.0996 16.3538 15.0503 16.3661C15.001 16.3784 14.956 16.404 14.92 16.44L14.85 16.51C14.1285 17.2278 13.2766 17.8014 12.34 18.2C10.8887 18.8107 9.28856 18.9761 7.74299 18.6752C6.19742 18.3742 4.77622 17.6206 3.66003 16.51C2.90998 15.8028 2.31418 14.9483 1.91003 14C1.68207 13.4282 1.51123 12.8353 1.40003 12.23C1.40003 12.02 1.15003 11.94 0.770035 12C0.390035 12.06 0.210034 12.2 0.240034 12.4C0.348277 13.1262 0.549948 13.8354 0.840035 14.51C1.30771 15.5939 1.98776 16.5731 2.84003 17.3899C3.66257 18.2401 4.64463 18.9197 5.73003 19.3899C6.85101 19.8599 8.05454 20.1013 9.27003 20.1C10.4851 20.0973 11.6879 19.8561 12.81 19.3899C13.8954 18.9197 14.8775 18.2401 15.7 17.3899L15.76 17.33C15.85 17.11 15.78 16.89 15.52 16.62H15.57Z" fill="black"/>
</svg>
