<svg width="20" height="23" viewBox="0 0 20 23" fill="none" xmlns="http://www.w3.org/2000/svg">
<path d="M12.9754 2.01879L13.9352 0.287201C13.9475 0.264986 13.9553 0.240563 13.9582 0.215326C13.9611 0.190089 13.959 0.164532 13.952 0.140116C13.945 0.115699 13.9332 0.0929001 13.9174 0.0730209C13.9016 0.0531416 13.882 0.0365713 13.8598 0.0242559C13.815 -0.00061609 13.7621 -0.00664675 13.7127 0.00749068C13.6634 0.0216281 13.6218 0.0547755 13.5969 0.0996409L12.6264 1.85042C11.7984 1.48743 10.9041 1.30002 10.0001 1.30002C9.09597 1.30002 8.2017 1.48743 7.37368 1.85042L6.4032 0.0996409C6.37833 0.0547755 6.33665 0.0216281 6.28734 0.00749068C6.23803 -0.00664675 6.18512 -0.000616089 6.14025 0.0242559C6.09539 0.0491279 6.06224 0.0908039 6.04811 0.140116C6.03397 0.189427 6.04 0.242335 6.06487 0.287201L7.02472 2.0188C6.11105 2.46917 5.33906 3.16247 4.79343 4.02265C4.2478 4.88283 3.94961 5.87667 3.93156 6.89515H16.0686C16.0505 5.87667 15.7523 4.88283 15.2067 4.02265C14.6611 3.16246 13.8891 2.46916 12.9754 2.01879ZM7.19915 4.67439C7.09891 4.67439 7.00093 4.64467 6.91759 4.58898C6.83424 4.53329 6.76929 4.45414 6.73093 4.36153C6.69257 4.26893 6.68253 4.16703 6.70209 4.06872C6.72164 3.97041 6.76991 3.88011 6.84079 3.80923C6.91166 3.73835 7.00197 3.69008 7.10028 3.67053C7.19859 3.65097 7.30049 3.66101 7.39309 3.69937C7.4857 3.73773 7.56485 3.80269 7.62054 3.88603C7.67623 3.96937 7.70595 4.06736 7.70595 4.16759C7.7058 4.30196 7.65236 4.43078 7.55735 4.52579C7.46233 4.6208 7.33352 4.67424 7.19915 4.67439ZM12.8009 4.67439C12.7007 4.67439 12.6027 4.64467 12.5194 4.58898C12.436 4.53329 12.3711 4.45414 12.3327 4.36153C12.2943 4.26893 12.2843 4.16703 12.3039 4.06872C12.3234 3.97041 12.3717 3.88011 12.4426 3.80923C12.5134 3.73835 12.6037 3.69008 12.7021 3.67053C12.8004 3.65097 12.9023 3.66101 12.9949 3.69937C13.0875 3.73773 13.1666 3.80269 13.2223 3.88603C13.278 3.96937 13.3077 4.06736 13.3077 4.16759C13.3076 4.30196 13.2541 4.43078 13.1591 4.52579C13.0641 4.6208 12.9353 4.67424 12.8009 4.67439ZM3.93147 16.1714C3.93147 16.5605 4.08604 16.9337 4.36118 17.2088C4.63632 17.4839 5.00949 17.6385 5.3986 17.6385H6.3722V20.6395C6.37171 20.8184 6.40655 20.9957 6.4747 21.1612C6.54285 21.3267 6.64298 21.4771 6.76936 21.6038C6.89574 21.7306 7.04588 21.8311 7.21118 21.8997C7.37648 21.9683 7.55369 22.0036 7.73266 22.0036C7.91162 22.0036 8.08883 21.9683 8.25413 21.8997C8.41943 21.8311 8.56957 21.7306 8.69595 21.6038C8.82233 21.4771 8.92246 21.3267 8.99061 21.1612C9.05876 20.9957 9.0936 20.8184 9.09311 20.6395V17.6385H10.907V20.6395C10.9065 20.8184 10.9413 20.9957 11.0095 21.1612C11.0776 21.3267 11.1778 21.4771 11.3041 21.6038C11.4305 21.7306 11.5806 21.8311 11.7459 21.8997C11.9112 21.9683 12.0885 22.0036 12.2674 22.0036C12.4464 22.0036 12.6236 21.9683 12.7889 21.8997C12.9542 21.8311 13.1043 21.7306 13.2307 21.6038C13.3571 21.4771 13.4572 21.3267 13.5254 21.1612C13.5935 20.9957 13.6284 20.8184 13.6279 20.6395V17.6385H14.6015C14.9906 17.6385 15.3638 17.4839 15.6389 17.2088C15.9141 16.9337 16.0686 16.5605 16.0686 16.1714V7.37525H3.93147V16.1714ZM2.06419 7.14184C1.7035 7.14225 1.3577 7.28572 1.10266 7.54076C0.847611 7.79581 0.704148 8.14161 0.70374 8.5023V14.1708C0.703255 14.3497 0.738086 14.527 0.806238 14.6925C0.87439 14.858 0.974523 15.0084 1.1009 15.1351C1.22728 15.2619 1.37742 15.3624 1.54272 15.431C1.70802 15.4996 1.88523 15.5349 2.0642 15.5349C2.24316 15.5349 2.42037 15.4996 2.58567 15.431C2.75097 15.3624 2.90111 15.2619 3.02749 15.1351C3.15387 15.0084 3.254 14.858 3.32215 14.6925C3.3903 14.527 3.42514 14.3497 3.42465 14.1708V8.5023C3.42424 8.14161 3.28078 7.79581 3.02573 7.54076C2.77068 7.28571 2.42488 7.14225 2.06419 7.14184ZM17.9359 7.14184C17.5752 7.14225 17.2294 7.28571 16.9743 7.54076C16.7193 7.79581 16.5758 8.14161 16.5754 8.5023V14.1708C16.5749 14.3497 16.6098 14.527 16.6779 14.6925C16.7461 14.858 16.8462 15.0084 16.9726 15.1351C17.099 15.2619 17.2491 15.3624 17.4144 15.431C17.5797 15.4996 17.7569 15.5349 17.9359 15.5349C18.1149 15.5349 18.2921 15.4996 18.4574 15.431C18.6227 15.3624 18.7728 15.2619 18.8992 15.1351C19.0256 15.0084 19.1257 14.858 19.1938 14.6925C19.262 14.527 19.2968 14.3497 19.2963 14.1708V8.5023C19.2959 8.14161 19.1525 7.79581 18.8974 7.54076C18.6424 7.28572 18.2966 7.14225 17.9359 7.14184Z" fill="black"/>
</svg>
