<svg width="24" height="24" viewBox="0 0 24 24" fill="none" xmlns="http://www.w3.org/2000/svg">
<path d="M21.5901 9.1701L12.5901 2.6301C12.4188 2.50495 12.2122 2.4375 12.0001 2.4375C11.788 2.4375 11.5814 2.50495 11.4101 2.6301L2.41009 9.1701C2.23942 9.29478 2.11265 9.47034 2.04797 9.67156C1.98329 9.87278 1.98404 10.0893 2.05009 10.2901L5.49009 20.8701C5.5579 21.0789 5.69256 21.2597 5.87329 21.3844C6.05402 21.5091 6.27078 21.5708 6.49009 21.5601H17.5601C17.7794 21.5708 17.9962 21.5091 18.1769 21.3844C18.3576 21.2597 18.4923 21.0789 18.5601 20.8701L22.0001 10.2901C22.0611 10.0841 22.0542 9.864 21.9803 9.66228C21.9065 9.46056 21.7697 9.28799 21.5901 9.1701ZM16.8401 19.5601H7.16009L4.16009 10.3601L12.0001 4.6801L19.8201 10.3601L16.8401 19.5601Z" fill="black"/>
</svg>
