<svg width="24" height="24" viewBox="0 0 24 24" fill="none" xmlns="http://www.w3.org/2000/svg">
<path d="M21.8701 19.2901L12.8701 3.71007C12.7829 3.55618 12.6564 3.42817 12.5035 3.33911C12.3507 3.25005 12.177 3.20313 12.0001 3.20312C11.8232 3.20312 11.6494 3.25005 11.4966 3.33911C11.3438 3.42817 11.2173 3.55618 11.1301 3.71007L2.13007 19.2901C2.0423 19.4421 1.99609 19.6145 1.99609 19.7901C1.99609 19.9656 2.0423 20.1381 2.13007 20.2901C2.21817 20.4427 2.34504 20.5693 2.49781 20.6571C2.65059 20.7449 2.82386 20.7908 3.00007 20.7901H21.0001C21.1763 20.7908 21.3495 20.7449 21.5023 20.6571C21.6551 20.5693 21.782 20.4427 21.8701 20.2901C21.9578 20.1381 22.004 19.9656 22.004 19.7901C22.004 19.6145 21.9578 19.4421 21.8701 19.2901ZM4.73007 18.7901L12.0001 6.21007L19.2701 18.7901H4.73007Z" fill="black"/>
</svg>
