<svg width="24" height="24" viewBox="0 0 24 24" fill="none" xmlns="http://www.w3.org/2000/svg">
<path d="M21.71 2.29958C21.5226 2.11333 21.2692 2.00879 21.005 2.00879C20.7408 2.00879 20.4874 2.11333 20.3 2.29958L16.92 5.59958L15.7 4.39958C15.5104 4.21393 15.2548 4.11121 14.9894 4.11403C14.724 4.11684 14.4707 4.22495 14.285 4.41458C14.0993 4.60421 13.9966 4.85982 13.9994 5.12519C14.0023 5.39055 14.1104 5.64393 14.3 5.82958L16.22 7.70958C16.4069 7.89281 16.6582 7.99544 16.92 7.99544C17.1818 7.99544 17.4331 7.89281 17.62 7.70958L21.7 3.70958C21.8876 3.52354 21.9939 3.27083 21.9958 3.00664C21.9977 2.74246 21.8949 2.48826 21.71 2.29958ZM19 8.99958C18.7348 8.99958 18.4804 9.10494 18.2929 9.29248C18.1054 9.48001 18 9.73437 18 9.99958V14.3896L16.52 12.9096C16.2626 12.6505 15.9564 12.4448 15.6192 12.3045C15.2819 12.1642 14.9203 12.0919 14.555 12.0919C14.1897 12.0919 13.8281 12.1642 13.4908 12.3045C13.1536 12.4448 12.8474 12.6505 12.59 12.9096L11.89 13.6096L9.41 11.1196C8.88742 10.6011 8.18113 10.3102 7.445 10.3102C6.70887 10.3102 6.00258 10.6011 5.48 11.1196L4 12.5996V6.99958C4 6.73437 4.10536 6.48001 4.29289 6.29248C4.48043 6.10494 4.73478 5.99958 5 5.99958H11C11.2652 5.99958 11.5196 5.89422 11.7071 5.70669C11.8946 5.51915 12 5.2648 12 4.99958C12 4.73437 11.8946 4.48001 11.7071 4.29248C11.5196 4.10494 11.2652 3.99958 11 3.99958H5C4.20435 3.99958 3.44129 4.31565 2.87868 4.87826C2.31607 5.44087 2 6.20393 2 6.99958V18.9996C2 19.7952 2.31607 20.5583 2.87868 21.1209C3.44129 21.6835 4.20435 21.9996 5 21.9996H17C17.7956 21.9996 18.5587 21.6835 19.1213 21.1209C19.6839 20.5583 20 19.7952 20 18.9996V9.99958C20 9.73437 19.8946 9.48001 19.7071 9.29248C19.5196 9.10494 19.2652 8.99958 19 8.99958ZM5 19.9996C4.73478 19.9996 4.48043 19.8942 4.29289 19.7067C4.10536 19.5192 4 19.2648 4 18.9996V15.4296L6.9 12.5296C7.04691 12.3896 7.24206 12.3115 7.445 12.3115C7.64794 12.3115 7.84309 12.3896 7.99 12.5296L11.16 15.6996L15.45 19.9996H5ZM18 18.9996C17.9986 19.191 17.9354 19.3769 17.82 19.5296L13.31 14.9996L14.01 14.2996C14.1562 14.1542 14.3539 14.0727 14.56 14.0727C14.7661 14.0727 14.9638 14.1542 15.11 14.2996L18 17.2196V18.9996Z" fill="black"/>
</svg>
