<svg width="24" height="24" viewBox="0 0 24 24" fill="none" xmlns="http://www.w3.org/2000/svg">
<path d="M13.41 12.0002L16.71 8.71019C16.8032 8.61695 16.8772 8.50626 16.9277 8.38444C16.9781 8.26261 17.0041 8.13204 17.0041 8.00019C17.0041 7.86833 16.9781 7.73776 16.9277 7.61594C16.8772 7.49411 16.8032 7.38342 16.71 7.29019C16.6168 7.19695 16.5061 7.12299 16.3842 7.07253C16.2624 7.02207 16.1319 6.99609 16 6.99609C15.8681 6.99609 15.7376 7.02207 15.6158 7.07253C15.4939 7.12299 15.3832 7.19695 15.29 7.29019L11.29 11.2902C11.1963 11.3831 11.1219 11.4937 11.0711 11.6156C11.0203 11.7375 10.9942 11.8682 10.9942 12.0002C10.9942 12.1322 11.0203 12.2629 11.0711 12.3848C11.1219 12.5066 11.1963 12.6172 11.29 12.7102L15.29 16.7102C15.383 16.8039 15.4936 16.8783 15.6154 16.9291C15.7373 16.9798 15.868 17.006 16 17.006C16.132 17.006 16.2627 16.9798 16.3846 16.9291C16.5064 16.8783 16.617 16.8039 16.71 16.7102C16.8037 16.6172 16.8781 16.5066 16.9289 16.3848C16.9797 16.2629 17.0058 16.1322 17.0058 16.0002C17.0058 15.8682 16.9797 15.7375 16.9289 15.6156C16.8781 15.4937 16.8037 15.3831 16.71 15.2902L13.41 12.0002ZM8 7.00019C7.73478 7.00019 7.48043 7.10554 7.29289 7.29308C7.10536 7.48062 7 7.73497 7 8.00019V16.0002C7 16.2654 7.10536 16.5198 7.29289 16.7073C7.48043 16.8948 7.73478 17.0002 8 17.0002C8.26522 17.0002 8.51957 16.8948 8.70711 16.7073C8.89464 16.5198 9 16.2654 9 16.0002V8.00019C9 7.73497 8.89464 7.48062 8.70711 7.29308C8.51957 7.10554 8.26522 7.00019 8 7.00019Z" fill="black"/>
</svg>
