<svg width="24" height="24" viewBox="0 0 24 24" fill="none" xmlns="http://www.w3.org/2000/svg">
<path d="M19.07 4.92984C18.1475 3.97473 17.044 3.21291 15.824 2.68882C14.604 2.16473 13.2918 1.88887 11.964 1.87733C10.6362 1.86579 9.31938 2.11881 8.09042 2.62162C6.86145 3.12443 5.74493 3.86696 4.80601 4.80589C3.86708 5.74481 3.12455 6.86133 2.62174 8.09029C2.11893 9.31926 1.86591 10.6361 1.87745 11.9638C1.88899 13.2916 2.16485 14.6038 2.68894 15.8239C3.21303 17.0439 3.97486 18.1474 4.92996 19.0698C5.85243 20.0249 6.95587 20.7868 8.17591 21.3109C9.39595 21.8349 10.7082 22.1108 12.0359 22.1223C13.3637 22.1339 14.6805 21.8809 15.9095 21.3781C17.1385 20.8752 18.255 20.1327 19.1939 19.1938C20.1328 18.2549 20.8754 17.1383 21.3782 15.9094C21.881 14.6804 22.134 13.3636 22.1225 12.0358C22.1109 10.708 21.8351 9.39583 21.311 8.17579C20.7869 6.95575 20.0251 5.8523 19.07 4.92984ZM18.23 6.99984H12.76L15.11 4.64984C16.3253 5.16834 17.3961 5.97489 18.23 6.99984ZM8.99996 4.59984C10.2271 4.10868 11.5553 3.92335 12.87 4.05984L8.99996 7.92983V4.59984ZM6.99996 5.76984V11.2398L5.18996 9.42984L4.64996 8.88984C5.16846 7.67452 5.97501 6.60369 6.99996 5.76984ZM4.59996 14.9998C4.10763 13.773 3.92226 12.4446 4.05996 11.1298L7.92996 14.9998H4.59996ZM5.76996 16.9998H11.24L8.88996 19.3498C7.67464 18.8313 6.60382 18.0248 5.76996 16.9998ZM15 19.3998C13.773 19.8918 12.4447 20.0771 11.13 19.9398L15 16.0698V19.3998ZM15 13.2398L13.24 14.9998H10.75L8.99996 13.2398V10.7598L10.76 8.99984H13.24L15 10.7598V13.2398ZM17 18.2398V12.7598L19.35 15.1098C18.8315 16.3251 18.0249 17.396 17 18.2298V18.2398ZM16.07 8.99984H19.4C19.8919 10.2268 20.0772 11.5551 19.94 12.8698L16.07 8.99984Z" fill="black"/>
</svg>
