<svg width="24" height="24" viewBox="0 0 24 24" fill="none" xmlns="http://www.w3.org/2000/svg">
<path d="M19 9.9997C18.7348 9.9997 18.4804 10.1051 18.2929 10.2926C18.1054 10.4801 18 10.7345 18 10.9997V14.3897L16.52 12.9097C16.2626 12.6506 15.9564 12.445 15.6192 12.3046C15.2819 12.1643 14.9203 12.0921 14.555 12.0921C14.1897 12.0921 13.8281 12.1643 13.4908 12.3046C13.1536 12.445 12.8474 12.6506 12.59 12.9097L11.89 13.6097L9.41 11.1197C8.88742 10.6012 8.18113 10.3103 7.445 10.3103C6.70887 10.3103 6.00258 10.6012 5.48 11.1197L4 12.5997V6.9997C4 6.73449 4.10536 6.48013 4.29289 6.2926C4.48043 6.10506 4.73478 5.9997 5 5.9997H13C13.2652 5.9997 13.5196 5.89435 13.7071 5.70681C13.8946 5.51927 14 5.26492 14 4.9997C14 4.73449 13.8946 4.48013 13.7071 4.2926C13.5196 4.10506 13.2652 3.9997 13 3.9997H5C4.20435 3.9997 3.44129 4.31578 2.87868 4.87838C2.31607 5.44099 2 6.20405 2 6.9997V18.9997C2 19.7954 2.31607 20.5584 2.87868 21.121C3.44129 21.6836 4.20435 21.9997 5 21.9997H17C17.7956 21.9997 18.5587 21.6836 19.1213 21.121C19.6839 20.5584 20 19.7954 20 18.9997V10.9997C20 10.7345 19.8946 10.4801 19.7071 10.2926C19.5196 10.1051 19.2652 9.9997 19 9.9997ZM5 19.9997C4.73478 19.9997 4.48043 19.8943 4.29289 19.7068C4.10536 19.5193 4 19.2649 4 18.9997V15.4297L6.9 12.5297C7.04691 12.3897 7.24206 12.3116 7.445 12.3116C7.64794 12.3116 7.84309 12.3897 7.99 12.5297L11.16 15.6997L15.45 19.9997H5ZM18 18.9997C17.9986 19.1911 17.9354 19.377 17.82 19.5297L13.31 14.9997L14.01 14.2997C14.1562 14.1544 14.3539 14.0728 14.56 14.0728C14.7661 14.0728 14.9638 14.1544 15.11 14.2997L18 17.2197V18.9997ZM20.41 4.9997L21.71 3.7097C21.8962 3.52234 22.0008 3.26889 22.0008 3.0047C22.0008 2.74052 21.8962 2.48707 21.71 2.2997C21.617 2.20598 21.5064 2.13158 21.3846 2.08081C21.2627 2.03004 21.132 2.00391 21 2.00391C20.868 2.00391 20.7373 2.03004 20.6154 2.08081C20.4936 2.13158 20.383 2.20598 20.29 2.2997L19 3.5897L17.71 2.2997C17.617 2.20598 17.5064 2.13158 17.3846 2.08081C17.2627 2.03004 17.132 2.00391 17 2.00391C16.868 2.00391 16.7373 2.03004 16.6154 2.08081C16.4936 2.13158 16.383 2.20598 16.29 2.2997C16.1038 2.48707 15.9992 2.74052 15.9992 3.0047C15.9992 3.26889 16.1038 3.52234 16.29 3.7097L17.59 4.9997L16.29 6.2997C16.1038 6.48707 15.9992 6.74052 15.9992 7.0047C15.9992 7.26889 16.1038 7.52234 16.29 7.7097C16.383 7.80343 16.4936 7.87783 16.6154 7.9286C16.7373 7.97936 16.868 8.0055 17 8.0055C17.132 8.0055 17.2627 7.97936 17.3846 7.9286C17.5064 7.87783 17.617 7.80343 17.71 7.7097L19 6.4197L20.29 7.7097C20.383 7.80343 20.4936 7.87783 20.6154 7.9286C20.7373 7.97936 20.868 8.0055 21 8.0055C21.132 8.0055 21.2627 7.97936 21.3846 7.9286C21.5064 7.87783 21.617 7.80343 21.71 7.7097C21.8962 7.52234 22.0008 7.26889 22.0008 7.0047C22.0008 6.74052 21.8962 6.48707 21.71 6.2997L20.41 4.9997Z" fill="black"/>
</svg>
