<svg width="24" height="24" viewBox="0 0 24 24" fill="none" xmlns="http://www.w3.org/2000/svg">
<path d="M20.67 9.69019L14 5.84019C13.5944 5.60718 13.1348 5.48482 12.667 5.48535C12.1992 5.48588 11.7398 5.60929 11.3348 5.84321C10.9297 6.07714 10.5932 6.41337 10.359 6.81825C10.1247 7.22312 10.0009 7.68243 10 8.15019L6.00004 5.84019C5.59444 5.60718 5.13476 5.48482 4.667 5.48535C4.19924 5.48588 3.73983 5.60929 3.33477 5.84321C2.92971 6.07714 2.59321 6.41337 2.35896 6.81825C2.12471 7.22312 2.00094 7.68243 2.00004 8.15019V15.8502C1.9976 16.3171 2.11951 16.7763 2.35325 17.1805C2.58699 17.5847 2.92413 17.9194 3.33004 18.1502C3.73504 18.3924 4.19813 18.5203 4.67004 18.5202C5.13711 18.5177 5.59547 18.3936 6.00004 18.1602L10 15.8502C9.99789 16.3184 10.1198 16.7788 10.3535 17.1846C10.5871 17.5903 10.924 17.927 11.33 18.1602C11.7356 18.3955 12.1961 18.5195 12.665 18.5195C13.1339 18.5195 13.5945 18.3955 14 18.1602L20.67 14.3102C21.0749 14.0755 21.4109 13.7386 21.6445 13.3332C21.8781 12.9278 22.0011 12.4681 22.0011 12.0002C22.0011 11.5323 21.8781 11.0726 21.6445 10.6672C21.4109 10.2617 21.0749 9.92483 20.67 9.69019ZM10 13.5402L5.00004 16.4202C4.89907 16.4774 4.78498 16.5073 4.66896 16.5072C4.55293 16.507 4.43893 16.4767 4.33812 16.4192C4.23732 16.3618 4.15316 16.2791 4.0939 16.1794C4.03464 16.0796 4.00229 15.9662 4.00004 15.8502V8.15019C4.00229 8.03418 4.03464 7.92075 4.0939 7.82099C4.15316 7.72124 4.23732 7.63859 4.33812 7.58113C4.43893 7.52367 4.55293 7.49338 4.66896 7.49321C4.78498 7.49305 4.89907 7.52302 5.00004 7.58019L10 10.4602V13.5402ZM19.67 12.5402L13 16.4302C12.8976 16.4871 12.7823 16.517 12.665 16.517C12.5478 16.517 12.4325 16.4871 12.33 16.4302C12.2285 16.3716 12.1443 16.2869 12.0863 16.185C12.0283 16.083 11.9985 15.9675 12 15.8502V8.15019C11.9985 8.03291 12.0283 7.91735 12.0863 7.81541C12.1443 7.71347 12.2285 7.62882 12.33 7.57019C12.435 7.51469 12.5513 7.48391 12.67 7.48019C12.7862 7.47918 12.9004 7.51033 13 7.57019L19.67 11.4202C19.7718 11.479 19.8563 11.5636 19.915 11.6654C19.9737 11.7672 20.0046 11.8827 20.0046 12.0002C20.0046 12.1177 19.9737 12.2332 19.915 12.335C19.8563 12.4368 19.7718 12.5214 19.67 12.5802V12.5402Z" fill="black"/>
</svg>
