<svg width="24" height="24" viewBox="0 0 24 24" fill="none" xmlns="http://www.w3.org/2000/svg">
<path d="M20 3.9997C20.1966 3.99889 20.3886 3.94016 20.5519 3.83085C20.7153 3.72154 20.8429 3.56649 20.9186 3.3851C20.9944 3.20371 21.015 3.00401 20.9779 2.81096C20.9408 2.61792 20.8476 2.44009 20.71 2.2997C20.617 2.20598 20.5064 2.13158 20.3846 2.08081C20.2627 2.03004 20.132 2.00391 20 2.00391C19.868 2.00391 19.7373 2.03004 19.6154 2.08081C19.4936 2.13158 19.383 2.20598 19.29 2.2997C19.2001 2.39185 19.1287 2.50051 19.08 2.6197C19.024 2.73838 18.9966 2.86853 19 2.9997C19 3.26492 19.1054 3.51928 19.2929 3.70681C19.4804 3.89435 19.7348 3.9997 20 3.9997ZM20 12.9997C19.7348 12.9997 19.4804 13.1051 19.2929 13.2926C19.1054 13.4801 19 13.7345 19 13.9997V14.3897L17.52 12.9097C17.2626 12.6506 16.9564 12.445 16.6192 12.3046C16.2819 12.1643 15.9203 12.0921 15.555 12.0921C15.1897 12.0921 14.8281 12.1643 14.4908 12.3046C14.1536 12.445 13.8474 12.6506 13.59 12.9097L12.89 13.6097L10.41 11.1197C9.87897 10.6176 9.17585 10.3378 8.445 10.3378C7.71415 10.3378 7.01103 10.6176 6.48 11.1197L5 12.5997V6.9997C5 6.73449 5.10536 6.48013 5.29289 6.2926C5.48043 6.10506 5.73478 5.9997 6 5.9997H16C16.2652 5.9997 16.5196 5.89435 16.7071 5.70681C16.8946 5.51927 17 5.26492 17 4.9997C17 4.73449 16.8946 4.48013 16.7071 4.2926C16.5196 4.10506 16.2652 3.9997 16 3.9997H6C5.20435 3.9997 4.44129 4.31578 3.87868 4.87838C3.31607 5.44099 3 6.20405 3 6.9997V18.9997C3 19.7954 3.31607 20.5584 3.87868 21.121C4.44129 21.6836 5.20435 21.9997 6 21.9997H18C18.7956 21.9997 19.5587 21.6836 20.1213 21.121C20.6839 20.5584 21 19.7954 21 18.9997V13.9997C21 13.7345 20.8946 13.4801 20.7071 13.2926C20.5196 13.1051 20.2652 12.9997 20 12.9997ZM6 19.9997C5.73478 19.9997 5.48043 19.8943 5.29289 19.7068C5.10536 19.5193 5 19.2649 5 18.9997V15.4297L7.9 12.5297C8.04691 12.3897 8.24206 12.3116 8.445 12.3116C8.64794 12.3116 8.84309 12.3897 8.99 12.5297L12.16 15.6997L16.45 19.9997H6ZM19 18.9997C18.9917 19.1899 18.9292 19.3738 18.82 19.5297L14.31 14.9997L15.01 14.2997C15.1562 14.1544 15.3539 14.0728 15.56 14.0728C15.7661 14.0728 15.9638 14.1544 16.11 14.2997L19 17.2197V18.9997ZM20 4.9997C19.7348 4.9997 19.4804 5.10506 19.2929 5.2926C19.1054 5.48013 19 5.73449 19 5.9997V9.9997C19 10.2649 19.1054 10.5193 19.2929 10.7068C19.4804 10.8943 19.7348 10.9997 20 10.9997C20.2652 10.9997 20.5196 10.8943 20.7071 10.7068C20.8946 10.5193 21 10.2649 21 9.9997V5.9997C21 5.73449 20.8946 5.48013 20.7071 5.2926C20.5196 5.10506 20.2652 4.9997 20 4.9997Z" fill="black"/>
</svg>
