<svg width="24" height="24" viewBox="0 0 24 24" fill="none" xmlns="http://www.w3.org/2000/svg">
<path d="M19.68 6.88043C18.661 6.34488 17.4727 6.23 16.37 6.56043C16.3163 5.4389 15.833 4.38107 15.0203 3.60633C14.2076 2.8316 13.1278 2.39941 12.005 2.39941C10.8822 2.39941 9.80246 2.8316 8.98975 3.60633C8.17704 4.38107 7.69371 5.4389 7.64001 6.56043C6.5403 6.22924 5.35539 6.33306 4.33001 6.85043C3.57491 7.24731 2.95248 7.85653 2.53947 8.60294C2.12647 9.34935 1.94096 10.2003 2.00581 11.0509C2.07067 11.9015 2.38306 12.7145 2.90446 13.3897C3.42586 14.0648 4.13346 14.5726 4.94001 14.8504C4.4252 15.583 4.14611 16.4551 4.14001 17.3504C4.14446 17.6018 4.16786 17.8525 4.21001 18.1004C4.37842 19.116 4.90232 20.0386 5.68816 20.7035C6.474 21.3685 7.4706 21.7324 8.50001 21.7304C8.7131 21.745 8.92693 21.745 9.14001 21.7304C10.283 21.5504 11.3099 20.9292 12 20.0004C12.6973 20.9142 13.7232 21.5204 14.86 21.6904C15.0731 21.705 15.2869 21.705 15.5 21.6904C16.2982 21.6895 17.0807 21.4695 17.7625 21.0544C18.4442 20.6393 18.9989 20.0451 19.3661 19.3364C19.7333 18.6278 19.899 17.8319 19.845 17.0356C19.791 16.2393 19.5195 15.473 19.06 14.8204C19.8705 14.5474 20.5828 14.0421 21.1083 13.3673C21.6337 12.6925 21.9491 11.8781 22.0152 11.0254C22.0813 10.1728 21.8951 9.31947 21.4799 8.57179C21.0647 7.82411 20.4388 7.21505 19.68 6.82043V6.88043ZM10.34 4.94043C10.7868 4.51258 11.3814 4.27375 12 4.27375C12.6186 4.27375 13.2133 4.51258 13.66 4.94043C14.0011 5.28202 14.2327 5.71745 14.3253 6.1912C14.4179 6.66495 14.3673 7.15554 14.18 7.60043L13.92 8.19043L13.26 8.77043C12.8542 8.63115 12.429 8.5569 12 8.55043C11.4456 8.55096 10.8973 8.66674 10.39 8.89043L9.83001 7.60043C9.63594 7.15751 9.58079 6.66614 9.67185 6.19121C9.7629 5.71629 9.99588 5.28016 10.34 4.94043ZM4.24001 11.7804C4.01677 11.2892 3.96784 10.7365 4.1013 10.2137C4.23477 9.69086 4.54264 9.22924 4.97402 8.90511C5.40541 8.58099 5.93448 8.41378 6.47378 8.43111C7.01308 8.44844 7.53033 8.64928 7.94001 9.00043L8.43001 9.43043L8.78001 10.2304C8.27906 10.9007 8.00573 11.7137 8.00001 12.5504C7.98815 12.7002 7.98815 12.8507 8.00001 13.0004H7.45001L6.61001 13.0804C6.12956 13.1311 5.64509 13.0338 5.2215 12.8014C4.79792 12.5691 4.45546 12.2128 4.24001 11.7804ZM10.84 17.8604C10.7196 18.3943 10.419 18.8703 9.98863 19.2084C9.55831 19.5465 9.02462 19.7259 8.47746 19.7165C7.9303 19.7071 7.40309 19.5095 6.98463 19.1568C6.56616 18.8042 6.282 18.3181 6.18001 17.7804C6.17043 17.6406 6.17043 17.5003 6.18001 17.3604C6.18364 16.954 6.29353 16.5555 6.49878 16.2047C6.70402 15.8538 6.99748 15.5628 7.35001 15.3604L7.86001 15.0004L8.77001 14.9004C9.34357 15.6983 10.1908 16.2572 11.15 16.4704L10.84 17.8604ZM12 14.5504C11.6045 14.5504 11.2178 14.4331 10.8889 14.2134C10.56 13.9936 10.3036 13.6812 10.1523 13.3158C10.0009 12.9503 9.96127 12.5482 10.0384 12.1602C10.1156 11.7723 10.3061 11.4159 10.5858 11.1362C10.8655 10.8565 11.2219 10.666 11.6098 10.5889C11.9978 10.5117 12.3999 10.5513 12.7654 10.7027C13.1308 10.854 13.4432 11.1104 13.663 11.4393C13.8827 11.7682 14 12.1549 14 12.5504C14 13.0809 13.7893 13.5896 13.4142 13.9646C13.0392 14.3397 12.5304 14.5504 12 14.5504ZM17.82 17.7704C17.7168 18.3806 17.3782 18.9258 16.8769 19.2887C16.3756 19.6515 15.7519 19.803 15.14 19.7104C14.6579 19.6425 14.208 19.4289 13.8506 19.0983C13.4932 18.7677 13.2453 18.3358 13.14 17.8604L13 17.2604L13.21 16.3404C14.1325 16.04 14.9144 15.4145 15.41 14.5804L15.91 14.8804H16L16.66 15.2704C17.0888 15.5153 17.4309 15.8875 17.6387 16.3354C17.8465 16.7834 17.9099 17.2849 17.82 17.7704ZM19.76 11.7704C19.5633 12.1679 19.2599 12.5028 18.8838 12.7377C18.5076 12.9726 18.0735 13.0982 17.63 13.1004H17.39L16.75 13.0004L16 12.5904C15.9986 11.6181 15.6431 10.6796 15 9.95043L15.43 9.58043L16.06 9.00043C16.4709 8.63517 16.9959 8.4241 17.5453 8.40336C18.0946 8.38262 18.6341 8.55349 19.0713 8.88673C19.5085 9.21997 19.8163 9.69484 19.942 10.23C20.0676 10.7652 20.0033 11.3274 19.76 11.8204V11.7704Z" fill="black"/>
</svg>
