<svg width="24" height="24" viewBox="0 0 24 24" fill="none" xmlns="http://www.w3.org/2000/svg">
<path d="M21.85 17.4704L16.85 9.47045C16.7603 9.32574 16.6351 9.20632 16.4864 9.12351C16.3376 9.0407 16.1702 8.99723 16 8.99723C15.8297 8.99723 15.6623 9.0407 15.5135 9.12351C15.3648 9.20632 15.2396 9.32574 15.15 9.47045L14.15 11.1004L10.86 5.50045C10.7714 5.35123 10.6456 5.22761 10.4948 5.14175C10.344 5.05589 10.1735 5.01074 9.99997 5.01074C9.82645 5.01074 9.65592 5.05589 9.50514 5.14175C9.35436 5.22761 9.22851 5.35123 9.13997 5.50045L2.13997 17.5004C2.05245 17.652 2.00625 17.8239 2.00598 17.9989C2.00572 18.174 2.05139 18.346 2.13845 18.4979C2.22551 18.6497 2.35089 18.776 2.50208 18.8642C2.65326 18.9524 2.82494 18.9994 2.99997 19.0004H21C21.1786 19.0008 21.3541 18.9533 21.5082 18.8628C21.6623 18.7724 21.7894 18.6423 21.8761 18.4861C21.9629 18.3299 22.0062 18.1533 22.0016 17.9747C21.997 17.7961 21.9447 17.622 21.85 17.4704ZM10.45 17.0004H4.73997L9.99997 8.00045L12.93 13.0004L10.45 17.0004ZM12.8 17.0004L15 13.5704L16 11.8904L19.2 17.0004H12.8Z" fill="black"/>
</svg>
