<svg width="24" height="24" viewBox="0 0 24 24" fill="none" xmlns="http://www.w3.org/2000/svg">
<path d="M19.12 2.21045C19.0024 2.11179 18.8636 2.04152 18.7145 2.00511C18.5654 1.96869 18.4099 1.9671 18.26 2.00045L10.26 4.00045C10.0381 4.05521 9.8417 4.1843 9.70342 4.36625C9.56514 4.5482 9.49335 4.77202 9.5 5.00045V15.3505C9.03277 15.1222 8.51999 15.0026 8 15.0005C7.30777 15.0005 6.63108 15.2057 6.05551 15.5903C5.47993 15.9749 5.03133 16.5215 4.76642 17.1611C4.50152 17.8006 4.4322 18.5043 4.56725 19.1833C4.7023 19.8622 5.03564 20.4858 5.52513 20.9753C6.01461 21.4648 6.63825 21.7982 7.31719 21.9332C7.99612 22.0683 8.69985 21.9989 9.33939 21.734C9.97893 21.4691 10.5256 21.0205 10.9101 20.445C11.2947 19.8694 11.5 19.1927 11.5 18.5005V10.7805L18.74 9.00045H18.81L19 8.85046L19.15 8.75045C19.1986 8.70524 19.2421 8.65495 19.28 8.60046C19.319 8.55449 19.3526 8.50415 19.38 8.45045C19.4103 8.39438 19.4306 8.33348 19.44 8.27046C19.4504 8.20755 19.4504 8.14336 19.44 8.08045C19.4445 8.05398 19.4445 8.02693 19.44 8.00045V3.00045C19.4482 2.85333 19.4237 2.70622 19.3684 2.56965C19.3131 2.43308 19.2282 2.31043 19.12 2.21045ZM8 20.0005C7.70333 20.0005 7.41332 19.9125 7.16665 19.7477C6.91997 19.5828 6.72771 19.3486 6.61418 19.0745C6.50065 18.8004 6.47095 18.4988 6.52882 18.2078C6.5867 17.9168 6.72956 17.6496 6.93934 17.4398C7.14912 17.23 7.41639 17.0872 7.70737 17.0293C7.99834 16.9714 8.29994 17.0011 8.57403 17.1146C8.84812 17.2282 9.08238 17.4204 9.24721 17.6671C9.41203 17.9138 9.5 18.2038 9.5 18.5005C9.5 18.8983 9.34197 19.2798 9.06066 19.5611C8.77936 19.8424 8.39783 20.0005 8 20.0005ZM17.5 7.22045L11.5 8.72046V5.78046L17.5 4.28046V7.22045Z" fill="black"/>
</svg>
