<svg width="24" height="24" viewBox="0 0 24 24" fill="none" xmlns="http://www.w3.org/2000/svg">
<path d="M21.65 2.24015C21.541 2.14661 21.4131 2.07764 21.2751 2.03795C21.137 1.99827 20.992 1.98878 20.85 2.01015L7.85 4.01015C7.61326 4.04607 7.39727 4.16574 7.24129 4.34741C7.0853 4.52909 6.99969 4.7607 7 5.00015V15.3502C6.53277 15.1219 6.01999 15.0023 5.5 15.0002C4.80777 15.0002 4.13108 15.2054 3.55551 15.59C2.97993 15.9746 2.53133 16.5212 2.26642 17.1608C2.00152 17.8003 1.9322 18.504 2.06725 19.183C2.2023 19.8619 2.53564 20.4855 3.02513 20.975C3.51461 21.4645 4.13825 21.7979 4.81719 21.9329C5.49612 22.0679 6.19985 21.9986 6.83939 21.7337C7.47894 21.4688 8.02556 21.0202 8.41015 20.4446C8.79473 19.8691 9 19.1924 9 18.5002V10.8602L20 9.17015V13.3502C19.5328 13.1219 19.02 13.0023 18.5 13.0002C17.8078 13.0002 17.1311 13.2054 16.5555 13.59C15.9799 13.9746 15.5313 14.5212 15.2664 15.1608C15.0015 15.8003 14.9322 16.504 15.0673 17.183C15.2023 17.8619 15.5356 18.4855 16.0251 18.975C16.5146 19.4645 17.1383 19.7979 17.8172 19.9329C18.4961 20.0679 19.1999 19.9986 19.8394 19.7337C20.4789 19.4688 21.0256 19.0202 21.4101 18.4446C21.7947 17.8691 22 17.1924 22 16.5002V3.00015C22 2.85571 21.9687 2.71298 21.9083 2.58178C21.8479 2.45059 21.7598 2.33404 21.65 2.24015ZM5.5 20.0002C5.20333 20.0002 4.91332 19.9122 4.66665 19.7474C4.41997 19.5825 4.22771 19.3483 4.11418 19.0742C4.00065 18.8001 3.97095 18.4985 4.02882 18.2075C4.0867 17.9165 4.22956 17.6493 4.43934 17.4395C4.64912 17.2297 4.91639 17.0869 5.20737 17.029C5.49834 16.9711 5.79994 17.0008 6.07403 17.1143C6.34812 17.2279 6.58238 17.4201 6.74721 17.6668C6.91203 17.9135 7 18.2035 7 18.5002C7 18.898 6.84197 19.2795 6.56066 19.5608C6.27936 19.8421 5.89783 20.0002 5.5 20.0002ZM18.5 18.0002C18.2033 18.0002 17.9133 17.9122 17.6666 17.7474C17.42 17.5825 17.2277 17.3483 17.1142 17.0742C17.0007 16.8001 16.9709 16.4985 17.0288 16.2075C17.0867 15.9165 17.2296 15.6493 17.4393 15.4395C17.6491 15.2297 17.9164 15.0869 18.2074 15.029C18.4983 14.9711 18.7999 15.0008 19.074 15.1143C19.3481 15.2279 19.5824 15.4201 19.7472 15.6668C19.912 15.9135 20 16.2035 20 16.5002C20 16.898 19.842 17.2795 19.5607 17.5608C19.2794 17.8421 18.8978 18.0002 18.5 18.0002ZM20 7.14015L9 8.83015V5.83015L20 4.17015V7.14015Z" fill="black"/>
</svg>
