<svg width="24" height="24" viewBox="0 0 24 24" fill="none" xmlns="http://www.w3.org/2000/svg">
<path d="M8.70994 7.29019C8.6167 7.19695 8.50601 7.12299 8.38419 7.07253C8.26237 7.02207 8.1318 6.99609 7.99994 6.99609C7.86808 6.99609 7.73751 7.02207 7.61569 7.07253C7.49387 7.12299 7.38318 7.19695 7.28994 7.29019C7.1967 7.38342 7.12274 7.49411 7.07228 7.61594C7.02182 7.73776 6.99585 7.86833 6.99585 8.00019C6.99585 8.13204 7.02182 8.26261 7.07228 8.38444C7.12274 8.50626 7.1967 8.61695 7.28994 8.71019L10.5899 12.0002L7.28994 15.2902C7.19621 15.3831 7.12182 15.4937 7.07105 15.6156C7.02028 15.7375 6.99414 15.8682 6.99414 16.0002C6.99414 16.1322 7.02028 16.2629 7.07105 16.3848C7.12182 16.5066 7.19621 16.6172 7.28994 16.7102C7.3829 16.8039 7.4935 16.8783 7.61536 16.9291C7.73722 16.9798 7.86793 17.006 7.99994 17.006C8.13195 17.006 8.26266 16.9798 8.38452 16.9291C8.50638 16.8783 8.61698 16.8039 8.70994 16.7102L12.7099 12.7102C12.8037 12.6172 12.8781 12.5066 12.9288 12.3848C12.9796 12.2629 13.0057 12.1322 13.0057 12.0002C13.0057 11.8682 12.9796 11.7375 12.9288 11.6156C12.8781 11.4937 12.8037 11.3831 12.7099 11.2902L8.70994 7.29019ZM15.9999 7.00019C15.7347 7.00019 15.4804 7.10554 15.2928 7.29308C15.1053 7.48062 14.9999 7.73497 14.9999 8.00019V16.0002C14.9999 16.2654 15.1053 16.5198 15.2928 16.7073C15.4804 16.8948 15.7347 17.0002 15.9999 17.0002C16.2652 17.0002 16.5195 16.8948 16.707 16.7073C16.8946 16.5198 16.9999 16.2654 16.9999 16.0002V8.00019C16.9999 7.73497 16.8946 7.48062 16.707 7.29308C16.5195 7.10554 16.2652 7.00019 15.9999 7.00019Z" fill="black"/>
</svg>
