<svg width="24" height="24" viewBox="0 0 24 24" fill="none" xmlns="http://www.w3.org/2000/svg">
<path d="M8.67002 4.22961C8.8319 4.27217 9.00187 4.27341 9.16436 4.23323C9.32684 4.19304 9.47664 4.11272 9.60002 3.99961H14.7L13.43 8.73961C13.3896 8.88793 13.3839 9.04359 13.4134 9.19448C13.4428 9.34536 13.5067 9.48742 13.6 9.60961C13.6932 9.73062 13.8128 9.82869 13.9498 9.8963C14.0867 9.9639 14.2373 9.99924 14.39 9.99961H18L16.87 11.2396C16.6928 11.4361 16.6006 11.6948 16.6137 11.9591C16.6268 12.2234 16.7442 12.4717 16.94 12.6496C17.1234 12.8163 17.3622 12.909 17.61 12.9096C17.7496 12.9093 17.8875 12.8797 18.0149 12.8229C18.1424 12.7661 18.2565 12.6832 18.35 12.5796L21 9.66961C21.1313 9.52429 21.2171 9.34361 21.2466 9.14999C21.2761 8.95638 21.2481 8.75836 21.1661 8.5805C21.0841 8.40265 20.9517 8.25279 20.7853 8.14952C20.6189 8.04625 20.4258 7.99413 20.23 7.99961H15.69L17 3.25961C17.0391 3.11053 17.0432 2.95444 17.0119 2.80352C16.9807 2.65261 16.915 2.51095 16.82 2.38961C16.7238 2.26451 16.5994 2.16396 16.4568 2.09617C16.3143 2.02839 16.1578 1.9953 16 1.99961H9.00002C8.77426 1.99188 8.55253 2.06081 8.37095 2.19518C8.18936 2.32955 8.05862 2.52145 8.00002 2.73961V2.99961C7.92838 3.25153 7.95843 3.5215 8.08372 3.7515C8.209 3.9815 8.41952 4.15317 8.67002 4.22961ZM21.67 20.2896L3.67002 2.28961C3.47541 2.14773 3.23613 2.08086 2.99616 2.10128C2.75619 2.12169 2.53165 2.22803 2.3638 2.40074C2.19595 2.57346 2.09607 2.80094 2.08252 3.0414C2.06896 3.28186 2.14265 3.51913 2.29002 3.70961L6.61002 7.99961L5.35002 12.7396C5.31096 12.8887 5.30688 13.0448 5.3381 13.1957C5.36933 13.3466 5.43501 13.4883 5.53002 13.6096C5.62318 13.7306 5.74282 13.8287 5.87976 13.8963C6.0167 13.9639 6.16731 13.9992 6.32002 13.9996H10.16L8.35002 20.7396C8.2914 20.957 8.30789 21.1879 8.39682 21.3948C8.48575 21.6017 8.64192 21.7725 8.84002 21.8796C8.98745 21.9592 9.1525 22.0004 9.32002 21.9996C9.45957 21.9993 9.5975 21.9697 9.72494 21.9129C9.85239 21.8561 9.96653 21.7732 10.06 21.6696L14.91 16.3296L20.29 21.7096C20.383 21.8033 20.4936 21.8777 20.6154 21.9285C20.7373 21.9793 20.868 22.0054 21 22.0054C21.132 22.0054 21.2627 21.9793 21.3846 21.9285C21.5065 21.8777 21.6171 21.8033 21.71 21.7096C21.8038 21.6166 21.8781 21.506 21.9289 21.3842C21.9797 21.2623 22.0058 21.1316 22.0058 20.9996C22.0058 20.8676 21.9797 20.7369 21.9289 20.615C21.8781 20.4932 21.8038 20.3826 21.71 20.2896H21.67ZM7.62002 11.9996L8.25002 9.65961L10.59 11.9996H7.62002ZM11.35 17.2796L12.35 13.7196L13.55 14.9096L11.35 17.2796Z" fill="black"/>
</svg>
