<svg width="24" height="24" viewBox="0 0 24 24" fill="none" xmlns="http://www.w3.org/2000/svg">
<path d="M20.54 2.46015C19.7231 1.64123 18.6476 1.13085 17.4967 1.01595C16.3458 0.901049 15.1906 1.18874 14.228 1.83001C13.2653 2.47127 12.5548 3.42645 12.2174 4.53282C11.8801 5.63919 11.9367 6.8283 12.3777 7.89759C12.8187 8.96689 13.6168 9.85021 14.636 10.3971C15.6552 10.9439 16.8325 11.1205 17.9673 10.8968C19.1022 10.673 20.1243 10.0627 20.8596 9.16983C21.5949 8.27698 21.9979 7.15681 22 6.00015C22.0012 5.3431 21.8728 4.69226 21.6223 4.08484C21.3718 3.47743 21.004 2.92534 20.54 2.46015ZM14 6.00015C14 5.2045 14.3161 4.44144 14.8787 3.87883C15.4413 3.31622 16.2044 3.00015 17 3.00015C17.447 3.0028 17.8877 3.1053 18.29 3.30015L14.29 7.30015C14.0971 6.89402 13.998 6.44974 14 6.00015ZM19.12 8.12015C18.6747 8.5434 18.1131 8.82383 17.5072 8.9254C16.9013 9.02698 16.2789 8.94505 15.72 8.69015L19.72 4.69015C19.9109 5.10013 20.0066 5.54796 20 6.00015C19.9993 6.79553 19.6828 7.55808 19.12 8.12015ZM19 13.0001C18.7348 13.0001 18.4804 13.1055 18.2929 13.293C18.1054 13.4806 18 13.7349 18 14.0001V14.3901L16.52 12.9001C15.9878 12.4002 15.2851 12.122 14.555 12.122C13.8249 12.122 13.1222 12.4002 12.59 12.9001L11.89 13.6101L9.41 11.1201C8.87783 10.6202 8.17514 10.342 7.445 10.342C6.71486 10.342 6.01217 10.6202 5.48 11.1201L4 12.6101V7.00015C4 6.73493 4.10536 6.48058 4.29289 6.29304C4.48043 6.10551 4.73478 6.00015 5 6.00015H9C9.26522 6.00015 9.51957 5.89479 9.70711 5.70726C9.89464 5.51972 10 5.26537 10 5.00015C10 4.73493 9.89464 4.48058 9.70711 4.29304C9.51957 4.10551 9.26522 4.00015 9 4.00015H5C4.20435 4.00015 3.44129 4.31622 2.87868 4.87883C2.31607 5.44144 2 6.2045 2 7.00015V19.0001C2 19.7958 2.31607 20.5589 2.87868 21.1215C3.44129 21.6841 4.20435 22.0001 5 22.0001H17C17.3238 21.9951 17.6446 21.9377 17.95 21.8301H18.04C18.5528 21.6472 19.0062 21.328 19.3515 20.907C19.6968 20.486 19.921 19.9789 20 19.4401C20.0056 19.3669 20.0056 19.2934 20 19.2201V14.0001C20 13.7349 19.8946 13.4806 19.7071 13.293C19.5196 13.1055 19.2652 13.0001 19 13.0001ZM5 20.0001C4.73478 20.0001 4.48043 19.8948 4.29289 19.7073C4.10536 19.5197 4 19.2654 4 19.0001V15.4301L6.9 12.5401C7.04691 12.4001 7.24206 12.3221 7.445 12.3221C7.64794 12.3221 7.84309 12.4001 7.99 12.5401L11.18 15.7201L15.46 20.0001H5ZM18 19.0001C17.9936 19.1938 17.931 19.3814 17.82 19.5401L13.3 15.0001L14.01 14.3001C14.1569 14.1601 14.3521 14.0821 14.555 14.0821C14.7579 14.0821 14.9531 14.1601 15.1 14.3001L18 17.2101V19.0001Z" fill="black"/>
</svg>
