<svg width="24" height="24" viewBox="0 0 24 24" fill="none" xmlns="http://www.w3.org/2000/svg">
<path d="M12 7.33004C12.2652 7.33004 12.5195 7.22468 12.7071 7.03714C12.8946 6.84961 13 6.59525 13 6.33004V5.78004L19 4.28004V7.22004L14.7 8.30004C14.4347 8.33186 14.193 8.46774 14.028 8.67778C13.863 8.88782 13.7881 9.15482 13.82 9.42004C13.8518 9.68525 13.9877 9.92697 14.1977 10.092C14.4077 10.257 14.6747 10.3319 14.94 10.3H15.18L20.24 9.00004H20.31L20.5 8.91004L20.65 8.81004C20.6985 8.76482 20.7421 8.71453 20.78 8.66004C20.819 8.61407 20.8525 8.56373 20.88 8.51004C20.9102 8.45397 20.9305 8.39306 20.94 8.33004C20.9493 8.26705 20.9493 8.20303 20.94 8.14004C20.9746 8.10112 20.9957 8.05198 21 8.00004V3.00004C21.0045 2.84584 20.9733 2.69269 20.9088 2.55256C20.8443 2.41243 20.7482 2.28913 20.6281 2.19229C20.5081 2.09545 20.3672 2.02771 20.2166 1.99436C20.066 1.961 19.9097 1.96295 19.76 2.00004L11.76 4.00004C11.5381 4.05479 11.3417 4.18388 11.2034 4.36583C11.0651 4.54778 10.9933 4.7716 11 5.00004V6.33004C11 6.59525 11.1053 6.84961 11.2929 7.03714C11.4804 7.22468 11.7347 7.33004 12 7.33004ZM21.71 20.33L12.71 11.33L3.70996 2.33004C3.51948 2.18266 3.2822 2.10898 3.04175 2.12253C2.80129 2.13608 2.5738 2.23596 2.40109 2.40381C2.22838 2.57166 2.12204 2.7962 2.10162 3.03617C2.08121 3.27614 2.14808 3.51542 2.28996 3.71004L11 12.41V15.35C10.5327 15.1218 10.0199 15.0022 9.49996 15C8.80772 15 8.13103 15.2053 7.55546 15.5899C6.97989 15.9745 6.53129 16.5211 6.26638 17.1606C6.00147 17.8002 5.93216 18.5039 6.06721 19.1829C6.20226 19.8618 6.5356 20.4854 7.02508 20.9749C7.51457 21.4644 8.13821 21.7977 8.81714 21.9328C9.49607 22.0678 10.1998 21.9985 10.8393 21.7336C11.4789 21.4687 12.0255 21.0201 12.4101 20.4445C12.7947 19.869 13 19.1923 13 18.5V14.41L20.29 21.71C20.3829 21.8038 20.4935 21.8782 20.6154 21.9289C20.7372 21.9797 20.8679 22.0058 21 22.0058C21.132 22.0058 21.2627 21.9797 21.3845 21.9289C21.5064 21.8782 21.617 21.8038 21.71 21.71C21.8037 21.6171 21.8781 21.5065 21.9288 21.3846C21.9796 21.2628 22.0058 21.132 22.0058 21C22.0058 20.868 21.9796 20.7373 21.9288 20.6155C21.8781 20.4936 21.8037 20.383 21.71 20.29V20.33ZM9.49996 20C9.20328 20 8.91328 19.9121 8.6666 19.7472C8.41993 19.5824 8.22767 19.3482 8.11414 19.0741C8.00061 18.8 7.9709 18.4984 8.02878 18.2074C8.08666 17.9164 8.22952 17.6492 8.4393 17.4394C8.64908 17.2296 8.91635 17.0867 9.20732 17.0289C9.49829 16.971 9.79989 17.0007 10.074 17.1142C10.3481 17.2277 10.5823 17.42 10.7472 17.6667C10.912 17.9134 11 18.2034 11 18.5C11 18.8979 10.8419 19.2794 10.5606 19.5607C10.2793 19.842 9.89778 20 9.49996 20Z" fill="black"/>
</svg>
