<svg width="24" height="24" viewBox="0 0 24 24" fill="none" xmlns="http://www.w3.org/2000/svg">
<path d="M22.13 2.35967C22.0138 2.26569 21.8781 2.19894 21.7327 2.16433C21.5873 2.12972 21.4361 2.12813 21.29 2.15967C20.9111 2.2441 20.5184 2.24582 20.1387 2.16471C19.7591 2.0836 19.4014 1.92157 19.09 1.68967C18.9187 1.56452 18.7121 1.49707 18.5 1.49707C18.2879 1.49707 18.0813 1.56452 17.91 1.68967C17.5986 1.92157 17.2409 2.0836 16.8613 2.16471C16.4816 2.24582 16.0889 2.2441 15.71 2.15967C15.5639 2.12813 15.4127 2.12972 15.2673 2.16433C15.1219 2.19894 14.9862 2.26569 14.87 2.35967C14.754 2.45379 14.6605 2.5727 14.5965 2.70768C14.5325 2.84266 14.4995 2.99027 14.5 3.13967V6.44967C14.4992 7.16676 14.665 7.87424 14.9843 8.51633C15.3036 9.15841 15.7677 9.71755 16.34 10.1497L17.91 11.3097C18.0813 11.4348 18.2879 11.5023 18.5 11.5023C18.7121 11.5023 18.9187 11.4348 19.09 11.3097L20.66 10.1497C21.2323 9.71755 21.6964 9.15841 22.0157 8.51633C22.335 7.87424 22.5008 7.16676 22.5 6.44967V3.13967C22.5005 2.99027 22.4675 2.84266 22.4035 2.70768C22.3395 2.5727 22.246 2.45379 22.13 2.35967ZM20.5 6.44967C20.5047 6.85139 20.417 7.24881 20.2436 7.61121C20.0702 7.97361 19.8158 8.29129 19.5 8.53967L18.5 9.25967L17.5 8.53967C17.1842 8.29129 16.9298 7.97361 16.7564 7.61121C16.583 7.24881 16.4953 6.85139 16.5 6.44967V4.21967C17.198 4.18707 17.8805 4.0028 18.5 3.67967C19.1195 4.0028 19.802 4.18707 20.5 4.21967V6.44967ZM18.5 13.4997C18.2348 13.4997 17.9804 13.605 17.7929 13.7926C17.6054 13.9801 17.5 14.2345 17.5 14.4997V14.8897L16 13.4097C15.7426 13.1506 15.4364 12.9449 15.0992 12.8046C14.7619 12.6643 14.4003 12.592 14.035 12.592C13.6697 12.592 13.3081 12.6643 12.9708 12.8046C12.6336 12.9449 12.3274 13.1506 12.07 13.4097L11.37 14.1097L8.91 11.6197C8.38012 11.1153 7.67657 10.834 6.945 10.834C6.21343 10.834 5.50988 11.1153 4.98 11.6197L3.5 13.0997V7.49967C3.5 7.23445 3.60536 6.9801 3.79289 6.79256C3.98043 6.60502 4.23478 6.49967 4.5 6.49967H11.5C11.7652 6.49967 12.0196 6.39431 12.2071 6.20677C12.3946 6.01924 12.5 5.76488 12.5 5.49967C12.5 5.23445 12.3946 4.9801 12.2071 4.79256C12.0196 4.60502 11.7652 4.49967 11.5 4.49967H4.5C3.70435 4.49967 2.94129 4.81574 2.37868 5.37835C1.81607 5.94096 1.5 6.70402 1.5 7.49967V19.4997C1.5 20.2953 1.81607 21.0584 2.37868 21.621C2.94129 22.1836 3.70435 22.4997 4.5 22.4997H16.5C17.2956 22.4997 18.0587 22.1836 18.6213 21.621C19.1839 21.0584 19.5 20.2953 19.5 19.4997V14.4997C19.5 14.2345 19.3946 13.9801 19.2071 13.7926C19.0196 13.605 18.7652 13.4997 18.5 13.4997ZM4.5 20.4997C4.23478 20.4997 3.98043 20.3943 3.79289 20.2068C3.60536 20.0192 3.5 19.7649 3.5 19.4997V15.9297L6.4 12.9997C6.54691 12.8597 6.74206 12.7816 6.945 12.7816C7.14794 12.7816 7.34309 12.8597 7.49 12.9997L10.66 16.1697L15 20.4997H4.5ZM17.5 19.4997C17.4917 19.6899 17.4292 19.8737 17.32 20.0297L12.81 15.5197L13.51 14.8197C13.6562 14.6743 13.8539 14.5927 14.06 14.5927C14.2661 14.5927 14.4638 14.6743 14.61 14.8197L17.5 17.7197V19.4997Z" fill="black"/>
</svg>
