<svg width="24" height="24" viewBox="0 0 24 24" fill="none" xmlns="http://www.w3.org/2000/svg">
<path d="M20.6699 5.85019C20.2654 5.61186 19.8045 5.48617 19.3349 5.48617C18.8654 5.48617 18.4045 5.61186 17.9999 5.85019L13.9999 8.15019C13.999 7.68243 13.8753 7.22312 13.641 6.81825C13.4068 6.41337 13.0703 6.07714 12.6652 5.84321C12.2601 5.60929 11.8007 5.48588 11.333 5.48535C10.8652 5.48482 10.4055 5.60718 9.99995 5.84019L3.32995 9.69019C2.92513 9.92483 2.58908 10.2617 2.35547 10.6672C2.12186 11.0726 1.9989 11.5323 1.9989 12.0002C1.9989 12.4681 2.12186 12.9278 2.35547 13.3332C2.58908 13.7386 2.92513 14.0755 3.32995 14.3102L9.99995 18.1602C10.4055 18.3955 10.8661 18.5195 11.3349 18.5195C11.8038 18.5195 12.2644 18.3955 12.6699 18.1602C13.0759 17.927 13.4129 17.5903 13.6465 17.1846C13.8801 16.7788 14.0021 16.3184 13.9999 15.8502L17.9999 18.1602C18.4045 18.3936 18.8629 18.5177 19.3299 18.5202C19.8018 18.5203 20.2649 18.3924 20.6699 18.1502C21.0758 17.9194 21.413 17.5847 21.6467 17.1805C21.8805 16.7763 22.0024 16.3171 21.9999 15.8502V8.15019C22.0024 7.68326 21.8805 7.22411 21.6467 6.81989C21.413 6.41568 21.0758 6.08098 20.6699 5.85019ZM11.9999 15.8502C12.0014 15.9675 11.9716 16.083 11.9136 16.185C11.8556 16.2869 11.7715 16.3716 11.6699 16.4302C11.5675 16.4871 11.4522 16.517 11.3349 16.517C11.2177 16.517 11.1024 16.4871 10.9999 16.4302L4.32995 12.5802C4.2282 12.5214 4.14373 12.4368 4.085 12.335C4.02627 12.2332 3.99536 12.1177 3.99536 12.0002C3.99536 11.8827 4.02627 11.7672 4.085 11.6654C4.14373 11.5636 4.2282 11.479 4.32995 11.4202L10.9999 7.57019C11.1018 7.51138 11.2173 7.48042 11.3349 7.48042C11.4526 7.48042 11.5681 7.51138 11.6699 7.57019C11.7715 7.62882 11.8556 7.71347 11.9136 7.81541C11.9716 7.91735 12.0014 8.03291 11.9999 8.15019V15.8502ZM19.9999 15.8502C19.9977 15.9662 19.9653 16.0796 19.9061 16.1794C19.8468 16.2791 19.7627 16.3618 19.6619 16.4192C19.5611 16.4767 19.4471 16.507 19.331 16.5072C19.215 16.5073 19.1009 16.4774 18.9999 16.4202L13.9999 13.5402V10.4602L18.9999 7.58019C19.1009 7.52302 19.215 7.49305 19.331 7.49321C19.4471 7.49338 19.5611 7.52367 19.6619 7.58113C19.7627 7.63859 19.8468 7.72124 19.9061 7.82099C19.9653 7.92075 19.9977 8.03418 19.9999 8.15019V15.8502Z" fill="black"/>
</svg>
