<svg width="24" height="24" viewBox="0 0 24 24" fill="none" xmlns="http://www.w3.org/2000/svg">
<path d="M20.28 3.42977C19.7819 3.13501 19.2138 2.97949 18.635 2.97949C18.0562 2.97949 17.4881 3.13501 16.99 3.42977L8 8.83977V5.99977C8 5.20412 7.68393 4.44106 7.12132 3.87845C6.55871 3.31584 5.79565 2.99977 5 2.99977C4.20435 2.99977 3.44129 3.31584 2.87868 3.87845C2.31607 4.44106 2 5.20412 2 5.99977V17.9998C2 18.7954 2.31607 19.5585 2.87868 20.1211C3.44129 20.6837 4.20435 20.9998 5 20.9998C5.79565 20.9998 6.55871 20.6837 7.12132 20.1211C7.68393 19.5585 8 18.7954 8 17.9998V15.1598L17 20.5298C17.5073 20.8352 18.0878 20.9976 18.68 20.9998C19.245 20.9993 19.8 20.851 20.29 20.5698C20.8203 20.2709 21.26 19.8344 21.5627 19.3064C21.8654 18.7783 22.02 18.1784 22.01 17.5698V6.41977C22.0172 5.81186 21.8603 5.21328 21.5558 4.68707C21.2514 4.16085 20.8106 3.7265 20.28 3.42977ZM6 17.9998C6 18.265 5.89464 18.5193 5.70711 18.7069C5.51957 18.8944 5.26522 18.9998 5 18.9998C4.73478 18.9998 4.48043 18.8944 4.29289 18.7069C4.10536 18.5193 4 18.265 4 17.9998V5.99977C4 5.73455 4.10536 5.4802 4.29289 5.29266C4.48043 5.10512 4.73478 4.99977 5 4.99977C5.26522 4.99977 5.51957 5.10512 5.70711 5.29266C5.89464 5.4802 6 5.73455 6 5.99977V17.9998ZM20 17.5798C20.0057 17.8328 19.9427 18.0827 19.8177 18.3029C19.6927 18.523 19.5103 18.7051 19.29 18.8298C19.0972 18.9472 18.8758 19.0094 18.65 19.0094C18.4242 19.0094 18.2028 18.9472 18.01 18.8298L8.68 13.2298C8.47128 13.0995 8.29914 12.9182 8.17981 12.703C8.06047 12.4878 7.99785 12.2458 7.99785 11.9998C7.99785 11.7537 8.06047 11.5117 8.17981 11.2965C8.29914 11.0813 8.47128 10.9001 8.68 10.7698L18 5.18977C18.2004 5.06321 18.433 4.99723 18.67 4.99977C18.8877 5.0032 19.101 5.06169 19.29 5.16977C19.5103 5.29447 19.6927 5.47656 19.8177 5.69668C19.9427 5.91679 20.0057 6.16669 20 6.41977V17.5798Z" fill="black"/>
</svg>
