<svg width="24" height="24" viewBox="0 0 24 24" fill="none" xmlns="http://www.w3.org/2000/svg">
<path d="M5.70994 6.29C5.61484 6.19896 5.50269 6.12759 5.37994 6.08C5.13648 5.97998 4.8634 5.97998 4.61994 6.08C4.49719 6.12759 4.38505 6.19896 4.28994 6.29L2.28994 8.29C2.10164 8.4783 1.99585 8.7337 1.99585 9C1.99585 9.2663 2.10164 9.5217 2.28994 9.71C2.47824 9.8983 2.73364 10.0041 2.99994 10.0041C3.26624 10.0041 3.52164 9.8983 3.70994 9.71L3.99994 9.41V17C3.99994 17.2652 4.1053 17.5196 4.29283 17.7071C4.48037 17.8946 4.73472 18 4.99994 18C5.26516 18 5.51951 17.8946 5.70705 17.7071C5.89458 17.5196 5.99994 17.2652 5.99994 17V9.41L6.28994 9.71C6.3829 9.80373 6.49351 9.87812 6.61536 9.92889C6.73722 9.97966 6.86793 10.0058 6.99994 10.0058C7.13195 10.0058 7.26266 9.97966 7.38452 9.92889C7.50638 9.87812 7.61698 9.80373 7.70994 9.71C7.80367 9.61704 7.87806 9.50644 7.92883 9.38458C7.9796 9.26272 8.00574 9.13201 8.00574 9C8.00574 8.86799 7.9796 8.73728 7.92883 8.61542C7.87806 8.49356 7.80367 8.38296 7.70994 8.29L5.70994 6.29ZM10.9999 8H20.9999C21.2652 8 21.5195 7.89464 21.707 7.70711C21.8946 7.51957 21.9999 7.26522 21.9999 7C21.9999 6.73478 21.8946 6.48043 21.707 6.29289C21.5195 6.10536 21.2652 6 20.9999 6H10.9999C10.7347 6 10.4804 6.10536 10.2928 6.29289C10.1053 6.48043 9.99994 6.73478 9.99994 7C9.99994 7.26522 10.1053 7.51957 10.2928 7.70711C10.4804 7.89464 10.7347 8 10.9999 8ZM20.9999 16H10.9999C10.7347 16 10.4804 16.1054 10.2928 16.2929C10.1053 16.4804 9.99994 16.7348 9.99994 17C9.99994 17.2652 10.1053 17.5196 10.2928 17.7071C10.4804 17.8946 10.7347 18 10.9999 18H20.9999C21.2652 18 21.5195 17.8946 21.707 17.7071C21.8946 17.5196 21.9999 17.2652 21.9999 17C21.9999 16.7348 21.8946 16.4804 21.707 16.2929C21.5195 16.1054 21.2652 16 20.9999 16ZM20.9999 11H10.9999C10.7347 11 10.4804 11.1054 10.2928 11.2929C10.1053 11.4804 9.99994 11.7348 9.99994 12C9.99994 12.2652 10.1053 12.5196 10.2928 12.7071C10.4804 12.8946 10.7347 13 10.9999 13H20.9999C21.2652 13 21.5195 12.8946 21.707 12.7071C21.8946 12.5196 21.9999 12.2652 21.9999 12C21.9999 11.7348 21.8946 11.4804 21.707 11.2929C21.5195 11.1054 21.2652 11 20.9999 11Z" fill="black"/>
</svg>
