<svg width="24" height="24" viewBox="0 0 24 24" fill="none" xmlns="http://www.w3.org/2000/svg">
<path d="M15.9999 16H10.4099L13.7099 12.71C13.8036 12.617 13.878 12.5064 13.9288 12.3846C13.9796 12.2627 14.0057 12.132 14.0057 12C14.0057 11.868 13.9796 11.7373 13.9288 11.6154C13.878 11.4936 13.8036 11.383 13.7099 11.29L10.4099 8H15.9999C16.2651 8 16.5195 7.89464 16.707 7.70711C16.8945 7.51957 16.9999 7.26522 16.9999 7C16.9999 6.73478 16.8945 6.48043 16.707 6.29289C16.5195 6.10536 16.2651 6 15.9999 6H7.9999C7.80247 6.00099 7.60975 6.06039 7.44603 6.17072C7.28231 6.28105 7.15492 6.43738 7.0799 6.62C7.00332 6.80211 6.98239 7.00282 7.01977 7.19681C7.05714 7.3908 7.15114 7.56938 7.2899 7.71L11.5899 12L7.2899 16.29C7.15114 16.4306 7.05714 16.6092 7.01977 16.8032C6.98239 16.9972 7.00332 17.1979 7.0799 17.38C7.15492 17.5626 7.28231 17.7189 7.44603 17.8293C7.60975 17.9396 7.80247 17.999 7.9999 18H15.9999C16.2651 18 16.5195 17.8946 16.707 17.7071C16.8945 17.5196 16.9999 17.2652 16.9999 17C16.9999 16.7348 16.8945 16.4804 16.707 16.2929C16.5195 16.1054 16.2651 16 15.9999 16Z" fill="black"/>
</svg>
