<svg width="24" height="24" viewBox="0 0 24 24" fill="none" xmlns="http://www.w3.org/2000/svg">
<path d="M3.64005 9.56C3.43583 9.39026 3.17255 9.3086 2.90813 9.33298C2.6437 9.35736 2.39979 9.48578 2.23005 9.69C2.06031 9.89422 1.97865 10.1575 2.00303 10.4219C2.02741 10.6863 2.15583 10.9303 2.36005 11.1L3.44005 12L2.36005 12.9C2.25879 12.9839 2.17509 13.087 2.11374 13.2034C2.05239 13.3197 2.01459 13.4471 2.00251 13.578C1.99044 13.709 2.00432 13.8411 2.04336 13.9667C2.08241 14.0923 2.14585 14.209 2.23005 14.31C2.314 14.4113 2.4171 14.495 2.53345 14.5563C2.6498 14.6177 2.7771 14.6555 2.90808 14.6675C3.03906 14.6796 3.17113 14.6657 3.29673 14.6267C3.42234 14.5876 3.539 14.5242 3.64005 14.44L5.64005 12.77C5.75329 12.6762 5.84444 12.5585 5.90701 12.4254C5.96957 12.2923 6.00201 12.1471 6.00201 12C6.00201 11.8529 5.96957 11.7077 5.90701 11.5746C5.84444 11.4415 5.75329 11.3238 5.64005 11.23L3.64005 9.56ZM9.00005 5C8.73484 5 8.48048 5.10536 8.29294 5.29289C8.10541 5.48043 8.00005 5.73478 8.00005 6V18C8.00005 18.2652 8.10541 18.5196 8.29294 18.7071C8.48048 18.8946 8.73484 19 9.00005 19C9.26527 19 9.51962 18.8946 9.70716 18.7071C9.89469 18.5196 10.0001 18.2652 10.0001 18V6C10.0001 5.73478 9.89469 5.48043 9.70716 5.29289C9.51962 5.10536 9.26527 5 9.00005 5ZM13.0001 7H21.0001C21.2653 7 21.5196 6.89464 21.7072 6.70711C21.8947 6.51957 22.0001 6.26522 22.0001 6C22.0001 5.73478 21.8947 5.48043 21.7072 5.29289C21.5196 5.10536 21.2653 5 21.0001 5H13.0001C12.7348 5 12.4805 5.10536 12.2929 5.29289C12.1054 5.48043 12.0001 5.73478 12.0001 6C12.0001 6.26522 12.1054 6.51957 12.2929 6.70711C12.4805 6.89464 12.7348 7 13.0001 7ZM21.0001 17H13.0001C12.7348 17 12.4805 17.1054 12.2929 17.2929C12.1054 17.4804 12.0001 17.7348 12.0001 18C12.0001 18.2652 12.1054 18.5196 12.2929 18.7071C12.4805 18.8946 12.7348 19 13.0001 19H21.0001C21.2653 19 21.5196 18.8946 21.7072 18.7071C21.8947 18.5196 22.0001 18.2652 22.0001 18C22.0001 17.7348 21.8947 17.4804 21.7072 17.2929C21.5196 17.1054 21.2653 17 21.0001 17ZM21.0001 9H13.0001C12.7348 9 12.4805 9.10536 12.2929 9.29289C12.1054 9.48043 12.0001 9.73478 12.0001 10C12.0001 10.2652 12.1054 10.5196 12.2929 10.7071C12.4805 10.8946 12.7348 11 13.0001 11H21.0001C21.2653 11 21.5196 10.8946 21.7072 10.7071C21.8947 10.5196 22.0001 10.2652 22.0001 10C22.0001 9.73478 21.8947 9.48043 21.7072 9.29289C21.5196 9.10536 21.2653 9 21.0001 9ZM21.0001 13H13.0001C12.7348 13 12.4805 13.1054 12.2929 13.2929C12.1054 13.4804 12.0001 13.7348 12.0001 14C12.0001 14.2652 12.1054 14.5196 12.2929 14.7071C12.4805 14.8946 12.7348 15 13.0001 15H21.0001C21.2653 15 21.5196 14.8946 21.7072 14.7071C21.8947 14.5196 22.0001 14.2652 22.0001 14C22.0001 13.7348 21.8947 13.4804 21.7072 13.2929C21.5196 13.1054 21.2653 13 21.0001 13Z" fill="black"/>
</svg>
