<svg width="24" height="24" viewBox="0 0 24 24" fill="none" xmlns="http://www.w3.org/2000/svg">
<path d="M21.7099 20.2902L5.70994 4.29019L3.70994 2.29019C3.52164 2.10188 3.26624 1.99609 2.99994 1.99609C2.73364 1.99609 2.47824 2.10188 2.28994 2.29019C2.10164 2.47849 1.99585 2.73388 1.99585 3.00019C1.99585 3.26649 2.10164 3.52188 2.28994 3.71019L3.99994 5.41019V11.8802C4.00064 13.3122 4.34307 14.7235 4.99876 15.9966C5.65446 17.2697 6.6045 18.368 7.76994 19.2002L11.4199 21.8102C11.5893 21.9308 11.792 21.9956 11.9999 21.9956C12.2078 21.9956 12.4106 21.9308 12.5799 21.8102L16.2299 19.2002C16.5321 18.9865 16.8194 18.7526 17.0899 18.5002L20.2899 21.7102C20.3829 21.8039 20.4935 21.8783 20.6154 21.9291C20.7372 21.9798 20.8679 22.006 20.9999 22.006C21.132 22.006 21.2627 21.9798 21.3845 21.9291C21.5064 21.8783 21.617 21.8039 21.7099 21.7102C21.8037 21.6172 21.8781 21.5066 21.9288 21.3848C21.9796 21.2629 22.0057 21.1322 22.0057 21.0002C22.0057 20.8682 21.9796 20.7375 21.9288 20.6156C21.8781 20.4937 21.8037 20.3831 21.7099 20.2902ZM15.0699 17.5802L11.9999 19.7702L8.92994 17.5802C8.02298 16.932 7.28393 16.0766 6.77429 15.0852C6.26466 14.0938 5.99917 12.9949 5.99994 11.8802V7.41019L15.6699 17.0902C15.4799 17.2602 15.2799 17.4202 15.0699 17.5802ZM10.0699 5.07019C10.7422 4.84506 11.3891 4.55012 11.9999 4.19019C13.7991 5.28494 15.9026 5.77225 17.9999 5.58019V11.8802C18.0006 12.2757 17.9671 12.6705 17.8999 13.0602C17.8785 13.1902 17.8831 13.3232 17.9132 13.4515C17.9434 13.5798 17.9987 13.7009 18.0758 13.8078C18.1529 13.9146 18.2504 14.0052 18.3627 14.0743C18.475 14.1433 18.5998 14.1895 18.7299 14.2102H18.8899C19.1296 14.2133 19.3625 14.1302 19.546 13.976C19.7296 13.8218 19.8516 13.6068 19.8899 13.3702C19.9684 12.874 20.0086 12.3725 20.0099 11.8702V4.43019C20.009 4.28248 19.9753 4.13682 19.9113 4.00369C19.8473 3.87055 19.7547 3.75324 19.6399 3.66019C19.5258 3.56592 19.3921 3.49818 19.2486 3.46187C19.105 3.42555 18.9552 3.42156 18.8099 3.45019C17.7402 3.68223 16.6339 3.68915 15.5614 3.47051C14.4888 3.25187 13.4735 2.81245 12.5799 2.18019C12.4125 2.06406 12.2137 2.00183 12.0099 2.00183C11.8062 2.00183 11.6073 2.06406 11.4399 2.18019C10.8234 2.6055 10.1501 2.94212 9.43994 3.18019C9.31519 3.22221 9.19993 3.28839 9.10075 3.37496C9.00157 3.46152 8.92042 3.56678 8.86192 3.68471C8.80342 3.80264 8.76871 3.93094 8.7598 4.06228C8.75088 4.19362 8.76792 4.32543 8.80994 4.45019C8.85196 4.57494 8.91815 4.6902 9.00471 4.78938C9.09128 4.88855 9.19653 4.96971 9.31446 5.02821C9.55264 5.14636 9.82799 5.16505 10.0799 5.08019L10.0699 5.07019Z" fill="black"/>
</svg>
