<svg width="24" height="24" viewBox="0 0 24 24" fill="none" xmlns="http://www.w3.org/2000/svg">
<path d="M12.92 15.0003C12.9 14.9389 12.8696 14.8814 12.83 14.8303L12.71 14.6803C12.617 14.5866 12.5064 14.5122 12.3846 14.4614C12.2627 14.4106 12.132 14.3845 12 14.3845C11.868 14.3845 11.7373 14.4106 11.6154 14.4614C11.4936 14.5122 11.383 14.5866 11.29 14.6803C11.2423 14.7237 11.2018 14.7743 11.17 14.8303C11.1304 14.8814 11.1 14.9389 11.08 15.0003C11.051 15.0605 11.0308 15.1244 11.02 15.1903C11.0151 15.2535 11.0151 15.3171 11.02 15.3803C11.0165 15.5147 11.0439 15.6481 11.1 15.7703C11.2018 16.0135 11.3954 16.2067 11.6389 16.3078C11.8823 16.4089 12.1559 16.4098 12.4 16.3103C12.5215 16.256 12.6331 16.1816 12.73 16.0903C12.82 15.9982 12.8913 15.8895 12.94 15.7703C12.9925 15.647 13.0197 15.5144 13.02 15.3803C13.0249 15.3171 13.0249 15.2535 13.02 15.1903C12.9966 15.1222 12.9629 15.0581 12.92 15.0003ZM12 7.36031C11.7348 7.36031 11.4804 7.46567 11.2929 7.6532C11.1054 7.84074 11 8.09509 11 8.36031V11.3603C11 11.6255 11.1054 11.8799 11.2929 12.0674C11.4804 12.255 11.7348 12.3603 12 12.3603C12.2652 12.3603 12.5196 12.255 12.7071 12.0674C12.8946 11.8799 13 11.6255 13 11.3603V8.36031C13 8.09509 12.8946 7.84074 12.7071 7.6532C12.5196 7.46567 12.2652 7.36031 12 7.36031ZM19.63 3.65031C19.5138 3.55633 19.3781 3.48958 19.2327 3.45497C19.0873 3.42036 18.9361 3.41877 18.79 3.45031C17.7214 3.67425 16.6183 3.67711 15.5486 3.45869C14.4789 3.24028 13.4653 2.80522 12.57 2.18031C12.4026 2.06418 12.2037 2.00195 12 2.00195C11.7963 2.00195 11.5974 2.06418 11.43 2.18031C10.5348 2.80522 9.52108 3.24028 8.45137 3.45869C7.38166 3.67711 6.27857 3.67425 5.21001 3.45031C5.06394 3.41877 4.91267 3.42036 4.76731 3.45497C4.62194 3.48958 4.48618 3.55633 4.37001 3.65031C4.25399 3.74443 4.16053 3.86334 4.0965 3.99832C4.03247 4.1333 3.9995 4.28091 4.00001 4.43031V11.8803C3.99912 13.3141 4.34078 14.7273 4.99654 16.0023C5.6523 17.2773 6.60319 18.3771 7.77001 19.2103L11.42 21.8103C11.5894 21.9309 11.7921 21.9957 12 21.9957C12.2079 21.9957 12.4106 21.9309 12.58 21.8103L16.23 19.2103C17.3968 18.3771 18.3477 17.2773 19.0035 16.0023C19.6592 14.7273 20.0009 13.3141 20 11.8803V4.43031C20.0005 4.28091 19.9675 4.1333 19.9035 3.99832C19.8395 3.86334 19.746 3.74443 19.63 3.65031ZM18 11.8803C18.0008 12.9951 17.7353 14.0939 17.2257 15.0853C16.716 16.0768 15.977 16.9322 15.07 17.5803L12 19.7703L8.93001 17.5803C8.02304 16.9322 7.28399 16.0768 6.77435 15.0853C6.26472 14.0939 5.99924 12.9951 6.00001 11.8803V5.58031C8.09643 5.75974 10.196 5.27333 12 4.19031C13.804 5.27333 15.9036 5.75974 18 5.58031V11.8803Z" fill="black"/>
</svg>
