<svg width="24" height="24" viewBox="0 0 24 24" fill="none" xmlns="http://www.w3.org/2000/svg">
<path d="M6.76994 9.15019L12.2099 3.71019C12.3032 3.61695 12.3771 3.50626 12.4276 3.38443C12.4781 3.26261 12.504 3.13204 12.504 3.00019C12.504 2.86833 12.4781 2.73776 12.4276 2.61594C12.3771 2.49411 12.3032 2.38342 12.2099 2.29019C12.1167 2.19695 12.006 2.12299 11.8842 2.07253C11.7624 2.02207 11.6318 1.99609 11.4999 1.99609C11.2336 1.99609 10.9782 2.10188 10.7899 2.29019L6.05994 7.00019L4.20994 5.17019C4.02164 4.98188 3.76624 4.87609 3.49994 4.87609C3.23364 4.87609 2.97824 4.98188 2.78994 5.17019C2.60164 5.35849 2.49585 5.61388 2.49585 5.88019C2.49585 6.14649 2.60164 6.40188 2.78994 6.59019L5.34994 9.15019C5.4429 9.24391 5.55351 9.31831 5.67536 9.36908C5.79722 9.41985 5.92793 9.44598 6.05994 9.44598C6.19195 9.44598 6.32266 9.41985 6.44452 9.36908C6.56638 9.31831 6.67698 9.24391 6.76994 9.15019ZM18.4999 6.00019H12.9999C12.7347 6.00019 12.4804 6.10554 12.2928 6.29308C12.1053 6.48062 11.9999 6.73497 11.9999 7.00019C11.9999 7.2654 12.1053 7.51976 12.2928 7.70729C12.4804 7.89483 12.7347 8.00019 12.9999 8.00019H18.4999C18.7652 8.00019 19.0195 8.10554 19.207 8.29308C19.3946 8.48062 19.4999 8.73497 19.4999 9.00019V18.7202L17.9299 17.2702C17.7455 17.0975 17.5026 17.0011 17.2499 17.0002H8.49994C8.23472 17.0002 7.98037 16.8948 7.79283 16.7073C7.6053 16.5198 7.49994 16.2654 7.49994 16.0002V12.5002C7.49994 12.235 7.39458 11.9806 7.20705 11.7931C7.01951 11.6055 6.76516 11.5002 6.49994 11.5002C6.23472 11.5002 5.98037 11.6055 5.79283 11.7931C5.6053 11.9806 5.49994 12.235 5.49994 12.5002V16.0002C5.49994 16.7958 5.81601 17.5589 6.37862 18.1215C6.94123 18.6841 7.70429 19.0002 8.49994 19.0002H16.8599L19.8599 21.7302C20.0444 21.9028 20.2873 21.9993 20.5399 22.0002C20.6771 21.9987 20.8128 21.9716 20.9399 21.9202C21.1188 21.8421 21.2709 21.7134 21.3776 21.5499C21.4842 21.3865 21.5406 21.1954 21.5399 21.0002V9.00019C21.54 8.60283 21.4611 8.20943 21.3078 7.84282C21.1546 7.47621 20.93 7.1437 20.6472 6.8646C20.3643 6.58549 20.0289 6.36535 19.6603 6.21696C19.2917 6.06857 18.8973 5.99489 18.4999 6.00019Z" fill="black"/>
</svg>
