<svg width="24" height="24" viewBox="0 0 24 24" fill="none" xmlns="http://www.w3.org/2000/svg">
<path d="M15.2901 8.85L10.5601 13.59L8.71011 11.73C8.52181 11.5417 8.26641 11.4359 8.00011 11.4359C7.73381 11.4359 7.47841 11.5417 7.29011 11.73C7.10181 11.9183 6.99602 12.1737 6.99602 12.44C6.99602 12.5719 7.02199 12.7024 7.07245 12.8242C7.12291 12.9461 7.19687 13.0568 7.29011 13.15L9.85011 15.71C9.94307 15.8037 10.0537 15.8781 10.1755 15.9289C10.2974 15.9797 10.4281 16.0058 10.5601 16.0058C10.6921 16.0058 10.8228 15.9797 10.9447 15.9289C11.0665 15.8781 11.1771 15.8037 11.2701 15.71L16.7101 10.27C16.8033 10.1768 16.8773 10.0661 16.9278 9.94425C16.9782 9.82243 17.0042 9.69186 17.0042 9.56C17.0042 9.42814 16.9782 9.29757 16.9278 9.17575C16.8773 9.05393 16.8033 8.94324 16.7101 8.85C16.6169 8.75676 16.5062 8.6828 16.3844 8.63234C16.2625 8.58188 16.132 8.55591 16.0001 8.55591C15.8683 8.55591 15.7377 8.58188 15.6159 8.63234C15.494 8.6828 15.3833 8.75676 15.2901 8.85ZM12.0001 2C10.6869 2 9.38653 2.25866 8.17328 2.7612C6.96002 3.26375 5.85763 4.00035 4.92904 4.92893C3.05368 6.8043 2.00011 9.34784 2.00011 12C1.99137 14.3091 2.7909 16.5485 4.26011 18.33L2.26011 20.33C2.12135 20.4706 2.02736 20.6492 1.98998 20.8432C1.95261 21.0372 1.97353 21.2379 2.05011 21.42C2.13317 21.5999 2.26781 21.7511 2.43696 21.8544C2.6061 21.9577 2.80211 22.0083 3.00011 22H12.0001C14.6523 22 17.1958 20.9464 19.0712 19.0711C20.9465 17.1957 22.0001 14.6522 22.0001 12C22.0001 9.34784 20.9465 6.8043 19.0712 4.92893C17.1958 3.05357 14.6523 2 12.0001 2ZM12.0001 20H5.41011L6.34011 19.07C6.52636 18.8826 6.6309 18.6292 6.6309 18.365C6.6309 18.1008 6.52636 17.8474 6.34011 17.66C5.0307 16.352 4.21528 14.6305 4.0328 12.7888C3.85032 10.947 4.31205 9.09901 5.33934 7.55952C6.36662 6.02004 7.8959 4.88436 9.66663 4.34597C11.4374 3.80759 13.34 3.8998 15.0503 4.60691C16.7607 5.31402 18.173 6.59227 19.0465 8.22389C19.9201 9.85551 20.201 11.7395 19.8412 13.555C19.4815 15.3705 18.5034 17.005 17.0736 18.1802C15.6439 19.3554 13.8509 19.9985 12.0001 20Z" fill="black"/>
</svg>
