<svg width="24" height="24" viewBox="0 0 24 24" fill="none" xmlns="http://www.w3.org/2000/svg">
<path d="M19.0001 5.99999H15.0001C14.7349 5.99999 14.4805 6.10535 14.293 6.29289C14.1055 6.48042 14.0001 6.73478 14.0001 6.99999C14.0001 7.26521 14.1055 7.51956 14.293 7.7071C14.4805 7.89464 14.7349 7.99999 15.0001 7.99999H19.0001C19.2653 7.99999 19.5197 8.10535 19.7072 8.29289C19.8948 8.48042 20.0001 8.73478 20.0001 8.99999V18.72L18.4301 17.27C18.2457 17.0973 18.0027 17.0009 17.7501 17H9.00011C8.73489 17 8.48054 16.8946 8.293 16.7071C8.10547 16.5196 8.00011 16.2652 8.00011 16V15C8.00011 14.7348 7.89475 14.4804 7.70722 14.2929C7.51968 14.1054 7.26533 14 7.00011 14C6.73489 14 6.48054 14.1054 6.293 14.2929C6.10547 14.4804 6.00011 14.7348 6.00011 15V16C6.00011 16.7956 6.31618 17.5587 6.87879 18.1213C7.4414 18.6839 8.20446 19 9.00011 19H17.3601L20.3601 21.73C20.5343 21.8936 20.7614 21.9894 21.0001 22C21.1373 21.9985 21.2729 21.9714 21.4001 21.92C21.579 21.8419 21.7311 21.7132 21.8377 21.5497C21.9443 21.3863 22.0008 21.1952 22.0001 21V8.99999C22.0001 8.20434 21.684 7.44128 21.1214 6.87867C20.5588 6.31606 19.7958 5.99999 19.0001 5.99999ZM10.5401 10.54C11.359 9.72314 11.8694 8.64763 11.9843 7.49669C12.0992 6.34575 11.8115 5.19057 11.1703 4.22794C10.529 3.26532 9.57381 2.5548 8.46744 2.21742C7.36107 1.88005 6.17196 1.93669 5.10267 2.37769C4.03337 2.8187 3.15005 3.61679 2.60319 4.63601C2.05632 5.65523 1.87973 6.83253 2.10351 7.96734C2.32728 9.10215 2.93758 10.1243 3.83043 10.8596C4.72328 11.5949 5.84345 11.9979 7.00011 12C7.65716 12.0012 8.308 11.8728 8.91542 11.6223C9.52283 11.3718 10.0749 11.004 10.5401 10.54ZM4.00011 6.99999C4.00011 6.20434 4.31618 5.44128 4.87879 4.87867C5.4414 4.31606 6.20446 3.99999 7.00011 3.99999C7.44371 4.00412 7.88087 4.10658 8.28011 4.29999L4.28011 8.29999C4.0907 7.89306 3.99502 7.44882 4.00011 6.99999ZM9.70011 5.70999C9.89496 6.11227 9.99746 6.55301 10.0001 6.99999C9.99789 7.50444 9.8685 8.00018 9.62391 8.44137C9.37932 8.88256 9.02743 9.25494 8.60078 9.52409C8.17413 9.79324 7.6865 9.95046 7.18299 9.9812C6.67947 10.0119 6.17634 9.91523 5.72011 9.69999L9.70011 5.70999Z" fill="black"/>
</svg>
