<svg width="24" height="24" viewBox="0 0 24 24" fill="none" xmlns="http://www.w3.org/2000/svg">
<path d="M18.9999 14.0001C18.8725 13.9671 18.7398 13.9595 18.6095 13.9778C18.4792 13.9961 18.3538 14.04 18.2404 14.1069C18.1271 14.1738 18.0281 14.2624 17.949 14.3676C17.87 14.4728 17.8125 14.5927 17.7799 14.7201C17.3975 16.2287 16.5233 17.5668 15.2955 18.523C14.0676 19.4792 12.5561 19.9989 10.9999 20.0001H5.4099L6.0499 19.3701C6.23615 19.1828 6.34069 18.9293 6.34069 18.6651C6.34069 18.401 6.23615 18.1475 6.0499 17.9601C5.17398 17.0877 4.54474 15.9989 4.22615 14.8044C3.90756 13.6099 3.91099 12.3524 4.2361 11.1596C4.56121 9.96691 5.19639 8.88154 6.07705 8.01393C6.95771 7.14632 8.05244 6.52741 9.2499 6.22015C9.37728 6.18732 9.49695 6.12972 9.60207 6.05064C9.70719 5.97156 9.79571 5.87255 9.86257 5.75927C9.92942 5.64598 9.97331 5.52063 9.99173 5.39038C10.0101 5.26013 10.0027 5.12753 9.9699 5.00015C9.90359 4.74289 9.73781 4.5225 9.50901 4.38748C9.39573 4.32062 9.27038 4.27673 9.14013 4.25831C9.00988 4.2399 8.87728 4.24732 8.7499 4.28015C7.2969 4.65899 5.96178 5.39537 4.86616 6.42218C3.77054 7.449 2.94924 8.73362 2.47709 10.159C2.00493 11.5844 1.89692 13.1053 2.1629 14.5832C2.42888 16.061 3.06038 17.4488 3.9999 18.6201L2.2899 20.2901C2.15114 20.4308 2.05714 20.6093 2.01977 20.8033C1.98239 20.9973 2.00332 21.198 2.0799 21.3801C2.15492 21.5628 2.28231 21.7191 2.44603 21.8294C2.60975 21.9398 2.80247 21.9992 2.9999 22.0001H10.9999C12.9961 22.0014 14.9362 21.339 16.5147 20.117C18.0933 18.8951 19.2208 17.183 19.7199 15.2501C19.7575 15.1208 19.7686 14.9851 19.7525 14.8514C19.7364 14.7176 19.6935 14.5885 19.6262 14.4717C19.559 14.355 19.4688 14.253 19.3612 14.172C19.2536 14.091 19.1307 14.0325 18.9999 14.0001ZM20.5399 3.46015C19.723 2.64123 18.6475 2.13085 17.4966 2.01595C16.3457 1.90105 15.1905 2.18874 14.2278 2.83001C13.2652 3.47127 12.5547 4.42645 12.2173 5.53282C11.8799 6.63919 11.9366 7.8283 12.3776 8.89759C12.8186 9.96689 13.6167 10.8502 14.6359 11.3971C15.6551 11.9439 16.8324 12.1205 17.9672 11.8968C19.102 11.673 20.1242 11.0627 20.8595 10.1698C21.5948 9.27698 21.9978 8.15681 21.9999 7.00015C22.0011 6.3431 21.8727 5.69226 21.6222 5.08484C21.3717 4.47743 21.0039 3.92534 20.5399 3.46015ZM13.9999 7.00015C13.9999 6.2045 14.316 5.44144 14.8786 4.87883C15.4412 4.31622 16.2042 4.00015 16.9999 4.00015C17.4469 4.0028 17.8876 4.1053 18.2899 4.30015L14.2899 8.30015C14.097 7.89402 13.9979 7.44974 13.9999 7.00015ZM19.1199 9.12015C18.6746 9.5434 18.113 9.82383 17.5071 9.9254C16.9012 10.027 16.2788 9.94505 15.7199 9.69015L19.7199 5.69015C19.9108 6.10013 20.0065 6.54796 19.9999 7.00015C19.9992 7.79553 19.6827 8.55808 19.1199 9.12015Z" fill="black"/>
</svg>
