<svg width="24" height="24" viewBox="0 0 24 24" fill="none" xmlns="http://www.w3.org/2000/svg">
<path d="M12.0001 14C11.8023 14 11.609 14.0586 11.4445 14.1685C11.2801 14.2784 11.1519 14.4346 11.0762 14.6173C11.0005 14.8 10.9807 15.0011 11.0193 15.1951C11.0579 15.3891 11.1532 15.5673 11.293 15.7071C11.4329 15.847 11.611 15.9422 11.805 15.9808C11.999 16.0194 12.2001 15.9996 12.3828 15.9239C12.5655 15.8482 12.7217 15.72 12.8316 15.5556C12.9415 15.3911 13.0001 15.1978 13.0001 15C13.0001 14.7348 12.8948 14.4804 12.7072 14.2929C12.5197 14.1054 12.2653 14 12.0001 14ZM12.0001 2C10.6869 2 9.38653 2.25866 8.17328 2.7612C6.96002 3.26375 5.85763 4.00035 4.92904 4.92893C3.05368 6.8043 2.00011 9.34784 2.00011 12C1.99137 14.3091 2.7909 16.5485 4.26011 18.33L2.26011 20.33C2.12135 20.4706 2.02736 20.6492 1.98998 20.8432C1.95261 21.0372 1.97353 21.2379 2.05011 21.42C2.13317 21.5999 2.26781 21.7511 2.43696 21.8544C2.6061 21.9577 2.80211 22.0083 3.00011 22H12.0001C14.6523 22 17.1958 20.9464 19.0712 19.0711C20.9465 17.1957 22.0001 14.6522 22.0001 12C22.0001 9.34784 20.9465 6.8043 19.0712 4.92893C17.1958 3.05357 14.6523 2 12.0001 2ZM12.0001 20H5.41011L6.34011 19.07C6.4346 18.9774 6.50977 18.8669 6.56126 18.7451C6.61276 18.6232 6.63956 18.4923 6.64011 18.36C6.63635 18.0962 6.52852 17.8446 6.34011 17.66C5.0307 16.352 4.21528 14.6305 4.0328 12.7888C3.85032 10.947 4.31205 9.09901 5.33934 7.55952C6.36662 6.02004 7.8959 4.88436 9.66663 4.34597C11.4374 3.80759 13.34 3.8998 15.0503 4.60691C16.7607 5.31402 18.173 6.59227 19.0465 8.22389C19.9201 9.85551 20.201 11.7395 19.8412 13.555C19.4815 15.3705 18.5034 17.005 17.0736 18.1802C15.6439 19.3554 13.8509 19.9985 12.0001 20ZM12.0001 8C11.7349 8 11.4805 8.10536 11.293 8.29289C11.1055 8.48043 11.0001 8.73478 11.0001 9V12C11.0001 12.2652 11.1055 12.5196 11.293 12.7071C11.4805 12.8946 11.7349 13 12.0001 13C12.2653 13 12.5197 12.8946 12.7072 12.7071C12.8948 12.5196 13.0001 12.2652 13.0001 12V9C13.0001 8.73478 12.8948 8.48043 12.7072 8.29289C12.5197 8.10536 12.2653 8 12.0001 8Z" fill="black"/>
</svg>
