<svg width="24" height="24" viewBox="0 0 24 24" fill="none" xmlns="http://www.w3.org/2000/svg">
<path d="M12.0001 11C11.7349 11 11.4805 11.1054 11.293 11.2929C11.1055 11.4804 11.0001 11.7348 11.0001 12V15C11.0001 15.2652 11.1055 15.5196 11.293 15.7071C11.4805 15.8946 11.7349 16 12.0001 16C12.2653 16 12.5197 15.8946 12.7072 15.7071C12.8948 15.5196 13.0001 15.2652 13.0001 15V12C13.0001 11.7348 12.8948 11.4804 12.7072 11.2929C12.5197 11.1054 12.2653 11 12.0001 11ZM12.0001 8C11.8023 8 11.609 8.05865 11.4445 8.16853C11.2801 8.27841 11.1519 8.43459 11.0762 8.61732C11.0005 8.80004 10.9807 9.00111 11.0193 9.19509C11.0579 9.38907 11.1532 9.56725 11.293 9.70711C11.4329 9.84696 11.611 9.9422 11.805 9.98079C11.999 10.0194 12.2001 9.99957 12.3828 9.92388C12.5655 9.84819 12.7217 9.72002 12.8316 9.55557C12.9415 9.39112 13.0001 9.19778 13.0001 9C13.0001 8.73478 12.8948 8.48043 12.7072 8.29289C12.5197 8.10536 12.2653 8 12.0001 8ZM12.0001 2C10.6869 2 9.38653 2.25866 8.17328 2.7612C6.96002 3.26375 5.85763 4.00035 4.92904 4.92893C3.05368 6.8043 2.00011 9.34784 2.00011 12C1.99137 14.3091 2.7909 16.5485 4.26011 18.33L2.26011 20.33C2.12135 20.4706 2.02736 20.6492 1.98998 20.8432C1.95261 21.0372 1.97353 21.2379 2.05011 21.42C2.13317 21.5999 2.26781 21.7511 2.43696 21.8544C2.6061 21.9577 2.80211 22.0083 3.00011 22H12.0001C14.6523 22 17.1958 20.9464 19.0712 19.0711C20.9465 17.1957 22.0001 14.6522 22.0001 12C22.0001 9.34784 20.9465 6.8043 19.0712 4.92893C17.1958 3.05357 14.6523 2 12.0001 2ZM12.0001 20H5.41011L6.34011 19.07C6.4346 18.9774 6.50977 18.8669 6.56126 18.7451C6.61276 18.6232 6.63956 18.4923 6.64011 18.36C6.63635 18.0962 6.52852 17.8446 6.34011 17.66C5.0307 16.352 4.21528 14.6305 4.0328 12.7888C3.85032 10.947 4.31205 9.09901 5.33934 7.55952C6.36662 6.02004 7.8959 4.88436 9.66663 4.34597C11.4374 3.80759 13.34 3.8998 15.0503 4.60691C16.7607 5.31402 18.173 6.59227 19.0465 8.22389C19.9201 9.85551 20.201 11.7395 19.8412 13.555C19.4815 15.3705 18.5034 17.005 17.0736 18.1802C15.6439 19.3554 13.8509 19.9985 12.0001 20Z" fill="black"/>
</svg>
