<svg width="24" height="24" viewBox="0 0 24 24" fill="none" xmlns="http://www.w3.org/2000/svg">
<path d="M6.29009 10.3C6.12707 10.4637 6.02577 10.6789 6.00342 10.9088C5.98106 11.1388 6.03903 11.3694 6.16746 11.5615C6.2959 11.7535 6.48687 11.8952 6.70794 11.9624C6.929 12.0295 7.16651 12.0181 7.38009 11.93C7.50162 11.8756 7.61317 11.8013 7.71009 11.71C7.80004 11.6178 7.87135 11.5092 7.92009 11.39C7.97726 11.2682 8.00467 11.1345 8.00009 11C7.99899 10.7377 7.89484 10.4863 7.71009 10.3C7.61713 10.2063 7.50653 10.1319 7.38467 10.0811C7.26281 10.0303 7.1321 10.0042 7.00009 10.0042C6.86808 10.0042 6.73737 10.0303 6.61551 10.0811C6.49366 10.1319 6.38305 10.2063 6.29009 10.3ZM7.00009 5C7.26531 5 7.51966 5.10536 7.7072 5.29289C7.89473 5.48043 8.00009 5.73478 8.00009 6C8.00009 6.26522 7.89473 6.51957 7.7072 6.70711C7.51966 6.89464 7.26531 7 7.00009 7C6.73487 7 6.48052 7.10536 6.29298 7.29289C6.10545 7.48043 6.00009 7.73478 6.00009 8C6.00009 8.26522 6.10545 8.51957 6.29298 8.70711C6.48052 8.89464 6.73487 9 7.00009 9C7.52662 8.99966 8.04379 8.86075 8.49963 8.59723C8.95546 8.33371 9.33392 7.95486 9.59696 7.49875C9.86001 7.04264 9.99838 6.52533 9.99817 5.9988C9.99796 5.47227 9.85917 4.95507 9.59576 4.49917C9.33235 4.04326 8.95359 3.66472 8.49754 3.40156C8.04149 3.13841 7.52421 2.99992 6.99769 3C6.47116 3.00008 5.95393 3.13874 5.49796 3.40204C5.04199 3.66534 4.66336 4.04401 4.40009 4.5C4.33397 4.61413 4.29109 4.74022 4.2739 4.871C4.25672 5.00178 4.26558 5.13466 4.29997 5.262C4.33436 5.38934 4.3936 5.50862 4.47429 5.61297C4.55497 5.71732 4.6555 5.80467 4.77009 5.87C4.99971 6.00037 5.27157 6.03464 5.52636 5.96532C5.78114 5.896 5.99817 5.72873 6.13009 5.5C6.2182 5.34739 6.34506 5.22078 6.49784 5.13298C6.65061 5.04517 6.82388 4.9993 7.00009 5ZM19.0001 6H13.0001C12.7349 6 12.4805 6.10536 12.293 6.29289C12.1054 6.48043 12.0001 6.73478 12.0001 7C12.0001 7.26522 12.1054 7.51957 12.293 7.70711C12.4805 7.89464 12.7349 8 13.0001 8H19.0001C19.2653 8 19.5197 8.10536 19.7072 8.29289C19.8947 8.48043 20.0001 8.73478 20.0001 9V18.72L18.4301 17.27C18.2457 17.0973 18.0027 17.0009 17.7501 17H9.00009C8.73488 17 8.48052 16.8946 8.29298 16.7071C8.10545 16.5196 8.00009 16.2652 8.00009 16V15C8.00009 14.7348 7.89473 14.4804 7.7072 14.2929C7.51966 14.1054 7.26531 14 7.00009 14C6.73487 14 6.48052 14.1054 6.29298 14.2929C6.10545 14.4804 6.00009 14.7348 6.00009 15V16C6.00009 16.7956 6.31616 17.5587 6.87877 18.1213C7.44138 18.6839 8.20444 19 9.00009 19H17.3601L20.3601 21.73C20.5343 21.8936 20.7613 21.9894 21.0001 22C21.1372 21.9985 21.2729 21.9714 21.4001 21.92C21.579 21.8419 21.7311 21.7132 21.8377 21.5497C21.9443 21.3863 22.0008 21.1952 22.0001 21V9C22.0001 8.20435 21.684 7.44129 21.1214 6.87868C20.5588 6.31607 19.7957 6 19.0001 6Z" fill="black"/>
</svg>
