<svg width="24" height="24" viewBox="0 0 24 24" fill="none" xmlns="http://www.w3.org/2000/svg">
<path d="M5.00002 11.0001C5.26523 11.0001 5.51959 10.8948 5.70712 10.7072C5.89466 10.5197 6.00002 10.2654 6.00002 10.0001V6.00014C6.00002 5.73492 5.89466 5.48057 5.70712 5.29303C5.51959 5.1055 5.26523 5.00014 5.00002 5.00014C4.7348 5.00014 4.48045 5.1055 4.29291 5.29303C4.10537 5.48057 4.00002 5.73492 4.00002 6.00014V10.0001C4.00002 10.2654 4.10537 10.5197 4.29291 10.7072C4.48045 10.8948 4.7348 11.0001 5.00002 11.0001ZM4.29002 3.71014C4.43064 3.8489 4.60921 3.94289 4.8032 3.98027C4.99719 4.01764 5.19791 3.99672 5.38002 3.92014C5.5012 3.8695 5.61282 3.79847 5.71002 3.71014C5.79835 3.61294 5.86937 3.50132 5.92002 3.38014C5.976 3.26146 6.0034 3.13132 6.00002 3.00014C6.00078 2.86853 5.97555 2.73807 5.92579 2.61623C5.87602 2.4944 5.8027 2.38358 5.71002 2.29014C5.56939 2.15138 5.39082 2.05739 5.19683 2.02001C5.00284 1.98264 4.80213 2.00356 4.62002 2.08014C4.49727 2.12773 4.38512 2.1991 4.29002 2.29014C4.19734 2.38358 4.12401 2.4944 4.07425 2.61623C4.02448 2.73807 3.99926 2.86853 4.00002 3.00014C4.0016 3.13082 4.02878 3.25992 4.08002 3.38014C4.13066 3.50132 4.20169 3.61294 4.29002 3.71014ZM17 6.00014H9.00002C8.7348 6.00014 8.48045 6.1055 8.29291 6.29303C8.10537 6.48057 8.00002 6.73492 8.00002 7.00014C8.00002 7.26536 8.10537 7.51971 8.29291 7.70725C8.48045 7.89478 8.7348 8.00014 9.00002 8.00014H17C17.2652 8.00014 17.5196 8.1055 17.7071 8.29303C17.8947 8.48057 18 8.73492 18 9.00014V18.7201L16.43 17.2701C16.2456 17.0975 16.0027 17.001 15.75 17.0001H7.00002C6.7348 17.0001 6.48045 16.8948 6.29291 16.7072C6.10537 16.5197 6.00002 16.2654 6.00002 16.0001V14.0001C6.00002 13.7349 5.89466 13.4806 5.70712 13.293C5.51959 13.1055 5.26523 13.0001 5.00002 13.0001C4.7348 13.0001 4.48045 13.1055 4.29291 13.293C4.10537 13.4806 4.00002 13.7349 4.00002 14.0001V16.0001C4.00002 16.7958 4.31609 17.5589 4.8787 18.1215C5.44131 18.6841 6.20437 19.0001 7.00002 19.0001H15.36L18.36 21.7301C18.5342 21.8937 18.7613 21.9895 19 22.0001C19.1372 21.9986 19.2728 21.9715 19.4 21.9201C19.5789 21.8421 19.731 21.7134 19.8376 21.5499C19.9442 21.3864 20.0007 21.1953 20 21.0001V9.00014C20 8.20449 19.6839 7.44143 19.1213 6.87882C18.5587 6.31621 17.7957 6.00014 17 6.00014Z" fill="black"/>
</svg>
