<svg width="24" height="24" viewBox="0 0 24 24" fill="none" xmlns="http://www.w3.org/2000/svg">
<path d="M19.2899 3.71014C19.3829 3.80387 19.4935 3.87826 19.6153 3.92903C19.7372 3.9798 19.8679 4.00594 19.9999 4.00594C20.1319 4.00594 20.2626 3.9798 20.3845 3.92903C20.5063 3.87826 20.6169 3.80387 20.7099 3.71014C20.7982 3.61294 20.8693 3.50132 20.9199 3.38014C20.9711 3.25992 20.9983 3.13082 20.9999 3.00014C21.0007 2.86853 20.9754 2.73807 20.9257 2.61623C20.8759 2.4944 20.8026 2.38358 20.7099 2.29014L20.5599 2.17014C20.5041 2.13229 20.4436 2.10203 20.3799 2.08014C20.1978 2.00356 19.9971 1.98264 19.8031 2.02001C19.6091 2.05739 19.4305 2.15138 19.2899 2.29014C19.1972 2.38358 19.1239 2.4944 19.0741 2.61623C19.0244 2.73807 18.9991 2.86853 18.9999 3.00014C19.0015 3.13082 19.0287 3.25992 19.0799 3.38014C19.1305 3.50132 19.2016 3.61294 19.2899 3.71014ZM19.9999 5.00014C19.7347 5.00014 19.4803 5.1055 19.2928 5.29303C19.1053 5.48057 18.9999 5.73492 18.9999 6.00014V10.0001C18.9999 10.2654 19.1053 10.5197 19.2928 10.7072C19.4803 10.8948 19.7347 11.0001 19.9999 11.0001C20.2651 11.0001 20.5195 10.8948 20.707 10.7072C20.8945 10.5197 20.9999 10.2654 20.9999 10.0001V6.00014C20.9999 5.73492 20.8945 5.48057 20.707 5.29303C20.5195 5.1055 20.2651 5.00014 19.9999 5.00014ZM20.0599 13.0001C19.7975 12.9691 19.5334 13.0431 19.3254 13.2061C19.1174 13.3692 18.9824 13.6079 18.9499 13.8701C18.7378 15.5635 17.9144 17.121 16.6345 18.2499C15.3546 19.3788 13.7065 20.0012 11.9999 20.0001H6.4099L7.0499 19.3701C7.23615 19.1828 7.34069 18.9293 7.34069 18.6651C7.34069 18.401 7.23615 18.1475 7.0499 17.9601C6.06739 16.9817 5.3976 15.7335 5.12548 14.3739C4.85336 13.0142 4.99118 11.6044 5.52144 10.3232C6.05171 9.04198 6.95053 7.94713 8.10392 7.17747C9.25731 6.40782 10.6133 5.99805 11.9999 6.00014C13.226 5.99829 14.4306 6.32272 15.4899 6.94014C15.7155 7.04209 15.9709 7.05675 16.2066 6.98126C16.4424 6.90578 16.6418 6.74552 16.7662 6.5315C16.8907 6.31748 16.9313 6.06492 16.8802 5.82268C16.8292 5.58044 16.6901 5.36575 16.4899 5.22014C15.129 4.41983 13.5787 3.99857 11.9999 4.00014C10.3074 4.0057 8.6507 4.48842 7.22008 5.39288C5.78947 6.29734 4.64289 7.58687 3.91196 9.11346C3.18104 10.64 2.8954 12.3418 3.08784 14.0234C3.28028 15.7049 3.94299 17.2982 4.9999 18.6201L3.2899 20.2901C3.15114 20.4308 3.05714 20.6093 3.01977 20.8033C2.98239 20.9973 3.00332 21.198 3.0799 21.3801C3.15492 21.5628 3.28231 21.7191 3.44603 21.8294C3.60975 21.9398 3.80247 21.9992 3.9999 22.0001H11.9999C14.1929 22.0001 16.3104 21.1994 17.9547 19.7485C19.599 18.2975 20.657 16.2961 20.9299 14.1201C20.9467 13.9894 20.9375 13.8567 20.9028 13.7295C20.8681 13.6024 20.8086 13.4833 20.7278 13.3792C20.6469 13.2752 20.5463 13.1881 20.4317 13.123C20.3171 13.058 20.1907 13.0162 20.0599 13.0001Z" fill="black"/>
</svg>
