<svg width="24" height="24" viewBox="0 0 24 24" fill="none" xmlns="http://www.w3.org/2000/svg">
<path d="M20.6101 19.1898C21.2368 18.3498 21.6669 17.3797 21.8686 16.3512C22.0703 15.3228 22.0385 14.2621 21.7755 13.2476C21.5125 12.2331 21.025 11.2905 20.3491 10.4896C19.6732 9.68859 18.826 9.04962 17.8701 8.61981C17.6619 7.42191 17.1834 6.28723 16.4709 5.30198C15.7585 4.31673 14.8308 3.50684 13.7585 2.93384C12.6861 2.36084 11.4972 2.03981 10.2822 1.99515C9.06713 1.95048 7.8579 2.18335 6.74635 2.67607C5.6348 3.16879 4.65018 3.90838 3.86731 4.83866C3.08443 5.76894 2.5239 6.86543 2.22831 8.04481C1.93271 9.22418 1.90982 10.4554 2.16139 11.645C2.41295 12.8345 2.93235 13.9511 3.68011 14.9098L2.29011 16.2898C2.15136 16.4304 2.05736 16.609 2.01998 16.803C1.98261 16.997 2.00353 17.1977 2.08011 17.3798C2.15513 17.5624 2.28253 17.7188 2.44625 17.8291C2.60997 17.9394 2.80269 17.9988 3.00011 17.9998H8.69011C9.25676 19.1944 10.1501 20.2041 11.2669 20.912C12.3836 21.6199 13.6779 21.9971 15.0001 21.9998H21.0001C21.1975 21.9988 21.3903 21.9394 21.554 21.8291C21.7177 21.7188 21.8451 21.5624 21.9201 21.3798C21.9967 21.1977 22.0176 20.997 21.9802 20.803C21.9429 20.609 21.8489 20.4304 21.7101 20.2898L20.6101 19.1898ZM8.00011 14.9998C8.00149 15.3347 8.02823 15.669 8.08011 15.9998H5.41011L5.76011 15.6598C5.85384 15.5668 5.92824 15.4562 5.979 15.3344C6.02977 15.2125 6.05591 15.0818 6.05591 14.9498C6.05591 14.8178 6.02977 14.6871 5.979 14.5652C5.92824 14.4434 5.85384 14.3328 5.76011 14.2398C5.19967 13.6855 4.75536 13.0251 4.45317 12.297C4.15097 11.569 3.99695 10.7881 4.00011 9.99981C4.00011 8.40851 4.63225 6.88239 5.75747 5.75717C6.88269 4.63195 8.40881 3.99981 10.0001 3.99981C11.2418 3.99235 12.4546 4.37419 13.468 5.09167C14.4815 5.80915 15.2446 6.82619 15.6501 7.99981C15.4301 7.99981 15.2201 7.99981 15.0001 7.99981C13.1436 7.99981 11.3631 8.73731 10.0504 10.0501C8.73761 11.3628 8.00011 13.1433 8.00011 14.9998ZM18.5401 19.9998L18.5901 20.0498H15.0001C13.8435 20.0477 12.7233 19.6447 11.8304 18.9094C10.9376 18.1741 10.3273 17.152 10.1035 16.0172C9.87973 14.8823 10.0563 13.705 10.6032 12.6858C11.1501 11.6666 12.0334 10.8685 13.1027 10.4275C14.172 9.9865 15.3611 9.92986 16.4674 10.2672C17.5738 10.6046 18.529 11.3151 19.1703 12.2778C19.8115 13.2404 20.0992 14.3956 19.9843 15.5465C19.8694 16.6974 19.359 17.773 18.5401 18.5898C18.3517 18.7744 18.2439 19.026 18.2401 19.2898C18.2407 19.4221 18.2675 19.553 18.319 19.6749C18.3705 19.7968 18.4456 19.9072 18.5401 19.9998Z" fill="black"/>
</svg>
