<svg width="24" height="24" viewBox="0 0 24 24" fill="none" xmlns="http://www.w3.org/2000/svg">
<path d="M18.9999 14C18.8725 13.9669 18.7398 13.9593 18.6095 13.9777C18.4792 13.996 18.3538 14.0398 18.2404 14.1067C18.1271 14.1736 18.0281 14.2622 17.949 14.3675C17.87 14.4727 17.8125 14.5925 17.7799 14.72C17.3975 16.2285 16.5233 17.5666 15.2955 18.5228C14.0676 19.479 12.5561 19.9988 10.9999 20H5.4099L6.0499 19.37C6.23615 19.1826 6.34069 18.9292 6.34069 18.665C6.34069 18.4008 6.23615 18.1474 6.0499 17.96C5.06739 16.9816 4.3976 15.7334 4.12548 14.3737C3.85336 13.0141 3.99118 11.6043 4.52144 10.3231C5.05171 9.04185 5.95053 7.94699 7.10392 7.17733C8.25731 6.40768 9.61329 5.99791 10.9999 6C11.293 5.98479 11.5868 5.98479 11.8799 6C12.1451 6.03183 12.4121 5.95699 12.6221 5.79196C12.8322 5.62693 12.9681 5.38522 12.9999 5.12C13.0317 4.85478 12.9569 4.58779 12.7919 4.37775C12.6268 4.16771 12.3851 4.03183 12.1199 4C11.747 3.97484 11.3728 3.97484 10.9999 4C9.30736 4.00556 7.6507 4.48828 6.22008 5.39274C4.78947 6.2972 3.64289 7.58673 2.91196 9.11332C2.18104 10.6399 1.8954 12.3417 2.08784 14.0232C2.28028 15.7048 2.94299 17.298 3.9999 18.62L2.2899 20.29C2.15114 20.4306 2.05714 20.6092 2.01977 20.8032C1.98239 20.9972 2.00332 21.1979 2.0799 21.38C2.15492 21.5626 2.28231 21.7189 2.44603 21.8293C2.60975 21.9396 2.80247 21.999 2.9999 22H10.9999C12.9961 22.0013 14.9362 21.3388 16.5147 20.1169C18.0933 18.895 19.2208 17.1829 19.7199 15.25C19.7575 15.1206 19.7686 14.985 19.7525 14.8512C19.7364 14.7175 19.6935 14.5883 19.6262 14.4716C19.559 14.3549 19.4688 14.2529 19.3612 14.1719C19.2536 14.0908 19.1307 14.0324 18.9999 14ZM21.7099 7.26C21.6169 7.16627 21.5063 7.09188 21.3845 7.04111C21.2626 6.99034 21.1319 6.9642 20.9999 6.9642C20.8679 6.9642 20.7372 6.99034 20.6153 7.04111C20.4935 7.09188 20.3829 7.16627 20.2899 7.26L18.9999 8.59V3C18.9999 2.73478 18.8945 2.48043 18.707 2.29289C18.5195 2.10536 18.2651 2 17.9999 2C17.7347 2 17.4803 2.10536 17.2928 2.29289C17.1053 2.48043 16.9999 2.73478 16.9999 3V8.59L15.7099 7.29C15.6167 7.19676 15.506 7.1228 15.3841 7.07234C15.2623 7.02188 15.1318 6.99591 14.9999 6.99591C14.868 6.99591 14.7375 7.02188 14.6156 7.07234C14.4938 7.1228 14.3831 7.19676 14.2899 7.29C14.1967 7.38324 14.1227 7.49393 14.0722 7.61575C14.0218 7.73757 13.9958 7.86814 13.9958 8C13.9958 8.13186 14.0218 8.26243 14.0722 8.38425C14.1227 8.50607 14.1967 8.61676 14.2899 8.71L17.2899 11.71C17.385 11.801 17.4971 11.8724 17.6199 11.92C17.7396 11.9729 17.869 12.0002 17.9999 12.0002C18.1308 12.0002 18.2602 11.9729 18.3799 11.92C18.5026 11.8724 18.6148 11.801 18.7099 11.71L21.7099 8.71C21.8036 8.61704 21.878 8.50644 21.9288 8.38458C21.9796 8.26272 22.0057 8.13201 22.0057 8C22.0057 7.86799 21.9796 7.73728 21.9288 7.61542C21.878 7.49356 21.8036 7.38296 21.7099 7.29V7.26Z" fill="black"/>
</svg>
