<svg width="24" height="24" viewBox="0 0 24 24" fill="none" xmlns="http://www.w3.org/2000/svg">
<path d="M18.5001 5.49982H14.5001C14.2348 5.49982 13.9805 5.60517 13.793 5.79271C13.6054 5.98025 13.5001 6.2346 13.5001 6.49982C13.5001 6.76503 13.6054 7.01939 13.793 7.20692C13.9805 7.39446 14.2348 7.49982 14.5001 7.49982H18.5001C18.7653 7.49982 19.0196 7.60517 19.2072 7.79271C19.3947 7.98025 19.5001 8.2346 19.5001 8.49982V18.2198L17.9301 16.7698C17.7456 16.5972 17.5027 16.5007 17.2501 16.4998H8.50006C8.23484 16.4998 7.98049 16.3945 7.79295 16.2069C7.60542 16.0194 7.50006 15.765 7.50006 15.4998V14.4998C7.50006 14.2346 7.3947 13.9802 7.20717 13.7927C7.01963 13.6052 6.76528 13.4998 6.50006 13.4998C6.23484 13.4998 5.98049 13.6052 5.79295 13.7927C5.60542 13.9802 5.50006 14.2346 5.50006 14.4998V15.4998C5.50006 16.2955 5.81613 17.0585 6.37874 17.6211C6.94135 18.1837 7.70441 18.4998 8.50006 18.4998H16.8601L19.8601 21.2298C20.0445 21.4025 20.2874 21.4989 20.5401 21.4998C20.6772 21.4983 20.8129 21.4712 20.9401 21.4198C21.1189 21.3417 21.2711 21.213 21.3777 21.0496C21.4843 20.8861 21.5407 20.695 21.5401 20.4998V8.49982C21.5401 8.10246 21.4612 7.70906 21.3079 7.34245C21.1547 6.97584 20.9301 6.64333 20.6473 6.36423C20.3645 6.08512 20.029 5.86498 19.6604 5.71659C19.2918 5.5682 18.8974 5.49452 18.5001 5.49982ZM9.08006 12.4998H11.5001C11.7653 12.4998 12.0196 12.3945 12.2072 12.2069C12.3947 12.0194 12.5001 11.765 12.5001 11.4998V9.07982C12.5008 8.94821 12.4756 8.81775 12.4258 8.69591C12.3761 8.57407 12.3027 8.46326 12.2101 8.36982L6.63006 2.78982C6.4427 2.60357 6.18925 2.49902 5.92506 2.49902C5.66087 2.49902 5.40742 2.60357 5.22006 2.78982L2.79006 5.21982C2.60381 5.40718 2.49927 5.66063 2.49927 5.92482C2.49927 6.189 2.60381 6.44245 2.79006 6.62982L8.37006 12.2098C8.4635 12.3025 8.57432 12.3758 8.69615 12.4256C8.81799 12.4754 8.94845 12.5006 9.08006 12.4998ZM5.92006 4.90982L10.5001 9.48982V10.4898H9.50006L4.91006 5.91982L5.92006 4.90982Z" fill="black"/>
</svg>
