<svg width="24" height="24" viewBox="0 0 24 24" fill="none" xmlns="http://www.w3.org/2000/svg">
<path d="M21.7099 4.71982L19.2799 2.28982C19.0925 2.10357 18.8391 1.99902 18.5749 1.99902C18.3107 1.99902 18.0573 2.10357 17.8699 2.28982L12.2899 7.86982C12.1972 7.96326 12.1239 8.07407 12.0741 8.19591C12.0244 8.31775 11.9991 8.44821 11.9999 8.57982V10.9998C11.9999 11.265 12.1053 11.5194 12.2928 11.7069C12.4803 11.8945 12.7347 11.9998 12.9999 11.9998H15.4199C15.5515 12.0006 15.682 11.9754 15.8038 11.9256C15.9256 11.8758 16.0365 11.8025 16.1299 11.7098L21.7099 6.12982C21.8961 5.94245 22.0007 5.689 22.0007 5.42482C22.0007 5.16063 21.8961 4.90718 21.7099 4.71982ZM14.9999 9.99982H13.9999V8.99982L18.5799 4.41982L19.5799 5.41982L14.9999 9.99982ZM18.9999 11.9998C18.7347 11.9998 18.4803 12.1052 18.2928 12.2927C18.1053 12.4802 17.9999 12.7346 17.9999 12.9998C17.9999 14.8563 17.2624 16.6368 15.9496 17.9496C14.6369 19.2623 12.8564 19.9998 10.9999 19.9998H5.4099L6.0499 19.3698C6.14362 19.2769 6.21802 19.1663 6.26879 19.0444C6.31956 18.9225 6.34569 18.7918 6.34569 18.6598C6.34569 18.5278 6.31956 18.3971 6.26879 18.2752C6.21802 18.1534 6.14362 18.0428 6.0499 17.9498C5.07083 16.9708 4.40406 15.7235 4.13392 14.3656C3.86378 13.0077 4.00241 11.6001 4.53226 10.321C5.06212 9.04182 5.9594 7.94853 7.11064 7.17937C8.26188 6.4102 9.61535 5.99972 10.9999 5.99982C11.2651 5.99982 11.5195 5.89446 11.707 5.70692C11.8945 5.51939 11.9999 5.26503 11.9999 4.99982C11.9999 4.7346 11.8945 4.48025 11.707 4.29271C11.5195 4.10517 11.2651 3.99982 10.9999 3.99982C9.30736 4.00538 7.6507 4.4881 6.22008 5.39255C4.78947 6.29701 3.64289 7.58655 2.91196 9.11313C2.18104 10.6397 1.8954 12.3415 2.08784 14.023C2.28028 15.7046 2.94299 17.2978 3.9999 18.6198L2.2899 20.2898C2.15114 20.4304 2.05714 20.609 2.01977 20.803C1.98239 20.997 2.00332 21.1977 2.0799 21.3798C2.15492 21.5624 2.28231 21.7188 2.44603 21.8291C2.60975 21.9394 2.80247 21.9988 2.9999 21.9998H10.9999C12.1818 21.9998 13.3521 21.767 14.444 21.3147C15.536 20.8624 16.5281 20.1995 17.3639 19.3638C18.1996 18.528 18.8625 17.5359 19.3148 16.444C19.7671 15.352 19.9999 14.1817 19.9999 12.9998C19.9999 12.7346 19.8945 12.4802 19.707 12.2927C19.5195 12.1052 19.2651 11.9998 18.9999 11.9998Z" fill="black"/>
</svg>
