<svg width="24" height="24" viewBox="0 0 24 24" fill="none" xmlns="http://www.w3.org/2000/svg">
<path d="M12.0001 2C10.4385 2.00113 8.89897 2.36793 7.50469 3.07104C6.1104 3.77414 4.90014 4.79399 3.97086 6.04891C3.04157 7.30383 2.41909 8.75894 2.15327 10.2977C1.88745 11.8364 1.98567 13.416 2.44008 14.91C2.43429 14.9431 2.43429 14.9769 2.44008 15.01C2.81685 16.2218 3.4247 17.3493 4.23008 18.33L2.23008 20.33C2.09132 20.4706 1.99733 20.6492 1.95995 20.8432C1.92258 21.0372 1.9435 21.2379 2.02008 21.42C2.10502 21.6049 2.24435 21.7595 2.41946 21.8631C2.59457 21.9668 2.79712 22.0145 3.00008 22H12.0001C14.0872 21.9985 16.1216 21.3439 17.8181 20.128C19.5145 18.9122 20.788 17.196 21.4601 15.22V15.14C21.8086 14.1294 21.991 13.069 22.0001 12C22.0001 10.6868 21.7414 9.38642 21.2389 8.17317C20.7363 6.95991 19.9997 5.85752 19.0711 4.92893C18.1426 4.00035 17.0402 3.26375 15.8269 2.7612C14.6137 2.25866 13.3133 2 12.0001 2ZM12.0001 20H5.41008L5.71008 19.71L14.1201 11.29C14.307 11.1068 14.5583 11.0041 14.8201 11.0041C15.0818 11.0041 15.3332 11.1068 15.5201 11.29L19.1401 14.89L19.3701 15.11C18.7585 16.5594 17.7332 17.7964 16.4223 18.6661C15.1115 19.5359 13.5732 19.9999 12.0001 20ZM4.54008 14.87L6.12008 13.29C6.30744 13.1037 6.56089 12.9992 6.82508 12.9992C7.08927 12.9992 7.34272 13.1037 7.53008 13.29L8.40008 14.16L5.68008 16.9C5.199 16.2853 4.81457 15.6007 4.54008 14.87ZM19.9501 12.87L16.9501 9.87C16.3876 9.3082 15.6251 8.99264 14.8301 8.99264C14.0351 8.99264 13.2726 9.3082 12.7101 9.87L9.82008 12.76L8.94008 11.89C8.37799 11.3312 7.61764 11.0176 6.82508 11.0176C6.03252 11.0176 5.27217 11.3312 4.71008 11.89L4.00008 12.56C3.99012 12.3735 3.99012 12.1865 4.00008 12C4.00008 9.87827 4.84294 7.84344 6.34323 6.34315C7.84352 4.84285 9.87835 4 12.0001 4C14.1218 4 16.1566 4.84285 17.6569 6.34315C19.1572 7.84344 20.0001 9.87827 20.0001 12C20.015 12.2865 20.015 12.5735 20.0001 12.86L19.9501 12.87Z" fill="black"/>
</svg>
