<svg width="24" height="24" viewBox="0 0 24 24" fill="none" xmlns="http://www.w3.org/2000/svg">
<path d="M12.0001 8.35C11.4287 8.05705 10.7799 7.95062 10.1449 8.04569C9.50986 8.14077 8.92063 8.43256 8.46011 8.88C7.89831 9.4425 7.58275 10.205 7.58275 11C7.58275 11.795 7.89831 12.5575 8.46011 13.12L11.2901 16C11.3831 16.0937 11.4937 16.1681 11.6155 16.2189C11.7374 16.2697 11.8681 16.2958 12.0001 16.2958C12.1321 16.2958 12.2628 16.2697 12.3847 16.2189C12.5065 16.1681 12.6171 16.0937 12.7101 16L15.5401 13.17C16.1019 12.6075 16.4175 11.845 16.4175 11.05C16.4175 10.255 16.1019 9.4925 15.5401 8.93C15.0854 8.47439 14.4989 8.17326 13.8636 8.06918C13.2284 7.9651 12.5765 8.06333 12.0001 8.35ZM14.1201 11.71L12.0001 13.83L9.88011 11.71C9.78638 11.617 9.71199 11.5064 9.66122 11.3846C9.61045 11.2627 9.58431 11.132 9.58431 11C9.58431 10.868 9.61045 10.7373 9.66122 10.6154C9.71199 10.4936 9.78638 10.383 9.88011 10.29C10.0675 10.1037 10.3209 9.99921 10.5851 9.99921C10.8493 9.99921 11.1027 10.1037 11.2901 10.29C11.3831 10.3837 11.4937 10.4581 11.6155 10.5089C11.7374 10.5597 11.8681 10.5858 12.0001 10.5858C12.1321 10.5858 12.2628 10.5597 12.3847 10.5089C12.5065 10.4581 12.6171 10.3837 12.7101 10.29C12.8975 10.1037 13.1509 9.99921 13.4151 9.99921C13.6793 9.99921 13.9327 10.1037 14.1201 10.29C14.2138 10.383 14.2882 10.4936 14.339 10.6154C14.3898 10.7373 14.4159 10.868 14.4159 11C14.4159 11.132 14.3898 11.2627 14.339 11.3846C14.2882 11.5064 14.2138 11.617 14.1201 11.71ZM12.0001 2C10.6869 2 9.38653 2.25866 8.17328 2.7612C6.96002 3.26375 5.85763 4.00035 4.92904 4.92893C3.05368 6.8043 2.00011 9.34784 2.00011 12C1.99137 14.3091 2.7909 16.5485 4.26011 18.33L2.26011 20.33C2.12135 20.4706 2.02736 20.6492 1.98998 20.8432C1.95261 21.0372 1.97353 21.2379 2.05011 21.42C2.13317 21.5999 2.26781 21.7511 2.43696 21.8544C2.6061 21.9577 2.80211 22.0083 3.00011 22H12.0001C14.6523 22 17.1958 20.9464 19.0712 19.0711C20.9465 17.1957 22.0001 14.6522 22.0001 12C22.0001 9.34784 20.9465 6.8043 19.0712 4.92893C17.1958 3.05357 14.6523 2 12.0001 2ZM12.0001 20H5.41011L6.34011 19.07C6.52636 18.8826 6.6309 18.6292 6.6309 18.365C6.6309 18.1008 6.52636 17.8474 6.34011 17.66C5.0307 16.352 4.21528 14.6305 4.0328 12.7888C3.85032 10.947 4.31205 9.09901 5.33934 7.55952C6.36662 6.02004 7.8959 4.88436 9.66663 4.34597C11.4374 3.80759 13.34 3.8998 15.0503 4.60691C16.7607 5.31402 18.173 6.59227 19.0465 8.22389C19.9201 9.85551 20.201 11.7395 19.8412 13.555C19.4815 15.3705 18.5034 17.005 17.0736 18.1802C15.6439 19.3554 13.8509 19.9985 12.0001 20Z" fill="black"/>
</svg>
