<svg width="24" height="24" viewBox="0 0 24 24" fill="none" xmlns="http://www.w3.org/2000/svg">
<path d="M12.0001 2C10.6869 2 9.38653 2.25866 8.17328 2.7612C6.96002 3.26375 5.85763 4.00035 4.92904 4.92893C3.05368 6.8043 2.00011 9.34784 2.00011 12C1.99137 14.3091 2.7909 16.5485 4.26011 18.33L2.26011 20.33C2.12135 20.4706 2.02736 20.6492 1.98998 20.8432C1.95261 21.0372 1.97353 21.2379 2.05011 21.42C2.13317 21.5999 2.26781 21.7511 2.43696 21.8544C2.6061 21.9577 2.80211 22.0083 3.00011 22H12.0001C14.6523 22 17.1958 20.9464 19.0712 19.0711C20.9465 17.1957 22.0001 14.6522 22.0001 12C22.0001 9.34784 20.9465 6.8043 19.0712 4.92893C17.1958 3.05357 14.6523 2 12.0001 2ZM12.0001 20H5.41011L6.34011 19.07C6.52636 18.8826 6.6309 18.6292 6.6309 18.365C6.6309 18.1008 6.52636 17.8474 6.34011 17.66C5.0307 16.352 4.21528 14.6305 4.0328 12.7888C3.85032 10.947 4.31205 9.09901 5.33934 7.55952C6.36662 6.02004 7.8959 4.88436 9.66663 4.34597C11.4374 3.80759 13.34 3.8998 15.0503 4.60691C16.7607 5.31402 18.173 6.59227 19.0465 8.22389C19.9201 9.85551 20.201 11.7395 19.8412 13.555C19.4815 15.3705 18.5034 17.005 17.0736 18.1802C15.6439 19.3554 13.8509 19.9985 12.0001 20ZM14.0001 11H13.0001V10C13.0001 9.73478 12.8948 9.48043 12.7072 9.29289C12.5197 9.10536 12.2653 9 12.0001 9C11.7349 9 11.4805 9.10536 11.293 9.29289C11.1055 9.48043 11.0001 9.73478 11.0001 10V11H10.0001C9.73489 11 9.48054 11.1054 9.293 11.2929C9.10547 11.4804 9.00011 11.7348 9.00011 12C9.00011 12.2652 9.10547 12.5196 9.293 12.7071C9.48054 12.8946 9.73489 13 10.0001 13H11.0001V14C11.0001 14.2652 11.1055 14.5196 11.293 14.7071C11.4805 14.8946 11.7349 15 12.0001 15C12.2653 15 12.5197 14.8946 12.7072 14.7071C12.8948 14.5196 13.0001 14.2652 13.0001 14V13H14.0001C14.2653 13 14.5197 12.8946 14.7072 12.7071C14.8948 12.5196 15.0001 12.2652 15.0001 12C15.0001 11.7348 14.8948 11.4804 14.7072 11.2929C14.5197 11.1054 14.2653 11 14.0001 11Z" fill="black"/>
</svg>
