<svg width="24" height="24" viewBox="0 0 24 24" fill="none" xmlns="http://www.w3.org/2000/svg">
<path d="M18.9999 14C18.8725 13.9669 18.7398 13.9593 18.6095 13.9776C18.4792 13.996 18.3538 14.0398 18.2404 14.1067C18.1271 14.1736 18.0281 14.2622 17.949 14.3674C17.87 14.4727 17.8125 14.5925 17.7799 14.72C17.3975 16.2285 16.5233 17.5666 15.2955 18.5228C14.0676 19.479 12.5561 19.9988 10.9999 20H5.4099L6.0499 19.37C6.23615 19.1826 6.34069 18.9292 6.34069 18.665C6.34069 18.4008 6.23615 18.1473 6.0499 17.96C5.17398 17.0876 4.54474 15.9988 4.22615 14.8043C3.90756 13.6098 3.91099 12.3522 4.2361 11.1595C4.56121 9.96674 5.19639 8.88138 6.07705 8.01377C6.95771 7.14616 8.05244 6.52725 9.2499 6.21999C9.37728 6.18716 9.49695 6.12956 9.60207 6.05048C9.70719 5.9714 9.79571 5.87239 9.86257 5.7591C9.92942 5.64582 9.97331 5.52047 9.99173 5.39022C10.0101 5.25997 10.0027 5.12737 9.9699 4.99999C9.90359 4.74273 9.73781 4.52234 9.50901 4.38732C9.39573 4.32046 9.27038 4.27657 9.14013 4.25815C9.00988 4.23974 8.87728 4.24716 8.7499 4.27999C7.2969 4.65883 5.96178 5.3952 4.86616 6.42202C3.77054 7.44884 2.94924 8.73346 2.47709 10.1589C2.00493 11.5843 1.89692 13.1052 2.1629 14.583C2.42888 16.0608 3.06038 17.4486 3.9999 18.62L2.2899 20.29C2.15114 20.4306 2.05714 20.6092 2.01977 20.8032C1.98239 20.9972 2.00332 21.1979 2.0799 21.38C2.15492 21.5626 2.28231 21.7189 2.44603 21.8293C2.60975 21.9396 2.80247 21.999 2.9999 22H10.9999C12.9961 22.0013 14.9362 21.3388 16.5147 20.1169C18.0933 18.8949 19.2208 17.1829 19.7199 15.25C19.7575 15.1206 19.7686 14.985 19.7525 14.8512C19.7364 14.7175 19.6935 14.5883 19.6262 14.4716C19.559 14.3548 19.4688 14.2529 19.3612 14.1718C19.2536 14.0908 19.1307 14.0323 18.9999 14ZM20.9999 1.99999C20.7347 1.99999 20.4803 2.10534 20.2928 2.29288C20.1053 2.48042 19.9999 2.73477 19.9999 2.99999C19.2441 2.43201 18.3428 2.08994 17.4005 2.01346C16.4582 1.93698 15.5135 2.12923 14.676 2.5679C13.8385 3.00657 13.1426 3.67369 12.6689 4.49188C12.1952 5.31006 11.9632 6.24577 11.9998 7.19048C12.0363 8.13518 12.34 9.05016 12.8755 9.82927C13.411 10.6084 14.1565 11.2197 15.0253 11.5923C15.8942 11.965 16.8509 12.0836 17.7845 11.9345C18.7181 11.7854 19.5903 11.3747 20.2999 10.75C20.4175 10.671 20.517 10.568 20.5918 10.4476C20.6666 10.3273 20.7149 10.1925 20.7337 10.0521C20.7524 9.91167 20.7411 9.76887 20.7005 9.63316C20.6599 9.49744 20.5909 9.3719 20.4981 9.26484C20.4054 9.15779 20.2909 9.07167 20.1623 9.01219C20.0338 8.95271 19.894 8.92123 19.7524 8.91982C19.6107 8.91842 19.4704 8.94713 19.3407 9.00405C19.2109 9.06097 19.0948 9.1448 18.9999 9.24999C18.6363 9.5706 18.2005 9.79835 17.7297 9.91372C17.2589 10.0291 16.7671 10.0287 16.2965 9.91249C15.8259 9.7963 15.3905 9.56781 15.0275 9.24657C14.6645 8.92533 14.3847 8.52091 14.2122 8.06793C14.0396 7.61495 13.9794 7.1269 14.0366 6.64556C14.0939 6.16422 14.2669 5.70393 14.541 5.30407C14.815 4.90422 15.1818 4.57672 15.61 4.3496C16.0383 4.12249 16.5152 4.00253 16.9999 3.99999C17.421 4.00084 17.8371 4.09032 18.2213 4.26261C18.6055 4.4349 18.9492 4.68614 19.2299 4.99999H17.9999C17.7347 4.99999 17.4803 5.10534 17.2928 5.29288C17.1053 5.48042 16.9999 5.73477 16.9999 5.99999C16.9999 6.2652 17.1053 6.51956 17.2928 6.70709C17.4803 6.89463 17.7347 6.99999 17.9999 6.99999H20.9999C21.2651 6.99999 21.5195 6.89463 21.707 6.70709C21.8945 6.51956 21.9999 6.2652 21.9999 5.99999V2.99999C21.9999 2.73477 21.8945 2.48042 21.707 2.29288C21.5195 2.10534 21.2651 1.99999 20.9999 1.99999Z" fill="black"/>
</svg>
