<svg width="24" height="24" viewBox="0 0 24 24" fill="none" xmlns="http://www.w3.org/2000/svg">
<path d="M19 6.00035H14C13.7348 6.00035 13.4804 6.10571 13.2929 6.29324C13.1054 6.48078 13 6.73514 13 7.00035C13 7.26557 13.1054 7.51992 13.2929 7.70746C13.4804 7.89499 13.7348 8.00035 14 8.00035H19C19.2652 8.00035 19.5196 8.10571 19.7071 8.29324C19.8946 8.48078 20 8.73514 20 9.00035V18.7204L18.43 17.2704C18.2456 17.0977 18.0026 17.0012 17.75 17.0004H9C8.73478 17.0004 8.48043 16.895 8.29289 16.7075C8.10536 16.5199 8 16.2656 8 16.0004V14.0004C8 13.7351 7.89464 13.4808 7.70711 13.2932C7.51957 13.1057 7.26522 13.0004 7 13.0004C6.73478 13.0004 6.48043 13.1057 6.29289 13.2932C6.10536 13.4808 6 13.7351 6 14.0004V16.0004C6 16.796 6.31607 17.5591 6.87868 18.1217C7.44129 18.6843 8.20435 19.0004 9 19.0004H17.36L20.36 21.7304C20.5342 21.8939 20.7613 21.9897 21 22.0004C21.1372 21.9989 21.2728 21.9717 21.4 21.9204C21.5789 21.8423 21.731 21.7136 21.8376 21.5501C21.9442 21.3866 22.0007 21.1955 22 21.0004V9.00035C22 8.2047 21.6839 7.44164 21.1213 6.87903C20.5587 6.31642 19.7956 6.00035 19 6.00035ZM8.57 10.0004L10.29 11.7304C10.383 11.8241 10.4936 11.8985 10.6154 11.9492C10.7373 12 10.868 12.0262 11 12.0262C11.132 12.0262 11.2627 12 11.3846 11.9492C11.5064 11.8985 11.617 11.8241 11.71 11.7304C11.8037 11.6374 11.8781 11.5268 11.9289 11.4049C11.9797 11.2831 12.0058 11.1524 12.0058 11.0204C12.0058 10.8883 11.9797 10.7576 11.9289 10.6358C11.8781 10.5139 11.8037 10.4033 11.71 10.3104L10 8.57035C10.4191 7.89056 10.6439 7.10893 10.65 6.31035C10.65 5.16329 10.1943 4.06321 9.38324 3.25211C8.57214 2.44102 7.47206 1.98535 6.325 1.98535C5.17794 1.98535 4.07786 2.44102 3.26676 3.25211C2.45567 4.06321 2 5.16329 2 6.31035C2 7.45436 2.45377 8.55165 3.26176 9.36152C4.06976 10.1714 5.166 10.6277 6.31 10.6304C7.10682 10.6313 7.88859 10.4134 8.57 10.0004ZM4 6.31035C3.9998 6.00717 4.05981 5.70697 4.17654 5.42716C4.29327 5.14735 4.4644 4.8935 4.68 4.68035C4.8961 4.45901 5.15429 4.28313 5.43937 4.16304C5.72445 4.04295 6.03066 3.98109 6.34 3.98109C6.64934 3.98109 6.95555 4.04295 7.24063 4.16304C7.52571 4.28313 7.7839 4.45901 8 4.68035C8.22258 4.89574 8.39957 5.1537 8.52044 5.43887C8.64132 5.72405 8.70361 6.03062 8.70361 6.34035C8.70361 6.65009 8.64132 6.95666 8.52044 7.24183C8.39957 7.52701 8.22258 7.78496 8 8.00035C7.67506 8.34232 7.25358 8.57711 6.79178 8.67341C6.32998 8.76971 5.8498 8.72295 5.41526 8.53935C4.98072 8.35576 4.61247 8.04406 4.35961 7.64582C4.10676 7.24758 3.98131 6.78171 4 6.31035Z" fill="black"/>
</svg>
