<svg width="24" height="24" viewBox="0 0 24 24" fill="none" xmlns="http://www.w3.org/2000/svg">
<path d="M21.2099 10.2898L19.4799 8.56976C19.899 7.88997 20.1238 7.10833 20.1299 6.30976C20.1279 5.45817 19.8737 4.62626 19.3994 3.91902C18.925 3.21178 18.2518 2.66091 17.4646 2.33593C16.6775 2.01096 15.8117 1.92645 14.9766 2.09307C14.1415 2.25969 13.3744 2.66998 12.7723 3.27214C12.1701 3.8743 11.7598 4.64135 11.5932 5.47647C11.4266 6.3116 11.5111 7.17737 11.8361 7.96451C12.161 8.75165 12.7119 9.42488 13.4191 9.89922C14.1264 10.3736 14.9583 10.6278 15.8099 10.6298C16.6067 10.6307 17.3885 10.4128 18.0699 9.99976L19.7899 11.7298C19.8828 11.8235 19.9935 11.8979 20.1153 11.9486C20.2372 11.9994 20.3679 12.0256 20.4999 12.0256C20.6319 12.0256 20.7626 11.9994 20.8845 11.9486C21.0063 11.8979 21.1169 11.8235 21.2099 11.7298C21.3067 11.6365 21.3836 11.5246 21.4362 11.4009C21.4888 11.2772 21.5159 11.1442 21.5159 11.0098C21.5159 10.8753 21.4888 10.7423 21.4362 10.6186C21.3836 10.4949 21.3067 10.383 21.2099 10.2898ZM17.4499 7.99976C17.1219 8.32371 16.7049 8.54261 16.2519 8.62853C15.799 8.71445 15.3308 8.66349 14.907 8.48215C14.4831 8.30082 14.1229 7.99733 13.8723 7.61041C13.6217 7.22349 13.4921 6.77068 13.4999 6.30976C13.4997 6.00657 13.5597 5.70637 13.6764 5.42656C13.7932 5.14675 13.9643 4.89291 14.1799 4.67976C14.6145 4.24802 15.2023 4.00571 15.8149 4.00571C16.4275 4.00571 17.0153 4.24802 17.4499 4.67976C17.6649 4.89432 17.8354 5.14917 17.9518 5.42972C18.0682 5.71028 18.1281 6.01103 18.1281 6.31476C18.1281 6.61849 18.0682 6.91924 17.9518 7.19979C17.8354 7.48034 17.6649 7.73519 17.4499 7.94976V7.99976ZM19.4999 13.9998C19.3725 13.9667 19.2398 13.9591 19.1095 13.9774C18.9792 13.9957 18.8538 14.0396 18.7404 14.1065C18.6271 14.1734 18.528 14.262 18.449 14.3672C18.37 14.4725 18.3125 14.5923 18.2799 14.7198C17.8975 16.2283 17.0233 17.5664 15.7955 18.5226C14.5676 19.4788 13.0561 19.9986 11.4999 19.9998H5.90989L6.54989 19.3698C6.73614 19.1824 6.84068 18.9289 6.84068 18.6648C6.84068 18.4006 6.73614 18.1471 6.54989 17.9598C5.90293 17.2996 5.3931 16.518 5.04983 15.6598C4.70656 14.8016 4.53664 13.8839 4.54989 12.9598C4.55514 11.5801 4.96801 10.2327 5.73662 9.08688C6.50522 7.94108 7.59529 7.04798 8.86989 6.51976C9.11654 6.42163 9.3141 6.22953 9.41912 5.98574C9.52415 5.74194 9.52802 5.46641 9.42989 5.21976C9.33176 4.9731 9.13966 4.77554 8.89587 4.67052C8.65207 4.5655 8.37654 4.56163 8.12989 4.65976C6.82374 5.18332 5.65856 6.00587 4.72791 7.06135C3.79726 8.11683 3.12706 9.37582 2.77115 10.7372C2.41524 12.0987 2.38351 13.5246 2.67853 14.9005C2.97355 16.2764 3.58709 17.5639 4.46989 18.6598L2.78989 20.2898C2.65113 20.4304 2.55713 20.609 2.51976 20.8029C2.48238 20.9969 2.50331 21.1976 2.57989 21.3798C2.65491 21.5624 2.7823 21.7187 2.94602 21.829C3.10974 21.9394 3.30246 21.9988 3.49989 21.9998H11.4999C13.4961 22.001 15.4362 21.3386 17.0147 20.1167C18.5933 18.8947 19.7208 17.1826 20.2199 15.2498C20.2575 15.1204 20.2686 14.9848 20.2525 14.851C20.2364 14.7172 20.1935 14.5881 20.1262 14.4714C20.059 14.3546 19.9688 14.2527 19.8612 14.1716C19.7536 14.0906 19.6307 14.0321 19.4999 13.9998Z" fill="black"/>
</svg>
