<svg width="24" height="24" viewBox="0 0 24 24" fill="none" xmlns="http://www.w3.org/2000/svg">
<path d="M21.6999 2.85989C21.5837 2.76591 21.448 2.69917 21.3026 2.66456C21.1572 2.62995 21.006 2.62835 20.8599 2.65989C20.4593 2.74298 20.046 2.74326 19.6453 2.66072C19.2446 2.57817 18.865 2.41454 18.5299 2.17989C18.3615 2.06155 18.1607 1.99805 17.9549 1.99805C17.7491 1.99805 17.5483 2.06155 17.3799 2.17989C17.0448 2.41454 16.6652 2.57817 16.2645 2.66072C15.8638 2.74326 15.4505 2.74298 15.0499 2.65989C14.9038 2.62835 14.7526 2.62995 14.6072 2.66456C14.4618 2.69917 14.3261 2.76591 14.2099 2.85989C14.0952 2.95295 14.0025 3.07026 13.9385 3.20339C13.8746 3.33653 13.8409 3.48219 13.8399 3.62989V6.99989C13.8416 7.72397 14.0158 8.43722 14.3479 9.08063C14.68 9.72404 15.1606 10.2791 15.7499 10.6999L17.3699 11.8599C17.5402 11.9827 17.7449 12.0489 17.9549 12.0489C18.1649 12.0489 18.3696 11.9827 18.5399 11.8599L20.1599 10.6999C20.7491 10.2791 21.2297 9.72404 21.5619 9.08063C21.894 8.43722 22.0681 7.72397 22.0699 6.99989V3.62989C22.0689 3.48219 22.0352 3.33653 21.9713 3.20339C21.9073 3.07026 21.8146 2.95295 21.6999 2.85989ZM20.0699 6.99989C20.0564 7.3929 19.953 7.77759 19.7675 8.12432C19.582 8.47106 19.3194 8.77061 18.9999 8.99989L17.9999 9.73989L16.9099 8.99989C16.5904 8.77061 16.3278 8.47106 16.1423 8.12432C15.9568 7.77759 15.8533 7.3929 15.8399 6.99989V4.71989C16.5913 4.69579 17.3284 4.5081 17.9999 4.16989C18.6556 4.50261 19.3752 4.69019 20.1099 4.71989L20.0699 6.99989ZM18.9299 13.9999C18.674 13.9361 18.4033 13.976 18.1767 14.1108C17.9501 14.2457 17.7859 14.4646 17.7199 14.7199C17.3371 16.2301 16.4614 17.5694 15.2315 18.5258C14.0016 19.4822 12.4879 20.0009 10.9299 19.9999H5.34989L5.99989 19.3699C6.17426 19.1844 6.27135 18.9395 6.27135 18.6849C6.27135 18.4303 6.17426 18.1854 5.99989 17.9999C5.00473 17.0249 4.32315 15.7751 4.0424 14.4104C3.76165 13.0458 3.89449 11.6284 4.42393 10.3397C4.95337 9.05104 5.85531 7.94965 7.01433 7.17652C8.17334 6.40339 9.53669 5.99371 10.9299 5.99989C11.1951 5.99989 11.4495 5.89454 11.637 5.707C11.8245 5.51946 11.9299 5.26511 11.9299 4.99989C11.9299 4.73468 11.8245 4.48032 11.637 4.29279C11.4495 4.10525 11.1951 3.99989 10.9299 3.99989C9.23736 4.00546 7.58069 4.48817 6.15008 5.39263C4.71946 6.29709 3.57288 7.58663 2.84196 9.11321C2.11104 10.6398 1.8254 12.3415 2.01783 14.0231C2.21027 15.7047 2.87298 17.2979 3.92989 18.6199L2.22989 20.2899C2.08947 20.4292 1.9935 20.6069 1.95411 20.8008C1.91473 20.9946 1.9337 21.1957 2.00862 21.3787C2.08355 21.5618 2.21106 21.7185 2.37505 21.829C2.53903 21.9396 2.73212 21.9991 2.92989 21.9999H10.9299C12.9261 22.0012 14.8662 21.3387 16.4447 20.1168C18.0233 18.8948 19.1508 17.1828 19.6499 15.2499C19.6875 15.1205 19.6986 14.9849 19.6825 14.8511C19.6664 14.7174 19.6235 14.5882 19.5562 14.4715C19.489 14.3547 19.3988 14.2528 19.2912 14.1718C19.1836 14.0907 19.0607 14.0323 18.9299 13.9999Z" fill="black"/>
</svg>
