<svg width="24" height="24" viewBox="0 0 24 24" fill="none" xmlns="http://www.w3.org/2000/svg">
<path d="M6.56993 12.0003C6.77834 11.999 6.98112 11.9325 7.14993 11.8103L8.76993 10.6503C9.35239 10.2345 9.82879 9.68738 10.1606 9.05329C10.4924 8.4192 10.6703 7.71591 10.6799 7.00031V3.63031C10.679 3.4826 10.6453 3.33695 10.5813 3.20381C10.5173 3.07067 10.4246 2.95336 10.3099 2.86031C10.1938 2.76633 10.058 2.69958 9.91263 2.66497C9.76727 2.63036 9.61599 2.62877 9.46993 2.66031C9.06935 2.7434 8.65601 2.74368 8.25532 2.66113C7.85463 2.57859 7.47505 2.41496 7.13993 2.18031C6.97254 2.06418 6.77366 2.00195 6.56993 2.00195C6.3662 2.00195 6.16733 2.06418 5.99993 2.18031C5.66481 2.41496 5.28523 2.57859 4.88454 2.66113C4.48385 2.74368 4.07051 2.7434 3.66993 2.66031C3.52296 2.63028 3.37111 2.63369 3.22563 2.67031C3.08016 2.70693 2.94478 2.77581 2.82954 2.87184C2.7143 2.96788 2.62214 3.08861 2.55989 3.2251C2.49764 3.36158 2.46689 3.51033 2.46993 3.66031V7.00031C2.46972 7.72366 2.64197 8.43665 2.9724 9.08012C3.30283 9.7236 3.78192 10.279 4.36993 10.7003L5.99993 11.8103C6.16403 11.9343 6.36426 12.001 6.56993 12.0003ZM4.45993 7.00031V4.72031C5.19441 4.68937 5.91381 4.50185 6.56993 4.17031C7.22561 4.50302 7.94527 4.69061 8.67993 4.72031V7.00031C8.66648 7.39332 8.56302 7.778 8.37751 8.12474C8.19201 8.47148 7.92941 8.77102 7.60993 9.00031L6.60993 9.74031L5.52993 9.00031C5.21045 8.77102 4.94785 8.47148 4.76235 8.12474C4.57685 7.778 4.47338 7.39332 4.45993 7.00031ZM18.5399 6.00031H13.5399C13.2747 6.00031 13.0204 6.10567 12.8328 6.2932C12.6453 6.48074 12.5399 6.73509 12.5399 7.00031C12.5399 7.26552 12.6453 7.51988 12.8328 7.70742C13.0204 7.89495 13.2747 8.00031 13.5399 8.00031H18.5399C18.8051 8.00031 19.0595 8.10567 19.247 8.2932C19.4346 8.48074 19.5399 8.73509 19.5399 9.00031V18.7203L17.9999 17.2703C17.9104 17.1821 17.8041 17.1128 17.6873 17.0664C17.5705 17.0201 17.4456 16.9976 17.3199 17.0003H8.53993C8.27471 17.0003 8.02036 16.895 7.83282 16.7074C7.64529 16.5199 7.53993 16.2655 7.53993 16.0003V15.0003C7.53993 14.7351 7.43457 14.4807 7.24704 14.2932C7.0595 14.1057 6.80515 14.0003 6.53993 14.0003C6.27471 14.0003 6.02036 14.1057 5.83282 14.2932C5.64529 14.4807 5.53993 14.7351 5.53993 15.0003V16.0003C5.53993 16.796 5.856 17.559 6.41861 18.1216C6.98122 18.6842 7.74428 19.0003 8.53993 19.0003H16.8999L19.8999 21.7303C20.0818 21.9006 20.3208 21.9969 20.5699 22.0003C20.7103 21.9989 20.8493 21.9718 20.9799 21.9203C21.1569 21.8407 21.307 21.7114 21.4117 21.548C21.5165 21.3847 21.5715 21.1944 21.5699 21.0003V9.00031C21.57 8.60381 21.4914 8.21123 21.3387 7.84529C21.1861 7.47934 20.9624 7.14728 20.6807 6.86831C20.3989 6.58934 20.0646 6.36899 19.6972 6.22C19.3298 6.07101 18.9364 5.99634 18.5399 6.00031Z" fill="black"/>
</svg>
