<svg width="24" height="24" viewBox="0 0 24 24" fill="none" xmlns="http://www.w3.org/2000/svg">
<path d="M19.0599 13.51C18.7975 13.4789 18.5334 13.553 18.3254 13.716C18.1174 13.879 17.9824 14.1177 17.9499 14.38C17.7355 16.0715 16.9112 17.6267 15.6315 18.7535C14.3519 19.8803 12.705 20.5013 10.9999 20.5H5.4099L6.0499 19.87C6.23615 19.6826 6.34069 19.4292 6.34069 19.165C6.34069 18.9008 6.23615 18.6474 6.0499 18.46C5.17398 17.5876 4.54474 16.4988 4.22615 15.3043C3.90756 14.1098 3.91099 12.8522 4.2361 11.6595C4.56121 10.4668 5.19639 9.3814 6.07705 8.51378C6.95771 7.64617 8.05244 7.02726 9.2499 6.72C9.50716 6.6537 9.72754 6.48791 9.86257 6.25912C9.99759 6.03032 10.0362 5.75726 9.9699 5.5C9.90359 5.24274 9.73781 5.02236 9.50901 4.88733C9.28022 4.7523 9.00716 4.7137 8.7499 4.78C7.2969 5.15885 5.96178 5.89522 4.86616 6.92203C3.77054 7.94885 2.94924 9.23347 2.47709 10.6589C2.00493 12.0843 1.89692 13.6052 2.1629 15.083C2.42888 16.5609 3.06038 17.9487 3.9999 19.12L2.2899 20.79C2.15114 20.9306 2.05714 21.1092 2.01977 21.3032C1.98239 21.4972 2.00332 21.6979 2.0799 21.88C2.15492 22.0626 2.28231 22.2189 2.44603 22.3293C2.60975 22.4396 2.80247 22.499 2.9999 22.5H10.9999C13.1929 22.5 15.3104 21.6993 16.9547 20.2483C18.599 18.7973 19.657 16.7959 19.9299 14.62C19.961 14.3576 19.8869 14.0935 19.7239 13.8855C19.5609 13.6775 19.3221 13.5425 19.0599 13.51ZM18.9999 7.5C18.5751 7.5014 18.1618 7.63799 17.8199 7.89L16.0699 7.09L17.9999 6.21C18.3018 6.39326 18.6468 6.49332 18.9999 6.5C19.3955 6.5 19.7821 6.3827 20.111 6.16294C20.4399 5.94318 20.6963 5.63082 20.8477 5.26537C20.999 4.89992 21.0386 4.49778 20.9615 4.10982C20.8843 3.72186 20.6938 3.36549 20.4141 3.08579C20.1344 2.80608 19.778 2.6156 19.3901 2.53843C19.0021 2.46126 18.6 2.50087 18.2345 2.65224C17.8691 2.80362 17.5567 3.05996 17.337 3.38886C17.1172 3.71776 16.9999 4.10444 16.9999 4.5L15.0999 5.37C14.7779 5.14066 14.3951 5.0119 13.9999 5C13.4695 5 12.9608 5.21071 12.5857 5.58579C12.2106 5.96086 11.9999 6.46957 11.9999 7C11.9999 7.53043 12.2106 8.03914 12.5857 8.41421C12.9608 8.78929 13.4695 9 13.9999 9C14.3248 8.99673 14.644 8.91435 14.9299 8.76L17.0199 9.76C17.0699 10.1413 17.2288 10.5002 17.4775 10.7935C17.7262 11.0868 18.0543 11.3022 18.4223 11.4139C18.7903 11.5255 19.1828 11.5287 19.5526 11.423C19.9223 11.3173 20.2538 11.1072 20.5073 10.818C20.7607 10.5287 20.9253 10.1725 20.9815 9.79198C21.0376 9.41151 20.9829 9.02291 20.8238 8.67276C20.6647 8.3226 20.4081 8.02574 20.0846 7.81774C19.7611 7.60974 19.3845 7.49942 18.9999 7.5Z" fill="black"/>
</svg>
