<svg width="24" height="24" viewBox="0 0 24 24" fill="none" xmlns="http://www.w3.org/2000/svg">
<path d="M18.9999 13.9996C18.8725 13.9666 18.7398 13.959 18.6095 13.9773C18.4792 13.9956 18.3538 14.0395 18.2404 14.1063C18.1271 14.1732 18.0281 14.2618 17.949 14.3671C17.87 14.4723 17.8125 14.5921 17.7799 14.7196C17.3975 16.2282 16.5233 17.5663 15.2955 18.5225C14.0676 19.4787 12.5561 19.9984 10.9999 19.9996H5.4099L6.0499 19.3696C6.23615 19.1823 6.34069 18.9288 6.34069 18.6646C6.34069 18.4004 6.23615 18.147 6.0499 17.9596C5.06739 16.9812 4.3976 15.733 4.12548 14.3733C3.85336 13.0137 3.99118 11.6039 4.52144 10.3227C5.05171 9.04147 5.95053 7.94661 7.10392 7.17696C8.25731 6.4073 9.61329 5.99754 10.9999 5.99962C11.2651 5.99962 11.5195 5.89427 11.707 5.70673C11.8945 5.51919 11.9999 5.26484 11.9999 4.99962C11.9999 4.73441 11.8945 4.48005 11.707 4.29252C11.5195 4.10498 11.2651 3.99962 10.9999 3.99962C9.30736 4.00519 7.6507 4.4879 6.22008 5.39236C4.78947 6.29682 3.64289 7.58636 2.91196 9.11294C2.18104 10.6395 1.8954 12.3413 2.08784 14.0228C2.28028 15.7044 2.94299 17.2976 3.9999 18.6196L2.2899 20.2896C2.15114 20.4302 2.05714 20.6088 2.01977 20.8028C1.98239 20.9968 2.00332 21.1975 2.0799 21.3796C2.15492 21.5622 2.28231 21.7186 2.44603 21.8289C2.60975 21.9392 2.80247 21.9986 2.9999 21.9996H10.9999C12.9961 22.0009 14.9362 21.3385 16.5147 20.1165C18.0933 18.8946 19.2208 17.1825 19.7199 15.2496C19.7575 15.1203 19.7686 14.9846 19.7525 14.8509C19.7364 14.7171 19.6935 14.588 19.6262 14.4712C19.559 14.3545 19.4688 14.2525 19.3612 14.1715C19.2536 14.0904 19.1307 14.032 18.9999 13.9996ZM21.7099 5.25962L18.7099 2.25962C18.6148 2.16858 18.5026 2.09722 18.3799 2.04962C18.1364 1.9496 17.8634 1.9496 17.6199 2.04962C17.4971 2.09722 17.385 2.16858 17.2899 2.25962L14.2899 5.25962C14.1016 5.44793 13.9958 5.70332 13.9958 5.96962C13.9958 6.23592 14.1016 6.49132 14.2899 6.67962C14.4782 6.86793 14.7336 6.97371 14.9999 6.97371C15.2662 6.97371 15.5216 6.86793 15.7099 6.67962L16.9999 5.40962V10.9996C16.9999 11.2648 17.1053 11.5192 17.2928 11.7067C17.4803 11.8943 17.7347 11.9996 17.9999 11.9996C18.2651 11.9996 18.5195 11.8943 18.707 11.7067C18.8945 11.5192 18.9999 11.2648 18.9999 10.9996V5.40962L20.2899 6.70962C20.3829 6.80335 20.4935 6.87775 20.6153 6.92851C20.7372 6.97928 20.8679 7.00542 20.9999 7.00542C21.1319 7.00542 21.2626 6.97928 21.3845 6.92851C21.5063 6.87775 21.6169 6.80335 21.7099 6.70962C21.8036 6.61666 21.878 6.50606 21.9288 6.3842C21.9796 6.26234 22.0057 6.13163 22.0057 5.99962C22.0057 5.86761 21.9796 5.73691 21.9288 5.61505C21.878 5.49319 21.8036 5.38259 21.7099 5.28962V5.25962Z" fill="black"/>
</svg>
