<svg width="24" height="24" viewBox="0 0 24 24" fill="none" xmlns="http://www.w3.org/2000/svg">
<path d="M5.49994 10.9999C5.49994 11.2651 5.6053 11.5195 5.79283 11.707C5.98037 11.8945 6.23472 11.9999 6.49994 11.9999C6.76516 11.9999 7.01951 11.8945 7.20705 11.707C7.39458 11.5195 7.49994 11.2651 7.49994 10.9999V5.4099L8.78994 6.7099C8.8829 6.80363 8.99351 6.87802 9.11536 6.92879C9.23722 6.97956 9.36793 7.00569 9.49994 7.00569C9.63195 7.00569 9.76266 6.97956 9.88452 6.92879C10.0064 6.87802 10.117 6.80363 10.2099 6.7099C10.3037 6.61693 10.3781 6.50633 10.4288 6.38447C10.4796 6.26261 10.5057 6.13191 10.5057 5.9999C10.5057 5.86788 10.4796 5.73718 10.4288 5.61532C10.3781 5.49346 10.3037 5.38286 10.2099 5.2899L7.20994 2.2899C7.11484 2.19886 7.00269 2.12749 6.87994 2.0799C6.63648 1.97988 6.3634 1.97988 6.11994 2.0799C5.99719 2.12749 5.88504 2.19886 5.78994 2.2899L2.78994 5.2899C2.60164 5.4782 2.49585 5.73359 2.49585 5.9999C2.49585 6.2662 2.60164 6.52159 2.78994 6.7099C2.97824 6.8982 3.23364 7.00399 3.49994 7.00399C3.76624 7.00399 4.02164 6.8982 4.20994 6.7099L5.49994 5.4099V10.9999ZM18.4999 5.9999H13.4999C13.2347 5.9999 12.9804 6.10525 12.7928 6.29279C12.6053 6.48033 12.4999 6.73468 12.4999 6.9999C12.4999 7.26511 12.6053 7.51947 12.7928 7.707C12.9804 7.89454 13.2347 7.9999 13.4999 7.9999H18.4999C18.7652 7.9999 19.0195 8.10525 19.207 8.29279C19.3946 8.48033 19.4999 8.73468 19.4999 8.9999V18.7199L17.9299 17.2699C17.7455 17.0972 17.5026 17.0008 17.2499 16.9999H8.49994C8.23472 16.9999 7.98037 16.8945 7.79283 16.707C7.6053 16.5195 7.49994 16.2651 7.49994 15.9999V14.9999C7.49994 14.7347 7.39458 14.4803 7.20705 14.2928C7.01951 14.1053 6.76516 13.9999 6.49994 13.9999C6.23472 13.9999 5.98037 14.1053 5.79283 14.2928C5.6053 14.4803 5.49994 14.7347 5.49994 14.9999V15.9999C5.49994 16.7955 5.81601 17.5586 6.37862 18.1212C6.94123 18.6838 7.70429 18.9999 8.49994 18.9999H16.8599L19.8599 21.7299C20.0444 21.9026 20.2873 21.999 20.5399 21.9999C20.6771 21.9984 20.8128 21.9713 20.9399 21.9199C21.1188 21.8418 21.2709 21.7131 21.3776 21.5496C21.4842 21.3862 21.5406 21.1951 21.5399 20.9999V8.9999C21.54 8.60254 21.4611 8.20914 21.3078 7.84253C21.1546 7.47592 20.93 7.14341 20.6472 6.86431C20.3643 6.5852 20.0289 6.36506 19.6603 6.21667C19.2917 6.06828 18.8973 5.9946 18.4999 5.9999Z" fill="black"/>
</svg>
